<svg id="Layer_1" data-name="Layer 1" xmlns="http://www.w3.org/2000/svg" viewBox="0 0 476.84 507.5"><title>Artboard 3</title><path d="M36.87,456.83V422.91H61.39v4h-20V437.3H60.12v4H41.35v11.55H62.18v4Z"/><path d="M96,453.2a27.43,27.43,0,0,0,5.77,3.14l-1.33,3.13a26.73,26.73,0,0,1-7.28-4.17,16.86,16.86,0,0,1-8.34,2.1,16,16,0,0,1-8.34-2.21,14.87,14.87,0,0,1-5.78-6.25,19.91,19.91,0,0,1-2-9.08,20.3,20.3,0,0,1,2-9.13,14.29,14.29,0,0,1,5.8-6.27,16.56,16.56,0,0,1,8.41-2.16,16.26,16.26,0,0,1,8.46,2.24,14.61,14.61,0,0,1,5.76,6.24,20.37,20.37,0,0,1,2,9.06,21,21,0,0,1-1.28,7.54A15.9,15.9,0,0,1,96,453.2Zm-9.88-5.74a16.48,16.48,0,0,1,6.41,3.24q4-3.61,4-10.86a17.27,17.27,0,0,0-1.4-7.19,10.79,10.79,0,0,0-4.1-4.78,11.74,11.74,0,0,0-14.38,1.73q-3.3,3.45-3.31,10.26,0,6.63,3.28,10.17a10.88,10.88,0,0,0,8.36,3.54,11.57,11.57,0,0,0,4.54-.91A14.79,14.79,0,0,0,85,450.72Z"/><path d="M130.34,422.91h4.49V442.5a23,23,0,0,1-1.16,8.12,9.91,9.91,0,0,1-4.17,4.9,14.74,14.74,0,0,1-7.92,1.88,16.28,16.28,0,0,1-7.81-1.64,9.34,9.34,0,0,1-4.32-4.75,22.76,22.76,0,0,1-1.3-8.51V422.91h4.49v19.57a19,19,0,0,0,.82,6.51,6.2,6.2,0,0,0,2.83,3.23,9.72,9.72,0,0,0,4.89,1.14q4.95,0,7-2.25c1.41-1.5,2.11-4.37,2.11-8.63Z"/><path d="M140.48,456.83l13-33.92h4.84l13.88,33.92h-5.11l-4-10.27H149l-3.73,10.27Zm9.78-13.93h11.5l-3.54-9.39c-1.07-2.86-1.88-5.2-2.4-7A43,43,0,0,1,154,433Z"/><path d="M176.57,456.83V422.91h4.49v29.92h16.71v4Z"/><path d="M219.4,456.83V422.91h4.48v13.93h17.64V422.91H246v33.92h-4.49v-16H223.88v16Z"/><path d="M254,440.31q0-8.44,4.54-13.23a15.44,15.44,0,0,1,11.7-4.78,16.18,16.18,0,0,1,8.47,2.25,14.75,14.75,0,0,1,5.76,6.25,20.53,20.53,0,0,1,2,9.12,20,20,0,0,1-2.08,9.23,14.29,14.29,0,0,1-5.9,6.16,16.91,16.91,0,0,1-8.24,2.09,16.08,16.08,0,0,1-8.56-2.31,14.83,14.83,0,0,1-5.71-6.31A19.12,19.12,0,0,1,254,440.31Zm4.63.06q0,6.15,3.3,9.67a11.49,11.49,0,0,0,16.61,0q3.27-3.56,3.28-10.11a17.27,17.27,0,0,0-1.41-7.23,10.68,10.68,0,0,0-4.09-4.79,11.13,11.13,0,0,0-6.05-1.7,11.44,11.44,0,0,0-8.2,3.28Q258.65,432.72,258.64,440.37Z"/><path d="M316.39,422.91h4.49V442.5a23.18,23.18,0,0,1-1.16,8.12,9.88,9.88,0,0,1-4.18,4.9,14.74,14.74,0,0,1-7.92,1.88,16.23,16.23,0,0,1-7.8-1.64A9.34,9.34,0,0,1,295.5,451a22.56,22.56,0,0,1-1.3-8.51V422.91h4.49v19.57a19,19,0,0,0,.82,6.51,6.18,6.18,0,0,0,2.82,3.23,9.73,9.73,0,0,0,4.9,1.14c3.29,0,5.65-.75,7-2.25s2.11-4.37,2.11-8.63Z"/><path d="M328.72,445.93l4.23-.37a9.39,9.39,0,0,0,1.4,4.18,7.75,7.75,0,0,0,3.41,2.64,13.15,13.15,0,0,0,5.21,1,12.61,12.61,0,0,0,4.53-.76,6.25,6.25,0,0,0,2.93-2.09,4.84,4.84,0,0,0,1-2.91,4.42,4.42,0,0,0-.92-2.79,7,7,0,0,0-3.05-2,62.11,62.11,0,0,0-6.05-1.66,30.48,30.48,0,0,1-6.54-2.11,9.24,9.24,0,0,1-3.63-3.16,7.77,7.77,0,0,1-1.18-4.23,8.59,8.59,0,0,1,1.46-4.8,9,9,0,0,1,4.25-3.39,16.14,16.14,0,0,1,6.22-1.15,17.27,17.27,0,0,1,6.66,1.21,9.71,9.71,0,0,1,4.43,3.58,10.3,10.3,0,0,1,1.66,5.35l-4.3.32a7,7,0,0,0-2.35-4.86q-2-1.65-5.91-1.65-4.08,0-5.94,1.5a4.47,4.47,0,0,0-1.86,3.6,3.83,3.83,0,0,0,1.32,3c.86.79,3.12,1.6,6.76,2.42a43.13,43.13,0,0,1,7.52,2.17,10.25,10.25,0,0,1,4.37,3.45,8.46,8.46,0,0,1,1.41,4.83,9.24,9.24,0,0,1-1.55,5.1,10.13,10.13,0,0,1-4.45,3.72,15.51,15.51,0,0,1-6.54,1.33,19.46,19.46,0,0,1-7.72-1.34,10.72,10.72,0,0,1-4.88-4A11.38,11.38,0,0,1,328.72,445.93Z"/><path d="M363.57,456.83V422.91h4.48v33.92Z"/><path d="M375.92,456.83V422.91h4.61l17.82,26.63V422.91h4.3v33.92H398l-17.82-26.66v26.66Z"/><path d="M428,443.52v-4l14.37,0v12.59a25.27,25.27,0,0,1-6.83,4,20.16,20.16,0,0,1-7.22,1.33,19.22,19.22,0,0,1-9.08-2.14,14,14,0,0,1-6.16-6.18A19.37,19.37,0,0,1,411,440a21,21,0,0,1,2.07-9.25,13.88,13.88,0,0,1,6-6.37,18.64,18.64,0,0,1,9-2.08,17.69,17.69,0,0,1,6.65,1.19,11,11,0,0,1,4.66,3.32,14.89,14.89,0,0,1,2.57,5.55l-4.05,1.12a12.52,12.52,0,0,0-1.9-4.08,7.8,7.8,0,0,0-3.24-2.37,11.92,11.92,0,0,0-4.67-.89,13.64,13.64,0,0,0-5.32.94,9.87,9.87,0,0,0-3.63,2.46,12.07,12.07,0,0,0-2.14,3.35,17.9,17.9,0,0,0-1.29,6.83,16.6,16.6,0,0,0,1.56,7.59,10,10,0,0,0,4.55,4.54,14.16,14.16,0,0,0,6.34,1.48,15,15,0,0,0,5.69-1.13,14.52,14.52,0,0,0,4.21-2.39v-6.32Z"/><path d="M34,486.6c0-6.87,1.85-12.27,5.54-16.16a18.83,18.83,0,0,1,14.31-5.83,19.87,19.87,0,0,1,10.35,2.74,17.84,17.84,0,0,1,7,7.64,24.77,24.77,0,0,1,2.42,11.13,24.36,24.36,0,0,1-2.55,11.28,17.28,17.28,0,0,1-7.21,7.53,20.52,20.52,0,0,1-10.06,2.57,19.61,19.61,0,0,1-10.46-2.83,18.22,18.22,0,0,1-7-7.72A23.3,23.3,0,0,1,34,486.6Zm5.66.09q0,7.49,4,11.8a13.25,13.25,0,0,0,10.11,4.31A13.22,13.22,0,0,0,64,498.45c2.67-2.9,4-7,4-12.36a21.17,21.17,0,0,0-1.71-8.83,13.13,13.13,0,0,0-5-5.86,13.62,13.62,0,0,0-7.39-2.08,14,14,0,0,0-10,4Q39.68,477.32,39.68,486.69Z"/><path d="M80.73,506.79V465.34H96.36a37.16,37.16,0,0,1,6.31.4,12.63,12.63,0,0,1,5.11,1.93,10.18,10.18,0,0,1,3.33,4,13.52,13.52,0,0,1-2.11,14.6c-2.25,2.45-6.3,3.66-12.16,3.66H86.21v16.86Zm5.48-21.74H96.93c3.54,0,6.06-.66,7.54-2a7,7,0,0,0,2.24-5.58,7.48,7.48,0,0,0-1.32-4.45,6.12,6.12,0,0,0-3.46-2.44,23.25,23.25,0,0,0-5.12-.36H86.21Z"/><path d="M119.35,506.79V465.34H135a37.16,37.16,0,0,1,6.31.4,12.63,12.63,0,0,1,5.11,1.93,10.18,10.18,0,0,1,3.33,4,13.52,13.52,0,0,1-2.11,14.6c-2.24,2.45-6.29,3.66-12.16,3.66H124.83v16.86Zm5.48-21.74h10.72q5.31,0,7.55-2a7.06,7.06,0,0,0,2.23-5.58A7.48,7.48,0,0,0,144,473a6.16,6.16,0,0,0-3.46-2.44,23.31,23.31,0,0,0-5.12-.36h-10.6Z"/><path d="M156.3,486.6c0-6.87,1.84-12.27,5.54-16.16a18.85,18.85,0,0,1,14.31-5.83,19.81,19.81,0,0,1,10.34,2.74,17.8,17.8,0,0,1,7,7.64,24.9,24.9,0,0,1,2.41,11.13,24.36,24.36,0,0,1-2.54,11.28,17.28,17.28,0,0,1-7.21,7.53,20.58,20.58,0,0,1-10.07,2.57,19.63,19.63,0,0,1-10.45-2.83,18.24,18.24,0,0,1-7-7.72A23.43,23.43,0,0,1,156.3,486.6Zm5.65.09q0,7.49,4,11.8a14.06,14.06,0,0,0,20.3,0c2.67-2.9,4-7,4-12.36a21.17,21.17,0,0,0-1.71-8.83,13.19,13.19,0,0,0-5-5.86,13.65,13.65,0,0,0-7.4-2.08,14,14,0,0,0-10,4Q162,477.32,162,486.69Z"/><path d="M203.09,506.79V465.34h18.38a24.53,24.53,0,0,1,8.42,1.12,9.17,9.17,0,0,1,4.61,3.94,11.78,11.78,0,0,1,1.72,6.25,10.41,10.41,0,0,1-2.85,7.43q-2.87,3-8.82,3.85a13.8,13.8,0,0,1,3.3,2.07,28,28,0,0,1,4.56,5.51l7.2,11.28h-6.89l-5.49-8.63c-1.6-2.48-2.92-4.39-3.95-5.71a12.55,12.55,0,0,0-2.79-2.77,8.2,8.2,0,0,0-2.5-1.1,16.63,16.63,0,0,0-3.06-.2h-6.36v18.41Zm5.48-23.16h11.79a17.7,17.7,0,0,0,5.89-.78,6.28,6.28,0,0,0,3.22-2.48,6.77,6.77,0,0,0,1.1-3.72,6.2,6.2,0,0,0-2.13-4.84q-2.15-1.89-6.75-1.89H208.57Z"/><path d="M254.32,506.79V470.24H240.66v-4.9h32.86v4.9H259.8v36.55Z"/><path d="M306.34,465.34h5.48v23.94a28.43,28.43,0,0,1-1.41,9.93,12.13,12.13,0,0,1-5.11,6,18.11,18.11,0,0,1-9.68,2.31,19.93,19.93,0,0,1-9.53-2,11.49,11.49,0,0,1-5.28-5.81,27.62,27.62,0,0,1-1.59-10.4V465.34h5.49v23.92a23.59,23.59,0,0,0,1,8,7.65,7.65,0,0,0,3.46,3.94,11.85,11.85,0,0,0,6,1.38q6.06,0,8.62-2.74t2.58-10.54Z"/><path d="M320.9,506.79V465.34h5.63l21.77,32.54V465.34h5.25v41.45h-5.62l-21.78-32.57v32.57Z"/><path d="M363.71,506.79V465.34h5.48v41.45Z"/><path d="M389.4,506.79V470.24H375.75v-4.9H408.6v4.9H394.89v36.55Z"/><path d="M425.9,506.79V489.23l-16-23.89h6.67l8.17,12.5q2.26,3.5,4.21,7c1.25-2.17,2.75-4.61,4.53-7.32l8-12.19h6.39l-16.54,23.89v17.56Z"/><path d="M0,158,234.63,0h7.57L476.84,158v64.33h-31.7V411.55H29.33V221.39H0ZM81.36,346.75H393.1V186.38L238,82.79,81.36,186.38Z"/><rect x="155.28" y="171.6" width="164.74" height="66.68"/><rect x="155.28" y="249.77" width="164.74" height="66.68"/></svg>