<?xml version="1.0" encoding="utf-8"?>
<!-- Generator: Adobe Illustrator 22.1.0, SVG Export Plug-In . SVG Version: 6.00 Build 0)  -->
<svg version="1.1" id="Layer_1" xmlns="http://www.w3.org/2000/svg" xmlns:xlink="http://www.w3.org/1999/xlink" x="0px" y="0px"
	 viewBox="0 0 476.8 507.5" style="enable-background:new 0 0 476.8 507.5;" xml:space="preserve">
<style type="text/css">
	.st0{fill:#005366;}
</style>
<title>Artboard 3</title>
<path class="st0" d="M36.9,456.8v-33.9h24.5v4h-20v10.4h18.7v4H41.3v11.5h20.8v4L36.9,456.8z"/>
<path class="st0" d="M96,453.2c1.8,1.3,3.7,2.3,5.8,3.1l-1.3,3.1c-2.6-1-5.1-2.4-7.3-4.2c-2.6,1.4-5.4,2.1-8.3,2.1
	c-2.9,0-5.8-0.7-8.3-2.2c-2.5-1.5-4.5-3.6-5.8-6.2c-1.4-2.8-2.1-5.9-2-9.1c-0.1-3.2,0.6-6.3,2-9.1c1.2-2.6,3.3-4.8,5.8-6.3
	c2.6-1.5,5.5-2.2,8.4-2.2c3,0,5.9,0.7,8.5,2.2c2.5,1.5,4.5,3.6,5.8,6.2c1.4,2.8,2,5.9,2,9.1c0,2.6-0.4,5.1-1.3,7.5
	C99,449.6,97.7,451.6,96,453.2z M86.1,447.5c2.3,0.6,4.5,1.7,6.4,3.2c2.7-2.4,4-6,4-10.9c0.1-2.5-0.4-4.9-1.4-7.2
	c-0.9-2-2.3-3.6-4.1-4.8c-4.6-2.8-10.6-2.1-14.4,1.7c-2.2,2.3-3.3,5.7-3.3,10.3c0,4.4,1.1,7.8,3.3,10.2c2.1,2.3,5.2,3.6,8.4,3.5
	c1.6,0,3.1-0.3,4.5-0.9c-1.4-0.9-2.9-1.6-4.5-1.9L86.1,447.5z"/>
<path class="st0" d="M130.3,422.9h4.5v19.6c0.1,2.8-0.3,5.5-1.2,8.1c-0.8,2.1-2.3,3.8-4.2,4.9c-2.4,1.4-5.2,2-7.9,1.9
	c-2.7,0.1-5.4-0.5-7.8-1.6c-2-1-3.5-2.7-4.3-4.8c-1-2.7-1.4-5.6-1.3-8.5v-19.6h4.5v19.6c-0.1,2.2,0.2,4.4,0.8,6.5
	c0.5,1.4,1.5,2.5,2.8,3.2c1.5,0.8,3.2,1.2,4.9,1.1c3.3,0,5.6-0.8,7-2.2c1.4-1.5,2.1-4.4,2.1-8.6L130.3,422.9z"/>
<path class="st0" d="M140.5,456.8l13-33.9h4.8l13.9,33.9h-5.1l-4-10.3H149l-3.7,10.3L140.5,456.8z M150.3,442.9h11.5l-3.5-9.4
	c-1.1-2.9-1.9-5.2-2.4-7c-0.4,2.2-1,4.4-1.8,6.5L150.3,442.9z"/>
<path class="st0" d="M176.6,456.8v-33.9h4.5v29.9h16.7v4L176.6,456.8z"/>
<path class="st0" d="M219.4,456.8v-33.9h4.5v13.9h17.6v-13.9h4.5v33.9h-4.5v-16h-17.6v16L219.4,456.8z"/>
<path class="st0" d="M254,440.3c0-5.6,1.5-10,4.5-13.2c3-3.2,7.3-4.9,11.7-4.8c3,0,5.9,0.7,8.5,2.2c2.5,1.5,4.5,3.6,5.8,6.2
	c1.4,2.8,2,6,2,9.1c0.1,3.2-0.7,6.4-2.1,9.2c-1.3,2.6-3.4,4.8-5.9,6.2c-2.5,1.4-5.4,2.1-8.2,2.1c-3,0-6-0.8-8.6-2.3
	c-2.5-1.5-4.5-3.7-5.7-6.3C254.7,446.1,254,443.2,254,440.3z M258.6,440.4c0,4.1,1.1,7.3,3.3,9.7c4.4,4.6,11.7,4.8,16.2,0.4
	c0.1-0.1,0.2-0.2,0.4-0.4c2.2-2.4,3.3-5.7,3.3-10.1c0.1-2.5-0.4-4.9-1.4-7.2c-0.9-2-2.3-3.6-4.1-4.8c-1.8-1.1-3.9-1.7-6-1.7
	c-3.1,0-6,1.1-8.2,3.3C259.8,431.6,258.6,435.3,258.6,440.4L258.6,440.4z"/>
<path class="st0" d="M316.4,422.9h4.5v19.6c0.1,2.8-0.3,5.5-1.2,8.1c-0.8,2.1-2.3,3.8-4.2,4.9c-2.4,1.4-5.2,2-7.9,1.9
	c-2.7,0.1-5.4-0.5-7.8-1.6c-2-1-3.5-2.7-4.3-4.8c-1-2.7-1.4-5.6-1.3-8.5v-19.6h4.5v19.6c-0.1,2.2,0.2,4.4,0.8,6.5
	c0.5,1.4,1.5,2.5,2.8,3.2c1.5,0.8,3.2,1.2,4.9,1.1c3.3,0,5.6-0.8,7-2.2s2.1-4.4,2.1-8.6L316.4,422.9z"/>
<path class="st0" d="M328.7,445.9l4.2-0.4c0.1,1.5,0.6,2.9,1.4,4.2c0.9,1.2,2,2.1,3.4,2.6c1.7,0.7,3.4,1,5.2,1
	c1.5,0,3.1-0.2,4.5-0.8c1.2-0.4,2.2-1.1,2.9-2.1c0.6-0.8,1-1.9,1-2.9c0-1-0.3-2-0.9-2.8c-0.8-0.9-1.9-1.6-3-2c-2-0.7-4-1.2-6-1.7
	c-2.3-0.5-4.4-1.2-6.5-2.1c-1.5-0.7-2.7-1.8-3.6-3.2c-0.8-1.3-1.2-2.7-1.2-4.2c0-1.7,0.5-3.4,1.5-4.8c1-1.5,2.5-2.7,4.2-3.4
	c2-0.8,4.1-1.2,6.2-1.1c2.3,0,4.5,0.4,6.7,1.2c1.8,0.7,3.3,2,4.4,3.6c1,1.6,1.6,3.4,1.7,5.4l-4.3,0.3c-0.1-1.9-0.9-3.6-2.4-4.9
	c-1.3-1.1-3.3-1.6-5.9-1.6c-2.7,0-4.7,0.5-5.9,1.5c-1.2,0.8-1.9,2.2-1.9,3.6c0,1.1,0.5,2.2,1.3,3c0.9,0.8,3.1,1.6,6.8,2.4
	c2.6,0.5,5.1,1.2,7.5,2.2c1.7,0.7,3.3,1.9,4.4,3.5c0.9,1.4,1.4,3.1,1.4,4.8c0,1.8-0.5,3.6-1.5,5.1c-1.1,1.6-2.6,2.9-4.5,3.7
	c-2.1,0.9-4.3,1.4-6.5,1.3c-2.6,0.1-5.3-0.4-7.7-1.3c-2-0.8-3.7-2.2-4.9-4C329.4,450.2,328.8,448.1,328.7,445.9z"/>
<path class="st0" d="M363.6,456.8v-33.9h4.5v33.9L363.6,456.8z"/>
<path class="st0" d="M375.9,456.8v-33.9h4.6l17.8,26.6v-26.6h4.3v33.9H398l-17.8-26.7v26.7L375.9,456.8z"/>
<path class="st0" d="M428,443.5v-4h14.4v12.6c-2.1,1.7-4.4,3-6.8,4c-2.3,0.9-4.8,1.3-7.2,1.3c-3.2,0-6.3-0.7-9.1-2.1
	c-2.7-1.4-4.8-3.5-6.2-6.2c-1.4-2.8-2.1-6-2.1-9.1c0-3.2,0.7-6.4,2.1-9.2c1.3-2.7,3.4-4.9,6-6.4c2.8-1.4,5.9-2.2,9-2.1
	c2.3,0,4.5,0.4,6.6,1.2c1.8,0.7,3.4,1.8,4.7,3.3c1.2,1.7,2.1,3.5,2.6,5.5l-4,1.1c-0.4-1.5-1-2.8-1.9-4.1c-0.9-1.1-2-1.9-3.2-2.4
	c-1.5-0.6-3.1-0.9-4.7-0.9c-1.8,0-3.6,0.3-5.3,0.9c-1.4,0.5-2.6,1.4-3.6,2.5c-0.9,1-1.6,2.1-2.1,3.4c-0.9,2.2-1.3,4.5-1.3,6.8
	c-0.1,2.6,0.4,5.2,1.6,7.6c1,2,2.6,3.6,4.5,4.5c2,1,4.1,1.5,6.3,1.5c2,0,3.9-0.4,5.7-1.1c1.5-0.6,3-1.4,4.2-2.4v-6.3L428,443.5z"/>
<path class="st0" d="M34,486.6c0-6.9,1.8-12.3,5.5-16.2c3.7-3.9,8.9-6,14.3-5.8c3.6-0.1,7.2,0.9,10.4,2.7c3,1.8,5.5,4.5,7,7.6
	c1.7,3.5,2.5,7.3,2.4,11.1c0.1,3.9-0.8,7.8-2.6,11.3c-1.6,3.2-4.1,5.8-7.2,7.5c-3.1,1.7-6.5,2.6-10.1,2.6c-3.7,0.1-7.3-0.9-10.5-2.8
	c-3-1.8-5.5-4.5-7-7.7C34.8,493.7,34,490.2,34,486.6z M39.7,486.7c0,5,1.3,8.9,4,11.8c2.6,2.8,6.3,4.4,10.1,4.3
	c3.9,0.1,7.6-1.5,10.2-4.3c2.7-2.9,4-7,4-12.4c0.1-3-0.5-6-1.7-8.8c-1-2.4-2.8-4.5-5-5.9c-2.2-1.4-4.8-2.1-7.4-2.1
	c-3.7-0.1-7.3,1.4-10,4C41.1,476,39.7,480.4,39.7,486.7L39.7,486.7z"/>
<path class="st0" d="M80.7,506.8v-41.5h15.6c2.1,0,4.2,0.1,6.3,0.4c1.8,0.3,3.6,0.9,5.1,1.9c1.4,1,2.6,2.4,3.3,4
	c2.2,4.9,1.4,10.6-2.1,14.6c-2.2,2.5-6.3,3.7-12.2,3.7H86.2v16.9L80.7,506.8z M86.2,485.1h10.7c3.5,0,6.1-0.7,7.5-2
	c1.5-1.4,2.4-3.5,2.2-5.6c0-1.6-0.4-3.1-1.3-4.5c-0.8-1.2-2.1-2.1-3.5-2.4c-1.7-0.3-3.4-0.4-5.1-0.4H86.2L86.2,485.1z"/>
<path class="st0" d="M119.3,506.8v-41.5H135c2.1,0,4.2,0.1,6.3,0.4c1.8,0.3,3.6,0.9,5.1,1.9c1.4,1,2.6,2.4,3.3,4
	c2.2,4.9,1.4,10.6-2.1,14.6c-2.2,2.5-6.3,3.7-12.2,3.7h-10.6v16.9L119.3,506.8z M124.8,485.1h10.7c3.5,0,6.1-0.7,7.6-2
	c1.5-1.4,2.4-3.5,2.2-5.6c0-1.6-0.4-3.2-1.3-4.5c-0.8-1.2-2.1-2.1-3.5-2.4c-1.7-0.3-3.4-0.4-5.1-0.4h-10.6L124.8,485.1z"/>
<path class="st0" d="M156.3,486.6c0-6.9,1.8-12.3,5.5-16.2c3.7-3.9,8.9-6,14.3-5.8c3.6-0.1,7.2,0.9,10.3,2.7c3,1.8,5.5,4.5,7,7.6
	c1.7,3.5,2.5,7.3,2.4,11.1c0.1,3.9-0.8,7.8-2.5,11.3c-1.6,3.2-4.1,5.8-7.2,7.5c-3.1,1.7-6.5,2.6-10.1,2.6c-3.7,0.1-7.3-0.9-10.4-2.8
	c-3-1.8-5.5-4.5-7-7.7C157.1,493.7,156.3,490.2,156.3,486.6z M161.9,486.7c0,5,1.3,8.9,4,11.8c5.4,5.6,14.3,5.8,19.9,0.4
	c0.1-0.1,0.3-0.3,0.4-0.4c2.7-2.9,4-7,4-12.4c0.1-3-0.5-6-1.7-8.8c-1-2.4-2.8-4.4-5-5.9c-2.2-1.4-4.8-2.1-7.4-2.1
	c-3.7-0.1-7.3,1.4-10,4C163.4,476,162,480.4,161.9,486.7L161.9,486.7z"/>
<path class="st0" d="M203.1,506.8v-41.5h18.4c2.9-0.1,5.7,0.3,8.4,1.1c1.9,0.8,3.6,2.1,4.6,3.9c1.1,1.9,1.7,4,1.7,6.2
	c0.1,2.8-1,5.4-2.9,7.4c-1.9,2-4.9,3.3-8.8,3.9c1.2,0.5,2.3,1.2,3.3,2.1c1.7,1.6,3.3,3.5,4.6,5.5l7.2,11.3h-6.9l-5.5-8.6
	c-1.6-2.5-2.9-4.4-3.9-5.7c-0.8-1.1-1.7-2-2.8-2.8c-0.8-0.5-1.6-0.9-2.5-1.1c-1-0.2-2-0.2-3.1-0.2h-6.4v18.4H203.1z M208.6,483.6
	h11.8c2,0.1,4-0.2,5.9-0.8c1.3-0.4,2.5-1.3,3.2-2.5c0.7-1.1,1.1-2.4,1.1-3.7c0-1.9-0.7-3.6-2.1-4.8c-1.4-1.3-3.7-1.9-6.8-1.9h-13.1
	L208.6,483.6z"/>
<path class="st0" d="M254.3,506.8v-36.6h-13.7v-4.9h32.9v4.9h-13.7v36.5L254.3,506.8z"/>
<path class="st0" d="M306.3,465.3h5.5v23.9c0.1,3.4-0.4,6.7-1.4,9.9c-1,2.5-2.8,4.6-5.1,6c-2.9,1.7-6.3,2.5-9.7,2.3
	c-3.3,0.1-6.6-0.6-9.5-2c-2.4-1.3-4.3-3.3-5.3-5.8c-1.2-3.3-1.7-6.9-1.6-10.4v-24h5.5v23.9c-0.1,2.7,0.2,5.4,1,8
	c0.7,1.7,1.9,3.1,3.5,3.9c1.8,1,3.9,1.5,6,1.4c4,0,6.9-0.9,8.6-2.7c1.7-1.8,2.6-5.3,2.6-10.5L306.3,465.3z"/>
<path class="st0" d="M320.9,506.8v-41.5h5.6l21.8,32.5v-32.5h5.2v41.5h-5.6l-21.8-32.6v32.6H320.9z"/>
<path class="st0" d="M363.7,506.8v-41.5h5.5v41.5H363.7z"/>
<path class="st0" d="M389.4,506.8v-36.6h-13.6v-4.9h32.9v4.9h-13.7v36.5L389.4,506.8z"/>
<path class="st0" d="M425.9,506.8v-17.6l-16-23.9h6.7l8.2,12.5c1.5,2.3,2.9,4.7,4.2,7c1.2-2.2,2.8-4.6,4.5-7.3l8-12.2h6.4
	l-16.5,23.9v17.6L425.9,506.8z"/>
<path class="st0" d="M0,158L234.6,0h7.6l234.6,158v64.3h-31.7v189.2H29.3V221.4H0V158z M81.4,346.8h311.7V186.4L238,82.8L81.4,186.4
	V346.8z"/>
<rect x="155.3" y="171.6" class="st0" width="164.7" height="66.7"/>
<rect x="155.3" y="249.8" class="st0" width="164.7" height="66.7"/>
</svg>
