<svg id="Layer_1" data-name="Layer 1" xmlns="http://www.w3.org/2000/svg" viewBox="0 0 73.13 73.14"><defs><style>.cls-1{fill:#0054a4;}.cls-2{fill:#fff;}.cls-3{fill:#231f20;stroke:#fff;stroke-miterlimit:1;stroke-width:0.55px;}</style></defs><title>Artboard 3</title><rect class="cls-1" x="6.71" y="6.71" width="59.71" height="59.71" transform="translate(-8.22 10.71) rotate(-15)"/><path class="cls-2" d="M15.58,36.51l4.29-.58.08.27-12,3.21-.07-.26,3.2-1.43-5.35-20-3.49.36-.08-.32,18.78-5,2.24,8.42-.4.1c-1.82-4.19-3-7.31-8.27-5.9l-4.27,1.14,2.45,9.15.41-.11c4.49-1.27,4.25-3.68,3.74-6.94l.35-.13,3.18,11.88-.35.1c-1.22-3.19-2.34-5.44-6.91-4.19l-.24.06ZM28.75,21l-2.34-8.75L29,11.52c3.34-.9,4.79-.42,5.75,3.16.87,3.23-.38,4.78-4.16,5.79Zm18.58-3.55L44.62,7.33l2.82-.76c3.5-.94,5.17-.45,6.24,3.53s-.07,5.63-4.36,6.78ZM35.85,31.94l-.07-.27-4,.5L29,21.69c6-1.49,6.21-1.16,7.46,2.92l.66,2.06c1.14,3.57,3.36,4.22,8.7,2.56,0,0,.42-1.08.2-1-2,1-3.24.39-3.73-1.43l-.37-1.4C40.74,21.25,38,19.2,34.27,20h0c4.56-2,5.85-4,5.1-6.82-1-3.65-4-4.27-9.65-2.77l-8,2.19,5.57,20.78-3.24,1.44.07.26ZM54.26,27l-.07-.26L50,27.29l-2.45-9.14,3.06-.82C57,15.6,59.71,13,58.64,9S54,3.9,47.89,5.53l-11.33,3,.09.32,3.53-.37,5.59,20.71Z"/><path class="cls-3" d="M39.4,8.38a1,1,0,0,1,1.17.69"/><path class="cls-3" d="M13.34,25.8A1,1,0,0,1,12.21,25"/><path class="cls-3" d="M4.91,17.6a1,1,0,0,1,1.17.7"/><path class="cls-3" d="M45.22,6.9a1,1,0,0,0-.72,1.16"/><path class="cls-3" d="M48.15,17.7a1,1,0,0,0-.72,1.16"/><path class="cls-3" d="M29.56,21.26a1,1,0,0,0-.72,1.16"/><path class="cls-3" d="M27,11.71a1,1,0,0,0-.71,1.16"/><path class="cls-3" d="M46.9,16.75a1,1,0,0,0,1.08.83"/><path class="cls-3" d="M28.27,20.3a1,1,0,0,0,1.08.83"/><path class="cls-3" d="M15.14,36a1,1,0,0,0,1.19.66"/><path class="cls-3" d="M49.6,26.78a1,1,0,0,0,1.19.66"/><path class="cls-3" d="M31.32,31.65a1,1,0,0,0,1.19.67"/><path class="cls-3" d="M10.47,38.24a1,1,0,0,0,.67-1.18"/><path class="cls-3" d="M44.55,29a1.13,1.13,0,0,0,1-1.45"/><path class="cls-3" d="M26.71,34a1,1,0,0,0,.67-1.19"/><path class="cls-3" d="M13.46,26a1,1,0,0,0-.72,1.16"/><path class="cls-3" d="M10.82,16.12a1,1,0,0,0-.71,1.16"/></svg>