<?xml version="1.0" encoding="utf-8"?>
<!-- Generator: Adobe Illustrator 22.1.0, SVG Export Plug-In . SVG Version: 6.00 Build 0)  -->
<svg version="1.1" id="Layer_1" xmlns="http://www.w3.org/2000/svg" xmlns:xlink="http://www.w3.org/1999/xlink" x="0px" y="0px"
	 viewBox="0 0 73.1 73.1" style="enable-background:new 0 0 73.1 73.1;" xml:space="preserve">
<style type="text/css">
	.st0{fill:#005366;}
	.st1{fill:#FFFFFF;}
	.st2{fill:#231F20;stroke:#FFFFFF;stroke-width:0.55;stroke-miterlimit:1;}
</style>
<title>Artboard 3</title>
<rect x="6.7" y="6.7" transform="matrix(0.9659 -0.2588 0.2588 0.9659 -8.218 10.7091)" class="st0" width="59.7" height="59.7"/>
<path class="st1" d="M15.6,36.5l4.3-0.6l0.1,0.3l-12,3.2l-0.1-0.3l3.2-1.4l-5.3-20l-3.5,0.4l-0.1-0.3l18.8-5l2.2,8.4l-0.4,0.1
	c-1.8-4.2-3-7.3-8.3-5.9l-4.3,1.1l2.4,9.1l0.4-0.1c4.5-1.3,4.2-3.7,3.7-6.9l0.4-0.1l3.2,11.9L20,30.5c-1.2-3.2-2.3-5.4-6.9-4.2
	l-0.2,0.1L15.6,36.5z M28.8,21l-2.3-8.8l2.6-0.7c3.3-0.9,4.8-0.4,5.8,3.2c0.9,3.2-0.4,4.8-4.2,5.8L28.8,21z M47.3,17.5L44.6,7.3
	l2.8-0.8c3.5-0.9,5.2-0.4,6.2,3.5s-0.1,5.6-4.4,6.8L47.3,17.5z M35.8,31.9l-0.1-0.3l-4,0.5L29,21.7c6-1.5,6.2-1.2,7.5,2.9l0.7,2.1
	c1.1,3.6,3.4,4.2,8.7,2.6c0,0,0.4-1.1,0.2-1c-2,1-3.2,0.4-3.7-1.4l-0.4-1.4c-1.2-4.1-3.9-6.2-7.7-5.4l0,0c4.6-2,5.8-4,5.1-6.8
	c-1-3.6-4-4.3-9.6-2.8l-8,2.2l5.6,20.8L24,34.8l0.1,0.3L35.8,31.9z M54.3,27l-0.1-0.3L50,27.3l-2.5-9.1l3.1-0.8
	c6.4-1.7,9.1-4.3,8-8.3S54,3.9,47.9,5.5l-11.3,3l0.1,0.3l3.5-0.4l5.6,20.7L54.3,27z"/>
<path class="st2" d="M39.4,8.4c0.5-0.1,1,0.2,1.2,0.7"/>
<path class="st2" d="M13.3,25.8c-0.5,0.1-1-0.3-1.1-0.8"/>
<path class="st2" d="M4.9,17.6c0.5-0.1,1,0.2,1.2,0.7"/>
<path class="st2" d="M45.2,6.9c-0.5,0.1-0.8,0.6-0.7,1.2"/>
<path class="st2" d="M48.2,17.7c-0.5,0.1-0.8,0.6-0.7,1.2"/>
<path class="st2" d="M29.6,21.3c-0.5,0.1-0.8,0.6-0.7,1.2"/>
<path class="st2" d="M27,11.7c-0.5,0.1-0.8,0.6-0.7,1.2"/>
<path class="st2" d="M46.9,16.8c0.1,0.5,0.6,0.9,1.1,0.8"/>
<path class="st2" d="M28.3,20.3c0.1,0.5,0.6,0.9,1.1,0.8"/>
<path class="st2" d="M15.1,36c0.2,0.5,0.7,0.8,1.2,0.7"/>
<path class="st2" d="M49.6,26.8c0.2,0.5,0.7,0.8,1.2,0.7"/>
<path class="st2" d="M31.3,31.6c0.2,0.5,0.7,0.8,1.2,0.7"/>
<path class="st2" d="M10.5,38.2c0.5-0.2,0.8-0.7,0.7-1.2"/>
<path class="st2" d="M44.5,29c0.6,0,1.1-0.6,1-1.2c0-0.1,0-0.2,0-0.2"/>
<path class="st2" d="M26.7,34c0.5-0.2,0.8-0.7,0.7-1.2"/>
<path class="st2" d="M13.5,26c-0.5,0.1-0.8,0.6-0.7,1.2"/>
<path class="st2" d="M10.8,16.1c-0.5,0.1-0.8,0.6-0.7,1.2"/>
</svg>
