<svg id="Layer_1_copy" data-name="Layer 1 copy" xmlns="http://www.w3.org/2000/svg" viewBox="0 0 278.59 23.66"><defs><style>.cls-1{fill:#9a8b7d;}.cls-2{fill:#00549e;}</style></defs><title>Artboard 2_1</title><path class="cls-1" d="M95.06,21.16v.5c-.87,0-1.77-.06-3.06-.06s-2.07,0-3,.06v-.5L90.83,21c.11-3,0-6.07,0-9.1s.06-6.07,0-9.12L89,2.73v-.5c.7,0,1.88,0,2.52,0,.39,0,1.4,0,2.38-.11s2-.11,2.33-.11c3.08,0,5.57,1.46,5.57,4.87a5.33,5.33,0,0,1-3.25,4.71c-.08,0-.17.11-.17.16s3.25,5.21,5,7.68c.9,1.23,1.37,1.59,1.88,1.79v.33c-.79.06-1.32.06-1.77.06-1.59,0-1.93-.53-4.81-5.15-.48-.76-2.52-4-2.75-4.23s-.36-.17-1-.2c-.37,0-.62,0-1.77,0,0,6.78,0,7,.09,8.93Zm-.28-9.61a8.46,8.46,0,0,0,2.85-.33,5.13,5.13,0,0,0,2-4.23c0-2.69-1.6-4.34-5-4.34-.39,0-1.26,0-1.34.28s-.12,7.56-.12,8.68Z"/><path class="cls-1" d="M121.68,21.6h-7.84c-4.28,0-5,0-6.41.06v-.5l1.74-.12c.11-3,0-6.07,0-9.12s.06-6.08,0-9.13l-1.91-.06V2.2c.37,0,.84,0,1.49.06l2.46,0c.25,0,6,0,9.86,0v4.2h-.9c0-1-.11-2.75-.64-3.17s-1.91-.47-4.06-.47h-4v8.45c.87,0,3.81-.05,4.32-.47s.61-2.72.64-3.17h.9a40.21,40.21,0,0,0-.17,4.37c0,1.51,0,2.41,0,3.28h-.84c-.08-.79,0-3.17-.56-3.33-.36-.12-3.58-.12-4.34-.12,0,2.61,0,7.4.09,8.07,0,.84.33,1.17,1.62,1.17h6.72l1.32-4.45H122Z"/><path class="cls-1" d="M127,16.51h.5c.7,2.55,2.27,5,5.21,5a3.73,3.73,0,0,0,3.81-3.92c0-5.52-9.69-5-9.69-11,0-2.32,1.79-4.87,5.51-4.87a17.7,17.7,0,0,1,4.2.84.6.6,0,0,0,.51-.34h.75V6.93h-.5c-.78-2.43-2-4.59-5-4.59a3.37,3.37,0,0,0-3.52,3.39c0,5.12,9.8,4.67,9.8,10.92a5.68,5.68,0,0,1-5.74,5.46,20.56,20.56,0,0,1-4.76-1c-.2,0-.23,0-.4.47H127Z"/><path class="cls-1" d="M149.32,21.16v.5c-.9,0-1.79-.06-3-.06s-2.1,0-3.05.06v-.5l1.87-.12c0-1.65.06-2.12.06-6.1v-6c0-4,0-4.48-.06-6.13l-1.87-.06v-.5c.89,0,1.76,0,3.05,0s2.07,0,3,0v.5l-1.88.06c-.05,1.65-.05,2.21-.05,6.3v5.68c0,4.09,0,4.65.05,6.27Z"/><path class="cls-1" d="M155.42,21c.12-3.05.06-6.07.06-9.12s.06-6.08-.06-9.1l-1.9-.06V2.28c1.32,0,7.14-.22,9-.22,5.37,0,9.43,3.75,9.43,9.74,0,6.64-4.62,9.86-10.92,9.86l-4.56-.06c-1,0-1.93,0-2.94.06v-.5Zm2.44-.39c.11.14,1.12.45,3.56.45,4.9,0,8.23-3.42,8.23-9.07,0-6.22-4.17-9.41-10.08-9.41a4.75,4.75,0,0,0-1.57.2c-.17.05-.2.19-.22.7-.06,1-.06,8.82-.06,12.18C157.72,20.09,157.75,20.48,157.86,20.65Z"/><path class="cls-1" d="M190.7,21.6h-7.84c-4.28,0-5,0-6.41.06v-.5l1.74-.12c.11-3,.05-6.07.05-9.12s.06-6.08-.05-9.13l-1.91-.06V2.2c.37,0,.84,0,1.49.06l2.46,0c.25,0,6,0,9.86,0v4.2h-.9c-.05-1-.11-2.75-.64-3.17s-1.91-.47-4.06-.47h-4v8.45c.87,0,3.81-.05,4.32-.47s.61-2.72.64-3.17h.9a40.21,40.21,0,0,0-.17,4.37c0,1.51,0,2.41.05,3.28h-.84c-.08-.79,0-3.17-.56-3.33-.36-.12-3.58-.12-4.34-.12,0,2.61,0,7.4.09,8.07.05.84.33,1.17,1.62,1.17h6.72l1.32-4.45H191Z"/><path class="cls-1" d="M211,21.94c-.9-1.18-1.49-2-6.92-9.18-4.65-6-5.18-6.61-6.1-7.9l-.06.06.06,9c0,.62,0,4.51.11,7.14l2.15.12v.5c-.64,0-1.37-.06-2.57-.06s-2,.06-2.61.06v-.5l2.05-.12,0-1.28c0-4.06.08-4.51.11-6.84l.05-8.51c0-.67-1-1.57-2.26-1.68v-.5c2.12,0,2.38,0,3.89,0,1.12,1.52,9.38,12.66,11.67,15.35l0-14.84-2.24-.06v-.5l2.54,0,2.52,0v.5l-1.93.06c0,1.57-.19,9-.19,9.85l-.09,9.3Z"/><path class="cls-1" d="M216.1,6.85l.34-4.62c2.07,0,6.3,0,8,0l8.2,0-.25,4.62h-.78a24.34,24.34,0,0,0-.34-3.73c-.19-.33-.72-.33-2.63-.33h-3c-.06,1.51-.08,1.9-.08,5.63,0,9.35,0,10.38.08,12.62l1.79.12v.5c-.87,0-1.76-.06-3-.06s-2,0-3,.06v-.5l1.82-.12c.11-3.1,0-6.24,0-9.35s.06-5.93,0-8.9h-2.52c-2.88,0-3,.08-3.78,4.06Z"/><path class="cls-1" d="M241.89,21.16v.5c-.9,0-1.79-.06-3-.06s-2.1,0-3.06.06v-.5l1.88-.12c0-1.65.06-2.12.06-6.1v-6c0-4,0-4.48-.06-6.13l-1.88-.06v-.5c.9,0,1.77,0,3.06,0s2.07,0,3,0v.5L240,2.79c0,1.65,0,2.21,0,6.3v5.68c0,4.09,0,4.65,0,6.27Z"/><path class="cls-1" d="M248.38,21.66c-.89,0-1.65-.06-2.35-.06s-1.37.06-1.85.06V21c1.35-.09,1.4-.14,2.07-1.88,2.19-5.57,4.32-11.39,6.5-17.33H253c2.16,6,4.62,12.26,6.36,16.74.89,2.3,1,2.41,2,2.47v.67c-.65,0-1.46-.06-2.61-.06-.61,0-2.52.06-3.25.06v-.5c1.6-.12,2.08-.2,2.08-.48a2.52,2.52,0,0,0-.23-.73l-2.16-5.88c-.11-.31-.16-.36-.64-.36h-5.12c-.37,0-.51.17-.65.53l-1.9,5.57a4.26,4.26,0,0,0-.28,1c0,.2.5.25,1.76.34Zm6-8.51c.33,0,.39,0,.39-.23a1.37,1.37,0,0,0-.11-.39l-2.24-6.07c-.14-.4-.26-.68-.34-.68s-.17.23-.31.56l-2.35,6.28a.88.88,0,0,0-.08.3c0,.17.11.23.47.23Z"/><path class="cls-1" d="M278.06,21.66c-3.89-.06-4.53-.06-10.19-.06-2.21,0-3.22.06-3.92.06v-.5l2.16-.12c.11-3,.05-6.07.05-9.12s.06-6.08-.05-9.13l-1.94-.06v-.5c.9,0,1.77,0,3.23,0s2.18,0,3.16,0v.5l-2.07.06c-.06,1.65-.09,2.21-.09,6.13,0,2.55,0,6.64,0,9.18,0,2,0,2.5.65,2.69a41.12,41.12,0,0,0,4.67.2c1.1,0,1.8,0,2.52-.06l1.57-4.56h.78Z"/><rect class="cls-1" x="80.21" width="1.09" height="23.66"/><path class="cls-2" d="M5.67,20.71v1c-1-.06-1.94-.08-2.83-.08-.7,0-1.64,0-2.84.08v-.83l2.45-.17L2.56,2.88,0,2.71V1.88c1.28,0,2.28.05,3,.05,1,0,2,0,3-.05l7.17,15.35,6.4-15.35c1.17,0,2.11.05,2.92.05s1.73,0,2.87-.05v.83L23,2.88l.11,17.83,2.37.17v.83c-2.42-.08-4-.08-4.76-.08-.33,0-1.45,0-3.36.08v-.83l2.33-.17,0-17.61L12,21.82h-.34L3.12,3.41l0,17.3Z"/><path class="cls-2" d="M37.69,20.71l2.42.17v.83c-1.53-.06-2.92-.08-4.2-.08-1.11,0-2.5.05-4.09.08v-.83l2.45-.17V2.88l-2.45-.17V1.88c1.26.05,2.2.08,2.84.08,2.2,0,4.15-.28,5.93-.28,4,0,6.2,1.89,6.2,4.84S45.26,11.17,42.2,12l4.87,7.18a2.94,2.94,0,0,0,2.53,1.64v.83l-.92,0c-1.14,0-2,.08-2.47.08-1,0-1.65-.53-2.4-1.7l-5-7.78-1.11-.06Zm2.7-9.46c2.14,0,3.23-2.06,3.23-4.5,0-2.73-1.53-4.32-4.42-4.32-1.28,0-1.51.06-1.51.84l0,8Z"/><path class="cls-2" d="M55.05,20.88l2.45-.17V2.88l-2.45-.17V1.88c1.12,0,2.06.05,2.84.05,2.5,0,4.56-.19,6.12-.19,4.37,0,6.56,1.72,6.56,5a4.94,4.94,0,0,1-2.5,4.37c-1.58.95-3.45,1.06-5.76,1.06H61l0,8.51,2.42.17v.83c-1.58-.06-3-.08-4.2-.08s-2.64,0-4.23.08Zm6.87-9.38c3.45,0,5.29-1.64,5.29-4.7,0-2.61-1.78-4.34-4.62-4.34-1.08,0-1.5.17-1.5.75a2.07,2.07,0,0,1,0,.28l0,8C61.34,11.5,61.65,11.5,61.92,11.5Z"/></svg>