<?xml version="1.0" encoding="utf-8"?>
<!-- Generator: Adobe Illustrator 22.1.0, SVG Export Plug-In . SVG Version: 6.00 Build 0)  -->
<svg version="1.1" id="Layer_1_copy" xmlns="http://www.w3.org/2000/svg" xmlns:xlink="http://www.w3.org/1999/xlink" x="0px"
	 y="0px" viewBox="0 0 278.6 23.7" style="enable-background:new 0 0 278.6 23.7;" xml:space="preserve">
<style type="text/css">
	.st0{fill:#005366;}
</style>
<title>Artboard 2_1</title>
<path class="st0" d="M95.1,21.2v0.5c-0.9,0-1.8-0.1-3.1-0.1s-2.1,0-3,0.1v-0.5l1.8-0.2c0.1-3,0-6.1,0-9.1s0.1-6.1,0-9.1l-1.8,0V2.2
	c0.7,0,1.9,0,2.5,0c0.4,0,1.4,0,2.4-0.1s2-0.1,2.3-0.1c3.1,0,5.6,1.5,5.6,4.9c-0.1,2.1-1.3,3.9-3.2,4.7c-0.1,0-0.2,0.1-0.2,0.2
	s3.2,5.2,5,7.7c0.9,1.2,1.4,1.6,1.9,1.8v0.3c-0.8,0.1-1.3,0.1-1.8,0.1c-1.6,0-1.9-0.5-4.8-5.1c-0.5-0.8-2.5-4-2.8-4.2
	s-0.4-0.2-1-0.2c-0.4,0-0.6,0-1.8,0c0,6.8,0,7,0.1,8.9L95.1,21.2z M94.8,11.6c1,0.1,1.9-0.1,2.8-0.3c1.3-1,2.1-2.6,2-4.2
	c0-2.7-1.6-4.3-5-4.3c-0.4,0-1.3,0-1.3,0.3s-0.1,7.6-0.1,8.7L94.8,11.6z"/>
<path class="st0" d="M121.7,21.6h-7.8c-4.3,0-5,0-6.4,0.1v-0.5l1.7-0.1c0.1-3,0-6.1,0-9.1s0.1-6.1,0-9.1l-1.9-0.1V2.2
	c0.4,0,0.8,0,1.5,0.1h2.5c0.2,0,6,0,9.9,0v4.2h-0.9c0-1-0.1-2.8-0.6-3.2s-1.9-0.5-4.1-0.5h-4v8.4c0.9,0,3.8-0.1,4.3-0.5
	s0.6-2.7,0.6-3.2h0.9c-0.1,1.5-0.2,2.9-0.2,4.4c0,1.5,0,2.4,0,3.3h-0.8c-0.1-0.8,0-3.2-0.6-3.3c-0.4-0.1-3.6-0.1-4.3-0.1
	c0,2.6,0,7.4,0.1,8.1c0,0.8,0.3,1.2,1.6,1.2h6.7l1.3-4.4h0.8L121.7,21.6z"/>
<path class="st0" d="M127,16.5h0.5c0.7,2.5,2.3,5,5.2,5c2.1,0,3.8-1.6,3.8-3.6c0-0.1,0-0.2,0-0.3c0-5.5-9.7-5-9.7-11
	c0-2.3,1.8-4.9,5.5-4.9c1.4,0.1,2.8,0.4,4.2,0.8c0.2,0,0.4-0.1,0.5-0.3h0.8v4.7h-0.5c-0.8-2.4-2-4.6-5-4.6c-1.9-0.1-3.4,1.4-3.5,3.2
	c0,0.1,0,0.1,0,0.2c0,5.1,9.8,4.7,9.8,10.9c-0.1,3.1-2.7,5.5-5.7,5.5c-1.6-0.1-3.2-0.5-4.8-1c-0.2,0-0.2,0-0.4,0.5H127V16.5z"/>
<path class="st0" d="M149.3,21.2v0.5c-0.9,0-1.8-0.1-3-0.1s-2.1,0-3.1,0.1v-0.5l1.9-0.1c0-1.6,0.1-2.1,0.1-6.1v-6c0-4,0-4.5-0.1-6.1
	l-1.9-0.1V2.2c0.9,0,1.8,0,3.1,0s2.1,0,3,0v0.5l-1.9,0.1c-0.1,1.7-0.1,2.2-0.1,6.3v5.7c0,4.1,0,4.6,0.1,6.3L149.3,21.2z"/>
<path class="st0" d="M155.4,21c0.1-3,0.1-6.1,0.1-9.1s0.1-6.1-0.1-9.1l-1.9-0.1V2.3c1.3,0,7.1-0.2,9-0.2c5.4,0,9.4,3.8,9.4,9.7
	c0,6.6-4.6,9.9-10.9,9.9l-4.6-0.1c-1,0-1.9,0-2.9,0.1v-0.5L155.4,21z M157.9,20.6c0.1,0.1,1.1,0.5,3.6,0.5c4.9,0,8.2-3.4,8.2-9.1
	c0-6.2-4.2-9.4-10.1-9.4c-0.5,0-1.1,0-1.6,0.2c-0.2,0-0.2,0.2-0.2,0.7c-0.1,1-0.1,8.8-0.1,12.2C157.7,20.1,157.8,20.5,157.9,20.6
	L157.9,20.6z"/>
<path class="st0" d="M190.7,21.6h-7.8c-4.3,0-5,0-6.4,0.1v-0.5l1.7-0.1c0.1-3,0.1-6.1,0.1-9.1s0.1-6.1-0.1-9.1l-1.9-0.1V2.2
	c0.4,0,0.8,0,1.5,0.1h2.5c0.2,0,6,0,9.9,0v4.2h-0.9c-0.1-1-0.1-2.8-0.6-3.2s-1.9-0.5-4.1-0.5h-4v8.4c0.9,0,3.8-0.1,4.3-0.5
	s0.6-2.7,0.6-3.2h0.9c-0.1,1.5-0.2,2.9-0.2,4.4c0,1.5,0,2.4,0.1,3.3h-0.8c-0.1-0.8,0-3.2-0.6-3.3c-0.4-0.1-3.6-0.1-4.3-0.1
	c0,2.6,0,7.4,0.1,8.1c0.1,0.8,0.3,1.2,1.6,1.2h6.7l1.3-4.4h0.8L190.7,21.6z"/>
<path class="st0" d="M211,21.9c-0.9-1.2-1.5-2-6.9-9.2c-4.6-6-5.2-6.6-6.1-7.9l-0.1,0.1l0.1,9c0,0.6,0,4.5,0.1,7.1l2.1,0.1v0.5
	c-0.6,0-1.4-0.1-2.6-0.1s-2,0.1-2.6,0.1v-0.5l2.1-0.1v-1.3c0-4.1,0.1-4.5,0.1-6.8l0.1-8.5c0-0.7-1-1.6-2.3-1.7V2.2
	c2.1,0,2.4,0,3.9,0c1.1,1.5,9.4,12.7,11.7,15.4V2.8l-2.2-0.1V2.2h2.5h2.5v0.5l-1.9,0.1c0,1.6-0.2,9-0.2,9.9l-0.1,9.3L211,21.9z"/>
<path class="st0" d="M216.1,6.8l0.3-4.6c2.1,0,6.3,0,8,0h8.2l-0.2,4.6h-0.8c0-1.3-0.1-2.5-0.3-3.7c-0.2-0.3-0.7-0.3-2.6-0.3h-3
	c-0.1,1.5-0.1,1.9-0.1,5.6c0,9.4,0,10.4,0.1,12.6l1.8,0.1v0.5c-0.9,0-1.8-0.1-3-0.1s-2,0-3,0.1v-0.5l1.8-0.1c0.1-3.1,0-6.2,0-9.4
	s0.1-5.9,0-8.9h-2.5c-2.9,0-3,0.1-3.8,4.1L216.1,6.8z"/>
<path class="st0" d="M241.9,21.2v0.5c-0.9,0-1.8-0.1-3-0.1s-2.1,0-3.1,0.1v-0.5l1.9-0.1c0-1.6,0.1-2.1,0.1-6.1v-6c0-4,0-4.5-0.1-6.1
	l-1.9-0.1V2.2c0.9,0,1.8,0,3.1,0s2.1,0,3,0v0.5l-1.9,0c0,1.7,0,2.2,0,6.3v5.7c0,4.1,0,4.6,0,6.3L241.9,21.2z"/>
<path class="st0" d="M248.4,21.7c-0.9,0-1.6-0.1-2.4-0.1s-1.4,0.1-1.9,0.1V21c1.4-0.1,1.4-0.1,2.1-1.9c2.2-5.6,4.3-11.4,6.5-17.3
	h0.2c2.2,6,4.6,12.3,6.4,16.7c0.9,2.3,1,2.4,2,2.5v0.7c-0.6,0-1.5-0.1-2.6-0.1c-0.6,0-2.5,0.1-3.2,0.1v-0.5c1.6-0.1,2.1-0.2,2.1-0.5
	c0-0.3-0.1-0.5-0.2-0.7l-2.2-5.9c-0.1-0.3-0.2-0.4-0.6-0.4h-5.1c-0.4,0-0.5,0.2-0.6,0.5l-1.9,5.6c-0.1,0.3-0.2,0.7-0.3,1
	c0,0.2,0.5,0.2,1.8,0.3L248.4,21.7z M254.4,13.1c0.3,0,0.4,0,0.4-0.2c0-0.1-0.1-0.3-0.1-0.4l-2.2-6.1c-0.1-0.4-0.3-0.7-0.3-0.7
	s-0.2,0.2-0.3,0.6l-2.4,6.3c0,0.1-0.1,0.2-0.1,0.3c0,0.2,0.1,0.2,0.5,0.2H254.4z"/>
<path class="st0" d="M278.1,21.7c-3.9-0.1-4.5-0.1-10.2-0.1c-2.2,0-3.2,0.1-3.9,0.1v-0.5l2.2-0.1c0.1-3,0-6.1,0-9.1s0.1-6.1,0-9.1
	l-1.9-0.1V2.2c0.9,0,1.8,0,3.2,0s2.2,0,3.2,0v0.5l-2.1,0.1c-0.1,1.7-0.1,2.2-0.1,6.1c0,2.6,0,6.6,0,9.2c0,2,0,2.5,0.6,2.7
	c1.6,0.2,3.1,0.2,4.7,0.2c1.1,0,1.8,0,2.5-0.1l1.6-4.6h0.8L278.1,21.7z"/>
<rect x="80.2" class="st0" width="1.1" height="23.7"/>
<path class="st0" d="M5.7,20.7v1c-1-0.1-1.9-0.1-2.8-0.1c-0.7,0-1.6,0-2.8,0.1v-0.8l2.5-0.2L2.6,2.9L0,2.7V1.9c1.3,0,2.3,0,3,0
	c1,0,2,0,3,0l7.2,15.3l6.4-15.4c1.2,0,2.1,0,2.9,0s1.7,0,2.9,0v0.8L23,2.9l0.1,17.8l2.4,0.2v0.8c-2.4-0.1-4-0.1-4.8-0.1
	c-0.3,0-1.5,0-3.4,0.1v-0.8l2.3-0.2V3.1L12,21.8h-0.3L3.1,3.4v17.3H5.7z"/>
<path class="st0" d="M37.7,20.7l2.4,0.2v0.8c-1.5-0.1-2.9-0.1-4.2-0.1c-1.1,0-2.5,0-4.1,0.1v-0.8l2.5-0.2V2.9l-2.5-0.2V1.9
	C33.1,1.9,34,2,34.7,2c2.2,0,4.2-0.3,5.9-0.3c4,0,6.2,1.9,6.2,4.8s-1.5,4.6-4.6,5.5l4.9,7.2c0.5,1,1.4,1.6,2.5,1.6v0.8h-0.9
	c-1.1,0-2,0.1-2.5,0.1c-1,0-1.7-0.5-2.4-1.7l-5-7.8l-1.1-0.1L37.7,20.7z M40.4,11.2c2.1,0,3.2-2.1,3.2-4.5c0-2.7-1.5-4.3-4.4-4.3
	c-1.3,0-1.5,0.1-1.5,0.8v8L40.4,11.2z"/>
<path class="st0" d="M55,20.9l2.5-0.2V2.9L55,2.7V1.9c1.1,0,2.1,0,2.8,0c2.5,0,4.6-0.2,6.1-0.2c4.4,0,6.6,1.7,6.6,5
	c0,1.8-0.9,3.5-2.5,4.4c-1.6,0.9-3.4,1.1-5.8,1.1H61v8.5l2.4,0.2v0.8c-1.6-0.1-3-0.1-4.2-0.1s-2.6,0-4.2,0.1L55,20.9z M61.9,11.5
	c3.4,0,5.3-1.6,5.3-4.7c0-2.6-1.8-4.3-4.6-4.3c-1.1,0-1.5,0.2-1.5,0.8c0,0.1,0,0.2,0,0.3v8C61.3,11.5,61.7,11.5,61.9,11.5z"/>
</svg>
