<?xml version="1.0" encoding="utf-8"?>
<!-- Generator: Adobe Illustrator 22.1.0, SVG Export Plug-In . SVG Version: 6.00 Build 0)  -->
<svg version="1.1" id="Layer_1" xmlns="http://www.w3.org/2000/svg" xmlns:xlink="http://www.w3.org/1999/xlink" x="0px" y="0px"
	 viewBox="0 0 483.2 551.4" style="enable-background:new 0 0 483.2 551.4;" xml:space="preserve">
<style type="text/css">
	.st0{fill:#005366;}
</style>
<path class="st0" d="M162,98.1c25-2.3,44.4-23.8,44.4-49c0-27.1-22.1-49.2-49.2-49.2S108,22.1,108,49.2c0,8.3,2.3,16.7,6.1,23.8
	l17.5,246.5l180.4,0l74,173.4l97.1-38.1l-15-35.8l-54.4,19.6l-71.6-165.3l-167.7,1.1l-2.3-31.2l121.4,0v-46.2l-126.1,0L162,98.1z"/>
<path class="st0" d="M343.4,451.6c-30.4,60.2-94.2,99.8-162.2,99.8C81.4,551.4,0,470,0,370.2C0,300.1,42.5,234.9,105.9,206l4.1,53.5
	c-37.5,23.6-60.6,66.3-60.6,111C49.4,443,108.4,502,180.9,502c66.3,0,122.8-50.9,130.5-116.1L343.4,451.6z"/>
</svg>
