<svg xmlns="http://www.w3.org/2000/svg" viewBox="0 0 364 282.5" style="enable-background:new 0 0 364 282.5;">
<style type="text/css">
	.st0{fill:#FFFFFF;}
</style>
<polygon points="106,154.3 101.7,168.3 94,178 92.7,180.3 118.6,182 126.2,183.2 116.3,173.3 114.5,164.6 "/>
<polygon points="92.7,2.3 92.7,4.6 99,11.3 103.7,20 107.9,42 107.9,49.7 156,179.7 162.3,183.2 168.3,180.3 173.3,174.7 193.5,97 
	171.3,41.7 158,6 153.2,2.3 "/>
<polygon points="221.7,4.5 214.7,21.3 210.3,42 212.7,69.3 212,154.3 210.3,168.8 201.3,180 205.4,183.2 277.2,183.2 279,179.7 
	269,168.8 265,146.7 267.3,21 277.2,2.3 226.7,2.3 "/>
<g>
	<path class="st0" d="M280.3,177.7c-5.1-1.4-8.3-5.7-9.9-13.4c-1.4-5.7-2.1-11.6-2.1-17.5V37.6c0-5.9,0.7-11.8,2.1-17.5
		c1.9-8.8,6.1-11.1,9.9-12.2c0.6-0.2,1.1-0.6,1.4-1.1c0.4-0.6,0.5-1.3,0.5-2.1c0-2-1.4-3.8-3.4-4.2c-0.2,0-0.4-0.1-0.5-0.1l-51-0.3
		c-5.5,0-10.3,3.7-11.8,9l-21.7,80.7c-0.1,0.4-0.6,0.7-1,0.6c-0.3-0.1-0.5-0.3-0.6-0.5L161.8,8.6c-1.6-5.1-6.3-8.6-11.7-8.6H92.6
		c-0.2,0-0.4,0-0.6,0.1c-2.4,0.6-3.8,2.9-3.2,5.3c0.2,0.8,0.6,1.5,1.2,2.1c0.2,0.2,0.5,0.4,0.8,0.5c0.4,0.2,0.8,0.3,1.2,0.5l0,0
		c4.2,2,7.4,5.6,9.1,9.9c2.6,6.4,3.9,18,4.2,35.9l0.1,80.5c0,16.9-2.3,25.4-4.8,32c-1.6,4.1-4.6,7.4-8.5,9.4l0,0l-0.2,0.1l-0.4,0.2
		c-0.1,0.1-0.2,0.1-0.5,0.2c-0.4,0.1-0.7,0.3-0.9,0.6c-1.5,1.6-1.6,4.1-0.2,5.8c0.6,0.7,1.4,1,2.2,1H124c0.9,0,1.7-0.3,2.2-1
		c0.6-0.8,1-1.8,1-2.8c0-1.1-0.5-2.2-1.2-3c-0.3-0.3-0.7-0.5-1.1-0.6c-0.1,0-0.2-0.1-0.3-0.1l-0.4-0.2l-0.3-0.1l0,0
		c-3.9-2-6.9-5.4-8.5-9.4c-2.1-5.6-5.3-14.2-5.3-32V60c0-0.2,0.1-0.3,0.3-0.3c0.1,0,0.2,0.1,0.3,0.2L152,176.5
		c2.1,6.4,9,9.9,15.4,7.8c3.9-1.3,6.9-4.4,8-8.4l34-127.2c0-0.2,0.2-0.3,0.3-0.2s0.3,0.2,0.2,0.3v97.7c0,7.4-0.4,13.3-1.4,17.5
		c-2.5,9.6-6.3,12.1-9.7,13.2c-0.4,0.1-0.8,0.4-1.1,0.8c-1.3,1.6-1.2,3.8,0.1,5.4c0.6,0.6,1.4,1,2.2,1l79.4,0.3
		c0.6,0,1.2-0.3,1.7-0.7c1.3-1.4,1.6-3.4,0.7-5.1C281.5,178.2,280.9,177.8,280.3,177.7z M111,168c1.5,3.9,4,7.5,7.2,10.2
		c0.4,0.3,0.4,0.8,0.2,1.2c-0.2,0.2-0.4,0.3-0.6,0.3H98c-0.5,0-0.8-0.4-0.8-0.8c0-0.3,0.1-0.5,0.3-0.7c3.2-2.8,5.7-6.3,7.3-10.3
		c0.9-2.3,1.6-4.6,2.3-7c0.1-0.4,0.6-0.7,1-0.6c0.3,0.1,0.5,0.3,0.6,0.6C109.4,163.4,110.2,165.8,111,168z M170.9,174.6
		c-1.1,4.1-5.3,6.5-9.4,5.4c-2.5-0.7-4.5-2.6-5.3-5L109.8,46.2c-0.2-0.5-0.3-1-0.3-1.5c-0.4-4-2.1-22.8-4.2-28
		c-1.7-4.7-5-8.7-9.3-11.3l0,0l0,0c-0.3-0.1-0.4-0.4-0.3-0.7s0.4-0.4,0.7-0.3h53.8c3.4,0,6.4,2.2,7.3,5.5c0,0,28.9,77.1,33.1,88.3
		c0.3,0.9,0.4,1.8,0.1,2.7L170.9,174.6z M272.1,180l-65.8-0.3c-0.5,0-0.8-0.4-0.8-0.8c0-0.2,0.1-0.5,0.3-0.6
		c3.2-2.8,5.5-7.1,7.1-13.2c1.1-4.5,1.6-10.8,1.6-18.6l0,0v-114c0-0.9,0.1-1.8,0.3-2.6l5.2-19.6c0.9-3.3,3.9-5.6,7.4-5.7l46,0.3
		c0.3,0,0.6,0.3,0.6,0.6c0,0.2-0.1,0.4-0.3,0.5c-3.9,2.7-6.4,7-7.8,13.1c-1.5,6.1-2.2,12.3-2.3,18.6v109.1c0,6.2,0.7,12.5,2.2,18.5
		c1.2,5.9,3.5,10.4,6.7,13.3c0.4,0.3,0.4,0.8,0.1,1.1C272.6,179.9,272.3,180,272.1,180z"/>
	<path class="st0" d="M173,274.5c0.1,0.4,0.6,0.4,0.7,0l11.7-41.8c0.1-0.8,0.8-1.3,1.5-1.2h5c0.8,0,1.5,0.7,1.5,1.5v48.1
		c0,0.8-0.7,1.5-1.5,1.5h-1.6c-0.8,0-1.5-0.7-1.4-1.5v-42c0-0.2-0.1-0.3-0.3-0.3c-0.1,0-0.2,0.1-0.3,0.2L176,281.3
		c-0.3,0.9-0.7,1.2-1.5,1.2h-2.3c-0.8,0-1.2-0.4-1.5-1.2l-12.3-42.4c-0.1-0.2-0.2-0.2-0.4-0.2c-0.1,0-0.2,0.2-0.2,0.3v42
		c0,0.8-0.7,1.5-1.5,1.5h-1.6c-0.8,0-1.5-0.7-1.4-1.5v-48.1c0-0.8,0.6-1.5,1.4-1.5h5c0.8-0.1,1.4,0.5,1.5,1.2L173,274.5z"/>
	<path class="st0" d="M258.1,262.1c-0.4,0-0.7,0.3-0.7,0.6c0,0,0,0.1,0,0.1v18.2c0,0.8-0.7,1.5-1.5,1.5h-1.8c-0.8,0-1.5-0.7-1.5-1.5
		v-48.1c0-0.8,0.7-1.5,1.5-1.5h12.4c8.5,0,15.3,6.9,15.3,15.3c0,0,0,0,0,0c0,6.6-3.4,10.6-8.7,13.9c-0.8,0.4-1.1,1.3-0.7,2.1
		c0,0.1,0.1,0.2,0.2,0.3l9.2,17.4c0.4,0.6,0.3,1.5-0.3,2c-0.3,0.2-0.7,0.3-1,0.2h-1.6c-0.9,0-1.8-0.6-2.1-1.5l-9.3-18.1
		c-0.2-0.6-0.8-0.9-1.4-0.9L258.1,262.1z M258.1,236.1c-0.4,0-0.7,0.3-0.7,0.6c0,0,0,0.1,0,0.1v19.8c0,0.4,0.3,0.7,0.6,0.7
		c0,0,0.1,0,0.1,0h8.5c5.9,0,10.6-4.8,10.6-10.6c0-5.9-4.8-10.7-10.6-10.7L258.1,236.1z"/>
	<path class="st0" d="M358.8,282.5c-0.8,0-1.1-0.2-1.5-1.2l-17.4-41.9c-0.1-0.2-0.2-0.2-0.4-0.2c-0.1,0-0.2,0.2-0.2,0.3v41.5
		c0,0.8-0.7,1.5-1.5,1.5h-1.5c-0.8,0-1.5-0.7-1.5-1.5v-48.1c0-0.8,0.7-1.5,1.5-1.5h3.8c0.8,0,1.1,0.2,1.5,1.2l17.4,41.5
		c0.1,0.2,0.2,0.2,0.4,0.2c0.1,0,0.2-0.2,0.2-0.3v-41.1c0-0.8,0.7-1.5,1.5-1.5h1.5c0.8,0,1.5,0.7,1.5,1.5v48.1
		c0,0.8-0.7,1.5-1.5,1.5H358.8z"/>
	<path class="st0" d="M226.6,232.6c-0.2-0.7-0.8-1.2-1.5-1.2h-3.6c-0.7,0-1.3,0.5-1.5,1.2L206.1,281c-0.1,0.3-0.1,0.7,0.2,1
		c0.3,0.4,0.9,0.6,1.4,0.6h1.8c0.7,0,1.3-0.5,1.5-1.2l3.7-12.3c0.2-0.6,0.7-1,1.3-1h0.5c2.4,0.5,4.8,0.8,7.2,0.8
		c2.2,0,4.4-0.3,6.5-0.8h0.6c0.6,0,1.1,0.4,1.3,0.9l3.6,12.3c0.1,0.7,0.8,1.2,1.5,1.2h1.8c0.5,0,1-0.2,1.3-0.5
		c0.2-0.3,0.3-0.6,0.2-1L226.6,232.6z M229.9,263.4c-4.3,1.1-8.8,1.1-13.1,0.1c-0.3-0.1-0.5-0.5-0.4-0.8l6.6-24.6l0,0
		c0.1-0.3,0.1-0.4,0.2-0.4h0.1c0.1,0,0.1,0.1,0.2,0.4l6.6,24.6C230.3,263,230.2,263.3,229.9,263.4L229.9,263.4z"/>
	<path class="st0" d="M319.8,236.3H301c-0.3,0-0.6,0.2-0.6,0.5c0,0,0,0.1,0,0.1v17.6c0,0.3,0.2,0.6,0.5,0.6c0,0,0.1,0,0.1,0l0,0
		c6.1-1.1,12.4-1.1,18.5,0c0.5,0.1,0.9,0.5,0.9,1v2.6c0,0.3-0.1,0.6-0.4,0.8c-0.2,0.2-0.6,0.3-0.9,0.2c-6-1.1-12.1-1.1-18,0.1l0,0
		c-0.4,0-0.8,0.3-0.8,0.7c0,0,0,0,0,0.1V277c0,0.3,0.2,0.6,0.5,0.6c0,0,0.1,0,0.1,0h19c0.9,0,1.5,0.7,1.5,1.5v1.8
		c0,0.9-0.7,1.5-1.5,1.5h-22.9c-0.9,0-1.5-0.7-1.5-1.5v-48c0-0.9,0.7-1.6,1.5-1.6h22.7c0.9,0,1.5,0.7,1.5,1.6v1.8
		C321.3,235.6,320.6,236.3,319.8,236.3C319.8,236.3,319.8,236.3,319.8,236.3z"/>
	<path class="st0" d="M17.7,236.9v44.2c0,0.8-0.7,1.5-1.5,1.5h-1.8c-0.8,0-1.4-0.7-1.4-1.5v-44.2c0-0.4-0.3-0.7-0.6-0.7
		c0,0-0.1,0-0.1,0H1.5c-0.8,0-1.5-0.7-1.5-1.5v-1.8c0-0.8,0.7-1.5,1.5-1.5h27.7c0.8,0,1.5,0.7,1.5,1.5v1.8c0,0.8-0.6,1.5-1.5,1.5
		H18.5C18.1,236.1,17.7,236.4,17.7,236.9C17.7,236.8,17.7,236.8,17.7,236.9z"/>
	<path class="st0" d="M113.2,277.7h-19c-0.3,0-0.6-0.2-0.6-0.5c0,0,0-0.1,0-0.1v-17.6c0-0.3,0.2-0.6,0.5-0.6c0,0,0.1,0,0.1,0l0,0
		c6.1,1.1,12.4,1.1,18.5,0c0.5-0.1,0.8-0.5,0.9-1v-2.6c0-0.3-0.1-0.6-0.4-0.8c-0.2-0.2-0.6-0.3-0.9-0.2c-6,1.1-12.1,1.1-18-0.1l0,0
		c-0.4,0-0.8-0.3-0.8-0.8c0,0,0,0,0-0.1V237c0-0.3,0.2-0.6,0.5-0.6c0,0,0.1,0,0.1,0H113c0.9,0,1.6-0.7,1.6-1.6l0,0V233
		c0-0.9-0.7-1.6-1.5-1.6h0H90.3c-0.9,0-1.5,0.7-1.6,1.6v48c0,0.9,0.7,1.5,1.6,1.5h22.9c0.9,0,1.5-0.7,1.6-1.5v-1.7
		C114.7,278.4,114.1,277.7,113.2,277.7C113.2,277.7,113.2,277.7,113.2,277.7z"/>
	<path class="st0" d="M44.3,282.5H46c0.8,0,1.5-0.7,1.5-1.5v-20.4c0-0.2,0.1-0.4,0.2-0.6l0,0c8.9-3.2,17.8-0.7,20.1,0l0,0
		c0.2,0.1,0.3,0.4,0.2,0.6v20.4c0,0.8,0.6,1.5,1.4,1.5h1.8c0.8,0,1.5-0.7,1.4-1.5v-48.1c0-0.8-0.6-1.5-1.4-1.5h-1.7
		c-0.8,0-1.5,0.7-1.4,1.5v21.6c0,0.2,0.1,0.6-0.2,0.6l0,0c-3.4-0.9-6.9-1.4-10.4-1.4c-3.3,0-6.5,0.5-9.6,1.4c-0.3,0-0.2-0.3-0.2-0.5
		v-21.6c0-0.8-0.7-1.5-1.5-1.5c0,0,0,0,0,0h-1.7c-0.8,0-1.5,0.7-1.5,1.5l0,0v48.1C42.8,281.9,43.5,282.5,44.3,282.5z"/>
</g>
</svg>
