<svg xmlns="http://www.w3.org/2000/svg" viewBox="0 0 60 60"><defs><style>.cls-1{fill:#af8f52;}</style></defs><title>Artboard 33</title><g id="Layer_1" data-name="Layer 1"><path class="cls-1" d="M52.87,10.58a30,30,0,1,0-3.45,42.29A30,30,0,0,0,52.87,10.58Zm-9,31.68c.34,1.58,1.06,2.23,1.88,2.45a.3.3,0,0,1,0,.16.33.33,0,0,1-.1.23h-13a.32.32,0,0,1,0-.44c.82-.28,1.42-.9,1.82-2.4a12.65,12.65,0,0,0,.27-2.94V20.86h-.18L28.36,44a1.62,1.62,0,0,1-1.56,1.19,1.6,1.6,0,0,1-1.53-1.11L17.89,21.75h-.18v15.7a13.58,13.58,0,0,0,.89,5.34,3.4,3.4,0,0,0,1.57,1.73h0l.13.07.11,0a.33.33,0,0,1,.1.24.33.33,0,0,1-.1.23H14.3a.33.33,0,0,1-.1-.23.33.33,0,0,1,.1-.24l.11,0,.14-.07h0a3.39,3.39,0,0,0,1.56-1.73,14.06,14.06,0,0,0,.8-5.34V25.39c0-3.2-.17-5.69-.71-7a3.28,3.28,0,0,0-1.66-1.81h0l-.23-.1a.34.34,0,0,1-.11-.25.35.35,0,0,1,.27-.33H24.62A1.61,1.61,0,0,1,26.16,17l4.55,14.7h.17l3.95-14.64a1.61,1.61,0,0,1,1.56-1.2h9.14a.35.35,0,0,1,.27.33.28.28,0,0,1,0,.16,2.64,2.64,0,0,0-1.88,2.27,13.05,13.05,0,0,0-.35,2.94V39.32A12.53,12.53,0,0,0,43.87,42.26Z"/></g></svg>