<svg id="Layer_1_copy" data-name="Layer 1 copy" xmlns="http://www.w3.org/2000/svg" viewBox="0 0 217.49 132.65"><defs><style>.cls-1{fill:#00549e;}.cls-2{fill:#9a8b7d;}</style></defs><title>Artboard 3</title><path class="cls-1" d="M7.45,131.49v.61c-1.06,0-2.15-.07-3.73-.07s-2.52,0-3.72.07v-.61l2.29-.14c.14-3.69.07-7.41.07-11.1s.07-7.42-.07-11.14L0,109v-.61c.85,0,2.29.07,3.07.07.48,0,1.71-.07,2.91-.14s2.42-.14,2.84-.14c3.75,0,6.8,1.78,6.8,5.95,0,2.66-1.71,4.58-4,5.74-.1.07-.2.14-.2.2s4,6.36,6.15,9.37c1.09,1.5,1.67,1.95,2.29,2.18V132c-1,.07-1.61.07-2.16.07-1.94,0-2.35-.65-5.87-6.29-.58-.92-3.08-4.91-3.35-5.16s-.45-.2-1.27-.23c-.44,0-.75,0-2.15,0,0,8.27,0,8.54.1,10.9Zm-.34-11.72a10.34,10.34,0,0,0,3.48-.41A6.23,6.23,0,0,0,13,114.2c0-3.28-1.95-5.3-6.15-5.3-.48,0-1.54,0-1.64.34s-.14,9.23-.14,10.6Z"/><path class="cls-1" d="M38.25,132H28.68c-5.23,0-6.05,0-7.83.07v-.61l2.12-.14c.14-3.69.07-7.41.07-11.14s.07-7.41-.07-11.14L20.65,109v-.65c.44,0,1,0,1.81.07s1.78,0,3,0l12-.07v5.12H36.4c-.07-1.23-.14-3.34-.79-3.86s-2.32-.58-4.95-.58H25.77v10.32c1.06,0,4.65-.07,5.27-.58s.75-3.31.78-3.86h1.1a48.45,48.45,0,0,0-.21,5.33c0,1.85,0,2.94.07,4h-1c-.1-1,0-3.86-.68-4.07-.44-.14-4.37-.14-5.3-.14,0,3.18,0,9,.11,9.84.07,1,.41,1.44,2,1.44h8.2l1.61-5.43h1Z"/><path class="cls-1" d="M43,125.81h.61c.86,3.11,2.77,6.16,6.36,6.16a4.54,4.54,0,0,0,4.64-4.79c0-6.73-11.82-6.08-11.82-13.39,0-2.84,2.19-6,6.73-6a21.56,21.56,0,0,1,5.13,1,.73.73,0,0,0,.61-.41h.93v5.67h-.62c-1-3-2.46-5.6-6.08-5.6a4.12,4.12,0,0,0-4.31,4.13c0,6.25,12,5.7,12,13.32a6.93,6.93,0,0,1-7,6.67c-2.6,0-5.37-1.2-5.81-1.2-.24,0-.27,0-.48.58H43Z"/><path class="cls-1" d="M68.57,131.49v.61c-1.09,0-2.18-.07-3.72-.07s-2.56,0-3.72.07v-.61l2.29-.14c0-2,.06-2.6.06-7.45v-7.34c0-4.86,0-5.47-.06-7.49L61.13,109v-.61c1.09,0,2.15.07,3.72.07s2.53,0,3.72-.07V109l-2.28.07c-.07,2-.07,2.7-.07,7.69v6.94c0,5,0,5.67.07,7.65Z"/><path class="cls-1" d="M74.32,131.35c.14-3.72.07-7.41.07-11.14s.07-7.41-.07-11.1L72,109v-.58c1.6,0,8.71-.28,11-.28,6.56,0,11.51,4.58,11.51,11.89,0,8.1-5.64,12-13.32,12-.89,0-4.79-.07-5.57-.07-1.23,0-2.36,0-3.59.07v-.61Zm3-.48c.14.17,1.37.55,4.34.55,6,0,10.05-4.17,10.05-11.07,0-7.59-5.09-11.48-12.3-11.48a5.51,5.51,0,0,0-1.91.24c-.21.07-.24.24-.28.85-.07,1.19-.07,10.76-.07,14.86C77.12,130.19,77.16,130.67,77.29,130.87Z"/><path class="cls-1" d="M115.68,132h-9.57c-5.22,0-6,0-7.82.07v-.61l2.12-.14c.13-3.69.06-7.41.06-11.14s.07-7.41-.06-11.14L98.08,109v-.65c.45,0,1,0,1.81.07s1.78,0,3,0l12-.07v5.12h-1.09c-.07-1.23-.14-3.34-.79-3.86s-2.32-.58-5-.58h-4.89v10.32c1.06,0,4.65-.07,5.26-.58s.75-3.31.79-3.86h1.09a52.28,52.28,0,0,0-.2,5.33c0,1.85,0,2.94.06,4h-1c-.1-1,0-3.86-.68-4.07-.45-.14-4.38-.14-5.3-.14,0,3.18,0,9,.1,9.84.07,1,.41,1.44,2,1.44h8.2l1.61-5.43h1Z"/><path class="cls-1" d="M138.72,132.45c-1.09-1.44-1.81-2.43-8.44-11.21-5.67-7.28-6.32-8.07-7.45-9.64l-.06.07.06,11c0,.75.07,5.5.14,8.71l2.63.14v.61c-.78,0-1.67-.07-3.14-.07s-2.39.07-3.18.07v-.61l2.49-.14,0-1.57c.07-5,.1-5.5.14-8.34l.06-10.39c0-.82-1.23-1.91-2.76-2v-.61c2.59,0,2.9.07,4.75.07,1.36,1.84,11.44,15.44,14.24,18.72l0-18.11-2.73-.07v-.61c.51,0,2.73.07,3.11.07s2.59-.07,3.07-.07V109l-2.36.07c0,1.91-.24,11-.24,12l-.1,11.35Z"/><path class="cls-1" d="M143.28,114l.41-5.64c2.53,0,7.69.07,9.81.07l10-.07L163.2,114h-.95a30.55,30.55,0,0,0-.42-4.55c-.23-.41-.89-.41-3.21-.41H154.9c-.07,1.85-.1,2.33-.1,6.87,0,11.41,0,12.68.1,15.41l2.19.14v.61c-1.06,0-2.16-.07-3.66-.07s-2.5,0-3.66.07v-.61l2.22-.14c.14-3.79.07-7.62.07-11.41,0-3.63.07-7.25-.07-10.87h-3.07c-3.52,0-3.66.11-4.61,5Z"/><path class="cls-1" d="M173.05,131.49v.61c-1.09,0-2.18-.07-3.72-.07s-2.56,0-3.73.07v-.61l2.29-.14c0-2,.07-2.6.07-7.45v-7.34c0-4.86,0-5.47-.07-7.49L165.6,109v-.61c1.1,0,2.16.07,3.73.07s2.53,0,3.72-.07V109l-2.29.07c-.07,2-.07,2.7-.07,7.69v6.94c0,5,0,5.67.07,7.65Z"/><path class="cls-1" d="M179.27,132.1c-1.09,0-2-.07-2.86-.07s-1.68.07-2.26.07v-.82c1.64-.1,1.71-.17,2.53-2.29,2.66-6.8,5.26-13.9,7.92-21.15h.31c2.63,7.31,5.64,15,7.76,20.44,1.09,2.8,1.23,2.93,2.46,3v.82c-.78,0-1.78-.07-3.18-.07-.75,0-3.07.07-4,.07v-.61c1.95-.14,2.53-.24,2.53-.58a3.07,3.07,0,0,0-.27-.89l-2.64-7.18c-.13-.37-.2-.44-.78-.44h-6.25c-.45,0-.62.2-.79.65l-2.32,6.8a5.12,5.12,0,0,0-.35,1.23c0,.24.62.31,2.15.41Zm7.32-10.39c.41,0,.48,0,.48-.27a1.58,1.58,0,0,0-.14-.48l-2.73-7.41c-.17-.48-.31-.82-.41-.82s-.21.27-.38.68l-2.87,7.66a1.25,1.25,0,0,0-.1.37c0,.21.14.27.58.27Z"/><path class="cls-1" d="M213.8,132.1c-4.75-.07-5.54-.07-12.44-.07-2.7,0-3.93.07-4.78.07v-.61l2.63-.14c.13-3.69.07-7.41.07-11.14s.06-7.41-.07-11.14l-2.36-.07v-.61c1.09,0,2.15.07,3.93.07s2.67,0,3.86-.07V109l-2.53.07c-.07,2-.1,2.7-.1,7.49,0,3.1,0,8.09,0,11.2,0,2.43,0,3,.78,3.28a50,50,0,0,0,5.71.24c1.33,0,2.19,0,3.08-.07l1.91-5.57h1Z"/><path class="cls-1" d="M81.47,72c-4.53-.11-8.74-.21-11.62-.21-3.39,0-7.5.21-11.51.21V70.1l7.09-.4c.1-6,.21-24.88.21-29,0-5.55-.41-29.81-.41-34.85H65L39.53,73H38.7l-28-66-.2.21.72,62.5,8.32.4V72c-2.46,0-6-.21-9.14-.21-1.75,0-7.82.21-10,.21V70.1l7.61-.4c.31-22.72.31-55.31.1-67l-7.5-.2V.62c4.11,0,6.17.2,8.33.2,2.46,0,4.62-.1,8-.2L41.58,61.37,64.51.82C69.34.72,75.92.62,81,.62V2.47l-7.5.2c0,5.24.41,28.37.41,33.1.1,5.35.21,29.09.31,33.93l7.3.4Z"/><path class="cls-1" d="M120.75,70.1V72c-3.19,0-6.48-.21-11.21-.21s-7.6.1-11.2.21V70.1l6.89-.4c.41-11.11.2-22.31.2-33.41s.21-22.31-.2-33.51l-6.89-.31V.62c2.57,0,6.89.2,9.25.2,1.44,0,5.14-.2,8.74-.41s7.3-.41,8.53-.41c11.31,0,20.46,5.35,20.46,17.89,0,8-5.14,13.77-11.93,17.27-.31.2-.61.41-.61.61,0,.42,11.92,19.12,18.5,28.17,3.29,4.52,5,5.86,6.89,6.58v1.23c-2.88.21-4.83.21-6.48.21C145.83,72,144.6,70,134,53c-1.75-2.77-9.25-14.8-10.07-15.52-.62-.62-1.34-.62-3.81-.72-1.33,0-2.26,0-6.47.1,0,24.88.1,25.7.31,32.8Zm-1-35.25c6.37-.21,9.56-.62,10.49-1.24,3.29-1.95,7.29-7.91,7.29-15.52,0-9.87-5.86-15.93-18.5-15.93-1.44,0-4.63,0-4.93,1-.41,1.33-.41,27.75-.41,31.86Z"/><path class="cls-1" d="M191.79,70.1V72c-3.29-.11-6.47-.21-11.61-.21s-8.12.1-11.72.21V70.1l7-.4c.41-11.11.2-22.31.2-33.41s.21-22.41-.2-33.62l-7-.3V.62c2.47,0,6.78.2,9.66.2,1.54,0,5.55-.2,9.56-.41S195.6,0,196.93,0c15.21,0,20.56,10.07,20.56,18.19s-5,16.45-16,18.71c-4.93,1-7.5,1-17.57.93,0,8.74,0,23.85.3,31.87Zm-7.91-34.33c2.67.1,4.21.21,6.47.21,10.9,0,19.33-5.45,19.33-17.17,0-13.77-10.79-16.65-22.1-16.65-3.09,0-3.5.41-3.6,3.8Z"/><rect class="cls-2" x="0.85" y="87.93" width="213.78" height="3.9"/></svg>