<?xml version="1.0" encoding="utf-8"?>
<!-- Generator: Adobe Illustrator 22.1.0, SVG Export Plug-In . SVG Version: 6.00 Build 0)  -->
<svg version="1.1" id="Layer_1" xmlns="http://www.w3.org/2000/svg" xmlns:xlink="http://www.w3.org/1999/xlink" x="0px" y="0px"
	 viewBox="0 0 420.1 137.6" style="enable-background:new 0 0 420.1 137.6;" xml:space="preserve">
<style type="text/css">
	.st0{fill:#231F20;}
</style>
<title>Artboard 8</title>
<path class="st0" d="M42.4,74c0-5.2,1-9,3.1-11.2c2.1-2.2,5.5-3.3,10.2-3.3c4.8,0,8.2,1.1,10.2,3.3C68,65,69,68.8,69,74v6.2H57.7
	v-10c0.1-0.7-0.1-1.5-0.4-2.1c-0.4-0.4-1-0.7-1.5-0.6c-0.6-0.1-1.1,0.2-1.5,0.6c-0.3,0.6-0.5,1.4-0.4,2.1v36.6
	c-0.1,0.7,0.1,1.5,0.5,2.1c0.3,0.4,0.9,0.7,1.5,0.6c0.6,0.1,1.2-0.2,1.5-0.6c0.3-0.6,0.5-1.4,0.4-2.1V95.6H69v8.1
	c0,5.2-1,8.9-3.1,11.1c-2.1,2.2-5.5,3.3-10.2,3.3s-8.2-1.1-10.2-3.2s-3.1-5.9-3.1-11.2V74z"/>
<path class="st0" d="M72.1,83.7c0-4.7,0.9-8,2.8-9.9c1.8-1.9,4.9-2.9,9.2-2.9c4.2,0,7.3,1,9.1,2.9c1.9,1.9,2.8,5.2,2.8,9.9v21.5
	c0,4.6-0.9,7.9-2.8,9.8c-1.8,2-4.9,2.9-9.1,3c-4.2,0-7.3-1-9.1-2.9c-1.8-2-2.8-5.2-2.8-9.8L72.1,83.7z M82.2,80.7v27.1
	c-0.1,0.7,0.1,1.5,0.4,2.1c0.3,0.4,0.8,0.7,1.4,0.6c0.5,0,1.1-0.2,1.4-0.6c0.3-0.6,0.5-1.4,0.4-2.1V80.7c0.1-0.7-0.1-1.5-0.4-2.1
	c-0.3-0.4-0.9-0.7-1.4-0.6c-0.5,0-1,0.2-1.3,0.6C82.3,79.2,82.2,79.9,82.2,80.7L82.2,80.7z"/>
<path class="st0" d="M99.4,116.9V72h9.8v3.8h0.2c0.7-1.4,1.7-2.6,3-3.5c1.3-0.8,2.7-1.2,4.2-1.1c1.4,0,2.7,0.4,3.9,1.2
	c1.1,0.9,1.9,2.1,2.3,3.4h0.2c0.8-1.4,1.8-2.6,3.2-3.5c1.2-0.8,2.7-1.2,4.2-1.1c1.8-0.2,3.7,0.5,4.9,1.8c1,1.2,1.6,3.2,1.6,5.8v38.1
	h-10.1V82.1c0.1-0.7-0.1-1.5-0.4-2.1c-0.4-0.4-0.9-0.6-1.4-0.6c-0.5,0-1.1,0.2-1.4,0.7c-0.3,0.6-0.5,1.3-0.4,2v34.8h-9.9V82.1
	c0.1-0.7-0.1-1.5-0.4-2.1c-0.4-0.4-0.9-0.6-1.4-0.6c-0.5,0-1.1,0.2-1.4,0.7c-0.4,0.6-0.5,1.3-0.5,2v34.8L99.4,116.9z"/>
<path class="st0" d="M140.3,116.9V72h9.9v3.8h0.2c0.7-1.4,1.7-2.6,3-3.5c1.3-0.8,2.7-1.2,4.2-1.1c1.4,0,2.7,0.4,3.9,1.2
	c1.1,0.9,1.9,2.1,2.3,3.4h0.2c0.8-1.4,1.8-2.6,3.1-3.5c1.2-0.8,2.7-1.2,4.2-1.1c1.8-0.2,3.6,0.5,4.9,1.8c1.1,1.2,1.6,3.2,1.6,5.8
	v38.1h-10.1V82.1c0.1-0.7-0.1-1.5-0.4-2.1c-0.4-0.4-0.9-0.6-1.4-0.6c-0.5,0-1.1,0.2-1.4,0.7c-0.3,0.6-0.5,1.3-0.4,2v34.8h-9.9V82.1
	c0.1-0.7-0.1-1.5-0.4-2.1c-0.4-0.4-0.9-0.6-1.4-0.6c-0.6,0-1.1,0.2-1.4,0.7c-0.3,0.6-0.5,1.3-0.4,2v34.8L140.3,116.9z"/>
<path class="st0" d="M205.1,72v44.9h-9.9v-3.7h-0.2c-0.7,1.4-1.7,2.5-3,3.4c-1.2,0.7-2.7,1.1-4.1,1.1c-1.9,0.2-3.7-0.5-5-1.9
	c-1.1-1.2-1.6-3.1-1.6-5.6V72h10.1v34.8c-0.1,0.7,0.1,1.4,0.4,2c0.4,0.4,0.9,0.6,1.5,0.6c0.5,0,1-0.2,1.3-0.6c0.3-0.6,0.5-1.3,0.4-2
	V72H205.1z"/>
<path class="st0" d="M208.7,116.9V72h9.9v3.8h0.1c0.7-1.4,1.8-2.6,3.1-3.5c1.3-0.8,2.7-1.2,4.2-1.1c1.9-0.1,3.7,0.6,4.9,1.9
	c1.1,1.3,1.7,3.2,1.6,5.7v38.1h-10.2V82.1c0.1-0.7-0.1-1.5-0.4-2.1c-0.4-0.4-0.9-0.6-1.4-0.6c-0.5,0-1.1,0.2-1.4,0.7
	c-0.3,0.6-0.5,1.3-0.4,2v34.8L208.7,116.9z"/>
<path class="st0" d="M236.1,69.3v-8.5h10.1v8.5H236.1z M236.1,116.9V72h10.1v44.9L236.1,116.9z"/>
<path class="st0" d="M248.4,79.2V72h2.6v-8.4h10.2V72h2.9v7.2h-3v27.3c-0.1,0.9,0.1,1.8,0.5,2.6c0.6,0.4,1.3,0.6,2.1,0.6h0.4v7.2
	h-6.4c-2.5,0-4.2-0.6-5.2-1.6c-1-1.1-1.5-3.2-1.5-6.2V79.2H248.4z"/>
<path class="st0" d="M284.5,117.2c-0.6,3.8-1.6,6.4-2.9,7.8c-1.3,1.3-3.5,2-6.5,2h-8.6v-7.2h4.3c0.5,0,1-0.1,1.5-0.3
	c0.3-0.3,0.5-0.7,0.5-1.1c0-0.3,0-0.6-0.1-0.9c0-0.4-0.1-1.2-0.3-2.4l-6.7-43h10.4l1.7,22.6c0.1,1.1,0.1,2.5,0.2,4.4
	s0.2,4.1,0.3,6.7h0.3c0.1-1.7,0.3-3.4,0.4-5.3s0.4-4.1,0.7-6.8L282,72h9.5L284.5,117.2z"/>
<path class="st0" d="M310.6,117.7h-6.4c-2.7,0-4.7-0.7-5.8-1.9s-1.8-3.5-1.8-6.8V80h-1.7c-0.5,0-0.9-0.4-0.9-0.8c0,0,0,0,0,0V72
	c0-0.5,0.4-0.9,0.9-0.9h1.7v-7.5c0-0.5,0.4-0.8,0.9-0.8l0,0h10.2c0.5,0,0.9,0.4,0.9,0.8c0,0,0,0,0,0v7.5h2.1c0.5,0,0.9,0.4,0.9,0.9
	v7.2c0,0.5-0.4,0.9-0.9,0.9h-2.1v26.4c0,1.7,0.3,2,0.3,2s0.3,0.3,1.5,0.3h0.4c0.5,0,0.9,0.4,0.9,0.9v7.2
	C311.5,117.3,311.1,117.7,310.6,117.7C310.6,117.7,310.6,117.7,310.6,117.7z M295.8,78.3h1.7c0.5,0,0.9,0.4,0.9,0.8c0,0,0,0,0,0V109
	c0,3.5,0.7,5,1.3,5.6c0.9,0.9,2.4,1.4,4.6,1.4h5.5v-5.5c-0.8,0-1.6-0.3-2.2-0.8c-0.5-0.6-0.8-1.6-0.8-3.2V79.2
	c0-0.5,0.4-0.9,0.9-0.9l0,0h2.1v-5.5h-2.1c-0.5,0-0.9-0.4-0.9-0.8c0,0,0,0,0,0v-7.5h-8.5V72c0,0.5-0.4,0.9-0.8,0.9c0,0,0,0,0,0h-1.7
	L295.8,78.3z"/>
<path class="st0" d="M337.8,117.7h-10.2c-0.5,0-0.9-0.4-0.9-0.8c0,0,0,0,0,0V82.1c0.1-0.5,0-1.1-0.2-1.6c-0.1-0.2-0.5-0.2-0.7-0.2
	c-0.4,0-0.6,0.1-0.7,0.3c-0.2,0.5-0.3,1-0.3,1.5v34.8c0,0.5-0.4,0.9-0.8,0.9c0,0,0,0,0,0h-10.1c-0.5,0-0.9-0.4-0.9-0.8c0,0,0,0,0,0
	V60.8c0-0.5,0.4-0.8,0.9-0.8l0,0H324c0.5,0,0.9,0.4,0.9,0.8v0v12.3c0.5-0.6,1.1-1.1,1.7-1.5c1.4-0.9,3-1.3,4.6-1.2
	c2.1-0.1,4.2,0.7,5.6,2.2c1.2,1.4,1.9,3.6,1.9,6.3v38.1C338.7,117.3,338.3,117.7,337.8,117.7C337.8,117.7,337.8,117.7,337.8,117.7z
	 M328.5,116h8.5V78.8c0.1-1.8-0.4-3.7-1.4-5.2c-1.1-1.2-2.7-1.8-4.3-1.6c-1.3,0-2.6,0.3-3.7,1c-1.1,0.8-2,1.9-2.5,3.1
	c-0.1,0.3-0.4,0.5-0.8,0.5c-0.5,0-0.9-0.4-1-0.9V61.6h-8.4V116h8.4V82.1c-0.1-0.9,0.2-1.7,0.6-2.5c0.5-0.7,1.3-1,2.1-1
	c0.8-0.1,1.6,0.3,2.1,0.9c0.5,0.8,0.7,1.7,0.6,2.6L328.5,116z"/>
<path class="st0" d="M351.1,117.7H341c-0.5,0-0.9-0.4-0.9-0.8c0,0,0,0,0,0V72c0-0.5,0.4-0.9,0.9-0.9h9.9c0.5,0,0.9,0.4,0.9,0.9v1.2
	c1.6-1.9,4-3,6.5-2.9c2.1-0.1,4.2,0.7,5.6,2.2c1.3,1.8,2,4,1.9,6.3v17.3c0,0.5-0.4,0.9-0.9,0.9h-10.2c-0.5,0-0.9-0.4-0.9-0.9V82.1
	c0.1-0.5,0-1.1-0.2-1.6c-0.2-0.2-0.5-0.2-0.7-0.2c-0.4,0-0.6,0.1-0.7,0.3c-0.2,0.5-0.3,1-0.3,1.5v34.8
	C351.9,117.3,351.6,117.7,351.1,117.7C351.1,117.7,351.1,117.7,351.1,117.7z M341.9,116h8.4V82.1c-0.1-0.9,0.1-1.7,0.6-2.5
	c0.5-0.7,1.3-1,2.1-1c0.8-0.1,1.6,0.3,2.1,0.9c0.5,0.8,0.7,1.7,0.6,2.6v13.2h8.4V78.8c0.1-1.8-0.4-3.7-1.4-5.2
	c-1.1-1.2-2.7-1.7-4.3-1.6c-1.3,0-2.6,0.3-3.7,1c-1.2,0.8-2.1,1.9-2.8,3.2c-0.4,0.7-1.8,0.4-1.8-0.4v-2.9h-8.2L341.9,116z"/>
<path class="st0" d="M380.5,118.8c-4.5,0-7.8-1.1-9.8-3.2s-3-5.5-3-10.5V83.7c0-5,1-8.4,3-10.5s5.2-3.1,9.7-3.1
	c3.9,0,7.1,0.9,9.3,2.8c2.3,1.9,3.6,4.8,3.5,7.8v15.2c0,0.5-0.4,0.9-0.9,0.9l0,0h-12.9v11.1c-0.1,0.6,0,1.1,0.3,1.6
	c0,0.1,0.2,0.3,0.7,0.3s0.6-0.2,0.7-0.3c0.2-0.5,0.3-1.1,0.3-1.6v-8.4c0-0.5,0.4-0.9,0.9-0.9l0,0h10.1c0.5,0,0.9,0.4,0.9,0.8
	c0,0,0,0,0,0v8.3c0.2,3.1-1.1,6.1-3.4,8.2C387.6,117.9,384.5,118.8,380.5,118.8z M380.4,71.8c-4,0-6.9,0.9-8.5,2.6
	c-1.6,1.7-2.5,4.9-2.5,9.3v21.5c0,4.4,0.9,7.5,2.5,9.3s4.5,2.6,8.5,2.6c3.5,0,6.3-0.8,8.2-2.5c1.9-1.7,3-4.3,2.8-6.9v-7.5h-8.4v7.5
	c0.1,0.9-0.1,1.8-0.6,2.6c-0.9,1.2-2.6,1.3-3.8,0.4c-0.1-0.1-0.3-0.3-0.4-0.4c-0.4-0.8-0.6-1.7-0.6-2.6v-12c0-0.5,0.4-0.9,0.9-0.9
	h12.9V80.6c0.1-2.5-0.9-4.9-2.9-6.4C386.8,72.6,384,71.8,380.4,71.8L380.4,71.8z"/>
<path class="st0" d="M382.3,90h-3.6c-0.5,0-0.9-0.4-0.9-0.9v-8.5c-0.1-0.9,0.1-1.8,0.6-2.6c0.9-1.2,2.6-1.3,3.8-0.4
	c0.2,0.1,0.3,0.3,0.4,0.4c0.4,0.8,0.6,1.7,0.6,2.6v8.5C383.2,89.6,382.8,90,382.3,90C382.4,90,382.4,90,382.3,90z M379.6,88.3h1.9
	v-7.6c0.1-0.6,0-1.1-0.3-1.6c0-0.1-0.2-0.2-0.7-0.2s-0.6,0.2-0.7,0.2c-0.2,0.5-0.3,1.1-0.3,1.6V88.3z"/>
<path class="st0" d="M407.4,118.8c-4.5,0-7.8-1.1-9.8-3.2s-3-5.6-3-10.5V83.7c0-5,1-8.4,3-10.5s5.2-3.1,9.7-3.1
	c3.9,0,7.1,0.9,9.3,2.8c2.3,1.9,3.6,4.8,3.5,7.8v15.2c0,0.5-0.4,0.9-0.9,0.9h-12.9v11.1c-0.1,0.6,0,1.1,0.3,1.6
	c0,0.1,0.2,0.3,0.7,0.3s0.6-0.2,0.7-0.3c0.2-0.5,0.3-1.1,0.3-1.6v-8.4c0-0.5,0.4-0.9,0.9-0.9h10.1c0.5,0,0.9,0.4,0.9,0.9v8.3
	c0.2,3.1-1.1,6.1-3.4,8.2C414.5,117.9,411.3,118.8,407.4,118.8z M407.3,71.8c-4,0-6.9,0.9-8.5,2.6c-1.6,1.7-2.5,4.9-2.5,9.3v21.5
	c0,4.4,0.8,7.5,2.5,9.3s4.5,2.6,8.5,2.6c3.5,0,6.3-0.8,8.2-2.5c2-1.7,3-4.3,2.8-6.9v-7.5H410v7.5c0.1,0.9-0.1,1.8-0.6,2.6
	c-0.9,1.2-2.6,1.3-3.8,0.4c-0.1-0.1-0.3-0.3-0.4-0.4c-0.4-0.8-0.6-1.7-0.6-2.6v-12c0-0.5,0.4-0.9,0.9-0.9h12.9V80.6
	c0.1-2.5-0.9-4.9-2.9-6.4C413.6,72.6,410.8,71.8,407.3,71.8L407.3,71.8z"/>
<path class="st0" d="M409.2,90h-3.6c-0.5,0-0.9-0.4-0.9-0.8c0,0,0,0,0,0v-8.5c-0.1-0.9,0.1-1.8,0.6-2.6c0.9-1.2,2.6-1.3,3.8-0.4
	c0.2,0.1,0.3,0.3,0.4,0.4c0.4,0.8,0.6,1.7,0.6,2.6v8.5C410,89.6,409.7,90,409.2,90C409.2,90,409.2,90,409.2,90z M406.4,88.3h1.9
	v-7.6c0.1-0.6-0.1-1.1-0.3-1.6c0-0.1-0.2-0.2-0.7-0.2s-0.6,0.2-0.7,0.2c-0.2,0.5-0.3,1.1-0.3,1.6L406.4,88.3z"/>
<path class="st0" d="M0,117.9c0,0.1,0.1,0.2,0.2,0.2h5.3c0.1,0,0.2-0.1,0.2-0.2c0,0,0,0,0,0v-1.1c0-0.1,0.1-0.2,0.2-0.2c0,0,0,0,0,0
	h1.7v-1.1c0-0.1,0.1-0.2,0.2-0.2h1.7v-1.1c0-0.1,0.1-0.2,0.2-0.2h1.7v-1c0-0.1,0.1-0.2,0.2-0.2c0,0,0,0,0,0h1.6v-1.1
	c0-0.1,0.1-0.2,0.2-0.2h1.4c0.1,0,0.2-0.1,0.2-0.2v-1.1c0-0.1,0.1-0.2,0.2-0.2h2.4v-0.6h0.2l-0.1-0.1l-0.1-0.1V109l0.1-0.1l0.3-0.2
	l0.1-0.1v-0.1l0.2-22l-0.1-0.2l-0.1-0.1v-0.2h0.2v-0.5l-0.2-0.1L18,85.2L17.9,85v-0.3v-0.2v-0.1l-0.1-0.1l0-0.2h0.8v-0.4h-0.1V83
	h-0.3v-0.4h0.2c0,0,0.2,0,0.2-0.2v-2.2L18.2,80l-0.1-0.2l0-0.2h-0.4v-0.2c0-0.1-0.1-0.2-0.2-0.2c0,0,0,0,0,0h-1v-0.2L16.4,79h-0.2
	v-0.4l-0.2-0.3l-0.1-0.1L15.6,78v-0.1c0-0.1,0-0.2,0-0.3v-7.7c0-0.1,0.1-0.2,0.2-0.2H28c0.1,0,0.2-0.1,0.2-0.2c0,0,0,0,0,0v-2h-0.3
	c-0.1,0-0.2-0.1-0.2-0.2v-1.4H28c0.1,0,0.2-0.1,0.2-0.2c0,0,0,0,0,0V39.2H28l0.1-0.5h-0.2v-0.8h-0.2v-0.4h0.2c0,0,0.2,0,0.2-0.2
	v-2.2L27.8,35l-0.1-0.2v-0.3h-0.4v-0.2c0-0.1,0-0.2-0.1-0.2c0,0,0,0-0.1,0h-1L26,33.9h-0.4l0.1-0.4l-0.3-0.3L25.2,33L25,32.9v-0.1
	c0,0,0-0.1,0.2-0.1l3.9-0.4c0.1,0,0.3,0,0.4,0l1.9,0.3L33,33l0.1,0.5l-0.2,0.3v0.1c0,0.1,0,0.2,0,0.3v1l0.4,0.6l0.1,0.1
	c0.1,0.1,0.2,0.1,0.3,0.1l17.1,2.2l18.1,2.4c0.1,0,0.2,0,0.2-0.1c0,0,0,0,0,0V0.2c0-0.1-0.1-0.2-0.2-0.2H0.2C0.1,0,0,0.1,0,0.2
	V117.9z"/>
<path class="st0" d="M21.7,84.3L21.7,84.3v0.1l-0.1,0.2v0.3l-0.1,0.2l-0.2,0.1l-0.2,0.2v0.5h0.2v0.2l-0.1,0.1l-0.1,0.1
	c0,0.1,0,0.1,0,0.2l0.2,21.8l0.1,0.2l0.4,0.2l0.2,0.2v0.1l-0.1,0.1l-0.1,0.1h0.2v0.5c0,0.1,0,0.1,0.1,0.1h6.1v-1h0
	c0,0,0.1,0,0.1-0.1V88H28c-0.1,0-0.1,0-0.1-0.1v-1.5h0.2c0.1,0,0.1,0,0.1-0.1v-1.9c0,0,0-0.1-0.1-0.1H21.7z"/>
</svg>
