<svg id="Layer_1" data-name="Layer 1" xmlns="http://www.w3.org/2000/svg" viewBox="0 0 420.12 126.96"><defs><style>.cls-1{fill:#231F20;}</style></defs><title>Artboard 8</title><path class="cls-1" d="M42.41,74q0-7.86,3.09-11.17t10.18-3.31q7.13,0,10.23,3.29T69,74v6.2H57.65v-10a3.71,3.71,0,0,0-.44-2.09,1.77,1.77,0,0,0-1.53-.61,1.68,1.68,0,0,0-1.48.61,3.81,3.81,0,0,0-.43,2.09v36.61a3.73,3.73,0,0,0,.45,2.11,1.66,1.66,0,0,0,1.46.63,1.71,1.71,0,0,0,1.53-.65,3.82,3.82,0,0,0,.44-2.09V95.59H69v8.1q0,7.83-3.09,11.12T55.68,118.1q-7.14,0-10.2-3.25t-3.07-11.16Z"/><path class="cls-1" d="M72.05,83.69q0-7,2.77-9.87T84,70.91q6.36,0,9.14,2.91t2.77,9.87v21.48q0,6.92-2.77,9.85T84,118q-6.36,0-9.13-2.93t-2.77-9.85Zm10.16-3V107.8a3.81,3.81,0,0,0,.43,2.1,1.55,1.55,0,0,0,1.39.63,1.57,1.57,0,0,0,1.4-.63,3.91,3.91,0,0,0,.42-2.1V80.65a3.76,3.76,0,0,0-.44-2.09A1.65,1.65,0,0,0,84,77.91a1.47,1.47,0,0,0-1.33.61A3.93,3.93,0,0,0,82.21,80.65Z"/><path class="cls-1" d="M99.44,116.84V72h9.85v3.76h.15a8.78,8.78,0,0,1,3-3.46,7.74,7.74,0,0,1,4.23-1.14,6.32,6.32,0,0,1,3.86,1.16,6.72,6.72,0,0,1,2.3,3.44H123a9.88,9.88,0,0,1,3.15-3.46,7.58,7.58,0,0,1,4.15-1.14A6.13,6.13,0,0,1,135.24,73q1.57,1.86,1.58,5.78v38.05H126.7V82.06a3.88,3.88,0,0,0-.4-2.12,1.65,1.65,0,0,0-1.4-.55,1.55,1.55,0,0,0-1.37.65,3.67,3.67,0,0,0-.44,2v34.78h-9.92V82.06a3.76,3.76,0,0,0-.42-2.12,1.73,1.73,0,0,0-1.45-.55,1.6,1.6,0,0,0-1.4.65,3.48,3.48,0,0,0-.46,2v34.78Z"/><path class="cls-1" d="M140.32,116.84V72h9.85v3.76h.16a8.69,8.69,0,0,1,3-3.46,7.78,7.78,0,0,1,4.23-1.14,6.3,6.3,0,0,1,3.86,1.16,6.72,6.72,0,0,1,2.3,3.44h.16a9.88,9.88,0,0,1,3.15-3.46,7.59,7.59,0,0,1,4.16-1.14A6.1,6.1,0,0,1,176.12,73q1.59,1.86,1.59,5.78v38.05H167.58V82.06a3.88,3.88,0,0,0-.4-2.12,1.65,1.65,0,0,0-1.4-.55,1.54,1.54,0,0,0-1.36.65,3.58,3.58,0,0,0-.44,2v34.78h-9.93V82.06a3.76,3.76,0,0,0-.42-2.12,1.71,1.71,0,0,0-1.44-.55,1.6,1.6,0,0,0-1.41.65,3.57,3.57,0,0,0-.45,2v34.78Z"/><path class="cls-1" d="M205.09,72v44.86h-9.92v-3.72h-.24a9,9,0,0,1-3,3.4,7.63,7.63,0,0,1-4.13,1.08,6.22,6.22,0,0,1-5-1.88c-1.1-1.25-1.64-3.13-1.64-5.64V72h10.08v34.83a3.51,3.51,0,0,0,.44,2,1.75,1.75,0,0,0,1.46.57,1.5,1.5,0,0,0,1.34-.61,3.76,3.76,0,0,0,.4-2V72Z"/><path class="cls-1" d="M208.67,116.84V72h9.93v3.76h.15a9.2,9.2,0,0,1,3.07-3.48A7.69,7.69,0,0,1,226,71.14a6.16,6.16,0,0,1,4.94,1.92q1.65,1.92,1.65,5.73v38.05H222.4V82.06a3.87,3.87,0,0,0-.41-2.12,1.66,1.66,0,0,0-1.41-.55,1.57,1.57,0,0,0-1.38.65,3.57,3.57,0,0,0-.45,2v34.78Z"/><path class="cls-1" d="M236.14,69.28V60.76h10.08v8.52Zm0,47.56V72h10.08v44.86Z"/><path class="cls-1" d="M248.36,79.17V72h2.56V63.65h10.16V72H264v7.19h-2.95v27.26a4.26,4.26,0,0,0,.53,2.64,2.85,2.85,0,0,0,2.07.55H264v7.22h-6.36q-3.69,0-5.22-1.65T250.92,109V79.17Z"/><path class="cls-1" d="M284.52,117.15c-.59,3.82-1.56,6.42-2.89,7.77s-3.5,2-6.49,2h-8.58v-7.23h4.31a2.55,2.55,0,0,0,1.45-.32,1.25,1.25,0,0,0,.45-1.08,7.15,7.15,0,0,0-.08-.92c-.05-.43-.15-1.24-.31-2.43l-6.67-43h10.4l1.74,22.55c.08,1.06.15,2.52.23,4.37s.17,4.09.27,6.73h.28c.13-1.68.27-3.43.44-5.27s.4-4.1.68-6.78L282,72h9.46Z"/><path class="cls-1" d="M310.6,117.7h-6.36c-2.69,0-4.66-.65-5.84-1.93s-1.76-3.5-1.76-6.8V80h-1.71a.85.85,0,0,1-.85-.86V72a.86.86,0,0,1,.85-.86h1.71V63.65a.85.85,0,0,1,.85-.85h10.16a.85.85,0,0,1,.86.85v7.47h2.09a.87.87,0,0,1,.86.86v7.18a.86.86,0,0,1-.86.86h-2.09v26.41c0,1.7.28,2,.29,2s.3.28,1.45.28h.35a.87.87,0,0,1,.86.86v7.22A.86.86,0,0,1,310.6,117.7ZM295.79,78.31h1.7a.85.85,0,0,1,.86.85V109c0,3.5.71,5,1.3,5.64.85.91,2.39,1.38,4.59,1.38h5.5v-5.53a3.18,3.18,0,0,1-2.19-.8c-.52-.55-.75-1.55-.75-3.23V79.16a.85.85,0,0,1,.85-.85h2.09V72.83h-2.09a.85.85,0,0,1-.85-.85V64.51h-8.45V72a.85.85,0,0,1-.86.85h-1.7Z"/><path class="cls-1" d="M337.82,117.7H327.66a.85.85,0,0,1-.85-.86V82.05a3.08,3.08,0,0,0-.24-1.6c-.13-.17-.51-.2-.73-.2-.42,0-.58.14-.67.28a2.72,2.72,0,0,0-.3,1.52v34.79a.85.85,0,0,1-.85.86H313.93a.85.85,0,0,1-.85-.86V60.76a.85.85,0,0,1,.85-.85H324a.85.85,0,0,1,.85.85V73.05a8.06,8.06,0,0,1,1.71-1.51,8.48,8.48,0,0,1,4.65-1.25,7,7,0,0,1,5.59,2.21c1.24,1.44,1.86,3.55,1.86,6.28v38.06A.85.85,0,0,1,337.82,117.7Zm-9.3-1.71H337V78.78a7.86,7.86,0,0,0-1.44-5.16,5.33,5.33,0,0,0-4.3-1.62,6.78,6.78,0,0,0-3.72,1A7.28,7.28,0,0,0,325,76.11a.87.87,0,0,1-.78.49,1,1,0,0,1-1-.86V61.62h-8.37V116h8.37V82.05a4.38,4.38,0,0,1,.6-2.5,2.39,2.39,0,0,1,2.08-1,2.46,2.46,0,0,1,2.11.9,4.42,4.42,0,0,1,.57,2.61Z"/><path class="cls-1" d="M351.09,117.7H341a.85.85,0,0,1-.85-.86V72a.86.86,0,0,1,.85-.86h9.93a.87.87,0,0,1,.86.86V73.2a8.19,8.19,0,0,1,6.51-2.91,7,7,0,0,1,5.59,2.21,9.45,9.45,0,0,1,1.86,6.28V96.12a.86.86,0,0,1-.86.86H354.73a.86.86,0,0,1-.85-.86V82.05a3.08,3.08,0,0,0-.24-1.6,1.08,1.08,0,0,0-.73-.2c-.43,0-.58.14-.67.28a2.72,2.72,0,0,0-.3,1.52v34.79A.85.85,0,0,1,351.09,117.7ZM341.86,116h8.37V82.05a4.3,4.3,0,0,1,.6-2.5,2.39,2.39,0,0,1,2.08-1,2.44,2.44,0,0,1,2.1.9,4.34,4.34,0,0,1,.58,2.61V95.26H364V78.78a7.86,7.86,0,0,0-1.44-5.16A5.33,5.33,0,0,0,358.3,72a6.76,6.76,0,0,0-3.69,1,8.29,8.29,0,0,0-2.77,3.16c-.38.7-1.77.38-1.77-.41V72.83h-8.21Z"/><path class="cls-1" d="M380.52,118.8c-4.49,0-7.78-1.06-9.77-3.16s-3-5.53-3-10.47V83.69c0-5,1-8.43,2.95-10.51s5.24-3.12,9.73-3.12c3.94,0,7.08.93,9.34,2.75a9.46,9.46,0,0,1,3.5,7.76V95.82a.85.85,0,0,1-.85.85H379.56v11.12a3.12,3.12,0,0,0,.27,1.63c.05.07.17.26.69.26s.64-.19.69-.26a3.1,3.1,0,0,0,.28-1.63v-8.4a.85.85,0,0,1,.85-.85h10.09a.85.85,0,0,1,.85.85v8.33a10.24,10.24,0,0,1-3.42,8.19C387.63,117.83,384.49,118.8,380.52,118.8Zm-.08-47c-4,0-6.86.87-8.49,2.59s-2.48,4.86-2.48,9.33v21.48c0,4.42.85,7.54,2.52,9.29s4.53,2.63,8.53,2.63c3.55,0,6.31-.83,8.23-2.47a8.54,8.54,0,0,0,2.82-6.9v-7.47H383.2v7.54a4.63,4.63,0,0,1-.58,2.6,2.7,2.7,0,0,1-4.2,0,4.55,4.55,0,0,1-.58-2.59v-12a.87.87,0,0,1,.86-.86h12.87V80.57a7.73,7.73,0,0,0-2.86-6.42C386.76,72.57,384,71.77,380.44,71.77Z"/><path class="cls-1" d="M382.34,90H378.7a.86.86,0,0,1-.86-.85V80.65a4.57,4.57,0,0,1,.58-2.59,2.69,2.69,0,0,1,4.2,0,4.57,4.57,0,0,1,.58,2.59v8.48A.85.85,0,0,1,382.34,90Zm-2.78-1.71h1.93V80.65a3.1,3.1,0,0,0-.28-1.63c0-.07-.17-.25-.69-.25s-.64.18-.69.25a3.16,3.16,0,0,0-.27,1.63Z"/><path class="cls-1" d="M407.36,118.8c-4.49,0-7.78-1.06-9.78-3.16s-3-5.6-3-10.47V83.69c0-5,1-8.43,3-10.51s5.25-3.12,9.74-3.12c3.93,0,7.07.93,9.34,2.75a9.49,9.49,0,0,1,3.5,7.76V95.82a.86.86,0,0,1-.86.85H406.39v11.12a3.1,3.1,0,0,0,.28,1.63c.05.07.17.26.69.26s.64-.19.68-.26a3,3,0,0,0,.28-1.63v-8.4a.86.86,0,0,1,.86-.85h10.08a.86.86,0,0,1,.86.85v8.33a10.24,10.24,0,0,1-3.42,8.19C414.47,117.83,411.32,118.8,407.36,118.8Zm-.08-47c-4,0-6.86.87-8.49,2.59s-2.48,4.86-2.48,9.33v21.48c0,4.42.84,7.54,2.51,9.29s4.53,2.63,8.54,2.63c3.54,0,6.31-.83,8.22-2.47a8.54,8.54,0,0,0,2.83-6.9v-7.47H410v7.54a4.61,4.61,0,0,1-.58,2.6,2.71,2.71,0,0,1-4.21,0,4.64,4.64,0,0,1-.57-2.59v-12a.86.86,0,0,1,.85-.86h12.88V80.57a7.71,7.71,0,0,0-2.87-6.42C413.59,72.57,410.81,71.77,407.28,71.77Z"/><path class="cls-1" d="M409.18,90h-3.65a.85.85,0,0,1-.85-.85V80.65a4.67,4.67,0,0,1,.57-2.59,2.7,2.7,0,0,1,4.21,0,4.57,4.57,0,0,1,.58,2.59v8.48A.86.86,0,0,1,409.18,90Zm-2.79-1.71h1.93V80.65A3,3,0,0,0,408,79c0-.07-.17-.25-.68-.25s-.64.18-.69.25a3.1,3.1,0,0,0-.28,1.63Z"/><path class="cls-1" d="M0,117.87a.2.2,0,0,0,.2.2l5.26,0a.2.2,0,0,0,.21-.2v-1.12a.2.2,0,0,1,.2-.21H7.55v-1.05a.2.2,0,0,1,.2-.2H9.41V114.2a.2.2,0,0,1,.2-.2h1.71v-1a.2.2,0,0,1,.2-.21h1.63v-1.09a.2.2,0,0,1,.2-.2h1.39a.21.21,0,0,0,.21-.21v-1.11a.2.2,0,0,1,.2-.2h2.36v-.64h.21l-.09-.09-.06-.13,0-.19.12-.14.29-.22.11-.09,0-.14.18-22-.07-.16-.11-.09,0-.18.23,0v-.49l-.18-.15-.15-.13L17.86,85l0-.27,0-.21,0-.09-.09-.09-.05-.18h.83l0-.44h-.13V83h-.26v-.4h.16s.17,0,.17-.2V80.16L18.23,80l-.07-.17-.05-.25h-.37v-.17a.18.18,0,0,0-.2-.17h-1l0-.16L16.39,79l-.24,0v-.44l-.25-.3-.13-.14-.2-.1,0-.1a1.51,1.51,0,0,1,0-.29V69.91a.2.2,0,0,1,.2-.2H28a.2.2,0,0,0,.21-.2v-2h-.26a.2.2,0,0,1-.2-.2V65.88H28a.2.2,0,0,0,.21-.2V39.2H28l.08-.52-.17,0,0-.81-.25,0V37.5l.17,0s.17,0,.16-.16V35.11L27.8,35l-.15-.21,0-.28-.38,0,0-.19a.16.16,0,0,0-.18-.19l-1,0-.1-.24h-.36l.06-.37-.26-.34L25.2,33,25,32.91v-.12s0-.12.19-.14l3.88-.38a1.84,1.84,0,0,1,.4,0l1.89.31L33,33l.12.47-.18.31,0,.08a.57.57,0,0,0,0,.28v1l.39.64.14.07a.94.94,0,0,0,.34.1l17.13,2.15,18.13,2.44a.17.17,0,0,0,.2-.17V.2a.2.2,0,0,0-.2-.2H.2A.2.2,0,0,0,0,.2Z"/><path class="cls-1" d="M21.69,84.26h0v.14l-.1.17,0,.29-.09.2-.21.14-.17.21v.46h.21l0,.18-.08.12-.06.06a.32.32,0,0,0-.05.17l.16,21.84.07.23.36.25.17.19,0,.14-.06.14-.14.13h.19v.51a.1.1,0,0,0,.1.1h6.07v-1h.05s.06,0,.06-.1l0-20.87H28a.1.1,0,0,1-.1-.1V86.35h.2a.1.1,0,0,0,.1-.1V84.37s0-.11-.1-.11Z"/></svg>