<svg id="Layer_1" data-name="Layer 1" xmlns="http://www.w3.org/2000/svg" viewBox="0 0 119.29 126.96"><defs><style>.cls-1{fill:#989898;}</style></defs><title>Artboard 9</title><path class="cls-1" d="M9.22,114.28V105.8h6.14v1h-5v2.6H15v1H10.35v2.89h5.21v1Z"/><path class="cls-1" d="M24,113.37a7,7,0,0,0,1.44.79l-.33.78a6.78,6.78,0,0,1-1.82-1,4.21,4.21,0,0,1-2.08.53,4,4,0,0,1-2.09-.56,3.71,3.71,0,0,1-1.45-1.56,5,5,0,0,1-.51-2.27,5.1,5.1,0,0,1,.51-2.29,3.68,3.68,0,0,1,1.45-1.57,4.27,4.27,0,0,1,2.11-.54,4.12,4.12,0,0,1,2.12.56,3.71,3.71,0,0,1,1.44,1.57,5.17,5.17,0,0,1,.49,2.26,5.35,5.35,0,0,1-.32,1.89A3.92,3.92,0,0,1,24,113.37Zm-2.47-1.43a4.09,4.09,0,0,1,1.6.81,3.5,3.5,0,0,0,1-2.72,4.25,4.25,0,0,0-.35-1.8,2.64,2.64,0,0,0-1-1.19,2.75,2.75,0,0,0-1.52-.43,2.78,2.78,0,0,0-2.08.86,3.59,3.59,0,0,0-.83,2.57,3.64,3.64,0,0,0,.82,2.54,2.74,2.74,0,0,0,2.09.89,2.9,2.9,0,0,0,1.14-.23,3.66,3.66,0,0,0-1.11-.49Z"/><path class="cls-1" d="M32.61,105.8h1.12v4.9a5.86,5.86,0,0,1-.29,2,2.45,2.45,0,0,1-1,1.22,3.69,3.69,0,0,1-2,.48,4.15,4.15,0,0,1-1.95-.41,2.4,2.4,0,0,1-1.08-1.19,5.62,5.62,0,0,1-.32-2.13v-4.9h1.12v4.89a5,5,0,0,0,.2,1.63,1.6,1.6,0,0,0,.71.81,2.43,2.43,0,0,0,1.23.28,2.31,2.31,0,0,0,1.76-.56,3.23,3.23,0,0,0,.53-2.16Z"/><path class="cls-1" d="M35.14,114.28l3.26-8.48h1.21l3.47,8.48H41.8l-1-2.57H37.27l-.94,2.57Zm2.45-3.48h2.88l-.89-2.35c-.27-.72-.47-1.3-.6-1.76a10.93,10.93,0,0,1-.46,1.62Z"/><path class="cls-1" d="M44.17,114.28V105.8H45.3v7.48h4.17v1Z"/><path class="cls-1" d="M54.89,114.28V105.8H56v3.48h4.41V105.8h1.12v8.48H60.42v-4H56v4Z"/><path class="cls-1" d="M63.54,110.15a4.61,4.61,0,0,1,1.14-3.31,3.85,3.85,0,0,1,2.93-1.2,4,4,0,0,1,2.12.57,3.68,3.68,0,0,1,1.44,1.56,5.09,5.09,0,0,1,.49,2.28,5,5,0,0,1-.52,2.31,3.56,3.56,0,0,1-1.48,1.54,4.19,4.19,0,0,1-2.06.53,4.06,4.06,0,0,1-2.14-.58A3.77,3.77,0,0,1,64,112.27,4.88,4.88,0,0,1,63.54,110.15Zm1.16,0a3.37,3.37,0,0,0,.83,2.41,2.72,2.72,0,0,0,2.07.89,2.68,2.68,0,0,0,2.08-.9A3.57,3.57,0,0,0,70.5,110a4.22,4.22,0,0,0-.35-1.8,2.62,2.62,0,0,0-1-1.2,2.75,2.75,0,0,0-1.52-.43,2.85,2.85,0,0,0-2,.82A3.69,3.69,0,0,0,64.7,110.17Z"/><path class="cls-1" d="M79.15,105.8h1.12v4.9a5.63,5.63,0,0,1-.29,2,2.45,2.45,0,0,1-1,1.22,3.67,3.67,0,0,1-2,.48,4.16,4.16,0,0,1-2-.41,2.4,2.4,0,0,1-1.08-1.19,5.82,5.82,0,0,1-.32-2.13v-4.9h1.12v4.89a4.67,4.67,0,0,0,.21,1.63,1.54,1.54,0,0,0,.7.81,2.46,2.46,0,0,0,1.23.28,2.31,2.31,0,0,0,1.76-.56,3.23,3.23,0,0,0,.53-2.16Z"/><path class="cls-1" d="M82.23,111.56l1.06-.1a2.37,2.37,0,0,0,.35,1.05,2,2,0,0,0,.86.66,3.17,3.17,0,0,0,1.3.25,3,3,0,0,0,1.13-.19,1.62,1.62,0,0,0,.74-.52,1.25,1.25,0,0,0,.24-.73,1.13,1.13,0,0,0-.23-.7,1.69,1.69,0,0,0-.77-.5,13.26,13.26,0,0,0-1.51-.41,8.22,8.22,0,0,1-1.64-.53,2.35,2.35,0,0,1-.9-.79,2,2,0,0,1-.3-1.06,2.16,2.16,0,0,1,.36-1.2,2.24,2.24,0,0,1,1.07-.85,4,4,0,0,1,1.55-.29,4.15,4.15,0,0,1,1.67.31,2.41,2.41,0,0,1,1.11.89,2.64,2.64,0,0,1,.41,1.34l-1.07.08a1.78,1.78,0,0,0-.59-1.22,2.31,2.31,0,0,0-1.48-.41,2.42,2.42,0,0,0-1.48.37,1.11,1.11,0,0,0-.47.91,1,1,0,0,0,.33.75,4.53,4.53,0,0,0,1.69.6,11.87,11.87,0,0,1,1.88.54,2.51,2.51,0,0,1,1.09.87,2.08,2.08,0,0,1,.36,1.21,2.28,2.28,0,0,1-.39,1.27,2.55,2.55,0,0,1-1.11.93,3.94,3.94,0,0,1-1.64.34,4.94,4.94,0,0,1-1.93-.34,2.64,2.64,0,0,1-1.22-1A2.87,2.87,0,0,1,82.23,111.56Z"/><path class="cls-1" d="M91,114.28V105.8h1.12v8.48Z"/><path class="cls-1" d="M94,114.28V105.8h1.15l4.46,6.66V105.8h1.08v8.48H99.57l-4.45-6.67v6.67Z"/><path class="cls-1" d="M107.06,111v-1h3.59v3.15a6.32,6.32,0,0,1-1.7,1,5.14,5.14,0,0,1-1.81.34,4.78,4.78,0,0,1-2.27-.54,3.5,3.5,0,0,1-1.54-1.55,4.82,4.82,0,0,1-.52-2.26,5.28,5.28,0,0,1,.51-2.31,3.52,3.52,0,0,1,1.49-1.6,4.78,4.78,0,0,1,2.24-.52,4.44,4.44,0,0,1,1.67.3,2.92,2.92,0,0,1,1.17.83,3.81,3.81,0,0,1,.64,1.39l-1,.28a2.85,2.85,0,0,0-.47-1,1.86,1.86,0,0,0-.81-.59,2.94,2.94,0,0,0-1.17-.23,3.36,3.36,0,0,0-1.33.24,2.43,2.43,0,0,0-.91.61,2.9,2.9,0,0,0-.53.84A4.42,4.42,0,0,0,104,110a4.15,4.15,0,0,0,.39,1.9,2.45,2.45,0,0,0,1.14,1.13,3.5,3.5,0,0,0,1.59.37,3.71,3.71,0,0,0,1.42-.28,3.26,3.26,0,0,0,1-.6V111Z"/><path class="cls-1" d="M8.51,121.73a5.6,5.6,0,0,1,1.39-4,4.67,4.67,0,0,1,3.58-1.46,5,5,0,0,1,2.58.68,4.48,4.48,0,0,1,1.76,1.92,6.08,6.08,0,0,1,.61,2.78,6.16,6.16,0,0,1-.64,2.82,4.39,4.39,0,0,1-1.8,1.89,5.24,5.24,0,0,1-2.52.64,4.92,4.92,0,0,1-2.62-.71,4.51,4.51,0,0,1-1.74-1.93A5.82,5.82,0,0,1,8.51,121.73Zm1.42,0a4.15,4.15,0,0,0,1,3,3.32,3.32,0,0,0,2.53,1.08A3.31,3.31,0,0,0,16,124.69a4.37,4.37,0,0,0,1-3.09,5.25,5.25,0,0,0-.43-2.21,3.2,3.2,0,0,0-1.25-1.46,3.35,3.35,0,0,0-1.85-.52,3.46,3.46,0,0,0-2.5,1A4.47,4.47,0,0,0,9.93,121.75Z"/><path class="cls-1" d="M20.19,126.78V116.41h3.92a9,9,0,0,1,1.57.1A3.29,3.29,0,0,1,27,117a2.55,2.55,0,0,1,.84,1,3.27,3.27,0,0,1,.31,1.41,3.2,3.2,0,0,1-.84,2.24,4,4,0,0,1-3,.91H21.57v4.22Zm1.38-5.44h2.68a2.88,2.88,0,0,0,1.89-.49,1.78,1.78,0,0,0,.55-1.4,1.93,1.93,0,0,0-.32-1.11,1.54,1.54,0,0,0-.87-.61,5.38,5.38,0,0,0-1.28-.09H21.57Z"/><path class="cls-1" d="M29.86,126.78V116.41h3.91a8.88,8.88,0,0,1,1.57.1,3.29,3.29,0,0,1,1.28.48,2.55,2.55,0,0,1,.84,1,3.14,3.14,0,0,1,.31,1.41,3.2,3.2,0,0,1-.84,2.24,4,4,0,0,1-3,.91H31.23v4.22Zm1.37-5.44h2.68a2.86,2.86,0,0,0,1.89-.49,1.79,1.79,0,0,0,.56-1.4,1.87,1.87,0,0,0-.33-1.11,1.54,1.54,0,0,0-.87-.61,5.38,5.38,0,0,0-1.28-.09H31.23Z"/><path class="cls-1" d="M39.1,121.73a5.6,5.6,0,0,1,1.39-4,4.67,4.67,0,0,1,3.58-1.46,5,5,0,0,1,2.58.68,4.48,4.48,0,0,1,1.76,1.92,6.59,6.59,0,0,1,0,5.6,4.39,4.39,0,0,1-1.8,1.89,5.24,5.24,0,0,1-2.52.64,4.92,4.92,0,0,1-2.62-.71,4.6,4.6,0,0,1-1.75-1.93A6,6,0,0,1,39.1,121.73Zm1.41,0a4.16,4.16,0,0,0,1,3,3.52,3.52,0,0,0,5.08,0,4.37,4.37,0,0,0,1-3.09,5.25,5.25,0,0,0-.43-2.21,3.2,3.2,0,0,0-1.25-1.46,3.38,3.38,0,0,0-1.85-.52,3.48,3.48,0,0,0-2.5,1A4.43,4.43,0,0,0,40.51,121.75Z"/><path class="cls-1" d="M50.8,126.78V116.41h4.6a6.26,6.26,0,0,1,2.11.28,2.3,2.3,0,0,1,1.15,1,2.91,2.91,0,0,1,.43,1.56,2.57,2.57,0,0,1-.71,1.86,3.55,3.55,0,0,1-2.21,1,3.63,3.63,0,0,1,.83.52A7.35,7.35,0,0,1,58.14,124l1.8,2.82H58.22l-1.37-2.16c-.41-.62-.73-1.1-1-1.43a3.17,3.17,0,0,0-.7-.69,2,2,0,0,0-.63-.27,3.52,3.52,0,0,0-.76,0H52.18v4.6ZM52.18,121h3a4.44,4.44,0,0,0,1.47-.2,1.59,1.59,0,0,0,.81-.62,1.68,1.68,0,0,0,.27-.93,1.57,1.57,0,0,0-.53-1.21,2.55,2.55,0,0,0-1.69-.47H52.18Z"/><path class="cls-1" d="M63.62,126.78v-9.14H60.21v-1.23h8.21v1.23H65v9.14Z"/><path class="cls-1" d="M76.64,116.41H78v6a7,7,0,0,1-.36,2.48,3,3,0,0,1-1.27,1.5A4.6,4.6,0,0,1,74,127a4.91,4.91,0,0,1-2.38-.51A2.79,2.79,0,0,1,70.25,125a6.78,6.78,0,0,1-.4-2.6v-6h1.37v6a5.76,5.76,0,0,0,.26,2,1.87,1.87,0,0,0,.86,1,3,3,0,0,0,1.49.35A2.86,2.86,0,0,0,76,125a3.92,3.92,0,0,0,.65-2.64Z"/><path class="cls-1" d="M80.28,126.78V116.41h1.41l5.44,8.14v-8.14h1.32v10.37H87l-5.45-8.15v8.15Z"/><path class="cls-1" d="M91,126.78V116.41h1.37v10.37Z"/><path class="cls-1" d="M97.41,126.78v-9.14H94v-1.23h8.22v1.23H98.79v9.14Z"/><path class="cls-1" d="M106.55,126.78v-4.39l-4-6h1.67l2,3.13c.38.58.73,1.17,1.06,1.75.31-.54.68-1.15,1.13-1.83l2-3h1.59l-4.13,6v4.39Z"/><path class="cls-1" d="M0,39.52,58.7,0h1.89l58.7,39.52v16.1h-7.93V103H7.34V55.38H0ZM20.35,86.74h78V46.63L59.53,20.71,20.35,46.63Z"/><rect class="cls-1" x="38.84" y="42.93" width="41.21" height="16.68"/><rect class="cls-1" x="38.84" y="62.48" width="41.21" height="16.68"/></svg>