<?xml version="1.0" encoding="utf-8"?>
<!-- Generator: Adobe Illustrator 22.1.0, SVG Export Plug-In . SVG Version: 6.00 Build 0)  -->
<svg version="1.1" id="Layer_1" xmlns="http://www.w3.org/2000/svg" xmlns:xlink="http://www.w3.org/1999/xlink" x="0px" y="0px"
	 viewBox="0 0 441.4 310" style="enable-background:new 0 0 441.4 310;" xml:space="preserve">
<style type="text/css">
	.st0{fill:#231F20;}
</style>
<title>Artboard 41</title>
<g>
	<g>
		<path class="st0" d="M6.6,142.8h17.3c8.8,0,12.2,4.6,12.2,10.2c0,3-1.9,6.2-4.2,7.7c4,1.7,6.3,5.6,6.3,9.7
			c0,6.3-3.8,11.4-13.6,11.4h-18V142.8z M21.4,158c3.1,0,4.7-1.5,4.7-4.2c0-2.8-1.6-4.3-4.7-4.3c-0.3,0-4.2,0-4.2,0v8.5H21.4z
			 M21.9,175c4.1,0,6.1-1.8,6.1-5.2s-2-5.2-6.1-5.2h-4.7V175C17.1,175,21.5,175,21.9,175z"/>
		<path class="st0" d="M67.2,162.2c0-12,9.7-20.6,21.6-20.6s21.5,8.6,21.5,20.6s-9.6,20.6-21.5,20.6S67.2,174.2,67.2,162.2z
			 M99.1,162.2c0-7.5-3.8-12.3-10.3-12.3c-6.6,0-10.5,4.9-10.5,12.3c0,7.5,3.9,12.3,10.5,12.3C95.3,174.6,99.1,169.7,99.1,162.2z"/>
		<path class="st0" d="M141.6,142.8h8l17.7,22.4v-22.4h9.3v39h-8l-17.7-22.4v22.4h-9.3V142.8z"/>
		<path class="st0" d="M213.7,142.8h27.1v7.9h-16.6v6.6h13.3v7.9h-13.3v8.7h16.6v7.9h-27.1V142.8z"/>
		<path class="st0" d="M270.3,142.8h10.9l9.9,25l9.9-25h10.6l-16.4,39h-8.5L270.3,142.8z"/>
		<path class="st0" d="M349.3,142.8h8.9l16.4,39h-10.5l-3.3-8.3h-14.4l-3.2,8.3H333L349.3,142.8z M358.2,166.6l-4.7-12.3l-4.7,12.3
			H358.2z"/>
		<path class="st0" d="M405.3,142.8h10.5v31.1h16.6v7.9h-27.1V142.8z"/>
	</g>
</g>
<g>
	<g>
		<polygon class="st0" points="221.6,0 124.7,52.4 124.7,79.7 221.6,27.3 		"/>
	</g>
	<g>
		<polygon class="st0" points="221.4,310 318.3,257.6 318.3,230.3 221.4,282.7 		"/>
	</g>
</g>
<polygon class="st0" points="221.4,124.3 221.4,134.6 236.4,126.5 236.4,116.1 "/>
</svg>
