<?xml version="1.0" encoding="utf-8"?>
<!-- Generator: Adobe Illustrator 22.1.0, SVG Export Plug-In . SVG Version: 6.00 Build 0)  -->
<svg version="1.1" id="Layer_1" xmlns="http://www.w3.org/2000/svg" xmlns:xlink="http://www.w3.org/1999/xlink" x="0px" y="0px"
	 viewBox="0 0 441.4 310" style="enable-background:new 0 0 441.4 310;" xml:space="preserve">
<style type="text/css">
	.st0{fill:#333333;}
</style>
<title>Artboard 41</title>
<path class="st0" d="M25.6,159.2c2.5-1.8,4.1-4.6,4.2-7.6c0-5.6-3.4-10.2-12.2-10.2l-17.3,0l0,39l17.9,0c9.8,0,13.6-5.1,13.6-11.4
	C32,164.7,29.5,160.8,25.6,159.2z M15.1,148c3.1,0.1,4.7,1.6,4.7,4.3c0,2.7-1.6,4.3-4.7,4.2l-4.2,0l0-8.5L15.1,148z M15.6,173.6
	l-4.8,0l0-10.4l4.7,0c4.1,0,6.1,1.8,6.1,5.2C21.7,171.9,19.7,173.6,15.6,173.6z"/>
<path class="st0" d="M63.3,160.8c0-12,9.7-20.6,21.6-20.6c12,0,21.5,8.6,21.5,20.6c0,12-9.6,20.6-21.5,20.6S63.3,172.8,63.3,160.8z
	 M95.3,160.8c0-7.5-3.8-12.3-10.3-12.3s-10.5,4.8-10.5,12.3c0,7.5,3.9,12.3,10.5,12.3C91.6,173.2,95.3,168.3,95.3,160.8L95.3,160.8z
	"/>
<path class="st0" d="M140.2,141.3l8,0l17.7,22.4l0-22.4l9.3,0l0,39l-8,0l-17.7-22.4l0,22.4l-9.3,0L140.2,141.3z"/>
<path class="st0" d="M213.2,141.3l27.1,0l0,7.9l-16.6,0l0,6.6l13.3,0l0,7.9l-13.3,0l0,8.7l16.6,0l0,7.9l-27.1,0L213.2,141.3z"/>
<path class="st0" d="M271.2,141.3l10.9,0l9.9,25l9.9-25l10.6,0l-16.4,39l-8.5,0L271.2,141.3z"/>
<path class="st0" d="M356.8,141.3l8.9,0l16.4,39l-10.5,0l-3.3-8.3l-14.4,0l-3.2,8.3l-10.2,0L356.8,141.3z M365.8,165.2l-4.7-12.3
	l-4.7,12.3L365.8,165.2z"/>
<path class="st0" d="M414,141.3l10.5,0l0,31.1l16.6,0l0,7.9l-27.1,0L414,141.3z"/>
<polygon class="st0" points="221.8,0 124.9,52.4 124.9,79.7 221.8,27.3 "/>
<polygon class="st0" points="220.6,310 317.5,257.6 317.5,230.3 220.6,282.7 "/>
<polygon class="st0" points="221.7,129.7 234.6,123 234.8,115.2 221.9,121.8 "/>
</svg>
