<svg id="Layer_1" data-name="Layer 1" xmlns="http://www.w3.org/2000/svg" viewBox="0 0 441.41 310"><defs><style>.cls-1{fill:#333;}</style></defs><title>Artboard 41</title><path class="cls-1" d="M0,141.6l17.28-.31c8.84-.15,12.3,4.4,12.4,10A9.91,9.91,0,0,1,25.59,159a10.47,10.47,0,0,1,6.47,9.57c.11,6.31-3.63,11.51-13.44,11.68l-17.94.31Zm15,14.94c3.12,0,4.71-1.57,4.67-4.3S18,148,14.87,148l-4.23.08.15,8.51Zm.82,17.08c4.09-.07,6.07-1.86,6-5.3s-2.1-5.17-6.2-5.09l-4.74.08.18,10.4Z"/><path class="cls-1" d="M63.34,161.21c-.21-12,9.32-20.76,21.27-21s21.66,8.27,21.87,20.22-9.25,20.77-21.14,21S63.55,173.17,63.34,161.21Zm32-.56c-.13-7.47-4-12.28-10.54-12.16s-10.38,5-10.25,12.53,4.12,12.27,10.68,12.16S95.44,168.12,95.3,160.65Z"/><path class="cls-1" d="M139.89,141.65l8-.14L166,163.61l-.39-22.41,9.29-.17.69,39-8,.14-18.06-22.11.39,22.42-9.29.16Z"/><path class="cls-1" d="M213.09,141.57l27.1-.48.13,7.93-16.56.29.11,6.56,13.32-.23.14,7.86-13.32.24.15,8.7,16.57-.29.14,7.93-27.1.47Z"/><path class="cls-1" d="M270.82,141.7l10.85-.19,10.38,24.78,9.44-25.13,10.59-.18-15.69,39.27-8.51.15Z"/><path class="cls-1" d="M356.49,141.42l8.9-.16L382.45,180l-10.46.18-3.46-8.25-14.43.25-3.1,8.37-10.2.18Zm9.39,23.69-4.9-12.2-4.46,12.36Z"/><path class="cls-1" d="M413.64,141.55l10.52-.19.55,31.06,16.57-.29.13,7.93-27.09.47Z"/><polygon class="cls-1" points="220.77 0 123.87 52.41 123.87 79.74 220.77 27.33 220.77 0"/><polygon class="cls-1" points="220.65 310 317.55 257.59 317.55 230.26 220.65 282.67 220.65 310"/><polygon class="cls-1" points="221.43 129.75 234.18 122.85 234.18 115.02 221.43 121.92 221.43 129.75"/></svg>