<?xml version="1.0" encoding="utf-8"?>
<!-- Generator: Adobe Illustrator 22.1.0, SVG Export Plug-In . SVG Version: 6.00 Build 0)  -->
<svg version="1.1" id="Layer_1" xmlns="http://www.w3.org/2000/svg" xmlns:xlink="http://www.w3.org/1999/xlink" x="0px" y="0px"
	 viewBox="0 0 388 98" style="enable-background:new 0 0 388 98;" xml:space="preserve">
<style type="text/css">
	.st0{fill:#231F20;}
	.st1{fill:#6D6E70;}
</style>
<title>Artboard 7</title>
<g>
	<path id="XMLID_22_" class="st0" d="M105,31l-4.7,29.7c-0.7,4.2-2.2,10.4,3.8,10.4c5.9,0,6.2-5.7,6.8-10l4.8-30.2h8.8l-5.1,32.1
		c-1.5,9.8-5.5,16.2-16.3,16.2c-12.9,0-13.5-7.2-11.8-18.1L96.2,31H105z"/>
	<path id="XMLID_21_" class="st0" d="M140.7,36.8h0.2c2.7-4.1,6.2-6.6,11.1-6.6l-1.4,8.8l-1.5-0.1c-6.6,0-9.2,3.7-10.2,9.7
		l-4.7,29.9h-8.9l7.5-47.5h8.8L140.7,36.8z"/>
	<path id="XMLID_18_" class="st0" d="M174.2,54.7c0.6-3.9,3.4-16.6-3.2-16.6c-5.9,0-7.6,12.8-8.2,16.6c-0.6,3.8-3,16.6,2.9,16.7
		C172.3,71.2,173.6,58.5,174.2,54.7 M162.8,0.4h8.8L166,36.2h0.2c2.4-3.7,4.9-6,9.4-6c11.2,0,8.9,16,7.7,23.9
		c-1.2,7.7-4.2,25.1-15.2,25.1c-5.1,0-6.5-2.7-7.7-6.9h-0.2l-1,6.1h-8.8L162.8,0.4z"/>
	<path id="XMLID_15_" class="st0" d="M209.1,54.7c0.6-3.8,3-16.6-2.9-16.6c-6.6,0-7.8,12.7-8.5,16.6c-0.6,4-3.4,16.7,3.2,16.7
		C206.8,71.3,208.5,58.4,209.1,54.7 M206,72.4h-0.2c-2.4,4.1-4.8,6.9-9.8,6.9c-11,0-8.4-17.4-7.2-25.1c1.3-7.9,4.1-23.9,15.3-23.9
		c4.1,0,6.5,2.5,7.5,6h0.2l0.8-5.3h8.8l-7.5,47.5H205L206,72.4z"/>
	<path id="XMLID_14_" class="st0" d="M237.6,36.4h0.2c2.6-3.9,5.9-6.2,10.6-6.2c9.4,0,8.4,8.4,7.2,15.6l-5.2,32.7h-8.8l5.2-32.8
		c0.5-3.3,0.6-7.5-4.1-7.5c-5.8,0-6.4,6.7-7.1,10.7l-4.7,29.6h-8.8l7.5-47.5h8.8L237.6,36.4z"/>
	<path id="XMLID_11_" class="st1" d="M282.2,54.8c0.6-3.9,3.4-16.7-3.2-16.7c-5.9,0-7.6,12.8-8.2,16.7c-0.6,3.8-3,16.6,2.9,16.6
		C279.3,71.3,281,62.7,282.2,54.8 M273.9,37.1h0.2c2.3-4,4.9-6.9,9.8-6.9c11,0,8.5,17.3,7.2,25c-1.3,8-4.1,24-15.3,24
		c-4.6,0-6.3-2.3-7.5-6.1h-0.2L264.3,98h-8.8L266,31h8.8L273.9,37.1z"/>
	<path id="XMLID_8_" class="st1" d="M317.1,54.7c0.6-3.8,3-16.6-2.9-16.6c-6.6,0-7.8,12.7-8.5,16.6c-0.6,4-3.4,16.7,3.2,16.7
		C314.9,71.3,316.5,58.4,317.1,54.7 M314,72.4h-0.2c-2.4,4.1-4.8,6.9-9.8,6.9c-11,0-8.4-17.4-7.2-25.1c1.3-7.9,4.1-23.9,15.3-23.9
		c4.1,0,6.5,2.5,7.5,6h0.2l0.8-5.3h8.8l-7.5,47.5h-8.8L314,72.4z"/>
	<path id="XMLID_7_" class="st1" d="M355.9,40.7h-0.2c-0.7-1.4-1.8-2.2-3.8-2.3c-7.6,0.1-9.5,10.7-10.3,15.8
		c-0.8,4.8-2.5,16.7,5,16.7c2,0,3.2-0.8,4.8-1.8l-1.3,8.2c-2.5,1.3-4.8,1.9-7.4,1.9c-12.5,0-11.7-14.7-10.2-24.1
		c1.6-9.8,5.1-24.9,18.1-24.9c2.6,0,4.6,0.5,6.8,1.6L355.9,40.7z"/>
	<path id="XMLID_4_" class="st1" d="M378.9,50.2c0.6-3.7,1.9-12-3.5-12c-5.6,0-6.5,8.4-7.1,12H378.9z M367.4,56.5
		c-0.6,4-2.5,14.9,3.2,14.9c4.7,0,6.4-5.2,7-8.8h8.2c-1.4,8.8-6.5,16.8-16.5,16.8c-13.3,0-12.3-14.1-10.7-24.2
		c1.5-9.7,5.1-24.8,18.1-24.8c12.9,0,12,15.1,10.5,24.8l-0.2,1.4H367.4z"/>
	<path id="XMLID_3_" class="st0" d="M39.8,0C17.8,0,0,17.8,0,39.8C0,51.5,5.1,62,13.1,69.3l1-6.1h0l1.7-10.7c0.3-2,0.8-2.1,4.6-2.1
		c2.9,0,3.7,0,3.5,1.7l0,0.1l-3.5,22.3c2.5,1.4,5.2,2.6,8,3.4l2.3-14.7h0l4.6-28.9c0.3-2,0.8-2.1,4.6-2.1c2.9,0,3.7,0,3.5,1.7
		l-2.9,18.3l-4.3,27.2c1.2,0.1,2.3,0.2,3.5,0.2c1.6,0,3.2-0.1,4.7-0.3L50,45h0l4.6-28.9c0.3-2,0.8-2.1,4.6-2.1c2.9,0,3.7,0,3.5,1.7
		L59.9,34l-6.9,43.3C68.5,72,79.6,57.2,79.6,39.8C79.6,17.8,61.8,0,39.8,0"/>
</g>
</svg>
