<svg id="Layer_1" data-name="Layer 1" xmlns="http://www.w3.org/2000/svg" viewBox="0 0 388.05 126.96"><defs><style>.cls-1{fill:#989898;}</style></defs><title>Artboard 7</title><g id="_Group_" data-name="&lt;Group&gt;"><path id="_Compound_Path_" data-name="&lt;Compound Path&gt;" class="cls-1" d="M114.14,117l-1.51,4.9h-1.95l4.95-15.58h2.27l5,15.58h-2l-1.56-4.9Zm4.78-1.57-1.45-4.48c-.3-1-.52-2-.73-2.85h-.07c-.19.9-.43,1.88-.71,2.82l-1.43,4.51Z"/><polygon id="_Path_" data-name="&lt;Path&gt;" class="cls-1" points="130.66 106.29 132.56 106.29 132.56 120.19 138.79 120.19 138.79 121.87 130.66 121.87 130.66 106.29"/><path id="_Compound_Path_2" data-name="&lt;Compound Path&gt;" class="cls-1" d="M145.32,122.13c-2.82,0-5-2.22-5-5.76,0-3.74,2.31-5.94,5.19-5.94s5,2.34,5,5.73c0,4.16-2.71,6-5.19,6Zm.08-1.53c1.82,0,3.18-1.83,3.18-4.37,0-1.89-.89-4.27-3.13-4.27s-3.2,2.21-3.2,4.34c0,2.45,1.29,4.3,3.13,4.3Z"/><path id="_Path_2" data-name="&lt;Path&gt;" class="cls-1" d="M153.46,113.71c0-1.17,0-2.1-.08-3h1.68l.11,1.83h.05a3.82,3.82,0,0,1,3.46-2.08c1.44,0,3.69.93,3.69,4.76v6.68h-1.9v-6.45c0-1.8-.63-3.32-2.42-3.32a2.77,2.77,0,0,0-2.55,2.07,3.16,3.16,0,0,0-.13,1v6.75h-1.91Z"/><path id="_Compound_Path_3" data-name="&lt;Compound Path&gt;" class="cls-1" d="M175,120.23c0,2.59-.49,4.14-1.49,5.13a5.46,5.46,0,0,1-3.82,1.35,6.4,6.4,0,0,1-3.48-.93l.47-1.57a5.46,5.46,0,0,0,3.07.9c2,0,3.37-1.09,3.37-3.93V120h0a3.66,3.66,0,0,1-3.33,1.88c-2.59,0-4.45-2.36-4.45-5.48,0-3.79,2.31-5.92,4.73-5.92a3.45,3.45,0,0,1,3.27,1.94h0l.06-1.69H175c-.06.79-.09,1.72-.09,3Zm-1.9-5.15a2.85,2.85,0,0,0-.11-.9,2.74,2.74,0,0,0-2.65-2.18c-1.82,0-3.12,1.64-3.12,4.26,0,2.17,1.06,4,3.09,4a2.77,2.77,0,0,0,2.64-2.1,3.55,3.55,0,0,0,.15-1.09Z"/><path id="_Compound_Path_4" data-name="&lt;Compound Path&gt;" class="cls-1" d="M192.94,121.87c-.41-.44-.8-.88-1.36-1.5a5.78,5.78,0,0,1-4.26,1.76,4.26,4.26,0,0,1-4.48-4.37,5.11,5.11,0,0,1,2.86-4.55v-.07a5.72,5.72,0,0,1-1.23-3.26,3.68,3.68,0,0,1,3.72-3.84,3.12,3.12,0,0,1,3.22,3.31c0,1.64-.89,2.93-3.2,4.16v.07c1.23,1.52,2.61,3.23,3.54,4.34a11.91,11.91,0,0,0,1.41-4.55h1.73a12.3,12.3,0,0,1-2.1,5.75c.78.88,1.53,1.76,2.4,2.75Zm-5.27-1.27a3.91,3.91,0,0,0,3-1.41c-.87-1-2.49-2.91-4.09-4.9a3.81,3.81,0,0,0-1.88,3.17,3,3,0,0,0,3,3.14Zm.36-13.17c-1.19,0-1.81,1.06-1.81,2.26a4.69,4.69,0,0,0,1.1,2.8c1.49-.9,2.42-1.73,2.42-3a1.8,1.8,0,0,0-1.69-2Z"/><polygon id="_Path_3" data-name="&lt;Path&gt;" class="cls-1" points="202.54 106.29 210.39 106.29 210.39 107.98 204.44 107.98 204.44 113.16 209.93 113.16 209.93 114.83 204.44 114.83 204.44 121.87 202.54 121.87 202.54 106.29"/><path id="_Compound_Path_5" data-name="&lt;Compound Path&gt;" class="cls-1" d="M217.15,122.13c-2.81,0-5-2.22-5-5.76,0-3.74,2.31-5.94,5.19-5.94s5,2.34,5,5.73c0,4.16-2.7,6-5.19,6Zm.09-1.53c1.82,0,3.18-1.83,3.18-4.37,0-1.89-.89-4.27-3.14-4.27s-3.2,2.21-3.2,4.34c0,2.45,1.3,4.3,3.14,4.3Z"/><path id="_Path_4" data-name="&lt;Path&gt;" class="cls-1" d="M225,119.79a5.15,5.15,0,0,0,2.53.79c1.37,0,2-.72,2-1.67s-.54-1.47-1.92-2c-1.9-.74-2.79-1.85-2.79-3.17a3.32,3.32,0,0,1,3.61-3.28,4.63,4.63,0,0,1,2.55.69l-.45,1.46a4.13,4.13,0,0,0-2.14-.65,1.55,1.55,0,0,0-1.73,1.53c0,.92.6,1.34,2,1.92,1.79.71,2.74,1.69,2.74,3.35,0,2-1.45,3.37-3.89,3.37a5.66,5.66,0,0,1-2.94-.78Z"/><path id="_Path_5" data-name="&lt;Path&gt;" class="cls-1" d="M236.7,108v2.67h2.72v1.55H236.7v6c0,1.39.37,2.18,1.42,2.18a3.44,3.44,0,0,0,1.11-.14l.08,1.55a5.08,5.08,0,0,1-1.68.27,2.64,2.64,0,0,1-2.06-.85,4.59,4.59,0,0,1-.73-2.94v-6.08h-1.62v-1.55h1.62v-2.05Z"/><path id="_Compound_Path_6" data-name="&lt;Compound Path&gt;" class="cls-1" d="M243.05,116.65c0,2.73,1.67,3.86,3.57,3.86a6.35,6.35,0,0,0,2.9-.58l.34,1.46a8.09,8.09,0,0,1-3.5.71c-3.2,0-5.14-2.29-5.14-5.64s1.88-6,4.93-6c3.41,0,4.3,3.21,4.3,5.27a4.65,4.65,0,0,1-.07,1Zm5.56-1.46c0-1.29-.5-3.3-2.61-3.3-1.95,0-2.77,1.89-2.92,3.3Z"/><path id="_Path_6" data-name="&lt;Path&gt;" class="cls-1" d="M253.34,114.17c0-1.31,0-2.44-.08-3.49h1.66l.09,2.2h.06a3.22,3.22,0,0,1,2.92-2.45,2.78,2.78,0,0,1,.52,0v1.92a4,4,0,0,0-.65-.05,2.75,2.75,0,0,0-2.55,2.59,7.19,7.19,0,0,0-.06.94v6h-1.91Z"/><path id="_Compound_Path_7" data-name="&lt;Compound Path&gt;" class="cls-1" d="M263.94,106.09a3.8,3.8,0,0,1,0,7.6,3.8,3.8,0,0,1,0-7.6Zm-.05.76a3,3,0,0,0,.05,6.05,2.82,2.82,0,0,0,2.7-3,2.86,2.86,0,0,0-2.72-3.05Zm-.54,5h-.82v-3.79a10.16,10.16,0,0,1,1.36-.11,1.73,1.73,0,0,1,1.21.3,1,1,0,0,1,.37.8.94.94,0,0,1-.73.9v0c.34.12.52.42.63.93a3.1,3.1,0,0,0,.26.92h-.87a3.14,3.14,0,0,1-.28-.92c-.06-.4-.28-.58-.74-.58h-.39Zm0-2.12h.39c.45,0,.82-.17.82-.56s-.24-.58-.76-.58a1.49,1.49,0,0,0-.45,0Z"/><path id="_Path_7" data-name="&lt;Path&gt;" class="cls-1" d="M285.9,121.37a8.85,8.85,0,0,1-3.84.74c-4.11,0-7.18-2.78-7.18-7.89,0-4.87,3.09-8.16,7.61-8.16a8,8,0,0,1,3.46.67l-.48,1.67a6.31,6.31,0,0,0-2.92-.65c-3.41,0-5.68,2.33-5.68,6.4,0,3.82,2.05,6.24,5.57,6.24a7.23,7.23,0,0,0,3.1-.64Z"/><path id="_Compound_Path_8" data-name="&lt;Compound Path&gt;" class="cls-1" d="M292.77,122.13c-2.81,0-5-2.22-5-5.76,0-3.74,2.31-5.94,5.19-5.94s5,2.34,5,5.73c0,4.16-2.71,6-5.19,6Zm.09-1.53c1.82,0,3.18-1.83,3.18-4.37,0-1.89-.89-4.27-3.13-4.27s-3.2,2.21-3.2,4.34c0,2.45,1.29,4.3,3.13,4.3Z"/><path id="_Path_8" data-name="&lt;Path&gt;" class="cls-1" d="M300.93,113.71c0-1.17-.05-2.1-.09-3h1.66l.09,1.81h.07a3.59,3.59,0,0,1,3.3-2.06,3.13,3.13,0,0,1,3,2.24h0a4.18,4.18,0,0,1,1.19-1.45,3.33,3.33,0,0,1,2.29-.79c1.4,0,3.46,1,3.46,4.85v6.59H314v-6.33c0-2.17-.76-3.44-2.27-3.44a2.52,2.52,0,0,0-2.27,1.82,3.69,3.69,0,0,0-.15,1v6.93h-1.86v-6.72c0-1.78-.74-3.05-2.19-3.05a2.66,2.66,0,0,0-2.35,2,2.93,2.93,0,0,0-.15,1v6.75h-1.86Z"/><path id="_Compound_Path_9" data-name="&lt;Compound Path&gt;" class="cls-1" d="M319.5,114.34c0-1.44,0-2.59-.09-3.66h1.71l.11,1.92h0a4,4,0,0,1,3.7-2.17c2.55,0,4.45,2.29,4.45,5.69,0,4-2.31,6-4.76,6a3.59,3.59,0,0,1-3.22-1.76h0v6.08h-1.9Zm1.9,3a3.2,3.2,0,0,0,.09.83,3,3,0,0,0,2.83,2.38c2,0,3.18-1.75,3.18-4.32,0-2.24-1.08-4.16-3.09-4.16a3.09,3.09,0,0,0-2.9,2.52,4.5,4.5,0,0,0-.11.81Z"/><path id="_Compound_Path_10" data-name="&lt;Compound Path&gt;" class="cls-1" d="M339.71,119.19a19.72,19.72,0,0,0,.15,2.68h-1.71l-.17-1.41h-.06a3.8,3.8,0,0,1-3.2,1.67,3.1,3.1,0,0,1-3.21-3.22c0-2.7,2.26-4.18,6.3-4.16v-.23c0-.92-.24-2.61-2.38-2.59a4.84,4.84,0,0,0-2.75.84l-.43-1.37a6.5,6.5,0,0,1,3.46-1c3.22,0,4,2.34,4,4.58Zm-1.86-3c-2.07,0-4.43.34-4.43,2.51a1.73,1.73,0,0,0,1.77,1.95,2.66,2.66,0,0,0,2.57-1.88,2,2,0,0,0,.09-.65Z"/><path id="_Path_9" data-name="&lt;Path&gt;" class="cls-1" d="M343.3,113.71c0-1.17,0-2.1-.09-3h1.69l.11,1.83h0a3.84,3.84,0,0,1,3.46-2.08c1.45,0,3.7.93,3.7,4.76v6.68H350.3v-6.45c0-1.8-.62-3.32-2.42-3.32a2.78,2.78,0,0,0-2.55,2.07,3.52,3.52,0,0,0-.13,1v6.75h-1.9Z"/><path id="_Path_10" data-name="&lt;Path&gt;" class="cls-1" d="M356.25,110.68l2.27,6.62c.26.73.52,1.61.69,2.28h0c.2-.67.41-1.52.67-2.33l2.08-6.57h2l-2.85,8c-1.37,3.84-2.3,5.78-3.59,7a5.25,5.25,0,0,1-2.34,1.3l-.48-1.69a4.83,4.83,0,0,0,1.67-1A6.36,6.36,0,0,0,358,122a.94.94,0,0,0,0-1l-3.85-10.31Z"/></g><path id="_Path_11" data-name="&lt;Path&gt;" class="cls-1" d="M105,31,100.3,60.7c-.67,4.23-2.22,10.45,3.8,10.45s6.18-5.74,6.85-10L115.74,31h8.85L119.5,63.05C118,72.84,114,79.24,103.2,79.24c-12.9,0-13.54-7.25-11.82-18.07L96.17,31Z"/><path id="_Path_12" data-name="&lt;Path&gt;" class="cls-1" d="M140.69,36.79h.19c2.73-4.14,6.22-6.58,11.12-6.58L150.61,39l-1.49-.09c-6.59,0-9.24,3.67-10.19,9.69l-4.75,29.93h-8.94L132.77,31h8.85Z"/><path id="_Compound_Path_11" data-name="&lt;Compound Path&gt;" class="cls-1" d="M174.19,54.68c.61-3.86,3.37-16.57-3.21-16.57-5.93,0-7.58,12.8-8.18,16.57s-3,16.56,2.91,16.65c6.61-.09,7.87-12.8,8.48-16.65M162.84.37h8.85L166,36.23h.19c2.37-3.67,4.91-6,9.43-6,11.2,0,8.94,16,7.69,23.9-1.22,7.72-4.17,25.13-15.18,25.13-5.08,0-6.53-2.73-7.66-6.87h-.19l-1,6.12h-8.85Z"/><path id="_Compound_Path_12" data-name="&lt;Compound Path&gt;" class="cls-1" d="M209.1,54.68c.6-3.77,3-16.57-2.93-16.57-6.59,0-7.85,12.71-8.46,16.57s-3.39,16.65,3.2,16.65c5.93,0,7.59-12.89,8.19-16.65M206,72.37h-.18c-2.45,4.14-4.76,6.87-9.84,6.87-11,0-8.44-17.41-7.22-25.13,1.25-7.9,4.07-23.9,15.27-23.9,4.14,0,6.46,2.54,7.51,6h.19l.83-5.27h8.85l-7.53,47.53h-8.84Z"/><path id="_Path_13" data-name="&lt;Path&gt;" class="cls-1" d="M237.59,36.42h.19c2.58-3.86,5.87-6.21,10.58-6.21,9.41,0,8.37,8.37,7.22,15.62L250.4,78.49h-8.84l5.2-32.85c.52-3.29.63-7.53-4.08-7.53-5.83,0-6.42,6.68-7.06,10.73l-4.7,29.65h-8.84L229.61,31h8.84Z"/><path id="_Compound_Path_13" data-name="&lt;Compound Path&gt;" class="cls-1" d="M282.21,54.77c.61-3.86,3.39-16.66-3.2-16.66-5.92,0-7.58,12.8-8.19,16.66s-3,16.56,2.93,16.56c5.55,0,7.21-8.65,8.46-16.56m-8.3-17.69h.18c2.34-4,5-6.87,9.85-6.87,11,0,8.45,17.31,7.23,25-1.27,8-4.08,24-15.28,24-4.62,0-6.33-2.26-7.51-6.12h-.18L264.26,98h-8.85L266,31h8.85Z"/><path id="_Compound_Path_14" data-name="&lt;Compound Path&gt;" class="cls-1" d="M317.14,54.68c.59-3.77,3-16.57-2.93-16.57-6.59,0-7.85,12.71-8.46,16.57s-3.39,16.65,3.2,16.65c5.92,0,7.59-12.89,8.19-16.65m-3.09,17.69h-.19c-2.44,4.14-4.76,6.87-9.84,6.87-11,0-8.44-17.41-7.22-25.13,1.26-7.9,4.07-23.9,15.27-23.9,4.14,0,6.47,2.54,7.52,6h.19l.83-5.27h8.85l-7.53,47.53h-8.85Z"/><path id="_Path_14" data-name="&lt;Path&gt;" class="cls-1" d="M355.86,40.75h-.19a4,4,0,0,0-3.79-2.26c-7.63.09-9.51,10.73-10.31,15.81-.76,4.8-2.45,16.66,5,16.66a8,8,0,0,0,4.8-1.79l-1.29,8.19a15.27,15.27,0,0,1-7.45,1.88c-12.52,0-11.7-14.68-10.21-24.09,1.55-9.79,5.08-24.94,18.07-24.94a13.72,13.72,0,0,1,6.8,1.6Z"/><path id="_Compound_Path_15" data-name="&lt;Compound Path&gt;" class="cls-1" d="M378.93,50.16c.58-3.67,1.91-12-3.46-12-5.55,0-6.5,8.38-7.08,12Zm-11.54,6.3c-.63,4-2.55,14.87,3.2,14.87,4.7,0,6.37-5.17,7-8.84h8.19c-1.39,8.75-6.52,16.75-16.49,16.75C356,79.24,357,65.12,358.58,55.05c1.53-9.69,5.06-24.84,18.14-24.84,12.9,0,12,15,10.47,24.84L387,56.46Z"/><path id="_Path_15" data-name="&lt;Path&gt;" class="cls-1" d="M39.81,0A39.8,39.8,0,0,0,13.1,69.32l1-6.1h0l1.69-10.7c.3-2,.79-2.07,4.65-2.07,2.91,0,3.67,0,3.48,1.71v.09L20.37,74.54a40.21,40.21,0,0,0,8,3.41l2.34-14.73h0l4.57-28.91c.29-2,.79-2.07,4.64-2.07,2.91,0,3.67,0,3.49,1.71l-2.89,18.3-4.3,27.2c1.17.11,2.35.16,3.55.16a38.72,38.72,0,0,0,4.72-.29L50,45h0L54.62,16.1c.3-2,.79-2.08,4.65-2.08,2.91,0,3.67,0,3.48,1.72L59.87,34,52.94,77.39A39.81,39.81,0,0,0,39.81,0"/></svg>