<?xml version="1.0" encoding="utf-8"?>
<!-- Generator: Adobe Illustrator 19.2.1, SVG Export Plug-In . SVG Version: 6.00 Build 0)  -->
<svg version="1.1" id="Para" xmlns="http://www.w3.org/2000/svg" xmlns:xlink="http://www.w3.org/1999/xlink" x="0px" y="0px"
	 viewBox="0 0 637.9 330.3" style="enable-background:new 0 0 637.9 330.3;" xml:space="preserve">
<style type="text/css">
	.st0{fill:#FFFFFF;}
</style>
<g>
	<path class="st0" d="M14.8,262.3c0,0.8-0.6,1.5-1.5,1.5H1.6c-0.9,0-1.6-0.7-1.6-1.5v-67c0-0.8,0.7-1.5,1.6-1.5h46.6
		c0.8,0,1.5,0.7,1.5,1.5v10.1c0,0.8-0.7,1.5-1.5,1.5H14.8v15.1h28.8c0.8,0,1.5,0.7,1.5,1.5v10c0,0.9-0.7,1.6-1.5,1.6H14.8V262.3z"/>
	<path class="st0" d="M107.3,237.5l15.2,23.7c0.7,1.2,0.8,2.7-0.9,2.7h-12.9c-1.4,0-2.3-0.2-3-1.5L92,239.6H78.7v22.7
		c0,0.8-0.6,1.5-1.5,1.5H65.6c-0.9,0-1.6-0.7-1.6-1.5v-67c0-0.8,0.7-1.5,1.6-1.5h30.1c6.8,0,13,1.2,17.7,4.7
		c5.1,3.8,8.1,10.4,8.1,18c0,6.7-2.5,12.7-7.8,17.2C111.6,235.5,109.5,236.6,107.3,237.5z M78.7,206.4V227h14.4
		c3.8,0,6.9-0.3,9.1-1.7c2.5-1.5,4.2-4.4,4.2-8.5s-1.5-6.8-3.9-8.4c-2.3-1.4-5-2-8.1-2H78.7z"/>
	<path class="st0" d="M187.7,193.8c0.9,0,1.6,0.7,1.6,1.5v10.1c0,0.8-0.7,1.5-1.6,1.5h-36.4v15.1h31.1c0.8,0,1.5,0.7,1.5,1.5v10
		c0,0.9-0.7,1.6-1.5,1.6h-31.1v15.5h36.4c0.9,0,1.6,0.6,1.6,1.5v10c0,0.8-0.7,1.5-1.6,1.5h-49.6c-0.9,0-1.6-0.7-1.6-1.5v-67
		c0-0.8,0.7-1.5,1.6-1.5H187.7z"/>
	<path class="st0" d="M202.2,258.3c-0.7-0.4-1-1.1-0.6-2l4.7-10c0.4-0.8,1.1-1.1,2-0.6c4.7,3,10.7,6.4,18.8,6.4c3.7,0,6.4-0.8,8-2.1
		c2.3-1.6,3-4,3-6c0-4.2-3.7-6.5-8.7-8.2c-5.6-2.1-12.6-3.4-18.5-7.1c-5-3.3-8.7-7.8-8.7-16c0-6,2.5-11.1,7.3-14.7
		c4.4-3.3,11-5.2,19.3-5.2c10.8,0,17.9,2.9,22.4,5.4c0.8,0.4,1,1.2,0.6,2l-4.7,10c-0.4,0.7-1.1,1-2,0.5c-4.7-2.6-10.6-4.9-17.2-4.9
		c-3.4,0-6,0.7-7.6,1.7c-1.8,1.2-2.6,2.9-2.6,4.7c0,3.8,3.7,5.8,9,7.5c6.2,2,13.7,3.3,19.6,7.4c4.6,3.2,8,8.1,8,15.7
		c0,7-2.9,12.5-7.7,16.2c-4.8,3.8-11.6,5.9-19.2,5.9C215.9,264.9,207.6,261.5,202.2,258.3z"/>
	<path class="st0" d="M329.9,193.8c0.8,0,1.5,0.7,1.5,1.5v67c0,0.8-0.7,1.5-1.5,1.5h-11.7c-0.8,0-1.5-0.7-1.5-1.5v-27.2h-31.9v27.2
		c0,0.8-0.6,1.5-1.5,1.5h-11.6c-0.9,0-1.6-0.7-1.6-1.5v-67c0-0.8,0.7-1.5,1.6-1.5h11.6c0.9,0,1.5,0.7,1.5,1.5v26.8h31.9v-26.8
		c0-0.8,0.7-1.5,1.5-1.5H329.9z"/>
	<path class="st0" d="M366.9,262.3c0,0.8-0.6,1.5-1.5,1.5h-11.6c-0.9,0-1.6-0.7-1.6-1.5v-67c0-0.8,0.7-1.5,1.6-1.5h46.6
		c0.8,0,1.5,0.7,1.5,1.5v10.1c0,0.8-0.7,1.5-1.5,1.5h-33.4v15.1h28.8c0.8,0,1.5,0.7,1.5,1.5v10c0,0.9-0.7,1.6-1.5,1.6h-28.8V262.3z"
		/>
	<path class="st0" d="M472.9,262.3c0,0.8-0.7,1.5-1.5,1.5h-11.7c-0.8,0-1.5-0.7-1.5-1.5v-18.6H430v18.6c0,0.8-0.7,1.5-1.5,1.5h-11.7
		c-0.8,0-1.5-0.7-1.5-1.5v-40.2c0-8.4,3.3-17.2,10.3-23c4.5-3.8,10.7-6.3,18.5-6.3c7.9,0,14.1,2.5,18.6,6.3
		c7.1,5.8,10.3,14.5,10.3,23V262.3z M434.3,210.4c-2.7,2.8-4.3,6.8-4.3,12.4v7.8h28.1v-7.8c0-5.6-1.6-9.6-4.2-12.4
		c-2.6-2.5-6.1-3.7-9.9-3.7C440.3,206.7,436.9,207.9,434.3,210.4z"/>
	<path class="st0" d="M535.2,237.5l15.2,23.7c0.7,1.2,0.8,2.7-0.9,2.7h-12.9c-1.4,0-2.3-0.2-3-1.5l-13.8-22.7h-13.3v22.7
		c0,0.8-0.6,1.5-1.5,1.5h-11.6c-0.9,0-1.6-0.7-1.6-1.5v-67c0-0.8,0.7-1.5,1.6-1.5h30.1c6.8,0,13,1.2,17.7,4.7
		c5.1,3.8,8.1,10.4,8.1,18c0,6.7-2.5,12.7-7.8,17.2C539.4,235.5,537.3,236.6,535.2,237.5z M506.5,206.4V227h14.4
		c3.8,0,6.9-0.3,9.1-1.7c2.5-1.5,4.2-4.4,4.2-8.5s-1.5-6.8-3.9-8.4c-2.3-1.4-5-2-8.1-2H506.5z"/>
	<path class="st0" d="M637.9,262.3c0,0.8-0.7,1.5-1.6,1.5h-11.1c-0.9,0-1.6-0.7-1.6-1.5v-42.8l-14.9,26c-0.6,1.1-1.1,1.6-2.5,1.6
		h-8.5c-1.2,0-1.9-0.5-2.5-1.6l-15.3-26v42.8c0,0.8-0.7,1.5-1.6,1.5h-11.1c-0.9,0-1.6-0.7-1.6-1.5v-67c0-0.8,0.7-1.5,1.6-1.5h11.7
		c1.2,0,2.1,0.2,2.9,1.6l20,34.7l20.1-34.7c0.7-1.4,1.5-1.6,2.8-1.6h11.8c0.9,0,1.6,0.7,1.6,1.5V262.3z"/>
</g>
<g>
	<g>
		<path class="st0" d="M71.9,320.1c0,0.3-0.2,0.5-0.5,0.5h-3.3c-0.3,0-0.5-0.2-0.5-0.5v-9.8c0-1.7-0.2-3.2-1.2-4.2
			c-0.7-0.7-1.6-1.1-3-1.1c-1.9,0-3.4,0.9-4.3,2.5c-0.7,1.3-1,2.9-1,4.4v8.2c0,0.3-0.2,0.5-0.5,0.5h-3.2c-0.3,0-0.5-0.2-0.5-0.5
			v-17.9c0-0.2,0.2-0.5,0.5-0.5h3.1c0.3,0,0.5,0.2,0.5,0.5v2h0.1c1.4-1.9,3.5-2.9,6.1-2.9c2.2,0,4.1,0.5,5.5,1.8
			c1.4,1.2,2.2,3.3,2.2,6.1V320.1z"/>
		<path class="st0" d="M81.2,304c1.8-1.7,4.4-2.7,7.2-2.7c2.8,0,5.3,1,7.2,2.7c1.8,1.7,2.9,4.2,2.9,7.1c0,2.9-1,5.4-2.9,7.1
			c-1.8,1.7-4.4,2.7-7.2,2.7c-2.8,0-5.4-1-7.2-2.7c-1.9-1.7-2.9-4.2-2.9-7.1C78.2,308.2,79.3,305.8,81.2,304z M84.1,315.6
			c1,1.1,2.5,1.8,4.3,1.8c1.7,0,3.2-0.7,4.2-1.8c1-1.2,1.7-2.7,1.7-4.4s-0.6-3.3-1.7-4.4c-1-1.1-2.5-1.8-4.2-1.8
			c-1.7,0-3.2,0.7-4.3,1.8c-1,1.2-1.6,2.7-1.6,4.4S83,314.4,84.1,315.6z"/>
		<path class="st0" d="M104.7,302.2c0-0.2,0.2-0.5,0.5-0.5h3.2c0.3,0,0.5,0.2,0.5,0.5v10c0,1.3,0.2,2.2,0.6,3.1c0.7,1.2,2,2,4.1,2
			s3.4-0.8,4.1-2c0.5-0.9,0.7-1.8,0.7-3.1v-10c0-0.2,0.2-0.5,0.5-0.5h3.2c0.3,0,0.5,0.2,0.5,0.5v10.3c0,2.4-0.5,4.1-1.5,5.4
			c-1.5,2-4.1,3-7.5,3s-6-1-7.5-3c-1-1.4-1.5-3-1.5-5.4V302.2z"/>
		<path class="st0" d="M134.4,311.4v8.6c0,0.3-0.2,0.5-0.5,0.5h-3.2c-0.3,0-0.5-0.2-0.5-0.5v-17.9c0-0.2,0.2-0.5,0.5-0.5h3.1
			c0.3,0,0.5,0.2,0.5,0.5v1.8h0.1c1.2-1.7,2.8-2.7,4.9-2.7c1.8,0,3.4,0.5,4.6,1.5c0.2,0.2,0.3,0.5,0.2,0.7l-1.2,2.5
			c-0.1,0.2-0.4,0.3-0.7,0.1c-1.1-0.7-2.1-1.1-3.5-1.1C135.4,305.1,134.4,308.5,134.4,311.4z"/>
		<path class="st0" d="M148.1,293c0-1.4,1.1-2.4,2.5-2.4s2.5,1.1,2.5,2.4c0,1.4-1.1,2.5-2.5,2.5S148.1,294.4,148.1,293z M149,301.7
			h3.2c0.3,0,0.5,0.2,0.5,0.5v17.9c0,0.3-0.2,0.5-0.5,0.5H149c-0.3,0-0.5-0.2-0.5-0.5v-17.9C148.4,301.9,148.7,301.7,149,301.7z"/>
		<path class="st0" d="M169.1,315.5c0-1.2-1-1.8-2.2-2.4c-1.2-0.5-2.9-1-4.3-1.7c-2-1-3.1-2.5-3.1-4.9c0-3.3,2.6-5.3,7.2-5.3
			c2.8,0,4.6,0.7,6,1.4c0.3,0.2,0.4,0.4,0.2,0.7l-1.2,2.4c-0.2,0.3-0.4,0.3-0.7,0.2c-1.4-0.7-2.8-1.1-4.2-1.1c-1.8,0-3,0.5-3,1.8
			c0,1.1,0.9,1.6,2,2.1c1.3,0.5,2.9,1,4.2,1.7c2.4,1.2,3.4,2.7,3.4,4.8c0,3.4-2.9,5.8-7.5,5.8c-3.2,0-5.3-0.8-6.6-1.7
			c-0.2-0.2-0.3-0.4-0.2-0.6l1.2-2.4c0.1-0.3,0.4-0.4,0.7-0.2c1.5,1,3.1,1.5,4.8,1.5C167.7,317.6,169.1,317,169.1,315.5z"/>
		<path class="st0" d="M184.2,304.2c1.4-1.9,3.5-2.9,6.1-2.9c2.2,0,4.1,0.5,5.5,1.8c1.4,1.2,2.2,3.3,2.2,6.1v10.8
			c0,0.3-0.2,0.5-0.5,0.5h-3.2c-0.3,0-0.5-0.2-0.5-0.5v-9.8c0-1.7-0.2-3.2-1.2-4.2c-0.7-0.7-1.6-1.1-3-1.1c-1.9,0-3.4,0.9-4.3,2.5
			c-0.7,1.3-1,2.9-1,4.4v8.2c0,0.3-0.2,0.5-0.5,0.5h-3.2c-0.3,0-0.5-0.2-0.5-0.5v-27.2c0-0.3,0.2-0.5,0.5-0.5h3.2
			c0.3,0,0.5,0.2,0.5,0.5V304.2z"/>
		<path class="st0" d="M205,293c0-1.4,1.1-2.4,2.5-2.4s2.5,1.1,2.5,2.4c0,1.4-1.1,2.5-2.5,2.5S205,294.4,205,293z M206,301.7h3.2
			c0.3,0,0.5,0.2,0.5,0.5v17.9c0,0.3-0.2,0.5-0.5,0.5H206c-0.3,0-0.5-0.2-0.5-0.5v-17.9C205.4,301.9,205.7,301.7,206,301.7z"/>
		<path class="st0" d="M235.5,320.1c0,0.3-0.2,0.5-0.5,0.5h-3.3c-0.3,0-0.5-0.2-0.5-0.5v-9.8c0-1.7-0.2-3.2-1.2-4.2
			c-0.7-0.7-1.6-1.1-3-1.1c-1.9,0-3.4,0.9-4.3,2.5c-0.7,1.3-1,2.9-1,4.4v8.2c0,0.3-0.2,0.5-0.5,0.5H218c-0.3,0-0.5-0.2-0.5-0.5
			v-17.9c0-0.2,0.2-0.5,0.5-0.5h3.1c0.3,0,0.5,0.2,0.5,0.5v2h0.1c1.4-1.9,3.5-2.9,6.1-2.9c2.2,0,4.1,0.5,5.5,1.8
			c1.4,1.2,2.2,3.3,2.2,6.1V320.1z"/>
		<path class="st0" d="M254.5,325.5c0.8-0.9,1.2-2.2,1.2-3.9v-2.1c-1.5,1.1-3.1,1.5-5.1,1.5c-2.7,0-4.7-1-6.1-2.5
			c-1.7-1.8-2.7-4.4-2.7-7.3c0-2.7,0.8-5.3,2.5-7.2c1.5-1.6,3.5-2.6,6.3-2.6c2.4,0,4,0.9,5.1,1.7h0.1v-0.9c0-0.2,0.2-0.5,0.5-0.5
			h3.1c0.3,0,0.5,0.2,0.5,0.5V321c0,3.1-0.8,5.6-2.6,7.1c-1.6,1.5-3.9,2.1-6.7,2.1c-2.7,0-5.4-0.9-7.1-2c-0.2-0.2-0.3-0.4-0.2-0.7
			l1.2-2.4c0.1-0.2,0.4-0.3,0.7-0.1c1.5,1,3.2,1.7,5.4,1.7C252.4,326.8,253.7,326.4,254.5,325.5z M255.7,315.8v-9.1
			c-0.9-0.7-2.4-1.7-4.5-1.7c-1.6,0-2.8,0.6-3.6,1.6c-1,1.2-1.4,2.7-1.4,4.6c0,1.9,0.4,3.6,1.4,4.7c0.8,1,1.9,1.5,3.5,1.5
			C253,317.4,254.5,316.8,255.7,315.8z"/>
		<path class="st0" d="M282.2,304c1.8-1.7,4.4-2.7,7.2-2.7c2.8,0,5.3,1,7.2,2.7c1.8,1.7,2.9,4.2,2.9,7.1c0,2.9-1,5.4-2.9,7.1
			c-1.8,1.7-4.4,2.7-7.2,2.7c-2.8,0-5.4-1-7.2-2.7c-1.9-1.7-2.9-4.2-2.9-7.1C279.2,308.2,280.4,305.8,282.2,304z M285.1,315.6
			c1,1.1,2.5,1.8,4.3,1.8c1.7,0,3.2-0.7,4.2-1.8c1-1.2,1.7-2.7,1.7-4.4s-0.6-3.3-1.7-4.4c-1-1.1-2.5-1.8-4.2-1.8
			c-1.7,0-3.2,0.7-4.3,1.8c-1,1.2-1.6,2.7-1.6,4.4S284.1,314.4,285.1,315.6z"/>
		<path class="st0" d="M305.7,302.2c0-0.2,0.2-0.5,0.5-0.5h3.2c0.3,0,0.5,0.2,0.5,0.5v10c0,1.3,0.2,2.2,0.6,3.1c0.7,1.2,2,2,4.1,2
			s3.4-0.8,4.1-2c0.5-0.9,0.7-1.8,0.7-3.1v-10c0-0.2,0.2-0.5,0.5-0.5h3.2c0.3,0,0.5,0.2,0.5,0.5v10.3c0,2.4-0.5,4.1-1.5,5.4
			c-1.5,2-4.1,3-7.5,3s-6-1-7.5-3c-1-1.4-1.5-3-1.5-5.4V302.2z"/>
		<path class="st0" d="M335.4,311.4v8.6c0,0.3-0.2,0.5-0.5,0.5h-3.2c-0.3,0-0.5-0.2-0.5-0.5v-17.9c0-0.2,0.2-0.5,0.5-0.5h3.1
			c0.3,0,0.5,0.2,0.5,0.5v1.8h0.1c1.2-1.7,2.8-2.7,4.9-2.7c1.8,0,3.4,0.5,4.6,1.5c0.2,0.2,0.3,0.5,0.2,0.7l-1.2,2.5
			c-0.1,0.2-0.4,0.3-0.7,0.1c-1.1-0.7-2.1-1.1-3.5-1.1C336.4,305.1,335.4,308.5,335.4,311.4z"/>
		<path class="st0" d="M368.4,296.5c-0.5,0.7-0.7,1.7-0.7,3v2.2h4.9c0.3,0,0.5,0.2,0.5,0.5v2.4c0,0.2-0.2,0.5-0.5,0.5h-4.9v15
			c0,0.3-0.2,0.5-0.5,0.5H364c-0.3,0-0.5-0.2-0.5-0.5v-15h-2.2c-0.3,0-0.5-0.2-0.5-0.5v-2.4c0-0.2,0.2-0.5,0.5-0.5h2.2v-2.6
			c0-2.2,0.5-4.2,1.8-5.6c1-1,2.4-1.6,4.4-1.6c2.4,0,4.6,0.7,6,1.8c0.2,0.2,0.3,0.5,0.2,0.7l-1.1,2.2c-0.1,0.3-0.5,0.3-0.8,0.1
			c-1.1-0.8-2.2-1.2-3.4-1.2C369.6,295.6,368.9,295.9,368.4,296.5z"/>
		<path class="st0" d="M379.3,304c1.8-1.7,4.4-2.7,7.2-2.7c2.8,0,5.3,1,7.2,2.7c1.8,1.7,2.9,4.2,2.9,7.1c0,2.9-1,5.4-2.9,7.1
			c-1.8,1.7-4.4,2.7-7.2,2.7c-2.8,0-5.4-1-7.2-2.7c-1.9-1.7-2.9-4.2-2.9-7.1C376.4,308.2,377.5,305.8,379.3,304z M382.2,315.6
			c1,1.1,2.5,1.8,4.3,1.8c1.7,0,3.2-0.7,4.2-1.8c1-1.2,1.7-2.7,1.7-4.4s-0.6-3.3-1.7-4.4c-1-1.1-2.5-1.8-4.2-1.8
			c-1.7,0-3.2,0.7-4.3,1.8c-1,1.2-1.6,2.7-1.6,4.4S381.2,314.4,382.2,315.6z"/>
		<path class="st0" d="M405,304c1.8-1.7,4.4-2.7,7.2-2.7c2.8,0,5.3,1,7.2,2.7c1.8,1.7,2.9,4.2,2.9,7.1c0,2.9-1,5.4-2.9,7.1
			c-1.8,1.7-4.4,2.7-7.2,2.7c-2.8,0-5.4-1-7.2-2.7c-1.9-1.7-2.9-4.2-2.9-7.1C402,308.2,403.1,305.8,405,304z M407.9,315.6
			c1,1.1,2.5,1.8,4.3,1.8c1.7,0,3.2-0.7,4.2-1.8c1-1.2,1.7-2.7,1.7-4.4s-0.6-3.3-1.7-4.4c-1-1.1-2.5-1.8-4.2-1.8
			c-1.7,0-3.2,0.7-4.3,1.8c-1,1.2-1.6,2.7-1.6,4.4S406.8,314.4,407.9,315.6z"/>
		<path class="st0" d="M438.6,320.6c-3.3,0-6.3-0.8-8.2-2.7c-1.7-1.5-2.7-3.7-2.7-6.6c0-2.3,0.6-4.6,2-6.4c1.6-2.1,4.2-3.5,7.8-3.5
			c1.4,0,2.4,0.2,3.6,0.5v-9c0-0.3,0.2-0.5,0.5-0.5h3.2c0.3,0,0.5,0.2,0.5,0.5v27.2c0,0.3-0.2,0.5-0.5,0.5H438.6z M441,317v-11.5
			c-1.1-0.4-2-0.5-3.3-0.5c-1.9,0-3.5,0.9-4.5,2.3c-0.7,1-1.2,2.4-1.2,3.9c0,1.9,0.6,3.2,1.6,4.1c1.3,1.2,3.3,1.7,5.4,1.7H441z"/>
		<path class="st0" d="M471.6,296.5c-0.5,0.7-0.7,1.7-0.7,3v2.2h4.9c0.3,0,0.5,0.2,0.5,0.5v2.4c0,0.2-0.2,0.5-0.5,0.5h-4.9v15
			c0,0.3-0.2,0.5-0.5,0.5h-3.2c-0.3,0-0.5-0.2-0.5-0.5v-15h-2.2c-0.3,0-0.5-0.2-0.5-0.5v-2.4c0-0.2,0.2-0.5,0.5-0.5h2.2v-2.6
			c0-2.2,0.5-4.2,1.8-5.6c1-1,2.4-1.6,4.4-1.6c2.4,0,4.6,0.7,6,1.8c0.2,0.2,0.3,0.5,0.2,0.7l-1.1,2.2c-0.1,0.3-0.5,0.3-0.8,0.1
			c-1.1-0.8-2.2-1.2-3.4-1.2C472.7,295.6,472.1,295.9,471.6,296.5z"/>
		<path class="st0" d="M480.7,302.2c0-0.2,0.2-0.5,0.5-0.5h3.2c0.3,0,0.5,0.2,0.5,0.5v10c0,1.3,0.2,2.2,0.6,3.1c0.7,1.2,2,2,4.1,2
			s3.4-0.8,4.1-2c0.5-0.9,0.7-1.8,0.7-3.1v-10c0-0.2,0.2-0.5,0.5-0.5h3.2c0.3,0,0.5,0.2,0.5,0.5v10.3c0,2.4-0.5,4.1-1.5,5.4
			c-1.5,2-4.1,3-7.5,3s-6-1-7.5-3c-1-1.4-1.5-3-1.5-5.4V302.2z"/>
		<path class="st0" d="M510.9,313.5c0,1.1,0.2,1.9,0.5,2.6c0.5,0.8,1.2,1.2,2.4,1.2c1,0,1.9-0.3,3-1.1c0.3-0.2,0.6-0.2,0.8,0.1
			l1.1,2.3c0.1,0.2,0,0.5-0.2,0.7c-1.5,1.1-3.6,1.7-5.8,1.7c-2.3,0-3.8-0.7-4.7-1.8c-1.1-1.3-1.4-3.2-1.4-5.1v-9h-2.1
			c-0.3,0-0.5-0.2-0.5-0.5v-2.4c0-0.2,0.2-0.5,0.5-0.5h2.1V298c0-0.2,0.2-0.5,0.5-0.5h3.2c0.2,0,0.5,0.2,0.5,0.5v3.7h5.9
			c0.2,0,0.5,0.2,0.5,0.5v2.4c0,0.2-0.2,0.5-0.5,0.5h-5.9V313.5z"/>
		<path class="st0" d="M523,302.2c0-0.2,0.2-0.5,0.5-0.5h3.2c0.3,0,0.5,0.2,0.5,0.5v10c0,1.3,0.2,2.2,0.6,3.1c0.7,1.2,2,2,4.1,2
			s3.4-0.8,4.1-2c0.5-0.9,0.7-1.8,0.7-3.1v-10c0-0.2,0.2-0.5,0.5-0.5h3.2c0.3,0,0.5,0.2,0.5,0.5v10.3c0,2.4-0.5,4.1-1.5,5.4
			c-1.5,2-4.1,3-7.5,3s-6-1-7.5-3c-1-1.4-1.5-3-1.5-5.4V302.2z"/>
		<path class="st0" d="M552.7,311.4v8.6c0,0.3-0.2,0.5-0.5,0.5h-3.2c-0.3,0-0.5-0.2-0.5-0.5v-17.9c0-0.2,0.2-0.5,0.5-0.5h3.1
			c0.3,0,0.5,0.2,0.5,0.5v1.8h0.1c1.2-1.7,2.8-2.7,4.9-2.7c1.8,0,3.4,0.5,4.6,1.5c0.2,0.2,0.3,0.5,0.2,0.7l-1.2,2.5
			c-0.1,0.2-0.4,0.3-0.7,0.1c-1.1-0.7-2.1-1.1-3.5-1.1C553.7,305.1,552.7,308.5,552.7,311.4z"/>
		<path class="st0" d="M581.1,316.1c0.4-0.2,0.6-0.1,0.7,0.1l1.1,2.1c0.2,0.2,0,0.5-0.2,0.7c-1.5,1.1-4.3,2-7.1,2
			c-3.2,0-5.7-1-7.5-2.9c-1.7-1.7-2.6-4.2-2.6-7.2c0-2.7,1-5.1,2.7-6.9c1.6-1.7,3.9-2.7,6.9-2.7c3.2,0,5.6,1.2,7.1,3.1
			c1.4,1.8,1.9,4.4,1.8,7.3c0,0.3-0.2,0.6-0.6,0.6h-13.3c0.1,1.5,0.6,2.6,1.4,3.5c1,1.2,2.6,1.8,4.5,1.8
			C578,317.6,579.7,317,581.1,316.1z M579.9,309.4c-0.1-1.3-0.5-2.4-1.2-3.2c-0.8-0.9-2-1.5-3.6-1.5c-1.6,0-2.9,0.6-3.8,1.5
			c-0.7,0.8-1.2,1.9-1.2,3.2H579.9z"/>
	</g>
</g>
<g>
	<path class="st0" d="M359,100.8c0,1.3,1.3,2.3,2.9,2.3H387c1.6,0,2.9-1,2.9-2.3v-6.1c0-1.3-1.3-2.3-2.9-2.3h-25.1
		c-1.6,0-2.9,1-2.9,2.3V100.8z"/>
	<path class="st0" d="M359,82.3c0,1.3,1.3,2.3,2.9,2.3H387c1.6,0,2.9-1,2.9-2.3v-6.1c0-1.3-1.3-2.3-2.9-2.3h-25.1
		c-1.6,0-2.9,1-2.9,2.3V82.3z"/>
	<path class="st0" d="M284.3,137.8c0,1.3,1.3,2.4,3,2.4h99.6c1.6,0,3-1.1,3-2.4v-5.9c0-1.3-1.3-2.4-3-2.4h-99.6c-1.6,0-3,1.1-3,2.4
		V137.8z"/>
	<path class="st0" d="M284.3,119.2c0,1.3,1.3,2.4,3,2.4h99.6c1.6,0,3-1.1,3-2.4v-5.9c0-1.3-1.3-2.4-3-2.4h-99.6c-1.6,0-3,1.1-3,2.4
		V119.2z"/>
	<path class="st0" d="M359,26.8c0,1.3,1.3,2.3,2.9,2.3H387c1.6,0,2.9-1,2.9-2.3v-6.1c0-1.3-1.3-2.3-2.9-2.3h-25.1
		c-1.6,0-2.9,1-2.9,2.3V26.8z"/>
	<path class="st0" d="M359,8.3c0,1.3,1.3,2.3,2.9,2.3H387c1.6,0,2.9-1,2.9-2.3V2.2c0-1.3-1.3-2.3-2.9-2.3h-25.1
		c-1.6,0-2.9,1-2.9,2.3V8.3z"/>
	<path class="st0" d="M284.6,63.7c0,1.3,1.3,2.4,3,2.4h99.3c1.6,0,3-1.1,3-2.4v-5.9c0-1.3-1.3-2.4-3-2.4h-99.3c-1.6,0-3,1.1-3,2.4
		V63.7z"/>
	<path class="st0" d="M284.6,45.2c0,1.3,1.3,2.4,3,2.4h99.3c1.6,0,3-1.1,3-2.4v-5.9c0-1.3-1.3-2.4-3-2.4h-99.3c-1.6,0-3,1.1-3,2.4
		V45.2z"/>
	<path class="st0" d="M322,100.6c0,1.4,1,2.6,2.1,2.6h6.5c1.2,0,2.1-1.2,2.1-2.6v-24c0-1.4-1-2.6-2.1-2.6h-6.5
		c-1.2,0-2.1,1.2-2.1,2.6V100.6z"/>
	<path class="st0" d="M340.5,100.6c0,1.4,1,2.6,2.1,2.6h6.5c1.2,0,2.1-1.2,2.1-2.6v-24c0-1.4-1-2.6-2.1-2.6h-6.5
		c-1.2,0-2.1,1.2-2.1,2.6V100.6z"/>
	<path class="st0" d="M285,100.6c0,1.4,1,2.6,2.1,2.6h6.5c1.2,0,2.1-1.2,2.1-2.6v-24c0-1.4-1-2.6-2.1-2.6h-6.5
		c-1.2,0-2.1,1.2-2.1,2.6V100.6z"/>
	<path class="st0" d="M303.5,100.6c0,1.4,1,2.6,2.1,2.6h6.5c1.2,0,2.1-1.2,2.1-2.6v-24c0-1.4-1-2.6-2.1-2.6h-6.5
		c-1.2,0-2.1,1.2-2.1,2.6V100.6z"/>
	<path class="st0" d="M248,137.1c0,1.8,1.2,3.3,2.7,3.3h5.3c1.5,0,2.7-1.5,2.7-3.3V3.4c0-1.8-1.2-3.4-2.7-3.4h-5.3
		c-1.5,0-2.7,1.5-2.7,3.4V137.1z"/>
	<path class="st0" d="M266.5,137.1c0,1.8,1.2,3.3,2.7,3.3h5.3c1.5,0,2.7-1.5,2.7-3.3V3.4c0-1.8-1.2-3.4-2.7-3.4h-5.3
		c-1.5,0-2.7,1.5-2.7,3.4V137.1z"/>
	<path class="st0" d="M322,26.8c0,1.4,1,2.6,2.1,2.6h6.5c1.2,0,2.1-1.2,2.1-2.6V2.6c0-1.4-1-2.6-2.1-2.6h-6.5C323,0,322,1.2,322,2.6
		V26.8z"/>
	<path class="st0" d="M340.5,26.8c0,1.4,1,2.6,2.1,2.6h6.5c1.2,0,2.1-1.2,2.1-2.6V2.6c0-1.4-1-2.6-2.1-2.6h-6.5
		c-1.2,0-2.1,1.2-2.1,2.6V26.8z"/>
	<path class="st0" d="M285,26.8c0,1.4,1,2.6,2.1,2.6h6.5c1.2,0,2.1-1.2,2.1-2.6V2.6c0-1.4-1-2.6-2.1-2.6h-6.5
		c-1.2,0-2.1,1.2-2.1,2.6V26.8z"/>
	<path class="st0" d="M303.5,26.8c0,1.4,1,2.6,2.1,2.6h6.5c1.2,0,2.1-1.2,2.1-2.6V2.6c0-1.4-1-2.6-2.1-2.6h-6.5
		c-1.2,0-2.1,1.2-2.1,2.6V26.8z"/>
</g>
</svg>
