<?xml version="1.0" encoding="utf-8"?>
<!-- Generator: Adobe Illustrator 16.0.4, SVG Export Plug-In . SVG Version: 6.00 Build 0)  -->
<!DOCTYPE svg PUBLIC "-//W3C//DTD SVG 1.1//EN" "http://www.w3.org/Graphics/SVG/1.1/DTD/svg11.dtd">
<svg version="1.1" id="Para" xmlns="http://www.w3.org/2000/svg" xmlns:xlink="http://www.w3.org/1999/xlink" x="0px" y="0px"
	 width="136.139px" height="134.699px" viewBox="237.931 237.556 136.139 134.699"
	 enable-background="new 237.931 237.556 136.139 134.699" xml:space="preserve">
<g>
	<path fill="#FFFFFF" d="M344.424,334.263c0,1.247,1.247,2.207,2.782,2.207h24.081c1.535,0,2.782-0.959,2.782-2.207v-5.853
		c0-1.247-1.247-2.207-2.782-2.207h-24.081c-1.535,0-2.782,0.959-2.782,2.207V334.263z"/>
	<path fill="#FFFFFF" d="M344.424,316.514c0,1.248,1.247,2.207,2.782,2.207h24.081c1.535,0,2.782-0.959,2.782-2.207v-5.852
		c0-1.247-1.247-2.207-2.782-2.207h-24.081c-1.535,0-2.782,0.959-2.782,2.207V316.514z"/>
	<path fill="#FFFFFF" d="M272.757,369.76c0,1.248,1.247,2.303,2.878,2.303h95.556c1.535,0,2.878-1.055,2.878-2.303v-5.66
		c0-1.248-1.247-2.303-2.878-2.303h-95.556c-1.535,0-2.878,1.056-2.878,2.303V369.76z"/>
	<path fill="#FFFFFF" d="M272.757,351.916c0,1.248,1.247,2.303,2.878,2.303h95.556c1.535,0,2.878-1.055,2.878-2.303v-5.66
		c0-1.248-1.247-2.303-2.878-2.303h-95.556c-1.535,0-2.878,1.055-2.878,2.303V351.916z"/>
	<path fill="#FFFFFF" d="M344.424,263.267c0,1.248,1.247,2.207,2.782,2.207h24.081c1.535,0,2.782-0.959,2.782-2.207v-5.852
		c0-1.247-1.247-2.207-2.782-2.207h-24.081c-1.535,0-2.782,0.959-2.782,2.207V263.267z"/>
	<path fill="#FFFFFF" d="M344.424,245.519c0,1.247,1.247,2.207,2.782,2.207h24.081c1.535,0,2.782-0.959,2.782-2.207v-5.853
		c0-1.247-1.247-2.207-2.782-2.207h-24.081c-1.535,0-2.782,0.959-2.782,2.207V245.519z"/>
	<path fill="#FFFFFF" d="M273.045,298.669c0,1.248,1.247,2.303,2.878,2.303h95.269c1.535,0,2.878-1.055,2.878-2.303v-5.66
		c0-1.248-1.247-2.303-2.878-2.303h-95.269c-1.535,0-2.878,1.055-2.878,2.303V298.669L273.045,298.669z"/>
	<path fill="#FFFFFF" d="M273.045,280.92c0,1.247,1.247,2.302,2.878,2.302h95.269c1.535,0,2.878-1.055,2.878-2.302v-5.661
		c0-1.247-1.247-2.303-2.878-2.303h-95.269c-1.535,0-2.878,1.056-2.878,2.303V280.92L273.045,280.92z"/>
	<path fill="#FFFFFF" d="M308.926,334.071c0,1.343,0.96,2.495,2.015,2.495h6.236c1.151,0,2.015-1.151,2.015-2.495v-23.025
		c0-1.343-0.959-2.495-2.015-2.495h-6.236c-1.15,0-2.015,1.151-2.015,2.495V334.071z"/>
	<path fill="#FFFFFF" d="M326.675,334.071c0,1.343,0.96,2.495,2.015,2.495h6.236c1.151,0,2.015-1.151,2.015-2.495v-23.025
		c0-1.343-0.959-2.495-2.015-2.495h-6.236c-1.151,0-2.015,1.151-2.015,2.495V334.071z"/>
	<path fill="#FFFFFF" d="M273.428,334.071c0,1.343,0.959,2.495,2.015,2.495h6.236c1.151,0,2.015-1.151,2.015-2.495v-23.025
		c0-1.343-0.959-2.495-2.015-2.495h-6.236c-1.151,0-2.015,1.151-2.015,2.495V334.071z"/>
	<path fill="#FFFFFF" d="M291.177,334.071c0,1.343,0.959,2.495,2.015,2.495h6.236c1.151,0,2.015-1.151,2.015-2.495v-23.025
		c0-1.343-0.959-2.495-2.015-2.495h-6.236c-1.151,0-2.015,1.151-2.015,2.495V334.071z"/>
	<path fill="#FFFFFF" d="M237.931,369.089c0,1.727,1.151,3.166,2.59,3.166h5.085c1.439,0,2.59-1.439,2.59-3.166V240.817
		c0-1.727-1.151-3.262-2.59-3.262h-5.085c-1.439,0-2.59,1.439-2.59,3.262V369.089z"/>
	<path fill="#FFFFFF" d="M255.68,369.089c0,1.727,1.151,3.166,2.59,3.166h5.084c1.439,0,2.591-1.439,2.591-3.166V240.817
		c0-1.727-1.151-3.262-2.591-3.262h-5.084c-1.439,0-2.59,1.439-2.59,3.262V369.089z"/>
	<path fill="#FFFFFF" d="M308.926,263.267c0,1.343,0.96,2.495,2.015,2.495h6.236c1.151,0,2.015-1.151,2.015-2.495V240.05
		c0-1.343-0.959-2.494-2.015-2.494h-6.236c-1.055,0-2.015,1.151-2.015,2.494V263.267z"/>
	<path fill="#FFFFFF" d="M326.675,263.267c0,1.343,0.96,2.495,2.015,2.495h6.236c1.151,0,2.015-1.151,2.015-2.495V240.05
		c0-1.343-0.959-2.494-2.015-2.494h-6.236c-1.151,0-2.015,1.151-2.015,2.494V263.267z"/>
	<path fill="#FFFFFF" d="M273.428,263.267c0,1.343,0.959,2.495,2.015,2.495h6.236c1.151,0,2.015-1.151,2.015-2.495V240.05
		c0-1.343-0.959-2.494-2.015-2.494h-6.236c-1.151,0-2.015,1.151-2.015,2.494V263.267z"/>
	<path fill="#FFFFFF" d="M291.177,263.267c0,1.343,0.959,2.495,2.015,2.495h6.236c1.151,0,2.015-1.151,2.015-2.495V240.05
		c0-1.343-0.959-2.494-2.015-2.494h-6.236c-1.151,0-2.015,1.151-2.015,2.494V263.267z"/>
</g>
</svg>
