<svg id="Layer_1" data-name="Layer 1" xmlns="http://www.w3.org/2000/svg" viewBox="0 0 171 171"><defs><style>.cls-1{fill:#ff6f4a;}.cls-2{fill:#2e5b66;}</style></defs><title>Badge</title><circle class="cls-1" cx="85.5" cy="85.5" r="85"/><path class="cls-2" d="M27.89,50.09a1.88,1.88,0,0,0-2.34.82c-.38.66-.39,1.3.2,1.64s1,.17,2-.76c1.77-1.63,3-2,4.49-1.16,2,1.12,1.73,3,.85,4.55-1,1.78-2.39,2.76-4.14,2l.64-2.28a1.36,1.36,0,0,0,1.83-.62c.32-.56.32-1.14-.24-1.47s-1.11,0-2,.83c-1.63,1.5-2.78,2.07-4.45,1.11-1.89-1.09-1.7-3-.64-4.86s2.21-2.54,4-2.08Z"/><path class="cls-2" d="M25,59.39c3.18,1.1,4.35,3.39,3.38,6.19S25,69.47,21.84,68.37s-4.33-3.41-3.36-6.2S21.79,58.29,25,59.39Zm-.82,2.25c-1.86-.65-3.25-.32-3.77,1.18s.37,2.62,2.23,3.27,3.28.31,3.8-1.19S26,62.29,24.13,61.64Z"/><path class="cls-2" d="M24.76,81.4l-6.6-.9c-2.68-.37-3.26-2.37-3-4.57s1.4-4,4.08-3.62l6.6.9-.32,2.29-6-.81c-1.41-.19-2.3.06-2.5,1.49s.59,1.94,2,2.13l5.94.81Z"/><path class="cls-2" d="M14.76,87.39l8-.34-.12-2.74,2-.08L25,92l-2,.09-.12-2.79-8,.35Z"/><path class="cls-2" d="M15.61,97.35l9.75-2.27.53,2.26-3.83.89.87,3.74,3.83-.89.52,2.25-9.75,2.27L17,103.35l4-.93-.87-3.74-4,.93Z"/><path class="cls-2" d="M22.3,117.5l-2.73-6.14,9.15-4.06,2.73,6.13-1.83.82-1.79-4L26,111l1.57,3.54-1.75.78-1.58-3.54-1.91.85,1.79,4Z"/><path class="cls-2" d="M30,126l-2.15-3.13-2.12.6-1.37-2,10.3-2.7,1.62,2.35-6.18,8.69-1.4-2Zm-.2-3.68,1.4,2,.69-1a19.07,19.07,0,0,1,1.91-2.26l0-.06A24,24,0,0,1,31,122Z"/><path class="cls-2" d="M36.5,132.07a1.86,1.86,0,0,0,.18,2.46c.54.54,1.16.72,1.64.24s.41-.93-.22-2.14c-1.11-2.14-1.18-3.43,0-4.64,1.59-1.6,3.37-.88,4.61.35,1.46,1.46,2,3,.85,4.52l-2-1.21a1.36,1.36,0,0,0-.12-1.92c-.46-.46-1-.61-1.48-.16s-.3,1.07.28,2.15c1,2,1.28,3.23-.08,4.58-1.54,1.55-3.35.86-4.86-.64s-1.88-2.78-1-4.42Z"/><path class="cls-2" d="M43.61,142.55,48.25,136,46,134.44l1.16-1.64,6.36,4.52L52.38,139l-2.27-1.62-4.64,6.53Z"/><path class="cls-2" d="M64,150.76l-3.57-1.28-1.38,1.73-2.27-.82,6.79-8.2,2.69,1,.06,10.65L64,153Zm-2.31-2.87,2.32.84v-1.2a20.25,20.25,0,0,1,.23-2.95l-.06,0A27.14,27.14,0,0,1,62.47,147Z"/><path class="cls-2" d="M72.86,151.92a1.85,1.85,0,0,0,1.58,1.89c.76.13,1.36-.08,1.47-.75s-.2-1-1.43-1.62c-2.14-1.09-2.94-2.1-2.67-3.79.37-2.23,2.23-2.68,4-2.4,2,.33,3.43,1.26,3.32,3.18l-2.35.19a1.38,1.38,0,0,0-1.22-1.49c-.64-.1-1.19.1-1.3.74s.38,1,1.48,1.59c2,1,2.92,1.87,2.61,3.76-.35,2.15-2.22,2.65-4.32,2.31-1.95-.32-3.15-1.17-3.36-3Z"/><path class="cls-2" d="M85.49,146.28l-.21,10-2.31,0,.21-10Z"/><path class="cls-2" d="M96.58,153.33l-3.75.51L92.4,156l-2.39.32,2.24-10.41,2.83-.38,5,9.43-2.46.33Zm-3.37-1.48,2.44-.33-.55-1.06a18.93,18.93,0,0,1-1.16-2.72h-.07a25.72,25.72,0,0,1-.43,2.92Z"/><path class="cls-2" d="M108.64,146.92a8.54,8.54,0,0,1,1.24,1l.06,0s-.33-.78-.76-2l-1.36-3.83,2.18-.77,3.36,9.43-2,.7-4.93-3.29a10.26,10.26,0,0,1-1.39-1.08l-.06,0a20.25,20.25,0,0,1,.85,2.1l1.33,3.75-2.17.77-3.36-9.43,2-.73Z"/><path class="cls-2" d="M123.56,141.42a1.86,1.86,0,0,0,2.46.21c.62-.44.89-1,.5-1.57s-.85-.57-2.15-.13c-2.29.75-3.57.61-4.57-.79-1.33-1.83-.33-3.47,1.09-4.5,1.67-1.2,3.31-1.53,4.59-.11L124,136.35a1.36,1.36,0,0,0-1.92-.19c-.52.38-.76.91-.39,1.43s1,.47,2.17.07c2.1-.69,3.39-.74,4.51.82,1.27,1.76.31,3.44-1.41,4.69s-3.06,1.4-4.53.24Z"/><path class="cls-2" d="M136.56,131.54l-2.62,2.74,1,2L133.29,138l-4.74-9.54,2-2.06,9.77,4.27-1.71,1.8Zm-3.56,1,1.7-1.78-1.09-.48a20,20,0,0,1-2.61-1.41l-.05.05a25.32,25.32,0,0,1,1.49,2.55Z"/><path class="cls-2" d="M136.08,119.26l6.68,4.42,2.16-3.27,1.67,1.11-3.43,5.19-8.36-5.52Z"/><path class="cls-2" d="M149.43,110.82l-1.49,3.48,1.65,1.48-1,2.22-7.78-7.26,1.12-2.63,10.64.57-1,2.29Zm-3,2.13,1-2.26-1.19-.07a19.9,19.9,0,0,1-2.93-.4l0,.06a27.06,27.06,0,0,1,2.29,1.87Z"/><path class="cls-2" d="M154.08,103.85,144.25,102l.69-3.63c.52-2.72,2.27-4.53,5.73-3.87,3.64.7,4.62,3.09,4.08,5.91Zm-1.3-3.62c.34-1.75-.2-2.93-2.43-3.36s-3.22.46-3.53,2.08l-.22,1.11,6,1.15Z"/><path class="cls-2" d="M153.1,88.78A1.85,1.85,0,0,0,154.75,87c0-.76-.27-1.33-.95-1.35s-1,.34-1.4,1.64c-.78,2.28-1.67,3.21-3.38,3.17-2.26,0-3-1.83-2.93-3.58,0-2,.77-3.57,2.68-3.73l.53,2.31A1.35,1.35,0,0,0,148,86.82c0,.65.26,1.16.91,1.18s1-.53,1.36-1.69c.71-2.09,1.45-3.15,3.37-3.11,2.17,0,2.93,1.84,2.89,4s-.72,3.28-2.53,3.75Z"/><path class="cls-2" d="M93.81,54.68c0,1,.6,1.81,2,1.83,1.66,0,2.53-.94,3-3l.17-.84a12.09,12.09,0,0,1,1.38.34l.48-1.07a12.43,12.43,0,0,0-3.64-1.08,9.44,9.44,0,0,0-2,0,7,7,0,0,0-2,.56,7.28,7.28,0,0,0-1.74,1.23,10.16,10.16,0,0,0-1.29,1.6A13,13,0,0,0,89.26,56a12.84,12.84,0,0,0-.65,1.93l2.87.5a10.11,10.11,0,0,1,.32-1.5,9.25,9.25,0,0,1,.55-1.47,7,7,0,0,1,.79-1.29,5.07,5.07,0,0,1,1-1l.4-.2A2.42,2.42,0,0,0,93.81,54.68Z"/><path class="cls-2" d="M111,86.77c0-.12-.25-.32-.38-.28a.58.58,0,0,0-.36.31.15.15,0,0,1-.08.11c-.09.07-.08.15,0,.22l.85-.29S111,86.79,111,86.77Z"/><path class="cls-2" d="M122.73,83.43l-.17.14a.1.1,0,0,0,0,.16.68.68,0,0,0,.43.18,1.79,1.79,0,0,0,.47.11s0,0,.05,0a.87.87,0,0,0,.13-.15s0-.13,0-.17,0-.11,0-.15a3.17,3.17,0,0,0-.35-.29C123.1,83.12,122.84,83.29,122.73,83.43Z"/><path class="cls-2" d="M116.1,85.48c-.15,0-.34.06-.42.25,0,0-.09,0-.12.09s0,.1,0,.13.17.35.34.35c0,.27.33.12.44,0s.12-.33.1-.41a1.47,1.47,0,0,0-.13-.37A.19.19,0,0,0,116.1,85.48Z"/><path class="cls-2" d="M111.92,87.42a.38.38,0,0,0,.37,0l.14,0a3.45,3.45,0,0,0,.42-.14s.05-.09.05-.14a.17.17,0,0,0-.07-.12,1,1,0,0,0-.23-.12c-.26-.1-.46,0-.71.24,0,0,0,0,0,0C111.67,87.29,111.73,87.29,111.92,87.42Z"/><path class="cls-2" d="M108.6,88.3c0,.06-.16.11-.1.18a.31.31,0,0,0,.26.17.52.52,0,0,0,.24-.05l-.14-.52a2.31,2.31,0,0,0-.24.2Z"/><path class="cls-2" d="M109,85.25l-.36.55h0l.06.08a.43.43,0,0,0,.42-.08.39.39,0,0,0-.08-.54Z"/><path class="cls-2" d="M111.09,85.42a.23.23,0,0,0-.1,0,.54.54,0,0,0-.1.18.7.7,0,0,0,.24.55c.11.11.11.12.25,0l.07,0,0,0a4.49,4.49,0,0,0-.29-.75Z"/><path class="cls-2" d="M109.92,85.37s.12.08.16,0a.67.67,0,0,0,.27-.38,2.48,2.48,0,0,0,.2-.44.06.06,0,0,0,0-.06.49.49,0,0,0-.13-.15s-.13,0-.16-.06-.1,0-.15,0a2.45,2.45,0,0,0-.35.29c-.15.15,0,.44.07.58A.85.85,0,0,1,109.92,85.37Z"/><path class="cls-2" d="M109.83,88l-.21.19a.27.27,0,0,0-.05.14.87.87,0,0,0,.37.62.63.63,0,0,0,.35-.51.53.53,0,0,0-.1-.4A.25.25,0,0,0,109.83,88Z"/><path class="cls-2" d="M108.2,84.81c.11.17.11.17.32.13,0,0,.08,0,.12,0s.13,0,.13-.09,0,0,0,0,.1,0,.09-.07,0-.18,0-.22a3.8,3.8,0,0,0-.48-.42c-.13-.1-.32,0-.32.19v.08a.56.56,0,0,0,.13.39S108.19,84.8,108.2,84.81Z"/><path class="cls-2" d="M105.3,88.72a.78.78,0,0,0-.48.2.16.16,0,0,0,0,.09.78.78,0,0,0,.21.48.53.53,0,0,0,.15.11.11.11,0,0,0,.11,0,.86.86,0,0,0,.37-.43c0-.07.06-.16,0-.19A.49.49,0,0,0,105.3,88.72Z"/><path class="cls-2" d="M109.31,87s0,0,0-.08,0,0,0,0l0-.1a.13.13,0,0,0-.13-.11h0c-.06-.11-.14,0-.2,0a.59.59,0,0,0-.2.12.28.28,0,0,0-.12.3c0,.1.06.21.18.25h0c.07.08.08.08.15,0l.11-.16,0,0C109.32,87.1,109.31,87,109.31,87Z"/><path class="cls-2" d="M108.15,86.69a.15.15,0,0,0,0-.13c-.09,0-.19-.07-.28-.11s-.29,0-.41.11-.13.27-.08.45a.71.71,0,0,0,.31.33.34.34,0,0,0,.09-.08c.12-.15.23-.3.34-.46S108.15,86.73,108.15,86.69Z"/><path class="cls-2" d="M107.6,88.38c-.12,0-.24,0-.36,0a.19.19,0,0,0-.08,0c-.09,0-.11.06-.1.16a.94.94,0,0,0,.07.22,1.27,1.27,0,0,0,.13.19s.07,0,.1,0l.17-.08s0,0,0,0,.16-.11.19-.21a.24.24,0,0,0,0-.2C107.72,88.46,107.68,88.38,107.6,88.38Z"/><path class="cls-2" d="M106.42,87.23l-.32.13a.12.12,0,0,0,0,.07.66.66,0,0,0,.16.49,1,1,0,0,0,.14.15.15.15,0,0,0,.11,0,.55.55,0,0,0,.36-.56A.33.33,0,0,0,106.42,87.23Z"/><path class="cls-2" d="M106.25,89.32c-.13,0-.15.15-.16.28l.11.26,0,0c.07.16.09.18.25.09a2.2,2.2,0,0,0,.26-.15c.21-.14.15-.33,0-.46A.44.44,0,0,0,106.25,89.32Z"/><path class="cls-2" d="M107.31,85.53a.76.76,0,0,0,.17-.32.41.41,0,0,0,0-.29l-.06-.06a.32.32,0,0,0-.35,0c-.28.18-.38.39-.11.67A.23.23,0,0,0,107.31,85.53Z"/><path class="cls-2" d="M105.05,86.85a2.4,2.4,0,0,0-.3.41c0,.09,0,.19.06.28l.16.22a.09.09,0,0,0,.16,0,.79.79,0,0,0,.15-.49c0-.14-.07-.27-.11-.4S105.06,86.83,105.05,86.85Z"/><path class="cls-2" d="M124.27,84.15l.16.22s0,0,0,0,.14.17.27,0a1.34,1.34,0,0,0,.22-.31.23.23,0,0,0-.11-.31c-.07,0-.12-.13-.22-.1a1.6,1.6,0,0,0-.31.1C124.22,83.84,124.21,84,124.27,84.15Z"/><path class="cls-2" d="M118.25,83s0,0,0,0a.47.47,0,0,0,0-.17.57.57,0,0,0-.1-.13l0,0c-.07-.11-.18-.08-.27-.07a.7.7,0,0,0-.44.16c-.2.13-.18.25-.1.43a1.76,1.76,0,0,0,.14.23c0,.06.08.09.14,0a6.16,6.16,0,0,0,.55-.33A.6.6,0,0,0,118.25,83Z"/><path class="cls-2" d="M123.84,82.74a.11.11,0,0,0,.15,0,.53.53,0,0,0,0-.49c0-.08,0-.19-.08-.27a1.08,1.08,0,0,0-.21-.22s-.08.05-.12.08a.11.11,0,0,0-.06.07c0,.16-.11.32-.16.49a3,3,0,0,0,.23.26A.67.67,0,0,0,123.84,82.74Z"/><path class="cls-2" d="M124,85c-.12,0-.25-.08-.38-.12l-.07,0a.18.18,0,0,0-.23,0c0,.06,0,.12,0,.18l.19.24c.06.07.11.14.17.2a.35.35,0,0,0,.13.08l.09-.16a.83.83,0,0,0,.16-.13s0-.06,0-.09,0-.07,0-.08S124,85,124,85Z"/><path class="cls-2" d="M120.48,80.56s0-.12,0-.19a1.34,1.34,0,0,1-.11-.14.05.05,0,0,0,0,0h0c-.08-.16-.2-.06-.31-.06s-.41.36-.33.5a.6.6,0,0,0,.3.33c.07,0,.12.07.19.09s.09,0,.1,0a1.9,1.9,0,0,0,.22-.33S120.57,80.62,120.48,80.56Z"/><path class="cls-2" d="M122.38,81.91s.09,0,.11,0a.53.53,0,0,0,.16-.46v-.15a.41.41,0,0,0-.27-.3c-.1,0-.16.05-.22.11a1.09,1.09,0,0,0-.22.26.31.31,0,0,0,0,.23A.7.7,0,0,0,122.38,81.91Z"/><path class="cls-2" d="M121.35,83.21c.06.05.1,0,.14,0a.54.54,0,0,0,.05-.35,1.54,1.54,0,0,1-.05-.17c0-.16-.13-.22-.21-.32a.13.13,0,0,0-.2,0,.58.58,0,0,0-.23.36s0,.07,0,.11a.62.62,0,0,0,.37.39Z"/><path class="cls-2" d="M120.17,83.94a.39.39,0,0,0-.24,0c-.07,0-.11.07-.06.16s.16.22.27.32a.69.69,0,0,0,.46.15.22.22,0,0,0,.2-.16s0-.12-.07-.15A4.48,4.48,0,0,0,120.17,83.94Z"/><path class="cls-2" d="M111.44,87.69a.37.37,0,0,0-.23,0c-.07,0-.11.07-.06.15s.16.23.26.33a.68.68,0,0,0,.46.14c.12,0,.17-.07.21-.15A.17.17,0,0,0,112,88,5.15,5.15,0,0,0,111.44,87.69Z"/><path class="cls-2" d="M119.72,81.76a.87.87,0,0,1-.23,0c-.11,0-.18,0-.27.13s.07.18.12.28a.52.52,0,0,0,.45.22,4.42,4.42,0,0,0,.48-.15.83.83,0,0,0,.17-.16l-.24-.17A.57.57,0,0,0,119.72,81.76Z"/><path class="cls-2" d="M118.32,81a.14.14,0,0,0,.2,0l.39-.31s0,0,0,0a1.85,1.85,0,0,0,0-.23s0-.08,0-.14l-.26-.17h-.06a1,1,0,0,0-.43.17c-.17.12-.14.2-.08.36A3.18,3.18,0,0,0,118.32,81Z"/><path class="cls-2" d="M119.12,83c-.09.1-.23.16-.28.31a.2.2,0,0,0,0,.2.53.53,0,0,0,.33.24.15.15,0,0,0,.08,0,1.07,1.07,0,0,0,.15-.22c0-.11,0-.23,0-.32a.35.35,0,0,0-.21-.22A.16.16,0,0,0,119.12,83Z"/><path class="cls-2" d="M117,82.12s0,.06.1,0a.19.19,0,0,0,.07-.25c0-.14,0-.18.14-.3s.11-.13.05-.28-.25-.14-.39-.15a.35.35,0,0,0-.3.22.28.28,0,0,0,0,.19C116.81,81.76,116.91,81.94,117,82.12Z"/><path class="cls-2" d="M116.2,84.42a.51.51,0,0,0-.34-.1c-.14,0-.21.16-.16.33a.39.39,0,0,0,.29.25,1.58,1.58,0,0,0,.53,0c.09,0,.13-.05.09-.13a.41.41,0,0,0-.12-.17Z"/><path class="cls-2" d="M117.57,84.43c-.15-.05-.19,0-.22.12a3.29,3.29,0,0,0,0,.44.43.43,0,0,0,.11.26c0,.08.15.13.17.25s.15.06.2,0a.56.56,0,0,0,0-.63Z"/><path class="cls-2" d="M116.3,82.71a5,5,0,0,0-.54.21.4.4,0,0,0,0,.32.6.6,0,0,0,.09.13.35.35,0,0,1,0,.08c0,.11,0,.12.13.06s.15-.05.13-.15c.16-.06.18-.23.29-.35l-.18-.3Z"/><path class="cls-2" d="M119.17,85a1.35,1.35,0,0,0-.29,0s-.09.06-.1.09a.14.14,0,0,0,0,.1.1.1,0,0,0,0,.08,1.49,1.49,0,0,1-.09.3c0,.1,0,.15.09.2s.15.15.23.21a.2.2,0,0,0,.11,0l0,0a.32.32,0,0,0,.27-.29.16.16,0,0,0,0-.16l-.11-.12a.13.13,0,0,1,0-.06C119.39,85.09,119.37,85,119.17,85Z"/><path class="cls-2" d="M122.18,84.26v0a1.54,1.54,0,0,0-.14-.13.18.18,0,0,0-.1,0,.28.28,0,0,0-.1.33.2.2,0,0,0-.16.1s-.08.12-.07.16a1.45,1.45,0,0,0,.18.32s.11.06.16.09a.69.69,0,0,1,.13.11.71.71,0,0,0,.09.07c0-.07.14-.1.13-.21a.65.65,0,0,0,0-.2l0-.05c.1-.14,0-.25-.09-.32S122.13,84.34,122.18,84.26Z"/><path class="cls-2" d="M50.21,103.06a.2.2,0,0,1-.13,0,.54.54,0,0,0-.48,0c-.12.06-.13.34-.08.46s0,.06,0,.08l.81-.38C50.37,103.11,50.33,103.05,50.21,103.06Z"/><path class="cls-2" d="M53.29,102.16s0,0,0,0a2.34,2.34,0,0,0-.15-.27l-.32.43a.63.63,0,0,0,.2.13.36.36,0,0,0,.31-.06C53.4,102.32,53.31,102.23,53.29,102.16Z"/><path class="cls-2" d="M52.63,104h0L52.3,104l.14.53a.52.52,0,0,0,.23-.08.35.35,0,0,0,.15-.28C52.82,104,52.7,104,52.63,104Z"/><path class="cls-2" d="M50.39,100.62s0,0,0,0-.39-.2-.53-.27,0,0,0,0a.38.38,0,0,0,.2.5C50.22,100.92,50.45,100.79,50.39,100.62Z"/><path class="cls-2" d="M48.33,101.93a.15.15,0,0,0-.11,0l-.09,0a4.42,4.42,0,0,0,.12.8h.11c.17,0,.16,0,.2-.15a.68.68,0,0,0-.06-.59A.5.5,0,0,0,48.33,101.93Z"/><path class="cls-2" d="M49.13,101.16v-.22c0-.22,0-.47-.23-.53s-.56-.16-.69.13a.65.65,0,0,0,0,.19.11.11,0,0,0,0,.06,2.21,2.21,0,0,0,.4.28.69.69,0,0,0,.42.2C49.07,101.29,49.13,101.22,49.13,101.16Z"/><path class="cls-2" d="M50.93,103.94l-.28-.07a.25.25,0,0,0-.28.22.51.51,0,0,0,.11.4.63.63,0,0,0,.56.26.86.86,0,0,0,0-.72A.19.19,0,0,0,50.93,103.94Z"/><path class="cls-2" d="M50.48,98.8c-.08-.14-.32-.16-.38,0a3.35,3.35,0,0,0-.2.61c0,.06.05.13.08.2s.07.05.11,0,0,0,0,0,.11,0,.16,0,.07,0,.11-.06.19-.07.2-.27c0,0,0,0,0,0a.61.61,0,0,0-.09-.4Z"/><path class="cls-2" d="M56,101.92a.85.85,0,0,0,.54.19.16.16,0,0,0,.09,0,1.34,1.34,0,0,0,.07-.18.69.69,0,0,0-.05-.51s0-.07-.07-.07a.82.82,0,0,0-.52.06.51.51,0,0,0-.19.41S56,101.87,56,101.92Z"/><path class="cls-2" d="M50.82,101.61a1,1,0,0,0-.34,0c-.09,0-.25,0-.25.15l0,0a.17.17,0,0,0-.08.23l.12.09.06.06c.09,0,.08,0,.12.06s.08.16.2.11,0,0,.05,0l.26.12c.15.06.16.06.19-.1a0,0,0,0,0,0,0c.14-.13.09-.29,0-.44A.38.38,0,0,0,50.82,101.61Z"/><path class="cls-2" d="M52,100.59c-.14,0-.3,0-.41.1s-.14.16-.19.24,0,.1,0,.14a.45.45,0,0,0,.12.06l.52.22a.53.53,0,0,0,.12,0,.67.67,0,0,0,.1-.45C52.27,100.75,52.22,100.6,52,100.59Z"/><path class="cls-2" d="M55,101.72l-.12,0a2.93,2.93,0,0,0-.44.21c-.09.05-.08.18-.09.28a.25.25,0,0,0,.16.21s0,.07,0,.07.21.13.35.07h0a1.1,1.1,0,0,0,.26,0,.16.16,0,0,0,.09-.12,1,1,0,0,0,0-.3.88.88,0,0,0-.07-.32C55.19,101.72,55.13,101.68,55,101.72Z"/><path class="cls-2" d="M53.68,100.59l-.33,0a.34.34,0,0,0-.21.46.55.55,0,0,0,.59.3.11.11,0,0,0,.09-.07,1.29,1.29,0,0,0,0-.19.66.66,0,0,0-.1-.51A.1.1,0,0,0,53.68,100.59Z"/><path class="cls-2" d="M54,103a.54.54,0,0,0-.46.35c-.09.23,0,.47.26.49h.37c.21,0,.23,0,.21-.25v0c0-.11,0-.23,0-.34S54.2,102.94,54,103Z"/><path class="cls-2" d="M53.77,99.32a3.75,3.75,0,0,0,0-.58.35.35,0,0,0-.2-.31l-.17-.07A2.24,2.24,0,0,0,53,99a.22.22,0,0,0,.12.32s0,0,0,0a.84.84,0,0,0,.28.34c.1.1.16.09.2,0l0-.06A.63.63,0,0,0,53.77,99.32Z"/><path class="cls-2" d="M51.66,99a.39.39,0,0,0-.37.17.29.29,0,0,0,0,.09.48.48,0,0,0,.17.29.89.89,0,0,0,.35.23c.18.05.33,0,.36-.17C52.25,99.15,52,99,51.66,99Z"/><path class="cls-2" d="M54.73,99.9c0,.16.08.32.12.47a.94.94,0,0,0,.44.42.11.11,0,0,0,.17-.09l0-.32c0-.13,0-.27-.11-.33a3.39,3.39,0,0,0-.55-.24S54.72,99.88,54.73,99.9Z"/><path class="cls-2" d="M52.39,102.67l-.37,0a1.49,1.49,0,0,0-.18.17c-.09.12-.08.15,0,.27l.09.12.06.06h.58c.06,0,.08-.06.06-.13l0-.12c0-.07,0-.13,0-.19S52.49,102.67,52.39,102.67Z"/><path class="cls-2" d="M49,104.32a.45.45,0,0,0-.2.12,4.56,4.56,0,0,0-.33.56s0,.15,0,.17a.22.22,0,0,0,.26,0,.66.66,0,0,0,.32-.36c0-.13.13-.26.07-.41S49.11,104.3,49,104.32Z"/><path class="cls-2" d="M68.15,99.65s-.05,0-.08,0a.55.55,0,0,0-.48-.11c-.18,0-.23.16-.12.3a1,1,0,0,0,.2.21l.71-.1C68.34,99.8,68.31,99.67,68.15,99.65Z"/><path class="cls-2" d="M61.55,99.05c-.16-.06-.47-.07-.57.12a3,3,0,0,0-.16.42c0,.06,0,.11,0,.15s.06.1.1.13a.54.54,0,0,0,.19.07s0,0,.06,0a2.18,2.18,0,0,0,.35-.33.68.68,0,0,0,.28-.37.1.1,0,0,0-.09-.14Z"/><path class="cls-2" d="M69.33,99.13a.24.24,0,0,0,.15.32.51.51,0,0,0,.42,0,.65.65,0,0,0,.37-.49.87.87,0,0,0-.71-.16.28.28,0,0,0-.12.1A2,2,0,0,0,69.33,99.13Z"/><path class="cls-2" d="M60.26,100.47a1.13,1.13,0,0,0-.32.06c-.1,0-.1.12-.14.19a.23.23,0,0,0,.06.33,1.06,1.06,0,0,0,.34.16c.19.05.19,0,.22-.16,0,0,0,0,0,0s0-.21,0-.27S60.35,100.46,60.26,100.47Z"/><path class="cls-2" d="M67,96.32c0-.11,0-.22,0-.32s-.07-.37-.36-.39a.88.88,0,0,0-.55.09c-.1.06-.23.08-.23.24s0,0,0,0a.63.63,0,0,0,0,.19,1.34,1.34,0,0,0,.07.18.05.05,0,0,0,.05,0,.67.67,0,0,0,.19,0l.76,0C67,96.46,67,96.4,67,96.32Z"/><path class="cls-2" d="M59.8,98s-.13,0-.14,0a.82.82,0,0,0-.07.3c0,.09.06.18.07.27a.52.52,0,0,0,.27.4.11.11,0,0,0,.16,0,.71.71,0,0,0,.11-.21,2,2,0,0,0,.07-.35L59.89,98A.25.25,0,0,0,59.8,98Z"/><path class="cls-2" d="M61.57,101.2l0,.07-.27.3s-.08.11,0,.12,0,0,0,.08,0,.09,0,.09l.21,0,.16.1s.05-.09.07-.14a2,2,0,0,0,0-.26c0-.1,0-.2,0-.3s0-.15-.06-.17A.18.18,0,0,0,61.57,101.2Z"/><path class="cls-2" d="M61.86,97s.12.08.15.07a1.09,1.09,0,0,1,.23-.09.5.5,0,0,0,.28-.21.17.17,0,0,0,0-.27l-.43-.06a.35.35,0,0,0-.25,0,.91.91,0,0,1-.38.13s-.1.07-.1.1,0,.13.08.14.19.05.28.08A.8.8,0,0,1,61.86,97Z"/><path class="cls-2" d="M62.57,95.7a3,3,0,0,0,.36.18s.07,0,.09,0,.07-.13.11-.18a.58.58,0,0,0,.1-.44c0-.15-.39-.35-.54-.26s-.25,0-.23.21l0,0,0,0c0,.06,0,.12,0,.18s.13.13.12.15S62.53,95.67,62.57,95.7Z"/><path class="cls-2" d="M69.5,97.87a3.9,3.9,0,0,0,.35.19s.07,0,.09-.06.07-.12.12-.17a.63.63,0,0,0,.1-.44c0-.16-.39-.35-.54-.26s-.25,0-.23.2c0,0,0,0,0,0s0,0,0,0l0,.18c0,.05.13.13.12.15S69.45,97.85,69.5,97.87Z"/><path class="cls-2" d="M62.59,97.77c-.08,0-.17-.06-.24,0a.45.45,0,0,0-.09.4.33.33,0,0,1,.07.13.59.59,0,0,0,.37.32.18.18,0,0,0,.13,0A.74.74,0,0,0,63,98.1a.32.32,0,0,0-.1-.22A1.1,1.1,0,0,0,62.59,97.77Z"/><path class="cls-2" d="M64.07,100.52a1.65,1.65,0,0,0-.2.31.22.22,0,0,0,.13.28.2.2,0,0,1,.15.1s.07.05.11.06,0,0,.06-.06a1.05,1.05,0,0,0,0-.61,0,0,0,0,1,0,0C64.27,100.41,64.18,100.38,64.07,100.52Z"/><path class="cls-2" d="M63.85,98.15c.07,0,.12,0,.16,0l.06-.11a.55.55,0,0,0,.13-.52.24.24,0,0,0,0-.1.5.5,0,0,0-.37-.19.12.12,0,0,0-.16.11c0,.12-.1.24,0,.38a1,1,0,0,1,0,.18A.5.5,0,0,0,63.85,98.15Z"/><path class="cls-2" d="M64.53,98.52a.37.37,0,0,0-.2.12,3.44,3.44,0,0,0-.33.56.2.2,0,0,0,0,.17.22.22,0,0,0,.26,0,.7.7,0,0,0,.32-.36c0-.14.13-.27.07-.42A.09.09,0,0,0,64.53,98.52Z"/><path class="cls-2" d="M65.49,100c-.2-.07-.31,0-.25.24s0,.21.07.32a.22.22,0,0,0,.07.06l.08,0,.28.17c.06,0,.1,0,.11-.06a.55.55,0,0,0,0-.18c0-.11,0-.21,0-.32a.22.22,0,0,0-.06-.07A1.47,1.47,0,0,0,65.49,100Z"/><path class="cls-2" d="M63.78,96.53a2.68,2.68,0,0,0,.49-.11.52.52,0,0,0,.28-.41c0-.11,0-.21,0-.31s-.21,0-.3,0a.78.78,0,0,1-.2.11.64.64,0,0,0-.34.38c0,.08-.07.16-.11.27A.59.59,0,0,0,63.78,96.53Z"/><path class="cls-2" d="M64.09,94.59l0,0,.5.07a.13.13,0,0,0,.15-.13c0-.12,0-.24,0-.36s0-.25-.25-.27A.91.91,0,0,0,64,94s0,0,0,0a2.53,2.53,0,0,0-.14.29l.08.11Z"/><path class="cls-2" d="M65.81,98a.11.11,0,0,0,.1,0,.67.67,0,0,0,.22-.47.32.32,0,0,0-.13-.23c-.15-.13-.34-.09-.51-.16a.21.21,0,0,0-.16,0,.42.42,0,0,0-.09.37c.08.09.16.22.26.32A1,1,0,0,0,65.81,98Z"/><path class="cls-2" d="M65.78,94.31c.19,0,.23,0,.26.18s.1.19.2.19.07,0,.07-.08,0-.41,0-.61a.27.27,0,0,0-.06-.19.32.32,0,0,0-.37,0c-.12.07-.3.09-.26.31S65.62,94.29,65.78,94.31Z"/><path class="cls-2" d="M68.21,97a.71.71,0,0,0,0,.21c0,.09.07.1.15.07a1.6,1.6,0,0,0,.44-.29.39.39,0,0,0,.13-.37c0-.17-.18-.26-.3-.2a.46.46,0,0,0-.25.26C68.3,96.81,68.25,96.91,68.21,97Z"/><path class="cls-2" d="M67.26,97.74l0,.5c0,.22.08.47.33.54.07,0,.18,0,.16-.11a.75.75,0,0,1,0-.3.53.53,0,0,0,0-.28,2.27,2.27,0,0,0-.26-.35C67.41,97.62,67.36,97.63,67.26,97.74Z"/><path class="cls-2" d="M67.56,95.16h0v.34c.15.06.26.19.42.16s.12.06.19.07.11,0,.08-.12a.14.14,0,0,1,0-.09s0-.11,0-.16a.47.47,0,0,0-.12-.3A5.81,5.81,0,0,0,67.56,95.16Z"/><path class="cls-2" d="M60.39,97.61s0,0,0,0,.09.1.13.1.12,0,.19-.12.11-.11.21-.08.13,0,.14,0a.25.25,0,0,0,0-.17.26.26,0,0,0-.44,0l-.06,0a.84.84,0,0,0-.08-.19h0a.22.22,0,0,0-.14-.09s-.09.07-.1.12,0,.23,0,.33.11.07.14.12Z"/><path class="cls-2" d="M66.29,98.7s-.06,0-.08,0a.14.14,0,0,0,0-.11s-.08,0-.13,0a1.41,1.41,0,0,0-.23.18c-.13.16-.12.21,0,.32l0,0c0,.06,0,.11,0,.16a.16.16,0,0,0,0,.16.31.31,0,0,0,.38.12h0l.09-.06.09-.3c0-.08,0-.16,0-.22A1.26,1.26,0,0,1,66.29,98.7Z"/><path class="cls-2" d="M63.07,99.87a.24.24,0,0,0-.2,0,.27.27,0,0,0-.24-.24.1.1,0,0,0-.08.06.76.76,0,0,0-.06.18s0,0,0,0,.14.1.09.22-.07.26.09.33l.06,0a.6.6,0,0,0,.06.19c0,.1.14.08.22.12a.49.49,0,0,0,0-.11.94.94,0,0,1,.06-.15.89.89,0,0,0,.09-.16,1.53,1.53,0,0,0,0-.37S63.12,99.89,63.07,99.87Z"/><path class="cls-2" d="M121.37,41.1a4.65,4.65,0,0,0,2.13.31l-.34-1.29a3.23,3.23,0,0,1-.9-.58,2.76,2.76,0,0,1-.88-1.77l-2.74.74A5.21,5.21,0,0,0,121.37,41.1Z"/><path class="cls-2" d="M131,38.66a2.85,2.85,0,0,1,1.77-.89L132.05,35a5.14,5.14,0,0,0-2.59,2.73,4.64,4.64,0,0,0-.32,2.13l1.29-.35A3.42,3.42,0,0,1,131,38.66Z"/><path class="cls-2" d="M126.11,40l.67-1.16a3,3,0,0,1-.22-1,2.77,2.77,0,0,1,.62-1.88l-2.45-1.41a5.2,5.2,0,0,0,.09,3.75A4.72,4.72,0,0,0,126.11,40Z"/><path class="cls-2" d="M149.38,55.22a24.78,24.78,0,0,1-6.48,8.07,23.84,23.84,0,0,1-9.18,4.65A24.22,24.22,0,0,1,114,64.6l-1.42,2.13a27.08,27.08,0,0,0,5.57,2.78,43.76,43.76,0,0,1,4.73,8.06,7.5,7.5,0,0,0-9.93,5,6.87,6.87,0,0,0-10.49,3,17.7,17.7,0,0,0-5-4.5,17.17,17.17,0,0,0-23.94,6.41,17.86,17.86,0,0,0-2.08,6.3A8.3,8.3,0,0,0,57,97.1,7.49,7.49,0,0,0,46,98.7c-.4-1.73-.72-3.48-1-5.23a58,58,0,0,1-.34-13.87c.14-1.46.35-2.92.61-4.36a15.64,15.64,0,0,1,5.49-2.18l-.66-2.47A18.16,18.16,0,0,0,46,72.13a46.07,46.07,0,0,1,8.64-18,37.49,37.49,0,0,1,10.32-9c.19-.12.39-.22.58-.33a29.86,29.86,0,0,0,.09,8.39,25,25,0,0,0,1.69,5.92,25.85,25.85,0,0,0,3.11,5.3,32.2,32.2,0,0,0,9.24,7.86h0l.68.39.63-.42,10.1-6.73-.93-1.51L80.3,69.74a29.11,29.11,0,0,1-7.86-6.82,23.39,23.39,0,0,1-2.79-4.75,22.56,22.56,0,0,1-1.51-5.31,28.34,28.34,0,0,1,.18-9.41,38.16,38.16,0,0,1,9.48-2.8,37,37,0,0,1,13.67.49,42.44,42.44,0,0,1,12.72,5.24l1.14-1.8A42.22,42.22,0,0,0,92,38.81a38.66,38.66,0,0,0-23,1.58,42,42,0,0,1,1.32-4.07,37.11,37.11,0,0,1,2.37-5.1l-2.2-1.31a39.55,39.55,0,0,0-2.56,5.5,42.08,42.08,0,0,0-1.75,5.76c0,.17-.07.35-.11.52-.82.41-1.63.83-2.42,1.3a40.42,40.42,0,0,0-11,9.57,49.33,49.33,0,0,0-9.7,21.56A17.73,17.73,0,0,0,36.61,84.8a17.62,17.62,0,0,0,.12,6.75l1.61-.43a15.7,15.7,0,0,1,2.53-11.59,16.22,16.22,0,0,1,1.48-1.83c-.07.55-.13,1.1-.19,1.65a61,61,0,0,0,.35,14.48,68.63,68.63,0,0,0,1.43,7.1c.33,1.29.68,2.56,1,3.83,0,0,0,.06,0,.09h0c.26,1,.53,2,.8,3l.33,1.23,1.23-.33,26-7,1.24-.33-.33-1.24a15.42,15.42,0,0,1,1.39-11.45,14.6,14.6,0,0,1,20.38-5.47A15.46,15.46,0,0,1,103,92.47l.33,1.24,1.24-.33,22.74-6.1,1.17-.31-.26-1.2A46.63,46.63,0,0,0,122,70.6q.55.12,1.11.21a26.54,26.54,0,0,0,11.25-.66,26.2,26.2,0,0,0,9.94-5.23,26.83,26.83,0,0,0,6.88-8.84ZM57.47,103.35l-.91.24.12-.12a.42.42,0,0,0,.08-.38c-.07-.17-.21-.24-.33-.17a.51.51,0,0,0-.21.29l-.1.34a.86.86,0,0,0,0,.16l-8.2,2.2c-.14-.53-.28-1.06-.43-1.59h0c.15,0,.3-.06.44-.09l.14,0a.33.33,0,0,0,.32-.17c.11-.21.16-.24-.1-.29l0,0c-.31-.06-.52-.11-.74.16a.54.54,0,0,0-.11.18A4.94,4.94,0,0,1,57,101.63Zm13.67-3.67-11.11,3-.55-2a5.72,5.72,0,0,1,1.81-5.83.76.76,0,0,0-.08.42.48.48,0,0,1,0,.17c0,.12,0,.2.09.29l.29-.15a.19.19,0,0,0,.1-.21c0-.11,0-.21,0-.31a.46.46,0,0,0-.18-.32l0,0a5.74,5.74,0,0,1,9.16,3Zm42.23-11.31-8.27,2.21-.49-1.36a4.34,4.34,0,0,1,.85-3.87.31.31,0,0,0,0,.31,2.88,2.88,0,0,0,.24.46.83.83,0,0,0,.17.15l.06,0c.1.08.14.06.18-.06a.73.73,0,0,0,.06-.39v0c.08-.13.07-.21,0-.3a2,2,0,0,0-.55-.3A4.32,4.32,0,0,1,113,87Zm12-3.23-4.2,1.13a.75.75,0,0,1,.07-.12l0-.09a.26.26,0,0,0,0-.08l-.09-.31c-.06-.2-.2-.24-.34-.09a1.68,1.68,0,0,0-.21.37s0,0,0,.09.12.17.19.25l0,0-3.48.93.46-.51a1.4,1.4,0,0,0-.06-.28c-.06-.17-.19-.19-.32-.06a.53.53,0,0,0-.18.46.19.19,0,0,1,0,.08c-.07.14,0,.23.08.32l-1.58.43-.37-1.39-.13-.46a5,5,0,0,1,5.6-6.17.13.13,0,0,0,0,.11.42.42,0,0,0,.19.31l.23.2a.2.2,0,0,0,.24,0l.27-.17c0-.07-.08-.18-.19-.22a.38.38,0,0,1-.15-.09l-.11-.08a5,5,0,0,1,3.56,3.52Z"/><path class="cls-2" d="M111.77,49.8l0,0a.68.68,0,0,0,.54,0,.18.18,0,0,0,.09-.08.58.58,0,0,0-.05-.43,2.27,2.27,0,0,0-.45-.48c-.16-.11-.32-.14-.39,0h0c-.15.06,0,.39,0,.53S111.54,49.78,111.77,49.8Z"/><path class="cls-2" d="M132.67,43.22l-.72.11c0,.12.07.25.23.27a.19.19,0,0,1,.08,0,.57.57,0,0,0,.49.11c.17,0,.23-.16.12-.31Z"/><path class="cls-2" d="M122.92,45.86a.26.26,0,0,1,.13.06.53.53,0,0,0,.47.09c.14,0,.22-.3.19-.43s0-.06,0-.08l-.89.18C122.78,45.78,122.81,45.85,122.92,45.86Z"/><path class="cls-2" d="M126.84,45.12a.51.51,0,0,0,.36-.31.31.31,0,0,1,.08-.11.12.12,0,0,0,0-.22l-.86.29s0,0,0,.08S126.71,45.17,126.84,45.12Z"/><path class="cls-2" d="M140.34,56.81a.65.65,0,0,0,.44.13c.05,0,.12,0,.15-.1a1,1,0,0,0,.07-.24c0-.13,0-.26.06-.37s-.15-.33-.35-.32a.32.32,0,0,0-.14,0l-.06,0a.77.77,0,0,0-.42.57.15.15,0,0,0,.07.18A.61.61,0,0,1,140.34,56.81Z"/><path class="cls-2" d="M128.85,45.1a1,1,0,0,0,0-.29.68.68,0,0,0-.36-.52c-.2-.09-.35.2-.48.28s-.17.69.09.67h.1a.83.83,0,0,0,.54,0A.13.13,0,0,0,128.85,45.1Z"/><path class="cls-2" d="M131.94,62.2a.68.68,0,0,1,.2,0,.61.61,0,0,0,.48-.2c.09-.07,0-.41,0-.5a.68.68,0,0,0-.64-.19l-.09.13a1.36,1.36,0,0,0,0,.69C131.81,62.2,131.86,62.21,131.94,62.2Z"/><path class="cls-2" d="M139.22,42.16a.55.55,0,0,0,.38,0c.18-.08.27-.31.35-.56,0,0,.05-.11,0-.14s-.06-.11-.11-.14a.56.56,0,0,0-.18-.07.06.06,0,0,0-.06,0,1.88,1.88,0,0,0-.36.33h0c-.15.07-.2.23-.27.37a.1.1,0,0,0,.09.14Z"/><path class="cls-2" d="M117.13,59.6c.1,0,.19,0,.25-.07a1.13,1.13,0,0,0,.23-.45c0-.12,0-.23-.22-.32a.63.63,0,0,0-.62.11.76.76,0,0,0-.18.25s0,.08,0,.09A1.65,1.65,0,0,0,117.13,59.6Z"/><path class="cls-2" d="M114.31,56a.56.56,0,0,0-.47-.06.16.16,0,0,0-.07.07,2.2,2.2,0,0,0-.09.21c0,.09-.06.2-.08.28s.1.14.18.18l.09,0a.72.72,0,0,0,.48.07.18.18,0,0,0,.09-.06.67.67,0,0,0,0-.48A.47.47,0,0,0,114.31,56Z"/><path class="cls-2" d="M145.46,46.19s0-.06,0-.09.1-.32-.06-.47-.44-.22-.6-.1a.88.88,0,0,0-.24.36.15.15,0,0,0,.09.19,1,1,0,0,0,.26.11,2.71,2.71,0,0,0,.41.09S145.43,46.23,145.46,46.19Z"/><path class="cls-2" d="M132,44.7a.57.57,0,0,0-.08-.26c-.07-.09-.18-.14-.23-.23l0-.05h-.08c-.16,0-.26,0-.34.16a1,1,0,0,0-.07.55c0,.13.23.14.36.17a.58.58,0,0,0,.29,0s.11,0,.14-.08A.26.26,0,0,0,132,44.7Z"/><path class="cls-2" d="M138.2,42.64s.07,0,.07,0a2.26,2.26,0,0,0,.16-.48.55.55,0,0,0-.16-.3c-.12-.08-.24.06-.34,0a.18.18,0,0,0-.17,0c-.06.07-.11.17-.16.24s-.11.19,0,.32A.63.63,0,0,0,138.2,42.64Z"/><path class="cls-2" d="M133.67,43.4c0,.14,0,.17.13.16a.76.76,0,0,1,.15,0,.92.92,0,0,0,.3,0,.43.43,0,0,0,.25-.67c-.27-.43-.48,0-.66.22A.6.6,0,0,0,133.67,43.4Z"/><path class="cls-2" d="M112.27,54s-.4-.18-.43-.09h0a1.57,1.57,0,0,0,.13.47.55.55,0,0,0,.13.25c.14.13.26.3.49.32s.19,0,.22-.13,0-.13,0-.19a1.21,1.21,0,0,0-.14-.2A1.61,1.61,0,0,0,112.27,54Z"/><path class="cls-2" d="M140.55,42.39a.84.84,0,0,0,.54.08s.11,0,.12-.09a1.09,1.09,0,0,0,0-.4.36.36,0,0,0-.26-.3l-.08,0s-.08,0-.1,0a.61.61,0,0,0-.35.3l-.06.15c-.06.14,0,.22.11.28Z"/><path class="cls-2" d="M113.51,48.89a.74.74,0,0,1,.14,0,.74.74,0,0,0,.29,0c.19,0,.33-.13.31-.42,0-.07,0-.15,0-.19a1,1,0,0,0-.25-.2.29.29,0,0,0-.27,0c-.13.05-.14.18-.2.27a.92.92,0,0,0-.09.38C113.39,48.85,113.4,48.91,113.51,48.89Z"/><path class="cls-2" d="M144.66,47.26s0,.05-.06.08-.08.26-.11.39a.12.12,0,0,0,.1.16l.12,0,.43.05c.19-.07.24-.13.24-.31a1.08,1.08,0,0,0,0-.18.32.32,0,0,0-.37-.3A1.39,1.39,0,0,0,144.66,47.26Z"/><path class="cls-2" d="M144.64,40.55a.67.67,0,0,0,.6.05c.06,0,.1-.09.14-.14a.14.14,0,0,0,0-.11,1,1,0,0,0-.08-.3.88.88,0,0,0-.2-.18c-.07-.06-.29-.13-.37-.07a.35.35,0,0,0-.08.11,2.13,2.13,0,0,0-.11.34.17.17,0,0,1,0,.07C144.49,40.48,144.5,40.48,144.64,40.55Z"/><path class="cls-2" d="M115.77,48.53a.21.21,0,0,0,.22-.12.59.59,0,0,0,.08-.53.38.38,0,0,0-.22-.21.27.27,0,0,0-.4.2c0,.09-.11.16-.18.24a.12.12,0,0,0,0,.16A.59.59,0,0,0,115.77,48.53Z"/><path class="cls-2" d="M142.1,55.12a2.83,2.83,0,0,0,.24-.25.57.57,0,0,0,.11-.16c.06-.13.09-.28.16-.41a.23.23,0,0,0,0-.18c0-.07-.2,0-.38.05a.86.86,0,0,0-.32.21,1,1,0,0,0-.12.38.65.65,0,0,0,0,.31A.17.17,0,0,0,142.1,55.12Z"/><path class="cls-2" d="M134.75,60.81a1.7,1.7,0,0,0,.39,0c.07,0,.19-.09.19-.14s0-.35-.11-.48a.49.49,0,0,0-.58-.06l0,0a.35.35,0,0,0-.1.22C134.45,60.7,134.34,60.76,134.75,60.81Z"/><path class="cls-2" d="M127.44,62.81a.64.64,0,0,0,.36-.08.18.18,0,0,0,.09-.1.42.42,0,0,0-.25-.39c-.23-.08-.67-.32-.73,0a.52.52,0,0,0,0,.21C127,62.65,127.24,62.78,127.44,62.81Z"/><path class="cls-2" d="M110.16,49.74a.4.4,0,0,0,.22,0,.55.55,0,0,0,.31-.61s-.06-.09-.1-.1a.8.8,0,0,0-.27,0l-.45.21c-.13.06-.23.24-.14.36S110.05,49.72,110.16,49.74Z"/><path class="cls-2" d="M130.14,44.51a.17.17,0,0,0,.12-.1,1.23,1.23,0,0,0,.12-.26.24.24,0,0,0-.15-.32.54.54,0,0,0-.43,0,.65.65,0,0,0-.37.49A.87.87,0,0,0,130.14,44.51Z"/><path class="cls-2" d="M144.89,42.76a.89.89,0,0,0,.6.09c.09,0,.18-.07.17-.19s0-.21,0-.31-.23-.34-.39-.23a.6.6,0,0,0-.08.08h0c-.09.09-.18,0-.27.16s-.17.26-.12.33A.2.2,0,0,0,144.89,42.76Z"/><path class="cls-2" d="M120.71,46.71h0a.94.94,0,0,0,.5,0,.62.62,0,0,0,.38-.37.22.22,0,0,0,0-.14s-.08-.1-.11-.1l-.45.09a.33.33,0,0,1-.14,0,.34.34,0,0,0-.32.18C120.49,46.62,120.45,46.65,120.71,46.71Z"/><path class="cls-2" d="M129.1,62.75h.35a.39.39,0,0,0,.42-.52s0,0,0-.06-.37-.25-.54-.13l0,0a.72.72,0,0,0-.28.46C129,62.67,129,62.74,129.1,62.75Z"/><path class="cls-2" d="M111.64,52.37c0-.15-.11-.41-.25-.49a.37.37,0,0,0-.36.06.47.47,0,0,0-.14.14.35.35,0,0,0,0,.3.59.59,0,0,0,.54.33.1.1,0,0,0,.1,0A.37.37,0,0,0,111.64,52.37Z"/><path class="cls-2" d="M117.4,47.59a1,1,0,0,0,.62-.06c.2-.06.24-.15.31-.34-.29-.24-.81.05-1.13.07a.32.32,0,0,0-.1.14.24.24,0,0,0,.08.1Z"/><path class="cls-2" d="M144.5,49.73a1,1,0,0,0-.43.55s.07.2.12.21a1.55,1.55,0,0,1,.23,0,.18.18,0,0,0,.23-.14l.07-.18a3.37,3.37,0,0,0,.1-.34c0-.07-.07-.16-.12-.18A.28.28,0,0,0,144.5,49.73Z"/><path class="cls-2" d="M124.68,46.69a2.53,2.53,0,0,0,.46.06c.19,0,.24-.11.22-.3s-.08-.14-.14-.18a.55.55,0,0,0-.6,0,.34.34,0,0,0-.14.28c0,.09.11.08.18.11Z"/><path class="cls-2" d="M125.31,45.87a.49.49,0,0,0,.18-.4.37.37,0,0,0-.48-.24.42.42,0,0,0-.21.37A.58.58,0,0,0,125.31,45.87Z"/><path class="cls-2" d="M110.9,50.77a.45.45,0,0,0,.5.35.4.4,0,0,0,.22-.17c.19-.31-.35-.82-.71-.56C110.82,50.45,110.88,50.68,110.9,50.77Z"/><path class="cls-2" d="M128.49,52a3.57,3.57,0,0,0,0,.46.31.31,0,0,0,.28.29l.34,0h.08c.15,0,.46-.1.37-.32,0-.06-.11-.09-.16-.13a.11.11,0,0,1-.07-.09.15.15,0,0,0-.1-.16L129,52l-.36-.11C128.56,51.86,128.49,51.9,128.49,52Z"/><path class="cls-2" d="M129.34,55.83a.54.54,0,0,0,.48.18c.21-.06.58-.06.64-.32a.09.09,0,0,0,0,0c0-.17-.14-.26-.27-.36a1.26,1.26,0,0,0-.29-.12c-.09,0-.17,0-.21.07s0,0,0,0a.9.9,0,0,0-.33.46S129.33,55.8,129.34,55.83Z"/><path class="cls-2" d="M130,53s-.1,0-.11,0a.2.2,0,0,0,0,.13.33.33,0,0,0,0,.14,2.64,2.64,0,0,0,0,.28.45.45,0,0,0,.37.26c.06,0,.12,0,.1-.11s0-.21,0-.32a1.17,1.17,0,0,0-.06-.2A.34.34,0,0,0,130,53Z"/><path class="cls-2" d="M127.05,46.59a1,1,0,0,0,.44-.76c-.14,0-.91-.15-.87.12a2.51,2.51,0,0,1,0,.27.49.49,0,0,0,.08.29C126.84,46.66,126.91,46.69,127.05,46.59Z"/><path class="cls-2" d="M126.58,47.76s.07,0,.1,0,.06.05.1.05c.1-.43-.2-.72-.3-1.11,0,0-.1-.06-.15-.07s-.07.06-.08.1a1.55,1.55,0,0,0,0,.23C126.19,47.07,126.39,47.82,126.58,47.76Z"/><path class="cls-2" d="M127.27,50.36a.43.43,0,0,1,0,0,.75.75,0,0,0,0,.51c0,.08,0,.15.16.15s.07,0,0,.09a.46.46,0,0,1-.07.07.9.9,0,0,0-.32.42c-.08.17.23.4.33.51a.09.09,0,0,0,0,0h0a.43.43,0,0,0,.3-.45,1.26,1.26,0,0,0-.13-.54.09.09,0,0,1,0-.07.12.12,0,0,1,0,0,.67.67,0,0,0,.22-.37.28.28,0,0,0,0-.18.35.35,0,0,0-.14-.13C127.59,50.3,127.3,50.08,127.27,50.36Z"/><path class="cls-2" d="M128.22,56.13a.16.16,0,0,0,0,.22l.26.33s.06,0,.09,0l0,0s.1,0,.13,0a.2.2,0,0,0,.08-.14,1.7,1.7,0,0,0,0-.55.31.31,0,0,0-.09-.18s-.11-.07-.14,0a.61.61,0,0,0-.32.31S128.25,56.1,128.22,56.13Z"/><path class="cls-2" d="M127.72,54.08a.12.12,0,0,0-.12,0,1.4,1.4,0,0,0-.17.09.64.64,0,0,0-.22.35c0,.12,0,.18.06.26s.33.34.5.27.39-.16.27-.46A2.23,2.23,0,0,0,127.72,54.08Z"/><path class="cls-2" d="M125.22,49.33a.37.37,0,0,0,.17.1s.08,0,.11,0a1.38,1.38,0,0,0,.27-.14.88.88,0,0,0,.14-.23.18.18,0,0,0,0-.12,1.5,1.5,0,0,0,0-.29l-.15,0c-.13-.13-.14-.13-.33-.12h-.08c-.16,0-.16,0-.2.15A.71.71,0,0,0,125.22,49.33Z"/><path class="cls-2" d="M127.83,59.16c0-.08-.06-.18-.15-.21s-.29.14-.37.23a.87.87,0,0,0-.19.28.66.66,0,0,0,.1.38s.07.16.13.18.11-.05.2,0l0,0a.22.22,0,0,0,.22,0c.12,0,.11-.14.08-.23s-.07-.17,0-.25,0-.06,0-.09a.25.25,0,0,0,0-.12Z"/><path class="cls-2" d="M126.47,53.57a.31.31,0,0,0,.16,0c.16,0,.38-.19.28-.38s-.15-.13-.19-.24-.06-.28-.22-.43a.21.21,0,0,0-.13,0c-.16.16-.37.3-.4.55,0,.06,0,.14,0,.17S126.27,53.54,126.47,53.57Z"/><path class="cls-2" d="M131.32,50.66s-.1,0-.12,0-.38.29-.41.55a.31.31,0,0,0,0,.17c.15.15.27.34.47.37a.56.56,0,0,0,.17,0c.15,0,.37-.19.27-.38s-.14-.14-.18-.24A.83.83,0,0,0,131.32,50.66Z"/><path class="cls-2" d="M125.65,51.85a.8.8,0,0,0-.28-.13s-.08,0-.09,0a1.59,1.59,0,0,0-.27.59.2.2,0,0,0,.12.23l.49.19.18-.2s0,0,0,0l.08-.15,0-.15s-.06-.08-.06-.11S125.72,51.92,125.65,51.85Z"/><path class="cls-2" d="M124.44,51.17c.1,0,.44.11.46,0s.09-.08.11-.13a.65.65,0,0,0,0-.2.11.11,0,0,0,0-.05,2.7,2.7,0,0,0-.4-.29h0a.69.69,0,0,0-.42-.2c-.06,0-.12,0-.12.11a.83.83,0,0,1,0,.22A.51.51,0,0,0,124.44,51.17Z"/><path class="cls-2" d="M125.1,55.48a.16.16,0,0,0,.08.08.57.57,0,0,0,.51,0c.12-.42,0-.47-.39-.65-.07,0-.11,0-.15,0A.66.66,0,0,0,125.1,55.48Z"/><path class="cls-2" d="M126,56.87c.11.16.18.39.44.4.08,0,.2.08.23-.06a.87.87,0,0,0-.14-.42c-.09-.18-.19-.36-.29-.53a.31.31,0,0,0-.11-.09.16.16,0,0,0-.09.06,1.11,1.11,0,0,0-.07.16A.54.54,0,0,0,126,56.87Z"/><path class="cls-2" d="M124.45,47.55a1.5,1.5,0,0,0-.37.34.6.6,0,0,0-.17.23.92.92,0,0,0-.07.59c.06.16.07.19.23.15s.1-.08.14-.13a2.53,2.53,0,0,0,.13-.22,2.16,2.16,0,0,0,.21-.55C124.56,47.91,124.57,47.5,124.45,47.55Z"/><path class="cls-2" d="M122.85,47.33a.24.24,0,0,0,.12.1,1.4,1.4,0,0,0,.28.06.25.25,0,0,0,.29-.21.55.55,0,0,0-.11-.41.64.64,0,0,0-.56-.26A.87.87,0,0,0,122.85,47.33Z"/><path class="cls-2" d="M124.75,54.54c.12-.14.23-.41.1-.58l0,0a2.21,2.21,0,0,0-.27-.12q-.12,0-.18.09a.94.94,0,0,0-.12.22,2.14,2.14,0,0,0-.07.43C124.2,54.83,124.65,54.65,124.75,54.54Z"/><path class="cls-2" d="M124.56,55.68c0-.1-.14-.09-.22-.09a.16.16,0,0,0-.08.1,1.08,1.08,0,0,1-.07.31.57.57,0,0,0,.18.61c.13.11.27.2.46.08a.58.58,0,0,1,0-.14c0-.17,0-.35-.08-.52A1.51,1.51,0,0,0,124.56,55.68Z"/><path class="cls-2" d="M123.05,58.17a.39.39,0,0,0,.18-.06l.09-.09a.52.52,0,0,0,.11-.19.49.49,0,0,0-.11-.48.35.35,0,0,0-.2-.07c-.05,0-.1.06-.13.1s0,.14-.07.19S122.75,58.17,123.05,58.17Z"/><path class="cls-2" d="M123.43,59s-.1,0-.11,0a.8.8,0,0,0-.14.64.21.21,0,0,0,.1.09,1.31,1.31,0,0,0,.27.06h0a.75.75,0,0,0,.22-.41v0l-.15-.17-.08-.1A.49.49,0,0,0,123.43,59Z"/><path class="cls-2" d="M121.85,53.26s0,0,0,0a.63.63,0,0,0,.09.4.25.25,0,0,0,0,.07.22.22,0,0,0,.38,0,3.62,3.62,0,0,0,.2-.61c0-.06,0-.14-.08-.21s-.07-.05-.12,0h0c0-.08-.11,0-.16,0s-.07,0-.11.07C121.86,53.06,121.86,53.06,121.85,53.26Z"/><path class="cls-2" d="M124.31,60.07a.35.35,0,0,0-.1.21,3.1,3.1,0,0,0,0,.44.91.91,0,0,0,.13.1.67.67,0,0,0,.19,0,.32.32,0,0,0,.26-.16,2.47,2.47,0,0,0,.1-.29.06.06,0,0,0,0,0l-.18-.11-.08-.06c0-.05-.08-.11-.13-.13S124.33,60,124.31,60.07Z"/><path class="cls-2" d="M124,52.36a.34.34,0,0,0-.08-.32,2,2,0,0,0-.71-.49.08.08,0,0,0-.11.08,1.86,1.86,0,0,0,0,.41.79.79,0,0,0,.17.31.56.56,0,0,0,.42.15A.33.33,0,0,0,124,52.36Z"/><path class="cls-2" d="M128.45,49.08a.3.3,0,0,0,.3-.15.28.28,0,0,0-.08-.31,1.89,1.89,0,0,0-.71-.49s-.11,0-.11.08a1.86,1.86,0,0,0,0,.41.94.94,0,0,0,.17.31A.59.59,0,0,0,128.45,49.08Z"/><path class="cls-2" d="M123.52,54.82h0a.42.42,0,0,0,.36-.37.49.49,0,0,0-.28-.4,1.09,1.09,0,0,0-.44-.06c-.13,0-.17,0-.13.17v.07c0,.12,0,.25,0,.33C123.22,54.83,123.26,54.85,123.52,54.82Z"/><path class="cls-2" d="M124.66,57.94c.08-.06.06-.14.1-.21s0-.06,0-.09-.16-.12-.19-.2a.31.31,0,0,0-.25-.19s-.09,0-.11.06a.85.85,0,0,0-.11.26,1,1,0,0,0,0,.35c0,.1.31.22.45.18A.8.8,0,0,1,124.66,57.94Z"/><path class="cls-2" d="M122.44,47.24c0-.05-.08-.1-.12-.15a.79.79,0,0,0-.55-.19.09.09,0,0,0-.09.05.53.53,0,0,0-.08.17.8.8,0,0,0,.06.53s0,.06.07.06C122.15,47.75,122.39,47.72,122.44,47.24Z"/><path class="cls-2" d="M122.44,49.64a2,2,0,0,0,.35,0c.09,0,.25,0,.25-.16l0,0a.2.2,0,0,0,.08-.23l-.12-.09s0-.05-.07-.06-.08,0-.11-.06-.09-.16-.21-.11,0,0,0,0l-.26-.12c-.15-.07-.16-.06-.19.09s0,0,0,0-.08.3,0,.45A.41.41,0,0,0,122.44,49.64Z"/><path class="cls-2" d="M122.32,50.63l-.52-.23-.12,0a.65.65,0,0,0-.1.45c0,.18.09.34.29.34s.3,0,.41-.1.14-.16.19-.24,0-.1,0-.14S122.36,50.65,122.32,50.63Z"/><path class="cls-2" d="M120.32,48.51a1.51,1.51,0,0,0,0,.3.83.83,0,0,0,.07.32c0,.12.11.16.22.13s.09,0,.12,0a3,3,0,0,0,.44-.21c.22-.14.06-.46-.1-.56a.66.66,0,0,0-.37-.1,1.12,1.12,0,0,0-.27,0A.16.16,0,0,0,120.32,48.51Z"/><path class="cls-2" d="M120.15,49.92a.14.14,0,0,0-.08.07.73.73,0,0,0,0,.2.62.62,0,0,0,.11.51.1.1,0,0,0,.07,0l.34-.05a.33.33,0,0,0,.21-.46A.56.56,0,0,0,120.15,49.92Z"/><path class="cls-2" d="M119.58,47.93a.56.56,0,0,0,.47-.35c.09-.24,0-.47-.27-.49h-.36c-.22,0-.24,0-.21.26v0l0,.34C119.33,47.86,119.42,48,119.58,47.93Z"/><path class="cls-2" d="M120.81,52.89a2.39,2.39,0,0,0,.38-.62c.06-.15,0-.23-.13-.32l0,0a1,1,0,0,0-.28-.35c-.1-.1-.15-.09-.2,0l0,.06a.78.78,0,0,0-.09.24,3.84,3.84,0,0,0,0,.59.34.34,0,0,0,.2.31Z"/><path class="cls-2" d="M121,55.29a1.45,1.45,0,0,0,.56,0,.69.69,0,0,1,.07-.19.24.24,0,0,0-.12-.35.85.85,0,0,1-.34-.11,1.33,1.33,0,0,0-.46-.17c-.09,0-.13,0-.13.11a.29.29,0,0,1,0,.13A.59.59,0,0,0,121,55.29Z"/><path class="cls-2" d="M118.72,49.53a.78.78,0,0,0,.07.52c0,.05,0,.12.14.08a2,2,0,0,1,.26-.09h0l.16-.08a.37.37,0,0,0,.1-.47.41.41,0,0,0-.33-.19C118.88,49.24,118.73,49.26,118.72,49.53Z"/><path class="cls-2" d="M119.06,52.23a.24.24,0,0,0,0-.09.54.54,0,0,0-.17-.3,1,1,0,0,0-.35-.22c-.18,0-.33,0-.37.17A.5.5,0,0,0,119.06,52.23Z"/><path class="cls-2" d="M118.43,53.6a.34.34,0,0,1,0,.1.89.89,0,0,0,.07.52c.06.1.07.12.23.12a.53.53,0,0,0,.5-.16c.05-.07,0-.16.06-.23s-.21-.34-.34-.4a1.77,1.77,0,0,0-.4-.08C118.46,53.45,118.42,53.5,118.43,53.6Z"/><path class="cls-2" d="M119.3,56.61a.39.39,0,0,0,.53-.24,1.21,1.21,0,0,0,0-.14c.08-.32-.23-.2-.46-.38a.25.25,0,0,0-.2-.05l-.16,0c-.09,0-.12,0-.1.13C119,56.2,119,56.48,119.3,56.61Z"/><path class="cls-2" d="M117.91,49.88a.79.79,0,0,0,.28-.57c0-.18-.09-.32-.25-.3a.7.7,0,0,0-.44.2.49.49,0,0,0,0,.51c0,.09.08.2.15.23A.26.26,0,0,0,117.91,49.88Z"/><path class="cls-2" d="M117.22,51.2a3.43,3.43,0,0,0,.55.25s.11-.07.11-.1-.08-.32-.12-.47a1,1,0,0,0-.45-.42c-.09-.05-.16,0-.17.08l0,.33A.34.34,0,0,0,117.22,51.2Z"/><path class="cls-2" d="M115.73,49.27a.4.4,0,0,1,0,.15,1.81,1.81,0,0,1,0,.23c0,.16.13.29.26.28s.3,0,.44-.06a2.19,2.19,0,0,0,.22-.2c.1-.15.09-.18,0-.32l-.11-.15s0-.06-.07-.07l-.7,0C115.73,49.11,115.7,49.19,115.73,49.27Z"/><path class="cls-2" d="M116.63,53.24c.06.25.64.35.56,0a.71.71,0,0,0-.51-.52A.48.48,0,0,0,116.63,53.24Z"/><path class="cls-2" d="M114.81,52a1.08,1.08,0,0,0,0,.64c0,.09.11.14.21.09a1.24,1.24,0,0,0,.3-.16,1.42,1.42,0,0,0,.53-.88.55.55,0,0,0-.54,0,2.27,2.27,0,0,0-.31.17C115,51.84,114.82,51.89,114.81,52Z"/><path class="cls-2" d="M116,54.58a.28.28,0,0,0,.27-.27,2.09,2.09,0,0,0,0-.21,1.09,1.09,0,0,0-.24-.24,1.18,1.18,0,0,0-.37-.14.13.13,0,0,0-.12.05.82.82,0,0,0,.07.7.13.13,0,0,0,.09.06Z"/><path class="cls-2" d="M114.15,50.5c.1,0,.26-.07.27-.14s0-.52-.12-.64a.5.5,0,0,0-.27-.12c-.11,0-.06.13-.08.2h0a1.06,1.06,0,0,0,0,.5C114,50.41,114.06,50.5,114.15,50.5Z"/><path class="cls-2" d="M112.57,50.54c-.1,0-.12,0-.14.11s0,.2,0,.31v.3c.07.06.11.14.17.17a.83.83,0,0,0,.34.1.53.53,0,0,0,.28-.1s0-.3,0-.35a.59.59,0,0,1-.13-.18A.56.56,0,0,0,112.57,50.54Z"/><path class="cls-2" d="M113.23,52.19c0,.13,0,.25,0,.37a.63.63,0,0,0,.15.49c.14.16.29.3.45.46a.35.35,0,0,0,.06-.09.36.36,0,0,0,0-.35c-.08-.23-.19-.45-.28-.67A.35.35,0,0,0,113.23,52.19Z"/><path class="cls-2" d="M113.88,54.58a1.08,1.08,0,0,0,.06.64.24.24,0,0,0,.39.05,1.84,1.84,0,0,0,.17-.25.46.46,0,0,0,0-.36c0-.08-.19-.17-.28-.17l-.18,0A.21.21,0,0,0,113.88,54.58Z"/><path class="cls-2" d="M114.67,57c.07.14,0,.3.15.43s.24.17.35,0,.3-.48.44-.72a.24.24,0,0,0,0-.26l-.05,0a.49.49,0,0,0-.23,0c-.09,0-.19,0-.27.1s-.25.27-.37.41A.15.15,0,0,0,114.67,57Z"/><path class="cls-2" d="M116,56.28a.17.17,0,0,0,.14-.07c.06-.11.17-.16.14-.26a1.25,1.25,0,0,0-.23-.23s0-.06,0-.1a.13.13,0,0,1,0-.06c0-.11-.14-.13-.21-.18a.58.58,0,0,0-.26-.06s0,.1-.06.16a.75.75,0,0,0,0,.16C115.31,56.05,115.61,56.28,116,56.28Z"/><path class="cls-2" d="M117.49,57.76a.51.51,0,0,0-.19-.33.78.78,0,0,0-.22-.15.85.85,0,0,0-.23,0c-.08,0-.14,0-.14.11a3.59,3.59,0,0,0,0,.47.31.31,0,0,0,.28.31c.14,0,.23-.06.34-.1A.27.27,0,0,0,117.49,57.76Z"/><path class="cls-2" d="M117.29,55.52a1.72,1.72,0,0,0,.32,0,.48.48,0,0,0,.27-.08c.39-.38-.54-.74-.78-.76a.91.91,0,0,0,0,.54A.31.31,0,0,0,117.29,55.52Z"/><path class="cls-2" d="M118.61,59.35s0,0,0,.06a.76.76,0,0,0-.21.45c0,.12.13.31.25.29a1.36,1.36,0,0,0,.29-.06.43.43,0,0,0,.25-.23.38.38,0,0,0-.09-.51,1.11,1.11,0,0,0-.3-.12A.14.14,0,0,0,118.61,59.35Z"/><path class="cls-2" d="M119.34,58.6h0c.36,0,.46-.26.33-.54a1.58,1.58,0,0,0-.59-.64c-.06,0-.15,0-.18.07a.61.61,0,0,1-.07.14.83.83,0,0,0-.19.44.23.23,0,0,0,0,.17A1.62,1.62,0,0,0,119.34,58.6Z"/><path class="cls-2" d="M120.33,61.05a.82.82,0,0,0,.55-.15c0-.2.11-.37.1-.58a.55.55,0,0,0-.49-.59c-.15,0-.18,0-.16.16a.22.22,0,0,1,0,.14.31.31,0,0,0-.07.21h0a.83.83,0,0,0,0,.69A.2.2,0,0,0,120.33,61.05Z"/><path class="cls-2" d="M121,58.39c.3-.14.54-.31.29-.65a1,1,0,0,0-.73-.3.15.15,0,0,0-.16.14.27.27,0,0,1-.05.18.58.58,0,0,0,0,.51s0,0,0,.06A.82.82,0,0,0,121,58.39Z"/><path class="cls-2" d="M122.54,61.73s.07-.07.08-.11a1.55,1.55,0,0,0,0-.21c0-.15,0-.29.07-.44a.87.87,0,0,0,0-.36c0-.1,0-.2,0-.3,0-.34-.34.17-.37.25a1.27,1.27,0,0,0-.06.18,1,1,0,0,0-.07.23,2.62,2.62,0,0,1,0,.28.56.56,0,0,0,.06.4C122.35,61.75,122.45,61.75,122.54,61.73Z"/><path class="cls-2" d="M122.07,56.85a.63.63,0,0,0,.31-.46,4.93,4.93,0,0,0,0-.53,1,1,0,0,0-.61.12.39.39,0,0,0-.2.43c0,.09.07.5.21.51A.51.51,0,0,0,122.07,56.85Z"/><path class="cls-2" d="M123.87,60.84s0,0,0,0c.15-.17.32-.41.07-.61s-.19,0-.33,0-.25,0-.29.18a.89.89,0,0,0,0,.58s0,.06.08.07A.37.37,0,0,0,123.87,60.84Z"/><path class="cls-2" d="M124.21,62.29a.45.45,0,0,0,.47-.12,1.76,1.76,0,0,0,.61-.66.31.31,0,0,0,0-.24.31.31,0,0,0-.3-.18c-.14,0-.27.11-.39.15a.69.69,0,0,0-.25.1s0,.14-.09.19-.1,0-.14.06a.67.67,0,0,0,0,.63A.14.14,0,0,0,124.21,62.29Z"/><path class="cls-2" d="M125.33,59.27c.11-.07.13-.2.18-.31a.12.12,0,0,0-.06-.16s0,0,0,0a.69.69,0,0,0-.26-.3c-.09,0-.2,0-.24,0a.77.77,0,0,0-.11.61C124.84,59.22,125.18,59.35,125.33,59.27Z"/><path class="cls-2" d="M126.27,61.47a.55.55,0,0,0,.15.33.16.16,0,0,0,.11.07.44.44,0,0,0,.34-.33A3.15,3.15,0,0,1,127,61c0-.07.07-.15.1-.23a.06.06,0,0,1,0,0c0-.22-.19-.4-.37-.47a.18.18,0,0,0-.23.09.15.15,0,0,1,0,.06.51.51,0,0,0-.24.26.25.25,0,0,0,.14.39l0,.06A.91.91,0,0,0,126.27,61.47Z"/><path class="cls-2" d="M126.54,58.5a.74.74,0,0,0,.31-.07c.12-.09.42-.47.18-.59a.85.85,0,0,1-.17-.06.4.4,0,0,0-.34-.08c-.08,0-.14,0-.15.12s-.05.23-.06.34a.65.65,0,0,0,.06.24A.14.14,0,0,0,126.54,58.5Z"/><path class="cls-2" d="M128,61.69c.06,0,.14,0,.17-.07a.89.89,0,0,0,.15-.29.29.29,0,0,0,0-.27c-.07-.12-.2-.1-.3-.14a.81.81,0,0,0-.38,0c-.09,0-.15,0-.11.13s0,.09,0,.14a.54.54,0,0,0,.09.41C127.72,61.76,127.87,61.74,128,61.69Z"/><path class="cls-2" d="M128.41,60.64a.73.73,0,0,0,.42-.26l.12-.17a.29.29,0,0,0,0-.35c-.06-.06-.25,0-.23,0a.34.34,0,0,0-.51.07.71.71,0,0,0,.06.66A.21.21,0,0,0,128.41,60.64Z"/><path class="cls-2" d="M130,60.81l0-.13s0-.11,0-.14a1.71,1.71,0,0,0-.21-.26.27.27,0,0,0-.11-.05,1,1,0,0,1-.23.12.58.58,0,0,0-.4.33.12.12,0,0,0,0,.18,1.79,1.79,0,0,0,.44.16c.08,0,.18,0,.27,0A.19.19,0,0,0,130,60.81Z"/><path class="cls-2" d="M129.43,58.34c-.3,0-.76-.44-.84,0a.72.72,0,0,0,.07.52.22.22,0,0,0,.09.1.92.92,0,0,0,.52,0,.4.4,0,0,0,.29-.18A.87.87,0,0,0,129.43,58.34Z"/><path class="cls-2" d="M129.38,57.34c0-.08-.15-.33-.26-.23a1.39,1.39,0,0,0-.4.47.14.14,0,0,0,.07.18l.22.1a.2.2,0,0,0,.22,0l.19-.16A1.15,1.15,0,0,0,129.38,57.34Z"/><path class="cls-2" d="M130.65,61.5a.26.26,0,0,0,.31,0,.44.44,0,0,0,.13-.23c0-.08.13-.15.17-.22a.09.09,0,0,0,0-.05,1,1,0,0,0-.08-.28c0-.1-.1-.11-.19,0l-.2.11C130.52,61,130.36,61.24,130.65,61.5Z"/><path class="cls-2" d="M131.11,59.48s0,0,.08,0,.21-.12.16-.29l-.07-.16a.15.15,0,0,0-.18-.07l-.38.16a.14.14,0,0,0,0,.24,1.56,1.56,0,0,0,.2.16A.14.14,0,0,0,131.11,59.48Z"/><path class="cls-2" d="M136.21,57.83a.16.16,0,0,0,.23,0,.24.24,0,0,1,.08-.06c.14,0,.2-.12.16-.29s0-.1-.08-.16a.12.12,0,0,0-.17-.06l-.38.16a.14.14,0,0,0,0,.24Z"/><path class="cls-2" d="M130.93,56.82a.78.78,0,0,0-.21.16,2.08,2.08,0,0,0-.19.29.2.2,0,0,0,0,.25c.09.09.17.2.26.3s0,0,.05,0h.07c.36-.12.37-.24.37-.58a.13.13,0,0,0,0-.06,3,3,0,0,0-.24-.38S131,56.8,130.93,56.82Z"/><path class="cls-2" d="M129.55,49.88c-.05,0-.16,0-.23-.05a.26.26,0,0,0-.16-.07,1.45,1.45,0,0,0-.28,0,.21.21,0,0,0-.13.21.49.49,0,0,1,0,.17c0,.16.1.4.3.31l.39-.17a.13.13,0,0,0,.05-.07C129.57,50.13,129.68,50,129.55,49.88Z"/><path class="cls-2" d="M129,46.91a.18.18,0,0,0-.05-.23.2.2,0,0,0-.29,0,.54.54,0,0,0-.11.54c0,.06.07.19.14.19s.19-.28.23-.36S129,47,129,46.91Z"/><path class="cls-2" d="M140.73,50.09a.62.62,0,0,0,.53-.05c.06,0,.1-.11.15-.17s0-.06-.06-.08a1.74,1.74,0,0,0-.11-.18.56.56,0,0,1-.05-.08.31.31,0,0,0-.2-.24l-.34-.1a.11.11,0,0,0-.16.11c0,.11,0,.22,0,.33A.4.4,0,0,0,140.73,50.09Z"/><path class="cls-2" d="M141.48,41.21a.67.67,0,0,0,.52-.05c.22-.13.11-.25,0-.41s0,0-.08-.07c-.19-.08-.56,0-.73.06A.41.41,0,0,0,141.48,41.21Z"/><path class="cls-2" d="M142.35,52a.83.83,0,0,0,.39-.51c0-.17,0-.33-.19-.34-.4,0-.68.14-.62.59a.41.41,0,0,0,.1.26A.26.26,0,0,0,142.35,52Z"/><path class="cls-2" d="M142.8,50.11a.37.37,0,0,0,.24-.56c-.09-.11-.22-.19-.32-.3s-.08-.07-.07-.11c0-.26-.28-.39-.34-.09a5.63,5.63,0,0,0,0,.58.42.42,0,0,0,.08.36A.63.63,0,0,0,142.8,50.11Z"/><path class="cls-2" d="M143.31,52.41l.26,0h0l.17,0a.37.37,0,0,0,.19-.45.43.43,0,0,0-.29-.25c-.22-.09-.36-.11-.42.16a.78.78,0,0,0,0,.52C143.2,52.36,143.21,52.43,143.31,52.41Z"/><path class="cls-2" d="M144.45,48.18c0-.09-.06-.1-.15-.09s-.27.14-.42.08,0,0-.06,0a.31.31,0,0,0-.18.28c0,.15,0,.29-.06.37.06.25.14.28.3.19a1.51,1.51,0,0,0,.56-.76A.1.1,0,0,0,144.45,48.18Z"/><path class="cls-2" d="M145.36,43.8h0c-.2-.06-.83-.37-.87,0,0,.14,0,.27,0,.41a.22.22,0,0,0,.21.24.73.73,0,0,0,.59-.17A1.07,1.07,0,0,0,145.36,43.8Z"/><path class="cls-2" d="M144.09,42.07c-.08,0-.21.06-.22.17s0,.27,0,.4a.14.14,0,0,0,0,.09c.07.12.15.12.27,0a1.93,1.93,0,0,0,.41-.61.58.58,0,0,0,.08-.18s0-.09,0-.09a.52.52,0,0,0-.18,0l-.23.13Z"/><path class="cls-2" d="M143.12,41.5a1,1,0,0,0,.51-.25l.29-.34a.23.23,0,0,0,.06-.29,0,0,0,0,0,0,0l0,0c-.14.19-.24.13-.46.13l-.34,0c-.07,0-.13.05-.12.11s0,.23-.05.35S143,41.52,143.12,41.5Z"/><path class="cls-2" d="M143.72,46c0,.07,0,.15,0,.22a.35.35,0,0,0,.41.37.16.16,0,0,0,.08-.06c.11-.13.05-.28.06-.42s-.06-.11-.11-.14a1.83,1.83,0,0,0-.24-.13C143.79,45.79,143.7,45.86,143.72,46Z"/><path class="cls-2" d="M142.75,43.16c-.08,0-.12,0-.13.11a1.53,1.53,0,0,0,0,.37.29.29,0,0,0,.1.19.56.56,0,0,0,.42.07.28.28,0,0,0,.2-.24c0-.07-.16-.25-.18-.19,0-.11-.06-.15-.15-.19Z"/><path class="cls-2" d="M141.9,42.38c0,.08,0,.17-.05.26a.16.16,0,0,0,.22.17,1,1,0,0,0,.48-.34,1,1,0,0,0,.07-.15,1.9,1.9,0,0,0,.1-.28.17.17,0,0,0-.18,0C142.19,42.08,142,42,141.9,42.38Z"/><path class="cls-2" d="M143.39,45.49a.56.56,0,0,1,0-.18l-.11-.11s0,0-.06,0l-.47,0c-.08,0-.11,0-.11.12a2.64,2.64,0,0,0,0,.28.81.81,0,0,0,0,.22.16.16,0,0,0,.18.15,2.14,2.14,0,0,0,.44-.08A.27.27,0,0,0,143.39,45.49Z"/><path class="cls-2" d="M142.14,47.27a.13.13,0,0,0-.14.14c0,.11,0,.22,0,.33s.06.26.17.28a2.85,2.85,0,0,0,.42,0,.38.38,0,0,0,.26-.08.87.87,0,0,0,.19-.48s0,0-.07-.08l-.14-.09a.65.65,0,0,0-.2,0Z"/><path class="cls-2" d="M141.41,44.16c-.1,0-.16,0-.18.07a1.66,1.66,0,0,1,0,.22c-.06.36.15.49.5.41a.4.4,0,0,0,.16-.13.35.35,0,0,0,0-.43s-.21-.06-.26-.07Z"/><path class="cls-2" d="M141.56,47.47a1,1,0,0,0,.36-.48c0-.07.1-.38,0-.43a.11.11,0,0,0-.1,0c-.21.16-.46.13-.67.28a.14.14,0,0,0,0,.11,2.62,2.62,0,0,0,0,.28.67.67,0,0,0,0,.2.18.18,0,0,0,.25.12A.42.42,0,0,0,141.56,47.47Z"/><path class="cls-2" d="M139.92,42.73c-.06,0-.11-.09-.19,0s0,.13,0,.19a.51.51,0,0,0,0,.3c.07.25.14.27.34.33a.81.81,0,0,0,.43.08c.55-.15,0-.51-.18-.68A.89.89,0,0,0,139.92,42.73Z"/><path class="cls-2" d="M140,46.67a1.79,1.79,0,0,0,.27-.28,1.33,1.33,0,0,0,.16-.28.58.58,0,0,0,.07-.21c0-.12-.06-.13-.14-.11a1.92,1.92,0,0,0-.57.24c-.07.07-.05.14-.06.21a1.61,1.61,0,0,0,0,.31C139.7,46.72,139.81,46.77,140,46.67Z"/><path class="cls-2" d="M139.11,45c0,.19.11.29.2.28a1.13,1.13,0,0,0,.32-.06c.1,0,.11-.12.15-.2a.24.24,0,0,0-.07-.33,1.06,1.06,0,0,0-.34-.16c-.19-.05-.19,0-.22.17v0C139.13,44.83,139.12,44.94,139.11,45Z"/><path class="cls-2" d="M139,48.48a.87.87,0,0,0,.55-.09c.1,0,.23-.08.24-.23a.08.08,0,0,1,0,0,1.38,1.38,0,0,0,0-.2.71.71,0,0,0-.08-.18l0,0a.73.73,0,0,0-.2-.05l-.76,0c-.09,0-.12.06-.12.14s0,.22,0,.33S138.7,48.47,139,48.48Z"/><path class="cls-2" d="M137.9,44.4h.54c.09,0,.2-.06.13-.19s0,0,0-.06,0-.2-.05-.25a.7.7,0,0,0-.42-.25.25.25,0,0,0-.21.07.8.8,0,0,0-.17.45C137.73,44.27,137.81,44.4,137.9,44.4Z"/><path class="cls-2" d="M138.3,46.78s.13,0,.14,0a1.09,1.09,0,0,0,.07-.3,2.68,2.68,0,0,0-.07-.27.49.49,0,0,0-.28-.4.1.1,0,0,0-.16,0,.91.91,0,0,0-.11.22,3.09,3.09,0,0,0-.07.35l.38.34Z"/><path class="cls-2" d="M138.35,49.34a.36.36,0,0,1,.08-.15c.08-.1,0-.21.06-.3h-.33A.19.19,0,0,0,138,49c0,.09-.07.19-.1.29a.44.44,0,0,0,0,.37c0,.07.11.1.16,0S138.3,49.52,138.35,49.34Z"/><path class="cls-2" d="M138.54,51.83a.3.3,0,0,0,.3-.09,1.11,1.11,0,0,0,.07-.43.36.36,0,0,0-.06-.22.59.59,0,0,0-.25-.17c-.1,0-.08.12-.12.18h0c0,.16-.14.31-.11.49S138.46,51.81,138.54,51.83Z"/><path class="cls-2" d="M136.32,43.39a.43.43,0,0,1,0-.07c.07-.08.19-.14.24-.24s0-.12,0-.27a.15.15,0,0,0,0-.07l0,0-.28-.08c-.16,0-.15.25-.17.35s0,.2,0,.31,0,.15.06.17A.19.19,0,0,0,136.32,43.39Z"/><path class="cls-2" d="M136.23,45c.05.09.08.2.15.25s.35,0,.43-.14a3,3,0,0,1,.18-.3.27.27,0,0,0,0-.26s-.18-.1-.17,0c0-.18-.43-.05-.51,0a1.12,1.12,0,0,1-.18.2c-.07.06,0,.1,0,.14Z"/><path class="cls-2" d="M136.56,48.19a1.51,1.51,0,0,1-.11.22.57.57,0,0,0,0,.36.17.17,0,0,0,.2.17,4.06,4.06,0,0,0,.36-.26c.06,0,.14-.12.15-.19a.91.91,0,0,1,.18-.37.12.12,0,0,0,0-.14.24.24,0,0,0-.16,0c-.09,0-.16.1-.25.15a.48.48,0,0,1-.17.05S136.57,48.16,136.56,48.19Z"/><path class="cls-2" d="M135.78,49a3.9,3.9,0,0,0-.35-.19s-.08,0-.1.06-.06.12-.11.18a.56.56,0,0,0-.1.43c0,.16.39.36.54.27s.16,0,.23-.17a.4.4,0,0,0,.06-.27A.42.42,0,0,0,135.78,49Z"/><path class="cls-2" d="M137.47,55.77a1.08,1.08,0,0,0-.07.64.25.25,0,0,0,.38.13l.21-.22a.47.47,0,0,0,.11-.34c0-.08-.15-.2-.24-.23a.58.58,0,0,1-.17-.06A.23.23,0,0,0,137.47,55.77Z"/><path class="cls-2" d="M137.66,54.63a.44.44,0,0,0,.05-.35c0-.24-.1-.48-.15-.72a.36.36,0,0,0-.25-.26c0,.12-.09.24-.12.35a.59.59,0,0,0,.05.52c.1.17.22.34.35.53A.45.45,0,0,0,137.66,54.63Z"/><path class="cls-2" d="M137.44,52.2a1.76,1.76,0,0,1-.09-.2.56.56,0,0,0-.37-.45c-.08,0-.12,0-.15.08s-.07.2-.1.3,0,.2-.06.29a.64.64,0,0,0,.14.2.75.75,0,0,0,.3.17.64.64,0,0,0,.3,0C137.46,52.54,137.47,52.25,137.44,52.2Z"/><path class="cls-2" d="M137.54,50.1c-.16-.2-.52-.2-.75-.22a.13.13,0,0,0-.13.16,1.61,1.61,0,0,1,0,.31.26.26,0,0,0,.23.29C137.16,50.66,137.81,50.46,137.54,50.1Z"/><path class="cls-2" d="M135.85,46.34a.72.72,0,0,0-.19.52.38.38,0,0,0,.1.21,1.28,1.28,0,0,0,.33.11c.08,0,.17.06.24,0a.41.41,0,0,0,.09-.4.33.33,0,0,1-.07-.13.59.59,0,0,0-.37-.32A.18.18,0,0,0,135.85,46.34Z"/><path class="cls-2" d="M135.22,45.36a.29.29,0,0,0,.33-.07.25.25,0,0,0,.08-.22c0-.07,0-.14-.06-.19s0-.05,0-.06,0-.16-.07-.24-.14-.08-.22-.12a.49.49,0,0,0,0,.11l-.06.15c0,.06-.09.11-.09.17a1.15,1.15,0,0,0,0,.37S135.17,45.33,135.22,45.36Z"/><path class="cls-2" d="M134.63,44.39a.21.21,0,0,1-.15-.11s-.07-.05-.11-.06-.05,0-.06.07a1,1,0,0,0,0,.61,0,0,0,0,1,0,0c.06.17.15.19.26,0a1.65,1.65,0,0,0,.2-.31A.21.21,0,0,0,134.63,44.39Z"/><path class="cls-2" d="M134.79,47.81a.47.47,0,0,0,.05.1.5.5,0,0,0,.38.19.12.12,0,0,0,.16-.11c0-.13.1-.25,0-.38s0-.12,0-.18a.51.51,0,0,0-.22-.28c-.07,0-.11,0-.15,0a.61.61,0,0,1-.07.1A.6.6,0,0,0,134.79,47.81Z"/><path class="cls-2" d="M134.35,46.24a.63.63,0,0,0-.32.36c-.05.13-.14.27-.07.42a.09.09,0,0,0,.13.1.37.37,0,0,0,.2-.12,4.56,4.56,0,0,0,.33-.56.17.17,0,0,0,0-.17A.22.22,0,0,0,134.35,46.24Z"/><path class="cls-2" d="M133.55,44.41l-.29-.18s-.1,0-.11.06a1.15,1.15,0,0,0,0,.19c0,.1,0,.21,0,.31s0,.07.06.08a1.88,1.88,0,0,0,.36.21c.2.07.31,0,.26-.25s-.05-.21-.08-.31a.11.11,0,0,0-.07-.06Z"/><path class="cls-2" d="M134.79,48.53a.59.59,0,0,0-.22-.05,3,3,0,0,0-.5.11.51.51,0,0,0-.27.41,2.72,2.72,0,0,0,0,.31c.12,0,.21,0,.3,0a.84.84,0,0,1,.21-.11.64.64,0,0,0,.34-.38C134.71,48.72,134.75,48.64,134.79,48.53Z"/><path class="cls-2" d="M134.22,50a.13.13,0,0,0-.15.13,2.3,2.3,0,0,0,0,.37c0,.17,0,.25.25.27a.91.91,0,0,0,.46-.07.41.41,0,0,0,.16-.34c0-.07-.16-.27-.23-.28Z"/><path class="cls-2" d="M132.77,45.81a.33.33,0,0,0-.39-.11h0s-.07,0-.08.06-.07.2-.1.3-.05.16,0,.22a2.44,2.44,0,0,1,.23.22c.06.08.09.06.14,0s.12.06.15,0l.12-.49A.18.18,0,0,0,132.77,45.81Z"/><path class="cls-2" d="M132.58,48.11a1,1,0,0,0-.31-.16s-.09,0-.1,0a.64.64,0,0,0-.22.47.29.29,0,0,0,.13.23c.15.12.34.09.51.15a.17.17,0,0,0,.16,0,.42.42,0,0,0,.09-.37A1.92,1.92,0,0,0,132.58,48.11Z"/><path class="cls-2" d="M133.71,53.61c-.11-.08-.17-.07-.21.06s0,.18-.05.26,0,.21,0,.3,0,.09.06.1l.38.32a.19.19,0,0,0,.25,0c.06-.06.12-.13.05-.23s0,0,0-.07A1,1,0,0,0,133.71,53.61Z"/><path class="cls-2" d="M133.33,51.54a2.37,2.37,0,0,0-.27-.28.15.15,0,0,0-.13,0s0,.06,0,.1,0,.09,0,.12a.4.4,0,0,0-.07.38.32.32,0,0,0,.16.23,1.57,1.57,0,0,1,.21.17.17.17,0,0,0,.11.06c.07,0,.2-.13.21-.21A.73.73,0,0,0,133.33,51.54Z"/><path class="cls-2" d="M133.26,50.2c0-.16,0-.21-.18-.22s-.24,0-.27-.19-.1-.19-.19-.18-.08,0-.08.07,0,.41,0,.62,0,.16.07.19a.33.33,0,0,0,.37,0C133.12,50.45,133.3,50.43,133.26,50.2Z"/><path class="cls-2" d="M130.11,45.55a1.4,1.4,0,0,0-.13.34c-.06.24.07.14.17.26a1.7,1.7,0,0,0,.1.14c.17.17.31-.19.35-.31a.83.83,0,0,0,.07-.27.29.29,0,0,0,0-.18s-.15-.11-.15-.07C130.47,45.19,130.16,45.43,130.11,45.55Z"/><path class="cls-2" d="M132,54.45c-.11-.05-.18,0-.2.09a2.09,2.09,0,0,0-.05.49.26.26,0,0,0,.17.26.65.65,0,0,0,.34,0,.25.25,0,0,0,.15-.08C132.73,54.85,132.27,54.58,132,54.45Z"/><path class="cls-2" d="M131.23,49.34a.74.74,0,0,1-.13-.12s0-.09,0-.11l-.44-.23s-.11,0-.11.08,0,.3,0,.47l.07.08a1,1,0,0,0,.52.23.29.29,0,0,0,.21-.09C131.39,49.6,131.3,49.38,131.23,49.34Z"/><path class="cls-2" d="M129.94,48.27c.05.18.18.26.31.2a.46.46,0,0,0,.25-.26c.05-.11.1-.21.14-.32a.76.76,0,0,0,0-.21c0-.09-.07-.1-.15-.07a1.51,1.51,0,0,0-.45.29A.44.44,0,0,0,129.94,48.27Z"/><path class="cls-2" d="M131.33,53.67c.15.07.31.11.46.17s.15,0,.2,0,.14-.16.12-.21-.07-.38-.27-.47c0,0,0,0,0,0s-.14-.2-.25-.26-.27-.1-.33.15a.87.87,0,0,0-.05.48C131.24,53.55,131.27,53.64,131.33,53.67Z"/><path class="cls-2" d="M134.84,57c0-.06.14-.16.12-.21s-.07-.38-.27-.47l0,0c0-.14-.14-.2-.24-.26s-.27-.1-.33.15-.12.31-.05.48.08.16.14.19.3.11.46.17S134.79,57,134.84,57Z"/><path class="cls-2" d="M132.39,56.47a1.69,1.69,0,0,0-.32.27A.44.44,0,0,0,132,57a2.76,2.76,0,0,0,.25.52c0,.05.09,0,.1,0s.15,0,.17,0a.47.47,0,0,0,.1-.2,2.51,2.51,0,0,0,0-.27c0-.06.06-.13,0-.18s-.09-.24-.13-.36A.1.1,0,0,0,132.39,56.47Z"/><path class="cls-2" d="M132.9,60.6s.58.4.6.32a2.24,2.24,0,0,0,.09-.45.13.13,0,0,0,.07-.1,1.2,1.2,0,0,0-.22-.59c-.06-.1-.13-.11-.23-.05l-.12.05a.57.57,0,0,0-.42.28.18.18,0,0,0,0,.21A2.8,2.8,0,0,0,132.9,60.6Z"/><path class="cls-2" d="M134.1,58.25a.52.52,0,0,0,.1-.11L134,58,134,58l-.32.07-.22,0a.53.53,0,0,0-.48.21c-.06.09-.08.21-.15.3s-.06.14,0,.18a.28.28,0,0,0,.22.08,1.34,1.34,0,0,0,.39-.16C133.63,58.57,133.86,58.41,134.1,58.25Z"/><path class="cls-2" d="M131.29,45.92c-.07,0-.18,0-.16.11s0,.21,0,.31a.66.66,0,0,0,0,.28,2.33,2.33,0,0,0,.27.35c.1.12.15.12.25,0s0-.46-.05-.58S131.51,46,131.29,45.92Z"/><path class="cls-2" d="M136.15,59.24a.47.47,0,0,0-.28-.45c-.09,0-.26,0-.28,0a2.1,2.1,0,0,0-.09.42c0,.16.05.3,0,.45A.48.48,0,0,0,136.15,59.24Z"/><path class="cls-2" d="M135.3,55.06a.57.57,0,0,0,.22-.07c.18-.15.38-.29.4-.55a2.1,2.1,0,0,1,.06-.24.93.93,0,0,0-.13,0h-.4a.21.21,0,0,0-.22.21.79.79,0,0,1-.06.22.62.62,0,0,0,0,.38S135.26,55.07,135.3,55.06Z"/><path class="cls-2" d="M136.46,55.87c0-.15-.19-.27-.29-.4a.24.24,0,0,0-.28,0,.53.53,0,0,0-.11.54.27.27,0,0,0,.38.19C136.26,56.14,136.44,56,136.46,55.87Z"/><path class="cls-2" d="M135.79,52.54s0-.06,0-.07a.31.31,0,0,0-.1-.12l-.25-.07a.71.71,0,0,0-.4-.05,1.73,1.73,0,0,0-.15.39c0,.1,0,.35.08.41a.27.27,0,0,0,.2,0c.07,0,.46-.11.45-.24S135.77,52.65,135.79,52.54Z"/><path class="cls-2" d="M136,51.81s0-.4,0-.43a.13.13,0,0,0,0-.06.1.1,0,0,0-.05,0,1.19,1.19,0,0,0-.56-.2c-.1,0-.11,0-.08.11a.17.17,0,0,1,0,.1.81.81,0,0,0,0,.16.42.42,0,0,0,.42.43A1.74,1.74,0,0,0,136,51.81Z"/><path class="cls-2" d="M138.17,58.84c.2-.19.38-.41.57-.62a.21.21,0,0,0,.06-.25.1.1,0,0,0,0,0c-.07,0-.14-.09-.21-.09s-.2,0-.29.05-.3.22-.44.33-.06.07,0,.1-.06.3.06.45S138,59,138.17,58.84Z"/><path class="cls-2" d="M139.2,57.86a.24.24,0,0,0,.15,0c.05,0,.14-.08.18-.14a.1.1,0,0,0,0-.11,2,2,0,0,0-.36-.63.41.41,0,0,0-.24-.11s-.06.09-.09.14a1,1,0,0,0-.08.14C138.57,57.52,138.8,57.78,139.2,57.86Z"/><path class="cls-2" d="M139.51,56.19a.29.29,0,0,0,.32-.22c0-.06,0-.13,0-.21a1.38,1.38,0,0,0-.19-.28,1.46,1.46,0,0,0-.33-.22.13.13,0,0,0-.13,0,.82.82,0,0,0-.07.7.14.14,0,0,0,.07.08A3.4,3.4,0,0,0,139.51,56.19Z"/><path class="cls-2" d="M139.92,53.5a1.09,1.09,0,0,0,.08-.15.05.05,0,0,0,0,0,.09.09,0,0,0,0-.05.55.55,0,0,0-.51-.08l-.33.09c-.09,0-.23,0-.24.11a1,1,0,0,0-.1.63c0,.11.07.16.18.13a1.26,1.26,0,0,0,.33-.1,1.59,1.59,0,0,0,.46-.32A1.18,1.18,0,0,0,139.92,53.5Z"/><path class="cls-2" d="M141,55.13a.82.82,0,0,0-.41-.61c-.17.13-.16.29-.15.48s.28.4.45.31A.18.18,0,0,0,141,55.13Z"/><path class="cls-2" d="M139.79,49.28c0-.09.07-.18-.06-.24s-.13,0-.17.12-.14.11-.21.17-.18.13-.18.2a2,2,0,0,0,0,.55c0,.07.16.1.21,0a1.62,1.62,0,0,0,.21-.36C139.7,49.6,139.73,49.43,139.79,49.28Z"/><path class="cls-2" d="M140.52,51.65l.44,0a1.81,1.81,0,0,0,.25-.16c.14-.12.13-.16,0-.32a.87.87,0,0,1-.07-.17s0-.07-.06-.08l-.68-.16c-.07,0-.12.06-.11.14a.92.92,0,0,1,0,.16,1.79,1.79,0,0,0,0,.23A.29.29,0,0,0,140.52,51.65Z"/><path class="cls-2" d="M141.46,52.46l-.09.31a.33.33,0,0,0,0,.35,3,3,0,0,0,.5.35s.12,0,.12-.07,0-.33,0-.49a.94.94,0,0,0-.35-.5A.11.11,0,0,0,141.46,52.46Z"/></svg>