<svg id="Layer_1" data-name="Layer 1" xmlns="http://www.w3.org/2000/svg" viewBox="0 0 171 171"><defs><style>.cls-1{fill:#ff6f4a;}.cls-2{fill:#2e5b66;}</style></defs><title>Button</title><circle class="cls-1" cx="85.5" cy="85.5" r="85.48"/><path class="cls-2" d="M83.45,52.94c0,1.09.63,1.89,2.15,1.9,1.74,0,2.64-1,3.09-3.22l.17-.88a11.51,11.51,0,0,1,1.46.35L90.8,50A13,13,0,0,0,87,48.87a9.63,9.63,0,0,0-2.08,0,7.23,7.23,0,0,0-2.11.61,7.32,7.32,0,0,0-1.8,1.3,9.76,9.76,0,0,0-1.34,1.69,13.64,13.64,0,0,0-1,1.86,13.81,13.81,0,0,0-.66,2l3,.49a10,10,0,0,1,.32-1.57,11,11,0,0,1,.56-1.55,7.59,7.59,0,0,1,.82-1.35,5,5,0,0,1,1.09-1,3.36,3.36,0,0,1,.42-.22A2.5,2.5,0,0,0,83.45,52.94Z"/><path class="cls-2" d="M101.68,86.39c-.05-.12-.26-.33-.4-.28a.55.55,0,0,0-.37.33.44.44,0,0,1-.08.11c-.1.08-.09.15,0,.22l.88-.3S101.69,86.42,101.68,86.39Z"/><path class="cls-2" d="M114,82.79a1.22,1.22,0,0,1-.17.15.11.11,0,0,0,0,.17.71.71,0,0,0,.45.19,2.13,2.13,0,0,0,.5.11l0,0a.43.43,0,0,0,.13-.17s0-.13,0-.17,0-.12,0-.16-.24-.21-.37-.3S114.1,82.65,114,82.79Z"/><path class="cls-2" d="M107.06,85c-.17,0-.36.06-.45.26,0,0-.09.06-.12.1a.27.27,0,0,0,0,.14c.07.14.19.36.36.36,0,.28.34.13.46,0s.13-.35.1-.44a1.34,1.34,0,0,0-.14-.38A.2.2,0,0,0,107.06,85Z"/><path class="cls-2" d="M102.69,87.06a.39.39,0,0,0,.39,0,.58.58,0,0,1,.14,0c.15-.05.3-.09.45-.15s0-.09,0-.14a.17.17,0,0,0-.07-.13.94.94,0,0,0-.24-.13c-.27-.1-.48,0-.74.26,0,0,0,0,0,0C102.43,86.94,102.49,86.94,102.69,87.06Z"/><path class="cls-2" d="M99.23,88c0,.07-.17.12-.11.2a.38.38,0,0,0,.27.18.71.71,0,0,0,.25-.06l-.15-.54c-.09.06-.17.14-.25.2A0,0,0,0,0,99.23,88Z"/><path class="cls-2" d="M99.61,84.82l-.37.58h0s0,.07.06.08a.44.44,0,0,0,.44-.09.4.4,0,0,0-.08-.56Z"/><path class="cls-2" d="M101.8,85s-.08,0-.1,0a.46.46,0,0,0-.1.18.71.71,0,0,0,.25.57c.12.12.12.13.27,0l.07,0,0,0a4.09,4.09,0,0,0-.31-.78Z"/><path class="cls-2" d="M100.58,84.93a.11.11,0,0,0,.17,0,.67.67,0,0,0,.27-.4,2,2,0,0,0,.21-.47s0,0,0-.06a.7.7,0,0,0-.13-.16s-.14,0-.17,0-.11,0-.16,0a3.72,3.72,0,0,0-.37.3c-.15.16,0,.46.08.61A.93.93,0,0,1,100.58,84.93Z"/><path class="cls-2" d="M100.51,87.72c-.07.07-.15.13-.22.21a.25.25,0,0,0-.05.15.93.93,0,0,0,.39.64.7.7,0,0,0,.37-.53.56.56,0,0,0-.12-.43A.27.27,0,0,0,100.51,87.72Z"/><path class="cls-2" d="M98.78,84.37c.11.17.11.17.33.13,0,0,.09,0,.13,0s.13,0,.14-.09v0c.06,0,.1,0,.1-.09s0-.18,0-.22a3.5,3.5,0,0,0-.5-.44.23.23,0,0,0-.34.21.17.17,0,0,0,0,.07.61.61,0,0,0,.13.41Z"/><path class="cls-2" d="M95.77,88.48a.83.83,0,0,0-.5.22.1.1,0,0,0,0,.1.76.76,0,0,0,.22.49.61.61,0,0,0,.16.12.11.11,0,0,0,.11,0c.16-.13.34-.24.39-.46s.06-.16,0-.2A.54.54,0,0,0,95.77,88.48Z"/><path class="cls-2" d="M100,86.62c0-.05,0,0,.05-.08s0,0,0-.06l0-.1a.14.14,0,0,0-.14-.12h0c-.06-.12-.14,0-.21,0a.92.92,0,0,0-.21.13.27.27,0,0,0-.12.32c0,.11.06.22.19.26h0c.08.09.09.08.15,0s.08-.12.13-.17,0,0,0,0S100,86.68,100,86.62Z"/><path class="cls-2" d="M98.74,86.33a.15.15,0,0,0,0-.13l-.3-.12c-.18-.08-.3,0-.43.13s-.13.28-.08.46a.75.75,0,0,0,.33.35.34.34,0,0,0,.09-.08c.12-.16.24-.32.35-.49S98.74,86.38,98.74,86.33Z"/><path class="cls-2" d="M98.17,88.11l-.37,0-.09,0c-.09,0-.11.07-.1.17a.75.75,0,0,0,.08.24,1.27,1.27,0,0,0,.13.19.13.13,0,0,0,.11,0,.51.51,0,0,0,.18-.09l0,0c.08,0,.16-.12.2-.23a.22.22,0,0,0,0-.21C98.3,88.2,98.26,88.11,98.17,88.11Z"/><path class="cls-2" d="M96.93,86.92a2.52,2.52,0,0,0-.33.14.08.08,0,0,0,0,.07.68.68,0,0,0,.17.51,1.07,1.07,0,0,0,.14.16.13.13,0,0,0,.12,0,.57.57,0,0,0,.37-.59A.34.34,0,0,0,96.93,86.92Z"/><path class="cls-2" d="M96.77,89.11c-.13,0-.16.16-.17.29l.13.27a.05.05,0,0,0,0,0c.08.18.1.19.27.1l.27-.17c.21-.14.15-.34,0-.48A.46.46,0,0,0,96.77,89.11Z"/><path class="cls-2" d="M97.85,85.13a.78.78,0,0,0,.17-.34.44.44,0,0,0,0-.3.14.14,0,0,0-.06-.07.38.38,0,0,0-.37,0c-.29.19-.39.41-.1.71C97.58,85.27,97.73,85.25,97.85,85.13Z"/><path class="cls-2" d="M95.49,86.53a2.2,2.2,0,0,0-.3.43c-.06.09,0,.21.06.3s.11.15.17.23a.09.09,0,0,0,.16,0,.8.8,0,0,0,.16-.52l-.12-.41A.15.15,0,0,0,95.49,86.53Z"/><path class="cls-2" d="M115.59,83.53l.18.23,0,0c.13.16.14.17.28,0a1.5,1.5,0,0,0,.23-.33.26.26,0,0,0-.12-.33c-.08,0-.13-.13-.23-.1a1.73,1.73,0,0,0-.32.11C115.54,83.22,115.54,83.34,115.59,83.53Z"/><path class="cls-2" d="M109.28,82.42a.08.08,0,0,0,0,0,.47.47,0,0,0,0-.17.64.64,0,0,0-.1-.13s0,0,0,0S109,82,108.85,82a.85.85,0,0,0-.46.18c-.21.14-.19.27-.1.45s.1.16.15.25a.12.12,0,0,0,.15.05l.57-.35A1.54,1.54,0,0,0,109.28,82.42Z"/><path class="cls-2" d="M115.13,82.07a.11.11,0,0,0,.16-.06.54.54,0,0,0,0-.51c0-.09,0-.2-.08-.28A1,1,0,0,0,115,81s-.08,0-.12.08a.16.16,0,0,0-.06.08c-.06.16-.11.33-.17.51a3.32,3.32,0,0,0,.25.27A1,1,0,0,0,115.13,82.07Z"/><path class="cls-2" d="M115.3,84.38l-.39-.13-.08,0a.18.18,0,0,0-.24,0c-.06.07,0,.14,0,.19l.2.25c.06.07.12.15.18.21a.67.67,0,0,0,.14.09l.09-.17a1.77,1.77,0,0,0,.17-.14s0-.06,0-.09,0-.08,0-.08S115.35,84.39,115.3,84.38Z"/><path class="cls-2" d="M111.6,79.81s0-.13,0-.2l-.11-.15,0,0h0c-.08-.17-.21-.06-.32-.06s-.42.37-.34.52a.59.59,0,0,0,.32.34,1.86,1.86,0,0,1,.2.1s.09,0,.11,0,.15-.23.22-.35S111.69,79.87,111.6,79.81Z"/><path class="cls-2" d="M113.6,81.21s.09,0,.12,0a.6.6,0,0,0,.16-.48.85.85,0,0,1,0-.16.45.45,0,0,0-.29-.31c-.11,0-.17.06-.23.12a1.18,1.18,0,0,0-.23.27.37.37,0,0,0,0,.25A.81.81,0,0,0,113.6,81.21Z"/><path class="cls-2" d="M112.53,82.58c.07,0,.1,0,.15-.06a.51.51,0,0,0,0-.36,1.05,1.05,0,0,1,0-.19c0-.16-.14-.22-.22-.32a.13.13,0,0,0-.2,0A.54.54,0,0,0,112,82a.48.48,0,0,0,0,.12.64.64,0,0,0,.4.4Z"/><path class="cls-2" d="M111.3,83.35a.53.53,0,0,0-.25,0c-.07,0-.11.08-.06.17s.17.24.28.33a.7.7,0,0,0,.48.16.23.23,0,0,0,.22-.17.24.24,0,0,0-.08-.16C111.7,83.56,111.5,83.45,111.3,83.35Z"/><path class="cls-2" d="M102.19,87.36a.39.39,0,0,0-.24,0,.11.11,0,0,0-.07.17c0,.16.18.23.29.33a.73.73,0,0,0,.48.16.23.23,0,0,0,.21-.17s0-.13-.07-.16C102.59,87.57,102.4,87.46,102.19,87.36Z"/><path class="cls-2" d="M110.81,81.07a1,1,0,0,1-.24,0c-.12,0-.19,0-.28.14s.08.2.13.29a.52.52,0,0,0,.47.23,2.91,2.91,0,0,0,.5-.16c.07,0,.12-.11.17-.16l-.25-.19A.63.63,0,0,0,110.81,81.07Z"/><path class="cls-2" d="M109.34,80.26a.14.14,0,0,0,.21,0L110,80s0,0,0,0a2,2,0,0,1,0-.24,1.25,1.25,0,0,1,0-.15l-.28-.17a.07.07,0,0,0-.06,0,1.18,1.18,0,0,0-.45.18c-.18.13-.15.21-.08.38A2.16,2.16,0,0,0,109.34,80.26Z"/><path class="cls-2" d="M110.2,82.39c-.09.12-.25.18-.3.33a.28.28,0,0,0,0,.22.6.6,0,0,0,.36.24s.06,0,.08,0a1.14,1.14,0,0,0,.15-.23,2.15,2.15,0,0,0,.05-.34.39.39,0,0,0-.22-.23A.16.16,0,0,0,110.2,82.39Z"/><path class="cls-2" d="M108,81.47c0,.06.06.06.11,0a.22.22,0,0,0,.08-.27c0-.14,0-.19.14-.31s.11-.14,0-.3-.26-.15-.4-.15a.34.34,0,0,0-.32.23c0,.05,0,.14,0,.2S107.87,81.29,108,81.47Z"/><path class="cls-2" d="M107.15,83.89a.5.5,0,0,0-.36-.1c-.14,0-.22.16-.17.35a.48.48,0,0,0,.32.26,1.68,1.68,0,0,0,.55,0c.09,0,.14,0,.09-.14a.37.37,0,0,0-.13-.17A3.3,3.3,0,0,0,107.15,83.89Z"/><path class="cls-2" d="M108.58,83.89c-.15,0-.2,0-.22.13a2.32,2.32,0,0,0-.06.46.59.59,0,0,0,.12.27c.06.09.16.14.19.25s.15.07.2,0a.59.59,0,0,0,0-.67Z"/><path class="cls-2" d="M107.24,82.1c-.2.06-.38.15-.57.22a.5.5,0,0,0,0,.34.41.41,0,0,0,.1.13.41.41,0,0,1,.05.09c0,.11,0,.12.14.05s.15,0,.13-.15c.17-.06.19-.24.3-.37l-.19-.31Z"/><path class="cls-2" d="M110.27,84.43a1.65,1.65,0,0,0-.31,0s-.09.06-.1.1a.16.16,0,0,0,0,.1s0,0,0,.09a1.86,1.86,0,0,1-.1.31c0,.1,0,.15.1.21l.25.22s.07,0,.11,0l0,0a.33.33,0,0,0,.28-.3.16.16,0,0,0,0-.17l-.12-.13a.07.07,0,0,1,0-.06C110.49,84.56,110.47,84.5,110.27,84.43Z"/><path class="cls-2" d="M113.41,83.67v0a1.31,1.31,0,0,0-.15-.12.11.11,0,0,0-.11,0,.27.27,0,0,0-.09.34.22.22,0,0,0-.17.11c0,.05-.09.12-.07.16a1.14,1.14,0,0,0,.19.34c0,.05.11.06.17.1l.13.1.09.08c.06-.08.16-.11.14-.23a.46.46,0,0,0-.05-.2s0,0,.05,0,0-.26-.09-.34S113.36,83.76,113.41,83.67Z"/><path class="cls-2" d="M38.21,104a.26.26,0,0,1-.15,0,.53.53,0,0,0-.49,0c-.14.06-.14.36-.09.49a.19.19,0,0,1,0,.08l.84-.41C38.37,104,38.32,104,38.21,104Z"/><path class="cls-2" d="M41.42,103a0,0,0,0,0,0,0c0-.09-.1-.19-.16-.28l-.33.46a.77.77,0,0,0,.21.14.35.35,0,0,0,.32-.07C41.53,103.18,41.44,103.08,41.42,103Z"/><path class="cls-2" d="M40.74,105h0l-.32-.06.15.55a.62.62,0,0,0,.24-.08.36.36,0,0,0,.15-.29C41,105,40.82,105,40.74,105Z"/><path class="cls-2" d="M38.37,101.42s0,0,0,0-.4-.21-.54-.28l0,0a.39.39,0,0,0,.21.52C38.19,101.74,38.44,101.6,38.37,101.42Z"/><path class="cls-2" d="M36.22,102.81a.15.15,0,0,0-.11,0l-.1,0a5,5,0,0,0,.14.83h.12c.17,0,.16,0,.2-.16a.71.71,0,0,0-.07-.62A.54.54,0,0,0,36.22,102.81Z"/><path class="cls-2" d="M37.05,102v-.22c0-.23,0-.5-.24-.56s-.59-.16-.73.14a.49.49,0,0,0,0,.21.08.08,0,0,0,0,0,2.13,2.13,0,0,0,.42.3.69.69,0,0,0,.44.2C37,102.13,37.06,102.06,37.05,102Z"/><path class="cls-2" d="M39,104.89l-.3-.07a.26.26,0,0,0-.29.23.53.53,0,0,0,.12.42.63.63,0,0,0,.58.27.89.89,0,0,0,0-.75A.19.19,0,0,0,39,104.89Z"/><path class="cls-2" d="M38.45,99.51a.23.23,0,0,0-.4,0,4.65,4.65,0,0,0-.21.63c0,.07,0,.15.09.22s.07,0,.12,0h0c.05.08.11,0,.17,0s.07-.06.11-.07c.2-.08.2-.08.21-.29,0,0,0,0,0,0a.64.64,0,0,0-.1-.42Z"/><path class="cls-2" d="M44.26,102.73a.92.92,0,0,0,.57.2.15.15,0,0,0,.1-.06,1.34,1.34,0,0,0,.07-.18.72.72,0,0,0-.06-.54s0-.07-.07-.07a.91.91,0,0,0-.55.06.59.59,0,0,0-.19.44S44.21,102.68,44.26,102.73Z"/><path class="cls-2" d="M38.83,102.45a1.45,1.45,0,0,0-.36,0c-.1,0-.26,0-.26.17l0,0a.22.22,0,0,0-.09.25l.13.09s.05.06.07.06.08,0,.12.07.09.16.21.11a.07.07,0,0,1,.06,0l.27.12c.16.07.17.06.2-.1a0,0,0,0,0,0,0c.14-.15.09-.31.05-.47A.41.41,0,0,0,38.83,102.45Z"/><path class="cls-2" d="M40.08,101.38c-.15,0-.32,0-.43.11s-.14.16-.2.25,0,.1,0,.14a.52.52,0,0,0,.13.06l.55.23.12,0a.8.8,0,0,0,.11-.47C40.34,101.54,40.28,101.38,40.08,101.38Z"/><path class="cls-2" d="M43.23,102.53s-.09,0-.12,0a3.25,3.25,0,0,0-.46.22c-.1.07-.09.19-.09.3a.24.24,0,0,0,.16.22.35.35,0,0,0,0,.07c.13,0,.23.14.37.08s0,0,0,0a.8.8,0,0,0,.27,0,.18.18,0,0,0,.1-.12,1.69,1.69,0,0,0,0-.32.93.93,0,0,0-.07-.33C43.41,102.53,43.35,102.49,43.23,102.53Z"/><path class="cls-2" d="M41.82,101.36c-.12,0-.24,0-.36.06a.35.35,0,0,0-.21.48.59.59,0,0,0,.63.31s.07,0,.09-.07a1.55,1.55,0,0,0,0-.21.67.67,0,0,0-.11-.53A.15.15,0,0,0,41.82,101.36Z"/><path class="cls-2" d="M42.2,103.85a.61.61,0,0,0-.48.37c-.09.25,0,.49.28.51h.38c.23,0,.25,0,.22-.26v-.06c0-.12,0-.24,0-.36S42.37,103.82,42.2,103.85Z"/><path class="cls-2" d="M41.9,100a4.16,4.16,0,0,0,0-.61.37.37,0,0,0-.21-.32L41.48,99a2.07,2.07,0,0,0-.39.64.24.24,0,0,0,.13.34,0,0,0,0,1,0,0,.93.93,0,0,0,.29.36c.11.1.17.09.22-.05l0-.06A.89.89,0,0,0,41.9,100Z"/><path class="cls-2" d="M39.69,99.67a.41.41,0,0,0-.39.18.18.18,0,0,0,0,.1.5.5,0,0,0,.18.3.89.89,0,0,0,.37.23.28.28,0,0,0,.38-.17C40.31,99.86,40.07,99.69,39.69,99.67Z"/><path class="cls-2" d="M42.91,100.63a3.92,3.92,0,0,0,.13.49.94.94,0,0,0,.47.43c.09.06.16,0,.17-.09l0-.34a.34.34,0,0,0-.12-.34,3.18,3.18,0,0,0-.57-.25S42.9,100.6,42.91,100.63Z"/><path class="cls-2" d="M40.48,103.55l-.39.06a1,1,0,0,0-.18.18c-.09.12-.08.15,0,.27s.06.09.1.13,0,.06.06.06h.61c.06,0,.08-.07.06-.14a.5.5,0,0,1,0-.13c0-.06,0-.13,0-.19S40.59,103.55,40.48,103.55Z"/><path class="cls-2" d="M37,105.31a.52.52,0,0,0-.22.12c-.12.19-.23.39-.33.59a.19.19,0,0,0,0,.18.21.21,0,0,0,.27,0,.65.65,0,0,0,.33-.38c.05-.14.14-.28.07-.43S37.06,105.29,37,105.31Z"/><path class="cls-2" d="M57,100.25a.19.19,0,0,1-.08,0,.58.58,0,0,0-.51-.11c-.18,0-.24.17-.12.32a1.45,1.45,0,0,0,.21.22l.74-.12C57.16,100.41,57.13,100.27,57,100.25Z"/><path class="cls-2" d="M50.05,99.68c-.18-.06-.5-.07-.6.13a2.32,2.32,0,0,0-.16.44c0,.06,0,.12.05.15s.06.11.1.14a.7.7,0,0,0,.2.08h.06a3.06,3.06,0,0,0,.37-.35.72.72,0,0,0,.29-.4c0-.06,0-.13-.09-.14Z"/><path class="cls-2" d="M58.19,99.69a.27.27,0,0,0,.16.34.56.56,0,0,0,.44,0,.69.69,0,0,0,.38-.52.9.9,0,0,0-.74-.16.2.2,0,0,0-.12.1A1.59,1.59,0,0,0,58.19,99.69Z"/><path class="cls-2" d="M48.7,101.17a1.94,1.94,0,0,0-.33.07c-.1,0-.11.13-.15.21a.24.24,0,0,0,.07.34,1.49,1.49,0,0,0,.36.17c.19.05.2,0,.23-.18v0a1.78,1.78,0,0,0,0-.28C48.86,101.27,48.8,101.17,48.7,101.17Z"/><path class="cls-2" d="M55.72,96.78a2,2,0,0,0,0-.35c0-.23-.07-.38-.37-.39a.9.9,0,0,0-.58.1c-.1,0-.24.08-.24.24s0,0,0,.06a.64.64,0,0,0,0,.2.77.77,0,0,0,.08.19l0,0a.65.65,0,0,0,.2,0h.79C55.69,96.92,55.72,96.86,55.72,96.78Z"/><path class="cls-2" d="M48.2,98.6c-.05,0-.14,0-.14,0a.84.84,0,0,0-.08.31c0,.09.07.19.07.28a.57.57,0,0,0,.3.42.11.11,0,0,0,.16,0,.72.72,0,0,0,.12-.23A3.29,3.29,0,0,0,48.7,99l-.4-.35A.21.21,0,0,0,48.2,98.6Z"/><path class="cls-2" d="M50.08,101.93l0,.08c-.09.1-.19.2-.28.31s-.09.11,0,.13,0,0,0,.08,0,.1,0,.1a2.11,2.11,0,0,0,.21,0l.17.1a.51.51,0,0,0,.07-.15c0-.09,0-.18,0-.27s0-.21,0-.32,0-.15-.07-.18A.2.2,0,0,0,50.08,101.93Z"/><path class="cls-2" d="M50.35,97.51s.12.08.16.07a1.73,1.73,0,0,1,.24-.1.53.53,0,0,0,.29-.22A.18.18,0,0,0,51,97l-.45-.06a.46.46,0,0,0-.26,0,.92.92,0,0,1-.4.15s-.1.07-.09.1a.2.2,0,0,0,.08.15c.09,0,.2.05.29.08A.38.38,0,0,1,50.35,97.51Z"/><path class="cls-2" d="M51.09,96.16a3.2,3.2,0,0,0,.37.19s.07,0,.09-.06.07-.13.12-.19a.56.56,0,0,0,.1-.45c0-.17-.41-.37-.56-.27s-.27,0-.25.21l0,0a.05.05,0,0,0,0,0c0,.06,0,.12,0,.18S51,96,51,96,51,96.13,51.09,96.16Z"/><path class="cls-2" d="M58.36,98.38a3.2,3.2,0,0,0,.37.19s.07,0,.09-.06.07-.13.12-.19a.56.56,0,0,0,.1-.45c0-.17-.41-.37-.56-.27s-.27,0-.25.21l0,0s0,0,0,0,0,.12,0,.18.14.13.13.16S58.31,98.35,58.36,98.38Z"/><path class="cls-2" d="M51.12,98.33c-.08,0-.18-.06-.25,0a.41.41,0,0,0-.09.41,1,1,0,0,1,.08.14.57.57,0,0,0,.38.33s.12,0,.13,0a.71.71,0,0,0,.2-.53.36.36,0,0,0-.11-.23A1.23,1.23,0,0,0,51.12,98.33Z"/><path class="cls-2" d="M52.69,101.2a1.73,1.73,0,0,0-.2.32.22.22,0,0,0,.14.29.24.24,0,0,1,.15.11s.08,0,.12.06.06,0,.06-.07a1,1,0,0,0,0-.63.1.1,0,0,1,0,0C52.91,101.08,52.81,101.05,52.69,101.2Z"/><path class="cls-2" d="M52.45,98.72c.07,0,.12,0,.16,0a.41.41,0,0,1,.07-.11.63.63,0,0,0,.13-.55.51.51,0,0,0-.45-.3.13.13,0,0,0-.17.12c0,.13-.1.26,0,.39a1.33,1.33,0,0,1,0,.19A.5.5,0,0,0,52.45,98.72Z"/><path class="cls-2" d="M53.16,99.1a.37.37,0,0,0-.21.12,5,5,0,0,0-.34.59.19.19,0,0,0,0,.18.24.24,0,0,0,.27,0,.74.74,0,0,0,.34-.38c0-.14.13-.28.07-.43S53.23,99.08,53.16,99.1Z"/><path class="cls-2" d="M54.17,100.67c-.2-.07-.31,0-.26.26s.05.22.09.33,0,0,.07.06l.08.05.3.18c.06,0,.11,0,.12-.06a1.21,1.21,0,0,0,0-.19c0-.12,0-.23,0-.34s0-.06-.06-.07A2.16,2.16,0,0,0,54.17,100.67Z"/><path class="cls-2" d="M52.36,97a3.14,3.14,0,0,0,.51-.12.51.51,0,0,0,.28-.43,1.65,1.65,0,0,0,0-.32.33.33,0,0,0-.31,0,.88.88,0,0,1-.21.12.66.66,0,0,0-.35.4c0,.08-.07.17-.12.28A.69.69,0,0,0,52.36,97Z"/><path class="cls-2" d="M52.66,95h0l.53.08a.13.13,0,0,0,.15-.14,1.62,1.62,0,0,0,0-.38c0-.18-.05-.26-.26-.28a1,1,0,0,0-.48.07.12.12,0,0,0,0,.05l-.14.29.09.12Z"/><path class="cls-2" d="M54.49,98.5a.14.14,0,0,0,.11,0,.7.7,0,0,0,.22-.49.28.28,0,0,0-.13-.24c-.16-.13-.36-.1-.54-.16a.2.2,0,0,0-.17,0,.5.5,0,0,0-.09.39,4.09,4.09,0,0,0,.28.33A1,1,0,0,0,54.49,98.5Z"/><path class="cls-2" d="M54.43,94.68c.2,0,.25,0,.28.19a.22.22,0,0,0,.21.19S55,95,55,95c0-.21,0-.43,0-.64a.3.3,0,0,0-.06-.2.35.35,0,0,0-.39,0c-.12.08-.31.1-.27.33S54.27,94.66,54.43,94.68Z"/><path class="cls-2" d="M57,97.5a.49.49,0,0,0,0,.21c0,.1.07.11.16.08a1.62,1.62,0,0,0,.46-.31.41.41,0,0,0,.13-.38c0-.19-.19-.28-.32-.21a.53.53,0,0,0-.26.27A3.45,3.45,0,0,0,57,97.5Z"/><path class="cls-2" d="M56,98.26l0,.52c0,.23.1.5.35.57.08,0,.19,0,.17-.12s0-.21,0-.32a.48.48,0,0,0,0-.29,2.4,2.4,0,0,0-.28-.37C56.17,98.14,56.12,98.14,56,98.26Z"/><path class="cls-2" d="M56.31,95.56h0c0,.12,0,.24,0,.36.17.06.28.2.45.17s.13.06.19.06.12,0,.09-.12a.33.33,0,0,1,0-.1.88.88,0,0,0,0-.16.54.54,0,0,0-.13-.32C56.71,95.49,56.51,95.5,56.31,95.56Z"/><path class="cls-2" d="M48.81,98.18s0,0,0,0a.29.29,0,0,0,.13.1c.07,0,.13,0,.2-.13a.18.18,0,0,1,.22-.09.16.16,0,0,0,.15,0,.18.18,0,0,0,0-.16.27.27,0,0,0-.46-.06s0,0-.06.06a1.38,1.38,0,0,0-.08-.2h0s-.1-.1-.15-.1-.09.08-.1.13a2.11,2.11,0,0,0,0,.35.61.61,0,0,1,.15.12Z"/><path class="cls-2" d="M55,99.28s-.07-.06-.09,0a.13.13,0,0,0,0-.11s-.08,0-.14,0a2.31,2.31,0,0,0-.24.2c-.14.16-.13.22,0,.33a.13.13,0,0,1,.05.06.94.94,0,0,0,0,.16.17.17,0,0,0,0,.17.32.32,0,0,0,.4.12h.06s.07,0,.08-.07.07-.21.1-.31a.2.2,0,0,0,0-.23A2.61,2.61,0,0,1,55,99.28Z"/><path class="cls-2" d="M51.64,100.52a.2.2,0,0,0-.2,0,.29.29,0,0,0-.26-.25.13.13,0,0,0-.09.06l-.06.19s0,0,0,0,.16.1.1.23-.07.27.1.34l.06,0a.43.43,0,0,0,.07.2c0,.11.14.09.23.13s0-.08,0-.12a1,1,0,0,1,.06-.16c0-.06.09-.11.09-.17a1.21,1.21,0,0,0,0-.38S51.69,100.55,51.64,100.52Z"/><path class="cls-2" d="M112.19,38.47a5,5,0,0,0,2.24.32l-.38-1.35a3.51,3.51,0,0,1-.94-.6,2.91,2.91,0,0,1-.94-1.84l-2.86.78A5.42,5.42,0,0,0,112.19,38.47Z"/><path class="cls-2" d="M122.27,35.84a2.91,2.91,0,0,1,1.84-.94L123.32,32a5.46,5.46,0,0,0-2.69,2.88,4.83,4.83,0,0,0-.31,2.24l1.35-.38A3.28,3.28,0,0,1,122.27,35.84Z"/><path class="cls-2" d="M117.14,37.25l.69-1.22a3.44,3.44,0,0,1-.24-1.08,3,3,0,0,1,.64-2l-2.58-1.46a5.44,5.44,0,0,0,.13,3.94A5,5,0,0,0,117.14,37.25Z"/><path class="cls-2" d="M141.64,53a25.73,25.73,0,0,1-6.71,8.5,25.13,25.13,0,0,1-9.58,5,25.47,25.47,0,0,1-10.74.58,25.73,25.73,0,0,1-10-3.91l-1.47,2.24A28.68,28.68,0,0,0,109,68.26a45.8,45.8,0,0,1,5,8.4A7.84,7.84,0,0,0,103.68,82a7.21,7.21,0,0,0-11,3.22,18.34,18.34,0,0,0-5.29-4.67,18,18,0,0,0-25,6.92,18.24,18.24,0,0,0-2.12,6.61,8.7,8.7,0,0,0-15,3.63,7.83,7.83,0,0,0-11.46,1.77c-.43-1.81-.78-3.64-1.07-5.48a61.37,61.37,0,0,1-.47-14.52c.14-1.53.34-3,.6-4.57a16.36,16.36,0,0,1,5.73-2.32L37.86,70a19,19,0,0,0-4.36,1.64,48.44,48.44,0,0,1,8.9-18.89,39.51,39.51,0,0,1,10.73-9.48l.61-.34a31.22,31.22,0,0,0,.16,8.79,26.19,26.19,0,0,0,1.82,6.17A26.92,26.92,0,0,0,59,63.4a33.64,33.64,0,0,0,9.73,8.15h0l.73.41.65-.45,10.52-7.14-1-1.57-10.24,6a30.37,30.37,0,0,1-8.29-7.07,24.85,24.85,0,0,1-3-5,23.15,23.15,0,0,1-1.63-5.55,29.1,29.1,0,0,1,.11-9.85,40.21,40.21,0,0,1,9.9-3,38.92,38.92,0,0,1,14.31.39,44.44,44.44,0,0,1,13.37,5.39l1.18-1.9a44.31,44.31,0,0,0-14-5.93,41.43,41.43,0,0,0-15.26-.55,40.78,40.78,0,0,0-8.81,2.41,42.45,42.45,0,0,1,3.77-9.64L58.8,27.19A42.65,42.65,0,0,0,56.16,33,45.14,45.14,0,0,0,54.38,39c0,.19-.07.37-.11.55-.85.43-1.7.89-2.52,1.38A42,42,0,0,0,40.3,51.07a51.54,51.54,0,0,0-10,22.67A18.44,18.44,0,0,0,24,92l1.68-.47a16.48,16.48,0,0,1,2.55-12.15,16.84,16.84,0,0,1,1.53-1.93c-.07.57-.13,1.15-.18,1.72a64.06,64.06,0,0,0,.49,15.16,69.52,69.52,0,0,0,1.56,7.43c.36,1.35.73,2.68,1.1,4,0,0,0,.07,0,.1h0c.28,1,.58,2,.86,3.09l.36,1.28,1.29-.35,27.21-7.53,1.29-.36-.36-1.29a16.18,16.18,0,0,1,1.36-12,15.29,15.29,0,0,1,21.3-5.9,16.17,16.17,0,0,1,7.34,9.6l.36,1.3,1.29-.36,23.76-6.58,1.24-.34-.29-1.25a48.7,48.7,0,0,0-6.71-15.83q.58.12,1.17.21A27.85,27.85,0,0,0,126,68.79a27.46,27.46,0,0,0,10.37-5.56,28.2,28.2,0,0,0,7.12-9.32ZM45.81,104.21l-1,.27.13-.13a.4.4,0,0,0,.08-.4c-.07-.18-.22-.25-.34-.17a.47.47,0,0,0-.22.3,2.42,2.42,0,0,0-.1.36.43.43,0,0,0,0,.16L35.83,107c-.15-.56-.31-1.11-.46-1.66h0a3.78,3.78,0,0,0,.46-.1l.14,0a.36.36,0,0,0,.34-.19c.11-.21.16-.24-.12-.3h0c-.32-.06-.54-.11-.77.16a1.32,1.32,0,0,0-.12.2,5.18,5.18,0,0,1,10-2.63Zm14.28-3.95-11.61,3.22-.59-2.15a6,6,0,0,1,1.84-6.13.78.78,0,0,0-.07.45.54.54,0,0,1,0,.18c0,.13.05.21.09.3l.3-.16a.2.2,0,0,0,.11-.22c0-.11,0-.21,0-.32a.46.46,0,0,0-.19-.34h-.05a6.2,6.2,0,0,1,2.22-1.16,6,6,0,0,1,7.41,4.2Zm44.12-12.21-8.63,2.39C95.41,90,95.06,89,95.06,89A4.53,4.53,0,0,1,95.9,85a.36.36,0,0,0,0,.32,2.77,2.77,0,0,0,.26.48.52.52,0,0,0,.18.15l.06,0c.1.08.15.06.19-.07a.78.78,0,0,0,.06-.4s0,0,0,0,.07-.22,0-.31a1.82,1.82,0,0,0-.58-.31,4.48,4.48,0,0,1,2.19-1.38,4.54,4.54,0,0,1,5.59,3.17Zm12.6-3.49-4.39,1.22.07-.13.05-.08s0-.07,0-.09-.06-.22-.09-.33-.21-.25-.36-.08a2,2,0,0,0-.22.38.22.22,0,0,0,0,.09l.2.27,0,0-3.63,1,.47-.54a1.63,1.63,0,0,0-.07-.3c-.06-.18-.2-.2-.33-.06a.56.56,0,0,0-.19.48.13.13,0,0,1,0,.09c-.07.14,0,.24.09.34l-1.65.46-.4-1.46-.14-.47A5.21,5.21,0,0,1,109.89,79a4.94,4.94,0,0,1,2.19-.12A.11.11,0,0,0,112,79a.5.5,0,0,0,.2.33l.25.2a.17.17,0,0,0,.24,0l.29-.18c0-.08-.08-.19-.21-.23a.46.46,0,0,1-.15-.09.28.28,0,0,0-.11-.08,5.2,5.2,0,0,1,3.75,3.65Z"/><path class="cls-2" d="M102.21,47.67l0,0a.67.67,0,0,0,.57,0,.14.14,0,0,0,.09-.09.56.56,0,0,0-.06-.44,2,2,0,0,0-.47-.5c-.17-.12-.33-.14-.4,0h0c-.16.07,0,.41,0,.56S102,47.65,102.21,47.67Z"/><path class="cls-2" d="M124,40.61l-.75.11c0,.13.08.26.24.28a.12.12,0,0,1,.08,0,.6.6,0,0,0,.52.1c.18,0,.24-.17.12-.32A1,1,0,0,0,124,40.61Z"/><path class="cls-2" d="M113.86,43.45a.26.26,0,0,1,.13.06.56.56,0,0,0,.5.09c.14,0,.22-.32.19-.45s0-.07,0-.09l-.93.2C113.71,43.37,113.74,43.44,113.86,43.45Z"/><path class="cls-2" d="M118,42.64a.57.57,0,0,0,.38-.33.32.32,0,0,1,.08-.12c.09-.07.09-.15,0-.22l-.89.31s0,0,0,.08S117.82,42.69,118,42.64Z"/><path class="cls-2" d="M132.19,54.77a.64.64,0,0,0,.46.13s.13,0,.16-.1a.77.77,0,0,0,.07-.26,3.4,3.4,0,0,0,.06-.39c-.09-.15-.16-.34-.37-.33a.42.42,0,0,0-.15,0l-.06,0a.83.83,0,0,0-.44.6.16.16,0,0,0,.09.18A.64.64,0,0,1,132.19,54.77Z"/><path class="cls-2" d="M120.06,42.6a1.08,1.08,0,0,0,0-.31.7.7,0,0,0-.38-.53c-.21-.09-.37.21-.5.3s-.17.72.1.7h.1a.94.94,0,0,0,.57-.06A.14.14,0,0,0,120.06,42.6Z"/><path class="cls-2" d="M123.44,60.48a.78.78,0,0,1,.22,0,.64.64,0,0,0,.5-.21c.08-.08,0-.43,0-.52a.73.73,0,0,0-.67-.2.38.38,0,0,0-.09.13,1.53,1.53,0,0,0-.06.73C123.3,60.48,123.36,60.49,123.44,60.48Z"/><path class="cls-2" d="M130.89,39.43a.55.55,0,0,0,.4,0c.19-.09.28-.33.37-.59,0-.05,0-.11,0-.15s-.07-.11-.11-.14a.68.68,0,0,0-.2-.07.06.06,0,0,0-.06,0c-.12.12-.28.2-.37.35h0c-.16.08-.21.24-.29.39a.12.12,0,0,0,.1.14Z"/><path class="cls-2" d="M107.91,57.88a.2.2,0,0,0,.26-.07,1.4,1.4,0,0,0,.24-.47c0-.13,0-.24-.24-.34a.65.65,0,0,0-.64.13.7.7,0,0,0-.19.26s0,.08,0,.1A1.63,1.63,0,0,0,107.91,57.88Z"/><path class="cls-2" d="M104.92,54.17a.57.57,0,0,0-.49-.06s-.05,0-.07.06-.06.14-.09.23a1.15,1.15,0,0,0-.08.29c0,.15.1.15.19.19l.09,0a.73.73,0,0,0,.5.07s.08,0,.09-.06a.63.63,0,0,0,0-.5A.4.4,0,0,0,104.92,54.17Z"/><path class="cls-2" d="M137.46,43.6s0-.06,0-.09.11-.34-.06-.5-.47-.22-.63-.09a.84.84,0,0,0-.25.38c0,.1,0,.16.1.2a1.09,1.09,0,0,0,.27.11,2.17,2.17,0,0,0,.43.08S137.43,43.64,137.46,43.6Z"/><path class="cls-2" d="M123.33,42.16a.65.65,0,0,0-.08-.28c-.07-.09-.19-.14-.25-.24s0,0,0,0l0,0h0c-.16,0-.27,0-.35.18a1,1,0,0,0-.07.57c.06.14.25.14.38.18a.52.52,0,0,0,.3,0,.25.25,0,0,0,.16-.08A.33.33,0,0,0,123.33,42.16Z"/><path class="cls-2" d="M129.83,39.94a.16.16,0,0,0,.08,0,2.32,2.32,0,0,0,.16-.51.6.6,0,0,0-.17-.3c-.13-.09-.26.06-.36,0a.16.16,0,0,0-.17.06,1.84,1.84,0,0,0-.17.25c-.08.11-.12.2,0,.33A.64.64,0,0,0,129.83,39.94Z"/><path class="cls-2" d="M125.09,40.79c0,.14,0,.17.14.15l.16,0a1.42,1.42,0,0,0,.31,0,.44.44,0,0,0,.25-.7c-.28-.44-.49,0-.69.24A.59.59,0,0,0,125.09,40.79Z"/><path class="cls-2" d="M102.78,52s-.43-.19-.46-.09h0a1.71,1.71,0,0,0,.14.49.72.72,0,0,0,.14.26c.15.13.27.3.51.32s.21,0,.24-.14a.3.3,0,0,0-.06-.19,1.37,1.37,0,0,0-.15-.21A1.74,1.74,0,0,0,102.78,52Z"/><path class="cls-2" d="M132.28,39.66a.89.89,0,0,0,.58.08.17.17,0,0,0,.11-.09,1,1,0,0,0,.05-.42.38.38,0,0,0-.28-.31s-.05,0-.08,0-.08,0-.11,0a.61.61,0,0,0-.36.31l-.06.17c-.06.14,0,.22.11.28Z"/><path class="cls-2" d="M104,46.71s.09,0,.14,0a.81.81,0,0,0,.3,0c.21,0,.36-.14.33-.44a.42.42,0,0,0,0-.2,1.09,1.09,0,0,0-.26-.21.3.3,0,0,0-.28,0c-.14.05-.15.19-.21.28a1,1,0,0,0-.09.39C103.9,46.66,103.91,46.73,104,46.71Z"/><path class="cls-2" d="M136.63,44.73a.17.17,0,0,0-.06.08c0,.14-.07.28-.11.41a.13.13,0,0,0,.11.17l.12,0,.45,0c.2-.07.25-.13.25-.32a1.08,1.08,0,0,0,0-.18.34.34,0,0,0-.39-.32A1.56,1.56,0,0,0,136.63,44.73Z"/><path class="cls-2" d="M136.56,37.7a.68.68,0,0,0,.62,0,.43.43,0,0,0,.15-.15.17.17,0,0,0,0-.12,1,1,0,0,0-.09-.3A.65.65,0,0,0,137,37c-.07-.06-.3-.14-.39-.07a.38.38,0,0,0-.08.11,1.41,1.41,0,0,0-.11.36.19.19,0,0,0,0,.08C136.4,37.63,136.41,37.63,136.56,37.7Z"/><path class="cls-2" d="M106.39,46.3a.21.21,0,0,0,.23-.12.62.62,0,0,0,.08-.56.4.4,0,0,0-.23-.21c-.18-.07-.38,0-.42.2s-.12.18-.19.27,0,.1,0,.16A.57.57,0,0,0,106.39,46.3Z"/><path class="cls-2" d="M134,53l.25-.26a.62.62,0,0,0,.11-.17c.06-.14.1-.29.17-.43a.26.26,0,0,0,0-.19c0-.07-.21,0-.4.06a.85.85,0,0,0-.34.22,1.36,1.36,0,0,0-.12.39.91.91,0,0,0,0,.33A.18.18,0,0,0,134,53Z"/><path class="cls-2" d="M126.37,59a1.89,1.89,0,0,0,.41,0c.08,0,.2-.09.2-.15s0-.36-.13-.5a.47.47,0,0,0-.6,0l0,0a.33.33,0,0,0-.1.23C126.05,58.89,125.94,59,126.37,59Z"/><path class="cls-2" d="M118.74,61.16a.69.69,0,0,0,.37-.08.19.19,0,0,0,.09-.11.46.46,0,0,0-.27-.41c-.23-.08-.69-.32-.76,0a.57.57,0,0,0,0,.22C118.23,61,118.52,61.13,118.74,61.16Z"/><path class="cls-2" d="M100.52,47.62a.48.48,0,0,0,.24,0,.58.58,0,0,0,.32-.64.16.16,0,0,0-.11-.1.53.53,0,0,0-.28,0,5,5,0,0,0-.47.22c-.13.07-.24.25-.14.38S100.41,47.6,100.52,47.62Z"/><path class="cls-2" d="M121.41,42a.19.19,0,0,0,.12-.1,1.39,1.39,0,0,0,.12-.28.26.26,0,0,0-.16-.33.56.56,0,0,0-.44,0,.7.7,0,0,0-.39.52A.88.88,0,0,0,121.41,42Z"/><path class="cls-2" d="M136.83,40a1,1,0,0,0,.64.1.23.23,0,0,0,.18-.21c0-.11,0-.22,0-.33a.29.29,0,0,0-.41-.23l-.08.08v0c-.1.09-.19,0-.29.17s-.17.27-.12.34A.24.24,0,0,0,136.83,40Z"/><path class="cls-2" d="M111.55,44.36h0a1,1,0,0,0,.52,0,.68.68,0,0,0,.4-.4.22.22,0,0,0,0-.14s-.08-.11-.11-.11l-.47.11-.15,0a.37.37,0,0,0-.33.19C111.32,44.27,111.27,44.3,111.55,44.36Z"/><path class="cls-2" d="M120.48,61.08h.36a.4.4,0,0,0,.43-.55s0-.05,0-.06-.4-.26-.57-.13l0,0a.79.79,0,0,0-.3.49C120.35,61,120.36,61.08,120.48,61.08Z"/><path class="cls-2" d="M102.1,50.36c0-.15-.12-.42-.27-.5a.36.36,0,0,0-.37.06.51.51,0,0,0-.15.14.4.4,0,0,0,0,.32.63.63,0,0,0,.57.35.16.16,0,0,0,.11,0A.4.4,0,0,0,102.1,50.36Z"/><path class="cls-2" d="M108.09,45.31a1,1,0,0,0,.64-.07c.21-.06.25-.16.33-.36-.3-.25-.85.07-1.18.09,0,0-.08.09-.1.14s0,.08.08.1Z"/><path class="cls-2" d="M136.49,47.32a1,1,0,0,0-.45.57.32.32,0,0,0,.13.23l.24,0a.18.18,0,0,0,.24-.15l.07-.18c0-.12.07-.23.11-.36s-.08-.16-.13-.19A.26.26,0,0,0,136.49,47.32Z"/><path class="cls-2" d="M115.71,44.3a4,4,0,0,0,.48.07c.19,0,.25-.12.22-.33a.62.62,0,0,0-.14-.18.58.58,0,0,0-.63,0,.38.38,0,0,0-.15.3c0,.09.12.08.2.11Z"/><path class="cls-2" d="M116.36,43.44a.53.53,0,0,0,.19-.43.42.42,0,0,0-.52-.24.42.42,0,0,0-.21.4A.6.6,0,0,0,116.36,43.44Z"/><path class="cls-2" d="M101.31,48.69a.46.46,0,0,0,.53.36.42.42,0,0,0,.23-.17c.19-.33-.38-.86-.76-.58C101.22,48.36,101.29,48.6,101.31,48.69Z"/><path class="cls-2" d="M119.74,49.82a4,4,0,0,0,0,.49.36.36,0,0,0,.3.3l.35,0h.09c.15,0,.48-.1.39-.34,0-.06-.12-.09-.18-.13a.1.1,0,0,1-.06-.09.17.17,0,0,0-.12-.17l-.21-.09-.37-.12C119.81,49.69,119.74,49.73,119.74,49.82Z"/><path class="cls-2" d="M120.67,53.84a.56.56,0,0,0,.5.18c.22-.06.6-.07.67-.34v0c0-.18-.15-.28-.28-.38a1.66,1.66,0,0,0-.31-.12c-.09,0-.17,0-.22.07a.1.1,0,0,1,0,0,1,1,0,0,0-.34.49A.15.15,0,0,0,120.67,53.84Z"/><path class="cls-2" d="M121.28,50.87s-.1,0-.12,0a.21.21,0,0,0,0,.14.34.34,0,0,0,0,.14l0,.3a.47.47,0,0,0,.38.27c.07,0,.13,0,.12-.12l-.06-.34a1.6,1.6,0,0,0,0-.21C121.5,50.94,121.39,50.91,121.28,50.87Z"/><path class="cls-2" d="M118.19,44.18a1,1,0,0,0,.45-.81c-.15,0-1-.14-.91.15a1.26,1.26,0,0,1,0,.28.46.46,0,0,0,.09.3C118,44.26,118,44.28,118.19,44.18Z"/><path class="cls-2" d="M117.7,45.41s.07,0,.11,0,.07,0,.11,0c.09-.45-.22-.76-.33-1.16,0,0-.1-.07-.16-.07s-.07.06-.08.1a1,1,0,0,0,0,.24C117.29,44.68,117.5,45.47,117.7,45.41Z"/><path class="cls-2" d="M118.45,48.13s0,0,0,0a.8.8,0,0,0,0,.53c0,.08.06.16.17.16s.08,0,0,.09a.23.23,0,0,1-.07.07,1,1,0,0,0-.33.44c-.08.19.24.43.35.54s0,0,0,0h0a.44.44,0,0,0,.3-.47,1.15,1.15,0,0,0-.14-.57s0-.05,0-.07,0,0,0-.06a.65.65,0,0,0,.23-.39.28.28,0,0,0,0-.18.41.41,0,0,0-.15-.14C118.79,48.06,118.48,47.83,118.45,48.13Z"/><path class="cls-2" d="M119.49,54.16a.17.17,0,0,0,0,.23c.09.12.18.23.28.34s.06,0,.1,0,0,0,0,0,.1,0,.13,0a.25.25,0,0,0,.08-.15,1.89,1.89,0,0,0,0-.58.38.38,0,0,0-.09-.18s-.12-.07-.15,0a.6.6,0,0,0-.34.32S119.52,54.13,119.49,54.16Z"/><path class="cls-2" d="M119,52a.16.16,0,0,0-.12,0,1.51,1.51,0,0,0-.18.09.69.69,0,0,0-.23.37c0,.12,0,.19.06.27s.36.36.53.28.41-.17.28-.49A2.33,2.33,0,0,0,119,52Z"/><path class="cls-2" d="M116.29,47.06a.42.42,0,0,0,.18.11.18.18,0,0,0,.12,0,1.47,1.47,0,0,0,.28-.14.86.86,0,0,0,.14-.25.25.25,0,0,0,0-.12c0-.1,0-.2,0-.31l-.15.06c-.15-.14-.15-.14-.36-.12h-.08c-.17,0-.16,0-.2.17A.71.71,0,0,0,116.29,47.06Z"/><path class="cls-2" d="M119.11,57.34c0-.09-.07-.19-.15-.22s-.31.14-.4.24a1.17,1.17,0,0,0-.19.3.69.69,0,0,0,.1.39c0,.05.08.17.15.19s.11-.05.21,0,0,0,0,0a.24.24,0,0,0,.23,0c.12-.06.11-.15.08-.24s-.07-.18,0-.26l0-.1a.2.2,0,0,0,0-.13Z"/><path class="cls-2" d="M117.63,51.49a.37.37,0,0,0,.18,0c.16,0,.39-.2.28-.39s-.15-.15-.19-.26-.07-.29-.24-.44a.13.13,0,0,0-.13,0c-.17.16-.39.31-.42.58,0,.05,0,.13,0,.17S117.43,51.46,117.63,51.49Z"/><path class="cls-2" d="M122.7,48.41a.15.15,0,0,0-.14,0c-.17.16-.39.31-.41.58a.25.25,0,0,0,0,.17c.16.16.29.35.5.38a.4.4,0,0,0,.18,0c.15,0,.39-.2.28-.39s-.15-.15-.2-.26A.82.82,0,0,0,122.7,48.41Z"/><path class="cls-2" d="M116.76,49.7a.7.7,0,0,0-.29-.13s-.08,0-.09,0a1.7,1.7,0,0,0-.28.61.22.22,0,0,0,.12.25l.52.19.19-.21s0,0,0,0l.08-.16,0-.16s-.07-.08-.07-.11S116.84,49.77,116.76,49.7Z"/><path class="cls-2" d="M115.5,49c.1,0,.45.12.47,0s.1-.08.12-.13a.51.51,0,0,0,0-.21,0,0,0,0,0,0-.06,1.75,1.75,0,0,0-.42-.29h0c-.11-.15-.28-.16-.43-.2s-.13,0-.13.12a.81.81,0,0,1,0,.22A.53.53,0,0,0,115.5,49Z"/><path class="cls-2" d="M116.22,53.5a.14.14,0,0,0,.09.09.61.61,0,0,0,.53,0c.13-.44,0-.5-.41-.68a.12.12,0,0,0-.16,0A.64.64,0,0,0,116.22,53.5Z"/><path class="cls-2" d="M117.22,55c.11.17.19.41.46.42.09,0,.21.08.24-.07a.83.83,0,0,0-.15-.43c-.1-.2-.2-.38-.31-.56a.27.27,0,0,0-.12-.09s-.07,0-.08.06a.71.71,0,0,0-.08.18A.53.53,0,0,0,117.22,55Z"/><path class="cls-2" d="M115.47,45.21a1.44,1.44,0,0,0-.38.36.69.69,0,0,0-.18.24.94.94,0,0,0-.07.62c.07.16.08.2.24.15s.11-.08.15-.13.09-.16.13-.24a2.25,2.25,0,0,0,.22-.58C115.59,45.58,115.6,45.16,115.47,45.21Z"/><path class="cls-2" d="M113.8,45a.17.17,0,0,0,.12.1l.3.07a.26.26,0,0,0,.29-.23.56.56,0,0,0-.12-.43.69.69,0,0,0-.59-.27A.91.91,0,0,0,113.8,45Z"/><path class="cls-2" d="M115.84,52.53a.52.52,0,0,0,.1-.62s0,0,0,0a1.85,1.85,0,0,0-.29-.13.16.16,0,0,0-.19.09,1.34,1.34,0,0,0-.12.24,1.41,1.41,0,0,0-.07.45C115.27,52.84,115.74,52.64,115.84,52.53Z"/><path class="cls-2" d="M115.66,53.72c0-.1-.15-.09-.24-.09s-.07.07-.08.11a.92.92,0,0,1-.07.32.57.57,0,0,0,.2.63c.13.12.28.22.47.09a.54.54,0,0,1,0-.15c0-.18-.05-.36-.09-.54A2.39,2.39,0,0,0,115.66,53.72Z"/><path class="cls-2" d="M114.1,56.34a.29.29,0,0,0,.18-.07l.1-.09a.49.49,0,0,0,.11-.2.53.53,0,0,0-.11-.5.44.44,0,0,0-.22-.07s-.1.06-.13.1,0,.15-.08.2S113.79,56.35,114.1,56.34Z"/><path class="cls-2" d="M114.5,57.23a.14.14,0,0,0-.12,0,.88.88,0,0,0-.13.68s.06.08.1.09a2.8,2.8,0,0,0,.28.06h.05a.78.78,0,0,0,.22-.43,0,0,0,0,0,0,0l-.16-.18-.08-.1A.91.91,0,0,0,114.5,57.23Z"/><path class="cls-2" d="M112.8,51.2s0,0,0,0a.62.62,0,0,0,.1.42l0,.07a.24.24,0,0,0,.41,0,4.88,4.88,0,0,0,.2-.65c0-.06,0-.14-.08-.21s-.08,0-.13,0h0c-.05-.09-.11,0-.16,0a.75.75,0,0,0-.12.07C112.81,51,112.81,51,112.8,51.2Z"/><path class="cls-2" d="M115.43,58.32a.32.32,0,0,0-.1.22c0,.15,0,.3,0,.46a.67.67,0,0,0,.14.11l.2,0a.31.31,0,0,0,.27-.17,2.64,2.64,0,0,0,.1-.3.06.06,0,0,0,0,0l-.19-.12-.08-.06s-.09-.11-.14-.13S115.45,58.29,115.43,58.32Z"/><path class="cls-2" d="M115,50.24a.33.33,0,0,0-.08-.32,2.32,2.32,0,0,0-.75-.52.09.09,0,0,0-.12.09,1.54,1.54,0,0,0,0,.43.71.71,0,0,0,.17.32.61.61,0,0,0,.45.16A.34.34,0,0,0,115,50.24Z"/><path class="cls-2" d="M119.68,46.78a.36.36,0,0,0,.31-.16.33.33,0,0,0-.09-.33,2.14,2.14,0,0,0-.74-.51.09.09,0,0,0-.12.09,1.46,1.46,0,0,0,0,.42.75.75,0,0,0,.17.33A.6.6,0,0,0,119.68,46.78Z"/><path class="cls-2" d="M114.56,52.83h0a.44.44,0,0,0,.37-.39.5.5,0,0,0-.29-.42,1.22,1.22,0,0,0-.46-.06c-.14,0-.18,0-.14.18v.07c0,.13,0,.26,0,.34C114.24,52.84,114.29,52.86,114.56,52.83Z"/><path class="cls-2" d="M115.78,56.08c.09,0,.06-.15.1-.22s0-.06,0-.09-.16-.13-.2-.21a.33.33,0,0,0-.26-.2.17.17,0,0,0-.12.07.69.69,0,0,0-.11.28,1.08,1.08,0,0,0,0,.36c0,.1.33.23.48.18A1.2,1.2,0,0,1,115.78,56.08Z"/><path class="cls-2" d="M113.36,44.89s-.08-.1-.13-.15a.9.9,0,0,0-.57-.2.15.15,0,0,0-.1.06,1.34,1.34,0,0,0-.07.18.75.75,0,0,0,.06.55.16.16,0,0,0,.07.07C113.06,45.44,113.32,45.4,113.36,44.89Z"/><path class="cls-2" d="M113.39,47.41a2.16,2.16,0,0,0,.36,0c.09,0,.26,0,.26-.17,0,0,0,0,0,0a.2.2,0,0,0,.09-.24l-.13-.1-.07-.06c-.09,0-.09,0-.13-.06s-.09-.17-.21-.11l0,0-.28-.12c-.15-.07-.17-.06-.2.1,0,0,0,0,0,0s-.09.31,0,.47A.44.44,0,0,0,113.39,47.41Z"/><path class="cls-2" d="M113.27,48.45l-.55-.23a.61.61,0,0,0-.13,0,.72.72,0,0,0-.1.47c0,.19.1.36.31.36s.32,0,.43-.11.15-.16.2-.25a.17.17,0,0,0,0-.14S113.31,48.47,113.27,48.45Z"/><path class="cls-2" d="M111.16,46.24a1.17,1.17,0,0,0,0,.32.94.94,0,0,0,.07.34c.06.13.12.17.24.13s.08,0,.12,0a2.47,2.47,0,0,0,.46-.23c.23-.14,0-.48-.11-.58a.73.73,0,0,0-.39-.1.83.83,0,0,0-.28,0S111.17,46.2,111.16,46.24Z"/><path class="cls-2" d="M111,47.73a.13.13,0,0,0-.09.07,1.55,1.55,0,0,0,0,.21.67.67,0,0,0,.11.53.15.15,0,0,0,.08,0l.36,0a.35.35,0,0,0,.21-.48A.56.56,0,0,0,111,47.73Z"/><path class="cls-2" d="M110.38,45.65a.61.61,0,0,0,.49-.37c.09-.25,0-.5-.29-.52h-.38c-.23,0-.25,0-.22.27v0c0,.12,0,.24,0,.36S110.21,45.68,110.38,45.65Z"/><path class="cls-2" d="M111.7,50.83a2.37,2.37,0,0,0,.4-.65c.06-.16,0-.24-.14-.33l0,0a.87.87,0,0,0-.3-.36c-.11-.1-.16-.09-.21,0l0,.06a.89.89,0,0,0-.09.26,3.22,3.22,0,0,0,0,.62.36.36,0,0,0,.21.32Z"/><path class="cls-2" d="M111.9,53.34a1.53,1.53,0,0,0,.58-.05,1,1,0,0,1,.07-.21.24.24,0,0,0-.13-.36.85.85,0,0,1-.36-.12,1.18,1.18,0,0,0-.48-.16c-.09,0-.13,0-.13.11a.57.57,0,0,1,0,.13A.62.62,0,0,0,111.9,53.34Z"/><path class="cls-2" d="M109.49,47.33a.84.84,0,0,0,.07.54c0,.06.06.13.16.08a2,2,0,0,1,.26-.09h0l.16-.08a.39.39,0,0,0,.1-.5.42.42,0,0,0-.35-.2C109.65,47,109.5,47,109.49,47.33Z"/><path class="cls-2" d="M109.86,50.15a.1.1,0,0,0,0-.09.46.46,0,0,0-.18-.31.89.89,0,0,0-.37-.23.28.28,0,0,0-.38.18C108.83,50.23,109.53,50.64,109.86,50.15Z"/><path class="cls-2" d="M109.22,51.59a.41.41,0,0,1,0,.11.89.89,0,0,0,.08.54c.06.11.07.13.24.13a.57.57,0,0,0,.52-.18c.05-.07,0-.17.06-.24s-.21-.35-.35-.41a2.05,2.05,0,0,0-.43-.09C109.25,51.44,109.2,51.49,109.22,51.59Z"/><path class="cls-2" d="M110.16,54.73a.4.4,0,0,0,.55-.25.88.88,0,0,0,.05-.15c.08-.33-.25-.2-.49-.38a.24.24,0,0,0-.21-.06l-.16,0c-.09,0-.12.05-.1.14C109.87,54.31,109.88,54.61,110.16,54.73Z"/><path class="cls-2" d="M108.64,47.71a.94.94,0,0,0,.3-.61c0-.18-.1-.33-.28-.3a.66.66,0,0,0-.45.2.5.5,0,0,0,0,.54.41.41,0,0,0,.16.24A.27.27,0,0,0,108.64,47.71Z"/><path class="cls-2" d="M107.93,49.09a3,3,0,0,0,.58.25s.12-.07.11-.1a3.92,3.92,0,0,0-.13-.49,1,1,0,0,0-.47-.44.11.11,0,0,0-.18.09l0,.34C107.8,48.88,107.82,49,107.93,49.09Z"/><path class="cls-2" d="M106.35,47.08a1.24,1.24,0,0,1,0,.16l0,.24c0,.17.14.3.28.29l.46-.06a2.28,2.28,0,0,0,.22-.22c.11-.15.1-.19,0-.33l-.11-.16s0-.07-.08-.07c-.24,0-.49,0-.73,0C106.36,46.92,106.33,47,106.35,47.08Z"/><path class="cls-2" d="M107.33,51.23c.07.26.67.36.59,0a.77.77,0,0,0-.54-.55C107.23,50.87,107.28,51,107.33,51.23Z"/><path class="cls-2" d="M105.42,49.89a1.13,1.13,0,0,0,0,.68c.06.1.12.14.22.09a1.2,1.2,0,0,0,.31-.18,1.41,1.41,0,0,0,.55-.91.54.54,0,0,0-.56,0,2.57,2.57,0,0,0-.33.18C105.56,49.78,105.42,49.84,105.42,49.89Z"/><path class="cls-2" d="M106.64,52.64a.28.28,0,0,0,.28-.29c0-.06,0-.13,0-.22a1.9,1.9,0,0,0-.25-.24,1.74,1.74,0,0,0-.4-.15.13.13,0,0,0-.12,0,.87.87,0,0,0,.08.74.13.13,0,0,0,.09.06A1.57,1.57,0,0,0,106.64,52.64Z"/><path class="cls-2" d="M104.71,48.39c.11,0,.27-.08.29-.16s0-.54-.14-.66a.42.42,0,0,0-.29-.12c-.1,0,0,.13-.08.2h0c0,.18-.08.35,0,.53A.33.33,0,0,0,104.71,48.39Z"/><path class="cls-2" d="M103.05,48.44c-.09,0-.12,0-.13.12a3.06,3.06,0,0,0,0,.32c0,.1,0,.21,0,.31s.11.15.18.18a1.1,1.1,0,0,0,.35.11.73.73,0,0,0,.3-.11s0-.32,0-.37a1,1,0,0,1-.13-.18A.59.59,0,0,0,103.05,48.44Z"/><path class="cls-2" d="M103.76,50.16c0,.14,0,.26-.05.39a.68.68,0,0,0,.17.51c.14.16.3.31.47.48l.06-.09a.43.43,0,0,0,0-.37c-.09-.24-.2-.47-.3-.7A.38.38,0,0,0,103.76,50.16Z"/><path class="cls-2" d="M104.46,52.66a1.19,1.19,0,0,0,.07.67.25.25,0,0,0,.41.05,2.53,2.53,0,0,0,.18-.27.55.55,0,0,0,0-.38c0-.08-.2-.17-.3-.17l-.19,0C104.61,52.52,104.47,52.59,104.46,52.66Z"/><path class="cls-2" d="M105.32,55.2c.06.14,0,.31.16.45s.24.18.36,0,.31-.5.46-.75a.24.24,0,0,0,0-.27l0-.05a.53.53,0,0,0-.24,0c-.1,0-.21,0-.29.11a3.89,3.89,0,0,1-.38.43S105.3,55.17,105.32,55.2Z"/><path class="cls-2" d="M106.68,54.42a.18.18,0,0,0,.15-.07c.07-.12.18-.17.15-.28a1.81,1.81,0,0,0-.24-.24s0-.06,0-.1,0,0,0-.07-.15-.13-.23-.18a.55.55,0,0,0-.26-.06s0,.11-.07.17,0,.11,0,.16C106,54.19,106.29,54.43,106.68,54.42Z"/><path class="cls-2" d="M108.27,56a.53.53,0,0,0-.2-.33,1.24,1.24,0,0,0-.23-.17,1.79,1.79,0,0,0-.24,0c-.08,0-.15,0-.15.11a2.83,2.83,0,0,0,0,.5c0,.19.11.28.29.32s.24-.06.36-.11A.28.28,0,0,0,108.27,56Z"/><path class="cls-2" d="M108,53.61a1.94,1.94,0,0,0,.34,0,.37.37,0,0,0,.27-.09c.41-.4-.56-.76-.81-.78a1,1,0,0,0,0,.56A.31.31,0,0,0,108,53.61Z"/><path class="cls-2" d="M109.46,57.61s0,.06,0,.07a.77.77,0,0,0-.22.47c0,.13.14.32.26.31a1.57,1.57,0,0,0,.31-.08.45.45,0,0,0,.26-.23.41.41,0,0,0-.1-.54,1.53,1.53,0,0,0-.32-.13A.14.14,0,0,0,109.46,57.61Z"/><path class="cls-2" d="M110.21,56.82h.05c.37,0,.48-.27.34-.57a1.7,1.7,0,0,0-.62-.66.14.14,0,0,0-.19.08.64.64,0,0,1-.08.14,1,1,0,0,0-.19.46.26.26,0,0,0,.06.18A1.65,1.65,0,0,0,110.21,56.82Z"/><path class="cls-2" d="M111.28,59.38a.92.92,0,0,0,.56-.16c0-.21.12-.4.11-.61a.57.57,0,0,0-.52-.61c-.15,0-.19,0-.16.17a.33.33,0,0,1,0,.14.36.36,0,0,0-.07.22l0,0a.88.88,0,0,0,0,.71A.22.22,0,0,0,111.28,59.38Z"/><path class="cls-2" d="M112,56.58c.31-.14.55-.32.29-.68a1,1,0,0,0-.77-.3.15.15,0,0,0-.16.15.48.48,0,0,1,0,.18.61.61,0,0,0,0,.54s0,.05,0,.06A.83.83,0,0,0,112,56.58Z"/><path class="cls-2" d="M113.59,60.07s.07-.07.09-.11a1.7,1.7,0,0,0,0-.22l.06-.46a1,1,0,0,0,0-.39,1.56,1.56,0,0,1,0-.31c0-.35-.35.19-.38.27a1.07,1.07,0,0,0-.07.19,2.1,2.1,0,0,0-.06.24c0,.1,0,.2,0,.29a.56.56,0,0,0,.07.42A.2.2,0,0,0,113.59,60.07Z"/><path class="cls-2" d="M113.06,55a.68.68,0,0,0,.32-.49c0-.06,0-.55,0-.55a1,1,0,0,0-.64.13.41.41,0,0,0-.21.45c0,.1.08.53.22.53A.7.7,0,0,0,113.06,55Z"/><path class="cls-2" d="M115,59.13l0-.05c.16-.18.33-.43.06-.63-.12-.1-.19,0-.34-.05s-.26,0-.3.19a1,1,0,0,0,0,.61l.09.07A.35.35,0,0,0,115,59.13Z"/><path class="cls-2" d="M115.34,60.64a.46.46,0,0,0,.49-.12,1.85,1.85,0,0,0,.65-.71.35.35,0,0,0,0-.24.33.33,0,0,0-.32-.19c-.14,0-.27.12-.4.16a.68.68,0,0,0-.26.11c0,.05,0,.15-.09.2s-.11,0-.15.06a.7.7,0,0,0,0,.66A.11.11,0,0,0,115.34,60.64Z"/><path class="cls-2" d="M116.49,57.47c.12-.07.14-.21.19-.32a.12.12,0,0,0-.07-.17s0,0,0,0a.77.77,0,0,0-.28-.31c-.1-.06-.21-.06-.25,0a.8.8,0,0,0-.11.64C116,57.43,116.34,57.56,116.49,57.47Z"/><path class="cls-2" d="M117.49,59.77a.71.71,0,0,0,.16.34.17.17,0,0,0,.12.07.44.44,0,0,0,.35-.34,5.3,5.3,0,0,1,.1-.55c0-.07.07-.15.1-.24a.06.06,0,0,1,0,0c0-.23-.21-.42-.39-.49a.19.19,0,0,0-.24.1s0,.05,0,.05a.57.57,0,0,0-.25.28.26.26,0,0,0,.15.41l0,.06A1,1,0,0,0,117.49,59.77Z"/><path class="cls-2" d="M117.76,56.66c.1,0,.24,0,.32-.08s.43-.5.18-.62l-.18-.06a.43.43,0,0,0-.35-.08c-.09,0-.15,0-.16.12s0,.24-.06.37a.59.59,0,0,0,.07.25A.15.15,0,0,0,117.76,56.66Z"/><path class="cls-2" d="M119.35,60c.06,0,.15,0,.18-.08a1.08,1.08,0,0,0,.16-.3.29.29,0,0,0,0-.28c-.07-.12-.21-.11-.32-.15a1.07,1.07,0,0,0-.4,0c-.08,0-.15,0-.1.14a.71.71,0,0,1,0,.14.61.61,0,0,0,.09.44C119,60.06,119.17,60,119.35,60Z"/><path class="cls-2" d="M119.73,58.88a.71.71,0,0,0,.44-.28l.13-.18a.32.32,0,0,0,0-.36c-.07-.06-.26-.05-.24,0a.36.36,0,0,0-.53.07.73.73,0,0,0,.06.7A.23.23,0,0,0,119.73,58.88Z"/><path class="cls-2" d="M121.36,59.05s0-.1,0-.15a.17.17,0,0,0,0-.14,1.78,1.78,0,0,0-.21-.27.31.31,0,0,0-.12-.05,1.47,1.47,0,0,1-.24.13.62.62,0,0,0-.42.34c0,.08,0,.17,0,.19a1.6,1.6,0,0,0,.46.17,1,1,0,0,0,.29,0A.22.22,0,0,0,121.36,59.05Z"/><path class="cls-2" d="M120.78,56.46c-.32,0-.8-.45-.88,0a.81.81,0,0,0,.08.55.16.16,0,0,0,.09.09.94.94,0,0,0,.55,0,.47.47,0,0,0,.3-.19C121,56.92,120.84,56.46,120.78,56.46Z"/><path class="cls-2" d="M120.72,55.41c0-.07-.17-.34-.27-.24a1.67,1.67,0,0,0-.42.5.15.15,0,0,0,.07.19l.24.1a.2.2,0,0,0,.23-.05l.19-.17A1.35,1.35,0,0,0,120.72,55.41Z"/><path class="cls-2" d="M122.08,59.76a.26.26,0,0,0,.32,0,.42.42,0,0,0,.14-.24c0-.08.14-.16.18-.24a.06.06,0,0,0,0,0,1,1,0,0,0-.09-.3c0-.11-.11-.11-.2,0a.82.82,0,0,1-.2.12C121.94,59.22,121.78,59.49,122.08,59.76Z"/><path class="cls-2" d="M122.55,57.64s0,0,.08-.06.22-.12.17-.3l-.08-.17a.14.14,0,0,0-.19-.06,3.29,3.29,0,0,0-.39.17.14.14,0,0,0,0,.25l.2.17A.16.16,0,0,0,122.55,57.64Z"/><path class="cls-2" d="M127.88,55.87a.16.16,0,0,0,.24,0s0,0,.08,0,.21-.13.16-.3a1.22,1.22,0,0,0-.08-.17.13.13,0,0,0-.18-.07l-.4.17a.15.15,0,0,0,0,.25Z"/><path class="cls-2" d="M122.34,54.86a.69.69,0,0,0-.22.16,2.7,2.7,0,0,0-.2.31.21.21,0,0,0,0,.26c.1.1.19.21.28.31s0,0,.06,0a.07.07,0,0,0,.06,0c.38-.12.4-.25.39-.61,0,0,0,0,0,0a3.54,3.54,0,0,0-.26-.41S122.37,54.84,122.34,54.86Z"/><path class="cls-2" d="M120.83,47.61s-.16,0-.23-.06a.31.31,0,0,0-.18-.07,2.7,2.7,0,0,0-.28,0,.23.23,0,0,0-.14.23.33.33,0,0,1,0,.17c0,.17.12.42.32.33l.41-.19a.13.13,0,0,0,0-.07C120.85,47.86,121,47.73,120.83,47.61Z"/><path class="cls-2" d="M120.22,44.49a.19.19,0,0,0,0-.23.23.23,0,0,0-.3,0,.57.57,0,0,0-.12.58c0,.06.07.19.15.19s.2-.29.24-.38S120.2,44.55,120.22,44.49Z"/><path class="cls-2" d="M132.54,47.73a.66.66,0,0,0,.55-.06.69.69,0,0,0,.16-.18l-.06-.08-.11-.19s-.05,0-.06-.08a.3.3,0,0,0-.22-.25l-.35-.11a.12.12,0,0,0-.16.12c0,.12,0,.23,0,.35A.42.42,0,0,0,132.54,47.73Z"/><path class="cls-2" d="M133.25,38.42a.66.66,0,0,0,.55-.06c.23-.13.1-.25,0-.42a.18.18,0,0,0-.09-.08c-.2-.08-.59,0-.76.07A.41.41,0,0,0,133.25,38.42Z"/><path class="cls-2" d="M134.26,49.68a.85.85,0,0,0,.4-.54c0-.18,0-.34-.2-.35-.42,0-.72.15-.65.63,0,.09,0,.22.11.27A.3.3,0,0,0,134.26,49.68Z"/><path class="cls-2" d="M134.71,47.73a.38.38,0,0,0,.24-.59c-.09-.11-.22-.2-.33-.31s-.08-.08-.08-.11c0-.28-.29-.42-.35-.1s0,.41,0,.61a.45.45,0,0,0,.09.37A.63.63,0,0,0,134.71,47.73Z"/><path class="cls-2" d="M135.26,50.13l.28,0h0l.17,0a.37.37,0,0,0,.2-.47.51.51,0,0,0-.3-.26c-.23-.09-.38-.1-.45.18a.91.91,0,0,0,0,.54C135.15,50.08,135.16,50.16,135.26,50.13Z"/><path class="cls-2" d="M136.43,45.69c0-.09-.08-.11-.16-.09s-.28.15-.45.09c0,0,0,0-.06,0a.33.33,0,0,0-.19.29,2.31,2.31,0,0,1-.06.39c.07.27.16.29.32.19a1.55,1.55,0,0,0,.59-.79A.34.34,0,0,0,136.43,45.69Z"/><path class="cls-2" d="M137.33,41.1h0c-.21-.06-.88-.38-.91,0,0,.14,0,.28,0,.42a.24.24,0,0,0,.22.26.74.74,0,0,0,.61-.19A1,1,0,0,0,137.33,41.1Z"/><path class="cls-2" d="M136,39.3c-.08,0-.22.06-.22.18s0,.28,0,.42a.15.15,0,0,0,0,.09c.07.13.15.12.28,0a2.12,2.12,0,0,0,.43-.64.68.68,0,0,0,.07-.2s0-.08,0-.08a.44.44,0,0,0-.2,0l-.23.14Z"/><path class="cls-2" d="M135,38.71a1,1,0,0,0,.53-.27c.11-.11.2-.24.3-.35a.25.25,0,0,0,.07-.31.07.07,0,0,0-.05,0l0,0c-.14.2-.25.14-.47.14l-.36,0c-.08,0-.14,0-.13.12s0,.24-.05.37S134.84,38.73,135,38.71Z"/><path class="cls-2" d="M135.63,43.43a1.64,1.64,0,0,1,0,.23.37.37,0,0,0,.43.38.16.16,0,0,0,.08-.06c.12-.14.06-.29.06-.45s-.06-.11-.11-.14l-.26-.13C135.71,43.2,135.62,43.27,135.63,43.43Z"/><path class="cls-2" d="M134.6,40.46c-.09,0-.13,0-.13.1a1.78,1.78,0,0,0,0,.4.28.28,0,0,0,.12.19.58.58,0,0,0,.43.08.29.29,0,0,0,.21-.26c0-.07-.17-.26-.19-.2,0-.11-.06-.15-.15-.2Z"/><path class="cls-2" d="M133.7,39.64c0,.09,0,.18,0,.27a.16.16,0,0,0,.23.18.92.92,0,0,0,.5-.36,1.19,1.19,0,0,0,.08-.16,1.61,1.61,0,0,0,.09-.29.16.16,0,0,0-.19,0C134,39.33,133.77,39.28,133.7,39.64Z"/><path class="cls-2" d="M135.29,42.88a.56.56,0,0,1,0-.18l-.12-.11s0-.05-.06-.05l-.5,0c-.08,0-.11,0-.11.13s0,.2,0,.29a1,1,0,0,0,0,.24.17.17,0,0,0,.19.15,2.21,2.21,0,0,0,.46-.09A.28.28,0,0,0,135.29,42.88Z"/><path class="cls-2" d="M134,44.76a.13.13,0,0,0-.14.15c0,.12,0,.23,0,.35s.07.27.18.28a2.12,2.12,0,0,0,.44.05.52.52,0,0,0,.28-.09A.94.94,0,0,0,135,45s0-.06-.07-.09a.85.85,0,0,0-.15-.09.71.71,0,0,0-.21,0Z"/><path class="cls-2" d="M133.2,41.51c-.1,0-.17,0-.19.08s0,.15,0,.23c-.06.38.15.51.53.42a.48.48,0,0,0,.16-.13.39.39,0,0,0,0-.46s-.22-.06-.28-.07Z"/><path class="cls-2" d="M133.39,45a1.22,1.22,0,0,0,.38-.51c0-.07.09-.39,0-.45s-.06,0-.11,0c-.22.17-.48.14-.7.3a.28.28,0,0,0,0,.11c0,.1,0,.2,0,.3a.65.65,0,0,0,0,.2.19.19,0,0,0,.26.14A.88.88,0,0,0,133.39,45Z"/><path class="cls-2" d="M131.63,40c-.06,0-.11-.09-.2,0s0,.14-.05.21a.54.54,0,0,0,0,.31c.08.26.15.28.36.34s.29.13.45.08c.57-.16,0-.54-.2-.71A1,1,0,0,0,131.63,40Z"/><path class="cls-2" d="M131.69,44.15a1.65,1.65,0,0,0,.29-.3,1.69,1.69,0,0,0,.17-.29.94.94,0,0,0,.07-.22c0-.12-.07-.13-.15-.11a1.89,1.89,0,0,0-.6.26c-.08.06-.06.14-.06.21s0,.22,0,.33S131.55,44.26,131.69,44.15Z"/><path class="cls-2" d="M130.8,42.41c0,.2.12.3.22.3a2,2,0,0,0,.33-.08c.1,0,.11-.12.15-.2a.24.24,0,0,0-.07-.35,1.17,1.17,0,0,0-.36-.16c-.2-.05-.2,0-.23.17v0C130.82,42.24,130.81,42.35,130.8,42.41Z"/><path class="cls-2" d="M130.7,46.06a.9.9,0,0,0,.58-.1c.11-.06.24-.09.25-.25s0,0,0-.05a.75.75,0,0,0,0-.2.84.84,0,0,0-.08-.2l-.05,0a.84.84,0,0,0-.2,0h-.8c-.09,0-.12.07-.13.14s0,.24,0,.35S130.4,46.05,130.7,46.06Z"/><path class="cls-2" d="M129.53,41.79h.57c.09,0,.21-.07.13-.21s0,0,0-.06,0-.2-.05-.26a.78.78,0,0,0-.45-.25.28.28,0,0,0-.22.07.87.87,0,0,0-.17.47C129.35,41.65,129.43,41.79,129.53,41.79Z"/><path class="cls-2" d="M130,44.28c.05,0,.14,0,.14,0a.89.89,0,0,0,.08-.31c0-.1-.07-.19-.08-.29a.52.52,0,0,0-.29-.42.12.12,0,0,0-.17,0,1,1,0,0,0-.12.23c0,.11,0,.23-.07.37l.41.35A.23.23,0,0,0,130,44.28Z"/><path class="cls-2" d="M130,47a.51.51,0,0,1,.09-.16c.08-.1.05-.21.05-.31h-.34a.2.2,0,0,0-.2.15c0,.1-.06.2-.1.3a.48.48,0,0,0,0,.39c0,.08.12.11.17.05S130,47.15,130,47Z"/><path class="cls-2" d="M130.27,49.57c.1,0,.28,0,.31-.1a1.18,1.18,0,0,0,.07-.45.42.42,0,0,0-.07-.23.54.54,0,0,0-.26-.17c-.11,0-.08.12-.12.19h0c0,.17-.14.32-.1.5A.29.29,0,0,0,130.27,49.57Z"/><path class="cls-2" d="M127.86,40.74l0-.07a1.48,1.48,0,0,0,.25-.25c.09-.17,0-.13,0-.29a.13.13,0,0,0,0-.06,0,0,0,0,0,0,0l-.29-.09c-.17-.05-.16.27-.18.37s0,.22,0,.32,0,.16.07.18A.18.18,0,0,0,127.86,40.74Z"/><path class="cls-2" d="M127.79,42.44a.93.93,0,0,0,.15.26c.17.13.37,0,.45-.16s.12-.21.19-.31.08-.21,0-.27-.19-.11-.18,0c0-.19-.45-.06-.53,0a1,1,0,0,1-.19.21c-.08.07,0,.11,0,.16A.31.31,0,0,1,127.79,42.44Z"/><path class="cls-2" d="M128.15,45.77a1.73,1.73,0,0,1-.1.24.6.6,0,0,0-.06.37.18.18,0,0,0,.22.18l.37-.27c.06-.06.15-.13.16-.21a1,1,0,0,1,.19-.39s0-.12,0-.14a.17.17,0,0,0-.16,0,2.34,2.34,0,0,0-.27.15.48.48,0,0,1-.18.06S128.17,45.74,128.15,45.77Z"/><path class="cls-2" d="M127.35,46.63a3.35,3.35,0,0,0-.37-.2s-.08,0-.1.06-.07.13-.12.19a.59.59,0,0,0-.1.46c0,.17.42.37.57.27s.17,0,.24-.18a.42.42,0,0,0,.06-.28A.45.45,0,0,0,127.35,46.63Z"/><path class="cls-2" d="M129.18,53.7a1.21,1.21,0,0,0-.07.68.26.26,0,0,0,.39.13,1.67,1.67,0,0,0,.23-.23.52.52,0,0,0,.11-.36c0-.09-.16-.21-.25-.24a1.27,1.27,0,0,1-.18-.06A.22.22,0,0,0,129.18,53.7Z"/><path class="cls-2" d="M129.37,52.51a.44.44,0,0,0,0-.37c0-.25-.11-.5-.16-.75a.36.36,0,0,0-.26-.27c-.05.13-.09.25-.13.37a.66.66,0,0,0,.06.53c.11.19.24.37.37.56Z"/><path class="cls-2" d="M129.12,50a.68.68,0,0,1-.1-.21.56.56,0,0,0-.39-.46c-.09,0-.13,0-.16.09l-.1.3c0,.11,0,.21-.06.31a.59.59,0,0,0,.14.21,1.14,1.14,0,0,0,.32.18.72.72,0,0,0,.32-.05S129.14,50,129.12,50Z"/><path class="cls-2" d="M129.2,47.77c-.17-.22-.54-.22-.78-.23a.14.14,0,0,0-.15.17,1.82,1.82,0,0,1,0,.32.26.26,0,0,0,.24.31C128.81,48.36,129.49,48.14,129.2,47.77Z"/><path class="cls-2" d="M127.4,43.84a.76.76,0,0,0-.19.54.32.32,0,0,0,.11.23,1.13,1.13,0,0,0,.34.11c.08,0,.17.06.25,0a.43.43,0,0,0,.09-.42,1,1,0,0,1-.08-.14.59.59,0,0,0-.39-.33A.18.18,0,0,0,127.4,43.84Z"/><path class="cls-2" d="M126.73,42.82a.3.3,0,0,0,.34-.07.28.28,0,0,0,.09-.24c0-.08,0-.15-.07-.2a.06.06,0,0,1,0-.06c0-.1,0-.17-.07-.25s-.15-.09-.24-.12a.49.49,0,0,1,0,.11,1,1,0,0,1-.06.16c0,.06-.09.11-.09.17a1,1,0,0,0,0,.39S126.68,42.79,126.73,42.82Z"/><path class="cls-2" d="M126.11,41.81a.26.26,0,0,1-.16-.11s-.08-.05-.12-.06,0,0-.06.07a1.07,1.07,0,0,0,0,.64l0,0c.06.17.15.19.27,0a1.81,1.81,0,0,0,.2-.33A.21.21,0,0,0,126.11,41.81Z"/><path class="cls-2" d="M126.3,45.39a.53.53,0,0,0,.06.1.55.55,0,0,0,.39.2.13.13,0,0,0,.17-.12c0-.13.1-.26,0-.4a1,1,0,0,1,0-.18.48.48,0,0,0-.23-.29c-.07-.05-.12-.05-.16,0a.75.75,0,0,1-.07.12A.63.63,0,0,0,126.3,45.39Z"/><path class="cls-2" d="M125.83,43.74a.7.7,0,0,0-.33.39c0,.14-.14.28-.08.43s.07.14.14.11a.43.43,0,0,0,.22-.12c.12-.19.23-.39.34-.6a.2.2,0,0,0,0-.17A.22.22,0,0,0,125.83,43.74Z"/><path class="cls-2" d="M125,41.84a3.14,3.14,0,0,0-.31-.18s-.1,0-.11.06,0,.13,0,.19l0,.34s0,.06.06.07a1.63,1.63,0,0,0,.38.22c.21.07.32,0,.27-.26s0-.22-.09-.33a.22.22,0,0,0-.07-.06Z"/><path class="cls-2" d="M126.31,46.14a.69.69,0,0,0-.24,0,3.14,3.14,0,0,0-.51.12.56.56,0,0,0-.29.44c0,.11,0,.22,0,.32s.22.05.32,0a.84.84,0,0,1,.21-.11.66.66,0,0,0,.35-.4C126.22,46.34,126.26,46.26,126.31,46.14Z"/><path class="cls-2" d="M125.73,47.66a.14.14,0,0,0-.16.14,2.48,2.48,0,0,0,0,.38c0,.18,0,.26.27.28a1,1,0,0,0,.48-.07.47.47,0,0,0,.16-.37c0-.06-.17-.28-.25-.29Z"/><path class="cls-2" d="M124.17,43.32a.33.33,0,0,0-.41-.12h-.05a.31.31,0,0,0-.09.07c0,.1-.06.21-.1.31s0,.17,0,.23a1.39,1.39,0,0,1,.25.23c.06.08.09.07.14,0s.13.06.16,0,.08-.34.12-.51A.17.17,0,0,0,124.17,43.32Z"/><path class="cls-2" d="M124,45.72a1.2,1.2,0,0,0-.32-.16s-.1,0-.11,0a.67.67,0,0,0-.23.49.33.33,0,0,0,.14.24c.16.13.36.1.54.16a.2.2,0,0,0,.17,0,.47.47,0,0,0,.09-.39A2.2,2.2,0,0,0,124,45.72Z"/><path class="cls-2" d="M125.22,51.47c-.12-.08-.18-.07-.22.07a2.51,2.51,0,0,0,0,.27c0,.11,0,.22,0,.31a1.15,1.15,0,0,0,.07.11l.39.33a.19.19,0,0,0,.26,0c.07-.06.13-.14.05-.25a.14.14,0,0,1,0-.07A1,1,0,0,0,125.22,51.47Z"/><path class="cls-2" d="M124.81,49.31a2,2,0,0,0-.29-.29.19.19,0,0,0-.13,0s0,.08,0,.11,0,.1,0,.13a.42.42,0,0,0-.07.39.3.3,0,0,0,.17.24c.08,0,.15.13.22.18a.37.37,0,0,0,.12.07c.08,0,.21-.14.22-.22A.76.76,0,0,0,124.81,49.31Z"/><path class="cls-2" d="M124.73,47.91c0-.18,0-.22-.2-.24s-.25-.05-.28-.19a.22.22,0,0,0-.21-.19c-.06,0-.08,0-.07.08,0,.21,0,.43,0,.64s0,.17.07.2a.35.35,0,0,0,.39,0C124.58,48.17,124.76,48.14,124.73,47.91Z"/><path class="cls-2" d="M121.38,43.06c0,.12-.11.24-.14.36s.09.15.19.27.06.11.1.15.33-.21.37-.33a1,1,0,0,0,.07-.28.31.31,0,0,0,0-.19s-.16-.11-.16-.08C121.76,42.69,121.43,42.93,121.38,43.06Z"/><path class="cls-2" d="M123.4,52.37c-.11,0-.18,0-.2.1a2.21,2.21,0,0,0,0,.51.26.26,0,0,0,.18.27.82.82,0,0,0,.35,0,.32.32,0,0,0,.16-.09C124.2,52.78,123.72,52.5,123.4,52.37Z"/><path class="cls-2" d="M122.59,47a.81.81,0,0,1-.14-.12s0-.1,0-.11-.31-.17-.47-.25-.11.06-.11.09a4.13,4.13,0,0,0,0,.49l.06.08a1,1,0,0,0,.56.24.33.33,0,0,0,.22-.09C122.75,47.3,122.66,47.07,122.59,47Z"/><path class="cls-2" d="M121.23,45.91c0,.19.19.27.32.21a.46.46,0,0,0,.26-.27c0-.12.11-.23.15-.34a.55.55,0,0,0,0-.22c0-.1-.06-.11-.16-.08a2.32,2.32,0,0,0-.46.31A.43.43,0,0,0,121.23,45.91Z"/><path class="cls-2" d="M122.73,51.56c.15.07.32.11.48.17s.16,0,.21,0,.14-.17.13-.23-.08-.39-.29-.48l0,0c0-.15-.15-.21-.26-.27s-.28-.11-.34.16-.12.32,0,.5S122.66,51.53,122.73,51.56Z"/><path class="cls-2" d="M126.43,55c.06-.06.14-.17.13-.22s-.08-.39-.29-.49l0,0A.44.44,0,0,0,126,54c-.24-.12-.28-.11-.34.16s-.12.33,0,.51.07.16.14.19a2.74,2.74,0,0,0,.48.17C126.3,55,126.38,55.06,126.43,55Z"/><path class="cls-2" d="M123.86,54.48a1.85,1.85,0,0,0-.33.29c-.07.08-.14.22-.11.3a2.48,2.48,0,0,0,.27.54s.09,0,.1,0,.15,0,.18,0a.58.58,0,0,0,.1-.21,2.54,2.54,0,0,0,0-.29c0-.06.06-.13,0-.18a2.84,2.84,0,0,0-.13-.38A.1.1,0,0,0,123.86,54.48Z"/><path class="cls-2" d="M124.44,58.8s.6.42.63.33a2.43,2.43,0,0,0,.08-.47.16.16,0,0,0,.08-.1,1.28,1.28,0,0,0-.23-.62c-.07-.11-.14-.12-.25,0l-.13,0a.6.6,0,0,0-.44.3.22.22,0,0,0,0,.22A2.78,2.78,0,0,0,124.44,58.8Z"/><path class="cls-2" d="M125.67,56.32a.36.36,0,0,0,.1-.11l-.19-.11-.07,0-.34.07a.85.85,0,0,1-.23,0,.58.58,0,0,0-.5.24c-.06.09-.08.22-.15.31a.13.13,0,0,0,0,.19.3.3,0,0,0,.23.08,1.17,1.17,0,0,0,.41-.18C125.18,56.67,125.42,56.49,125.67,56.32Z"/><path class="cls-2" d="M122.62,43.44c-.08,0-.19.05-.17.12s0,.21,0,.32a.56.56,0,0,0,0,.29,2.63,2.63,0,0,0,.29.37c.1.12.15.12.26,0s0-.48-.06-.61S122.85,43.51,122.62,43.44Z"/><path class="cls-2" d="M127.82,57.35a.5.5,0,0,0-.29-.47c-.09-.06-.27,0-.29,0a2.39,2.39,0,0,0-.09.45c0,.16,0,.31,0,.47C127.53,58,127.78,57.68,127.82,57.35Z"/><path class="cls-2" d="M126.9,53a.49.49,0,0,0,.23-.08.87.87,0,0,0,.42-.58,1.23,1.23,0,0,1,0-.25.93.93,0,0,0-.13,0h-.42c-.15,0-.21.08-.23.23a.86.86,0,0,1-.06.23.58.58,0,0,0,0,.39S126.86,53,126.9,53Z"/><path class="cls-2" d="M128.12,53.82c0-.16-.2-.29-.3-.42s-.24-.09-.3,0a.54.54,0,0,0-.11.57.29.29,0,0,0,.4.2A.59.59,0,0,0,128.12,53.82Z"/><path class="cls-2" d="M127.39,50.33s0-.06,0-.07a.26.26,0,0,0-.11-.12,1.11,1.11,0,0,0-.26-.07.68.68,0,0,0-.42,0,2.48,2.48,0,0,0-.15.4c0,.11,0,.38.08.44a.37.37,0,0,0,.21,0c.08,0,.49-.13.48-.26S127.38,50.45,127.39,50.33Z"/><path class="cls-2" d="M127.62,49.57a3.3,3.3,0,0,0,0-.45.13.13,0,0,0,0-.06.12.12,0,0,0-.05-.05,1.3,1.3,0,0,0-.59-.2c-.11,0-.12,0-.09.12a.33.33,0,0,1,0,.1s0,.11,0,.16c0,.26.24.49.45.46Z"/><path class="cls-2" d="M129.93,56.91a7.33,7.33,0,0,0,.6-.65.23.23,0,0,0,.06-.26.15.15,0,0,0-.05-.06c-.07,0-.14-.09-.22-.08s-.2,0-.3,0-.31.23-.46.35-.06.07-.05.1-.06.31.07.47S129.78,57.06,129.93,56.91Z"/><path class="cls-2" d="M131,55.87c.05,0,.13,0,.15,0s.15-.08.19-.14a.12.12,0,0,0,0-.12,2.41,2.41,0,0,0-.38-.66.47.47,0,0,0-.25-.11s-.07.09-.1.15l-.08.15C130.34,55.53,130.59,55.8,131,55.87Z"/><path class="cls-2" d="M131.32,54.12a.28.28,0,0,0,.33-.23c0-.07,0-.14,0-.22a1.15,1.15,0,0,0-.2-.29,1.63,1.63,0,0,0-.35-.23.17.17,0,0,0-.13,0,.84.84,0,0,0-.07.74A.14.14,0,0,0,131,54,2.53,2.53,0,0,0,131.32,54.12Z"/><path class="cls-2" d="M131.73,51.3l.08-.15a.07.07,0,0,0,0,0s0,0,0-.05a.55.55,0,0,0-.53-.08l-.35.1c-.09,0-.23.06-.25.11a1.11,1.11,0,0,0-.1.67c0,.11.08.16.2.14a1.54,1.54,0,0,0,.34-.12,1.73,1.73,0,0,0,.47-.33A1.43,1.43,0,0,0,131.73,51.3Z"/><path class="cls-2" d="M132.86,53a.87.87,0,0,0-.44-.64c-.18.13-.16.31-.15.5s.29.41.47.32A.2.2,0,0,0,132.86,53Z"/><path class="cls-2" d="M131.55,46.89c0-.1.07-.19-.07-.25s-.13,0-.17.13-.15.11-.22.17-.18.14-.19.22a2.75,2.75,0,0,0,0,.57c0,.08.17.1.22,0a2.88,2.88,0,0,0,.22-.38C131.46,47.22,131.49,47.05,131.55,46.89Z"/><path class="cls-2" d="M132.33,49.36l.47,0a1.67,1.67,0,0,0,.26-.17c.14-.13.14-.17,0-.34s0-.11-.08-.17,0-.08-.06-.08l-.72-.17c-.07,0-.12.07-.11.15a1,1,0,0,1,0,.17c0,.08,0,.16,0,.23S132.2,49.34,132.33,49.36Z"/><path class="cls-2" d="M133.33,50.2l-.09.33a.37.37,0,0,0,0,.37,3.71,3.71,0,0,0,.52.36s.13,0,.13-.08,0-.34,0-.51a1,1,0,0,0-.38-.52A.11.11,0,0,0,133.33,50.2Z"/><path class="cls-2" d="M37.89,135.62a2.22,2.22,0,0,0,.39,2.91c.68.61,1.42.78,2,.17s.43-1.13-.41-2.53c-1.47-2.46-1.63-4-.27-5.52,1.79-2,3.95-1.28,5.51.1,1.84,1.63,2.65,3.46,1.33,5.32l-2.51-1.3a1.61,1.61,0,0,0-.28-2.28c-.57-.51-1.25-.66-1.77-.08s-.28,1.29.49,2.54c1.35,2.26,1.74,3.74.22,5.45-1.72,1.94-3.93,1.26-5.82-.42s-2.43-3.19-1.46-5.2Z"/><path class="cls-2" d="M61.23,141.59l-3.72,7c-1.51,2.84-4,2.67-6.34,1.43s-3.87-3.21-2.36-6l3.73-7L55,138.27,51.6,144.6c-.79,1.5-.88,2.61.65,3.42s2.4.13,3.21-1.39l3.35-6.32Z"/><path class="cls-2" d="M69.88,153.85l-1-3a9.62,9.62,0,0,1-.5-2h-.08a13.21,13.21,0,0,1-.32,2L66.84,156l-2.69-.59,2.56-11.66,2.73.6,1.33,4.42a9.13,9.13,0,0,1,.46,1.88l.08,0a11.3,11.3,0,0,1,1.2-1.52l3.08-3.45,2.69.59L75.72,158l-2.67-.59,1.14-5.16a15.31,15.31,0,0,1,.53-2l-.08,0a10.68,10.68,0,0,1-1.26,1.59l-2.21,2.32Z"/><path class="cls-2" d="M90.39,155.43l-1.86-2.6a9.63,9.63,0,0,1-1.06-1.74h-.08a12.06,12.06,0,0,1,.29,2l.43,5.27-2.75.22-1-11.89,2.79-.23,2.57,3.84a8.93,8.93,0,0,1,1,1.66h.08a10.4,10.4,0,0,1,.7-1.81l1.94-4.2,2.74-.23,1,11.9-2.72.22L94,152.59a16.3,16.3,0,0,1-.07-2h-.08a9.83,9.83,0,0,1-.74,1.89l-1.43,2.86Z"/><path class="cls-2" d="M113.76,152.76l-7.55,2.66-4-11.26,7.55-2.66.79,2.25-5,1.75.79,2.23,4.35-1.53.77,2.16-4.36,1.53.83,2.36,5-1.75Z"/><path class="cls-2" d="M127,145.37a2.07,2.07,0,0,1-1.2-.69l-1.34-1.25c-.75-.72-1.24-.62-2-.13l-1,.64,2.29,3.54-2.31,1.5L115,139l3.94-2.56c2.24-1.45,4.16-1.54,5.62.7a2.76,2.76,0,0,1-.56,3.94l0,0a2.15,2.15,0,0,1,2.61.38l1.72,1.54a2.7,2.7,0,0,0,1.26.71ZM120.25,142l1.48-1c.92-.59,1.2-1.28.58-2.23a1.46,1.46,0,0,0-2.28-.38l-1.48.95Z"/><path class="cls-2" d="M146.5,125.42l-4.79,6.51-1.52-1.11c.74-4.39.47-5.94-.59-6.72a1.18,1.18,0,0,0-1.8.26c-.45.6-.36,1.34.53,2.12l-2,1.65c-1.66-1.6-1.6-3.61-.28-5.41a3.32,3.32,0,0,1,4.89-.91c1.88,1.38,1.92,3.45,1,5.89l.07,0,2.69-3.65Z"/><path class="cls-2" d="M145.89,117a5.07,5.07,0,1,1,6.71-2.63A4.82,4.82,0,0,1,145.89,117Zm1.07-2.38c1.47.63,2.89.29,3.52-1.16s-.11-2.74-1.58-3.37a2.48,2.48,0,1,0-1.94,4.53Z"/><path class="cls-2" d="M156.81,100.12l-7.16-1.41-.21,2.73-2.16-.43.3-5.29,9.72,1.92Z"/><path class="cls-2" d="M155.28,89.44a3,3,0,0,1-3-2.3h-.08a2.55,2.55,0,0,1-2.76,2.09c-1.86,0-3.27-1.53-3.3-4.17s1.36-4.2,3.23-4.22a2.54,2.54,0,0,1,2.79,2h.08a3,3,0,0,1,3-2.34c1.89,0,3.3,1.43,3.32,4.43S157.17,89.42,155.28,89.44Zm-5.66-2.83a1.58,1.58,0,1,0,0-3.16,1.58,1.58,0,0,0,0,3.16Zm5.27.16a1.8,1.8,0,0,0,0-3.59A1.66,1.66,0,0,0,153.24,85,1.64,1.64,0,0,0,154.89,86.77Z"/></svg>