<svg id="Layer_1" data-name="Layer 1" xmlns="http://www.w3.org/2000/svg" viewBox="0 0 171 171"><defs><style>.cls-1{fill:#ff6f4a;}.cls-2{fill:#2e5b66;}</style></defs><title>Artboard 23 copy</title><circle class="cls-1" cx="85.5" cy="85.5" r="85.48"/><path class="cls-2" d="M87.74,74.26c0,1.09.62,1.9,2.13,1.92,1.74,0,2.65-1,3.12-3.19l.18-.88a11.81,11.81,0,0,1,1.45.36l.49-1.13a12.87,12.87,0,0,0-3.81-1.12,9.53,9.53,0,0,0-2.07,0,7.15,7.15,0,0,0-2.12.59,7.56,7.56,0,0,0-1.82,1.28,10.15,10.15,0,0,0-1.35,1.68,13.08,13.08,0,0,0-1,1.85,12.72,12.72,0,0,0-.68,2l3,.51a10.28,10.28,0,0,1,.33-1.57A10.13,10.13,0,0,1,86.2,75,7.92,7.92,0,0,1,87,73.69a5.06,5.06,0,0,1,1.1-1c.13-.08.28-.14.42-.21A2.53,2.53,0,0,0,87.74,74.26Z"/><path class="cls-2" d="M105.7,107.86c0-.12-.26-.33-.4-.28a.53.53,0,0,0-.38.32.25.25,0,0,1-.08.12c-.09.07-.09.15,0,.22l.88-.3S105.71,107.89,105.7,107.86Z"/><path class="cls-2" d="M118,104.36c0,.06-.12.1-.17.15s-.07.14,0,.17a.66.66,0,0,0,.45.19,2.07,2.07,0,0,0,.49.12l.06,0a.43.43,0,0,0,.13-.17s0-.13,0-.17,0-.12,0-.16a3.72,3.72,0,0,0-.37-.3C118.41,104.05,118.14,104.23,118,104.36Z"/><path class="cls-2" d="M111.08,106.52c-.16,0-.36.06-.44.26,0,0-.09,0-.12.09a.22.22,0,0,0,0,.14c.07.14.18.37.35.36,0,.28.35.13.47,0s.13-.35.1-.44a1.71,1.71,0,0,0-.13-.38A.19.19,0,0,0,111.08,106.52Z"/><path class="cls-2" d="M106.7,108.54a.37.37,0,0,0,.38,0l.15,0c.15,0,.3-.09.45-.15s0-.1,0-.15a.2.2,0,0,0-.06-.12,1.47,1.47,0,0,0-.24-.13c-.28-.1-.49,0-.75.25,0,0,0,0,0,0C106.44,108.41,106.5,108.42,106.7,108.54Z"/><path class="cls-2" d="M103.23,109.46c0,.07-.17.12-.12.2a.4.4,0,0,0,.28.18.56.56,0,0,0,.25,0l-.15-.55-.25.21Z"/><path class="cls-2" d="M103.64,106.27l-.38.58h0s0,.07.06.08a.44.44,0,0,0,.44-.08.4.4,0,0,0-.07-.56Z"/><path class="cls-2" d="M105.83,106.46a.14.14,0,0,0-.11,0,.46.46,0,0,0-.1.18.71.71,0,0,0,.25.57c.12.12.12.13.26,0l.07,0,0,0a4.19,4.19,0,0,0-.31-.79Z"/><path class="cls-2" d="M104.61,106.4a.11.11,0,0,0,.16,0c.12-.12.26-.22.28-.41a1.92,1.92,0,0,0,.21-.46.06.06,0,0,0,0-.06.51.51,0,0,0-.13-.16c-.05,0-.14,0-.17-.06s-.11,0-.16,0-.25.19-.37.3,0,.46.08.61A1.28,1.28,0,0,1,104.61,106.4Z"/><path class="cls-2" d="M104.51,109.18c-.07.07-.15.13-.22.21a.25.25,0,0,0-.05.15.89.89,0,0,0,.39.64.68.68,0,0,0,.37-.53.54.54,0,0,0-.12-.42A.26.26,0,0,0,104.51,109.18Z"/><path class="cls-2" d="M102.81,105.82c.11.17.11.17.32.13a.66.66,0,0,1,.14,0s.13,0,.13-.1l0,0c.06,0,.1,0,.1-.08s0-.18,0-.23a4.06,4.06,0,0,0-.49-.44.24.24,0,0,0-.35.2s0,.06,0,.08a.61.61,0,0,0,.13.41Z"/><path class="cls-2" d="M99.77,109.91a.81.81,0,0,0-.51.21.17.17,0,0,0,0,.1.76.76,0,0,0,.22.49.61.61,0,0,0,.16.12.11.11,0,0,0,.11,0,.86.86,0,0,0,.39-.45c0-.07.06-.16,0-.2A.56.56,0,0,0,99.77,109.91Z"/><path class="cls-2" d="M104,108.08s0,0,0-.08,0,0,0-.06,0-.07,0-.11a.14.14,0,0,0-.13-.11h0c-.07-.12-.15,0-.21,0a.94.94,0,0,0-.22.12.31.31,0,0,0-.12.32c0,.11.06.22.19.26l0,0c.07.08.08.08.15,0l.13-.18,0,0C104,108.21,104,108.14,104,108.08Z"/><path class="cls-2" d="M102.76,107.78s0-.12-.05-.13-.2-.08-.29-.12-.3,0-.43.12-.14.28-.09.46a.72.72,0,0,0,.33.36s.07,0,.09-.09l.36-.48A.42.42,0,0,0,102.76,107.78Z"/><path class="cls-2" d="M102.17,109.55l-.37,0-.09,0c-.09,0-.11.07-.1.17a.75.75,0,0,0,.08.24.8.8,0,0,0,.13.19.14.14,0,0,0,.1.05l.18-.09,0,0c.08,0,.17-.11.21-.22a.25.25,0,0,0,0-.21C102.3,109.64,102.26,109.56,102.17,109.55Z"/><path class="cls-2" d="M100.93,108.35l-.33.14a.13.13,0,0,0,0,.07.68.68,0,0,0,.17.51,1.14,1.14,0,0,0,.15.16.14.14,0,0,0,.11,0,.59.59,0,0,0,.38-.59A.35.35,0,0,0,100.93,108.35Z"/><path class="cls-2" d="M100.76,110.54c-.13,0-.16.16-.17.29l.12.27,0,0c.07.18.1.19.27.1a2.26,2.26,0,0,0,.26-.16c.22-.15.16-.35,0-.48A.48.48,0,0,0,100.76,110.54Z"/><path class="cls-2" d="M101.87,106.57a.72.72,0,0,0,.18-.33.47.47,0,0,0,0-.31s0-.05-.06-.07a.38.38,0,0,0-.37,0c-.29.19-.39.41-.11.7C101.61,106.71,101.75,106.69,101.87,106.57Z"/><path class="cls-2" d="M99.51,108a2.29,2.29,0,0,0-.32.43c0,.09,0,.2.07.3l.16.23c0,.07.12.07.17,0a.85.85,0,0,0,.15-.51c0-.14-.07-.28-.11-.42S99.52,107.93,99.51,108Z"/><path class="cls-2" d="M119.63,105.12l.17.23,0,0c.13.17.13.18.28,0a1.27,1.27,0,0,0,.22-.33.24.24,0,0,0-.11-.33c-.08,0-.13-.13-.23-.1a1.51,1.51,0,0,0-.32.11C119.58,104.8,119.57,104.92,119.63,105.12Z"/><path class="cls-2" d="M113.32,104s0,0,0,0a.5.5,0,0,0,0-.17.45.45,0,0,0-.11-.13s0,0,0,0-.18-.08-.28-.07a.76.76,0,0,0-.46.17c-.21.13-.19.26-.1.45s.09.16.14.24.09.09.15,0l.57-.34A.68.68,0,0,0,113.32,104Z"/><path class="cls-2" d="M119.18,103.65a.11.11,0,0,0,.16-.06.54.54,0,0,0,0-.51c0-.08,0-.2-.08-.28a1,1,0,0,0-.22-.23s-.09,0-.13.08a.24.24,0,0,0-.06.08c-.06.16-.11.33-.17.5a2.35,2.35,0,0,0,.25.28A.77.77,0,0,0,119.18,103.65Z"/><path class="cls-2" d="M119.33,106l-.39-.13-.08,0a.18.18,0,0,0-.24,0c-.06.07,0,.14,0,.19l.2.25c.06.07.11.15.18.22a1.48,1.48,0,0,0,.13.08l.1-.17.17-.13s0-.07,0-.1,0-.07,0-.08S119.37,106,119.33,106Z"/><path class="cls-2" d="M115.66,101.37s0-.14,0-.2l-.11-.15,0,0s0,0,0,0c-.07-.17-.21-.06-.32-.06s-.42.37-.35.52a.63.63,0,0,0,.32.34,1.86,1.86,0,0,1,.2.1s.1,0,.11,0a2.56,2.56,0,0,0,.22-.35C115.71,101.49,115.76,101.42,115.66,101.37Z"/><path class="cls-2" d="M117.65,102.78a.15.15,0,0,0,.12,0,.57.57,0,0,0,.17-.48.75.75,0,0,1,0-.15c-.06-.15-.13-.28-.29-.32s-.16.06-.22.12a.88.88,0,0,0-.24.27.34.34,0,0,0,0,.24A.73.73,0,0,0,117.65,102.78Z"/><path class="cls-2" d="M116.57,104.14c.07,0,.11,0,.15-.06a.46.46,0,0,0,0-.36,1.21,1.21,0,0,1,0-.18c0-.16-.14-.23-.22-.33a.13.13,0,0,0-.2,0,.55.55,0,0,0-.24.37.4.4,0,0,0,0,.11.62.62,0,0,0,.39.41Z"/><path class="cls-2" d="M115.33,104.9a.49.49,0,0,0-.24,0,.11.11,0,0,0-.07.17c0,.16.17.24.29.33a.64.64,0,0,0,.48.16.23.23,0,0,0,.21-.16s0-.13-.08-.16A5.66,5.66,0,0,0,115.33,104.9Z"/><path class="cls-2" d="M106.2,108.84a.36.36,0,0,0-.25,0c-.07,0-.11.07-.06.16s.17.24.28.34a.68.68,0,0,0,.48.15.2.2,0,0,0,.21-.16s0-.13-.07-.16A4.91,4.91,0,0,0,106.2,108.84Z"/><path class="cls-2" d="M114.87,102.62a1,1,0,0,1-.24,0c-.12,0-.19,0-.28.13a2.34,2.34,0,0,0,.12.3.58.58,0,0,0,.47.23,2.91,2.91,0,0,0,.5-.16c.07,0,.12-.11.18-.16l-.25-.19A.65.65,0,0,0,114.87,102.62Z"/><path class="cls-2" d="M113.41,101.79a.12.12,0,0,0,.2,0l.41-.32,0,0a2,2,0,0,0,0-.24.52.52,0,0,0,0-.14l-.27-.19h-.06a1,1,0,0,0-.45.18c-.18.12-.15.21-.09.38A3.47,3.47,0,0,0,113.41,101.79Z"/><path class="cls-2" d="M114.25,103.94c-.1.11-.25.17-.31.32a.24.24,0,0,0,0,.22.5.5,0,0,0,.34.24.1.1,0,0,0,.09,0,1.2,1.2,0,0,0,.15-.24,1.33,1.33,0,0,0,0-.34.35.35,0,0,0-.21-.22A.12.12,0,0,0,114.25,103.94Z"/><path class="cls-2" d="M112,103s0,.06.1,0a.21.21,0,0,0,.08-.27c0-.14,0-.19.14-.3s.12-.14.05-.31-.25-.14-.4-.15a.36.36,0,0,0-.32.23.26.26,0,0,0,0,.2C111.82,102.62,111.93,102.81,112,103Z"/><path class="cls-2" d="M111.19,105.41a.53.53,0,0,0-.36-.11c-.15,0-.23.16-.17.35a.44.44,0,0,0,.31.26,1.45,1.45,0,0,0,.55,0c.09,0,.14,0,.09-.14a.31.31,0,0,0-.13-.17A3.15,3.15,0,0,0,111.19,105.41Z"/><path class="cls-2" d="M112.62,105.42c-.16,0-.2,0-.23.12a2.53,2.53,0,0,0-.06.46.69.69,0,0,0,.11.28c.06.08.16.14.19.25s.15.07.21,0,.1-.45,0-.67Z"/><path class="cls-2" d="M111.28,103.62c-.19,0-.37.14-.56.21a.44.44,0,0,0,0,.34l.1.14a.35.35,0,0,1,0,.08c0,.11,0,.13.14.06s.15,0,.13-.15c.17-.06.19-.24.3-.37l-.18-.31Z"/><path class="cls-2" d="M114.3,106a1.12,1.12,0,0,0-.31,0s-.09.06-.1.1,0,.07,0,.1,0,0,0,.08-.07.21-.1.32,0,.15.09.21l.25.22s.07,0,.11,0l.05,0a.3.3,0,0,0,.28-.3.15.15,0,0,0,0-.17l-.12-.12a.2.2,0,0,1,0-.07C114.52,106.1,114.5,106,114.3,106Z"/><path class="cls-2" d="M117.44,105.23a0,0,0,0,0,0,0,.83.83,0,0,0-.14-.13.21.21,0,0,0-.11,0,.29.29,0,0,0-.1.35.2.2,0,0,0-.17.1s-.09.13-.07.17a1.09,1.09,0,0,0,.19.33s.11.07.17.1l.13.11.09.08c.06-.08.15-.11.14-.23a.46.46,0,0,0,0-.2l0,0c.11-.15,0-.26-.09-.35S117.4,105.33,117.44,105.23Z"/><path class="cls-2" d="M42.08,124.93a.26.26,0,0,1-.15,0,.53.53,0,0,0-.49,0c-.14.06-.14.36-.09.48s0,.06,0,.08l.85-.39C42.24,125,42.19,124.92,42.08,124.93Z"/><path class="cls-2" d="M45.3,124a0,0,0,0,0,0,0c0-.09-.1-.19-.16-.28l-.33.45a.52.52,0,0,0,.2.14.41.41,0,0,0,.33-.06C45.41,124.15,45.32,124.06,45.3,124Z"/><path class="cls-2" d="M44.61,125.93h0l-.32-.06.14.55a.62.62,0,0,0,.24-.08.36.36,0,0,0,.15-.29C44.81,125.94,44.68,126,44.61,125.93Z"/><path class="cls-2" d="M42.26,122.37s0,0,0,0-.41-.21-.55-.28,0,0,0,0a.4.4,0,0,0,.21.52C42.08,122.69,42.33,122.55,42.26,122.37Z"/><path class="cls-2" d="M40.1,123.74a.22.22,0,0,0-.11,0l-.1,0a4.63,4.63,0,0,0,.13.83h.12c.17,0,.17,0,.21-.17a.69.69,0,0,0-.07-.61A.44.44,0,0,0,40.1,123.74Z"/><path class="cls-2" d="M40.94,122.94v-.23c0-.23,0-.5-.24-.56s-.59-.17-.73.13a1.52,1.52,0,0,0,0,.21.11.11,0,0,0,0,.06,2.34,2.34,0,0,0,.41.29.73.73,0,0,0,.45.21C40.88,123.07,40.94,123,40.94,122.94Z"/><path class="cls-2" d="M42.83,125.84a2.47,2.47,0,0,0-.29-.06.26.26,0,0,0-.3.22.56.56,0,0,0,.12.43.66.66,0,0,0,.58.27.89.89,0,0,0,0-.75A.22.22,0,0,0,42.83,125.84Z"/><path class="cls-2" d="M42.35,120.47a.23.23,0,0,0-.4,0,3.55,3.55,0,0,0-.2.63c0,.06,0,.14.08.21s.07,0,.12,0,0,0,0,0,.11,0,.17,0,.07,0,.11-.07c.2-.07.2-.07.21-.28,0,0,0,0,0,0a.7.7,0,0,0-.09-.42A.21.21,0,0,0,42.35,120.47Z"/><path class="cls-2" d="M48.14,123.73a.92.92,0,0,0,.57.2.19.19,0,0,0,.1-.05,1.07,1.07,0,0,0,.07-.19.73.73,0,0,0-.06-.54.12.12,0,0,0-.07-.07.8.8,0,0,0-.54.07.55.55,0,0,0-.2.43S48.1,123.68,48.14,123.73Z"/><path class="cls-2" d="M42.71,123.4a2.16,2.16,0,0,0-.36,0c-.09,0-.26,0-.26.17,0,0,0,0,0,0a.21.21,0,0,0-.09.24l.13.1s0,.06.07.06.08,0,.12.07.09.16.21.11,0,0,0,0l.28.13c.15.06.17.06.2-.1,0,0,0,0,0,0,.14-.15.09-.31.05-.47A.42.42,0,0,0,42.71,123.4Z"/><path class="cls-2" d="M44,122.34c-.15,0-.32,0-.43.11s-.15.16-.2.25,0,.1,0,.14a.39.39,0,0,0,.13.06l.54.24a.61.61,0,0,0,.13,0,.72.72,0,0,0,.1-.47C44.23,122.51,44.17,122.35,44,122.34Z"/><path class="cls-2" d="M47.11,123.53a.5.5,0,0,0-.12,0,3.25,3.25,0,0,0-.46.22c-.1.06-.09.19-.1.3a.26.26,0,0,0,.17.22s0,.07,0,.07.22.14.36.08,0,0,.05,0a1.29,1.29,0,0,0,.28,0s.08-.08.09-.13a1.08,1.08,0,0,0,0-.31.94.94,0,0,0-.07-.34C47.29,123.53,47.23,123.49,47.11,123.53Z"/><path class="cls-2" d="M45.71,122.34c-.12,0-.24,0-.35.06a.34.34,0,0,0-.22.47.58.58,0,0,0,.62.32.11.11,0,0,0,.09-.07.8.8,0,0,0,0-.21.68.68,0,0,0-.11-.53A.12.12,0,0,0,45.71,122.34Z"/><path class="cls-2" d="M46.07,124.84a.58.58,0,0,0-.48.36c-.1.24,0,.49.28.51h.38c.22,0,.24,0,.22-.27v0c0-.12,0-.24,0-.36S46.25,124.8,46.07,124.84Z"/><path class="cls-2" d="M45.8,121a4.15,4.15,0,0,0,0-.61.38.38,0,0,0-.21-.32l-.18-.07a2.17,2.17,0,0,0-.4.64c-.06.16,0,.24.13.33s0,0,0,0a.93.93,0,0,0,.29.36c.11.1.17.09.22,0l0-.06A.89.89,0,0,0,45.8,121Z"/><path class="cls-2" d="M43.6,120.63a.41.41,0,0,0-.39.18.12.12,0,0,0,0,.1.44.44,0,0,0,.17.3.82.82,0,0,0,.37.24.28.28,0,0,0,.38-.18C44.21,120.83,44,120.65,43.6,120.63Z"/><path class="cls-2" d="M46.81,121.62c0,.17.08.33.12.49a1.05,1.05,0,0,0,.47.44.11.11,0,0,0,.17-.09l0-.34a.36.36,0,0,0-.11-.35,3,3,0,0,0-.58-.25S46.8,121.59,46.81,121.62Z"/><path class="cls-2" d="M44.35,124.52l-.38,0c-.07.07-.14.12-.19.18s-.08.16,0,.28a1,1,0,0,1,.09.13l.07.06h.61c.06,0,.08-.07.06-.13a.7.7,0,0,1,0-.14c0-.06,0-.13,0-.19S44.46,124.52,44.35,124.52Z"/><path class="cls-2" d="M40.85,126.25a.52.52,0,0,0-.22.12c-.12.19-.24.39-.34.59s0,.15,0,.18a.22.22,0,0,0,.26,0,.68.68,0,0,0,.34-.37c.05-.15.14-.28.07-.44S40.92,126.23,40.85,126.25Z"/><path class="cls-2" d="M60.86,121.36a.12.12,0,0,1-.08,0,.61.61,0,0,0-.51-.11c-.18,0-.24.17-.12.32a2.09,2.09,0,0,0,.2.22l.75-.12C61.06,121.51,61,121.38,60.86,121.36Z"/><path class="cls-2" d="M54,120.73c-.17-.06-.5-.08-.6.12a3,3,0,0,0-.16.45s0,.11.05.15.06.1.1.14a.68.68,0,0,0,.2.07s0,0,.06,0a2.44,2.44,0,0,0,.37-.35c.17-.08.22-.24.29-.39a.1.1,0,0,0-.09-.14Z"/><path class="cls-2" d="M62.09,120.81a.28.28,0,0,0,.16.34.56.56,0,0,0,.44,0,.7.7,0,0,0,.39-.52.86.86,0,0,0-.74-.16.17.17,0,0,0-.12.1A2.24,2.24,0,0,0,62.09,120.81Z"/><path class="cls-2" d="M52.59,122.21a1.94,1.94,0,0,0-.33.07c-.1,0-.11.12-.15.2a.26.26,0,0,0,.07.35,1.17,1.17,0,0,0,.36.16c.19.05.19,0,.22-.17a0,0,0,0,0,0,0,1.78,1.78,0,0,0,0-.29C52.76,122.3,52.69,122.21,52.59,122.21Z"/><path class="cls-2" d="M59.65,117.87c0-.11,0-.23,0-.34s-.08-.39-.38-.4a.94.94,0,0,0-.57.09c-.11.06-.24.09-.25.25s0,0,0,0a.75.75,0,0,0,0,.2.64.64,0,0,0,.08.19s0,0,0,0a.83.83,0,0,0,.21.06h.79C59.62,118,59.65,118,59.65,117.87Z"/><path class="cls-2" d="M52.12,119.63s-.14,0-.15,0a.84.84,0,0,0-.08.31c0,.09.07.19.07.28a.57.57,0,0,0,.29.42.12.12,0,0,0,.17,0,.94.94,0,0,0,.12-.22c0-.12.05-.24.07-.37l-.4-.35A.15.15,0,0,0,52.12,119.63Z"/><path class="cls-2" d="M54,123l0,.07c-.1.11-.2.21-.28.31s-.09.12,0,.13,0,.05,0,.08,0,.1,0,.1l.21,0,.17.09a.37.37,0,0,0,.07-.14,2.56,2.56,0,0,0,.05-.27c0-.1,0-.21,0-.32s0-.15-.07-.18A.18.18,0,0,0,54,123Z"/><path class="cls-2" d="M54.27,118.56s.13.08.16.07a2.44,2.44,0,0,1,.24-.1.55.55,0,0,0,.3-.22.18.18,0,0,0,0-.27,3.5,3.5,0,0,0-.45-.07.44.44,0,0,0-.26,0,.84.84,0,0,1-.4.14.16.16,0,0,0-.1.11.24.24,0,0,0,.08.15,2.63,2.63,0,0,0,.3.08A.35.35,0,0,1,54.27,118.56Z"/><path class="cls-2" d="M55,117.22l.37.19s.07,0,.1-.06.07-.13.11-.18a.59.59,0,0,0,.11-.46c0-.17-.41-.37-.56-.28s-.27,0-.25.22l0,0,0,0a1.23,1.23,0,0,0,0,.19s.13.13.12.15S55,117.19,55,117.22Z"/><path class="cls-2" d="M62.27,119.5l.37.19s.08,0,.1-.06a1.13,1.13,0,0,1,.12-.18A.63.63,0,0,0,63,119c0-.17-.41-.37-.56-.28s-.26,0-.25.22c0,0,0,0,0,0s0,0,0,0,0,.12,0,.19.14.13.12.15S62.23,119.47,62.27,119.5Z"/><path class="cls-2" d="M55,119.39c-.09,0-.18-.07-.25,0a.46.46,0,0,0-.1.42.57.57,0,0,1,.08.13.58.58,0,0,0,.38.34s.12,0,.13,0a.71.71,0,0,0,.2-.53.35.35,0,0,0-.1-.23A1.35,1.35,0,0,0,55,119.39Z"/><path class="cls-2" d="M56.59,122.27a1.77,1.77,0,0,0-.21.32.21.21,0,0,0,.13.29.24.24,0,0,1,.16.11.13.13,0,0,0,.12.06s.05,0,.06-.06a1.07,1.07,0,0,0,0-.64,0,0,0,0,1,0,0C56.8,122.15,56.71,122.12,56.59,122.27Z"/><path class="cls-2" d="M56.36,119.78c.08,0,.12.06.16,0a.41.41,0,0,1,.07-.11.64.64,0,0,0,.14-.55.51.51,0,0,0-.45-.3.13.13,0,0,0-.17.12c0,.13-.1.25,0,.39a1.05,1.05,0,0,1,0,.19A.51.51,0,0,0,56.36,119.78Z"/><path class="cls-2" d="M57.07,120.17a.52.52,0,0,0-.22.12c-.12.19-.23.39-.34.59s0,.15,0,.18a.22.22,0,0,0,.26,0,.67.67,0,0,0,.34-.38c0-.14.14-.27.07-.43S57.14,120.15,57.07,120.17Z"/><path class="cls-2" d="M58.07,121.75c-.21-.07-.31,0-.26.26s0,.22.08.33a.22.22,0,0,0,.07.06l.08,0c.1.06.2.13.3.18s.11,0,.12-.06a1.21,1.21,0,0,0,0-.19c0-.11,0-.22,0-.33s0-.07-.06-.08A1.79,1.79,0,0,0,58.07,121.75Z"/><path class="cls-2" d="M56.28,118.09a3,3,0,0,0,.52-.12.54.54,0,0,0,.29-.43c0-.11,0-.22,0-.32s-.22,0-.31,0a.94.94,0,0,1-.22.12.64.64,0,0,0-.35.39c0,.09-.07.17-.12.29A.68.68,0,0,0,56.28,118.09Z"/><path class="cls-2" d="M56.61,116.06h0l.52.08a.14.14,0,0,0,.16-.13c0-.13,0-.26,0-.38s0-.27-.26-.29a1.1,1.1,0,0,0-.48.07l-.05,0q-.07.17-.15.3l.09.11C56.5,115.94,56.56,116,56.61,116.06Z"/><path class="cls-2" d="M58.4,119.58a.12.12,0,0,0,.12,0,.68.68,0,0,0,.22-.49.31.31,0,0,0-.13-.24c-.16-.13-.36-.1-.54-.16a.2.2,0,0,0-.17,0,.5.5,0,0,0-.09.39,2.79,2.79,0,0,0,.28.34A1.11,1.11,0,0,0,58.4,119.58Z"/><path class="cls-2" d="M58.38,115.76c.2,0,.24,0,.28.2a.2.2,0,0,0,.2.19c.06,0,.08,0,.07-.08,0-.22,0-.43,0-.64a.3.3,0,0,0-.06-.2.35.35,0,0,0-.39,0c-.12.08-.31.1-.27.34S58.21,115.74,58.38,115.76Z"/><path class="cls-2" d="M60.92,118.6a.83.83,0,0,0,0,.22c0,.09.07.11.16.07a1.41,1.41,0,0,0,.46-.3.45.45,0,0,0,.14-.38c0-.19-.19-.28-.32-.22a.53.53,0,0,0-.26.27C61,118.38,61,118.49,60.92,118.6Z"/><path class="cls-2" d="M59.93,119.36l0,.51c0,.24.1.5.35.58.08,0,.19,0,.17-.12s0-.21,0-.31a.75.75,0,0,0,0-.3c-.08-.13-.19-.25-.28-.37S60,119.24,59.93,119.36Z"/><path class="cls-2" d="M60.25,116.66h0c0,.12,0,.24,0,.36.16.06.27.2.44.17s.13.06.2.07.12,0,.09-.12a.34.34,0,0,1,0-.1,1,1,0,0,0,0-.17.58.58,0,0,0-.13-.31A4.17,4.17,0,0,0,60.25,116.66Z"/><path class="cls-2" d="M52.73,119.22s0,0,0,0,.09.1.14.1.13,0,.2-.12a.18.18,0,0,1,.22-.09.15.15,0,0,0,.15,0,.21.21,0,0,0,0-.17.27.27,0,0,0-.46-.06l-.06.06a.76.76,0,0,0-.08-.2h0a.22.22,0,0,0-.15-.1s-.09.07-.1.12a2.18,2.18,0,0,0,0,.35.6.6,0,0,1,.14.13Z"/><path class="cls-2" d="M58.92,120.37c0-.05-.07-.06-.09-.05a.13.13,0,0,0,0-.11s-.08,0-.14,0a2.23,2.23,0,0,0-.24.19c-.14.16-.13.23.05.34l0,0a1,1,0,0,1,0,.17.16.16,0,0,0,0,.17.33.33,0,0,0,.4.12H59s.07,0,.08-.07.07-.21.11-.31a.2.2,0,0,0,0-.23A2.61,2.61,0,0,1,58.92,120.37Z"/><path class="cls-2" d="M55.54,121.58a.22.22,0,0,0-.21,0,.27.27,0,0,0-.25-.25.13.13,0,0,0-.09.06,1.89,1.89,0,0,0-.06.18s0,0,0,0,.15.11.09.24-.07.27.1.34l.06,0a.48.48,0,0,0,.07.2c0,.11.14.09.23.13a.76.76,0,0,0,0-.11l.06-.17a.59.59,0,0,0,.1-.17,1.61,1.61,0,0,0,0-.38S55.59,121.61,55.54,121.58Z"/><path class="cls-2" d="M116.59,60a4.86,4.86,0,0,0,2.24.33L118.47,59a3.36,3.36,0,0,1-.94-.6,3,3,0,0,1-.93-1.86l-2.86.77A5.44,5.44,0,0,0,116.59,60Z"/><path class="cls-2" d="M126.69,57.49a3,3,0,0,1,1.86-.94l-.77-2.85a5.37,5.37,0,0,0-2.71,2.85,4.7,4.7,0,0,0-.33,2.23l1.35-.36A3.3,3.3,0,0,1,126.69,57.49Z"/><path class="cls-2" d="M121.56,58.85l.7-1.21a3.27,3.27,0,0,1-.23-1.09,3,3,0,0,1,.65-2l-2.56-1.48a5.45,5.45,0,0,0,.09,3.94A4.92,4.92,0,0,0,121.56,58.85Z"/><path class="cls-2" d="M145.93,74.83a26,26,0,0,1-6.78,8.44,24.93,24.93,0,0,1-9.62,4.88,25.38,25.38,0,0,1-20.71-3.5l-1.48,2.23a28.18,28.18,0,0,0,5.84,2.91,46.07,46.07,0,0,1,4.95,8.44,7.85,7.85,0,0,0-10.4,5.23,7.19,7.19,0,0,0-11,3.13,18.83,18.83,0,0,0-5.26-4.72,18,18,0,0,0-25.07,6.72,18.4,18.4,0,0,0-2.17,6.6,8.7,8.7,0,0,0-15.08,3.5,7.83,7.83,0,0,0-11.47,1.67q-.61-2.72-1-5.48a61.44,61.44,0,0,1-.35-14.53c.15-1.52.37-3,.64-4.56a16.46,16.46,0,0,1,5.75-2.28L42,90.93a18.77,18.77,0,0,0-4.37,1.6,48.27,48.27,0,0,1,9-18.81A39.32,39.32,0,0,1,57.5,64.33l.61-.34a31.2,31.2,0,0,0,.09,8.79A26.36,26.36,0,0,0,60,79a27.46,27.46,0,0,0,3.26,5.56,33.67,33.67,0,0,0,9.67,8.22h0l.72.42.66-.44,10.58-7.06-1-1.58L73.59,90a30.38,30.38,0,0,1-8.23-7.14,24.21,24.21,0,0,1-2.93-5,23,23,0,0,1-1.58-5.55A29.44,29.44,0,0,1,61,62.5,39.81,39.81,0,0,1,71,59.57a38.94,38.94,0,0,1,14.31.5,44.58,44.58,0,0,1,13.32,5.5l1.2-1.88a44,44,0,0,0-14-6A41.25,41.25,0,0,0,70.58,57a40.46,40.46,0,0,0-8.84,2.34c.39-1.44.85-2.87,1.38-4.27a39.51,39.51,0,0,1,2.48-5.34l-2.3-1.38a41.51,41.51,0,0,0-2.68,5.76,45.24,45.24,0,0,0-1.84,6c0,.18-.07.37-.11.55-.86.42-1.71.87-2.53,1.36A41.82,41.82,0,0,0,44.6,72,51.63,51.63,0,0,0,34.44,94.62a18.45,18.45,0,0,0-6.61,11.18,18.28,18.28,0,0,0,.13,7.07l1.68-.45a16.47,16.47,0,0,1,2.65-12.13,16.9,16.9,0,0,1,1.55-1.92c-.07.58-.14,1.15-.19,1.72A63.63,63.63,0,0,0,34,115.26a70,70,0,0,0,1.49,7.44c.35,1.35.71,2.68,1.07,4l0,.09h0l.84,3.1.35,1.29,1.29-.35,27.27-7.3,1.3-.35-.35-1.3a16.14,16.14,0,0,1,1.45-12,15.32,15.32,0,0,1,21.36-5.73,16.22,16.22,0,0,1,7.26,9.67l.34,1.29,1.3-.34,23.81-6.39,1.24-.33-.27-1.25a49,49,0,0,0-6.58-15.88c.38.07.77.15,1.16.21a27.72,27.72,0,0,0,11.78-.69A27.32,27.32,0,0,0,140.56,85a27.93,27.93,0,0,0,7.2-9.26Zm-96.25,50.4-1,.25.13-.13a.42.42,0,0,0,.08-.4c-.07-.17-.22-.24-.34-.17a.5.5,0,0,0-.22.31,2,2,0,0,0-.1.35.47.47,0,0,0,0,.17l-8.58,2.3-.45-1.66h0a3.78,3.78,0,0,0,.46-.1.8.8,0,0,1,.15,0,.37.37,0,0,0,.33-.19c.11-.21.16-.24-.11-.3l0,0c-.32-.06-.55-.11-.78.16l-.11.19a5.18,5.18,0,0,1,10-2.54ZM64,121.39l-11.64,3.12-.57-2.15a6,6,0,0,1,1.89-6.11.77.77,0,0,0-.07.45.49.49,0,0,1,0,.17.42.42,0,0,0,.09.3L54,117a.19.19,0,0,0,.1-.22c0-.11,0-.22,0-.32a.48.48,0,0,0-.18-.34l0,0A5.91,5.91,0,0,1,56,115a6,6,0,0,1,7.38,4.25Zm44.22-11.85-8.65,2.32-.51-1.42a4.55,4.55,0,0,1,.88-4.06.35.35,0,0,0,0,.33c.07.16.16.32.25.48a.74.74,0,0,0,.19.15l.06,0c.1.08.15.06.18-.07a.79.79,0,0,0,.07-.4.09.09,0,0,1,0,0c.08-.14.07-.22-.05-.31a1.94,1.94,0,0,0-.58-.32,4.63,4.63,0,0,1,2.21-1.36,4.56,4.56,0,0,1,5.56,3.21Zm12.63-3.38-4.4,1.18.07-.13a.35.35,0,0,1,0-.08s0-.07,0-.09-.06-.22-.09-.33-.21-.25-.35-.09a1.83,1.83,0,0,0-.23.38.31.31,0,0,0,0,.1l.2.27,0,0-3.64,1,.48-.54c0-.1,0-.2-.07-.3s-.2-.2-.34-.06a.57.57,0,0,0-.18.48.15.15,0,0,1,0,.09c-.07.14,0,.24.09.33l-1.66.45-.39-1.46-.12-.47a5.18,5.18,0,0,1,3.67-6.36,5.1,5.1,0,0,1,2.19-.11.11.11,0,0,0-.05.11.47.47,0,0,0,.19.34l.24.2a.19.19,0,0,0,.25,0l.29-.17c0-.08-.08-.19-.21-.24a.42.42,0,0,1-.14-.09.42.42,0,0,0-.12-.08,5.19,5.19,0,0,1,3.72,3.68Z"/><path class="cls-2" d="M106.54,69.15l0,0a.67.67,0,0,0,.57,0,.14.14,0,0,0,.09-.09.56.56,0,0,0,0-.44,2.23,2.23,0,0,0-.47-.5c-.17-.13-.33-.15-.4,0h0c-.17.07,0,.42,0,.56S106.3,69.13,106.54,69.15Z"/><path class="cls-2" d="M128.43,62.26l-.75.11c0,.13.07.26.24.28l.08,0a.58.58,0,0,0,.51.11c.19,0,.25-.17.13-.32A1.45,1.45,0,0,0,128.43,62.26Z"/><path class="cls-2" d="M118.22,65a.24.24,0,0,1,.14,0,.55.55,0,0,0,.49.1c.14,0,.22-.32.2-.45s0-.07,0-.09l-.92.19C118.07,64.94,118.11,65,118.22,65Z"/><path class="cls-2" d="M122.32,64.25a.55.55,0,0,0,.38-.33.34.34,0,0,1,.09-.12c.09-.07.09-.15,0-.22l-.89.3s0,0,0,.08S122.19,64.3,122.32,64.25Z"/><path class="cls-2" d="M136.46,76.49a.65.65,0,0,0,.46.14c.05,0,.13,0,.16-.1a1.12,1.12,0,0,0,.08-.26c0-.14,0-.28.06-.39s-.16-.34-.37-.33l-.15,0-.06,0a.83.83,0,0,0-.44.6.14.14,0,0,0,.08.18A.77.77,0,0,1,136.46,76.49Z"/><path class="cls-2" d="M124.44,64.22a1,1,0,0,0,0-.3.68.68,0,0,0-.38-.54c-.2-.09-.36.21-.5.3s-.17.71.1.7h.1a.93.93,0,0,0,.57,0A.2.2,0,0,0,124.44,64.22Z"/><path class="cls-2" d="M127.66,82.13a.81.81,0,0,1,.22,0,.66.66,0,0,0,.5-.21.54.54,0,0,0,0-.52.73.73,0,0,0-.67-.21.42.42,0,0,0-.09.14,1.37,1.37,0,0,0-.06.72C127.53,82.13,127.58,82.14,127.66,82.13Z"/><path class="cls-2" d="M135.29,61.15a.58.58,0,0,0,.39,0c.2-.09.29-.33.38-.59,0,0,0-.11-.05-.15s-.06-.11-.11-.14a1.08,1.08,0,0,0-.19-.08h-.07a3.06,3.06,0,0,0-.37.35h0c-.16.08-.21.24-.29.39s0,.13.1.14A.87.87,0,0,1,135.29,61.15Z"/><path class="cls-2" d="M112.16,79.41a.21.21,0,0,0,.26-.07,1.35,1.35,0,0,0,.24-.48c0-.12,0-.23-.23-.33a.67.67,0,0,0-.65.12.83.83,0,0,0-.19.26.12.12,0,0,0,0,.1C111.79,79.15,111.92,79.34,112.16,79.41Z"/><path class="cls-2" d="M109.2,75.66a.6.6,0,0,0-.49-.06.16.16,0,0,0-.07.07c0,.06-.06.14-.09.22a2.33,2.33,0,0,0-.09.29c0,.15.1.15.19.19l.09,0a.79.79,0,0,0,.5.07.17.17,0,0,0,.1-.06.73.73,0,0,0,0-.5A.45.45,0,0,0,109.2,75.66Z"/><path class="cls-2" d="M141.83,65.37s0-.06,0-.1.11-.34-.06-.49-.47-.23-.63-.1a.84.84,0,0,0-.25.38c0,.1,0,.16.09.2a1.53,1.53,0,0,0,.27.11,3.29,3.29,0,0,0,.43.09S141.8,65.41,141.83,65.37Z"/><path class="cls-2" d="M127.71,63.81a.66.66,0,0,0-.09-.28c-.06-.09-.18-.14-.24-.24a.13.13,0,0,0,0,0h-.09c-.16,0-.27,0-.35.17a1.13,1.13,0,0,0-.08.57c.06.14.25.15.38.19a.55.55,0,0,0,.31,0,.31.31,0,0,0,.15-.08A.29.29,0,0,0,127.71,63.81Z"/><path class="cls-2" d="M134.23,61.65a.18.18,0,0,0,.07,0,2.54,2.54,0,0,0,.17-.51.63.63,0,0,0-.17-.31c-.13-.09-.26.06-.36,0a.16.16,0,0,0-.17.06.92.92,0,0,0-.17.25c-.08.11-.12.2,0,.33A.69.69,0,0,0,134.23,61.65Z"/><path class="cls-2" d="M129.48,62.45c0,.14,0,.17.14.16l.15,0a1.35,1.35,0,0,0,.31,0,.45.45,0,0,0,.27-.7c-.28-.44-.5,0-.7.23A.67.67,0,0,0,129.48,62.45Z"/><path class="cls-2" d="M107.07,73.53s-.43-.2-.45-.1h0a1.49,1.49,0,0,0,.13.49.72.72,0,0,0,.14.26c.14.13.27.31.51.33s.2,0,.24-.14a.35.35,0,0,0-.06-.19c0-.08-.09-.14-.14-.22A2,2,0,0,0,107.07,73.53Z"/><path class="cls-2" d="M136.68,61.38a.81.81,0,0,0,.57.09s.11,0,.12-.09a1,1,0,0,0,0-.42.38.38,0,0,0-.28-.31s0,0-.08,0-.08,0-.11,0-.3.15-.36.31l-.06.17a.19.19,0,0,0,.11.29Z"/><path class="cls-2" d="M108.37,68.2s.09,0,.14,0a1.05,1.05,0,0,0,.3,0c.21,0,.36-.14.33-.44a.59.59,0,0,0,0-.2,1.09,1.09,0,0,0-.27-.21.3.3,0,0,0-.28,0c-.13,0-.15.19-.21.28a1,1,0,0,0-.09.4C108.24,68.15,108.25,68.22,108.37,68.2Z"/><path class="cls-2" d="M141,66.49a.14.14,0,0,0-.07.08l-.11.41c0,.09,0,.15.11.17l.12,0,.45,0c.2-.07.25-.13.25-.33a1.08,1.08,0,0,0,0-.18.34.34,0,0,0-.39-.32A2.42,2.42,0,0,0,141,66.49Z"/><path class="cls-2" d="M141,59.46a.72.72,0,0,0,.62.06.46.46,0,0,0,.15-.16s0-.07,0-.11a1.4,1.4,0,0,0-.09-.31,1,1,0,0,0-.21-.19c-.07-.06-.31-.14-.39-.07s-.05.06-.08.11a1.5,1.5,0,0,0-.12.36.17.17,0,0,1,0,.07C140.81,59.39,140.82,59.39,141,59.46Z"/><path class="cls-2" d="M110.74,67.82a.21.21,0,0,0,.22-.13.62.62,0,0,0,.09-.56.43.43,0,0,0-.23-.21c-.18-.07-.38,0-.42.2s-.12.18-.19.26a.12.12,0,0,0,0,.16A.6.6,0,0,0,110.74,67.82Z"/><path class="cls-2" d="M138.31,74.72l.25-.26a.62.62,0,0,0,.11-.17c.06-.14.1-.29.17-.42a.21.21,0,0,0,0-.2c0-.07-.21,0-.39.06a1.07,1.07,0,0,0-.35.21,1.33,1.33,0,0,0-.12.4.74.74,0,0,0,0,.33C138,74.79,138.22,74.81,138.31,74.72Z"/><path class="cls-2" d="M130.61,80.68a1.88,1.88,0,0,0,.41,0c.07,0,.19-.09.2-.15s0-.36-.12-.5a.5.5,0,0,0-.61-.06l-.05,0a.37.37,0,0,0-.1.23C130.29,80.57,130.18,80.63,130.61,80.68Z"/><path class="cls-2" d="M123,82.78a.62.62,0,0,0,.37-.09.18.18,0,0,0,.09-.1.42.42,0,0,0-.26-.41c-.24-.09-.7-.33-.76,0a.58.58,0,0,0,0,.23C122.45,82.61,122.74,82.74,123,82.78Z"/><path class="cls-2" d="M104.86,69.09a.44.44,0,0,0,.23,0,.56.56,0,0,0,.32-.63.16.16,0,0,0-.1-.11.83.83,0,0,0-.28,0,3.38,3.38,0,0,0-.47.22c-.14.07-.25.25-.15.38S104.74,69.07,104.86,69.09Z"/><path class="cls-2" d="M125.78,63.61a.26.26,0,0,0,.13-.1,1.39,1.39,0,0,0,.12-.28.26.26,0,0,0-.16-.34.56.56,0,0,0-.44,0,.7.7,0,0,0-.39.52A.9.9,0,0,0,125.78,63.61Z"/><path class="cls-2" d="M141.23,61.78a1,1,0,0,0,.63.09.21.21,0,0,0,.18-.2c0-.11,0-.22,0-.33a.29.29,0,0,0-.42-.23.27.27,0,0,0-.07.08h0c-.09.09-.19,0-.28.17s-.18.27-.13.34A.24.24,0,0,0,141.23,61.78Z"/><path class="cls-2" d="M115.9,65.91h0a1.06,1.06,0,0,0,.53,0,.68.68,0,0,0,.4-.4.17.17,0,0,0,0-.14s-.08-.11-.11-.1-.31.06-.46.09a.83.83,0,0,1-.15,0,.36.36,0,0,0-.34.19C115.68,65.82,115.63,65.85,115.9,65.91Z"/><path class="cls-2" d="M124.7,82.71h.36a.4.4,0,0,0,.43-.55s0,0,0-.06-.39-.26-.56-.13l0,0a.8.8,0,0,0-.29.49C124.57,82.62,124.58,82.7,124.7,82.71Z"/><path class="cls-2" d="M106.41,71.84c0-.15-.12-.43-.27-.51a.37.37,0,0,0-.37.06.51.51,0,0,0-.15.14.4.4,0,0,0,0,.32.62.62,0,0,0,.56.35.18.18,0,0,0,.11,0A.38.38,0,0,0,106.41,71.84Z"/><path class="cls-2" d="M112.44,66.83a1,1,0,0,0,.64-.06c.21-.06.26-.16.34-.35-.31-.26-.85,0-1.19.07,0,0-.08.09-.1.15s0,.08.08.1A.92.92,0,0,0,112.44,66.83Z"/><path class="cls-2" d="M140.82,69.08a1,1,0,0,0-.45.57s.08.22.13.22l.24,0a.18.18,0,0,0,.24-.15,1.34,1.34,0,0,1,.07-.18c0-.12.07-.23.11-.36s-.07-.16-.13-.19A.27.27,0,0,0,140.82,69.08Z"/><path class="cls-2" d="M120.07,65.89a4,4,0,0,0,.48.07c.19,0,.25-.12.22-.32a.55.55,0,0,0-.14-.19.58.58,0,0,0-.63,0,.36.36,0,0,0-.15.29c0,.1.12.09.19.12Z"/><path class="cls-2" d="M120.73,65a.52.52,0,0,0,.18-.42.4.4,0,0,0-.51-.25.42.42,0,0,0-.21.4A.6.6,0,0,0,120.73,65Z"/><path class="cls-2" d="M105.63,70.16a.47.47,0,0,0,.52.37.42.42,0,0,0,.24-.17c.19-.33-.38-.86-.75-.59C105.55,69.83,105.61,70.07,105.63,70.16Z"/><path class="cls-2" d="M124.05,71.44a4,4,0,0,0,0,.49.33.33,0,0,0,.3.3l.35,0h.09c.15,0,.48-.1.39-.34,0-.06-.12-.09-.18-.13a.1.1,0,0,1-.06-.1.16.16,0,0,0-.12-.17l-.2-.08a2.78,2.78,0,0,0-.38-.12C124.13,71.31,124.05,71.35,124.05,71.44Z"/><path class="cls-2" d="M125,75.46a.55.55,0,0,0,.5.19c.21-.06.6-.06.67-.33a.07.07,0,0,1,0,0c0-.18-.15-.28-.29-.38a1,1,0,0,0-.3-.12c-.09,0-.17,0-.22.06s0,0-.06,0a1.06,1.06,0,0,0-.34.49A.13.13,0,0,0,125,75.46Z"/><path class="cls-2" d="M125.59,72.51a.15.15,0,0,0-.13,0s0,.09,0,.14,0,.09,0,.14l0,.3a.47.47,0,0,0,.38.27c.07,0,.13,0,.11-.12s0-.22,0-.33a1.29,1.29,0,0,0-.05-.21C125.8,72.58,125.69,72.55,125.59,72.51Z"/><path class="cls-2" d="M122.54,65.79A1,1,0,0,0,123,65c-.14,0-1-.15-.91.13a1,1,0,0,1,0,.28.56.56,0,0,0,.09.31C122.32,65.86,122.39,65.89,122.54,65.79Z"/><path class="cls-2" d="M122.05,67s.07,0,.11,0,.07.06.1,0c.11-.44-.21-.75-.31-1.16,0,0-.11-.06-.16-.07s-.07.06-.08.1a1,1,0,0,0,0,.24C121.64,66.29,121.85,67.08,122.05,67Z"/><path class="cls-2" d="M122.78,69.74l0,.05a.8.8,0,0,0,0,.53c0,.09,0,.16.16.16s.08,0,0,.09a.23.23,0,0,1-.07.07,1,1,0,0,0-.34.44c-.08.18.24.43.35.54s0,0,0,0,0,0,0,0a.44.44,0,0,0,.31-.46,1.23,1.23,0,0,0-.14-.57s0,0,0-.08a.07.07,0,0,1,0,0,.68.68,0,0,0,.23-.39.36.36,0,0,0,0-.18.29.29,0,0,0-.15-.14C123.12,69.67,122.81,69.44,122.78,69.74Z"/><path class="cls-2" d="M123.77,75.78a.17.17,0,0,0,0,.23c.08.12.18.23.27.34s.07,0,.1,0,0,0,0,0a.58.58,0,0,0,.14,0,.3.3,0,0,0,.08-.16,1.83,1.83,0,0,0,0-.57.56.56,0,0,0-.09-.19s-.12-.07-.15,0a.6.6,0,0,0-.34.32S123.8,75.75,123.77,75.78Z"/><path class="cls-2" d="M123.25,73.63a.14.14,0,0,0-.13,0l-.18.09a.75.75,0,0,0-.23.37c0,.12,0,.19.06.27s.36.36.53.28.41-.17.28-.48A2.7,2.7,0,0,0,123.25,73.63Z"/><path class="cls-2" d="M120.63,68.65a.38.38,0,0,0,.18.12.15.15,0,0,0,.11,0,.94.94,0,0,0,.28-.15.65.65,0,0,0,.15-.24.25.25,0,0,0,0-.12l0-.31-.16,0c-.15-.13-.15-.13-.36-.12h-.07c-.18,0-.17,0-.21.16A.68.68,0,0,0,120.63,68.65Z"/><path class="cls-2" d="M123.36,79c0-.08-.06-.19-.15-.22s-.31.14-.4.24a1.17,1.17,0,0,0-.19.3.69.69,0,0,0,.1.39s.08.17.14.19.12,0,.21,0l.05,0a.24.24,0,0,0,.23,0c.13,0,.12-.14.09-.23a.42.42,0,0,1,0-.26s0-.07,0-.11a.17.17,0,0,0,0-.12Z"/><path class="cls-2" d="M121.93,73.09a.37.37,0,0,0,.18,0c.16,0,.39-.21.28-.4s-.15-.14-.19-.26-.06-.29-.23-.44-.11,0-.13,0c-.18.17-.39.31-.42.57a.27.27,0,0,0,0,.18C121.6,72.87,121.73,73.07,121.93,73.09Z"/><path class="cls-2" d="M127,70.05s-.11,0-.13,0c-.18.17-.39.31-.42.58a.25.25,0,0,0,0,.17c.16.16.29.36.49.39a.55.55,0,0,0,.18,0c.16,0,.39-.2.28-.4s-.15-.14-.19-.26S127.19,70.2,127,70.05Z"/><path class="cls-2" d="M121.07,71.3a.78.78,0,0,0-.29-.14s-.07,0-.09,0a1.67,1.67,0,0,0-.28.62.22.22,0,0,0,.12.24l.52.2.19-.21,0,0c0-.06.06-.11.08-.16l0-.16s-.07-.08-.07-.11S121.15,71.37,121.07,71.3Z"/><path class="cls-2" d="M119.82,70.58c.1,0,.45.12.47,0s.1-.08.12-.13a.78.78,0,0,0,0-.21.07.07,0,0,0,0-.06,2.06,2.06,0,0,0-.41-.3h0a.68.68,0,0,0-.44-.21.12.12,0,0,0-.12.12,1.77,1.77,0,0,1,0,.23A.53.53,0,0,0,119.82,70.58Z"/><path class="cls-2" d="M120.51,75.1s0,.07.08.08a.58.58,0,0,0,.53,0c.13-.44,0-.49-.4-.68a.12.12,0,0,0-.16,0C120.41,74.7,120.47,74.9,120.51,75.1Z"/><path class="cls-2" d="M121.49,76.55c.11.17.19.41.45.42.1,0,.22.09.25-.06a.89.89,0,0,0-.15-.44,6.12,6.12,0,0,0-.31-.56.24.24,0,0,0-.11-.09.16.16,0,0,0-.09.06l-.08.18A.56.56,0,0,0,121.49,76.55Z"/><path class="cls-2" d="M119.82,66.8a1.26,1.26,0,0,0-.38.35.59.59,0,0,0-.18.24c-.06.2-.17.39-.07.62s.07.2.23.16a.33.33,0,0,0,.15-.14c.05-.07.09-.16.14-.23a2,2,0,0,0,.21-.58S120,66.74,119.82,66.8Z"/><path class="cls-2" d="M118.15,66.56a.22.22,0,0,0,.12.11,1.59,1.59,0,0,0,.3.06.26.26,0,0,0,.3-.22.55.55,0,0,0-.12-.43.7.7,0,0,0-.59-.28A.92.92,0,0,0,118.15,66.56Z"/><path class="cls-2" d="M120.13,74.12a.54.54,0,0,0,.11-.62l0,0a1.43,1.43,0,0,0-.28-.13.14.14,0,0,0-.19.09,1.08,1.08,0,0,0-.12.24,1.7,1.7,0,0,0-.08.44C119.56,74.42,120,74.23,120.13,74.12Z"/><path class="cls-2" d="M119.94,75.31c0-.1-.15-.1-.24-.09s-.07.06-.08.1a1,1,0,0,1-.07.33.57.57,0,0,0,.19.63.37.37,0,0,0,.48.09.66.66,0,0,1,0-.15c0-.18,0-.37-.09-.54A2.35,2.35,0,0,0,119.94,75.31Z"/><path class="cls-2" d="M118.36,77.92a.31.31,0,0,0,.18-.07.47.47,0,0,0,.1-.1.37.37,0,0,0,.11-.19.5.5,0,0,0-.11-.5.34.34,0,0,0-.21-.08c-.05,0-.11.06-.14.11a1.59,1.59,0,0,1-.07.2C118.11,77.45,118,77.92,118.36,77.92Z"/><path class="cls-2" d="M118.75,78.81a.17.17,0,0,0-.12,0,.9.9,0,0,0-.13.68s.06.08.1.1a2.3,2.3,0,0,0,.28.06h.05a.78.78,0,0,0,.22-.43s0,0,0,0L119,79l-.08-.1A.57.57,0,0,0,118.75,78.81Z"/><path class="cls-2" d="M117.1,72.77s0,0,0,0a.66.66,0,0,0,.1.43l0,.07a.23.23,0,0,0,.4,0,3.43,3.43,0,0,0,.21-.64c0-.06,0-.14-.08-.21s-.07,0-.12,0,0,0,0,0-.12,0-.17,0-.07,0-.11.06C117.11,72.56,117.11,72.56,117.1,72.77Z"/><path class="cls-2" d="M119.67,79.9a.48.48,0,0,0-.1.23,3.24,3.24,0,0,0,0,.45.45.45,0,0,0,.14.11.65.65,0,0,0,.2,0,.34.34,0,0,0,.27-.17,2.64,2.64,0,0,0,.1-.3.06.06,0,0,0,0,0l-.19-.12-.08-.06s-.08-.11-.14-.14S119.7,79.87,119.67,79.9Z"/><path class="cls-2" d="M119.31,71.82c0-.1,0-.21-.08-.32a2.22,2.22,0,0,0-.75-.52.09.09,0,0,0-.12.09,2.88,2.88,0,0,0,0,.42.87.87,0,0,0,.17.33A.6.6,0,0,0,119,72,.32.32,0,0,0,119.31,71.82Z"/><path class="cls-2" d="M124,68.4a.34.34,0,0,0,.31-.16.36.36,0,0,0-.08-.33,2,2,0,0,0-.75-.51.08.08,0,0,0-.12.08,2,2,0,0,0,0,.43.71.71,0,0,0,.17.32A.64.64,0,0,0,124,68.4Z"/><path class="cls-2" d="M118.85,74.41h0a.43.43,0,0,0,.37-.39.5.5,0,0,0-.29-.42,1,1,0,0,0-.46-.07c-.14,0-.17,0-.14.18a.22.22,0,0,1,0,.08c0,.13,0,.26,0,.34C118.53,74.42,118.57,74.44,118.85,74.41Z"/><path class="cls-2" d="M120,77.67c.09,0,.07-.15.1-.22s0-.06,0-.09-.17-.13-.2-.21a.33.33,0,0,0-.26-.2.14.14,0,0,0-.12.06,1,1,0,0,0-.12.28,1.45,1.45,0,0,0,0,.36c0,.1.33.23.48.19A1.2,1.2,0,0,1,120,77.67Z"/><path class="cls-2" d="M117.72,66.46s-.09-.1-.13-.15a.86.86,0,0,0-.57-.2.1.1,0,0,0-.1,0,.64.64,0,0,0-.08.19.77.77,0,0,0,.06.54s0,.07.07.07C117.41,67,117.67,67,117.72,66.46Z"/><path class="cls-2" d="M117.72,69a2.16,2.16,0,0,0,.36,0c.1,0,.26,0,.26-.17,0,0,0,0,0,0a.21.21,0,0,0,.08-.25l-.13-.1s0,0-.06,0-.09,0-.13-.07-.09-.17-.21-.11l-.05,0-.28-.12c-.15-.07-.17-.06-.2.1s0,0,0,0-.09.31,0,.47A.42.42,0,0,0,117.72,69Z"/><path class="cls-2" d="M117.59,70l-.55-.24-.12,0a.73.73,0,0,0-.11.47c0,.2.1.36.31.37s.32,0,.43-.11a2.56,2.56,0,0,0,.2-.26s0-.1,0-.14A.39.39,0,0,0,117.59,70Z"/><path class="cls-2" d="M115.5,67.79a1.17,1.17,0,0,0,0,.32.94.94,0,0,0,.07.34c0,.13.11.17.23.13a.61.61,0,0,0,.13,0,3.88,3.88,0,0,0,.46-.22c.23-.14.06-.48-.11-.58a.66.66,0,0,0-.39-.11,1.27,1.27,0,0,0-.28,0S115.51,67.75,115.5,67.79Z"/><path class="cls-2" d="M115.32,69.28a.13.13,0,0,0-.09.07,1.6,1.6,0,0,0,0,.21.76.76,0,0,0,.11.53.15.15,0,0,0,.09,0,2.27,2.27,0,0,0,.35,0,.35.35,0,0,0,.22-.48A.59.59,0,0,0,115.32,69.28Z"/><path class="cls-2" d="M114.73,67.19a.58.58,0,0,0,.49-.36c.09-.25,0-.5-.28-.52h-.39c-.22,0-.24,0-.22.27v.05c0,.12,0,.24,0,.36S114.55,67.22,114.73,67.19Z"/><path class="cls-2" d="M116,72.39a2.64,2.64,0,0,0,.4-.65c.06-.16,0-.24-.14-.34l0,0a.87.87,0,0,0-.29-.37c-.11-.1-.17-.09-.22,0s0,0,0,.07a.84.84,0,0,0-.09.25,3.18,3.18,0,0,0,0,.62.36.36,0,0,0,.2.33Z"/><path class="cls-2" d="M116.18,74.89a1.36,1.36,0,0,0,.58,0c0-.08,0-.15.07-.21a.23.23,0,0,0-.12-.35,1,1,0,0,1-.36-.13,1.36,1.36,0,0,0-.48-.17c-.09,0-.13,0-.13.11a.66.66,0,0,1,0,.14A.6.6,0,0,0,116.18,74.89Z"/><path class="cls-2" d="M113.82,68.87a.84.84,0,0,0,.07.54s.06.12.15.08.18-.06.27-.09h0l.16-.08a.4.4,0,0,0,.11-.5.51.51,0,0,0-.35-.2C114,68.57,113.84,68.58,113.82,68.87Z"/><path class="cls-2" d="M114.17,71.69a.1.1,0,0,0,0-.09.48.48,0,0,0-.17-.31,1,1,0,0,0-.37-.24.28.28,0,0,0-.38.18A.51.51,0,0,0,114.17,71.69Z"/><path class="cls-2" d="M113.52,73.12s0,.08,0,.11a.81.81,0,0,0,.08.54c0,.12.07.13.23.14a.57.57,0,0,0,.52-.18c.06-.07,0-.17.07-.23s-.22-.36-.35-.42a1.65,1.65,0,0,0-.43-.09C113.55,73,113.5,73,113.52,73.12Z"/><path class="cls-2" d="M114.43,76.28A.4.4,0,0,0,115,76a.65.65,0,0,0,0-.15c.09-.33-.24-.21-.48-.39a.24.24,0,0,0-.21-.06l-.17,0c-.08,0-.11,0-.09.14C114.14,75.85,114.15,76.15,114.43,76.28Z"/><path class="cls-2" d="M113,69.24a.89.89,0,0,0,.3-.61c0-.18-.09-.33-.27-.3a.7.7,0,0,0-.46.2.52.52,0,0,0-.05.53.44.44,0,0,0,.16.25A.27.27,0,0,0,113,69.24Z"/><path class="cls-2" d="M112.25,70.62a3,3,0,0,0,.58.25s.11-.07.11-.1a3.92,3.92,0,0,0-.13-.49,1,1,0,0,0-.47-.44.1.1,0,0,0-.17.09c0,.11,0,.22,0,.34A.37.37,0,0,0,112.25,70.62Z"/><path class="cls-2" d="M110.69,68.59a1.24,1.24,0,0,1,0,.16c0,.08,0,.16,0,.24s.14.3.27.3a3.81,3.81,0,0,0,.47-.07,1.11,1.11,0,0,0,.22-.21c.11-.15.1-.19,0-.33l-.12-.16s0-.07-.07-.07l-.74,0C110.69,68.43,110.66,68.51,110.69,68.59Z"/><path class="cls-2" d="M111.63,72.75c.07.26.67.37.59,0a.77.77,0,0,0-.53-.55C111.53,72.39,111.58,72.56,111.63,72.75Z"/><path class="cls-2" d="M109.73,71.4a1.1,1.1,0,0,0,0,.67c.06.1.11.15.22.1a1.39,1.39,0,0,0,.31-.18,1.46,1.46,0,0,0,.56-.91.55.55,0,0,0-.57,0c-.12.05-.23.12-.33.17S109.73,71.34,109.73,71.4Z"/><path class="cls-2" d="M110.93,74.16a.28.28,0,0,0,.28-.29,1,1,0,0,0,0-.22,1.48,1.48,0,0,0-.25-.25,1.85,1.85,0,0,0-.39-.15.13.13,0,0,0-.12,0,.87.87,0,0,0,.07.74.13.13,0,0,0,.09.06A2.38,2.38,0,0,0,110.93,74.16Z"/><path class="cls-2" d="M109,69.89c.1,0,.27-.08.28-.16s0-.54-.13-.66a.48.48,0,0,0-.29-.13c-.1,0-.05.14-.07.21h0c0,.17-.08.34,0,.52A.32.32,0,0,0,109,69.89Z"/><path class="cls-2" d="M107.38,69.92c-.1,0-.13,0-.14.12s0,.21,0,.32,0,.21,0,.31a.59.59,0,0,0,.17.18.76.76,0,0,0,.35.11.57.57,0,0,0,.3-.1s0-.32,0-.37a.8.8,0,0,1-.13-.19A.59.59,0,0,0,107.38,69.92Z"/><path class="cls-2" d="M108.07,71.65c0,.14,0,.26,0,.39a.63.63,0,0,0,.16.51c.14.17.3.31.47.48a.35.35,0,0,0,.06-.09.4.4,0,0,0,0-.37c-.08-.24-.2-.47-.3-.7A.37.37,0,0,0,108.07,71.65Z"/><path class="cls-2" d="M108.75,74.15a1.14,1.14,0,0,0,.07.68.26.26,0,0,0,.41,0,2.46,2.46,0,0,0,.17-.27.49.49,0,0,0,0-.37c0-.09-.2-.18-.3-.18L109,74A.24.24,0,0,0,108.75,74.15Z"/><path class="cls-2" d="M109.58,76.7c.07.14,0,.32.16.45s.24.18.36,0,.32-.5.47-.75a.26.26,0,0,0,0-.27l-.06,0a.51.51,0,0,0-.24,0c-.09,0-.2,0-.28.11s-.26.28-.39.43A.14.14,0,0,0,109.58,76.7Z"/><path class="cls-2" d="M111,75.93a.25.25,0,0,0,.15-.06c.06-.12.17-.17.15-.28a1.36,1.36,0,0,0-.24-.24s0-.07,0-.1a.17.17,0,0,0,0-.07c0-.11-.14-.14-.22-.18a.52.52,0,0,0-.27-.07s0,.11-.07.17a.94.94,0,0,0,0,.16C110.25,75.7,110.56,75.94,111,75.93Z"/><path class="cls-2" d="M112.53,77.48a.53.53,0,0,0-.19-.34.91.91,0,0,0-.24-.16.85.85,0,0,0-.23,0,.13.13,0,0,0-.16.11,4.26,4.26,0,0,0,0,.5c0,.19.11.28.29.32s.24-.06.36-.11A.27.27,0,0,0,112.53,77.48Z"/><path class="cls-2" d="M112.32,75.13a1.31,1.31,0,0,0,.34,0,.45.45,0,0,0,.28-.09c.41-.4-.57-.77-.81-.79a1,1,0,0,0-.06.56C112.1,75,112.19,75.12,112.32,75.13Z"/><path class="cls-2" d="M113.71,79.15s0,.06,0,.07a.74.74,0,0,0-.22.46c0,.13.13.33.25.31a1.08,1.08,0,0,0,.31-.07.44.44,0,0,0,.27-.23.42.42,0,0,0-.1-.54,1.53,1.53,0,0,0-.32-.13A.14.14,0,0,0,113.71,79.15Z"/><path class="cls-2" d="M114.47,78.37h0c.38,0,.49-.26.35-.56a1.73,1.73,0,0,0-.62-.67c-.06,0-.16,0-.19.08a.61.61,0,0,1-.07.14.91.91,0,0,0-.2.46c0,.06,0,.15.06.18A1.81,1.81,0,0,0,114.47,78.37Z"/><path class="cls-2" d="M115.51,80.93a.82.82,0,0,0,.57-.16c0-.2.12-.39.11-.61a.57.57,0,0,0-.52-.61c-.15,0-.18,0-.16.17s0,.11,0,.14a.44.44,0,0,0-.07.22s0,0,0,0a.81.81,0,0,0,0,.71S115.46,80.93,115.51,80.93Z"/><path class="cls-2" d="M116.21,78.14c.31-.14.56-.32.3-.68a1.07,1.07,0,0,0-.76-.31.16.16,0,0,0-.17.15.27.27,0,0,1,0,.18.61.61,0,0,0,0,.54.07.07,0,0,0,0,.06A.85.85,0,0,0,116.21,78.14Z"/><path class="cls-2" d="M117.82,81.64s.07-.07.09-.11a1.7,1.7,0,0,0,0-.22c0-.16,0-.31.07-.46a1.23,1.23,0,0,0,0-.38,1.67,1.67,0,0,1,0-.32c0-.35-.35.18-.39.26l-.06.2a1.09,1.09,0,0,0-.07.24,1.42,1.42,0,0,1,0,.29.56.56,0,0,0,.07.42A.21.21,0,0,0,117.82,81.64Z"/><path class="cls-2" d="M117.33,76.54a.65.65,0,0,0,.32-.49,5.34,5.34,0,0,0,0-.55,1,1,0,0,0-.64.12.45.45,0,0,0-.21.45c0,.1.08.53.22.53A.67.67,0,0,0,117.33,76.54Z"/><path class="cls-2" d="M119.21,80.71l0,0c.16-.18.35-.44.07-.64-.12-.1-.19,0-.33,0s-.27,0-.31.19a1,1,0,0,0,0,.6.6.6,0,0,0,.08.08A.38.38,0,0,0,119.21,80.71Z"/><path class="cls-2" d="M119.57,82.23a.48.48,0,0,0,.49-.12,1.9,1.9,0,0,0,.65-.7.38.38,0,0,0,0-.25c0-.11-.14-.17-.31-.19s-.28.12-.41.16a.66.66,0,0,0-.26.11c-.05.05,0,.14-.09.2s-.11,0-.15.06a.68.68,0,0,0,0,.65A.18.18,0,0,0,119.57,82.23Z"/><path class="cls-2" d="M120.74,79.06c.12-.06.14-.21.19-.32a.11.11,0,0,0-.06-.16l0,0a.7.7,0,0,0-.28-.31c-.09-.06-.2-.06-.24,0a.77.77,0,0,0-.12.64C120.23,79,120.59,79.15,120.74,79.06Z"/><path class="cls-2" d="M121.73,81.37a.68.68,0,0,0,.15.35.21.21,0,0,0,.12.07.45.45,0,0,0,.35-.34,5.3,5.3,0,0,1,.1-.55,1.33,1.33,0,0,0,.1-.24.06.06,0,0,0,0,0c0-.23-.2-.42-.38-.5a.19.19,0,0,0-.24.1s0,0,0,.06a.51.51,0,0,0-.25.27.26.26,0,0,0,.14.41l0,.06A1,1,0,0,0,121.73,81.37Z"/><path class="cls-2" d="M122,78.26c.11,0,.25,0,.32-.07s.45-.5.19-.62c-.06,0-.12,0-.17-.06a.5.5,0,0,0-.36-.09c-.08,0-.15,0-.16.13s0,.24-.06.36a.76.76,0,0,0,.06.25A.15.15,0,0,0,122,78.26Z"/><path class="cls-2" d="M123.58,81.6c.06,0,.15,0,.18-.08a1.08,1.08,0,0,0,.16-.3.31.31,0,0,0,0-.28c-.08-.12-.22-.11-.32-.15a1.33,1.33,0,0,0-.4,0c-.09,0-.15,0-.11.14a.81.81,0,0,1,0,.15.6.6,0,0,0,.09.43C123.24,81.67,123.4,81.65,123.58,81.6Z"/><path class="cls-2" d="M124,80.5a.74.74,0,0,0,.44-.27l.13-.18a.3.3,0,0,0,0-.36c-.06-.07-.25-.06-.23,0a.37.37,0,0,0-.54.07.73.73,0,0,0,.06.7A.23.23,0,0,0,124,80.5Z"/><path class="cls-2" d="M125.6,80.68c0-.05,0-.09,0-.14s0-.11,0-.14a1.86,1.86,0,0,0-.21-.28.31.31,0,0,0-.12-.05,1.47,1.47,0,0,1-.24.13.62.62,0,0,0-.42.34c0,.08,0,.16,0,.19a1.81,1.81,0,0,0,.46.17,1,1,0,0,0,.29,0A.23.23,0,0,0,125.6,80.68Z"/><path class="cls-2" d="M125,78.09c-.32,0-.8-.46-.88,0a.8.8,0,0,0,.07.55.24.24,0,0,0,.1.1.83.83,0,0,0,.54,0,.42.42,0,0,0,.3-.18A1,1,0,0,0,125,78.09Z"/><path class="cls-2" d="M125,77c0-.08-.17-.34-.28-.24a1.52,1.52,0,0,0-.42.49.16.16,0,0,0,.07.2l.24.1a.2.2,0,0,0,.23,0l.19-.17A1,1,0,0,0,125,77Z"/><path class="cls-2" d="M126.31,81.4a.29.29,0,0,0,.33,0,.68.68,0,0,0,.14-.25c0-.08.14-.15.17-.23s0,0,0,0a1.14,1.14,0,0,0-.09-.3c0-.1-.11-.11-.2,0a.72.72,0,0,1-.21.12C126.18,80.86,126,81.13,126.31,81.4Z"/><path class="cls-2" d="M126.8,79.29s0-.06.08-.06a.21.21,0,0,0,.17-.3l-.08-.17a.15.15,0,0,0-.18-.07l-.4.17a.14.14,0,0,0,0,.25l.2.17A.16.16,0,0,0,126.8,79.29Z"/><path class="cls-2" d="M132.14,77.56a.16.16,0,0,0,.24,0s.05,0,.08,0,.21-.13.17-.3l-.08-.17a.14.14,0,0,0-.18-.07l-.4.17a.15.15,0,0,0,0,.25Z"/><path class="cls-2" d="M126.61,76.5a1.25,1.25,0,0,0-.22.16,2,2,0,0,0-.2.31.2.2,0,0,0,0,.26c.09.1.18.21.28.31a.07.07,0,0,0,.05,0s0,0,.07,0c.38-.13.39-.25.38-.61,0,0,0,0,0-.06s-.16-.27-.25-.4A.15.15,0,0,0,126.61,76.5Z"/><path class="cls-2" d="M125.16,69.24s-.16,0-.23-.07a.56.56,0,0,0-.18-.07,1.37,1.37,0,0,0-.28.05.21.21,0,0,0-.14.22.33.33,0,0,1,0,.17c0,.17.11.43.32.33l.4-.18a.11.11,0,0,0,.06-.07C125.18,69.5,125.3,69.36,125.16,69.24Z"/><path class="cls-2" d="M124.58,66.12a.18.18,0,0,0,0-.23.21.21,0,0,0-.3,0,.56.56,0,0,0-.13.57c0,.06.07.19.15.2s.2-.29.24-.39Z"/><path class="cls-2" d="M136.87,69.46a.7.7,0,0,0,.55-.06.69.69,0,0,0,.16-.18l-.06-.08-.11-.19s0,0,0-.08a.31.31,0,0,0-.22-.25,2,2,0,0,0-.35-.11.12.12,0,0,0-.17.12c0,.11,0,.23,0,.34A.43.43,0,0,0,136.87,69.46Z"/><path class="cls-2" d="M137.66,60.15a.66.66,0,0,0,.55,0c.22-.14.1-.26,0-.43a.16.16,0,0,0-.09-.07,1.92,1.92,0,0,0-.76.06A.41.41,0,0,0,137.66,60.15Z"/><path class="cls-2" d="M138.57,71.42a.9.9,0,0,0,.41-.54c0-.17,0-.34-.2-.35-.42,0-.72.15-.65.62a.44.44,0,0,0,.1.27A.28.28,0,0,0,138.57,71.42Z"/><path class="cls-2" d="M139,69.48a.39.39,0,0,0,.25-.59,3.19,3.19,0,0,0-.33-.31s-.08-.08-.08-.12c0-.28-.29-.41-.35-.1a3.12,3.12,0,0,0,0,.61.41.41,0,0,0,.08.37A.69.69,0,0,0,139,69.48Z"/><path class="cls-2" d="M139.57,71.88l.28,0h0l.17,0a.38.38,0,0,0,.21-.46.49.49,0,0,0-.31-.27c-.23-.09-.37-.11-.44.17a.81.81,0,0,0,0,.55C139.46,71.83,139.47,71.9,139.57,71.88Z"/><path class="cls-2" d="M140.77,67.45c0-.09-.07-.11-.16-.1s-.28.15-.44.09,0,0-.06,0a.31.31,0,0,0-.19.29,3.62,3.62,0,0,1-.07.39c.07.27.16.29.32.2a1.6,1.6,0,0,0,.59-.79A.34.34,0,0,0,140.77,67.45Z"/><path class="cls-2" d="M141.72,62.87h0c-.21,0-.88-.38-.91,0,0,.14,0,.29,0,.43a.24.24,0,0,0,.22.26.71.71,0,0,0,.61-.19A1.13,1.13,0,0,0,141.72,62.87Z"/><path class="cls-2" d="M140.39,61.06c-.09,0-.22,0-.23.17s0,.28,0,.42a.13.13,0,0,0,0,.09c.07.13.16.13.28,0a2.3,2.3,0,0,0,.44-.63.68.68,0,0,0,.07-.2s0-.09,0-.09a.65.65,0,0,0-.2,0c-.08,0-.15.09-.23.13Z"/><path class="cls-2" d="M139.37,60.45a1,1,0,0,0,.54-.26c.11-.11.19-.24.3-.35a.25.25,0,0,0,.07-.31s0,0,0,0a.05.05,0,0,0,0,0c-.14.2-.25.14-.47.14l-.36,0c-.08,0-.14,0-.13.11s0,.25-.05.37S139.24,60.47,139.37,60.45Z"/><path class="cls-2" d="M140,65.18a1.77,1.77,0,0,1,0,.23.37.37,0,0,0,.43.38s.06,0,.08-.05.06-.3.06-.45a.5.5,0,0,0-.1-.14,1.3,1.3,0,0,0-.26-.14C140.08,65,140,65,140,65.18Z"/><path class="cls-2" d="M139,62.2c-.09,0-.13,0-.13.1a1.34,1.34,0,0,0,0,.4.27.27,0,0,0,.11.19.51.51,0,0,0,.43.08.27.27,0,0,0,.21-.26c0-.06-.17-.25-.18-.19,0-.12-.06-.16-.16-.2A2.36,2.36,0,0,0,139,62.2Z"/><path class="cls-2" d="M138.1,61.37a1.51,1.51,0,0,0,0,.28.16.16,0,0,0,.22.18,1,1,0,0,0,.51-.36.77.77,0,0,0,.07-.16A1.66,1.66,0,0,0,139,61a.16.16,0,0,0-.19,0C138.4,61.06,138.17,61,138.1,61.37Z"/><path class="cls-2" d="M139.66,64.63a.56.56,0,0,1,0-.18l-.12-.12s0,0-.06,0l-.49-.06c-.09,0-.12,0-.12.13s0,.2,0,.3a.88.88,0,0,0,0,.23c0,.1.08.17.19.15a2.46,2.46,0,0,0,.46-.08A.29.29,0,0,0,139.66,64.63Z"/><path class="cls-2" d="M138.35,66.5a.14.14,0,0,0-.15.15c0,.11,0,.23,0,.34a.28.28,0,0,0,.18.29,2.12,2.12,0,0,0,.44,0,.48.48,0,0,0,.27-.08,1.09,1.09,0,0,0,.21-.51.29.29,0,0,0-.08-.08.49.49,0,0,0-.15-.09.69.69,0,0,0-.2,0Z"/><path class="cls-2" d="M137.58,63.24c-.1-.05-.17,0-.19.08s0,.15,0,.23c-.06.38.15.51.52.42.06,0,.12-.08.17-.13a.38.38,0,0,0,0-.45s-.22-.06-.28-.08Z"/><path class="cls-2" d="M137.75,66.71a1.24,1.24,0,0,0,.37-.5c0-.08.1-.4,0-.45s-.06,0-.11,0c-.22.16-.48.13-.7.29a.14.14,0,0,0,0,.11c0,.1,0,.2,0,.3a.66.66,0,0,0,0,.2.2.2,0,0,0,.27.14A1,1,0,0,0,137.75,66.71Z"/><path class="cls-2" d="M136,61.74c-.06,0-.11-.09-.2,0s0,.14,0,.2a.55.55,0,0,0,0,.31c.07.26.14.29.36.35s.29.13.44.09c.58-.16,0-.54-.19-.72A.94.94,0,0,0,136,61.74Z"/><path class="cls-2" d="M136.05,65.87a1.65,1.65,0,0,0,.29-.3,1.69,1.69,0,0,0,.17-.29.81.81,0,0,0,.07-.22c0-.12-.06-.13-.15-.11a1.89,1.89,0,0,0-.6.26c-.07.06-.05.13-.05.21a1.82,1.82,0,0,0,0,.33C135.79,65.92,135.91,66,136.05,65.87Z"/><path class="cls-2" d="M135.18,64.12c0,.2.11.3.21.3a1.94,1.94,0,0,0,.33-.07c.11,0,.11-.13.15-.2a.25.25,0,0,0-.06-.35,1.69,1.69,0,0,0-.36-.17c-.2-.05-.2,0-.23.17,0,0,0,0,0,0A2,2,0,0,0,135.18,64.12Z"/><path class="cls-2" d="M135,67.77a1,1,0,0,0,.58-.09c.11-.06.25-.09.25-.25s0,0,0-.05a.36.36,0,0,0,0-.4l0,0a.84.84,0,0,0-.2,0c-.27,0-.54,0-.8,0-.09,0-.12.06-.13.14s0,.23,0,.35S134.74,67.76,135,67.77Z"/><path class="cls-2" d="M133.91,63.49h.57c.09,0,.21-.06.13-.2s0,0,0-.06,0-.21-.05-.26a.72.72,0,0,0-.44-.26.24.24,0,0,0-.22.08.75.75,0,0,0-.18.46C133.73,63.35,133.81,63.49,133.91,63.49Z"/><path class="cls-2" d="M134.32,66a.42.42,0,0,0,.15,0,.89.89,0,0,0,.08-.32c0-.09-.07-.19-.07-.28a.55.55,0,0,0-.3-.42.1.1,0,0,0-.16,0,.68.68,0,0,0-.12.22,3.41,3.41,0,0,0-.08.37l.41.35A.15.15,0,0,0,134.32,66Z"/><path class="cls-2" d="M134.38,68.66a.71.71,0,0,1,.08-.15.4.4,0,0,0,.06-.31h-.34a.21.21,0,0,0-.2.15c0,.1-.07.2-.11.3a.48.48,0,0,0,0,.39c0,.08.12.11.18,0S134.33,68.85,134.38,68.66Z"/><path class="cls-2" d="M134.58,71.28c.1,0,.29,0,.31-.1a1.17,1.17,0,0,0,.08-.45.42.42,0,0,0-.07-.23.5.5,0,0,0-.26-.17c-.1,0-.08.12-.12.18h0c0,.17-.15.32-.1.51A.31.31,0,0,0,134.58,71.28Z"/><path class="cls-2" d="M132.25,62.43l.05-.07c.07-.08.19-.15.25-.25s0-.13,0-.29,0,0,0-.06,0,0,0,0l-.29-.08c-.17-.06-.16.26-.18.37s0,.21,0,.32,0,.15.07.18A.18.18,0,0,0,132.25,62.43Z"/><path class="cls-2" d="M132.16,64.13c.05.08.08.2.15.26s.37,0,.45-.15l.19-.32c0-.06.09-.2,0-.27s-.2-.11-.18,0c0-.19-.45-.06-.53.05a1.31,1.31,0,0,1-.2.21c-.07.07,0,.1,0,.15Z"/><path class="cls-2" d="M132.5,67.46a1.75,1.75,0,0,1-.11.24.6.6,0,0,0-.06.37.19.19,0,0,0,.22.18c.12-.09.25-.17.37-.27s.15-.13.16-.21a1,1,0,0,1,.19-.38.12.12,0,0,0,0-.14.17.17,0,0,0-.16,0,1.43,1.43,0,0,0-.27.15l-.18.05S132.51,67.43,132.5,67.46Z"/><path class="cls-2" d="M131.69,68.31a3.35,3.35,0,0,0-.37-.2.18.18,0,0,0-.1.06c-.05.06-.07.13-.12.19a.63.63,0,0,0-.11.46c0,.16.42.37.57.28s.17-.06.25-.18a.5.5,0,0,0,.05-.28A.41.41,0,0,0,131.69,68.31Z"/><path class="cls-2" d="M133.46,75.4a1,1,0,0,0-.07.67.26.26,0,0,0,.39.14c.08-.07.15-.15.23-.23a.52.52,0,0,0,.11-.36c0-.09-.16-.21-.25-.23l-.18-.07A.22.22,0,0,0,133.46,75.4Z"/><path class="cls-2" d="M133.66,74.21a.44.44,0,0,0,0-.37c0-.25-.1-.5-.15-.75a.36.36,0,0,0-.26-.27c0,.12-.09.24-.13.36a.68.68,0,0,0,.05.54c.11.19.24.36.37.56Z"/><path class="cls-2" d="M133.43,71.66a1,1,0,0,1-.09-.21A.61.61,0,0,0,133,71c-.09,0-.13,0-.16.09a2.83,2.83,0,0,0-.11.31c0,.1,0,.2-.06.3a.59.59,0,0,0,.14.21.79.79,0,0,0,.32.18.72.72,0,0,0,.32,0A.65.65,0,0,0,133.43,71.66Z"/><path class="cls-2" d="M133.53,69.47c-.17-.22-.54-.22-.78-.24a.14.14,0,0,0-.15.17,1.17,1.17,0,0,1,0,.32.28.28,0,0,0,.25.31C133.14,70.05,133.82,69.84,133.53,69.47Z"/><path class="cls-2" d="M131.76,65.53a.81.81,0,0,0-.2.53.38.38,0,0,0,.11.23,1.25,1.25,0,0,0,.34.12c.08,0,.18.06.26,0a.49.49,0,0,0,.09-.42,1,1,0,0,1-.08-.14.58.58,0,0,0-.39-.34A.15.15,0,0,0,131.76,65.53Z"/><path class="cls-2" d="M131.1,64.5a.3.3,0,0,0,.34-.07.26.26,0,0,0,.09-.23c0-.08,0-.16-.06-.21s0,0,0-.06,0-.17-.07-.25-.14-.09-.23-.13a.84.84,0,0,0,0,.12l-.06.16c0,.06-.09.11-.1.17a1.7,1.7,0,0,0,0,.39S131.05,64.47,131.1,64.5Z"/><path class="cls-2" d="M130.49,63.48a.21.21,0,0,1-.16-.11.23.23,0,0,0-.12-.06s-.05,0-.06.07a1,1,0,0,0,0,.64.08.08,0,0,0,0,0c.06.17.15.2.27,0a2.2,2.2,0,0,0,.21-.32A.23.23,0,0,0,130.49,63.48Z"/><path class="cls-2" d="M130.65,67.07l0,.1a.56.56,0,0,0,.4.2.13.13,0,0,0,.17-.12c0-.13.1-.26,0-.4s0-.12,0-.18a.51.51,0,0,0-.23-.29c-.08,0-.12-.06-.16,0l-.07.11A.62.62,0,0,0,130.65,67.07Z"/><path class="cls-2" d="M130.19,65.42a.72.72,0,0,0-.34.37c0,.15-.14.29-.07.44a.1.1,0,0,0,.14.11.4.4,0,0,0,.21-.12c.13-.19.24-.39.35-.59,0,0,0-.16,0-.18A.22.22,0,0,0,130.19,65.42Z"/><path class="cls-2" d="M129.35,63.5l-.3-.18c-.06,0-.1,0-.11.06s0,.13,0,.19,0,.23,0,.34,0,.06.06.08a2.1,2.1,0,0,0,.39.21c.21.07.31,0,.26-.25s-.05-.22-.08-.33a.16.16,0,0,0-.07-.07Z"/><path class="cls-2" d="M130.65,67.82a.65.65,0,0,0-.23-.06,4.37,4.37,0,0,0-.52.12.56.56,0,0,0-.29.44,3.11,3.11,0,0,0,0,.32c.12,0,.22,0,.31,0a.91.91,0,0,1,.22-.11.66.66,0,0,0,.35-.4A2.61,2.61,0,0,0,130.65,67.82Z"/><path class="cls-2" d="M130.06,69.33a.14.14,0,0,0-.16.14,1.64,1.64,0,0,0,0,.38c0,.18.05.26.26.28a1,1,0,0,0,.48-.07c.1,0,.19-.27.17-.36s-.17-.28-.25-.29Z"/><path class="cls-2" d="M128.53,65a.31.31,0,0,0-.4-.11s0,0,0,0-.08,0-.09.07-.07.21-.11.32,0,.16,0,.23a1.26,1.26,0,0,1,.24.22c.06.08.09.07.14,0s.13.05.16,0,.08-.34.13-.51A.18.18,0,0,0,128.53,65Z"/><path class="cls-2" d="M128.33,67.38a.83.83,0,0,0-.31-.16.12.12,0,0,0-.12,0,.7.7,0,0,0-.22.49.28.28,0,0,0,.13.24c.16.14.36.1.54.17a.17.17,0,0,0,.17,0,.46.46,0,0,0,.09-.39A2,2,0,0,0,128.33,67.38Z"/><path class="cls-2" d="M129.52,73.14c-.12-.09-.18-.08-.22.06a2.74,2.74,0,0,0-.05.28c0,.11,0,.22,0,.31a.91.91,0,0,0,.06.11l.39.33a.2.2,0,0,0,.26,0c.07-.06.14-.14.06-.25s0,0,0-.07A1,1,0,0,0,129.52,73.14Z"/><path class="cls-2" d="M129.13,71a2.65,2.65,0,0,0-.29-.29.22.22,0,0,0-.14,0,.31.31,0,0,0,0,.11s0,.1,0,.13a.42.42,0,0,0-.07.39.33.33,0,0,0,.16.24,2,2,0,0,1,.22.19s.08.06.12.06.21-.14.23-.22A.85.85,0,0,0,129.13,71Z"/><path class="cls-2" d="M129.05,69.57c0-.17,0-.22-.19-.24s-.25,0-.28-.19-.1-.2-.21-.19-.07,0-.07.08,0,.42,0,.64c0,.07,0,.17.07.2a.35.35,0,0,0,.39,0C128.9,69.83,129.09,69.81,129.05,69.57Z"/><path class="cls-2" d="M125.75,64.7a2.55,2.55,0,0,0-.14.35c-.06.25.08.16.18.28s.06.11.1.15.34-.21.38-.33a.94.94,0,0,0,.06-.28.4.4,0,0,0,0-.19s-.16-.11-.16-.08C126.13,64.32,125.8,64.57,125.75,64.7Z"/><path class="cls-2" d="M127.7,74c-.12,0-.19,0-.21.1a3,3,0,0,0-.06.51.28.28,0,0,0,.19.27.69.69,0,0,0,.35,0,.27.27,0,0,0,.16-.08C128.49,74.44,128,74.15,127.7,74Z"/><path class="cls-2" d="M126.92,68.67a.8.8,0,0,1-.13-.13s0-.1,0-.11l-.46-.25s-.11,0-.12.08,0,.32,0,.5a.5.5,0,0,0,.07.08,1.06,1.06,0,0,0,.55.25A.34.34,0,0,0,127,69C127.09,68.94,127,68.71,126.92,68.67Z"/><path class="cls-2" d="M125.57,67.54c.05.19.19.28.33.22a.57.57,0,0,0,.26-.27l.15-.34a.55.55,0,0,0,0-.22c0-.1-.06-.11-.15-.08a1.82,1.82,0,0,0-.47.31A.45.45,0,0,0,125.57,67.54Z"/><path class="cls-2" d="M127,73.2a3.94,3.94,0,0,0,.48.18c.08,0,.16,0,.21,0s.14-.17.12-.22-.06-.4-.28-.49l0,0c0-.15-.15-.21-.26-.27s-.29-.12-.34.15a.74.74,0,0,0,0,.51C126.93,73.08,127,73.17,127,73.2Z"/><path class="cls-2" d="M130.7,76.67c.06-.07.15-.17.13-.22s-.07-.4-.28-.49t0,0c0-.15-.15-.21-.26-.27s-.28-.12-.34.15a.8.8,0,0,0,0,.51c0,.06.07.16.14.19a3.94,3.94,0,0,0,.48.18C130.57,76.71,130.65,76.73,130.7,76.67Z"/><path class="cls-2" d="M128.13,76.14a1.48,1.48,0,0,0-.33.28c-.07.08-.14.22-.11.3a2.24,2.24,0,0,0,.26.54c0,.06.1,0,.11,0s.15,0,.17,0a.84.84,0,0,0,.11-.21c0-.1,0-.2,0-.29a.45.45,0,0,0,.05-.19c0-.12-.09-.25-.13-.37A.1.1,0,0,0,128.13,76.14Z"/><path class="cls-2" d="M128.67,80.46s.61.42.63.33a1.79,1.79,0,0,0,.09-.46.15.15,0,0,0,.08-.11,1.32,1.32,0,0,0-.23-.62.16.16,0,0,0-.25,0l-.12,0a.62.62,0,0,0-.44.29.21.21,0,0,0,0,.23A2.7,2.7,0,0,0,128.67,80.46Z"/><path class="cls-2" d="M129.93,78s.07-.07.1-.1l-.19-.12s-.05,0-.07,0l-.34.07a1.57,1.57,0,0,1-.23,0,.56.56,0,0,0-.5.22,3.18,3.18,0,0,1-.16.32c0,.07-.06.14,0,.18a.33.33,0,0,0,.24.09,1.62,1.62,0,0,0,.41-.17Z"/><path class="cls-2" d="M127,65.09c-.07,0-.19,0-.17.11s0,.22,0,.32a.61.61,0,0,0,0,.3,3.27,3.27,0,0,0,.28.37c.1.12.15.12.26,0s0-.48,0-.6S127.22,65.15,127,65.09Z"/><path class="cls-2" d="M132.07,79a.49.49,0,0,0-.29-.47c-.09,0-.27,0-.29,0a2.39,2.39,0,0,0-.09.45c0,.16,0,.31,0,.47C131.77,79.64,132,79.37,132.07,79Z"/><path class="cls-2" d="M131.18,74.66a.45.45,0,0,0,.23-.08.86.86,0,0,0,.43-.57,2.21,2.21,0,0,1,0-.25.38.38,0,0,0-.13,0h-.42c-.15,0-.2.08-.23.23a1,1,0,0,1-.06.23c-.07.13,0,.26,0,.39A.16.16,0,0,0,131.18,74.66Z"/><path class="cls-2" d="M132.4,75.51c0-.16-.2-.29-.3-.42a.26.26,0,0,0-.3,0,.58.58,0,0,0-.12.58.29.29,0,0,0,.4.19A.53.53,0,0,0,132.4,75.51Z"/><path class="cls-2" d="M131.7,72s0-.06,0-.07a.26.26,0,0,0-.11-.12,2,2,0,0,0-.26-.07.68.68,0,0,0-.42,0,2.48,2.48,0,0,0-.15.4c0,.11,0,.37.08.44a.3.3,0,0,0,.21,0c.07,0,.48-.12.47-.24S131.68,72.13,131.7,72Z"/><path class="cls-2" d="M131.94,71.25s0-.42,0-.44a.17.17,0,0,0,0-.07.1.1,0,0,0-.05,0,1.31,1.31,0,0,0-.59-.21c-.11,0-.12,0-.09.12a.33.33,0,0,1,0,.1.88.88,0,0,0,0,.16c0,.25.23.49.44.46A2,2,0,0,0,131.94,71.25Z"/><path class="cls-2" d="M134.19,78.62c.21-.21.4-.43.6-.65a.23.23,0,0,0,.06-.26s0,0,0-.06-.15-.09-.23-.09-.2,0-.3,0-.31.23-.46.35-.06.07,0,.1-.06.31.06.48S134,78.76,134.19,78.62Z"/><path class="cls-2" d="M135.27,77.59a.27.27,0,0,0,.16,0c0-.06.14-.09.19-.15a.1.1,0,0,0,0-.11,2.33,2.33,0,0,0-.38-.67.57.57,0,0,0-.25-.11s-.07.09-.1.15a1.09,1.09,0,0,0-.08.15C134.61,77.23,134.85,77.51,135.27,77.59Z"/><path class="cls-2" d="M135.59,75.84a.3.3,0,0,0,.34-.23c0-.07,0-.14,0-.22a1,1,0,0,0-.2-.29,1.32,1.32,0,0,0-.35-.23s-.12,0-.13,0a.84.84,0,0,0-.07.74.12.12,0,0,0,.07.07A2.48,2.48,0,0,0,135.59,75.84Z"/><path class="cls-2" d="M136,73l.08-.15a.08.08,0,0,0,0-.05l0,0a.6.6,0,0,0-.53-.09l-.36.11c-.09,0-.23,0-.25.11a1.07,1.07,0,0,0-.1.66c0,.11.08.17.19.14a1.69,1.69,0,0,0,.34-.11,1.5,1.5,0,0,0,.48-.34A1,1,0,0,0,136,73Z"/><path class="cls-2" d="M137.15,74.73a.93.93,0,0,0-.43-.64c-.19.14-.17.31-.16.51s.29.41.47.32A.22.22,0,0,0,137.15,74.73Z"/><path class="cls-2" d="M135.89,68.61c0-.1.07-.19-.07-.26s-.13.05-.17.13-.15.11-.22.17-.19.14-.2.22a2.75,2.75,0,0,0,.05.57c0,.08.17.1.22,0a3,3,0,0,0,.22-.39C135.79,68.94,135.82,68.77,135.89,68.61Z"/><path class="cls-2" d="M136.65,71.08c.15,0,.31,0,.47,0a1.64,1.64,0,0,0,.26-.16c.14-.13.13-.17,0-.34s0-.11-.08-.17,0-.08-.06-.08l-.72-.17c-.07,0-.11.06-.1.15a.86.86,0,0,1,0,.16c0,.08,0,.16,0,.24A.3.3,0,0,0,136.65,71.08Z"/><path class="cls-2" d="M137.64,71.94c0,.11-.06.21-.1.32a.37.37,0,0,0,.05.37,3.11,3.11,0,0,0,.51.36s.13,0,.13-.07c0-.17,0-.34,0-.51a1,1,0,0,0-.38-.53C137.75,71.81,137.67,71.84,137.64,71.94Z"/><path class="cls-2" d="M20.53,75.34a1.74,1.74,0,0,0,1.81-1.44c.13-.7-.05-1.27-.67-1.39s-.94.17-1.54,1.3c-1.08,2-2,2.71-3.62,2.41-2.08-.39-2.46-2.15-2.15-3.76.36-1.89,1.26-3.18,3.05-3l.13,2.21a1.26,1.26,0,0,0-1.42,1.1c-.12.6.06,1.12.66,1.23s1-.33,1.51-1.35c1-1.82,1.82-2.68,3.59-2.35,2,.38,2.43,2.14,2.06,4.1-.35,1.81-1.17,2.92-2.92,3.07Z"/><path class="cls-2" d="M20.73,66.34c-2.95-1.1-4-3.27-3-5.87S20.9,56.91,23.85,58s4,3.28,3,5.88S23.67,67.44,20.73,66.34Zm.82-2.09c1.73.65,3,.37,3.56-1s-.29-2.47-2-3.12-3.06-.36-3.57,1S19.81,63.6,21.55,64.25Z"/><path class="cls-2" d="M25.57,45.39l5.36,3.2c2.17,1.3,1.93,3.23.86,5S29.13,56.52,27,55.22L21.61,52l1.11-1.85,4.83,2.89c1.15.68,2,.79,2.7-.37s.2-1.88-1-2.58l-4.82-2.88Z"/><path class="cls-2" d="M36.85,46l-5.72-4.83-1.65,2L28.05,42l4.7-5.58,1.43,1.21-1.68,2,5.73,4.83Z"/><path class="cls-2" d="M42,40.31l-6-7.15,1.65-1.39,2.37,2.8,2.75-2.32-2.37-2.81L42,28.05l6,7.14-1.65,1.4L43.9,33.68,41.16,36l2.46,2.91Z"/><path class="cls-2" d="M56.76,29.79,51.33,33l-4.72-8.1L52,21.7l1,1.62-3.56,2.07L50.36,27l3.14-1.82.9,1.55-3.13,1.83,1,1.69,3.56-2.08Z"/><path class="cls-2" d="M64.35,24.5,61,25.75l.06,2.06-2.11.8-.12-10,2.5-.93,6.49,7.57-2.17.81ZM61,23.85,63.12,23l-.72-.85A18.19,18.19,0,0,1,60.77,20l-.06,0a23.77,23.77,0,0,1,.22,2.75Z"/><path class="cls-2" d="M71.25,21.48a1.74,1.74,0,0,0,2,1.15c.71-.14,1.17-.52,1-1.14s-.5-.82-1.77-.95c-2.24-.26-3.27-.88-3.58-2.46C68.53,16,70,15,71.63,14.68c1.89-.37,3.42,0,4,1.71l-2,.94A1.28,1.28,0,0,0,72,16.42c-.59.12-1,.48-.89,1.07s.67.79,1.81.91c2.06.22,3.17.69,3.51,2.45.4,2-1.08,3-3,3.43s-3.15,0-3.94-1.56Z"/><path class="cls-2" d="M81.89,23l-.32-7.49L79,15.61l-.08-1.88,7.3-.31.08,1.88-2.61.11L84,22.9Z"/><path class="cls-2" d="M100.54,22.65l-3.47-.73L96,23.7l-2.21-.46L99,14.76l2.62.55,1.43,9.87-2.28-.48ZM98,20.29l2.26.47-.16-1.11a18.67,18.67,0,0,1-.17-2.76l-.06,0a23.84,23.84,0,0,1-1.29,2.45Z"/><path class="cls-2" d="M108,23.81a1.74,1.74,0,0,0,1.08,2c.66.27,1.26.19,1.49-.4s0-.95-1-1.76c-1.75-1.42-2.28-2.5-1.69-4,.77-2,2.57-2,4.09-1.42,1.79.7,2.89,1.83,2.42,3.56l-2.2-.28a1.28,1.28,0,0,0-.82-1.61c-.57-.22-1.11-.14-1.33.42s.14,1,1,1.75c1.61,1.29,2.3,2.28,1.64,4-.74,1.89-2.55,2-4.41,1.26-1.71-.68-2.65-1.69-2.48-3.44Z"/><path class="cls-2" d="M121.28,22.94l-4.5,8.21-1.9-1,4.5-8.21Z"/><path class="cls-2" d="M125.82,34.88,123,32.76l-1.71,1.17-1.81-1.35,8.32-5.48,2.14,1.6-2.86,9.54-1.86-1.39Zm-1.28-3.2,1.84,1.38L126.7,32a17.57,17.57,0,0,1,1-2.58l0,0a23.22,23.22,0,0,1-2.2,1.67Z"/><path class="cls-2" d="M136.36,40.9a9.25,9.25,0,0,1-.4,1.42l0,0s.55-.57,1.43-1.38l2.81-2.57L141.7,40l-6.9,6.34-1.34-1.45,1-5.45a9.39,9.39,0,0,1,.42-1.6l0,0s-.5.58-1.49,1.5l-2.75,2.51-1.46-1.59,6.9-6.33,1.38,1.5Z"/><path class="cls-2" d="M71.88,152.13a1.75,1.75,0,0,0,1.47,1.79c.7.12,1.27-.07,1.38-.69s-.18-.94-1.32-1.52c-2-1.05-2.73-2-2.46-3.58.36-2.08,2.11-2.49,3.73-2.21,1.89.33,3.19,1.22,3.07,3l-2.21.16a1.27,1.27,0,0,0-1.12-1.41c-.6-.1-1.11.08-1.22.68s.35,1,1.37,1.5c1.84.95,2.71,1.78,2.4,3.55-.35,2-2.11,2.45-4.06,2.11s-2.94-1.12-3.12-2.86Z"/><path class="cls-2" d="M86.92,154.47H83.38l-.68,1.95H80.45l3.4-9.36h2.67l3.4,9.37H87.6ZM84,152.66h2.31l-.38-1a18,18,0,0,1-.73-2.67h-.06a23.53,23.53,0,0,1-.77,2.65Z"/><path class="cls-2" d="M95,146.3l1.21,7.39,3.6-.59.31,1.85-5.74.94-1.52-9.24Z"/><path class="cls-2" d="M109.17,150.27l-3.37,1.13v2.07l-2.14.71.24-10,2.53-.84,6.22,7.8-2.2.73Zm-3.36-.77,2.18-.73-.69-.87a17.82,17.82,0,0,1-1.54-2.31l-.06,0a25,25,0,0,1,.11,2.77Z"/><path class="cls-2" d="M116.8,149.24l-4.53-8.2,3-1.67c2.27-1.25,4.62-1.08,6.21,1.8,1.68,3,.55,5.17-1.8,6.47Zm1.83-3.1c1.46-.81,2-1.9,1-3.76s-2.26-2-3.61-1.3l-.93.52,2.76,5Z"/><path class="cls-2" d="M126.89,139.47a1.75,1.75,0,0,0,2.31.09c.56-.45.79-1,.4-1.5s-.82-.49-2,0c-2.1.81-3.3.74-4.31-.52-1.32-1.65-.47-3.23.81-4.25,1.5-1.21,3-1.59,4.29-.32L127,134.71a1.27,1.27,0,0,0-1.8-.08c-.47.37-.67.89-.29,1.36s1,.39,2,0c1.93-.75,3.13-.86,4.26.54,1.27,1.59.45,3.21-1.11,4.46s-2.78,1.45-4.21.44Z"/></svg>