<svg id="Layer_1" data-name="Layer 1" xmlns="http://www.w3.org/2000/svg" viewBox="0 0 114 114"><defs><style>.cls-1{fill:#ff6f4a;}.cls-2{fill:#2e5b66;}</style></defs><title>Artboard 22</title><circle class="cls-1" cx="57" cy="57" r="56.98"/><path class="cls-2" d="M29.2,92.68a1.27,1.27,0,0,0,.43,1.61c.43.29.86.33,1.12-.05s.16-.66-.42-1.39c-1-1.28-1.2-2.12-.55-3.08.86-1.26,2.13-1,3.1-.34,1.15.78,1.74,1.75,1.13,2.89l-1.5-.55a.91.91,0,0,0-.32-1.26c-.36-.25-.75-.28-1,.08s-.06.75.46,1.39c.92,1.17,1.25,2,.52,3s-2.12,1-3.3.18-1.59-1.61-1.2-2.81Z"/><path class="cls-2" d="M42.71,94.64,41,98.78c-.71,1.68-2.11,1.71-3.5,1.13s-2.34-1.62-1.63-3.29l1.74-4.15,1.44.61-1.58,3.74c-.37.89-.36,1.51.54,1.89s1.36,0,1.74-.94L41.29,94Z"/><path class="cls-2" d="M48,101.28l-.65-1.68A5.61,5.61,0,0,1,47,98.5h0a7.63,7.63,0,0,1-.13,1.14l-.51,3-1.54-.27L46,95.66l1.56.27.87,2.46a4.64,4.64,0,0,1,.3,1.06h0a5.8,5.8,0,0,1,.64-.88l1.65-2,1.54.26-1.15,6.65-1.52-.26.5-3a10,10,0,0,1,.26-1.12h0a6,6,0,0,1-.67.92l-1.19,1.37Z"/><path class="cls-2" d="M59.47,101.93l-1-1.48a5.43,5.43,0,0,1-.6-1h0a8.38,8.38,0,0,1,.15,1.14l.23,3-1.56.12L56.1,97l1.58-.12L59.12,99a5,5,0,0,1,.56,1h0a5.28,5.28,0,0,1,.4-1l1.11-2.37,1.56-.12.51,6.74-1.55.12-.22-3a8.27,8.27,0,0,1,0-1.15h0a5.16,5.16,0,0,1-.43,1.06l-.82,1.62Z"/><path class="cls-2" d="M72.59,100.82l-4.34,1.31-2-6.47,4.34-1.31.39,1.3-2.85.86.39,1.28L71.08,97l.37,1.24L69,99l.41,1.36,2.84-.86Z"/><path class="cls-2" d="M80.19,97.3a1.12,1.12,0,0,1-.64-.45l-.7-.77c-.39-.45-.67-.41-1.12-.17l-.59.31,1.12,2.11-1.38.73-3.17-6,2.35-1.25c1.34-.7,2.43-.66,3.14.68a1.56,1.56,0,0,1-.51,2.19v0a1.21,1.21,0,0,1,1.45.35l.9,1a1.49,1.49,0,0,0,.67.46Zm-3.66-2.21.89-.47c.54-.29.73-.67.43-1.23a.82.82,0,0,0-1.26-.33l-.88.47Z"/><path class="cls-2" d="M92.32,87.62,89.1,90.87l-.76-.75c.77-2.4.75-3.29.22-3.81a.67.67,0,0,0-1,0c-.3.3-.31.72.12,1.23l-1.23.76a2.16,2.16,0,0,1,.29-3,1.88,1.88,0,0,1,2.81-.11c.94.93.79,2.09,0,3.38l0,0,1.81-1.83Z"/><path class="cls-2" d="M92.67,82.91a2.87,2.87,0,1,1,4-.77A2.72,2.72,0,0,1,92.67,82.91Zm.84-1.21a1.4,1.4,0,1,0-.53-2A1.38,1.38,0,0,0,93.51,81.7Z"/><path class="cls-2" d="M100.51,74.88l-3.78-1.65-.45,1.48-1.14-.5L96,71.32l5.14,2.25Z"/><path class="cls-2" d="M101,68.89a1.74,1.74,0,0,1-1.32-1.78h-.05a1.52,1.52,0,0,1-1.83.84c-1-.26-1.58-1.31-1.21-2.75s1.34-2.12,2.36-1.86a1.53,1.53,0,0,1,1.23,1.59l0,0a1.76,1.76,0,0,1,2-.95c1,.26,1.6,1.25,1.19,2.9S102,69.15,101,68.89Zm-2.73-2.36a.9.9,0,1,0,.44-1.74.85.85,0,0,0-1.09.66A.84.84,0,0,0,98.27,66.53Zm2.89.85a1,1,0,1,0-.65-1.21A.93.93,0,0,0,101.16,67.38Z"/><path class="cls-2" d="M60.25,36.64a7.57,7.57,0,0,0-2.32-.15,5.31,5.31,0,0,0-1.08.23,3.24,3.24,0,0,0-.9.49,3.66,3.66,0,0,0-.66.75,4.91,4.91,0,0,0-.46.95A7.51,7.51,0,0,0,54.55,40,6.94,6.94,0,0,0,54.44,41l-2-.14a9.17,9.17,0,0,1,.31-1.39,9.52,9.52,0,0,1,.52-1.3A7.7,7.7,0,0,1,54,37a4.84,4.84,0,0,1,1.13-1,4.4,4.4,0,0,1,1.36-.54,7.31,7.31,0,0,1,1.38-.13,8.87,8.87,0,0,1,2.61.49Z"/><path class="cls-2" d="M59.2,37.09c-.16,1.5-.7,2.23-1.85,2.33s-1.49-.4-1.55-1.13a2,2,0,0,1,2-2l1.47-.16Z"/><path class="cls-2" d="M89.26,24.77v.12h0l0-.18c-.06,0-.1,0-.1.08s0,0,0,0-.06.07-.07.11a1.19,1.19,0,0,0-.06.46.38.38,0,0,0,.14.26.09.09,0,0,0,.09,0,.42.42,0,0,0,.29-.23v0c.13-.11,0-.2,0-.3l-.11-.24a.94.94,0,0,0-.09-.12Z"/><path class="cls-2" d="M75.41,30c0,.09.06.17,0,.25l0,0a.37.37,0,0,1-.23.26c-.12.05-.2,0-.19-.12a1.23,1.23,0,0,1,0-.2Z"/><path class="cls-2" d="M81,27.86l0,.05c0,.09.2.21.29.17a.38.38,0,0,0,.22-.24.26.26,0,0,1,0-.09c.06-.05,0-.1,0-.14Z"/><path class="cls-2" d="M79.14,28.56a.07.07,0,0,0,0,.06c0,.09,0,.29-.11.31a.33.33,0,0,1-.33,0l-.09,0q-.12,0-.09-.12Z"/><path class="cls-2" d="M75.69,40.67l-.12.08a.21.21,0,0,0,0,.19.34.34,0,0,1,0,.11l.19.18a.49.49,0,0,0,.14.11.15.15,0,0,0,.13,0,.46.46,0,0,0,.19-.26.67.67,0,0,1,.06-.12.09.09,0,0,0,0-.13c-.06,0-.12-.12-.19-.13s-.15-.07-.23,0S75.72,40.67,75.69,40.67Z"/><path class="cls-2" d="M78.06,29.14h0l0,0c-.1,0-.21-.05-.32,0a.46.46,0,0,0,0,.44.47.47,0,0,0,.13.15.09.09,0,0,0,.09,0,.59.59,0,0,0,.33-.2l.06,0c.06,0,.07-.09,0-.14l-.13-.17,0,0"/><path class="cls-2" d="M82.86,40.24v-.06s-.07,0-.08,0l-.12.1a.37.37,0,0,0-.16.29c0,.08.1.29.18.3a.41.41,0,0,0,.35-.08l.13-.08s.07,0,0-.1l-.13-.23,0,0L83,40.29C82.92,40.23,82.92,40.23,82.86,40.24Z"/><path class="cls-2" d="M70.61,32.48a.36.36,0,0,0,.21-.16l.1-.11a.07.07,0,0,0,0-.11.45.45,0,0,0-.3-.1h0a1.32,1.32,0,0,0-.34,0l0,0s-.06.07-.07.12,0,.09,0,.11,0,.08,0,.1a1.51,1.51,0,0,0,.26.18s.11,0,.17,0Z"/><path class="cls-2" d="M90,33.09l.35.13c.07,0,.12,0,.17-.06a1.13,1.13,0,0,0,.13-.43s0-.06,0-.06a.58.58,0,0,0-.21-.07.24.24,0,0,0-.21.06s-.06,0-.08,0l-.09.07a.76.76,0,0,1,0,.11v.23Z"/><path class="cls-2" d="M91,29.88v-.05l-.11-.07h-.07a.39.39,0,0,0-.24.23.3.3,0,0,0,0,.21.43.43,0,0,0,.23.25h.07a.49.49,0,0,0,.24-.23l0-.06c0-.06.1-.11,0-.18L91,29.86Z"/><path class="cls-2" d="M69,36.51a.58.58,0,0,0-.14.05.37.37,0,0,0-.16.27c0,.15.06.22.16.29s0,0,.05,0a.18.18,0,0,0,.1,0,2.09,2.09,0,0,0,.2-.22,1,1,0,0,0,.1-.17c0-.05,0-.1,0-.14a1.13,1.13,0,0,0-.18-.12.38.38,0,0,0-.1,0Z"/><path class="cls-2" d="M76,30.33h-.07s0,.05,0,.08a.68.68,0,0,1,0,.14s0,.06,0,.08a.82.82,0,0,0,.12.25.14.14,0,0,0,.12,0c.1,0,.23-.06.28-.2s0,0,.07-.07a.13.13,0,0,0,0-.1,2.09,2.09,0,0,0-.14-.17v0h-.13l0,0,0-.06a.2.2,0,0,0-.22,0S76,30.31,76,30.33Z"/><path class="cls-2" d="M71.44,31.64l-.15-.05a.56.56,0,0,1-.05.08s0,.06,0,.07,0,.18,0,.23a1.54,1.54,0,0,0,.29.21h.06a.44.44,0,0,0,.27-.35c0-.12,0-.15-.13-.18l-.11,0h-.08v0"/><path class="cls-2" d="M74.21,31.1l.17-.13.08-.07c.08,0,.08-.07,0-.14a.46.46,0,0,0-.22-.11.83.83,0,0,1-.21-.06s0,0-.05,0a.19.19,0,0,0-.21.23v0s0,.07,0,.08a1.54,1.54,0,0,0,.17.19.21.21,0,0,0,.26,0Z"/><path class="cls-2" d="M91.12,27.73,91,27.8l0,0s-.05,0-.05.05a.12.12,0,0,0,0,.08.63.63,0,0,0-.09.47,1.09,1.09,0,0,0,0,.18.18.18,0,0,0,0,.13c.09.07.1.05.19,0a.63.63,0,0,0,.15-.39.49.49,0,0,0,0-.2Z"/><path class="cls-2" d="M69.57,33.07l.21.19a.09.09,0,0,0,.1,0,.59.59,0,0,0,.28-.26v0c.06-.09,0-.15,0-.2l-.1-.06a.44.44,0,0,0-.32,0s0,0,0,0l0,.05a.32.32,0,0,0,0,.27Z"/><path class="cls-2" d="M87.94,25.85c0-.05.09-.1.13-.16s0-.06.06-.07.05-.08,0-.12a.57.57,0,0,0-.2-.18c-.07,0-.13-.1-.22-.07a.19.19,0,0,0-.14.12.6.6,0,0,0-.06.22s0,.09,0,.12a.86.86,0,0,0,.07.1c0,.06.1.1.19.05l.09,0Z"/><path class="cls-2" d="M69.84,38l.22-.2.06-.06a.08.08,0,0,0,0-.13l-.22-.18-.07,0a1.57,1.57,0,0,0-.23.09.24.24,0,0,0-.09.33.86.86,0,0,1,.07.1C69.65,38.06,69.7,38.07,69.84,38Z"/><path class="cls-2" d="M66.79,33.32l-.05-.1-.16.14a.19.19,0,0,0,0,.08.39.39,0,0,0,0,.18.68.68,0,0,0,.07.2.1.1,0,0,0,0,.06.24.24,0,0,0,.14,0,.52.52,0,0,0,.32-.28c0-.09,0-.1,0-.17l0,0C66.93,33.32,66.92,33.32,66.79,33.32Z"/><path class="cls-2" d="M86.26,25.85c0,.06,0,.1,0,.13a.43.43,0,0,0,0,.11.41.41,0,0,0,.26.27.14.14,0,0,0,.17,0,.39.39,0,0,0,.18-.35.09.09,0,0,0-.06-.09c-.07,0-.16,0-.2-.06a.16.16,0,0,0-.23,0A.61.61,0,0,1,86.26,25.85Z"/><path class="cls-2" d="M74,40.39l-.2,0s-.06,0,0,.06,0,.08.09.1l.26.17a.25.25,0,0,0,.12,0l.24.05c.08,0,.17-.07.14-.15a.57.57,0,0,0-.12-.18.87.87,0,0,0-.22-.17.61.61,0,0,0-.19,0l-.08,0Z"/><path class="cls-2" d="M80.77,40.62l-.14.06c-.1,0-.13.13-.16.23s.06.23.13.31.12,0,.17,0a1.2,1.2,0,0,0,.21-.17c.22-.2.13-.19,0-.33s-.07-.11-.15-.07S80.79,40.64,80.77,40.62Z"/><path class="cls-2" d="M86,38.66l.06,0v0l-.19,0v-.05h0l0,.1a2.69,2.69,0,0,1-.16.29.27.27,0,0,0,0,.32.1.1,0,0,0,.09,0,.48.48,0,0,0,.23-.1.52.52,0,0,0,.15-.18s0-.11,0-.17a.37.37,0,0,1,0-.11C86.07,38.67,86,38.67,86,38.66Z"/><path class="cls-2" d="M90.26,24.83a1.41,1.41,0,0,0,.18-.17c0-.05.06-.12.13-.16s0-.07,0-.08a.25.25,0,0,0-.23-.09L90,24.4a.4.4,0,0,0-.17.09.09.09,0,0,0,0,.1.51.51,0,0,0,.27.23A.4.4,0,0,0,90.26,24.83Z"/><path class="cls-2" d="M77.26,29.56a.47.47,0,0,0-.42-.13.4.4,0,0,0-.25.16.18.18,0,0,0,0,.24.59.59,0,0,0,.17.1.14.14,0,0,0,.11,0A.59.59,0,0,0,77.26,29.56Z"/><path class="cls-2" d="M67.46,34.77l-.17,0v.05a.13.13,0,0,0,0,.22l.12.19a.16.16,0,0,0,.18,0,.39.39,0,0,0,.22-.2s.06-.06.08-.1a.46.46,0,0,0,.05-.1l-.28-.14c-.05,0-.07,0-.1,0l0,0Z"/><path class="cls-2" d="M82.88,27.57a.67.67,0,0,0,.27-.23s0,0,0,0,.09-.13,0-.21a.27.27,0,0,0-.26,0l-.09,0-.29.13s0,.07,0,.1a.09.09,0,0,0,0,.08l.17.07a1.52,1.52,0,0,0,.21,0Z"/><path class="cls-2" d="M84.57,39.51a0,0,0,0,1,0,0c-.14,0-.17.18-.22.29s0,0,0,0a.27.27,0,0,0,.45.13l.19-.15c.06,0,0-.09,0-.16a.66.66,0,0,0-.17-.12s-.09,0-.13,0S84.61,39.53,84.57,39.51Z"/><path class="cls-2" d="M90.78,26.37l0-.05,0,.05,0,0s0,0-.07,0a.09.09,0,0,0-.06.07.8.8,0,0,0,.05.43.27.27,0,0,0,.17.14l.07,0a.42.42,0,0,0,.17-.41.46.46,0,0,0-.07-.16Q90.9,26.3,90.78,26.37Z"/><path class="cls-2" d="M84.69,26.63c.06,0,.12,0,.11.08s0,0,.07,0c.18-.08.4-.1.53-.27l.08-.14a.1.1,0,0,0,0-.09s-.09,0-.11,0c-.18.12-.41.14-.57.29A.81.81,0,0,0,84.69,26.63Z"/><path class="cls-2" d="M70.8,39a1.3,1.3,0,0,0,.2.15l.11.08a.12.12,0,0,0,.19,0l.11-.12s0-.15,0-.17a.59.59,0,0,0-.46-.13.15.15,0,0,0-.13.06S70.8,38.94,70.8,39Z"/><path class="cls-2" d="M80.42,29.08c.07.12.14.16.25.08a1.61,1.61,0,0,0,.23-.22h0c0-.05.1-.09.06-.14a.2.2,0,0,0-.19-.1.38.38,0,0,0-.35.23A.43.43,0,0,0,80.42,29.08Z"/><path class="cls-2" d="M80.12,28.24a.28.28,0,0,0-.18.34.36.36,0,0,0,.27.15.4.4,0,0,0,.19-.36A.33.33,0,0,0,80.12,28.24Z"/><path class="cls-2" d="M90,26a1.52,1.52,0,0,0,.21,0,.3.3,0,0,0,.14-.4.33.33,0,0,0-.06-.1l0-.06c0-.07,0-.08-.08-.05s-.11,0-.1.1-.15.15-.23.23Z"/><path class="cls-2" d="M79.32,31.54l.07.07c-.06,0-.11.07,0,.14s0,.06,0,.08,0,.05.09.06a.34.34,0,0,0,.14,0l.25-.1a.15.15,0,0,0,.07-.2,1.12,1.12,0,0,0-.16-.22.18.18,0,0,0-.05-.07.08.08,0,0,0-.13,0,.77.77,0,0,0-.16.15A.71.71,0,0,0,79.32,31.54Z"/><path class="cls-2" d="M80.55,34.06s0,.1,0,.14l.08.09a.32.32,0,0,0,.27,0l.05,0,.17-.16a.23.23,0,0,0,.05-.28,2.56,2.56,0,0,0-.2-.26s-.09,0-.14,0l-.15.21-.08.13a.11.11,0,0,0,0,.14S80.55,34,80.55,34.06Z"/><path class="cls-2" d="M81.12,36.31l.06.06h.16l.12,0,.18-.08a.37.37,0,0,0,.2-.3s0-.06,0-.07a.63.63,0,0,0-.37-.12h0a.1.1,0,0,0-.14,0,.76.76,0,0,0-.12.19c0,.09-.08.19,0,.29Z"/><path class="cls-2" d="M81.17,35l-.1-.18a.56.56,0,0,1,0-.08.24.24,0,0,0-.08-.06s0,0-.07,0a.23.23,0,0,0-.06.21.69.69,0,0,0,0,.13l.1.2c0,.06.07.05.11,0A.3.3,0,0,0,81.17,35Z"/><path class="cls-2" d="M79.6,29.48a.83.83,0,0,1-.09-.16c0-.05-.06-.08-.11-.06l-.16.06,0,0s0,0,0,.05a1.12,1.12,0,0,0-.1.16l0,0,0,.06-.08,0s0,.07.06.09.07,0,.09,0a.55.55,0,0,0,.44.13c.12,0,.15,0,.15-.17A.37.37,0,0,0,79.6,29.48Z"/><path class="cls-2" d="M80.14,29.7,80,29.59s-.07,0-.08,0-.07.08-.06.11c.08.2.05.42.17.61a1.34,1.34,0,0,0,.11.14c0-.05,0-.11.1-.09a.1.1,0,0,0,0-.06C80.27,30.08,80.29,29.86,80.14,29.7Z"/><path class="cls-2" d="M81.59,32.72a.76.76,0,0,0-.35-.11h-.07s0,0,0-.06,0-.09,0-.15A.51.51,0,0,0,81,32.1l0,0c-.07-.08-.08-.08-.15,0s-.09.09-.06.16l0,0s-.06,0,0,.08l0,0a.48.48,0,0,0,.42.24s0,.07,0,.11a.22.22,0,0,0,.08.19,1.88,1.88,0,0,1,.16.23.11.11,0,0,0,.19,0s.06,0,.08,0l0,0c0-.14,0-.28,0-.42A.09.09,0,0,0,81.59,32.72Z"/><path class="cls-2" d="M82.38,36.1l.23.31a.14.14,0,0,0,.1.05.18.18,0,0,0,.09,0h0s0,0,0,0a2.64,2.64,0,0,0,0-.29c0-.06,0-.11-.09-.12s0,0-.07-.06a.43.43,0,0,0-.31,0s-.06.06-.06.09a.3.3,0,0,0,0,.13Z"/><path class="cls-2" d="M82.27,34.31s-.06,0-.06.06v.35a.25.25,0,0,1,0,.07h0l.06.16a.28.28,0,0,0,.24-.06l0,.05h0a.33.33,0,0,0,.06-.1,2.29,2.29,0,0,0,.09-.28c0-.08,0-.12-.08-.17a.42.42,0,0,0-.26-.1A.27.27,0,0,0,82.27,34.31Z"/><path class="cls-2" d="M81.48,30.29c-.09-.07-.09-.08-.18,0l0,0c-.11.07-.11.07-.14.2l-.1,0a1.62,1.62,0,0,0,.1.18.13.13,0,0,0,.07.05.51.51,0,0,0,.17.07.76.76,0,0,0,.21,0s.06,0,.07,0a.29.29,0,0,0,.05-.13A.49.49,0,0,0,81.48,30.29Z"/><path class="cls-2" d="M84.5,37.48c0,.06.12.11.17.07l.09,0v-.09h0c.12,0,.12,0,.12-.12s0-.26-.09-.34a.65.65,0,0,0-.22-.08l-.23,0s-.1.07-.1.14,0,.05,0,.07l.09.24C84.45,37.3,84.5,37.37,84.5,37.48Z"/><path class="cls-2" d="M82.68,33.56l0,0c0-.14.06-.28.08-.41a.17.17,0,0,0-.06-.11.66.66,0,0,0-.45-.14s-.06,0-.06.06a.71.71,0,0,0,0,.2s0,0,0,0a.69.69,0,0,1,.05.13.76.76,0,0,1,0,.15c0,.09.09.17.17.15a.21.21,0,0,0,.16-.07S82.66,33.57,82.68,33.56Z"/><path class="cls-2" d="M82.49,32.56l.05.11.11,0h0l.18,0,.21-.31a.15.15,0,0,0,0-.18c-.11-.13-.26-.15-.4-.22s0,0-.06,0a.52.52,0,0,0-.11.19c0,.07,0,.15,0,.22S82.48,32.54,82.49,32.56Z"/><path class="cls-2" d="M82.84,30.91a.83.83,0,0,1-.08-.12.08.08,0,0,0-.12,0c-.07.09-.15.16-.15.28h0a1,1,0,0,0-.11.32s0,0,0,0a.32.32,0,0,0,.1.1s.09,0,.11,0,.08,0,.11,0,.16-.15.23-.23a.38.38,0,0,0,0-.16h0A.37.37,0,0,0,82.84,30.91Z"/><path class="cls-2" d="M83.91,33.84l-.1.14s0,.05,0,.08h0l-.06.09a.87.87,0,0,0,.08.14s.08,0,.12.07a.4.4,0,0,0,.31-.19.22.22,0,0,0,0-.08c-.06-.12-.11-.25-.26-.29S83.93,33.79,83.91,33.84Z"/><path class="cls-2" d="M84.13,35a.6.6,0,0,0-.11-.06.08.08,0,0,0-.07,0,.14.14,0,0,0,0,.09c0,.14,0,.28,0,.42a.46.46,0,0,0,.15.34l.1-.1c.14-.12.09-.27.08-.41A.36.36,0,0,0,84.13,35Z"/><path class="cls-2" d="M81.74,29.38c-.12,0-.24,0-.37-.06l0,.11h0s0,.06,0,.07,0,0,.08,0c.06.17.22.23.37.3l.17.07a.21.21,0,0,0,.13,0c.11,0,.1-.07.07-.18s-.17-.22-.28-.31A.59.59,0,0,0,81.74,29.38Z"/><path class="cls-2" d="M81.9,28.15a.45.45,0,0,0-.21.38.38.38,0,0,0,.1.27.19.19,0,0,0,.26,0l.13-.15a.14.14,0,0,0,0-.11A.56.56,0,0,0,81.9,28.15Z"/><path class="cls-2" d="M83.89,32.92a1,1,0,0,0-.1.18v0a.3.3,0,0,0,.2.27l.22,0v0h0a.63.63,0,0,0,.13-.11c0-.05.08-.13.06-.16a1.52,1.52,0,0,0-.22-.22,1.19,1.19,0,0,0-.16-.08A.1.1,0,0,0,83.89,32.92Z"/><path class="cls-2" d="M84.92,34.66c.16,0,.2-.12.22-.23A.4.4,0,0,0,85,34a.58.58,0,0,1-.17-.14s-.07,0-.08,0-.11.07-.1.14a2,2,0,0,0,.07.26c0,.11.11.22.17.33A.94.94,0,0,0,84.92,34.66Z"/><path class="cls-2" d="M86.4,34.8h.1l.11-.16a.55.55,0,0,0-.25-.27,1.25,1.25,0,0,1-.12-.08s-.09,0-.11,0a.26.26,0,0,0-.09.12s0,.11,0,.15a.05.05,0,0,1,0,0,.29.29,0,0,0,.12.15A.27.27,0,0,0,86.4,34.8Z"/><path class="cls-2" d="M86.6,35.78l0,0a.54.54,0,0,0,.29.15l0,0,.13-.14a.25.25,0,0,0,0-.09.52.52,0,0,0-.34-.31.07.07,0,0,0-.07,0,.22.22,0,0,0,0,.11v.09C86.61,35.67,86.61,35.73,86.6,35.78Z"/><path class="cls-2" d="M85.22,31.52s0,0,0,0-.09-.11-.23-.07h-.09s-.09,0-.09.07,0,0,0,0a0,0,0,0,0,0,.06c0,.05,0,.12,0,.15a3.32,3.32,0,0,0,.36.26c.1.06.22-.05.21-.16a.07.07,0,0,0,0-.05A.44.44,0,0,0,85.22,31.52Z"/><path class="cls-2" d="M86.74,36.44a.29.29,0,0,0-.14-.08.12.12,0,0,0-.09.08.23.23,0,0,0,0,.12.64.64,0,0,1,0,.07l-.06.14v0l.17.13a.24.24,0,0,0,.22,0,.39.39,0,0,0,.08-.1.34.34,0,0,0,0-.12Z"/><path class="cls-2" d="M83.57,31.64a.35.35,0,0,0,.06.21.22.22,0,0,0,.23,0,.41.41,0,0,0,.18-.27.48.48,0,0,0,0-.24,2,2,0,0,0-.16-.24.06.06,0,0,0-.1,0c0,.08-.12.15-.11.25s0,.05,0,.08,0,0,0,.06h0Z"/><path class="cls-2" d="M84.54,33a.3.3,0,0,0,.35.07h0c.16-.09.18-.12.14-.33a1,1,0,0,0-.11-.2l0,0c0-.09-.07-.1-.14,0a.66.66,0,0,0-.22.22A.3.3,0,0,0,84.54,33Z"/><path class="cls-2" d="M85.86,35a.7.7,0,0,0-.15-.19.5.5,0,0,0-.17-.11.1.1,0,0,0-.09,0,.25.25,0,0,0-.06.21c0,.05,0,.12,0,.19s0,.06,0,.06.07.09.14.08a.65.65,0,0,1,.16,0C85.78,35.29,85.9,35.1,85.86,35Z"/><path class="cls-2" d="M82.83,27.93a.37.37,0,0,0-.12-.07h-.07a.61.61,0,0,0-.23.34s0,.11,0,.13.14.18.27.17h.06l0,0,.25-.21s0,0,0-.07A.47.47,0,0,0,82.83,27.93Z"/><path class="cls-2" d="M83.26,29.14h0c-.08-.08-.09-.07-.15,0a1.62,1.62,0,0,0-.1.18s0,0,0,0-.07.08-.07.14,0,0,0,.09,0,0,0,.05l0,.11c0,.06.07.09.14.1h0c.07.11.15,0,.21,0a.85.85,0,0,0,.19-.14.3.3,0,0,0,.09-.32C83.42,29.27,83.39,29.16,83.26,29.14Z"/><path class="cls-2" d="M83.86,30.21s0,.05,0,.08a.13.13,0,0,0,0,.09l.21.06c.12,0,.19-.05.28-.11s.07-.2,0-.32-.14-.15-.24-.21l-.06.06C84,30,83.92,30.09,83.86,30.21Z"/><path class="cls-2" d="M83.86,28.25l0,0c-.1,0-.11.12-.17.18l0,0a.19.19,0,0,0,0,.19c0,.06.09.13.17.12a1.43,1.43,0,0,0,.34-.06l.07,0c.08,0,.1-.07.08-.16a.68.68,0,0,0-.1-.21.7.7,0,0,0-.13-.17.12.12,0,0,0-.1,0Z"/><path class="cls-2" d="M84.89,29.51l.21-.11,0,0A.49.49,0,0,0,85,29l-.11-.09a.11.11,0,0,0-.08,0,.4.4,0,0,0-.21.42A.24.24,0,0,0,84.89,29.51Z"/><path class="cls-2" d="M84.29,27.09s0,0,0,0-.1-.14-.22,0l-.21.15c-.16.14-.1.29,0,.39a.4.4,0,0,0,.41,0c.11,0,.12-.15.11-.26Z"/><path class="cls-2" d="M85.69,30.5a2.56,2.56,0,0,0-.22-.35s-.1-.06-.15-.1l0,0c-.08-.05-.12,0-.13.06a.55.55,0,0,0,0,.31.06.06,0,0,1,0,0c0,.11,0,.17.06.23a1.48,1.48,0,0,0,.47.2l.07-.11A.22.22,0,0,0,85.69,30.5Z"/><path class="cls-2" d="M86.07,32.41a.42.42,0,0,1,.12.08,1,1,0,0,0,.34-.2.42.42,0,0,0,0-.53l-.06-.07c0-.05-.07-.06-.11,0a1,1,0,0,0-.2.28c0,.1-.08.14-.14.21A.16.16,0,0,0,86.07,32.41Z"/><path class="cls-2" d="M85.44,28.11c-.12-.15-.2-.1-.31,0a.33.33,0,0,0-.12.24.27.27,0,0,0,.26.23l.12,0h0l.18-.06c.07,0,.05-.06.05-.1A.57.57,0,0,0,85.44,28.11Z"/><path class="cls-2" d="M86.31,29.73a.07.07,0,0,0,0,0,.26.26,0,0,0,.28-.05,1.67,1.67,0,0,0,.16-.12s0-.06.06-.1h0a.47.47,0,0,0-.17-.33.19.19,0,0,0-.28,0,.63.63,0,0,0-.1.27A.33.33,0,0,0,86.31,29.73Z"/><path class="cls-2" d="M86.93,30.85s.07.08.13.1.24,0,.34-.11.09-.08.08-.16a.58.58,0,0,0-.17-.33s0,0,0-.06-.07-.07-.12,0l-.22.24a0,0,0,0,0,0,0c0,.07,0,.13,0,.19A.11.11,0,0,0,86.93,30.85Z"/><path class="cls-2" d="M87.53,32.38l.09.06a.39.39,0,0,0,.39,0c.08,0,.06-.12.06-.19a.13.13,0,0,0,0-.06h0A1.42,1.42,0,0,1,88,32l-.06-.12c0-.05-.05-.06-.1,0l-.1.05a.19.19,0,0,0-.09.12.37.37,0,0,1-.12.13s-.09,0,0,.09,0,0,0,0A.14.14,0,0,0,87.53,32.38Z"/><path class="cls-2" d="M86,27.4h-.08l-.25.1a.17.17,0,0,0,0,.27.6.6,0,0,0,.4.22.18.18,0,0,0,.2-.09.28.28,0,0,0,0-.2A.65.65,0,0,0,86,27.4Z"/><path class="cls-2" d="M86.76,28a.08.08,0,0,0-.14,0,.71.71,0,0,0-.08.43c0,.1.08.21.13.31s.09,0,.1,0a2.12,2.12,0,0,0,.21-.36.25.25,0,0,0-.07-.23C86.86,28.15,86.8,28.09,86.76,28Z"/><path class="cls-2" d="M87.08,26.84l0-.1c0-.06-.06-.09-.1-.06l-.39.29a.17.17,0,0,0,0,.07c0,.05,0,.09,0,.13s0,.15.12.19a1.18,1.18,0,0,0,.21,0c.09-.05.18-.09.27-.15s.09-.16,0-.27Z"/><path class="cls-2" d="M87.91,29.09a.5.5,0,0,0-.07.5c0,.09.11.07.17.09s.2-.16.14-.33S88.06,29.12,87.91,29.09Z"/><path class="cls-2" d="M88.22,27.92l-.12,0L88,28v.11H87.9s0,0,0,0l.11.09a.9.9,0,0,0,.55.17,1,1,0,0,0,.24,0c.07,0,.08-.06.07-.14s-.15-.26-.24-.37-.12,0-.18,0Z"/><path class="cls-2" d="M88.75,29.65l.06.14a.19.19,0,0,0,.27.05l.18-.17a.19.19,0,0,0,0-.07.59.59,0,0,0-.25-.43.1.1,0,0,0-.09,0,1.82,1.82,0,0,0-.15.23A1,1,0,0,0,88.75,29.65Z"/><path class="cls-2" d="M88.26,26.31h0s-.07-.12-.13-.08a.32.32,0,0,0-.1.18s0,.1,0,.15,0,0,0,0a.28.28,0,0,0,0,.11.45.45,0,0,0,.1.14s.16,0,.21,0a.19.19,0,0,0,0-.2C88.44,26.46,88.33,26.41,88.26,26.31Z"/><path class="cls-2" d="M89.74,26.5a1.09,1.09,0,0,0-.13-.17.75.75,0,0,0-.15-.16.07.07,0,0,0-.12,0,.4.4,0,0,0-.1.39.85.85,0,0,1,0,.16s.09.21.12.21a.43.43,0,0,0,.2-.06.59.59,0,0,0,.15-.2A.65.65,0,0,0,89.74,26.5Z"/><path class="cls-2" d="M89.82,27.56a1.07,1.07,0,0,0-.18-.19.24.24,0,0,0-.08.24c0,.16.07.33.11.49s0,.17.13.21l.07,0c0-.16,0-.3.07-.44A.42.42,0,0,0,89.82,27.56Z"/><path class="cls-2" d="M90.48,29.37a.71.71,0,0,0-.23-.38s-.13,0-.16,0l-.09.09s-.11.16-.09.21a.39.39,0,0,0,.17.19l.2.07A.17.17,0,0,0,90.48,29.37Z"/><path class="cls-2" d="M90.15,30.91a5.31,5.31,0,0,0,.55.23c.13.05.16,0,.19-.15s-.07-.2-.09-.3,0-.05-.06-.05a2.34,2.34,0,0,1-.38-.09c-.08,0-.13,0-.19.06a.26.26,0,0,0-.11.12s0,0,0,0A.16.16,0,0,0,90.15,30.91Z"/><path class="cls-2" d="M89.65,30.83a.15.15,0,0,0,.11,0,.57.57,0,0,0,.16-.15.71.71,0,0,0,.08-.15h0a.35.35,0,0,0-.16-.29l-.08-.06s-.1-.08-.11-.07a.53.53,0,0,0-.12.14c0,.06-.07.11,0,.19s0,0,0,0,0,.05,0,.07a.2.2,0,0,0,0,.17l0,0,0,0s0,0,.06,0A.42.42,0,0,1,89.65,30.83Z"/><path class="cls-2" d="M89.48,32.3l0,0a.2.2,0,0,0,.22.1c.08,0,.17,0,.24-.09A.2.2,0,0,0,90,32a1.83,1.83,0,0,0-.21-.26s-.08,0-.13,0a.58.58,0,0,0-.12.1,1.27,1.27,0,0,0-.06.18.34.34,0,0,0,0,.1,1.23,1.23,0,0,0,0,.19Z"/><path class="cls-2" d="M88.73,30.66c0-.09-.08-.18-.18-.22s0,0-.07-.08-.12.15-.17.23-.08.16-.12.24v0c0,.1.07.25.16.26a.3.3,0,0,0,.18-.06,1.3,1.3,0,0,0,.18-.15A.21.21,0,0,0,88.73,30.66Z"/><path class="cls-2" d="M89.41,34.15a.29.29,0,0,0,.24,0l.19-.09c.08,0,.08-.21,0-.27a.52.52,0,0,0-.3-.16s0,0,0,0a.08.08,0,0,0-.14,0,.55.55,0,0,0-.12.19s0,.1,0,.16a1.09,1.09,0,0,1,0,.14Z"/><path class="cls-2" d="M88.83,33.52a1.47,1.47,0,0,0,.06-.14c0-.11.09-.22.12-.33s0-.08,0-.12a.61.61,0,0,0-.29-.17l-.1,0a.1.1,0,0,0-.13,0,3,3,0,0,0-.1.32.75.75,0,0,0,0,.2l0,0,0,0a.17.17,0,0,0,0,.07l0,.11h0v.07l.06,0v.07h.12v0l.16-.16Z"/><path class="cls-2" d="M88.58,35.14h0a.21.21,0,0,1,0,.07c0,.08,0,.11.1.14a1.15,1.15,0,0,0,.17.06h0l0,0a.67.67,0,0,0,.39-.15.16.16,0,0,0,0-.12.56.56,0,0,0-.31-.36,0,0,0,0,0,0,0,.25.25,0,0,0-.13-.09.22.22,0,0,1-.06-.07c0-.09-.08-.1-.15,0a.27.27,0,0,0-.09.29s0,.08,0,.12h0l0,.08,0,0Z"/><path class="cls-2" d="M88.12,33.76s0,0,0,0-.1-.23-.24-.27-.07,0-.1-.08a.11.11,0,0,0-.15,0,3.07,3.07,0,0,0-.26.25.84.84,0,0,0-.08.19l0,0h.05s0,.08,0,.12,0,.1.11.14.22,0,.32,0A.59.59,0,0,0,88.12,33.76Z"/><path class="cls-2" d="M87.57,35.86a1.88,1.88,0,0,1,.12.18.77.77,0,0,0,.17.19l.22.22a.47.47,0,0,0,.1.1.13.13,0,0,0,.1,0,.13.13,0,0,0,.1-.14.43.43,0,0,0-.13-.26.88.88,0,0,1-.12-.15l-.13-.1-.11-.08c-.06,0-.13-.1-.17-.09s0,0-.06,0a.06.06,0,0,0-.06,0S87.54,35.81,87.57,35.86Z"/><path class="cls-2" d="M86.55,33.66l.19-.12h0s0-.09,0-.14a.15.15,0,0,0,0-.09c0-.07-.09-.13-.12-.21s-.07-.1-.15-.07-.09,0-.1,0-.11.06-.15,0h0l0,.05s0,0,0,0l-.17,0,.13.12,0,0c0,.08,0,.17.1.21a.71.71,0,0,0,.18.08l.15.07S86.54,33.67,86.55,33.66Z"/><path class="cls-2" d="M87.46,36.52a.17.17,0,0,0,0-.07.61.61,0,0,0-.23-.34c-.1-.08-.16-.07-.24,0a.35.35,0,0,1-.13.08l0,0c0,.06,0,.15,0,.18s0,.13.09.15a1,1,0,0,0,.2,0h0A.25.25,0,0,0,87.46,36.52Z"/><path class="cls-2" d="M86.49,37.46s0,0,0,0,0,.07.09.09a1.43,1.43,0,0,0,.44.15.29.29,0,0,0,.18,0h0s.06,0,.11,0,.13-.11.19-.18a.1.1,0,0,0,0-.07.5.5,0,0,0-.28-.35.14.14,0,0,0-.12,0c-.08-.13-.19-.07-.29,0a2.27,2.27,0,0,1-.25.06.84.84,0,0,0-.14.06v0l.12,0v0h-.17A.07.07,0,0,0,86.49,37.46Z"/><path class="cls-2" d="M85.46,36.23c.07,0,.14.11.23.1s.26-.22.22-.32a.56.56,0,0,0-.32-.3s-.1,0-.13.1a.53.53,0,0,0,0,.28v0A.08.08,0,0,0,85.46,36.23Z"/><path class="cls-2" d="M85.32,37.91a.31.31,0,0,0,.16,0v0l-.06,0v0l.08.06.25.22a.29.29,0,0,0,.32,0,.1.1,0,0,0,0-.08.42.42,0,0,0,0-.25.68.68,0,0,0-.15-.18l0,0a.18.18,0,0,0-.08-.28.43.43,0,0,0-.25,0s0,0-.05,0a.12.12,0,0,0-.16,0,.35.35,0,0,0-.09.29h0s0,0,0,0,0,.07,0,.09S85.3,37.9,85.32,37.91Z"/><path class="cls-2" d="M84.74,36.27a.38.38,0,0,0-.06-.16c-.05-.07-.12-.12-.17-.18a.11.11,0,0,0-.14,0l-.15.09,0,.08.08,0-.13.13,0,.06h-.08a0,0,0,0,1,0,0,.9.9,0,0,0,.4.18c.07,0,.14-.06.21-.09A.08.08,0,0,0,84.74,36.27Z"/><path class="cls-2" d="M84.81,38.74a1,1,0,0,0,.21.1s.08,0,.13,0l.1-.05c.07,0,.12-.08.09-.17a.33.33,0,0,1,0-.1h0l-.13-.17s0,0-.06-.07-.07-.07-.11,0a.73.73,0,0,0-.22.16c0,.06-.12.11-.11.2A.24.24,0,0,0,84.81,38.74Z"/><path class="cls-2" d="M84.16,38.4s.06,0,.08,0a.77.77,0,0,0,.26-.07.12.12,0,0,0,.07-.11c0-.11,0-.24-.15-.31s0-.07,0-.09a.18.18,0,0,0-.09,0l-.2.11h0L84,38l0,0-.06,0a.2.2,0,0,0,0,.22h0l0,.07s.06,0,.09,0Z"/><path class="cls-2" d="M83.14,39.09l.07.07a.15.15,0,0,0,.18,0s.13,0,.17-.09a1.59,1.59,0,0,0,.18-.27s0-.09-.06-.12a.45.45,0,0,0-.36,0,.84.84,0,0,1-.18,0s0,0,0,.07a1.93,1.93,0,0,0,0,.24S83.12,39.07,83.14,39.09Z"/><path class="cls-2" d="M83.06,38.12a.32.32,0,0,0,.24,0,.62.62,0,0,0,.28-.23.14.14,0,0,0,0-.09.56.56,0,0,0-.17-.33c-.13-.12-.12-.12-.24,0a.33.33,0,0,0-.13.21s0,0-.08.06v.08l0,0h0l0,.17L83,38C83,38.07,83,38.09,83.06,38.12Z"/><path class="cls-2" d="M83.39,36.9l.18,0a.13.13,0,0,0,.14-.07l.09-.14a.11.11,0,0,0,0-.14.49.49,0,0,0-.37-.1h-.1a1,1,0,0,0,0,.24A.85.85,0,0,0,83.39,36.9Z"/><path class="cls-2" d="M83.06,39.8c.1,0,.16,0,.19.05l.11,0a.12.12,0,0,0,.19,0s0,0,0,0v-.16h0a.67.67,0,0,0-.06-.15.31.31,0,0,0-.32-.06h-.16c-.08,0-.11,0-.09.1S83,39.73,83.06,39.8Z"/><path class="cls-2" d="M82.09,39h.06a.12.12,0,0,0,.13-.1c0-.06,0-.12,0-.17a.1.1,0,0,0-.12-.13l-.27.07c-.06,0-.08,0-.08.11l0,.12A.14.14,0,0,0,82.09,39Z"/><path class="cls-2" d="M81.49,37.64l.15.22h.12l.11,0h.07l0,0c0-.12,0-.24,0-.36a.14.14,0,0,0-.09-.15l-.23-.08a.54.54,0,0,0-.18,0s-.06,0-.06,0,0,.21,0,.32Z"/><path class="cls-2" d="M79.63,32.93a.07.07,0,0,0,.06,0,2.47,2.47,0,0,0,.29-.06c.15,0,.14-.23,0-.3L80,32.49a.15.15,0,0,0-.16-.07.91.91,0,0,0-.17.09.16.16,0,0,0-.07.11.14.14,0,0,1-.13.09l0,.14Z"/><path class="cls-2" d="M78.55,30.83l.11.05.16.1L79,31s0-.09,0-.13,0,0,0,0-.13-.25-.3-.27a.16.16,0,0,0-.16.12A.13.13,0,0,0,78.55,30.83Z"/><path class="cls-2" d="M72.89,37.62a.46.46,0,0,0,.32-.18.28.28,0,0,0,0-.38L73,36.89a.08.08,0,0,0-.14,0,2.43,2.43,0,0,0-.14.2.2.2,0,0,0,0,.22s0,0,0,.06,0,.1,0,.15a.2.2,0,0,0,0,.07A.37.37,0,0,0,72.89,37.62Z"/><path class="cls-2" d="M68.66,32.58s0,.05,0,.07,0,.09,0,.14v.07a.94.94,0,0,0,.16,0,.47.47,0,0,0,.32-.19.28.28,0,0,0,0-.38Z"/><path class="cls-2" d="M72.63,39a.56.56,0,0,0,.43.13.17.17,0,0,0,.18-.13c0-.05,0-.13,0-.18a.68.68,0,0,0-.28-.25s0,0-.07,0h0l-.23.15C72.51,38.84,72.54,39,72.63,39Z"/><path class="cls-2" d="M72.24,38.05a.31.31,0,0,0-.1-.24l-.27-.31s0,0,0,0-.06-.05-.09-.05a.13.13,0,0,0-.06.05.22.22,0,0,0,0,.22s0,.07,0,.1,0,.2-.06.29a.26.26,0,0,0,.36.23C72.11,38.24,72.22,38.17,72.24,38.05Z"/><path class="cls-2" d="M72.42,39.93l.11,0h0l.17-.09c.06,0,0-.07,0-.11a.6.6,0,0,0-.24-.28c-.15-.12-.22,0-.31.08a.36.36,0,0,0-.06.27A.27.27,0,0,0,72.42,39.93Z"/><path class="cls-2" d="M70.36,37.93a1,1,0,0,0,.63.19c.12,0,.16-.06.09-.23s-.11-.1-.18-.18a.24.24,0,0,0-.22-.09h0c-.07.1-.19.08-.28.13s-.07.07,0,.12S70.34,37.92,70.36,37.93Z"/><path class="cls-2" d="M68,35.74a.18.18,0,0,0,.13.17l.08.05a.5.5,0,0,0,.43-.14.15.15,0,0,0,0-.22,1.84,1.84,0,0,0-.17-.22.08.08,0,0,0-.12,0l-.11.1-.07.08s0,0,0,0l-.16.14,0,.07Z"/><path class="cls-2" d="M67.65,34.37a.17.17,0,0,0,0,.05l.12.08a1.62,1.62,0,0,0,.48.17c.11,0,.16,0,.14-.12a.14.14,0,0,0,0-.06l-.18-.21a.12.12,0,0,0-.19,0l-.07,0a1.1,1.1,0,0,0-.18,0A.27.27,0,0,0,67.65,34.37Z"/><path class="cls-2" d="M68.32,33.32c-.06-.06-.14-.09-.17-.18s-.07,0-.11,0a1.37,1.37,0,0,0-.2.13l-.13.1s-.1.07-.16,0l-.06,0c0,.13,0,.17.15.19s.2.06.3.07a.56.56,0,0,0,.4-.07C68.42,33.51,68.39,33.39,68.32,33.32Z"/><path class="cls-2" d="M69.57,36.64c.06.08.09.19.21.21h.07a.24.24,0,0,0,.08-.37l-.08-.13c-.06-.09-.14-.1-.19,0l-.09.18A.47.47,0,0,0,69.57,36.64Z"/><path class="cls-2" d="M69.12,34.71h-.05v.16h.07a.11.11,0,0,0,0,.06.08.08,0,0,0,.06,0,.39.39,0,0,0,.3-.24.16.16,0,0,0,0-.15,1.07,1.07,0,0,0-.15-.22s-.08-.05-.11,0a1.74,1.74,0,0,0-.11.18.75.75,0,0,1-.07.12l.08,0Z"/><path class="cls-2" d="M69.52,33.68a1.59,1.59,0,0,0-.13-.13l0,0c0-.08-.07-.09-.15-.06a.29.29,0,0,0-.18.11H69s0,0-.07,0-.07,0-.11.07v0l.17.12.11,0a.58.58,0,0,0,.41,0A.1.1,0,0,0,69.52,33.68Z"/><path class="cls-2" d="M70.27,35.61l-.13-.15s-.07-.06-.11,0l-.25.23a.07.07,0,0,0,0,.05s0,.07,0,.11a.43.43,0,0,1,.07.1A.19.19,0,0,0,70,36a1.83,1.83,0,0,0,.28-.14.1.1,0,0,0,0-.15A.6.6,0,0,0,70.27,35.61Z"/><path class="cls-2" d="M70.86,36.85l0,0a.46.46,0,0,0,.33.23.25.25,0,0,0,.18-.06,1,1,0,0,0,.22-.2c0-.05,0-.14,0-.22l-.13-.19a.08.08,0,0,0-.13,0,2,2,0,0,0-.27.22l-.14.14S70.86,36.83,70.86,36.85Z"/><path class="cls-2" d="M70.59,34.45l-.1-.12s-.1,0-.13,0l-.1.12-.12.15h0a.43.43,0,0,0,0,.05c.07,0,0,.13.11.14l.08,0a.22.22,0,0,0,.14,0,.82.82,0,0,0,.2-.12.15.15,0,0,0,0-.19l0,0Z"/><path class="cls-2" d="M71.06,35.92a.5.5,0,0,0,.2.25.84.84,0,0,0,.4.12.38.38,0,0,0,.15,0,.12.12,0,0,0,.09-.17.37.37,0,0,0-.07-.12l-.12-.15s0-.05-.07-.05-.18,0-.25.07l0,0Z"/><path class="cls-2" d="M70.85,32.93s0-.1-.1-.09-.07.06-.1.09a.71.71,0,0,0-.11.25.33.33,0,0,1-.08.18s0,.07,0,.1,0,.12.06.17a.22.22,0,0,0,.21,0c.12,0,.15-.16.22-.24l0,0h0a1.09,1.09,0,0,0,0-.26A.33.33,0,0,0,70.85,32.93Z"/><path class="cls-2" d="M71.87,34.82s-.06,0-.08,0v0l-.1,0a.08.08,0,0,0,0,.13l.12.09.21.09a1.28,1.28,0,0,0,.27,0c.12,0,.16-.07.11-.18l-.14-.18s0-.08-.11-.09a.14.14,0,0,0-.16.09"/><path class="cls-2" d="M71.91,33.75l0,0c-.09-.1-.1-.1-.19,0a1.71,1.71,0,0,0-.13.23.17.17,0,0,0,.1.21c.06,0,.1.08.16.06a1,1,0,0,0,.21-.1c.06,0,0-.11,0-.24Z"/><path class="cls-2" d="M72.8,35.7a.31.31,0,0,0,0,.13.32.32,0,0,0,.1.1l0,0c.06.09.15,0,.23,0a.62.62,0,0,0,.35-.18c.16-.12.13-.23,0-.36s-.09-.13-.13-.19-.08-.06-.13,0l-.42.32s-.06.08-.09.11S72.79,35.69,72.8,35.7Z"/><path class="cls-2" d="M72.48,32.85a.59.59,0,0,0-.28-.18.16.16,0,0,0-.14,0,.45.45,0,0,0-.14.31s0,.11.07.16l0,0c0,.1.09.07.15.06l.31-.23S72.52,32.91,72.48,32.85Z"/><path class="cls-2" d="M73.16,34a.69.69,0,0,0-.15-.07.07.07,0,0,0-.1.05.37.37,0,0,0,0,.34c0,.05,0,.13.08.18a.54.54,0,0,0,.16.14s.06,0,.08-.06a.09.09,0,0,0,0-.06c0-.11,0-.22.08-.35S73.23,34,73.16,34Z"/><path class="cls-2" d="M74.25,36c.1.09.23.07.34.1a.07.07,0,0,0,.08-.09.31.31,0,0,0-.16-.21l-.17-.13a.15.15,0,0,0-.17,0l-.18.14s.07.12.15.14Z"/><path class="cls-2" d="M74.74,37.38h0a.54.54,0,0,0,.06.11l.12.11s.16,0,.21-.07a.22.22,0,0,0,0-.21c0-.11-.17-.15-.26-.23h0s-.08-.11-.13-.05a.25.25,0,0,0-.07.19C74.68,37.28,74.72,37.33,74.74,37.38Z"/><path class="cls-2" d="M73.08,31.67a1.14,1.14,0,0,0-.15-.16l-.13-.13-.09-.05,0,.12a.57.57,0,0,0-.11.11s0,0,0,.06,0,.05,0,.05,0,.08,0,.08a2.8,2.8,0,0,0,.28.06l0,0a.14.14,0,0,0,.16,0C73.15,31.74,73.12,31.7,73.08,31.67Z"/><path class="cls-2" d="M73.62,32.55a.65.65,0,0,1-.19,0,.17.17,0,0,0-.19.06l-.1,0v.1l-.08,0c0,.07,0,.19.11.22l.23.1c.1,0,.26,0,.3-.1a.47.47,0,0,0,0-.2v-.07S73.69,32.56,73.62,32.55Z"/><path class="cls-2" d="M74.36,34.74a.16.16,0,0,0-.07.09.1.1,0,0,0,.06.08.62.62,0,0,1,.25.14.31.31,0,0,0,.17,0h.31a.11.11,0,0,0,0-.18.33.33,0,0,0-.18-.17l-.15-.09s-.08,0-.11,0l-.11,0A1.49,1.49,0,0,0,74.36,34.74Z"/><path class="cls-2" d="M75.58,35l.09.09,0,0h0c.07.11.15,0,.22,0s.26-.28.2-.38-.12-.18-.24-.2a.84.84,0,0,1-.14-.06h-.07a2,2,0,0,0-.13.25s0,.08,0,.12S75.59,35,75.58,35Z"/><path class="cls-2" d="M77.38,39.32a.17.17,0,0,0-.16,0,.61.61,0,0,1-.07.1c0,.05-.08.18,0,.23a.34.34,0,0,0,.2.15l.21,0a.18.18,0,0,0,.16-.23A.74.74,0,0,0,77.38,39.32Z"/><path class="cls-2" d="M76.8,38.75h.08c0-.16,0-.3,0-.45a.42.42,0,0,0-.18-.31l-.21-.15a.26.26,0,0,0,0,.25c.07.16.13.32.2.47S76.71,38.73,76.8,38.75Z"/><path class="cls-2" d="M76.28,37.37a.55.55,0,0,0,.1-.22s0-.1,0-.17l-.15-.14-.18-.13s-.08,0-.12,0a.36.36,0,0,0,0,.4.4.4,0,0,1,0,.15s.13.2.16.19A.39.39,0,0,0,76.28,37.37Z"/><path class="cls-2" d="M75.6,36.18a.18.18,0,0,0,0-.26,1.08,1.08,0,0,1-.11-.18.1.1,0,0,0-.15,0l-.25.24h0s0,.07,0,.08,0,.14,0,.21,0,0,0,0A.46.46,0,0,0,75.6,36.18Z"/><path class="cls-2" d="M74.28,33.69a.34.34,0,0,1,0,.1c0,.09.1.17.21.19s.11,0,.15-.09a.63.63,0,0,0,.13-.2.19.19,0,0,0,0-.16c-.06-.13-.19-.17-.31-.22a.12.12,0,0,0-.08,0A.41.41,0,0,0,74.28,33.69Z"/><path class="cls-2" d="M74.28,32.17s-.08,0-.12-.05l-.1-.07L74,32c0,.06-.1.08-.08.16s0,.12.06.16l0,0c0,.06,0,.09,0,.14a.24.24,0,0,0,.14.09.2.2,0,0,0,.21-.1s0-.09,0-.11A1.07,1.07,0,0,0,74.28,32.17Z"/><path class="cls-2" d="M74.47,31.52s0,0-.06,0,0,0,0,.08a.17.17,0,0,1,0,.12.14.14,0,0,0,0,.21,1.22,1.22,0,0,0,.24.1c.12,0,.16,0,.13-.14v0A.68.68,0,0,0,74.47,31.52Z"/><path class="cls-2" d="M75.27,33.43s-.08,0-.1,0a.36.36,0,0,0,0,.25s0,.08,0,.12.11.14.17.2a.08.08,0,0,0,.13,0,.34.34,0,0,0,.14-.26s0,0,0-.08a.41.41,0,0,0-.29-.24Z"/><path class="cls-2" d="M75.11,32.76s0,.09.06.11a3.79,3.79,0,0,0,.42.18.23.23,0,0,0,.16,0s.07-.05,0-.11-.13-.15-.21-.21a.48.48,0,0,0-.33-.07A.16.16,0,0,0,75.11,32.76Z"/><path class="cls-2" d="M75.21,31.15a.43.43,0,0,0-.09-.1s-.06,0-.08,0l-.09.22,0,.06a.07.07,0,0,0,0,.06c0,.07.06.14.08.21s.16.16.25,0a2.21,2.21,0,0,0,.12-.27s0,0,0-.07Z"/><path class="cls-2" d="M76.69,34a.38.38,0,0,0-.33-.12A1.83,1.83,0,0,0,76,34c-.05,0-.08.08-.11.12l.18.11a.41.41,0,0,0,.34.07l.17,0c.08,0,.12,0,.17-.11A1.74,1.74,0,0,0,76.69,34Z"/><path class="cls-2" d="M77.12,34.93a1,1,0,0,0-.14-.21.08.08,0,0,0-.13,0l-.26.24v0c0,.06,0,.11,0,.16v.1l.19.1h0a.73.73,0,0,0,.29-.15C77.2,35.09,77.18,35,77.12,34.93Z"/><path class="cls-2" d="M76.42,31.65c-.06,0-.11-.09-.18-.13h-.07l0,0a.21.21,0,0,0-.17.22.09.09,0,0,0,0,.11l.27.23c.06,0,.08,0,.1,0s.08,0,.08-.06a1.7,1.7,0,0,1,0-.22C76.52,31.71,76.47,31.68,76.42,31.65Z"/><path class="cls-2" d="M77.12,32.76A1.06,1.06,0,0,0,77,33a1.53,1.53,0,0,0,0,.3.3.3,0,0,0,.2.17s.08,0,.1,0,.19-.17.23-.3a.25.25,0,0,0,0-.19.42.42,0,0,0-.31-.17S77.14,32.74,77.12,32.76Z"/><path class="cls-2" d="M78.7,37.17c0,.09.06.11.12.12A.14.14,0,0,0,79,37.2l.09-.33a.78.78,0,0,1,0-.09l-.15-.15-.13-.13c-.08-.06-.11,0-.14,0a.7.7,0,0,0,.05.58A.08.08,0,0,1,78.7,37.17Z"/><path class="cls-2" d="M78.12,35.64a.23.23,0,0,0,.21,0,.2.2,0,0,0,0-.08,1.29,1.29,0,0,1,0-.19.18.18,0,0,0,0-.19.28.28,0,0,0-.19-.19s0,0-.06-.06,0-.05,0-.05A.11.11,0,0,0,78,35a1.26,1.26,0,0,0,0,.27A.56.56,0,0,0,78.12,35.64Z"/><path class="cls-2" d="M77.76,34.52a.25.25,0,0,0,.2-.18s0-.09,0-.13l-.24-.36s0,0-.07,0a.14.14,0,0,0,0,.18c0,.09,0,.13-.07.22s-.07.1,0,.2S77.67,34.52,77.76,34.52Z"/><path class="cls-2" d="M77.58,30.65a1.16,1.16,0,0,0-.22-.13s0,0-.06-.05-.07,0-.08,0-.08,0-.12,0l0,.19-.06,0a0,0,0,0,0,0,0,.48.48,0,0,0,.34.37l.11.05c.07,0,.11,0,.11-.08l0-.21.11,0A.83.83,0,0,0,77.58,30.65Z"/><path class="cls-2" d="M80,36.92a.23.23,0,0,0,.12,0,.5.5,0,0,0,.19-.13.19.19,0,0,0,0-.22,1.94,1.94,0,0,0-.23-.26c-.06-.06-.11,0-.16,0s-.09.16-.13.25a.43.43,0,0,0,0,.16h0C79.83,36.86,79.93,36.9,80,36.92Z"/><path class="cls-2" d="M78.3,33a.5.5,0,0,1,0,.12c0,.05,0,.21.07.22a.19.19,0,0,0,.16,0,.66.66,0,0,0,.2-.34.21.21,0,0,0,0-.08l-.19-.27s-.08,0-.09,0a1.77,1.77,0,0,0-.15.31S78.3,33,78.3,33Z"/><path class="cls-2" d="M79.09,33.88c0-.07-.1-.08-.15,0a1.83,1.83,0,0,0-.13.16l-.07.14a.64.64,0,0,0,0,.07h0l0,0a.17.17,0,0,0-.17.19l.18.09.07,0a.78.78,0,0,0,.35-.21c.07-.06.05-.21,0-.29A.78.78,0,0,1,79.09,33.88Z"/><path class="cls-2" d="M78.35,31.83a.92.92,0,0,0-.37,0c-.07,0-.09,0-.06.1a.35.35,0,0,0,.1.11l.21.12a.32.32,0,0,0,.25,0c.1,0,.14-.12.09-.24A.29.29,0,0,0,78.35,31.83Z"/><path class="cls-2" d="M79.77,35.2c-.13-.12-.16-.11-.24,0a.28.28,0,0,0,0,.25,0,0,0,0,1,0,0c-.08.13,0,.25,0,.37s.1.06.15.07a.14.14,0,0,0,.13-.07c.06-.1.14-.18.19-.28a.48.48,0,0,0,0-.17C80,35.33,79.85,35.27,79.77,35.2Z"/><path class="cls-2" d="M80.84,37.66a1,1,0,0,0-.29,0s-.09,0-.07.1a1.21,1.21,0,0,0,.08.25s.06.05.09.08a1.85,1.85,0,0,0,.14.14.37.37,0,0,0,.14.07s0,0,.1-.06.06,0,0,0a1.84,1.84,0,0,0-.06-.4C81,37.72,80.9,37.68,80.84,37.66Z"/><path class="cls-2" d="M81.43,40.36s0,0,.07.07v-.07h0s0,0,0,.06h0l0,0,.14.17a.59.59,0,0,0,.12-.17,1,1,0,0,0,.09-.27,1.31,1.31,0,0,0,0-.28c0-.06,0-.09-.09-.12a.41.41,0,0,0-.36,0l-.09,0c-.08,0-.11,0-.11.12a1.07,1.07,0,0,0,0,.25C81.35,40.25,81.35,40.33,81.43,40.36Z"/><path class="cls-2" d="M80.3,39.34l.6,0a.72.72,0,0,0,.29-.06.23.23,0,0,0,.09-.14s0-.08-.08-.1a2,2,0,0,1-.2-.11.4.4,0,0,0-.36.08l-.14.07-.21.09s0,0,0,0a1.47,1.47,0,0,1-.06.14Z"/><path class="cls-2" d="M77.22,31.54a.44.44,0,0,0-.09-.18c0-.05-.12-.08-.14-.15s-.11,0-.14,0a.34.34,0,0,0,0,.36l0,.09h0v-.05l.17.34c.11,0,.14,0,.15-.1A1.61,1.61,0,0,0,77.22,31.54Z"/><path class="cls-2" d="M79.6,38.7s0,0,0,0,.08-.07.09-.11a.13.13,0,0,0-.06-.16c-.11-.06-.21-.13-.34-.08s-.07,0-.1,0-.08,0-.1.05l-.07.25s0,.07,0,.1l.07,0-.08.19a.2.2,0,0,0,.26,0l.05.08C79.47,38.83,79.54,38.77,79.6,38.7Z"/><path class="cls-2" d="M79.55,40.74a.48.48,0,0,0,.32.15s.12,0,.17-.07,0,0,0,0h.06a.08.08,0,0,1,0,0c-.1,0-.11-.16-.17-.23a1.51,1.51,0,0,0-.23-.21s-.14,0-.17.09A.33.33,0,0,0,79.55,40.74Z"/><path class="cls-2" d="M78.32,38a.12.12,0,0,0,0-.1c0-.07-.06-.17-.15-.21l-.12-.11a.15.15,0,0,0-.21,0l-.23.17s0,0-.06.07l.13.11a.54.54,0,0,0,.45.14A.29.29,0,0,0,78.32,38Z"/><path class="cls-2" d="M78.76,39.71s-.07-.06-.06-.11a.7.7,0,0,0,0-.12.52.52,0,0,0-.22.47.32.32,0,0,0,.18.16h.14s.07,0,.08-.07.05-.1,0-.14a.3.3,0,0,1-.07-.11h0"/><path class="cls-2" d="M78.29,39a.19.19,0,0,0,.14-.26.37.37,0,0,0-.29-.26.17.17,0,0,0-.15.13.7.7,0,0,1,0,.14s0,.07,0,.08,0,.06,0,.09A.44.44,0,0,0,78.29,39Z"/><path class="cls-2" d="M77,36.8c0,.05.15,0,.2.09s.05,0,.07,0a1.11,1.11,0,0,0,.25,0,1.1,1.1,0,0,0,.16-.12,1.18,1.18,0,0,0-.15-.25,1.25,1.25,0,0,0-.24-.16.48.48,0,0,0-.21.19s-.08.09-.11.14a.14.14,0,0,0,0,.11Z"/><path class="cls-2" d="M76.78,36.4a.31.31,0,0,0,.06-.42.6.6,0,0,1-.08-.08l0,0c0-.07,0-.08-.1,0s-.1,0-.08.11-.11.17-.17.27l.21.28A1.19,1.19,0,0,0,76.78,36.4Z"/><path class="cls-2" d="M77.66,41.23c.2,0,.39.09.58.11s.16,0,.16-.18-.11-.18-.15-.28a.08.08,0,0,0-.07,0H77.8c-.09,0-.13,0-.18.09s-.06.09-.09.13,0,0,0,0A.16.16,0,0,0,77.66,41.23Z"/><path class="cls-2" d="M77,41.24a.26.26,0,0,1,.15,0s.08,0,.1,0a1.1,1.1,0,0,0,.14-.18.85.85,0,0,0,0-.17h0a.33.33,0,0,0-.21-.25l-.1,0s-.1-.05-.11,0a.32.32,0,0,0-.09.16c0,.06,0,.12,0,.19l0,0s0,0,0,.06a.2.2,0,0,0,0,.17s0,0,0,0l0,0S77,41.25,77,41.24Z"/><path class="cls-2" d="M76.13,40.4a.19.19,0,0,0,.27,0l.14-.21s0,0,0-.07a.6.6,0,0,0-.33-.37s-.07,0-.08,0A1.19,1.19,0,0,0,76,40a1.77,1.77,0,0,0,0,.23Z"/><path class="cls-2" d="M75.06,39a.92.92,0,0,0,.57.05.94.94,0,0,0,.22-.07c.07,0,.08-.08.05-.15s-.2-.23-.31-.32-.12,0-.18,0l-.23.08-.11.06-.14.1,0,.11H74.9l0,0Z"/><path class="cls-2" d="M75.13,40.39c.05.08.12,0,.19.06s.17-.2.07-.35-.13-.22-.28-.22A.52.52,0,0,0,75.13,40.39Z"/><path class="cls-2" d="M74,36.91c.05,0,.13-.06.11-.1a1.42,1.42,0,0,0-.21-.33s-.12,0-.18,0-.14,0-.19,0a.22.22,0,0,0-.14,0c0,.09,0,.12.06.16s.18.14.28.2A1.31,1.31,0,0,0,74,36.91Z"/><path class="cls-2" d="M74,38.23a.19.19,0,0,0,0-.27l-.1-.12-.06-.09s-.09-.07-.12,0l-.32.37s0,.05,0,.07l0,.13c0,.13,0,.15.15.16a1.41,1.41,0,0,0,.2,0A2.54,2.54,0,0,0,74,38.23Z"/><path class="cls-2" d="M73.93,39.83a1.87,1.87,0,0,0,.13-.4c0-.08,0-.16-.12-.21l-.18-.14c-.05,0-.11,0-.12,0a.63.63,0,0,0,0,.43,2.9,2.9,0,0,0,.19.29S73.92,39.85,73.93,39.83Z"/><path class="cls-2" d="M81.28,31.4a.48.48,0,0,0,0,.37.18.18,0,0,0,.07.05,1,1,0,0,0,.24,0,1.81,1.81,0,0,0,.28-.12.29.29,0,0,0,.06-.26s-.06-.07-.09-.07-.24-.1-.38-.07A.25.25,0,0,0,81.28,31.4Z"/><path class="cls-2" d="M74.57,58.68a.42.42,0,0,0-.1.34.06.06,0,0,1,0,.06c0,.1,0,.16.09.22l.3-.41a1.46,1.46,0,0,0-.07-.19C74.74,58.59,74.65,58.59,74.57,58.68Z"/><path class="cls-2" d="M69.74,59.23a.37.37,0,0,0-.23.24.41.41,0,0,1-.05.09s0,.1,0,.14l.57-.26s0,0,0,0S69.83,59.19,69.74,59.23Z"/><path class="cls-2" d="M78.34,56.06a.42.42,0,0,0-.16,0v0a.42.42,0,0,0-.21.16l-.1.11a.07.07,0,0,0,0,.11.5.5,0,0,0,.31.1h0a1.19,1.19,0,0,0,.33,0l0,0a.26.26,0,0,0,.07-.11s0-.09,0-.12,0-.08,0-.1S78.43,56.11,78.34,56.06Z"/><path class="cls-2" d="M73.51,58.13c-.11,0-.24.07-.28.21s-.06,0-.07.07,0,.07,0,.09a2.09,2.09,0,0,0,.14.17v0h.14l0,0s0,0,0,.06a.2.2,0,0,0,.22,0,.11.11,0,0,0,0-.05h.08a.24.24,0,0,1,0-.08.89.89,0,0,1,0-.14s0-.06,0-.08a1.79,1.79,0,0,0-.12-.24A.15.15,0,0,0,73.51,58.13Z"/><path class="cls-2" d="M71.17,59.34l-.21,0v0a.64.64,0,0,0-.27.22,0,0,0,0,1,0,0c-.13.14-.09.14.06.21a.25.25,0,0,0,.25,0l.09,0,.29-.13s0-.06,0-.1a.09.09,0,0,0,0-.07A.51.51,0,0,0,71.17,59.34Z"/><path class="cls-2" d="M68.5,60.61v0s-.1.09-.06.13a.24.24,0,0,0,.2.11.47.47,0,0,0,.15-.06l-.13-.35Z"/><path class="cls-2" d="M68.32,58.88s0,0,.05,0a.26.26,0,0,0,.28-.08.26.26,0,0,0-.09-.37h0l-.21.41Z"/><path class="cls-2" d="M70,58.45s-.05,0-.06,0a.22.22,0,0,0-.06.13.5.5,0,0,0,.21.36c.08.07.08.07.17,0l0,0,0,0a3.4,3.4,0,0,0-.26-.5Z"/><path class="cls-2" d="M69.11,58.37a.94.94,0,0,1,.09.12.07.07,0,0,0,.11,0,.45.45,0,0,0,.16-.28h0a1.73,1.73,0,0,0,.11-.32.06.06,0,0,0,0,0,.94.94,0,0,0-.1-.1s-.09,0-.12,0-.07,0-.1,0A2.39,2.39,0,0,0,69,58a.42.42,0,0,0,0,.16h0A.41.41,0,0,0,69.11,58.37Z"/><path class="cls-2" d="M69.68,60.63a.38.38,0,0,0-.1-.27.18.18,0,0,0-.25,0l-.14.15a.14.14,0,0,0,0,.11.61.61,0,0,0,.3.4A.45.45,0,0,0,69.68,60.63Z"/><path class="cls-2" d="M68,57.74c-.1-.06-.22,0-.21.16a.11.11,0,0,0,0,.05.43.43,0,0,0,.11.26l0,0c.09.11.09.11.23.07h.09s.09,0,.08-.07h0s.07,0,.06-.07,0-.12,0-.14A1.83,1.83,0,0,0,68,57.74Z"/><path class="cls-2" d="M66.22,61.14h-.06v0a2.52,2.52,0,0,0-.25.21.06.06,0,0,0,0,.06.52.52,0,0,0,.18.32.39.39,0,0,0,.11.06h.08a.65.65,0,0,0,.22-.34s0-.11,0-.13S66.35,61.13,66.22,61.14Z"/><path class="cls-2" d="M68.85,59.42h0c0-.07-.1,0-.14,0a1.1,1.1,0,0,0-.14.09.21.21,0,0,0-.06.22c0,.07.06.15.15.16h0c.06.05.07.05.11,0l.06-.13,0,0c.06,0,0,0,0-.09s0,0,0-.06,0,0,0,0a.14.14,0,0,1,0-.07A.09.09,0,0,0,68.85,59.42Z"/><path class="cls-2" d="M67.52,59.82c0,.11.14.15.24.21l.06-.06.2-.34s0-.06,0-.09,0-.08,0-.09l-.2-.05c-.13,0-.2.05-.28.11S67.47,59.7,67.52,59.82Z"/><path class="cls-2" d="M67.92,61a.15.15,0,0,0,0-.13s-.07-.1-.12-.09a1.87,1.87,0,0,0-.25,0l-.06,0c-.06,0-.07.05,0,.12a.94.94,0,0,0,.06.15l.1.12a.08.08,0,0,0,.08,0s.07-.05.11-.07,0,0,0,0,.08-.09.12-.13Z"/><path class="cls-2" d="M66.68,60.16s0,0,0,.05a.46.46,0,0,0,.15.33.48.48,0,0,0,.11.09.09.09,0,0,0,.07,0,.37.37,0,0,0,.21-.42.23.23,0,0,0-.3-.18Z"/><path class="cls-2" d="M66.93,61.51c-.09,0-.1.11-.1.2a1.62,1.62,0,0,1,.1.18l0,0c.06.11.08.12.19.05l.16-.13c.14-.11.08-.24,0-.32A.32.32,0,0,0,66.93,61.51Z"/><path class="cls-2" d="M66.16,58.69l-.07.1a.21.21,0,0,0,0,.23,1.21,1.21,0,0,0,.2.3.43.43,0,0,0,.13.09l0,0c.07,0,.1,0,.12,0a.53.53,0,0,0,0-.28s0,0,0,0,0-.15-.05-.2A1.47,1.47,0,0,0,66.16,58.69Z"/><path class="cls-2" d="M67.15,58.84c.08.07.17,0,.24,0a.51.51,0,0,0,.1-.24.28.28,0,0,0,0-.2s0,0,0,0a.23.23,0,0,0-.24,0,.71.71,0,0,0-.14.1s0,.06-.05.08h0A.42.42,0,0,0,67.15,58.84Z"/><path class="cls-2" d="M65.91,59.87a1.87,1.87,0,0,0-.17.31.18.18,0,0,0,.06.19l.12.15s.09,0,.11,0a.48.48,0,0,0,.07-.35c0-.09-.06-.18-.1-.27A.14.14,0,0,0,65.91,59.87Z"/><path class="cls-2" d="M79.46,56.34s-.1-.08-.16-.05a.78.78,0,0,0-.21.09s0,.11,0,.24l.13.14,0,0c.1.1.1.1.19,0a1,1,0,0,0,.13-.23A.16.16,0,0,0,79.46,56.34Z"/><path class="cls-2" d="M74.4,56.64l.35-.27a.31.31,0,0,0,.07-.09s0,0,0,0a.2.2,0,0,0,0-.11.2.2,0,0,0-.08-.08l0,0c0-.07-.13,0-.19,0a.5.5,0,0,0-.29.14c-.14.11-.11.19,0,.31l.11.15S74.35,56.67,74.4,56.64Z"/><path class="cls-2" d="M78.8,55.63a.4.4,0,0,0,0-.34c0-.06,0-.14-.07-.19a.76.76,0,0,0-.17-.13s0,0-.08.05,0,0,0,.06,0,.23-.08.35l.18.17a.51.51,0,0,0,.15.07A.08.08,0,0,0,78.8,55.63Z"/><path class="cls-2" d="M76.93,54.17l.18-.14c0-.05-.07-.12-.16-.14l-.1,0a.83.83,0,0,0-.34-.1c-.05,0-.09,0-.08.1a.32.32,0,0,0,.16.2l.17.12A.14.14,0,0,0,76.93,54.17Z"/><path class="cls-2" d="M79,57.2l-.27-.06-.05,0a.14.14,0,0,0-.16,0c0,.05,0,.09,0,.13l.15.15.14.13.09,0,.05-.12.11-.1,0-.06s0-.05,0-.06S79,57.21,79,57.2Z"/><path class="cls-2" d="M76.12,54.17h-.05c-.06-.11-.14,0-.22,0s-.26.28-.19.37a.33.33,0,0,0,.23.2.84.84,0,0,1,.14.06.08.08,0,0,0,.07,0,2,2,0,0,0,.13-.25s0-.08,0-.11,0-.09,0-.14Z"/><path class="cls-2" d="M77.41,54.63a.72.72,0,0,0-.14.2s0,.11,0,.16a.51.51,0,0,0,.32.21s.06,0,.08,0a.35.35,0,0,0,.07-.33.34.34,0,0,0,0-.1.29.29,0,0,0-.21-.19C77.48,54.53,77.45,54.59,77.41,54.63Z"/><path class="cls-2" d="M77.09,56.13a.39.39,0,0,0,0-.24s0-.08,0-.12-.1-.14-.17-.21a.09.09,0,0,0-.13,0,.38.38,0,0,0-.14.27s0,.05,0,.07a.42.42,0,0,0,.29.25l.08,0C77,56.21,77.07,56.18,77.09,56.13Z"/><path class="cls-2" d="M76.64,57c-.14-.06-.27-.13-.42-.18a.23.23,0,0,0-.16,0s-.07.06,0,.11.13.15.21.21a.48.48,0,0,0,.33.07.16.16,0,0,0,.13-.12S76.67,57,76.64,57Z"/><path class="cls-2" d="M70.84,60.19,70.42,60a.29.29,0,0,0-.16,0c-.05,0-.07.06,0,.12s.13.14.21.2a.46.46,0,0,0,.33.07c.08,0,.11-.06.13-.12S70.87,60.21,70.84,60.19Z"/><path class="cls-2" d="M76.87,57.86a2.21,2.21,0,0,0-.12.27s0,0,0,.06l.15.17.09.09s.06,0,.08,0l.09-.21,0-.06s0-.05,0-.07-.06-.14-.08-.2S77,57.74,76.87,57.86Z"/><path class="cls-2" d="M75.76,55.28a.45.45,0,0,1-.16,0c-.08,0-.12,0-.18.11a1.25,1.25,0,0,0,.11.18.35.35,0,0,0,.32.13l.32-.14a.41.41,0,0,0,.11-.12l-.18-.11A.41.41,0,0,0,75.76,55.28Z"/><path class="cls-2" d="M74.91,54.22a.67.67,0,0,0-.29.15c-.1.09-.08.15,0,.26s.09.14.14.21a.1.1,0,0,0,.14,0l.25-.25s0,0,0,0a.81.81,0,0,0,0-.16.25.25,0,0,0,0-.1l-.2-.1Z"/><path class="cls-2" d="M75.27,56.58a.35.35,0,0,0,.25.14s0,0,0,0a.51.51,0,0,0,.09-.16.91.91,0,0,0,0-.23.24.24,0,0,0-.16-.14.15.15,0,0,0-.08,0c-.05.08-.15.13-.17.24A.14.14,0,0,0,75.27,56.58Z"/><path class="cls-2" d="M74,55.74a.13.13,0,0,0,0-.18c0-.09,0-.12.08-.21s.06-.1,0-.21-.18-.08-.28-.07a.24.24,0,0,0-.19.17s0,.1,0,.14.16.23.24.35S73.94,55.77,74,55.74Z"/><path class="cls-2" d="M73.81,57.62a.35.35,0,0,0-.1-.11l-.21-.12a.34.34,0,0,0-.24,0c-.1,0-.14.13-.09.25a.28.28,0,0,0,.22.15.93.93,0,0,0,.37,0C73.82,57.7,73.85,57.67,73.81,57.62Z"/><path class="cls-2" d="M74.64,57.59h0v0a3.59,3.59,0,0,0-.17-.34c-.1,0-.13,0-.14.1a1.61,1.61,0,0,0,0,.31.33.33,0,0,0,.1.17s.11.08.14.16.1,0,.14,0a.3.3,0,0,0,0-.35A.36.36,0,0,0,74.64,57.59Z"/><path class="cls-2" d="M73.08,56.38a.37.37,0,0,0,.06.22l.07.08,0,0c0,.07,0,.08.1,0s.09,0,.07-.11.11-.17.18-.26l-.15-.2h0A2.58,2.58,0,0,0,73.08,56.38Z"/><path class="cls-2" d="M75.71,57.8s0,0,0,0,0-.17-.1-.21H75.4s-.06.05-.06.08a.08.08,0,0,0,0,.06s0,0,0,.06a2.07,2.07,0,0,1,0,.22c0,.06,0,.1.07.13s.12.09.18.13h.08l0,0c.11,0,.16-.1.17-.22a.15.15,0,0,0,0-.11Z"/><path class="cls-2" d="M77.69,57c-.08,0-.07-.1,0-.16s0,0,0,0-.07-.06-.11-.07h-.07a.17.17,0,0,0,0,.23.13.13,0,0,0-.11.08s0,.09,0,.12a1,1,0,0,0,.15.21s.08,0,.12.05l.1.07.06,0c0-.05.1-.08.08-.16a.65.65,0,0,0,0-.13.08.08,0,0,1,0,0C77.84,57.13,77.77,57.06,77.69,57Z"/><path class="cls-2" d="M28.49,75.11a.38.38,0,0,1,.33,0,.14.14,0,0,0,.09,0c.08,0,.12,0,.11.1l-.53.32,0,0C28.42,75.36,28.41,75.16,28.49,75.11Z"/><path class="cls-2" d="M27.11,75.83c0-.06.09-.11.13-.16h0a.69.69,0,0,1,.35,0h0c.19,0,.16,0,.1.19a.26.26,0,0,1-.21.15l-.1,0-.29.1a.13.13,0,0,1-.09-.06.17.17,0,0,1,0-.1A1.19,1.19,0,0,1,27.11,75.83Z"/><path class="cls-2" d="M30.38,74.34v0s.08.1,0,.14a.22.22,0,0,1-.21.07.39.39,0,0,1-.14-.08l.19-.32Z"/><path class="cls-2" d="M30.65,75.56h0c.05,0,.14,0,.14.06a.26.26,0,0,1-.08.21.69.69,0,0,1-.15.07l-.14-.36Z"/><path class="cls-2" d="M28.91,73.34v.07a.33.33,0,0,1-.28.13.27.27,0,0,1-.17-.34,0,0,0,0,0,0,0l.43.17Z"/><path class="cls-2" d="M27.45,74.44a.07.07,0,0,1,.07,0,.31.31,0,0,1,.13.06.46.46,0,0,1,.08.41c0,.11,0,.11-.12.12h-.08a3.58,3.58,0,0,1-.14-.54Z"/><path class="cls-2" d="M28,73.67s0,.1,0,.15,0,.1-.07.09a.46.46,0,0,1-.3-.11h0a1.22,1.22,0,0,1-.29-.17s0,0,0,0a.32.32,0,0,1,0-.14s.06-.07.07-.1,0-.06.08-.06a1.67,1.67,0,0,1,.32,0c.05,0,.09.06.14.09h0A.45.45,0,0,1,28,73.67Z"/><path class="cls-2" d="M29.61,76.47a.68.68,0,0,0,0,.14s0,.1-.08.09a.54.54,0,0,1-.3-.1h0a1.22,1.22,0,0,1-.29-.17s0,0,0,0a.61.61,0,0,1,0-.14s.07-.07.07-.1,0-.06.08-.06a1.67,1.67,0,0,1,.32,0c.05,0,.09.06.14.09h0A.46.46,0,0,1,29.61,76.47Z"/><path class="cls-2" d="M29.56,75.69a.38.38,0,0,1-.1-.27.17.17,0,0,1,.18-.17l.2,0a.18.18,0,0,1,.09.06.57.57,0,0,1,0,.5A.45.45,0,0,1,29.56,75.69Z"/><path class="cls-2" d="M28.53,72.11a.15.15,0,0,1,.26,0l0,0a.4.4,0,0,1,.09.27v0c0,.14,0,.14-.12.21s-.05,0-.07,0-.08,0-.11,0h0s-.07,0-.09,0-.07-.09-.07-.14A2.23,2.23,0,0,1,28.53,72.11Z"/><path class="cls-2" d="M32.86,73.46s0,0,0,0v0h.33a.09.09,0,0,1,.05,0,.56.56,0,0,1,.07.36l0,.12a.12.12,0,0,1-.07,0,.62.62,0,0,1-.39-.1s-.09-.06-.09-.09S32.75,73.54,32.86,73.46Z"/><path class="cls-2" d="M28.81,74.19l0,0c0-.13.1-.11.16-.13a2,2,0,0,1,.24,0,.28.28,0,0,1,.27.18c0,.11.09.21,0,.32v0c0,.11,0,.11-.13.08l-.19-.07s0,0,0,0-.11,0-.14-.06,0,0-.09,0l-.05,0-.09-.06A.13.13,0,0,1,28.81,74.19Z"/><path class="cls-2" d="M30.22,73.44a.51.51,0,0,1,0,.32H30.1l-.38-.12a.25.25,0,0,1-.09,0,.1.1,0,0,1,0-.09c0-.06.08-.11.12-.18s.18-.09.28-.1S30.18,73.32,30.22,73.44Z"/><path class="cls-2" d="M31.73,74.29a.16.16,0,0,1-.12-.14.2.2,0,0,1,0-.2,2.82,2.82,0,0,1,.29-.18l.08,0c.08,0,.12,0,.16.06a.63.63,0,0,1,.07.22.74.74,0,0,1,0,.21.11.11,0,0,1,0,.09l-.18,0h0c-.09,0-.16,0-.25,0A.13.13,0,0,0,31.73,74.29Z"/><path class="cls-2" d="M31.08,73.3l.05,0a.45.45,0,0,1,.11.35.36.36,0,0,1,0,.14s0,0,0,0a.39.39,0,0,1-.44-.17.23.23,0,0,1,.11-.33A2.1,2.1,0,0,1,31.08,73.3Z"/><path class="cls-2" d="M31.93,74.76c.11,0,.18,0,.25.12s0,.15,0,.23v0c0,.15,0,.17-.13.19l-.25,0c-.21,0-.27-.15-.22-.32A.41.41,0,0,1,31.93,74.76Z"/><path class="cls-2" d="M30.78,71.58l.12,0a.25.25,0,0,1,.16.2,1.84,1.84,0,0,1,.06.41.38.38,0,0,1,0,.17s0,0,0,0-.06.1-.14,0a.52.52,0,0,1-.22-.22l0,0c-.11,0-.14-.1-.11-.21A1.57,1.57,0,0,1,30.78,71.58Z"/><path class="cls-2" d="M30,72.5c0,.11-.11.17-.24.15a.52.52,0,0,1-.25-.14.28.28,0,0,1-.14-.18.08.08,0,0,1,0-.07.29.29,0,0,1,.25-.15,1.28,1.28,0,0,1,.19,0,.35.35,0,0,1,.11,0v0A.44.44,0,0,1,30,72.5Z"/><path class="cls-2" d="M31.9,72.48a2.07,2.07,0,0,1,.4.13c.07,0,.09.13.09.22s0,.15,0,.22,0,.11-.11.08a.68.68,0,0,1-.34-.26c0-.11-.09-.21-.12-.32S31.88,72.47,31.9,72.48Z"/><path class="cls-2" d="M30.64,74.85l.25-.06c.07,0,.14.06.17.15s0,.09,0,.13l0,.08s0,.1,0,.1l-.4,0a.07.07,0,0,1-.05,0,.46.46,0,0,1-.07-.07c-.08-.08-.09-.1,0-.19A1.42,1.42,0,0,1,30.64,74.85Z"/><path class="cls-2" d="M27.87,76.54a3,3,0,0,1,.18-.41.5.5,0,0,1,.14-.1s.09,0,.1.07,0,.19,0,.29a.5.5,0,0,1-.2.27.15.15,0,0,1-.18,0A.12.12,0,0,1,27.87,76.54Z"/><path class="cls-2" d="M40.75,71.36a.4.4,0,0,1,.35,0l0,0c.11,0,.14.09.18.17l-.49.12-.15-.13C40.6,71.49,40.63,71.4,40.75,71.36Z"/><path class="cls-2" d="M36.13,71.59a.38.38,0,0,1,.11-.11h0a.39.39,0,0,1,.26,0h.15s.08,0,.07.09a.49.49,0,0,1-.17.28h0c0,.11-.15.17-.22.26h0a.33.33,0,0,1-.14,0s-.05-.08-.08-.08-.05-.06,0-.1A1.77,1.77,0,0,1,36.13,71.59Z"/><path class="cls-2" d="M41.9,69.68c.07-.09.13-.2.27-.21s.06,0,.09,0,.08,0,.1,0a.88.88,0,0,1,.12.19h0l0,.13h0s0,0,0,.06a.19.19,0,0,1-.09.2l0,0,0,.07-.07,0h-.15s-.06,0-.08,0a1.12,1.12,0,0,1-.2-.18S41.88,69.71,41.9,69.68Z"/><path class="cls-2" d="M42,70.78a.18.18,0,0,1,.07-.08.64.64,0,0,1,.5.06.44.44,0,0,1-.22.37.37.37,0,0,1-.29.05.18.18,0,0,1-.13-.21A1.07,1.07,0,0,1,42,70.78Z"/><path class="cls-2" d="M35.42,72.76c0-.05,0-.12.08-.14a.81.81,0,0,1,.22-.07c.06,0,.11,0,.16.18v.19a0,0,0,0,1,0,0c0,.14,0,.15-.14.13a.84.84,0,0,1-.25-.09C35.39,72.94,35.38,72.85,35.42,72.76Z"/><path class="cls-2" d="M40,69.29l-.53,0-.14,0,0,0a.75.75,0,0,1-.07-.12s0-.09,0-.14,0,0,0,0,.08-.14.15-.18a.56.56,0,0,1,.38-.1c.19,0,.24.08.27.24a1.64,1.64,0,0,1,0,.22C40.11,69.24,40.1,69.28,40,69.29Z"/><path class="cls-2" d="M35.38,71.53c-.1-.06-.2-.12-.22-.26s-.06-.12-.06-.18a.56.56,0,0,1,0-.22s.06,0,.09,0a.08.08,0,0,1,.07,0l.29.2c0,.09,0,.17,0,.25a.46.46,0,0,1-.07.16S35.43,71.55,35.38,71.53Z"/><path class="cls-2" d="M36.29,69l-.19.13c0-.06-.09-.11-.08-.2a.37.37,0,0,0,0-.11.73.73,0,0,1,0-.36s.06-.06.11,0a.29.29,0,0,1,.14.21l.06.21A.13.13,0,0,1,36.29,69Z"/><path class="cls-2" d="M36.49,73.24l.16-.22s0,0,0,0a.13.13,0,0,1,.14-.08c.06,0,.06.07.06.12s0,.14,0,.21a1.21,1.21,0,0,1,0,.19l0,.09-.12,0h-.14s0,0,0-.07,0,0,0,0S36.47,73.27,36.49,73.24Z"/><path class="cls-2" d="M36.2,69.84a.12.12,0,0,1,.06-.08.56.56,0,0,0,.26-.12.31.31,0,0,1,.17,0H37a.13.13,0,0,1,0,.19.4.4,0,0,1-.18.16l-.16.08s-.08,0-.11,0L36.47,70a1.2,1.2,0,0,1-.2,0A.16.16,0,0,1,36.2,69.84Z"/><path class="cls-2" d="M36.84,68.74s0,0,0,0h0c0-.13.09-.12.15-.16s.38,0,.39.14a.38.38,0,0,1,0,.31l-.06.13a.13.13,0,0,1-.06,0L37,69.06s-.09,0-.06-.1-.06-.06-.09-.1Z"/><path class="cls-2" d="M37.15,70.51a.86.86,0,0,1,.23,0s.07.09.09.14a.49.49,0,0,1-.1.37.08.08,0,0,1-.08,0A.37.37,0,0,1,37,70.9L37,70.81a.28.28,0,0,1,0-.28C37,70.48,37.09,70.5,37.15,70.51Z"/><path class="cls-2" d="M38.56,72.82s-.07,0-.08,0a.13.13,0,0,0-.11-.06.15.15,0,0,1-.11-.19,1.63,1.63,0,0,1,.11-.23c.07-.1.14-.09.19,0a0,0,0,0,0,0,0,.68.68,0,0,1,0,.42A.07.07,0,0,1,38.56,72.82Z"/><path class="cls-2" d="M38.05,70.68a.31.31,0,0,1-.16-.18.61.61,0,0,0,0-.12c-.06-.08,0-.17,0-.26a.08.08,0,0,1,.1-.09.35.35,0,0,1,.28.1.25.25,0,0,1,0,.07.4.4,0,0,1,0,.37.59.59,0,0,0,0,.08S38.11,70.7,38.05,70.68Z"/><path class="cls-2" d="M38.23,71.4c.06-.14.12-.28.19-.42a.25.25,0,0,1,.13-.09c.05,0,.09,0,.1.06a.41.41,0,0,1,0,.29.47.47,0,0,1-.2.28.15.15,0,0,1-.18,0S38.22,71.43,38.23,71.4Z"/><path class="cls-2" d="M39.33,71.87a1.59,1.59,0,0,1,.27.12l0,.05v.35s0,.06-.08,0l-.21-.1-.06,0s0,0,0,0-.05-.14-.07-.21S39.18,71.84,39.33,71.87Z"/><path class="cls-2" d="M38,69.06l.13-.09c.06-.06.12,0,.21,0s0,.14,0,.21a.35.35,0,0,1-.16.31l-.33.11a.44.44,0,0,1-.16,0c0-.08,0-.14.06-.2A.4.4,0,0,1,38,69.06Z"/><path class="cls-2" d="M37.89,67.77a.68.68,0,0,1,.31-.08c.15,0,.16,0,.2.17a2.13,2.13,0,0,1,0,.25.08.08,0,0,1-.09.1H38l-.12-.11L37.78,68c0-.06,0-.13.08-.2A0,0,0,0,1,37.89,67.77Z"/><path class="cls-2" d="M39.59,70.05a.42.42,0,0,1-.12.34s0,0-.07,0a.73.73,0,0,1-.22-.09,2,2,0,0,1-.21-.2.32.32,0,0,1,0-.26s.07,0,.11,0,.25,0,.36.07A.21.21,0,0,1,39.59,70.05Z"/><path class="cls-2" d="M39.47,68.09c-.07,0-.12,0-.15-.11s-.06-.11-.2-.11-.11,0-.14-.14.08-.19.15-.24a.24.24,0,0,1,.27,0,.19.19,0,0,1,.05.13c0,.14,0,.28.06.42S39.51,68.09,39.47,68.09Z"/><path class="cls-2" d="M41,69.73a.38.38,0,0,1,0-.15,2.09,2.09,0,0,1,.08-.23.38.38,0,0,1,.15-.2c.09-.05.19,0,.23.12a.28.28,0,0,1-.06.26,1.32,1.32,0,0,1-.29.24C41.05,69.8,41,69.79,41,69.73Z"/><path class="cls-2" d="M33.08,75.13a.32.32,0,0,1,0-.14,2,2,0,0,1,0-.24.32.32,0,0,1,.12-.22c.08-.06.18,0,.24.09a.27.27,0,0,1,0,.27.92.92,0,0,1-.25.27S33.1,75.19,33.08,75.13Z"/><path class="cls-2" d="M40.45,70.49h0l0,0-.09-.37c.06-.08.09-.09.17,0a2.29,2.29,0,0,1,.21.23.41.41,0,0,1,0,.19c0,.07,0,.14,0,.21s0,.1-.1.09-.2-.13-.24-.26Z"/><path class="cls-2" d="M40.82,68.23a.35.35,0,0,1,.1.2.4.4,0,0,1,0,.11.17.17,0,0,0,0,.07c0,.07,0,.08,0,.08s-.11,0-.14,0-.19,0-.3-.08a1.94,1.94,0,0,1,0-.24h0A2.62,2.62,0,0,1,40.82,68.23Z"/><path class="cls-2" d="M35.72,70.34s0,0,0,0a.18.18,0,0,1,.31,0,.15.15,0,0,1,0,.11.1.1,0,0,1-.1,0c-.07,0-.1,0-.14.08s-.08.09-.12.09a.14.14,0,0,1-.1-.05s0,0,0,0h0s-.06,0-.11-.07a1.91,1.91,0,0,1,0-.24.11.11,0,0,1,.06-.09.18.18,0,0,1,.1.06h0A.76.76,0,0,1,35.72,70.34Z"/><path class="cls-2" d="M39.56,71.17l0,0c-.13-.06-.14-.1-.05-.22a.92.92,0,0,1,.14-.14h.1a.11.11,0,0,1,0,.08s0,0,.06,0A1.18,1.18,0,0,0,40,71a.14.14,0,0,1,0,.15c0,.08,0,.15,0,.22a.12.12,0,0,1-.05,0h0a.22.22,0,0,1-.27,0s-.05-.06,0-.11S39.56,71.21,39.56,71.17Z"/><path class="cls-2" d="M37.31,72.13c0-.09,0-.12-.07-.15s0,0,0,0a.5.5,0,0,1,0-.13.06.06,0,0,1,.05,0,.19.19,0,0,1,.19.15.15.15,0,0,1,.13,0s.1,0,.1.06a.74.74,0,0,1,0,.26.31.31,0,0,1,0,.12l0,.11,0,.08c-.06,0-.12,0-.16-.07a.75.75,0,0,1-.06-.13h0C37.28,72.31,37.28,72.22,37.31,72.13Z"/><path class="cls-2" d="M74.51,25.73a2,2,0,0,1-.74-1.17l-1.85.7A3.61,3.61,0,0,0,74,26.87a3.24,3.24,0,0,0,1.51.07l-.33-.87A2.49,2.49,0,0,1,74.51,25.73Z"/><path class="cls-2" d="M80.54,24.49a2,2,0,0,1,1.17-.74L81,21.9A3.65,3.65,0,0,0,79.39,24a3.36,3.36,0,0,0-.06,1.51l.87-.34A2.17,2.17,0,0,1,80.54,24.49Z"/><path class="cls-2" d="M77.37,24.19a2,2,0,0,1,.3-1.35L75.87,22a3.61,3.61,0,0,0,.33,2.6,3.45,3.45,0,0,0,1,1.12l.38-.85A2.68,2.68,0,0,1,77.37,24.19Z"/><path class="cls-2" d="M94.5,34.7a17.22,17.22,0,0,1-3.93,6.08,16.77,16.77,0,0,1-6.06,3.89,16.93,16.93,0,0,1-14-.91l-.84,1.58a19.34,19.34,0,0,0,4.08,1.54,30.8,30.8,0,0,1,3.87,5.27,5.24,5.24,0,0,0-6.56,4.18A4.81,4.81,0,0,0,64,59.16a12.47,12.47,0,0,0-3.81-2.78A12,12,0,0,0,44,62.56a12.38,12.38,0,0,0-1,4.53,5.8,5.8,0,0,0-9.77,3.35,5.24,5.24,0,0,0-7.51,1.89c-.4-1.17-.75-2.36-1.06-3.57a40.58,40.58,0,0,1-1.22-9.62c0-1,0-2.06.11-3.08a10.91,10.91,0,0,1,3.67-1.91l-.64-1.67a12.68,12.68,0,0,0-2.79,1.37,32.24,32.24,0,0,1,4.73-13.12,26,26,0,0,1,6.54-7c.12-.1.25-.18.38-.27a20.93,20.93,0,0,0,.66,5.83,17.09,17.09,0,0,0,4.15,7.46,22.36,22.36,0,0,0,7,4.81h0l.51.23.41-.34,6.54-5.41-.76-1-6.43,4.65a20.21,20.21,0,0,1-5.95-4.19,16.45,16.45,0,0,1-2.29-3.1,15.44,15.44,0,0,1-1.42-3.59,19.49,19.49,0,0,1-.55-6.56,26.81,26.81,0,0,1,6.39-2.63A26,26,0,0,1,53.2,29a29.78,29.78,0,0,1,9.23,2.75l.66-1.34a29.57,29.57,0,0,0-9.69-3.06A27.5,27.5,0,0,0,43.22,28a27.13,27.13,0,0,0-5.71,2.15,28,28,0,0,1,1.9-6.64l-1.62-.76a29.33,29.33,0,0,0-1.39,4,30.42,30.42,0,0,0-.8,4.13c0,.13,0,.25,0,.38-.54.34-1.08.69-1.59,1.07a28.17,28.17,0,0,0-7,7.45,34.52,34.52,0,0,0-5.21,15.7,12.37,12.37,0,0,0-3.63,7.88A12.56,12.56,0,0,0,18.71,68l1.09-.41a11,11,0,0,1-.35-4.16,11.18,11.18,0,0,1,1.28-4.08,10.91,10.91,0,0,1,.9-1.38c0,.38,0,.77,0,1.16A42.07,42.07,0,0,0,22.9,69.2,44.31,44.31,0,0,0,24.4,74c.32.87.65,1.73,1,2.59,0,0,0,0,0,.06h0c.26.67.52,1.33.77,2l.32.83.84-.32L45,72.49l.84-.32-.32-.83a10.8,10.8,0,0,1,.14-8.08A10.22,10.22,0,0,1,59.41,58a10.75,10.75,0,0,1,5.48,5.92l.32.84.84-.32,15.39-5.86.8-.31L82,57.47a32.8,32.8,0,0,0-5.45-10.11l.78.07a18.73,18.73,0,0,0,7.78-1.26,18.34,18.34,0,0,0,6.55-4.35,18.84,18.84,0,0,0,4.15-6.65Zm-57,32.81a4,4,0,0,1,5.19,2.33l.53,1.39-7.52,2.86-.53-1.39A4,4,0,0,1,37.52,67.51Zm-8.44,4.08a3.46,3.46,0,0,1,4.46,2L34,74.75l-6.47,2.46c-.15-.4-.31-.81-.47-1.22A3.46,3.46,0,0,1,29.08,71.59ZM73,58.45A3.47,3.47,0,0,1,79.49,56L80,57.23,73.48,59.7l-.36-.94Zm-7.23,3.11a3,3,0,1,1,5.67-2.16l.36.94-5.59,2.13Z"/></svg>