<?xml version="1.0" encoding="utf-8"?>
<!-- Generator: Adobe Illustrator 22.0.1, SVG Export Plug-In . SVG Version: 6.00 Build 0)  -->
<svg version="1.1" id="Layer_1" xmlns="http://www.w3.org/2000/svg" xmlns:xlink="http://www.w3.org/1999/xlink" x="0px" y="0px"
	 viewBox="0 0 171.3 171" style="enable-background:new 0 0 171.3 171;" xml:space="preserve">
<style type="text/css">
	.st0{fill:#E7B00C;}
	.st1{fill:#2E5B66;}
</style>
<title>Artboard 19</title>
<path class="st0" d="M148.7,33.1c0.4-1.2,0.5-2.5,0.3-3.8c-0.1-0.5-0.3-1-0.6-1.4c-0.2-0.3-0.4-0.6-0.6-0.9
	c-0.2-0.2-0.4-0.5-0.7-0.7c-0.7-0.7-1.6-1.1-2.5-1.3c-0.4,0-0.8,0-1.2,0.1c-0.4,0-0.8,0-1.1-0.1c-1.1-0.7-2.3-0.9-3.5-0.6
	c-0.7,0.1-1.5,0.2-2.2,0.3c-0.3,0.1-0.6,0.1-0.8,0.2c-0.7,0.2-1.4,0.5-2.1,0.7c-0.7,0.2-1.3,0.8-1.6,1.5c-0.6,1.1-1.1,2.1-1.6,3.3
	c-0.4,0.9-0.7,1.9-0.9,2.8c-0.1,0.8-0.1,1.6-0.1,2.4c0,0.2,0.1,0.4,0.1,0.5c-0.1,1.1,0.1,2.3,0.6,3.3c0.2,0.9,1.1,1.5,2,1.5
	c0.7,0.1,1.5,0.3,2.2,0.5c0.8,0.1,1.7,0.2,2.5,0.3c0.7,0,1.3,0,2,0c0,0,0.1,0,0.1,0c0.4-0.4,1-0.6,1.6-0.5c0.6,0.1,1.2,0,2,0
	l0.1-0.3c0.5-0.2,0.9-0.4,1.3-0.7c0.8-0.5,1.5-1,2.2-1.6c0.6-0.6,1.1-1.2,1.4-1.9C148,35.4,148.4,34.3,148.7,33.1z M136.2,39.1
	c0.4,0,0.8,0,1.1,0s0.8,0.1,1.3,0.2c-0.2,0.1-0.2,0.2-0.3,0.2c-0.6,0.1-1.1,0.1-1.7,0.1C136.3,39.7,136.1,39.4,136.2,39.1
	L136.2,39.1z"/>
<path class="st0" d="M48.2,85.8c-0.1,0.2-0.1,0.4-0.2,0.5c1.7,0,3.4,0,5.1,0h9.3c1.4,0,2.6,0.5,3-0.8c0.2-0.8-0.8-2.6-1.2-3.2
	c-0.2-0.2-0.4-0.3-0.6-0.3c-0.6,0.1-1.1-0.1-1.5-0.6c-0.2-0.3-0.6-0.5-0.8-0.8c-0.1-0.2-0.2-0.5-0.2-0.8c0-0.1,0-0.3-0.1-0.4
	c-0.4-0.6-1.1-1-1.8-1.1l-2.3-0.2c-0.1,0-0.2,0-0.3,0.1c-0.6,0.5-1.4,0.8-2.2,0.8c-1.3,0.4-2.5,1.2-3.4,2.3
	c-0.3,0.3-0.5,0.6-0.8,0.8C49.2,83.2,48.5,84.5,48.2,85.8z M55.3,82.2c0.2-0.3,0.5-0.3,0.8-0.1c0.1,0,0.1,0.1,0.1,0.1
	c0.3,0.2,0.5,0.4,0.8,0.5c0,0,0.1,0,0.2,0.1c0-0.1,0-0.2-0.1-0.3c0.7,0.3,0.9,0.7,0.7,1.3c0,0.2,0,0.5,0.1,0.7
	c0,0.4,0.1,0.7,0.2,1.1c0,0.1-0.1,0.2-0.2,0.3s-0.2,0-0.3-0.1c-0.4-0.3-0.7-0.7-1.1-1.1c0.1,0,0.2-0.1,0.3-0.1
	c0.6-0.1,0.7-0.4,0.4-0.9c-0.3-0.6-0.8-1-1.5-1.2C55.5,82.3,55.4,82.3,55.3,82.2z"/>
<path class="st0" d="M117.6,72.1c0.2,0.5,0.4,0.9,0.7,1.3c0.7,1,1,2.4,2.2,2.9c0.4,0.1,0.8,0.2,1.2,0.3l1.6-0.2
	c1.2-0.2,2.4-0.3,3.6-0.5c1-0.2,2-0.4,3-0.6c0.8-0.2,1.5-0.4,2.3-0.6c0.2,0,0.3-0.1,0.4-0.3c0.5-0.9,1-1.7,1.5-2.5
	c0.6-1,1.1-2.1,1.2-3.3c0.1-0.3,0-0.6-0.1-0.9c-0.3-0.5-0.2-1,0.1-1.5c0.1-0.1,0.1-0.2,0.1-0.3c-0.3-1,0.1-2-0.1-3
	c-0.1-0.5,0-1-0.6-1.3c0,0-0.1-0.1-0.1-0.1c-0.2-1.5-1.4-2-2.6-2.3c-0.7-0.1-1.4-0.4-2-0.7c-0.4-0.2-0.9-0.4-1.4-0.4
	c-0.1,0-0.1,0-0.2,0c-0.8,0.8-1.8,0.4-2.7,0.5c-0.3,0-0.6,0-0.9,0c-0.1,0-0.3,0-0.3,0c-0.5,0.6-1.2,0.5-1.8,0.7
	c-0.3,0.1-0.6,0.3-0.9,0.5c-0.3,0.3-0.8,0.5-1.2,0.4c-0.7-0.1-1,0.4-1,1s0.1,1.2,0.1,1.9c0,0.6-0.3,1.2-0.7,1.7
	c-1.1,1.2-1.7,2.6-1.9,4.2C116.8,69.8,117,71,117.6,72.1z M124.3,70.8c0.2,0,0.4,0,0.7,0.1c0.2,0.1,0.3,0.3,0.3,0.5
	c0,0.2-0.2,0.3-0.3,0.5c-0.1-0.1-0.3-0.3-0.4-0.4C124.4,71.3,124.4,71,124.3,70.8z M123.8,68.1c0-0.5,0.1-0.9,0.2-1.4
	c0.3,0.4,0.5,0.9,0.7,1.3c0.1,0.3,0,0.5-0.1,0.7c-0.1,0.1-0.5,0.1-0.6,0S123.8,68.3,123.8,68.1z M122.3,65c0.1-0.1,0.2-0.2,0.3-0.3
	c0.1,0,0.1-0.1,0.2-0.1l0,0l0.5-0.4l0.3,0.7C123.1,65.1,122.8,65.5,122.3,65z"/>
<path class="st0" d="M17.1,36.8c-0.2,0.3-0.3,0.8-0.1,1.2c0.1,0.2,0.1,0.5,0.1,0.8c-0.1,0.9-0.5,1.8-1,2.6c-0.4,0.6-0.9,1.3-1.2,2
	c-0.1,0.1-0.2,0.2-0.3,0.2c-0.6,0.2-1.2,0.3-1.8,0.5c-0.8,0.2-1.6,0.3-2.4,0.5c-0.4,0.1-0.8,0.1-1.2,0.2c2.2-4,4.7-7.8,7.5-11.4
	c0.2,0.2,0.2,0.6,0.3,0.9c0.1,0.8-0.2,1.6,0.1,2.3C17.2,36.7,17.2,36.8,17.1,36.8z"/>
<path class="st0" d="M79.8,1.7c-0.2-0.6-0.2-1.1-0.1-1.7c-1.2,0.1-2.5,0.2-3.7,0.3l-0.1,0c-1.2,0.1-2.3,0.3-3.5,0.4
	C68.9,1.3,65.3,2,61.9,3c-0.2,0.6-0.4,1.2-0.5,1.8C61.3,5.9,61.5,7,62.1,8c0.2,0.5,0.4,0.9,0.7,1.3c0.7,1,1,2.4,2.2,2.9
	c0.4,0.1,0.8,0.2,1.2,0.3l1.6-0.2c1.2-0.2,2.4-0.3,3.6-0.6c1-0.2,2-0.4,3-0.6c0.8-0.2,1.5-0.4,2.3-0.6c0.1,0,0.3-0.1,0.4-0.3
	c0.5-0.9,1-1.7,1.5-2.5c0.7-1,1.1-2.1,1.3-3.3c0.1-0.3,0-0.6-0.1-0.9c-0.3-0.5-0.2-1,0.1-1.5C79.8,2,79.9,1.8,79.8,1.7z M69,4.7
	c-0.2,0.1-0.4,0.1-0.6,0c-0.1-0.1-0.1-0.4-0.1-0.6c0-0.5,0.1-0.9,0.2-1.4c0.2,0.4,0.5,0.9,0.7,1.3C69.2,4.2,69.2,4.4,69,4.7z
	 M69.6,7.3c0,0.2-0.2,0.3-0.3,0.5c-0.1-0.1-0.3-0.3-0.4-0.4c-0.1-0.2-0.2-0.5-0.3-0.7c0.3,0.1,0.5,0,0.7,0.1
	C69.5,7,69.6,7.1,69.6,7.3L69.6,7.3z"/>
<path class="st0" d="M106.8,46.9c0,0,0,0.1,0.1,0.2c-0.8,0-0.8,0.6-0.7,1.1c0,0.4,0.1,0.9,0.2,1.2c0.2,0.3,0.6,0.5,0.9,0.9
	c-0.3,0.6,0.2,1,0.5,1.5c0.4,0.7,0.9,1.3,1.4,1.9c0.2,0.2,0.4,0.3,0.6,0.5c0.9,0.4,1.8,0.6,2.8,0.6c1.2,0.1,2.3-0.1,3.4-0.5
	c0.8-0.2,1.7-0.4,2.5-0.6s1.8-0.6,2.7-0.9c0.4-0.1,0.7-0.2,1-0.4c0.5-0.5,0.9-1.1,1.3-1.7c0.8-1.4,1.2-2.9,1.3-4.4
	c0.1-1.7-0.3-3.3-1.2-4.7c-0.2-0.5-0.5-1-0.8-1.4c-0.4-0.5-0.8-1-1.2-1.5c-0.2-0.2-0.5-0.3-0.7-0.1c0,0-0.1,0.1-0.1,0.1
	c-0.2,0.2-0.5,0.2-0.7,0c-0.2-0.2-0.5-0.3-0.8-0.3c-1.8-0.2-3.6-0.4-5.4-0.6c-0.3,0-0.6,0-0.9,0.2c-1.9,1-3.6,2.2-5.2,3.7
	c-0.4,0.4-0.9,0.8-1.3,1.3c-0.2,0.3-0.3,0.6-0.4,0.9c-0.1,0.8-0.1,1.5-0.2,2.3c-0.1,0.4,0,0.7,0.5,0.8
	C106.6,46.8,106.7,46.8,106.8,46.9z M116.4,50.7h0.8C116.9,51.3,116.8,51.3,116.4,50.7z"/>
<path class="st0" d="M66.5,49.4c-0.7-0.9-1.6-1.6-2.7-1.9c-0.5-0.2-1-0.6-1.2-1.1c-0.1-0.1-0.2-0.3-0.3-0.4C61,45.3,59.5,45,58,45
	c-0.2,0-0.5,0.2-0.7,0.4s-0.7,0.6-1.1,0.1c-0.2-0.2-1.6,0-1.9,0.2s-0.9,0.5-1.2,0.8c-0.3,0.3-0.6,0.6-0.8,1
	c-0.7,0.7-1.1,1.5-1.3,2.4c-0.1,1.1-0.2,2.2-0.1,3.3c0,0.7,0.7,1,1.2,1.2s0.5,0.4,0.5,0.8c-0.4,0-0.8,0-1.2,0
	c-0.4-0.1-0.8,0.1-1,0.5c-0.3,0.3,0,0.5,0.1,0.8c0.5,1.2,0.9,2.5,1.4,3.8c0.3,1.3,1.5,2.2,2.8,2.3c0.8,0,1.5,0.1,2.3,0.3
	c1.1,0.2,2.1,0.2,3.2,0c0.2,0,0.3,0,0.4,0s0.5,0,0.9,0c0.1,0.2,0.4,0.2,0.8,0c0.3-0.1,0.5-0.1,0.8-0.1c1.3,0.1,1.8-0.2,2.2-1.3
	c0.1-0.3-0.2-0.8-0.5-1.2c-0.2-0.1-0.5-0.1-0.7,0c-0.7,0.5-1.5,0.6-2.4,0.5c-0.5,0-0.9-0.4-1.1-0.8c0.9-0.2,1.9-0.2,2.9-0.2
	c1.3,0,2.5-0.6,3.2-1.7c0.4-0.8,0.8-1.5,1.2-2.3c0.2-0.4,0.3-0.8,0.3-1.2C68,52.7,67.5,50.9,66.5,49.4z M58.9,55.4
	c0.3-0.1,0.7-0.2,1-0.3c0,0.1,0.1,0.3,0.1,0.4c-0.2,0.5-0.4,0.9-0.7,1.4h-0.2c-0.1-0.4-0.3-0.7-0.4-1.1
	C58.8,55.8,58.9,55.5,58.9,55.4L58.9,55.4z M58,50.1c-0.1,0.1-0.1,0.2-0.2,0.3h-0.8c0.2-0.3,0.3-0.6,0.4-0.5
	C57.7,49.9,57.9,50,58,50.1L58,50.1z"/>
<path class="st0" d="M150.4,79.6c0.8-1,1.8-1.8,3-2.4c1.8-0.5,3.7-0.4,5.3,0.3c0.5,0.1,1,0.4,1.3,0.9c0.1,0.4,0.2,0.7,0.2,1.1
	c0,1.7-0.1,3.4-0.1,5c0.2,0.7-0.3,1.5-1,1.6c-0.2,0-0.5,0-0.7,0c-1,0-2,0-3,0c-0.5,0-1,0-1.5,0.1s-1,0.1-1.4,0.2l-0.5,0.1
	c-0.7,0.1-1.3,0.1-2,0.1c-0.8,0-1.6-0.1-2.4-0.4c-0.3-0.1-0.6-0.2-0.8-0.5c-0.5-0.6-0.1-1.5,0.4-2.1
	C148.2,82.3,149.2,80.9,150.4,79.6z"/>
<path class="st0" d="M131.3,22.6c0.1-1.3-0.5-2.5-1.4-3.3c-0.4-0.3-0.8-0.6-1.2-0.9c-0.1-0.1-0.2-0.2-0.3-0.3
	c-0.6-1.5-2.1-2.5-3.7-2.5c-1.6,0-3.1,0.5-4.7,0.6c-0.6,0-1.3,0.1-1.9,0.3c-0.7,0.2-1.3,0.5-1.8,0.9c-0.4,0.5-0.7,1-1,1.6
	c0.2,0.3,0.1,0.7-0.2,1c-0.7,0.6-1.4,1.3-2.1,1.9c-0.7,0.8-1.1,1.8-1.1,2.8c-0.1,0.4-0.1,0.7,0,1.1c0.2,0.8,0.9,1.5,1.7,1.5l0.4,0.1
	c-0.1,0.2-0.1,0.5-0.2,0.7c-0.2,0.6,0,1.2,0.4,1.7c0.6,0.8,1.6,1.3,2.6,1.3c0.8,0,1.5,0.2,2.3,0.1c1.5-0.1,3.1-0.2,4.6-0.4
	c1.2-0.2,2.4-0.5,3.6-0.7c0.1,0,0.3-0.1,0.3-0.2c0.5-1,1.2-2,2-2.7c0.6-0.8,1.1-1.8,1.4-2.8C131.2,23.7,131.3,23.2,131.3,22.6z
	 M118.8,17.9c-1,0.5-1.1,0.5-1.2-0.1L118.8,17.9z"/>
<path class="st0" d="M170,71.6c-0.7-4.1-1.7-8.2-3-12.1c-0.1,0-0.1,0-0.2,0c-0.2-0.7-0.9-1.1-1.6-0.9l-2.7,1c-0.1,0-0.3,0.2-0.4,0.1
	c-0.8-0.4-1.4,0.1-2,0.2c-1,0.2-1.9,0.6-2.8,1.2c-0.4,0.3-0.8,0.4-1.2,0.7c-0.7,0.5-1,1.5-0.8,2.3c-0.3,0.1-0.5,0.2-0.8,0.3
	c-0.3,0.2-0.6,0.4-0.8,0.7c-0.7,1.1-0.8,2.5-0.4,3.7c0.3,0.9,0.6,1.8,1,2.8c0.2,0.3,0.3,0.5,0.6,0.8c0.3,0.4,0.6,0.7,1,1.1
	c0.1,0.1,0.1,0.1,0.2,0.1c0.9,0.3,1.8,0.6,2.8,0.8c0.3,0,0.5,0,0.8,0c0.7-0.1,1.5-0.1,2.2,0c1.3,0.2,2.6,0.1,3.9-0.2
	c0.2,0,0.5,0,0.7,0c0.8,0.2,1.7,0,2.3-0.6C169.2,72.8,169.6,72.2,170,71.6z M164.8,70.6c0,0.3,0,0.7-0.1,0.8c-0.4,0.2-0.7-0.1-1-0.5
	L164.8,70.6z"/>
<path class="st0" d="M57.6,16.8c0.1,0.3,0,0.5-0.3,0.5c-0.4,0.6-0.8,1.1-1.2,1.7c-0.1,0.1-0.1,0.2-0.1,0.3c0,0.8,0.1,1.5,0.1,2.2
	c0.2,1.4-0.6,2.8-2,3.3c-0.9,0.2-1.8,0.3-2.7,0.3c-0.2,0-0.5-0.1-0.7,0c-0.9,0-1.8,0.1-2.9,0.2L47,25.1c-1.4-0.1-2.6-1.2-2.7-2.7
	c0-0.2-0.2-0.4-0.4-0.5c-0.3-0.1-0.5-0.2-0.8-0.4c-0.9-0.8-1.4-1.9-1.4-3.1c0-0.9,0.1-1.8,0.3-2.7c0.1-0.4,0.2-0.8,0.3-1.1
	c-0.2,0.1-0.5,0.1-0.7,0.1c-0.2,0-0.3-0.3-0.4-0.5c0.2-0.1,0.3-0.3,0.5-0.3c0.3-0.1,0.6-0.1,0.9,0c0.3-0.7,0.7-1.3,1.3-1.8
	c0.1-0.1,0.3-0.4,0.3-0.4c-0.2-0.4,0.1-0.5,0.3-0.6c1.6-1,3.2-1.9,4.8-2.9c0.8-0.4,1.7-0.6,2.6-0.5c1.3,0,2.6,0.4,3.7,1.1
	c0.3,0.2,0.7,0.4,1,0.6c0.4,0.3,0.7,0.7,0.9,1.1c0.1,0.1,0,0.4-0.1,0.6c0,0.1,0,0.1,0,0.2c0.3,0.8,0.5,1.5,0.8,2.3
	c0.3,0.9,0.3,1.9-0.2,2.8C57.8,16.5,57.7,16.6,57.6,16.8z"/>
<path class="st0" d="M88.2,75.7c-0.2,1.6-0.3,3.3-0.3,4.9c0,0.6,0.2,1.1,0.4,1.6c0.2,0.7,0.3,1.5,0.5,2.2c0.1,0.9,0.9,1.7,1.8,1.9h8
	c0.1-0.1,0.3-0.1,0.4-0.1c0.4,0,0.8-0.3,0.8-0.8c0-0.3-0.2-0.6-0.5-0.8c-0.3-0.1-0.5-0.2-0.8-0.3c1-0.4,1.8-0.8,2.6-1.2
	c0.2-0.1,0.3-0.2,0.4-0.4c0.9-1.6,1.3-3.4,1.3-5.2c0-1.4-0.3-2.7-0.8-4c-0.4-1-1.1-1.9-1.9-2.5c-0.2-0.1-0.3-0.3-0.4-0.4
	c-0.2-0.2-0.4-0.5-0.7-0.5c-0.5-0.1-0.9-0.4-1.1-0.7c-0.2-0.3-0.6-0.4-0.9-0.3c-1.3,0.1-2.5,0.5-3.6,1.1c-0.9,0.4-1.8,1-2.6,1.6
	C89.5,72.8,88.6,74.2,88.2,75.7z M92.6,76.4c0.1-0.1,0.2-0.2,0.4-0.2c0.3,0,0.7,0,1-0.1c0.2-0.1,0.6-0.3,0.6-0.4
	c0-0.6,0.6-0.8,0.7-1.2h0.1c0.2,0.2,0.3,0.5,0.4,0.8c0.2,0.6,0,0.8-0.6,0.9c-0.4,0-0.8,0.1-1.1,0.3C93.6,76.6,93.1,76.6,92.6,76.4z"
	/>
<path class="st0" d="M81.9,44.9C82,44.6,82,44.3,82,44c-0.2-1.4-0.3-2.8-0.6-4.2c-0.2-1.4-0.8-2.8-1.7-3.9c-0.8-1.1-2.2-1.7-3.6-1.6
	c-1.9,0.2-3.8,0.9-5.2,2.1c-0.6,0.4-1.1,0.9-1.6,1.4c-0.5,1-1.4,0.9-2.2,1c-0.6,0.1-0.7,0.6-0.8,1c-0.2,0.5-0.1,1.1,0.2,1.5
	c0.1,0.2,0,0.5,0.3,0.7s0.4,0.5,0.6,0.8c-0.6,1.7-0.4,3.5,0.6,5c1,1.5,2.6,2.6,4.4,2.8c-0.2,1-0.1,1.1,0.8,1c1.3-0.1,2.5-0.5,3.7-1
	c0.2-0.1,0.5-0.2,0.7-0.2c0.7,0,1.4-0.3,1.9-0.8c0.4-0.4,0.8-0.7,1.2-1.1c0.1-0.1,0.2-0.3,0.2-0.5C81.1,47,81.4,45.9,81.9,44.9z
	 M76.6,39.1c-0.6,0.2-1.3,0.4-1.9,0.6c-0.2-0.4-0.1-0.6,0.2-0.8s0.8-0.4,1.2-0.6c0.2-0.1,0.4-0.1,0.5-0.2
	C76.6,38.5,77.1,38.9,76.6,39.1z"/>
<path class="st0" d="M84.7,63.6c0.6,1.1,0.8,2.4,0.5,3.7c-0.2,0.8-0.3,1.7-0.5,2.6c0,0.4-0.3,0.8-0.7,0.9c-0.1,0-0.3,0.1-0.3,0.2
	c-0.3,0.7-1,0.7-1.6,0.8s-1.1,0.2-1.7,0.3c0,0-0.1,0-0.1,0c-0.5,0.8-1.2,0.3-1.9,0.4c0,0-0.1,0.2-0.2,0.2c-0.5,0-0.9-0.1-1.4-0.1
	s-0.7,0-1,0c-0.6,0-1.2,0-1.7,0c-0.4-0.1-0.9-0.3-1.3-0.5L73,72c-0.4-0.1-0.7-0.2-1.1-0.4c-0.4-0.3-0.8-0.7-1.2-1.1
	c-0.2-0.2-0.2-0.4-0.4-0.6c-0.8-0.7-1.5-1.6-1.8-2.7c-0.2-1.1-0.2-2.2,0.2-3.3c0.2-0.7,0.8-1.4,0.5-2.3c0-0.2,0-0.3,0.1-0.5
	c0.4-0.7,0.8-1.3,1.4-1.8c1-0.7,2.1-1.3,3.2-1.8c0.4-0.1,0.8-0.2,1.2-0.2c1.1,0,2.2,0.1,3.3,0.2c0.2,0,0.3,0.2,0.4,0.3
	c-0.1,0.2-0.2,0.4-0.3,0.4c-0.7,0.2-1.3,0.4-2,0.5c-0.4,0.1-0.7,0.1-0.9,0.6c0.9,0.2,1.6-0.3,2.4-0.5s1.3-0.4,2-0.6
	c0.2,0,0.5,0,0.7,0.1c1.1,0.6,2,1.5,2.7,2.6C83.9,62,84.2,62.8,84.7,63.6z"/>
<path class="st0" d="M63.6,29.9c0.6,1,1.8,1,2.8,1.4c0.1,0,0.2,0,0.2,0.1c0.1,0.4,0.3,0.3,0.6,0.3c0.4,0,0.7,0,1.1,0.1
	c0.2,0,0.5,0.2,0.7,0.3c0.7,0,1.3-0.2,1.9-0.6c0.2-0.1,0.3-0.2,0.5-0.3c0.3-0.2,0.7-0.2,1.1-0.2c1.1,0,2.1-0.3,3-0.9
	c0.7-0.4,1.2-1,1.7-1.7c0.1-0.2,0.3-0.5,0.3-0.8c0.6-1.4,0.6-3,0-4.4c-0.3-0.8-0.5-1.6-0.7-2.4c-0.3-1.2-1.1-2.2-2.2-2.8
	c-0.8-0.4-1.6-0.9-2.2-1.5c-0.3-0.4-0.9-0.5-1.5-0.7c-0.2,0-0.5-0.1-0.7-0.1C68.7,15.6,67,16,65.7,17c-0.7,0.4-1.3,0.9-1.8,1.5
	c-0.4,0.4-0.7,1-0.8,1.5c-0.2,0.6-0.6,1.2-1,1.7c-0.5,0.8-0.5,1,0,1.8c0.3,0.5,0.4,1,0.4,1.5c0,1,0.1,2,0.2,3
	C62.8,28.7,63.1,29.3,63.6,29.9z M70.3,19.2c1.3-0.7,2.9-0.3,3.6,1c0,0,0.1,0.1,0.1,0.1L70.3,19.2z M69.1,21.9h0.2
	c0.3,0.5,0.4,1.1,0.3,1.7h-0.2C69.3,23,69.2,22.5,69.1,21.9z"/>
<path class="st0" d="M38.1,29.1c0.1-0.7,0-1.4-0.3-2c-0.4-0.8-0.8-1.7-1.3-2.4c-0.2-0.3-0.7-0.4-1.1-0.5c-0.3,0-0.6,0-0.9,0v0.1
	c-0.9-0.1-1.9-0.3-2.8-0.4c-0.5,0-1,0-1.5,0c-0.9-0.2-1.9-0.3-2.8-0.3c-0.4,0-0.8,0.4-1.2,0.7c-0.9,0.8-1.7,1.6-2.5,2.3
	s-1.7,1.3-2.4,2c-0.8,0.9-1.3,2.2-1.2,3.4c-0.2,1.2-0.1,2.3,0.2,3.5c0.4,1.1,1.4,2,2.5,2.2c1.2,0.2,2.4,0.4,3.5,0.7
	c0.8,0.3,1.7,0.4,2.6,0.2c0.6-0.2,1.1-0.5,1.6-0.8c0.8-0.4,1.4-1,1.9-1.8c0.2-0.2,0.3-0.4,0.4-0.7c0-0.6,0.5-0.8,0.9-0.8
	c0.7-0.1,1-0.7,1.4-1c0.1-0.1,0.1-0.3,0.2-0.3c0.8-0.3,1.2-0.9,1.7-1.5C37.5,30.8,37.9,30,38.1,29.1z M31,33.2
	c-0.6,0.4-1.2,0.8-1.8,1.1c-0.2,0.1-0.8,0-0.8-0.1c-0.1-0.4-0.1-0.9,0-1.3c0.1-0.1,0.2-0.1,0.3-0.1L31,33.2z"/>
<path class="st0" d="M165,86.3c0-0.1,0.1-0.3,0.1-0.4c0.2-0.7,0.3-1.5,0.3-2.3c-0.1-1.2,0.2-2.4,0.8-3.4c0.8-1.3,2-2.3,3.5-2.8
	c0.3-0.1,0.7-0.2,1.1-0.2c0.3,3,0.5,6.1,0.5,9.1H165z"/>
<path class="st0" d="M161.2,53.3c-0.1-0.1-0.2-0.1-0.3-0.1c-0.3-0.1-0.6-0.1-0.8-0.3c-0.5-0.4-1-0.9-1.4-1.4c-0.3-0.3-0.5-0.7-1-0.7
	c-0.1,0-0.3-0.1-0.4-0.2c-0.7-0.8-1.2-1.8-1.7-2.7c-0.4-1.2-0.7-2.3-0.9-3.5c-0.2-0.5-0.3-0.9-0.4-1.4c-0.1-1.3,0.3-2.7,1-3.8
	c0.1-0.1,0.1-0.3,0.2-0.4c0.3-0.4,0.3-1,0.6-1.4c3.4,4.9,6.2,10.1,8.5,15.6c-0.4,0.2-0.8,0.5-1.2,0.6
	C162.7,54.1,161.8,53.9,161.2,53.3z"/>
<path class="st0" d="M98.1,12.2c0.8-1.3,1.8-2.5,1.8-4.2c0-0.5,0-0.9-0.2-1.4c-0.2-0.4-0.1-0.9-0.2-1.3c-0.4-0.7-0.8-1.4-1.2-2
	c-0.5-0.7-1-1.2-1.5-1.9c-0.5-0.5-1.3-0.7-2-0.6c-0.8,0-1.7,0-2.6,0c-0.1,0-0.2-0.1-0.3-0.1c-0.9-0.5-2-0.4-2.8,0.2
	c-0.6,0.5-1.3,1-2,1.5c-0.9,0.5-1,1.3-1.4,2c-0.3,0.5-0.4,1.1-0.4,1.6C84.9,7.1,85,8,85.3,8.9c0.1,0.2,0.1,0.4,0,0.5
	C85.1,10,85,10.6,85,11.1c0.1,1.1-0.9,1.4-1.3,2.1c-0.2,0.3-0.5,0.5-0.9,0.7c-0.7,0.4-0.5,1.1-0.4,1.6c0.1,0.5,0.3,1,0.5,1.5
	c0.4,1,1.4,1.5,2.4,1.3c0.3,0,0.7,0,1,0.1c0.1,0,0.3,0,0.4,0l1.6-0.3c0.1,0,0.3,0,0.4-0.1c0.6-0.6,1.5-0.3,2.2-0.6
	c0.1-0.1,0.4,0.1,0.6,0.1c0.3-0.5,0.8-0.5,1.2-0.6c0.2,0,0.6,0.1,0.5-0.3h0.6l-0.1-0.1c0.3-0.2,0.7-0.4,1-0.7s0.7-0.6,1.1-0.9
	c0.8-0.6,1.4-1.4,1.8-2.4C97.7,12.6,98,12.4,98.1,12.2z M88.1,6.3l0.6-1.2C89.4,5.9,89.4,6,88.1,6.3L88.1,6.3z"/>
<path class="st0" d="M101.8,63.7c0.7-0.2,1.4-0.6,2-1.1c1.3-1,2.3-2.2,3-3.7c0.2-0.5,0-1-0.4-1.3c-1.4-0.5-1.7-1.9-2.1-3
	c-0.3-0.8-0.7-1.6-1-2.5c-0.1-0.2-0.1-0.5-0.1-0.7c0-0.4-0.1-0.8-0.1-1.1c-0.1-0.4-0.2-0.8-0.3-1.2c-0.1-0.4-0.4-0.6-0.8-0.5
	c0,0-0.1,0-0.1,0c-1.1,0.4-2.2,0.8-3.2,1.3c-0.9,0.5-1.8,1-2.6,1.5c-0.8,0.5-1.5,1-2.2,1.6c-1,0.8-1.7,1.8-1.9,3.1
	c-0.1,0.7-0.3,1.4-0.4,2c0.1,0.7,0.1,1.3,0.2,1.9c0,0.2,0.1,0.3,0.2,0.4c0.5,0.2,0.4,0.5,0.2,0.8c-0.2,0.4-0.2,0.8,0,1.1
	c0.4,1,1.3,1.7,2.3,1.9c0.9,0.1,1.7,0.1,2.6,0.1c0.4-0.1,0.7-0.2,1.1-0.3C99.2,64,100.5,64,101.8,63.7z M99.2,53.3
	c-0.1,0.3-0.3,0.6-0.5,0.9c0,0.1-0.4-0.2-0.6-0.2c-0.2,0-0.4-0.1-0.5-0.1c0.5-0.3,0.9-0.6,1.3-0.9C98.9,53,99.2,53.2,99.2,53.3z"/>
<path class="st0" d="M151.9,49.1c0.2-1.9,0.1-3.7-0.3-5.5c-0.1-0.3-0.2-0.6-0.4-0.8c-0.5-0.6-1.1-1.2-1.7-1.8
	c-0.4-0.2-0.8-0.3-1.2-0.1c-0.7,0.3-1.4,0.7-2,1.2c-0.9,0.7-1.6,1.5-2.5,2.2c-0.7,0.5-1.7,0.7-2.6,0.5c-0.8-0.3-1.6-0.1-2.2,0.4
	c-0.4,0.2-0.8,0.4-1.3,0.4c-0.1,0.1-0.3,0.2-0.5,0.3c-0.8,0.2-1.3,0.9-1.1,1.7c0,0.4,0,0.9,0,1.3c0,0.2,0,0.4,0.1,0.6
	c0.1,0.5,0.2,0.9-0.3,1.2c-0.5,0.4-0.5,1.2-0.1,1.7c0,0,0.1,0.1,0.1,0.1c-0.2,0.4-0.2,0.9,0.2,1.2c1,0.9,2.3,1.5,3.6,1.5
	c1.1,0.2,2.2,0.2,3.3,0.1c0.7-0.1,1.4-0.2,2.1-0.3c0.9-0.1,1.7-0.5,2.4-1c0.8-0.6,1.6-1.1,2.4-1.6C151.1,51.6,151.9,50.4,151.9,49.1
	z M145.9,46.7c-0.1,0.1-0.2,0.3-0.4,0.4s-0.3-0.1-0.6-0.3l0.8-0.3L145.9,46.7z"/>
<path class="st0" d="M89.4,37.2c1-1,2.4-1.8,3.8-2.1c1.1-0.2,2.3-0.1,3.4,0.1c1.4,0.1,2.6,1.3,2.8,2.7c0,0.2,0.1,0.3,0.2,0.5
	c0.2,0.5,0.5,1,0.7,1.5c0.5,1.1,0.3,2.4-0.5,3.4C99,44.4,98,45.5,97,46.4c-0.2,0.2-0.4,0.5-0.7,0.7c-0.5,0.4-1,0.9-1.5,1.3
	c-0.3,0.3-0.6,0.5-1,0.7c-0.3,0.1-0.5,0.1-0.8,0.2c-0.2,0.1-0.5,0.1-0.7,0.1h-3.1c-0.9,0.1-1.7,0-2.5-0.3c-0.5-0.1-0.8-0.7-0.7-1.2
	c0.1-0.7,0-1.4-0.3-2c-0.1-0.1-0.1-0.3-0.1-0.4c0-0.8,0-1.6,0-2.4c-0.1-0.9,0.2-1.9,0.8-2.6C87.3,39.3,88.4,38.3,89.4,37.2z"/>
<path class="st0" d="M104.2,78.9c-0.5,1.3-0.5,2.7,0,4c0.1,0.4,0.6,0.6,0.8,1c0.2,0.4,0.4,0.8,0.4,1.3c0,0.5,0.2,0.9,0.6,1.2h1.9
	l1.3-0.2c0.3-0.1,0.5,0,0.7,0.2h2.2c0.4-0.1,0.8-0.3,1.2-0.5c0.2-0.2,0.4-0.4,0.4-0.8c0-0.9,0.6-1.3,1.1-1.8s1.2-1.2,1.7-1.9
	c0.3-0.5,0.4-1,0.5-1.5c0-0.7,0-1.5-0.1-2.2c-0.2-0.8-0.5-1.5-0.7-2.3c-0.1-0.3,0-0.7-0.1-0.9c-0.2-0.7-0.5-1.4-0.8-2.1
	c-0.7-1.1-3.1-1.9-4.4-1.7c-1.2,0.2-2.2,0.9-3,1.8c-0.4,0.5-0.8,0.9-1.2,1.4c-0.1,0.1,0,0.4-0.1,0.7c0,0-0.1,0-0.2,0.1
	c-0.3,0.4-0.6,0.8-0.8,1.2c-0.3,0.5-0.6,1-0.8,1.5C104.6,77.8,104.4,78.4,104.2,78.9z M109.7,84.1l0.7-0.2l0.1,0.3
	c-0.2,0.1-0.4,0.2-0.7,0.2C109.8,84.3,109.7,84.2,109.7,84.1z M108.4,76.1c0.3-0.4,0.4-0.7,0.6-0.9s0.3-0.3,0.4-0.2
	c0.2,0.1,0.3,0.3,0.3,0.4c0,0.2-0.1,0.3-0.2,0.4c-0.2,0.2-0.4,0.3-0.7,0.4C108.7,76.3,108.6,76.2,108.4,76.1L108.4,76.1z"/>
<path class="st0" d="M138.1,20.2c-0.2-0.2-0.5-0.4-0.8-0.3c-0.7,0.1-1.4,0.3-2.2,0.4c-0.7,0.2-1.4-0.3-1.6-1c0-0.1,0-0.2,0-0.4
	c-0.1-0.4-0.2-0.9-0.4-1.2c-0.2-0.4-0.6-0.6-0.8-1c-0.3-0.9-0.4-1.8-0.3-2.8c2,1.3,4,2.7,5.9,4.2l0.1,0.1h0.1
	c0.8,0.6,1.6,1.3,2.4,1.9c-0.6,0.2-1.1,0.4-1.8,0.4C138.4,20.5,138.2,20.4,138.1,20.2z"/>
<path class="st0" d="M135.1,78.7h0.1c0-0.9,0.2-1.8,0.7-2.5c0.6-1,1.3-1.8,2.3-2.4c0.3-0.3,0.6-0.5,0.9-0.8c0.6-0.5,1.3-0.9,2-1.4
	c0.9-0.7,2.1-1.1,3.2-0.9c1.4,0.2,2.7,0.9,3.6,2c0.4,0.4,0.4,0.9,0.1,1.3c0,0.1,0,0.2,0,0.3c0.2,0.6,0.4,1.2,0.6,1.8
	c0,0.1,0,0.3-0.1,0.4c-0.5,1.3-1.1,2.6-2,3.7c-0.3,0.3-0.4,0.8-0.7,1.1c-0.7,0.7-1.4,1.3-2.2,2c-0.4,0.3-0.7,0.7-1.1,1
	c-0.9,0.9-2.1,1.4-3.3,1.4c-0.4,0-0.9-0.1-1.3-0.2c-0.6-0.1-1.2-0.4-1.6-0.9c-0.5-0.9-0.8-1.9-0.8-2.9c0-0.5,0.1-1,0-1.6
	C135.5,79.5,135.3,79.1,135.1,78.7z"/>
<path class="st0" d="M65,77.2c0.2-0.6-0.3-0.9-0.5-1.4c-0.1-0.3-0.2-0.5-0.4-0.8c0.1-0.8,0.3-1.1,1-1.1s1.4-0.2,2.1-0.3
	c1,0,2.1-0.3,3,0.6c0.1,0.1,0.2,0.1,0.3,0c0.4-0.3,0.9-0.3,1.3-0.1c0.8,0.5,1.6,1,2.3,1.5c0.4,0.2,0.7,0.5,1,0.8
	c0.6,0.9,1.4,1.7,2.2,2.4c0.4,0.3,0.7,0.7,0.8,1.2c0.2,0.8,0.1,1.7-0.3,2.4c-0.2,0.3-0.3,0.7-0.3,1.1c0.7,2.4-1.6,2.9-3.4,3
	c-1.1,0-2.2,0-3.3-0.2c-1.9-0.3-1.8-0.4-2.4-2.4c-0.2-0.5-0.2-1-0.4-1.5c-0.3-1.1-0.7-2.1-1.1-3.2c0-0.1,0-0.1,0-0.2
	c-0.1-0.6-0.6-1.1-1.2-1.3C65.3,77.7,64.9,77.5,65,77.2z"/>
<path class="st0" d="M18.3,82.6c0.2-0.1,0.6-0.1,0.6-0.2c0.2-0.5,0.7-0.7,1.2-0.7c0.6-0.1,1.1-0.2,1.7-0.5c0.9-0.2,1.6-0.7,2.5-0.8
	c0.8-0.2,1.7,0.1,2.2,0.7c0.2,0.3,0.5,0.6,0.8,0.8c0.6,0.4,1,0.9,1.3,1.6c0.6,0.9,1.2,1.8,1.9,2.7c-2.5,1-11.9,1.6-12.7-1.2
	c-0.1-0.4,0-0.8-0.1-1.2C17.6,82.9,17.6,82.9,18.3,82.6z"/>
<path class="st0" d="M9.1,54.7c-0.2,0.6-0.4,1.2-0.6,1.8s-0.4,1.2-0.7,1.8L7.2,60c-0.1,0.2-0.1,0.3-0.1,0.5S6.9,61,6.7,61.2
	c-0.5,0.5-1,0.9-1.5,1.3c-0.8,0.5-1.6,1.1-2.4,1.7c-0.4,0.4-1,0.7-1.5,0.9c1.4-5.6,3.4-11,5.9-16.2l0.1,0.1C8,49.5,8.6,50.2,9,51.1
	c0,0.1,0.1,0.2,0.1,0.2c0.2,1.1-0.2,2.1,0.1,3.2C9.2,54.6,9.2,54.6,9.1,54.7z"/>
<path class="st0" d="M20.9,45.5c-0.6,0.1-1.2,0.3-1.8,0.3c-0.1,0-0.1,0-0.2,0c-1.1-0.1-1.9,0.7-2.8,1.1c-0.6,0.3-1.1,0.6-1.6,0.9
	c-0.5,0.2-1,0.5-1.5,0.9c-1,0.7-1.5,1.8-1.4,3c0,0.1,0,0.2,0,0.3l0,0c0,0.4,0,0.8,0.1,1.1c0,0.4,0.3,0.8,0.7,0.9
	c0.6,0.2,0.5,0.8,0.6,1.2c0.3,0.9,0.6,1.8,0.9,2.7c0.2,0.5,0.4,0.9,0.6,1.4c0.3,0.6,0.7,1.2,1.2,1.8c0.9,0.9,1.9,1.7,3,2.3
	c0.8,0.5,1.8,0.8,2.8,0.8c0.4-0.1,0.8-0.3,1.1-0.5c0.3-0.3,0.7-0.3,1-0.2c0.8,0.3,2-0.5,2.4-1.5c0.3-0.8,0.8-1.6,1-2.4
	c0.2-0.6,0.3-1.2,0.3-1.8c0.1-1.1,0.1-2.3,0.1-3.4c0.1-0.9,0-1.7-0.4-2.5c-0.2-0.6-0.4-1.1-0.4-1.7c-0.1-0.6-0.4-1.2-0.8-1.7
	c-0.3-0.4-0.8-0.6-1.1-1c-0.6-0.6-1.2-1.2-2-1.5c-0.1,0-0.2-0.1-0.2-0.1C22,46.1,21.5,45.4,20.9,45.5z M24.3,53.6l0.4-1.2l0.8,1.5
	L24.3,53.6z M21.6,60.1c0.3-0.4,0.6-0.9,1-1.2l0.2,0.1c-0.1,0.5-0.1,1-0.2,1.5s-0.3,0.3-0.6,0.2S21.4,60.5,21.6,60.1z"/>
<path class="st0" d="M1.3,71.4C0.4,73,0,74.8,0,76.6c0,1.4,0.3,2.7,0.8,4c0.4,1,1,1.9,1.9,2.5c0.2,0.1,0.3,0.3,0.4,0.4
	C3.4,83.7,3.6,84,3.8,84c0.5,0.1,0.9,0.4,1.1,0.7c0.2,0.3,0.6,0.4,0.9,0.4c1.3-0.1,2.5-0.5,3.6-1.1c0.9-0.4,1.8-1,2.6-1.6
	c1.2-1,2.1-2.4,2.5-3.9c0.2-1.6,0.3-3.3,0.3-4.9c0-0.5-0.2-1.1-0.4-1.6c-0.2-0.7-0.4-1.5-0.5-2.2c-0.2-1-0.9-1.7-1.8-1.9
	c-0.8-0.3-1.6-0.5-2.4-0.6c-0.9,0-1.8,0.1-2.7,0.3c-0.4,0.1-0.8,0.1-1.2,0c-0.6-0.2-1,0.2-1.5,0.3C4.2,67.9,4,68,3.8,68
	c-0.4-0.1-0.7,0.2-0.8,0.5c0,0,0,0.1,0,0.1c-0.1,0.4,0.1,0.7,0.4,0.8c0,0,0.1,0,0.1,0c0.2,0.1,0.5,0.2,0.8,0.3
	c-1,0.4-1.8,0.8-2.6,1.2C1.5,71.1,1.4,71.2,1.3,71.4z M7.5,78.1c0.4,0,0.8-0.1,1.1-0.3c0.5-0.2,1-0.2,1.5,0C10,78,9.8,78.1,9.7,78.1
	H9.4v-0.2l-0.1-0.2c-0.3,0.2-0.5,0.3-0.8,0.5s-0.4,0.3-0.4,0.4c0,0.6-0.6,0.8-0.7,1.2H7.2c-0.2-0.3-0.3-0.5-0.4-0.8
	C6.6,78.5,6.8,78.2,7.5,78.1z"/>
<path class="st0" d="M39.1,49.4c-0.3,0.2-0.7,0.3-1,0.4c-0.4,0.1-0.7,0.3-1.1,0.4c-0.5,0.1-0.9,0.2-1.3,0.4
	c-0.9,0.4-1.8,0.8-2.6,1.3c-0.8,0.6-1.9,1-2.3,2c0,0-0.1,0-0.1,0c-0.5,0.4-0.6,0.7-0.4,1.3s0.5,1.1-0.2,1.5c0,0.6,0.1,1.1,0.2,1.6
	c0.4,1,1,1.9,1.7,2.8c0.7,1,1.9,1.6,3.1,1.4l3.7-0.7c0.2-0.1,0.4-0.1,0.7-0.1c1.2,0,2.4-0.5,3.1-1.4c1.3-1.3,2.5-2.7,3.7-4
	c0.3-0.4,0.5-0.9,0.4-1.4v-0.7c-0.1-0.2-0.3-0.4-0.4-0.6c0-0.5-0.3-1-0.7-1.3c-0.1-0.1-0.1-0.3-0.1-0.5c-0.2-0.4-0.4-0.7-0.7-1
	c-0.7-0.7-1.5-1.3-2.3-1.8C41.5,48.6,40.2,48.7,39.1,49.4z M36.6,52.8l-0.4,0.5l-0.2-0.1l0.2-0.6L36.6,52.8z"/>
<path class="st0" d="M41.3,34.7c-0.5,0.7-1.2,1.2-1.7,1.9c-0.3,0.5-0.4,1-0.5,1.5c0,0.7,0,1.5,0.1,2.2c0.2,0.8,0.5,1.5,0.7,2.3
	c0.1,0.3,0,0.7,0.1,1c0.2,0.7,0.5,1.4,0.8,2.1c0.7,1.1,3.1,1.9,4.5,1.7c1.2-0.2,2.2-0.9,3-1.8c0.4-0.5,0.8-1,1.2-1.5
	c0.1-0.1,0-0.4,0.1-0.7c0,0,0.1,0,0.2-0.1c0.3-0.4,0.5-0.8,0.8-1.2c0.3-0.5,0.6-1,0.8-1.5c0.2-0.5,0.3-1,0.5-1.5
	c0.5-1.3,0.5-2.7,0-4c-0.1-0.4-0.6-0.6-0.8-1c-0.2-0.4-0.4-0.8-0.4-1.2c0-0.7-0.5-1.3-1.3-1.4c-0.1,0-0.2,0-0.4,0
	c-0.7,0.1-1.5,0.2-2.2,0.4c-0.3,0.1-0.6,0-0.8-0.3c-0.1-0.2-0.3-0.2-0.5-0.3c-1,0.1-1.9,0.4-2.8,0.8c-0.2,0.2-0.4,0.5-0.4,0.8
	C42.4,33.7,41.7,34.1,41.3,34.7z M46.4,33.8l-0.7,0.2c0-0.1-0.1-0.2-0.1-0.3c0.2-0.1,0.5-0.2,0.7-0.2C46.3,33.6,46.4,33.7,46.4,33.8
	z M46.9,42.9c0.1-0.2,0.1-0.4,0-0.5c-0.1-0.1-0.1-0.2-0.1-0.3c0.1-0.1,0.3-0.2,0.5-0.3c0.1,0,0.3,0,0.5,0.1
	c-0.3,0.4-0.4,0.7-0.6,0.9C47.1,42.7,47,42.8,46.9,42.9z"/>
<path class="st0" d="M42,71.1c-0.1,0.5-0.3,1-0.4,1.5c0,0.2,0,0.4,0.1,0.6c0.1,1.5,1,2.8,2.3,3.5c0.6,0.3,1.1,0.7,1.7,1
	c1,0.5,2.3,0.5,3.3,0c1.4-0.7,2.8-1.4,4.1-2.2c0.5-0.3,1.1-0.6,1.6-1c0.3-0.3,0.5-0.6,0.7-0.9c0.8-1.4,1.2-2.9,1.2-4.5
	c-0.1-1.1-0.8-2.1-1.8-2.5c-0.1-0.1-0.2-0.1-0.4-0.2c-1.6-1.1-3.4-1.8-5.3-2l0-0.1l-2,0.7c-0.2,0.1-0.4,0.2-0.6,0.2
	c-0.2,0.1-0.6-0.1-0.6,0.4c0,0-0.1,0.1-0.2,0.1c-0.7,0-1.2,0.6-1.7,1l0,0c0.1,0.8-0.5,0.7-0.9,0.9c-0.2,0.1-0.3,0.3-0.3,0.5
	c-0.1,0.7-0.1,1.4-0.2,2.1C42.3,70.4,42.2,70.7,42,71.1z M50.1,70.7L50,70.9l-1-1.1l0.2-0.1C49.6,69.8,49.8,70.4,50.1,70.7
	L50.1,70.7z M47.3,72.6c0.2,0,0.4,0.1,0.6,0.2c0.4,0.4,1,0.5,1.5,0.2c0.2-0.1,0.4,0,0.5,0.1c0.3,0.3,0.6,0.6,0.8,0.9
	c-0.1,0-0.2,0.1-0.3,0.1c-1.6,0.1-2.4,0.3-3-1.1C47.4,72.9,47.3,72.7,47.3,72.6L47.3,72.6z"/>
<path class="st0" d="M27.5,77.7c-0.6-0.9-1.4-1.7-2.2-2.4c-0.4-0.3-0.7-0.7-0.8-1.2c-0.2-0.8-0.1-1.7,0.4-2.4
	c0.2-0.3,0.3-0.7,0.3-1.1c-0.1-0.7-0.1-1.4,0.2-2.1c0.1-0.5,0.4-1.1,0.7-1.5c0.7-0.5,1.4-0.9,2.1-1.3c0.4-0.2,0.9-0.4,1.3-0.6
	c0.6-0.3,1.2-0.6,1.8-0.8c0.2,0,0.4,0,0.5,0.2c0.3,0.2,0.5,0.5,0.7,0.7c0.5,0.3,1,0.5,0.6,1.2c0,0,0.1,0.1,0.1,0.2
	c0.4,1.2,0.8,2.4,1.2,3.6c0.2,0.5,0.2,1,0.4,1.5c0.3,1.1,0.7,2.1,1.1,3.2c0,0.1,0,0.1,0,0.2c0.1,0.6,0.6,1.1,1.2,1.3
	c0.4,0.1,0.7,0.3,0.6,0.6c-0.2,0.6,0.3,0.9,0.5,1.4c0.1,0.3,0.2,0.5,0.4,0.8c-0.1,0.8-0.3,1.1-1,1.2s-1.4,0.2-2.1,0.3
	c-1,0-2.1,0.2-3-0.6c-0.1-0.1-0.2-0.1-0.3,0c-0.4,0.3-0.9,0.3-1.2,0.1c-0.8-0.5-1.6-1-2.3-1.5C28.1,78.3,27.8,78,27.5,77.7z"/>
<path class="st0" d="M111,15c0.7,0.5,1.3,1,1.9,1.6c0.2,0.2,0.2,0.5,0,0.7c0,0,0,0,0,0c-0.1,0.2-0.1,0.4,0,0.6
	c0.4,1,0.2,2.1-0.6,2.9c-0.5,0.4-0.9,0.8-1.3,1.3c-0.6,0.6-1.1,1.3-1.5,2c-0.4,1.1-1.2,2-1.7,3.1c-0.2,0.6-0.8,0.9-1.3,0.9
	c-0.2,0-0.4,0-0.7,0c-0.9,0-1.8,0.1-2.7,0c-0.6,0-1.3-0.1-1.6-0.9c-0.2-0.5-0.5-1-0.7-1.5s-0.1-1.2-0.5-1.6c0-1,0.4-2,1-2.8
	c0.9-0.9,1.8-1.8,2.7-2.7c1.5-1.4,3.1-2.5,4.9-3.4C109.5,14.7,110.3,14.7,111,15z"/>
<path class="st0" d="M85,34c-0.2,0.5-0.8,0.7-1.3,0.5c0,0,0,0-0.1,0c-0.5-0.3-0.9-0.8-1-1.4c-0.3-0.8,0-1,0.4-1.4
	c0.4-0.4,0.6-0.8,0.7-1.3c-0.1-0.7,0.1-1.4,0.6-2c1-1.1,2.2-2.1,3.2-3.1c0.7-0.6,1.5-0.9,2.4-0.8c1.6,0,3.1,0.4,4.6,1.1
	c0.7,0.2,1.2,0.8,1.4,1.6c0.1,0.3,0.2,0.6,0.4,0.8c0.5,0.3,0.8,0.8,0.8,1.3c-0.1,0.6,0.3,1.2-0.1,1.8c-0.1,0.1,0,0.4,0,0.6
	c0,0.5-0.2,0.8-0.7,0.6c-0.8-0.2-1.5-0.4-2.3-0.6c-1.8-0.3-3.3,0.5-4.9,1.3c-0.3,0.2-0.8,0.3-1.2,0.2c-0.4-0.2-0.9-0.1-1.2,0.3
	c-0.3,0.3-0.7,0.5-1.1,0.3c-0.2-0.1-0.5,0-0.6,0.2C85,33.9,85,34,85,34z"/>
<path class="st0" d="M118.6,10.5c-0.5,0.1-0.9,0.4-1.3,0.8c-0.3,0.7-0.9,1.2-1.5,1.4c-1.4,0.4-2.9,0.7-4.4,1c-0.9,0.2-1.8,0-2.5-0.6
	c-1.3-0.8-2.5-1.9-3.4-3.2c-0.5-0.6-0.6-1.3-0.4-2c0.1-0.3,0.1-0.6,0-0.9c-0.3-0.5-0.3-1.1,0-1.5c0.3-0.5,0.3-1.2,1-1.5
	c0.2-0.1,0.2-0.3,0.3-0.5c0.2-0.5,0.6-0.5,1-0.2c0.6,0.6,1.1,1.2,1.7,1.7c1.4,1.2,3.2,1.3,4.9,1.4c0.4,0,0.8,0.1,1.1,0.5
	c0.3,0.4,0.8,0.5,1.2,0.4c0.4-0.2,0.8-0.1,1.1,0.3c0.2,0.2,0.5,0.2,0.6,0c0,0,0,0,0,0c0.4-0.3,1.1-0.2,1.4,0.2c0,0,0,0,0,0.1
	c0.3,0.5,0.4,1.1,0.2,1.7C119.6,10.3,119.1,10.3,118.6,10.5z"/>
<path class="st0" d="M152.3,58.1c-0.4,0.3-0.6,0.8-0.7,1.3c0.1,0.7-0.2,1.4-0.6,2c-1.1,1.1-2.2,2-3.3,3c-0.7,0.6-1.6,0.9-2.5,0.7
	c-1.6-0.1-3.1-0.5-4.5-1.2c-0.7-0.3-1.2-0.8-1.3-1.5c0-0.3-0.2-0.6-0.4-0.8c-0.5-0.3-0.7-0.8-0.7-1.3c0.1-0.6-0.3-1.2,0.1-1.8
	c0.1-0.1,0.1-0.4,0-0.6c0-0.5,0.2-0.8,0.7-0.6c0.8,0.2,1.5,0.4,2.3,0.6c1.8,0.3,3.4-0.4,4.9-1.2c0.3-0.2,0.8-0.3,1.2-0.1
	c0.4,0.2,0.9,0.1,1.2-0.3c0.3-0.3,0.7-0.5,1.1-0.3c0.2,0.1,0.5,0,0.6-0.3c0,0,0,0,0,0c0.2-0.5,0.8-0.7,1.3-0.5c0,0,0,0,0.1,0
	c0.5,0.3,0.9,0.8,1,1.4C153.1,57.5,152.7,57.7,152.3,58.1z"/>
<path class="st1" d="M130.3,95.7c0.2,0.1,0.4,0.3,0.6,0.4c0.4,0.4,0.8,0.9,1.2,1.3s0.9,0.8,1.3,1.1c0.1,0,0.1,0.1,0.1,0.2
	c0.1,0.5,0.6,0.5,0.8,0.9h0.1c0.4,0.2,0.7,0.6,0.8,1c0.1,0.1,0.1,0.3,0.2,0.4c0.2,0.2,0.4,0.4,0.5,0.6c0.1,0.2,0.3,0.5,0.4,0.8
	c-0.1,0.2-0.2,0.5-0.3,0.7c-0.4,0.4-0.9,0.8-1.4,1.2c-0.2,0.2-0.4,0.3-0.7,0.3c-0.3,0-0.6,0-0.9-0.1c-0.4-0.1-0.7-0.2-1-0.5
	c-0.3-0.2-0.6-0.3-0.8-0.5c-0.3-0.2-0.6-0.4-0.8-0.6c-0.2-0.3-0.6-0.4-0.9-0.5c-0.5,0-1,0.1-1.5,0.1c-0.4,0.1-0.9,0.1-1.3,0
	c-0.9-0.2-1.8-0.4-2.7-0.7c-0.2-0.1-0.3-0.2-0.4-0.3c0,0,0-0.2,0-0.3c0-0.1,0-0.2,0.1-0.3c0-0.2-0.1-0.4,0-0.5
	c0.1-0.3,0.3-0.6,0.5-0.8c0.3-0.3,0.6-0.5,0.9-0.8c0.5-0.7,1.2-1.2,1.9-1.7c0.7-0.4,1.5-0.8,2.1-1.3C129.5,95.4,130,95.4,130.3,95.7
	z"/>
<path class="st1" d="M163.3,97.6c-0.1-0.4,0-0.8,0.3-1.1c0.1-0.3,0.2-0.7,0.2-1.1c0-0.8-0.1-1.6-0.2-2.3c-0.1-0.4-0.2-0.7-0.3-1
	c-0.2-0.3-0.5-0.3-0.8-0.4c-0.6-0.1-1.3,0-1.9,0.2c-0.8,0.2-1.7,0.5-2.4,1c-0.4,0.2-0.7,0.5-1.1,0.8c-0.1,0.1-0.2,0.3-0.3,0.4
	c-0.1,0.4-0.4,0.7-0.8,0.9c-0.3,0.2-0.5,0.4-0.8,0.7c-0.1,0.1-0.1,0.3-0.1,0.5c-0.1,0.4-0.2,0.8-0.1,1.2c0,0,0,0.1,0,0.1
	c-0.2,0.4,0.1,0.7,0.3,0.9c0.4,0.4,0.8,0.8,1.3,1c0.3,0.1,0.6,0.3,0.9,0.5c0.4,0.3,0.9,0.4,1.4,0.5c0.3,0,0.5-0.1,0.6-0.3
	c0.1-0.2,0.4-0.3,0.6-0.3c0.4,0,0.7,0,1.1,0c0.3,0,0.5-0.1,0.8-0.2c0.2-0.1,0.4-0.2,0.5-0.3c0.2-0.1,0.3-0.3,0.4-0.5
	C163.3,98.3,163.2,98,163.3,97.6z M157.1,97.9L157.1,97.9l-0.4-0.2l0.1-0.1L157.1,97.9z M157.3,94.5l0.3-0.3
	C157.6,94.6,157.6,94.6,157.3,94.5L157.3,94.5z M159.5,97c0-0.2,0-0.4,0-0.6C159.7,96.7,159.7,96.9,159.5,97L159.5,97z"/>
<path class="st1" d="M127.8,123.9c1.1,0,2.1-0.5,2.7-1.3c0.2-0.2,0.4-0.4,0.6-0.7c0.3-0.4,0.5-0.9,0.4-1.4c0-0.6-0.3-0.8-0.9-1
	c-0.4-0.1-0.9-0.1-1.3-0.2c-0.3,0-0.7-0.2-0.9-0.5c-0.1-0.1-0.1-0.1-0.2-0.2c-0.5-0.2-0.9-0.3-1.4-0.3c-0.4,0-0.8,0.1-1.2,0.3
	c-0.4,0.2-0.8,0.4-1.2,0.6c-0.1,0-0.2,0-0.3,0c-0.6,0-1.3,0.1-1.9,0.3c0,0,0,0-0.1,0c-0.7,0.1-1,0.7-1.2,1.2
	c-0.1,0.1-0.2,0.3-0.2,0.4c-0.1,0.2-0.2,0.5-0.2,0.8c-0.1,0.4-0.2,0.7-0.3,1.1c0,0.1-0.1,0.2-0.1,0.3c-0.1,0.2-0.1,0.4,0.1,0.5
	c0,0.3,0,0.5,0,0.8c0,0.2,0.2,0.3,0.4,0.3c0,0,0.1,0,0.1,0c0.7-0.1,1.4-0.3,2-0.6c0.3-0.2,0.7-0.4,1-0.5c0.5-0.2,1-0.3,1.6-0.3
	c0.9,0.1,1.8,0.2,2.6,0.4C127.7,123.8,127.7,123.8,127.8,123.9z M122.7,123.2c-0.1,0.1-0.3,0.1-0.4,0.2c0,0-0.1-0.1-0.2-0.2
	L122.7,123.2L122.7,123.2z M127.7,121.7c0.4,0.1,0.7,0.2,1.1,0.4C127.9,122.2,127.8,122.2,127.7,121.7z"/>
<polygon class="st1" points="147.2,127.3 147.2,127.3 147.2,127.3 "/>
<path class="st1" d="M147.4,130c0,0.1-0.1,0.1-0.2,0.2c-0.1,0.1-0.2,0.2-0.3,0.2c0,0-0.1,0.1-0.1,0.1c-0.2,0-0.4,0.1-0.5,0.4
	c-0.1,0.1-0.2,0.1-0.2,0.1c-0.6,0-1.2-0.1-1.7-0.4c-0.6-0.2-1.1-0.4-1.6-0.7c-0.3-0.1-0.5-0.3-0.7-0.6c-0.3-0.3-0.5-0.7-0.6-1.1
	c-0.3-0.7-0.6-1.4-0.8-2.2c-0.1-0.4-0.1-0.7-0.1-1.1c0-0.1,0.1-0.3,0.2-0.3s0.3-0.2,0.3-0.3c0-0.4,0.2-0.7,0.4-0.9l0.2-0.2
	c0.3-0.3,0.6-0.5,0.9-0.8c0.2-0.1,0.4-0.4,0.7-0.1c0,0,0.1,0,0.1,0c0.4,0,0.7,0.1,1,0.3c0,0.2-0.2,0.4-0.1,0.5
	c0.1,0.2,0.2,0.4,0.3,0.5c0.1,0.2,0.3,0.4,0.6,0.2c0.1,0.1,0.2,0.2,0.2,0.3s-0.1,0.2-0.2,0.2c0.3-0.1,0.5-0.2,0.6,0.1
	c0,0.1-0.1,0.2-0.1,0.4l-0.3-0.2c0.1,0.3,0.4,0.6,0.7,0.6c0.1,0,0.2,0,0.2,0.1l-0.1,0.1l0.2,0.1l0,0l-0.5-0.2l0.2,0.3
	c0.1,0,0.3,0,0.2,0.2c0,0,0.2,0.2,0.3,0.1c0.4-0.1,0.4-0.1,0.5,0.3c-0.1-0.2-0.1-0.3-0.4-0.2c0.1,0.4,0.2,0.4,0.4,0.3
	c0,0.1,0.1,0.2,0.1,0.3c0,0.2,0.1,0.4,0.3,0.4c0,0.1,0,0.2,0.1,0.3c0.2,0.2,0.3,0.3,0.4,0.6l0,0c0,0.3,0,0.6-0.1,0.8
	C147.6,129.3,147.5,129.7,147.4,130z"/>
<path class="st1" d="M118,109.3c-0.1-0.4-0.2-0.8-0.2-1.3c0,0,0-0.1,0.1-0.1c0.2,0,0.2-0.1,0.2-0.2c0-0.1,0.1-0.2,0.2-0.3l1.3-0.9
	c0.1-0.1,0.2-0.1,0.2-0.2c0.3-0.4,0.6-0.9,0.9-1.3c0.2-0.2,0.4-0.5,0.6-0.6c0.2-0.2,0.4-0.3,0.7-0.4c0.6,0.1,1.1,0.1,1.6,0.4
	c0.2,0.2,0.6,0.3,0.8,0.6c0.1,0.1,0.2,0.2,0.2,0.4c0,0.2-0.1,0.4-0.1,0.6c-0.1,0.5-0.1,1.1-0.2,1.6c-0.1,0.6-0.1,1.3,0,1.9
	c0.1,0.6,0.2,1.1,0.2,1.7c0,0.1,0,0.2-0.1,0.3c-0.2,0.3-0.4,0.5-0.6,0.7c-0.2,0.1-0.3,0.3-0.5,0.1c-0.4-0.2-0.9-0.4-1.3-0.6
	c-0.7-0.3-1.4-0.6-2.1-0.9S118.3,110.2,118,109.3z"/>
<path class="st1" d="M126.8,111.1c0.2-0.3,0.5-0.5,0.8-0.8c0.4-0.5,1-0.9,1.6-1.2c0.6-0.3,1.3-0.5,1.9-0.6c0.7-0.1,1.4-0.2,2.1-0.3
	l1.2-0.2c0.6,0,1.2,0.3,1.3,0.7c0.2,0.6,0.2,1.3-0.1,1.9c-0.1,0.2-0.2,0.5-0.3,0.8c-0.1,0.5-0.5,0.9-0.9,1.1c-0.5,0.2-1,0.2-1.6,0.4
	c-0.5,0.1-1,0.1-1.4,0c-0.5-0.1-1-0.1-1.5,0.1l-2,0.5c-0.3,0-0.5,0.1-0.8,0.1c-0.2,0.1-0.3,0-0.4-0.1c0,0,0,0,0,0c0,0-0.1,0-0.1-0.1
	l-0.8-0.3c0,0-0.1-0.1-0.1-0.2c0.1-0.2,0.2-0.4,0.3-0.5l0.7-1.1C126.7,111.2,126.8,111.2,126.8,111.1z"/>
<path class="st1" d="M159.4,105.2c0.1-0.2,0-0.4-0.2-0.5c0,0,0,0-0.1,0c-0.8-0.3-1.6-0.6-2.4-0.8c-0.4-0.1-0.7-0.1-1.1-0.2
	c-0.5,0-1,0-1.5-0.2c-0.4-0.1-0.9-0.1-1.2,0.2c-0.3,0.2-0.7,0.4-1,0.6c-0.1,0-0.2,0.1-0.1,0.3c0,0.7-0.1,1.4-0.3,2.1
	c-0.1,0.3-0.1,0.5-0.1,0.8c0,0.5,0,1,0.1,1.5c0.1,0.2,0.1,0.4,0.3,0.6c0.1,0.2,0.4,0.3,0.6,0.2l0.9-0.2c0.1,0,0.2,0,0.2-0.1
	c0.2-0.2,0.5-0.3,0.8-0.2c0.5,0.1,1,0,1.5-0.1c0.5-0.1,1-0.3,1.5-0.5c0.6-0.2,1-0.7,1.3-1.2c0.4-0.6,0.7-1.3,0.9-2
	C159.4,105.4,159.4,105.3,159.4,105.2z M153.7,108.6c-0.1,0.2-0.4,0.2-0.6,0c0.2-0.1,0.3-0.1,0.5-0.2
	C153.8,108.4,153.8,108.5,153.7,108.6z"/>
<path class="st1" d="M132,93.3c0,0.1,0,0.2,0.1,0.2c0.3,0.3,0.7,0.5,1.1,0.7c0.4,0.1,0.7,0.3,1.1,0.6c0.3,0.2,0.4,0.2,0.7,0h0.1
	c0.5-0.2,1-0.6,1.2-1.1c0.1-0.2,0.3-0.4,0.5-0.6c0.4-0.3,0.8-0.7,1.2-1c0.4-0.3,0.7-0.6,1.1-0.8c0.5-0.3,0.7-0.9,1-1.3l0,0
	c0.2-0.4,0.2-0.8,0.1-1.1c0-0.3-0.1-0.6-0.2-0.9c-0.1-0.3-0.5-0.5-0.8-0.5c-0.6,0.1-1.1,0.1-1.6,0.1s-1.1,0-1.7,0
	c-0.5,0.1-0.9,0.3-1.2,0.7c-0.5,0.6-0.9,1.3-1.1,2c-0.2,0.5-0.5,1-0.8,1.5c-0.1,0.3-0.2,0.5-0.4,0.8S132.1,93.1,132,93.3z M135,88.9
	h0.4v0.1c-0.1,0.1-0.1,0.1-0.2,0.1C135.1,89,135.1,89,135,88.9z"/>
<path class="st1" d="M129.5,129.6c0-0.3-0.3-0.5-0.3-0.8s-0.1-0.5,0.1-0.7c0.1-0.2,0.3-0.3,0.4-0.5l0,0c0,0,0.1-0.4,0.2-0.5
	c0.3-0.2,0.6-0.3,0.9-0.4c0.4-0.2,0.9-0.1,1.3-0.1c0.2,0,0.3,0,0.5,0c0.2,0,0.4,0.1,0.6,0.1c0.2,0,0.4,0.1,0.6,0.1s0.2,0.2,0.4,0.2
	c0.4,0,0.7,0.2,1,0.4c0.3,0.3,0.5,0.5,0.9,0.7c0.2,0.1,0.3,0.3,0.5,0.4c0.1,0.1,0.1,0.1,0.2,0.2c0.1,0.1,0.2,0.1,0.2,0.2
	c0.3,0.4,0.4,0.9,0.3,1.4c-0.1,0.4,0,0.9-0.3,1.2c0,0,0,0.1,0,0.1c-0.1,0.2-0.1,0.5-0.4,0.6c0.1,0.1,0,0.4-0.2,0.5s-0.2,0.2-0.4,0.3
	c-0.1,0.1-0.2,0.2-0.4,0.2c-0.4,0.1-0.9,0.2-1.3,0.1c-0.1,0-0.3,0-0.4,0c0,0-0.1-0.1-0.1-0.1c-0.1-0.1-0.2-0.1-0.3-0.1
	c-0.1,0-0.6-0.4-0.6-0.5s0-0.2-0.1-0.2s-0.3-0.2-0.3-0.3c0-0.1-0.1-0.2-0.1-0.3c-0.2-0.2-0.5-0.3-0.7-0.5l0,0v-0.1l-0.3-0.1
	c0-0.3-0.2-0.4-0.5-0.4c-0.3,0-0.3-0.1-0.1-0.3l-0.6-0.3C130,129.9,129.8,129.6,129.5,129.6l0,0.1L129.5,129.6z"/>
<path class="st1" d="M131.6,131.2L131.6,131.2L131.6,131.2L131.6,131.2z"/>
<path class="st1" d="M148,91.8c0.1-0.5-0.1-1-0.5-1.3c-0.2-0.2-0.3-0.4-0.4-0.6c-0.1-0.2-0.1-0.3-0.1-0.5c0.1-0.1,0.3-0.2,0.3-0.3
	c0-0.2,0.2-0.4,0.4-0.6c0.4-0.3,0.9-0.5,1.4-0.7c0.4-0.2,0.8-0.2,1.1-0.3c1-0.4,1.9-0.8,2.9-1.2c0.4-0.2,1-0.1,1.2,0.3
	c0,0.1,0.1,0.1,0.1,0.2c0.2,0.5,0.3,1,0.1,1.5c-0.2,0.6-0.5,1.1-1,1.4c-0.5,0.3-0.6,0.9-0.3,1.4l0,0c0.2,0.7,0.2,0.9-0.5,1.5
	c-0.3,0.2-0.6,0.4-0.9,0.6c-0.4,0.3-1,0.2-1.4-0.1c-0.1-0.2-0.3-0.3-0.5-0.3c-0.5,0-1-0.2-1.4-0.4C148.1,92.3,147.9,92.1,148,91.8z"
	/>
<path class="st1" d="M140.5,106.3c-0.1,0.2-0.1,0.5-0.3,0.7c-0.1,0.2-0.2,0.5-0.3,0.8c0,0.1,0,0.2,0.1,0.3c0.5,0.6,1.1,1.1,1.8,1.4
	c0.4,0.2,0.8,0.5,1.2,0.7c0.6,0.3,1.2,0.5,1.9,0.8c0.4,0.1,0.7,0.2,1.1,0.3c0.4,0,0.7-0.3,0.8-0.6c0,0,0,0,0,0
	c0-0.2,0.1-0.4,0.1-0.6c0-0.1,0-0.2,0-0.4c-0.1-0.3-0.1-0.6-0.1-0.9c0-0.1-0.1-0.1-0.1-0.2c0.2-0.3,0.2-0.7,0-1c0,0,0-0.1-0.1-0.2
	c-0.1-0.5-0.3-1-0.5-1.4c-0.2-0.3-0.4-0.6-0.7-0.9c-0.1-0.1-0.2-0.3-0.2-0.4c-0.1-0.3-0.4-0.6-0.7-0.6c-0.2-0.1-0.4-0.2-0.6-0.3
	c-0.1,0-0.1,0-0.2,0c-0.5,0.1-1,0.3-1.4,0.6c-0.1,0.1-0.2,0.2-0.2,0.3c-0.2,0.2-0.4,0.4-0.7,0.6C140.9,105.7,140.7,106,140.5,106.3z
	 M141.3,108.3c0.1,0.2,0.2,0.3,0.3,0.5C141.4,108.7,141.2,108.6,141.3,108.3z"/>
<path class="st1" d="M165.1,116.5l-1.2,0.1c0,0-0.1,0-0.1,0.1c-0.5,0.4-1.2,0.4-1.8,0.2c-0.2-0.1-0.3-0.2-0.4-0.3
	c-0.4-0.3-0.9-0.5-1.1-1c-0.1-0.1-0.1-0.1-0.2-0.2c-0.1-0.1-0.3-0.2-0.4-0.3c0.2-0.2,0.1-0.3,0-0.4c0.1-0.2,0.1-0.4,0.2-0.6
	l-0.1-0.1l0.2-0.2l-0.2-0.1c0.1-0.1,0.2-0.2,0.2-0.2c0-0.1,0.1-0.3,0.1-0.4c0,0-0.1-0.1-0.1-0.1s0.2-0.3,0.3-0.4h-0.1
	c0,0,0.1,0,0.2-0.1c0.2-0.2,0.4-0.5,0.6-0.7c0.3-0.4,0.6-0.7,1-1c0.4-0.4,0.9-0.7,1.4-0.8c0.1-0.1,0.3,0,0.4,0.1
	c0.2,0.2,0.3,0.4,0.5,0.5c0.4,0.2,0.4,0.7,0.7,1s0.2,0.5,0.3,0.8c0.3,0.5,0.6,1,0.9,1.4c0.1,0.2,0.1,0.3,0.2,0.5
	c-0.3,0.8-0.6,1.5-0.9,2.3C165.4,116.5,165.2,116.5,165.1,116.5z"/>
<path class="st1" d="M121.2,86.1c0.1-0.4,0.2-0.5,0.6-0.5h0.8c0.5,0,1.1,0,1.6,0c0.4,0,0.8,0.2,1,0.5c0.3,0.5,0.6,1,0.9,1.5
	c0.2,0.5,0.6,1,1,1.4c0.1,0.1,0.1,0.2,0.1,0.3s-0.1,0.3-0.1,0.5c0,0.5-0.3,1-0.7,1.2c-0.1,0-0.1,0.1-0.2,0.1l-0.9,0.9v-0.1
	c-0.2,0.1-0.4,0.2-0.6,0.3c-0.3,0.2-0.8,0.2-1-0.2c-0.2-0.3-0.5-0.5-0.8-0.6c-0.4-0.1-0.8-0.2-1.2-0.3c-0.3,0-0.6-0.2-0.7-0.5
	c-0.1-0.3-0.1-0.6,0-0.8c0.2-0.7,0.3-1.4,0.2-2.1C121,87.3,121,86.7,121.2,86.1z"/>
<path class="st1" d="M140.2,118.5l0.2,0.1c0.7,0.3,1.4,0.5,2.1,0.6c0.2,0,0.4,0,0.5-0.2c0.3-0.3,0.6-0.6,0.7-1
	c0.1-0.3,0.3-0.6,0.5-0.8c0.1-0.1,0.1-0.3,0-0.4c-0.4-0.7-0.8-1.3-1.3-2l0,0c0-0.7-0.6-0.8-1-1.1s-0.9-0.1-1.4,0
	c-0.5,0.3-1,0.6-1.4,1.1c-0.7,0.7-1.5,1.3-2.3,1.7c-0.3,0.2-0.5,0.4-0.7,0.6c-0.1,0.3-0.1,0.5,0,0.8c0.2,0.6,0.8,0.9,1.5,0.9
	l1.1-0.4C139.3,118.5,139.8,118.4,140.2,118.5z M142.6,118.5c0-0.2,0.1-0.3,0.4-0.2C142.9,118.4,142.8,118.5,142.6,118.5
	L142.6,118.5z M140.5,114.8c0.2-0.3,0.6-0.4,1-0.3L140.5,114.8L140.5,114.8z"/>
<path class="st1" d="M156.5,118.6c-0.4,0.1-0.8,0.3-1.1,0.6c-0.4,0.3-0.8,0.7-1.2,1.1c-0.2,0.2-0.5,0.4-0.8,0.5
	c-0.4,0.1-0.7,0.2-1.1,0.3c-0.2,0.1-0.5,0.2-0.8,0.2c-0.6,0.1-1.2-0.2-1.5-0.7c-0.1-0.1-0.2-0.2-0.3-0.3c-0.2-0.2-0.4-0.3-0.6-0.4
	c-0.1-0.1-0.1-0.4,0-0.5l0.5-0.3c0.4-0.2,0.8-0.6,0.9-1c0-0.1,0-0.2,0.1-0.3c0.5-0.5,1.2-0.9,1.9-1.3c0.4-0.2,0.9-0.3,1.3-0.4
	l0.6,0.2c0.5,0.3,1.1,0.5,1.7,0.7c0.4,0,0.5,0.4,0.7,0.7C157.1,117.9,156.9,118.4,156.5,118.6z"/>
<path class="st1" d="M160.3,127c-0.4,0.2-0.9,0.4-1.3,0.7c-0.5,0.3-1.2,0.4-1.8,0.3c-0.5-0.2-1-0.5-1.4-0.8
	c-0.2-0.2-0.5-0.4-0.7-0.6c-0.2-0.1-0.2-0.4-0.2-0.6c0.1-0.3,0.2-0.6,0.3-1c0.1-0.5,0.5-0.9,1-1c0.4-0.1,0.7-0.1,1.1-0.2
	c0.6-0.2,1.3-0.4,1.9-0.7c0.6-0.3,1.3-0.1,1.7,0.5c0.2,0.3,0.5,0.6,0.8,0.9c-0.4,0.8-0.8,1.5-1.2,2.3L160.3,127z"/>
<path class="st1" d="M140.6,98.7C140.6,98.7,140.6,98.6,140.6,98.7c0.1-0.3,0.3-0.5,0.4-0.7c0.2-0.2,0.3-0.3,0.5-0.5
	c0.1-0.1,0.2-0.1,0.2-0.2c0.4-0.2,0.7-0.5,1.2-0.3c0,0,0.1,0,0.1,0c0.3,0,0.7,0,1,0.1s0.9,0.2,1.3,0.4c0,0,0.1,0,0.1,0
	c0.1,0.2,0.2,0.1,0.4,0.1c0.1,0,0.2,0,0.3,0.1c0.4,0.2,0.8,0.4,1,0.8c0.1,0.3,0.2,0.7,0.3,1.1c0.1,0.2,0,0.5-0.1,0.7
	c-0.1,0.1-0.2,0.2-0.3,0.3c-0.2,0.1-0.4,0-0.6,0.3s-0.4,0.2-0.7,0.3l-0.2,0.1c-0.4,0-0.8,0-1.2,0c-0.2,0-0.4,0-0.5-0.1
	c-0.5-0.1-1-0.2-1.5-0.3c-0.5-0.1-0.9-0.3-1.3-0.6c-0.1-0.1-0.2-0.2-0.1-0.4c0-0.1,0-0.1,0-0.2C140.7,99.4,140.6,99,140.6,98.7z"/>
<path class="st1" d="M168.1,106.3c-0.2,0-0.4,0.1-0.5-0.1s-0.2-0.1-0.2-0.2s0-0.3-0.2-0.5s-0.1-0.3-0.2-0.5c0,0,0-0.1-0.1-0.1V104
	c0-0.1,0-0.3,0.1-0.4c0.1-0.4,0.2-0.8,0.2-1.2c0-0.4,0.2-0.7,0.4-1c0.1-0.1,0.2-0.2,0.3-0.1c0,0,0.1,0,0.1,0l0.8-0.2c0,0,0,0,0.1,0
	c0.2,0.1,0.3,0.2,0.5,0.3c0.1,0.1,0.3,0.3,0.4,0.4l0,0c-0.3,1.4-0.6,2.8-0.9,4.1C168.5,106.2,168.3,106.2,168.1,106.3z"/>
<path class="st1" d="M126.4,132.3c-0.1,0.2-0.2,0.3-0.3,0.5c-0.1,0.1-0.3,0.2-0.4,0.4c-0.1,0.1-0.1,0.1-0.2,0.1
	c-0.3,0.1-0.5,0.4-0.9,0.2c0,0,0,0-0.1,0c-0.3,0-0.5,0-0.8-0.1c-0.3-0.1-0.6-0.2-1-0.3c0,0-0.1,0-0.1,0s-0.2-0.1-0.3-0.1
	c-0.1,0-0.1,0-0.2,0c-0.3-0.2-0.6-0.3-0.7-0.6c-0.1-0.3-0.2-0.5-0.2-0.8c-0.1-0.2,0-0.4,0.1-0.5c0.1-0.1,0.1-0.2,0.2-0.2
	c0.1-0.1,0.3,0,0.5-0.2s0.3-0.1,0.5-0.2c0,0,0.1,0,0.1-0.1h0.9c0.1,0,0.3,0,0.4,0.1c0.4,0.1,0.8,0.2,1.2,0.2c0.4,0,0.7,0.2,1,0.4
	c0.1,0.1,0.2,0.2,0.1,0.3c0,0,0,0.1,0,0.1C126.2,131.8,126.3,132,126.4,132.3C126.4,132.2,126.4,132.2,126.4,132.3z"/>
<path class="st1" d="M116.6,95.4c0.1,0.3,0.2,0.6,0.2,0.9c0.1,1,0.1,2,0.2,3.1v0.2c-0.1,0.6-0.2,1.1-0.3,1.7c0,0.2-0.1,0.5-0.3,0.7
	c-0.2,0.3-0.6,0.4-0.9,0.2c-0.1,0-0.1-0.1-0.2-0.2c-0.1-0.1-0.1-0.3-0.4-0.3s-0.3-0.1-0.1-0.3h-0.2h0.1c0-0.1-0.1-0.2-0.1-0.3
	c-0.1-0.1-0.2-0.1-0.3-0.2c-0.1-0.1-0.2-0.3-0.3-0.4c-0.2-0.1-0.3-0.4-0.3-0.6l-0.3-0.1l0,0c0-0.1-0.1-0.2-0.2-0.3
	c-0.2-0.1-0.3-0.2-0.5-0.3s-0.1-0.2-0.2-0.2s-0.4-0.1-0.6-0.2l0.1-0.3c0-0.2,0.1-0.4,0.2-0.5c0-0.1,0.2-0.2,0.2-0.3
	c0.1-0.4,0.4-0.6,0.7-0.8c0.1-0.1,0.2-0.2,0.2-0.3c0.1-0.2,0.3-0.4,0.5-0.4l0.4-0.1l1.9-0.6C116.3,95.2,116.5,95.2,116.6,95.4z"/>
<path class="st1" d="M171,93c-0.4,0.1-0.8,0-1-0.3c-0.1-0.2-0.2-0.4-0.5-0.4s-0.3-0.2-0.2-0.4H169l0.1-0.1c0-0.1-0.1-0.2-0.1-0.3
	c-0.1-0.1-0.2-0.2-0.4-0.2c-0.2-0.2-0.2-0.4-0.4-0.5c-0.2-0.2-0.4-0.5-0.4-0.7l-0.4-0.2l0.1-0.1c-0.1-0.1-0.1-0.3-0.2-0.4
	c-0.2-0.1-0.4-0.2-0.7-0.3s-0.1-0.2-0.2-0.2c-0.3-0.1-0.5-0.2-0.8-0.3l0.1-0.4c0.1-0.2,0.1-0.5,0.2-0.7c0.1-0.2,0.3-0.3,0.3-0.4
	c0.1-0.6,0.5-0.8,0.9-1c0.1-0.1,0.2-0.2,0.3-0.4c0,0,0-0.1,0.1-0.1h3.8C171.3,88,171.2,90.5,171,93z"/>
<path class="st1" d="M144.7,123c0,0.1,0,0.2,0.1,0.2c0,0,0,0.1,0,0.1c0,0-0.1,0.1-0.1,0.1c-0.1,0-0.1,0-0.2-0.1h0.1l-0.1-0.3
	L144.7,123z"/>
<path class="st1" d="M147.6,127.2c0,0,0,0.1,0,0.2h-0.2l0,0h0.1l0,0h-0.4l-0.1-0.4C147.3,127.1,147.5,127.2,147.6,127.2z"/>
<polygon class="st1" points="147.2,127.3 147.2,127.3 147.2,127.3 "/>
<path class="st1" d="M80.2,131.8c-0.2,0.2-0.4,0.3-0.7,0.3c-0.3,0-0.6,0-0.9-0.1c-0.4-0.1-0.7-0.2-1-0.5c-0.3-0.2-0.6-0.3-0.8-0.5
	c-0.3-0.2-0.6-0.4-0.8-0.6c-0.2-0.3-0.6-0.4-0.9-0.5c-0.5,0-1,0.1-1.5,0.1c-0.4,0.1-0.9,0.1-1.3,0c-0.9-0.2-1.8-0.5-2.7-0.7
	c-0.2-0.1-0.3-0.2-0.4-0.3c0,0,0-0.2,0-0.3s0.1-0.2,0.1-0.3s-0.1-0.4,0-0.5c0.1-0.3,0.3-0.6,0.5-0.8c0.3-0.3,0.6-0.5,0.9-0.8
	c0.5-0.7,1.2-1.2,1.9-1.7c0.7-0.4,1.5-0.8,2.2-1.3c0.3-0.2,0.8-0.2,1.1,0c0.2,0.1,0.4,0.3,0.6,0.4c0.4,0.4,0.8,0.9,1.2,1.3
	s0.9,0.8,1.3,1.1c0,0,0.1,0.1,0.1,0.2c0.1,0.5,0.7,0.5,0.8,0.9H80c0.4,0.2,0.7,0.6,0.8,1c0.1,0.1,0.1,0.3,0.2,0.4
	c0.2,0.2,0.4,0.3,0.5,0.5c0.1,0.2,0.3,0.5,0.4,0.8c-0.1,0.2-0.2,0.5-0.3,0.7C81.2,130.9,80.7,131.4,80.2,131.8z"/>
<path class="st1" d="M100.6,125C100.6,125,100.6,125.1,100.6,125c-0.2,0.5,0.1,0.8,0.3,1c0.4,0.4,0.8,0.8,1.3,1
	c0.3,0.1,0.6,0.3,0.8,0.5c0.4,0.3,0.9,0.4,1.4,0.5c0.3,0,0.5-0.1,0.6-0.3c0.1-0.2,0.4-0.3,0.6-0.3c0.3,0,0.7,0,1,0
	c0.3,0,0.5-0.1,0.8-0.2c0.2-0.1,0.4-0.2,0.5-0.4c0.1-0.2,0.3-0.3,0.4-0.5c0.3-0.3,0.3-0.6,0.3-1c-0.1-0.4,0-0.8,0.3-1.1
	c0.1-0.3,0.2-0.7,0.2-1.1c0-0.8-0.1-1.6-0.2-2.3c-0.1-0.4-0.2-0.7-0.3-1c-0.2-0.3-0.5-0.3-0.8-0.4c-0.6-0.1-1.3,0-1.9,0.2
	c-0.8,0.2-1.6,0.5-2.4,1c-0.4,0.2-0.7,0.5-1.1,0.8c-0.1,0.1-0.2,0.3-0.3,0.4c-0.1,0.4-0.4,0.7-0.7,0.9c-0.3,0.2-0.5,0.4-0.8,0.7
	c-0.1,0.1-0.1,0.3-0.2,0.5C100.6,124.2,100.6,124.6,100.6,125z M105,124c0.2,0.3,0.2,0.4,0,0.6C105.1,124.4,105.1,124.2,105,124z
	 M102.9,122l0.3-0.3C103.2,122.2,103.2,122.2,102.9,122L102.9,122z M102.3,125.3L102.3,125.3l0.4,0.1c0,0-0.1,0.1-0.1,0.1
	L102.3,125.3z"/>
<path class="st1" d="M73.4,151.4c1.1,0,2.1-0.5,2.7-1.3c0.2-0.2,0.4-0.4,0.6-0.7c0.3-0.4,0.5-0.9,0.4-1.4c0-0.6-0.3-0.8-0.9-1
	c-0.4-0.1-0.9-0.1-1.3-0.2c-0.4,0-0.7-0.2-0.9-0.5c-0.1-0.1-0.1-0.1-0.2-0.2c-0.5-0.2-0.9-0.3-1.4-0.3c-0.4,0-0.8,0.1-1.2,0.3
	c-0.4,0.1-0.8,0.4-1.2,0.6c-0.1,0-0.2,0-0.3,0c-0.6-0.1-1.3,0.1-1.9,0.4c0,0,0,0-0.1,0c-0.6,0.2-1,0.6-1.2,1.2
	c-0.1,0.1-0.2,0.3-0.2,0.4c-0.1,0.2-0.2,0.5-0.2,0.8c-0.1,0.4-0.2,0.7-0.3,1.1c0,0.1-0.1,0.2-0.1,0.3c-0.1,0.2-0.1,0.4,0.1,0.5
	c0,0.3,0,0.5,0,0.8c0,0.2,0.2,0.3,0.4,0.3c0,0,0,0,0.1,0c0.7-0.1,1.4-0.3,2-0.6c0.3-0.2,0.7-0.4,1-0.5c0.5-0.2,1-0.3,1.6-0.2
	c0.9,0.1,1.8,0.2,2.6,0.4C73.3,151.4,73.4,151.4,73.4,151.4z M68.3,150.8c-0.1,0.1-0.3,0.1-0.4,0.2c0,0-0.1-0.1-0.2-0.2L68.3,150.8
	L68.3,150.8z M73.3,149.3c0.4,0,0.7,0.3,1.1,0.4C73.5,149.8,73.4,149.8,73.3,149.3L73.3,149.3z"/>
<polygon class="st1" points="92.8,154.9 92.8,154.9 92.8,154.9 "/>
<path class="st1" d="M90.7,151.5c0.1,0.1,0.2,0.2,0.2,0.3s-0.1,0.2-0.2,0.3c0.3-0.1,0.5-0.2,0.6,0.1l-0.1,0.4l-0.3-0.2
	c0.1,0.3,0.4,0.6,0.7,0.6c0.1,0,0.2,0,0.2,0.1l-0.1,0.1l0.2,0.1l0,0l-0.5-0.2c0.1,0.1,0.1,0.2,0.2,0.4s0.3,0,0.2,0.2
	c0,0,0.2,0.1,0.3,0.1c0.4-0.1,0.4-0.1,0.5,0.3c-0.1-0.1-0.2-0.3-0.4-0.2c0.1,0.4,0.2,0.4,0.4,0.3c0.1,0.1,0.1,0.2,0.1,0.3
	c0,0.2,0.1,0.4,0.3,0.4c0,0.1,0,0.2,0.1,0.3c0.2,0.2,0.3,0.4,0.4,0.6l0,0c0,0.6-0.1,1.2-0.3,1.8c0,0.1-0.1,0.1-0.2,0.2l-0.3,0.2
	c0,0-0.1,0.1-0.2,0.1c-0.2,0-0.4,0.1-0.5,0.3c-0.1,0.1-0.2,0.1-0.2,0.1c-0.6,0-1.2-0.1-1.7-0.4c-0.5-0.2-1.1-0.4-1.6-0.7
	c-0.3-0.1-0.5-0.3-0.7-0.6c-0.3-0.3-0.5-0.7-0.6-1.1c-0.3-0.7-0.6-1.4-0.8-2.2c-0.1-0.4-0.1-0.7-0.1-1.1c0-0.1,0.1-0.3,0.2-0.3
	c0.2,0,0.3-0.2,0.3-0.4c0-0.3,0.2-0.6,0.5-0.8l0.2-0.2c0.3-0.3,0.6-0.6,0.9-0.8s0.4-0.4,0.7-0.1c0,0,0.1,0,0.1,0
	c0.4,0,0.7,0.1,1,0.3c-0.1,0.2-0.2,0.4-0.1,0.5c0.1,0.2,0.2,0.4,0.3,0.5C90.2,151.5,90.4,151.6,90.7,151.5z"/>
<path class="st1" d="M70.2,138.7c0,0.1,0,0.2-0.1,0.3c-0.2,0.3-0.4,0.5-0.6,0.7c-0.1,0.1-0.3,0.3-0.5,0.1c-0.4-0.2-0.9-0.4-1.3-0.6
	c-0.7-0.3-1.4-0.6-2.1-0.9s-1.6-0.6-1.9-1.5c-0.1-0.4-0.2-0.8-0.2-1.3c0,0,0-0.1,0.1-0.1c0.2,0,0.2-0.1,0.2-0.2
	c0-0.1,0.1-0.2,0.2-0.3c0.4-0.3,0.9-0.6,1.3-0.9c0.1-0.1,0.2-0.1,0.2-0.2c0.3-0.4,0.6-0.9,0.9-1.3c0.2-0.2,0.4-0.5,0.6-0.6
	c0.2-0.2,0.4-0.3,0.7-0.4c0.6,0.1,1.1,0.1,1.6,0.5c0.2,0.2,0.6,0.3,0.8,0.5c0.1,0.1,0.2,0.3,0.2,0.4c0,0.2,0,0.4-0.1,0.6
	c-0.1,0.5-0.1,1.1-0.2,1.6c-0.1,0.6-0.1,1.3,0,1.9C70,137.6,70.2,138.2,70.2,138.7z"/>
<path class="st1" d="M72.4,138.7c0.3-0.2,0.5-0.5,0.8-0.8c0.4-0.5,1-0.9,1.6-1.2c0.6-0.3,1.3-0.5,1.9-0.6c0.7-0.1,1.4-0.2,2.1-0.3
	l1.2-0.1c0.6,0,1.2,0.3,1.3,0.7c0.2,0.6,0.2,1.3,0,1.9c-0.1,0.2-0.2,0.5-0.3,0.8c-0.1,0.5-0.5,1-1,1.1c-0.5,0.2-1,0.2-1.6,0.4
	c-0.5,0.1-1,0.1-1.4,0c-0.5-0.1-1-0.1-1.5,0.1c-0.7,0.2-1.3,0.3-2,0.5c-0.3,0-0.6,0.1-0.8,0.1c-0.2,0.1-0.3,0-0.5-0.2
	s-0.1,0-0.1-0.1l-0.8-0.4c0-0.1,0-0.1,0-0.2c0.1-0.2,0.2-0.4,0.3-0.5c0.2-0.4,0.5-0.7,0.7-1.1C72.3,138.8,72.4,138.7,72.4,138.7z"/>
<path class="st1" d="M97.3,132.2c0,0.7-0.1,1.5-0.3,2.1c-0.1,0.3-0.1,0.5-0.1,0.8c0,0.5,0,1,0.1,1.5c0.1,0.2,0.2,0.4,0.3,0.6
	c0.1,0.2,0.4,0.3,0.6,0.2l0.9-0.2c0.1,0,0.2,0,0.2-0.1c0.2-0.2,0.5-0.3,0.8-0.2c0.5,0.1,1,0,1.5-0.1c0.5-0.1,1-0.3,1.5-0.5
	c0.5-0.2,1-0.7,1.3-1.2c0.4-0.6,0.7-1.3,0.9-2c0-0.1,0-0.2,0-0.2c0.1-0.2-0.1-0.4-0.3-0.5c0,0,0,0,0,0c-0.8-0.3-1.6-0.6-2.4-0.8
	c-0.4-0.1-0.7-0.1-1.1-0.2c-0.5,0-1,0-1.5-0.2c-0.4-0.1-0.9-0.1-1.2,0.2c-0.3,0.2-0.7,0.4-1,0.6C97.3,132,97.3,132.1,97.3,132.2z
	 M98.7,136.2c0.2-0.1,0.3-0.1,0.5-0.2c0.2,0,0.2,0.1,0.1,0.2S99,136.4,98.7,136.2L98.7,136.2z"/>
<path class="st1" d="M84.7,117.6c0.4-0.3,0.7-0.6,1.1-0.8c0.5-0.3,0.7-0.9,1-1.3l0,0c0.2-0.4,0.2-0.8,0.1-1.1c0-0.3-0.1-0.5-0.2-0.8
	c-0.1-0.3-0.5-0.5-0.8-0.5c-0.5,0.1-1.1,0.1-1.6,0.1s-1.1,0-1.7,0c-0.5,0.1-0.9,0.3-1.2,0.7c-0.5,0.6-0.9,1.3-1.1,2
	c-0.2,0.5-0.5,1-0.8,1.4c-0.1,0.3-0.2,0.5-0.4,0.8s-0.2,0.4-0.3,0.7c0,0.1,0,0.2,0.1,0.2c0.3,0.3,0.7,0.5,1.1,0.6
	c0.4,0.2,0.7,0.4,1,0.6c0.3,0.2,0.4,0.2,0.7,0c0,0,0.1,0,0.1,0c0.5-0.2,1-0.5,1.2-1c0.1-0.2,0.3-0.4,0.5-0.6
	C83.9,118.2,84.3,117.9,84.7,117.6z M82.2,114.4c-0.1,0-0.1,0.1-0.2,0.1c0,0-0.1-0.1-0.2-0.2L82.2,114.4L82.2,114.4z"/>
<path class="st1" d="M77.2,158.8L77.2,158.8L77.2,158.8L77.2,158.8z"/>
<path class="st1" d="M75.1,157.2c0-0.3-0.3-0.5-0.3-0.8s-0.1-0.5,0.1-0.7c0.1-0.2,0.3-0.3,0.4-0.5l0,0c0.1-0.2,0.1-0.4,0.2-0.5
	c0.3-0.2,0.6-0.3,0.8-0.4c0.4-0.1,0.9-0.1,1.3-0.1c0.2,0,0.3,0,0.5,0c0.2,0,0.4,0.1,0.6,0.1s0.4,0.1,0.6,0.1s0.2,0.2,0.4,0.2
	c0.4,0,0.7,0.2,1,0.4c0.3,0.3,0.5,0.5,0.8,0.7c0.2,0.1,0.3,0.3,0.5,0.4c0.1,0.1,0.1,0.1,0.2,0.2s0.2,0.1,0.2,0.2
	c0.3,0.4,0.4,0.9,0.3,1.4c-0.1,0.4,0,0.9-0.3,1.2c0,0,0,0.1,0,0.1c-0.1,0.2-0.1,0.5-0.4,0.6c0.1,0.1,0,0.4-0.2,0.5s-0.2,0.2-0.4,0.3
	c-0.1,0.1-0.2,0.2-0.3,0.2c-0.4,0.1-0.9,0.2-1.3,0.1c-0.1,0-0.3,0-0.4,0c0,0-0.1-0.1-0.1-0.1c-0.1-0.1-0.2-0.1-0.3-0.1
	c-0.1,0-0.6-0.4-0.6-0.5s0-0.2-0.1-0.2s-0.3-0.2-0.3-0.3c0-0.1-0.1-0.2-0.2-0.3c-0.2-0.2-0.5-0.3-0.7-0.5l0,0v-0.1l-0.3-0.1
	c0-0.2-0.2-0.4-0.5-0.4c-0.3,0-0.3,0-0.1-0.3l-0.6-0.3C75.6,157.4,75.4,157.2,75.1,157.2L75.1,157.2L75.1,157.2z"/>
<path class="st1" d="M93.9,120c-0.3-0.1-0.4-0.4-0.3-0.6c0.1-0.5-0.1-1-0.5-1.3c-0.2-0.2-0.3-0.4-0.4-0.6c-0.1-0.2-0.1-0.3-0.2-0.5
	c0.1-0.1,0.3-0.2,0.3-0.3c0-0.2,0.2-0.4,0.4-0.6c0.4-0.3,0.9-0.5,1.4-0.7c0.4-0.1,0.8-0.2,1.1-0.3c1-0.4,1.9-0.8,2.9-1.2
	c0.4-0.2,1-0.1,1.2,0.3c0,0.1,0.1,0.1,0.1,0.2c0.2,0.5,0.3,1,0.1,1.5c-0.2,0.6-0.5,1.1-1,1.4c-0.5,0.3-0.6,0.9-0.3,1.4l0,0
	c0.2,0.7,0.2,1-0.5,1.5c-0.3,0.2-0.6,0.4-0.9,0.6c-0.4,0.3-1,0.3-1.4-0.1c-0.1-0.2-0.3-0.3-0.5-0.3C94.8,120.4,94.3,120.2,93.9,120z
	"/>
<path class="st1" d="M88.5,137.9c0.6,0.3,1.2,0.5,1.8,0.8c0.4,0.1,0.7,0.2,1.1,0.3c0.4,0,0.7-0.3,0.8-0.7c0,0,0,0,0,0
	c0-0.2,0.1-0.4,0.1-0.6c0-0.1,0-0.2,0-0.4c0-0.3-0.1-0.6-0.1-0.9c0-0.1-0.1-0.1-0.2-0.2c0.2-0.3,0.2-0.7,0-1c0,0,0-0.1,0-0.1
	c-0.1-0.5-0.3-1-0.6-1.4c-0.2-0.3-0.4-0.6-0.7-0.9c-0.1-0.1-0.2-0.2-0.2-0.4c-0.1-0.3-0.4-0.6-0.7-0.6c-0.2-0.1-0.4-0.2-0.6-0.3
	c-0.1,0-0.1-0.1-0.2-0.1c-0.5,0.1-1,0.3-1.4,0.6c-0.1,0.1-0.1,0.2-0.2,0.3c-0.2,0.2-0.4,0.4-0.7,0.6c-0.3,0.2-0.5,0.5-0.6,0.9
	c-0.2,0.2-0.2,0.5-0.3,0.7c-0.1,0.2-0.2,0.5-0.3,0.8c0,0.1,0,0.2,0.1,0.4c0.5,0.6,1.1,1.1,1.8,1.4C87.8,137.4,88.1,137.7,88.5,137.9
	z M87.2,136.4c-0.2-0.1-0.4-0.2-0.3-0.5C87,136.1,87.1,136.2,87.2,136.4z"/>
<path class="st1" d="M107.1,144c-0.4-0.3-0.9-0.5-1.1-1c-0.1-0.1-0.1-0.1-0.2-0.2l-0.4-0.3c0.2-0.2,0.1-0.3,0-0.4l0.2-0.6l-0.2-0.1
	l0.2-0.2l-0.2-0.1c0.1-0.1,0.2-0.1,0.2-0.2c0-0.1,0.1-0.3,0.1-0.4c0,0-0.1-0.1-0.1-0.1l0.3-0.4h-0.1c0,0,0.1,0,0.2-0.1
	c0.2-0.2,0.3-0.5,0.6-0.7c0.3-0.4,0.6-0.7,1-1.1c0.4-0.4,0.9-0.7,1.4-0.8c0.1-0.1,0.3,0,0.4,0.1c0.2,0.2,0.3,0.4,0.5,0.5
	c0.4,0.2,0.5,0.7,0.7,1s0.2,0.5,0.3,0.8c0.3,0.5,0.6,0.9,0.9,1.4c0.1,0.2,0.2,0.4,0.2,0.7c0.1,0.2,0.1,0.5,0,0.8
	c0,0.1,0.1,0.1,0.1,0.2c0,0.1,0,0.2,0,0.2c-0.1,0.1-0.2,0.2-0.3,0.3c-0.2,0.1-0.3,0.2-0.5,0.4c-0.2,0.2-0.4,0.3-0.7,0.4
	c-0.4,0-0.8,0-1.2,0.1c0,0-0.1,0.1-0.1,0.1c-0.5,0.4-1.2,0.4-1.8,0.2C107.3,144.2,107.2,144.1,107.1,144z"/>
<path class="st1" d="M63.8,116.7c0.5-0.5,0.9-1.1,1.2-1.7c0.2-0.6,0.6-1,1-1.4c0.3-0.3,0.4-0.3,0.8-0.1s0.4,0.2,0.7,0.4
	c0.5,0.3,0.9,0.5,1.4,0.8c0.4,0.2,0.6,0.5,0.6,0.9c0,0.6,0,1.2,0,1.8c-0.1,0.6,0,1.2,0.2,1.7c0,0.1,0,0.2-0.1,0.3
	c-0.1,0.2-0.2,0.2-0.3,0.4c-0.2,0.4-0.7,0.7-1.2,0.7h-0.2l-1.3,0.3v-0.1l-0.7-0.1c-0.5,0-0.7-0.2-0.8-0.7c-0.1-0.4-0.2-0.7-0.4-1
	c-0.3-0.3-0.6-0.6-0.9-0.9c-0.2-0.2-0.4-0.5-0.3-0.8C63.4,117.1,63.6,116.8,63.8,116.7z"/>
<path class="st1" d="M85.8,146.1c0.1,0,0.1,0,0.2,0.1c0.7,0.3,1.4,0.5,2.1,0.6c0.2,0,0.4,0,0.5-0.2c0.3-0.3,0.6-0.6,0.7-1
	c0.1-0.3,0.3-0.6,0.5-0.8c0.1-0.1,0.1-0.3,0-0.4c-0.4-0.7-0.8-1.4-1.3-2l0,0c0-0.7-0.6-0.8-1-1.1s-0.9-0.1-1.3,0
	c-0.5,0.3-1,0.6-1.4,1.1c-0.7,0.7-1.5,1.3-2.3,1.7c-0.3,0.2-0.5,0.4-0.7,0.6c-0.1,0.3-0.1,0.5,0,0.8c0.2,0.6,0.8,0.9,1.5,0.9
	l1.1-0.4C84.9,146.1,85.4,146,85.8,146.1z M88.2,146.1c0-0.2,0.2-0.3,0.4-0.2C88.5,146,88.4,146.1,88.2,146.1z M86.1,142.4
	c0.2-0.3,0.6-0.4,1-0.3L86.1,142.4L86.1,142.4z"/>
<path class="st1" d="M96.4,147c-0.1-0.1-0.2-0.2-0.3-0.3c-0.2-0.2-0.4-0.3-0.6-0.4c-0.1-0.1-0.1-0.4,0-0.5l0.5-0.3
	c0.4-0.2,0.8-0.6,0.9-1c0-0.1,0-0.2,0.1-0.3c0.5-0.5,1.2-1,1.8-1.3c0.4-0.2,0.9-0.3,1.3-0.4l0.7,0.2c0.5,0.3,1.1,0.5,1.7,0.7
	c0.4,0.1,0.5,0.4,0.7,0.7c0.1,0.4-0.1,0.9-0.5,1.1c-0.4,0.1-0.8,0.3-1.1,0.6c-0.4,0.3-0.8,0.7-1.2,1.1c-0.2,0.2-0.5,0.4-0.8,0.5
	c-0.4,0.1-0.7,0.2-1.1,0.3c-0.2,0.1-0.5,0.2-0.8,0.2C97.3,147.8,96.7,147.5,96.4,147z"/>
<path class="st1" d="M105.2,152.1c0.1,0.1,0.3,0.2,0.5,0.3c-0.4,0.2-0.7,0.5-0.9,0.9c0,0-0.1,0.1-0.1,0.1l-1.3,0.7
	c-0.4,0.2-0.9,0.4-1.3,0.7c-0.5,0.3-1.2,0.4-1.8,0.3c-0.5-0.2-1-0.4-1.4-0.8c-0.2-0.2-0.4-0.4-0.7-0.6c-0.2-0.1-0.2-0.4-0.2-0.6
	c0.1-0.3,0.2-0.6,0.3-1c0.1-0.5,0.5-0.9,1-1c0.4-0.1,0.7-0.1,1.1-0.2c0.6-0.2,1.3-0.4,1.9-0.6c0.6-0.3,1.3-0.1,1.7,0.5
	C104.3,151.2,104.7,151.7,105.2,152.1z"/>
<path class="st1" d="M86.2,126.3C86.2,126.2,86.2,126.2,86.2,126.3c0.1-0.3,0.3-0.5,0.4-0.7c0.2-0.2,0.3-0.4,0.5-0.5
	c0.1-0.1,0.2-0.1,0.3-0.2c0.4-0.2,0.7-0.5,1.2-0.3c0,0,0.1,0,0.1,0c0.3,0,0.7,0,1,0.1c0.4,0.1,0.8,0.2,1.3,0.3c0,0,0.1,0,0.1,0
	c0.1,0.2,0.2,0.1,0.4,0.1c0.1,0,0.2,0,0.3,0.1c0.4,0.2,0.8,0.4,1,0.8c0.1,0.3,0.2,0.7,0.3,1.1c0.1,0.2,0,0.5-0.1,0.7
	c-0.1,0.1-0.2,0.2-0.2,0.3c-0.2,0.1-0.5,0-0.6,0.3s-0.5,0.2-0.7,0.3l-0.2,0.1h-1.2c-0.2,0-0.4,0-0.5-0.1c-0.5-0.1-1-0.2-1.5-0.3
	c-0.5-0.1-0.9-0.2-1.3-0.6c-0.1-0.1-0.2-0.2-0.1-0.4c0-0.1,0-0.1,0-0.2C86.3,127,86.3,126.6,86.2,126.3z"/>
<path class="st1" d="M116.5,132.1c-0.1,0.4-0.2,0.8-0.3,1.2c0,0,0,0.1,0,0.1c-0.2,0.1-0.1,0.2-0.1,0.4c0,0.1,0,0.2-0.1,0.2
	c-0.2,0.3-0.4,0.7-0.8,0.9c-0.3,0.1-0.7,0.2-1,0.2c-0.2,0.1-0.5,0-0.7-0.1c-0.1-0.1-0.2-0.1-0.3-0.2c-0.1-0.2,0-0.4-0.3-0.6
	s-0.2-0.4-0.3-0.6c0-0.1-0.1-0.1-0.1-0.2c0-0.4,0-0.8,0-1.1c0-0.2,0-0.3,0.1-0.5c0.1-0.5,0.2-1,0.3-1.4c0-0.5,0.2-0.9,0.5-1.2
	c0.1-0.1,0.2-0.2,0.4-0.1c0.1,0,0.1,0,0.2,0l1-0.2h0c0.2,0.1,0.4,0.3,0.6,0.4s0.3,0.3,0.5,0.5c0.1,0.1,0.1,0.1,0.2,0.2
	c0.2,0.4,0.4,0.7,0.3,1.1c0,0,0,0.1,0,0.1C116.5,131.5,116.5,131.8,116.5,132.1z"/>
<path class="st1" d="M58.5,115.3c-0.1,0.2-0.2,0.3-0.3,0.5c-0.1,0.1-0.2,0.3-0.4,0.4c-0.1,0.1-0.1,0.1-0.2,0.2
	c-0.3,0.1-0.5,0.3-0.9,0.2h-0.1c-0.3,0-0.5,0-0.8-0.1c-0.3-0.1-0.6-0.2-1-0.3c0,0-0.1,0-0.1,0s-0.2-0.1-0.3-0.1c-0.1,0-0.1,0-0.2,0
	c-0.3-0.2-0.6-0.3-0.7-0.6c-0.1-0.3-0.2-0.5-0.2-0.8c0-0.2,0-0.4,0.1-0.5c0.1-0.1,0.1-0.2,0.2-0.2s0.3,0,0.5-0.2s0.3-0.2,0.5-0.2
	c0,0,0.1,0,0.1-0.1h0.9c0.1,0,0.3,0,0.4,0c0.4,0.1,0.8,0.2,1.2,0.2c0.4,0,0.7,0.2,1,0.4c0.1,0.1,0.2,0.2,0.1,0.3c0,0,0,0.1,0,0.2
	L58.5,115.3C58.5,115.3,58.5,115.3,58.5,115.3z"/>
<path class="st1" d="M62.6,167.6c0-0.2-0.1-0.4,0.1-0.5c0.1-0.1,0.1-0.2,0.2-0.2c0.1-0.1,0.3,0,0.5-0.2s0.3-0.2,0.5-0.2
	c0,0,0.1,0,0.1-0.1c0.3,0,0.6,0,0.9,0c0.1,0,0.3,0,0.4,0c0.4,0.1,0.8,0.2,1.2,0.2c0.4,0,0.7,0.2,1,0.4c0.1,0.1,0.2,0.2,0.1,0.3
	c0,0,0,0.1,0,0.1c0,0.3,0.1,0.5,0.2,0.8c0,0,0,0.1,0,0.1c-0.1,0.2-0.2,0.3-0.3,0.5c-0.1,0.1-0.1,0.1-0.2,0.2c-1.5-0.3-3-0.7-4.5-1.1
	C62.7,167.8,62.7,167.7,62.6,167.6z"/>
<path class="st1" d="M57.1,128.4L57.1,128.4c0-0.2-0.1-0.3-0.2-0.4c-0.2-0.1-0.3-0.2-0.5-0.3s-0.1-0.2-0.2-0.2s-0.4-0.1-0.6-0.2
	l0.1-0.3c0-0.2,0.1-0.4,0.2-0.5c0-0.1,0.2-0.2,0.2-0.3c0.1-0.4,0.4-0.6,0.7-0.8c0.1-0.1,0.2-0.2,0.2-0.3c0.1-0.2,0.3-0.4,0.5-0.4
	l0.4-0.1l1.9-0.6c0.2,0,0.3,0,0.4,0.2c0.1,0.3,0.2,0.6,0.2,0.9c0.1,1,0.1,2,0.2,3.1c0,0,0,0.1,0,0.1c-0.1,0.6-0.2,1.1-0.3,1.7
	c0,0.2-0.1,0.5-0.3,0.7c-0.2,0.3-0.6,0.4-0.9,0.2c-0.1,0-0.1-0.1-0.2-0.2c-0.1-0.1-0.1-0.3-0.4-0.3s-0.3-0.1-0.1-0.3h-0.2h0.1
	c0-0.1,0-0.2-0.1-0.3c-0.1-0.1-0.2-0.1-0.3-0.2c-0.1-0.1-0.2-0.3-0.3-0.4c-0.2-0.1-0.3-0.4-0.3-0.6L57.1,128.4z"/>
<path class="st1" d="M117.2,113.9c0.1,0.3,0.2,0.7,0.2,1c0.1,1,0.1,2,0.2,3c0,0.1,0,0.1,0,0.2c-0.1,0.6-0.2,1.1-0.3,1.7
	c0,0.2-0.1,0.5-0.3,0.7c-0.2,0.3-0.6,0.3-0.9,0.1c0,0-0.1-0.1-0.1-0.1c-0.1-0.1-0.1-0.3-0.4-0.3s-0.3-0.1-0.1-0.3h-0.2h0.1
	c0-0.1-0.1-0.2-0.1-0.3c-0.1-0.1-0.2-0.1-0.3-0.2c-0.1-0.1-0.2-0.3-0.3-0.4c-0.2-0.1-0.3-0.3-0.3-0.6l-0.3-0.1h0.1
	c-0.1-0.1-0.1-0.2-0.2-0.3c-0.2-0.1-0.3-0.2-0.5-0.3s-0.1-0.2-0.2-0.2s-0.4-0.1-0.6-0.2c0-0.2,0.1-0.2,0.1-0.3
	c0-0.2,0.1-0.4,0.2-0.5c0-0.1,0.2-0.2,0.2-0.3c0.1-0.4,0.4-0.6,0.7-0.8c0.1-0.1,0.2-0.2,0.2-0.3c0.1-0.2,0.3-0.3,0.5-0.4l0.4-0.1
	l1.9-0.6C117,113.7,117.2,113.7,117.2,113.9z"/>
<polygon class="st1" points="92.8,154.9 92.8,154.9 92.8,154.9 "/>
<path class="st1" d="M93.2,154.8c0,0,0,0.1,0,0.2h-0.2l0,0h0.1l0,0l-0.4,0.1l-0.1-0.4C92.9,154.6,93.1,154.7,93.2,154.8z"/>
<path class="st1" d="M89.6,95.1c0.9,0.2,1.8,0.4,2.7,0.7c0.2,0.1,0.3,0.2,0.4,0.3c0,0,0,0.2,0,0.3c0,0.1,0,0.2,0,0.3
	c0,0.2,0.1,0.4,0,0.5c-0.1,0.3-0.3,0.6-0.5,0.8c-0.3,0.3-0.6,0.5-0.9,0.8c-0.5,0.7-1.2,1.2-1.9,1.7c-0.7,0.4-1.5,0.8-2.2,1.3
	c-0.3,0.3-0.8,0.3-1.1,0c-0.2-0.1-0.4-0.3-0.6-0.4c-0.4-0.4-0.8-0.9-1.2-1.3S83.5,99.4,83,99c0,0-0.1-0.1-0.1-0.2
	c-0.1-0.5-0.7-0.5-0.8-0.9c0,0,0,0-0.1,0c-0.4-0.2-0.7-0.6-0.8-1c-0.1-0.1-0.1-0.3-0.2-0.4c-0.2-0.2-0.4-0.4-0.5-0.6
	c-0.1-0.2-0.3-0.5-0.4-0.8c0.1-0.2,0.2-0.5,0.3-0.7c0.4-0.4,0.9-0.8,1.4-1.2c0.2-0.2,0.4-0.3,0.7-0.3c0.3,0,0.6,0,0.9,0.1
	c0.4,0.1,0.7,0.2,1,0.5c0.3,0.2,0.6,0.3,0.8,0.5c0.3,0.2,0.6,0.4,0.8,0.6c0.2,0.3,0.6,0.4,0.9,0.5c0.5,0,1-0.1,1.5-0.1
	C88.8,95.1,89.2,95,89.6,95.1z"/>
<path class="st1" d="M53.1,99.9c0.1,0.4,0,0.8-0.3,1.1c-0.1,0.3-0.2,0.7-0.2,1.1c0,0.8,0.1,1.6,0.2,2.3c0,0.4,0.2,0.7,0.3,1
	c0.2,0.3,0.5,0.3,0.8,0.4c0.6,0.1,1.3,0,1.9-0.2c0.8-0.2,1.6-0.5,2.4-1c0.4-0.2,0.7-0.5,1.1-0.8c0.1-0.1,0.2-0.3,0.3-0.4
	c0.1-0.4,0.4-0.7,0.7-0.9c0.3-0.2,0.5-0.4,0.8-0.7c0.1-0.2,0.1-0.3,0.1-0.5c0.1-0.4,0.2-0.8,0.1-1.2c0,0,0-0.1,0-0.1
	c0.2-0.4-0.1-0.7-0.3-0.9c-0.4-0.4-0.8-0.8-1.3-1c-0.3-0.1-0.6-0.3-0.9-0.5c-0.4-0.2-0.9-0.4-1.4-0.5c-0.3,0-0.5,0.1-0.6,0.3
	c-0.1,0.2-0.4,0.3-0.6,0.3c-0.4,0-0.7,0-1.1,0c-0.3,0-0.5,0.1-0.8,0.2c-0.2,0.1-0.4,0.2-0.5,0.3c-0.1,0.2-0.3,0.3-0.4,0.5
	C53.1,99.2,53.2,99.6,53.1,99.9z M59.3,99.6l0.1-0.1l0.3,0.2l-0.1,0.1L59.3,99.6z M59.1,103l-0.3,0.3
	C58.8,102.9,58.8,102.9,59.1,103z M56.9,100.4v0.6C56.7,100.8,56.7,100.6,56.9,100.4L56.9,100.4z"/>
<path class="st1" d="M114.3,86.7c0-0.3,0-0.5,0-0.8c0-0.2-0.2-0.3-0.4-0.3c0,0,0,0-0.1,0c-0.7,0.1-1.4,0.3-2,0.6
	c-0.3,0.2-0.7,0.4-1,0.5c-0.5,0.2-1,0.3-1.6,0.3c-0.9-0.1-1.8-0.2-2.6-0.4c-0.1,0-0.1,0-0.2,0c-1.1,0-2.1,0.5-2.7,1.3
	c-0.2,0.2-0.4,0.4-0.6,0.7c-0.3,0.4-0.5,0.9-0.4,1.4c0,0.6,0.3,0.8,0.9,1c0.4,0.1,0.9,0.2,1.3,0.2c0.4,0,0.7,0.2,0.9,0.5
	c0.1,0.1,0.1,0.1,0.2,0.2c0.5,0.2,0.9,0.3,1.4,0.3c0.4,0,0.8-0.1,1.2-0.3c0.4-0.2,0.8-0.4,1.2-0.6c0.1,0,0.2,0,0.3,0
	c0.6,0.1,1.3-0.1,1.9-0.3h0.1c0.6-0.2,1-0.6,1.2-1.2l0.2-0.4c0.1-0.2,0.2-0.5,0.2-0.7c0.1-0.4,0.2-0.7,0.3-1.1
	c0-0.1,0.1-0.2,0.1-0.3C114.5,86.9,114.5,86.7,114.3,86.7z M106.6,88.7c-0.4-0.1-0.7-0.2-1.1-0.4C106.4,88.2,106.5,88.2,106.6,88.7
	L106.6,88.7z M112.2,87.1l-0.5,0.1v-0.1c0.1,0,0.2-0.1,0.4-0.1C112,87,112.1,87.1,112.2,87.1L112.2,87.1z"/>
<polygon class="st1" points="131.2,140.5 131.3,140.5 131.3,140.5 "/>
<path class="st1" d="M131.2,140.2c-0.2-0.2-0.3-0.4-0.4-0.6l0,0c0-0.3,0-0.6,0.1-0.8s0.2-0.6,0.3-0.9c0-0.1,0.1-0.1,0.2-0.2l0.3-0.2
	c0,0,0.1-0.1,0.2-0.1c0.2,0,0.4-0.1,0.5-0.3c0.1-0.1,0.2-0.1,0.2-0.1c0.6,0,1.2,0.1,1.7,0.4c0.5,0.2,1.1,0.4,1.6,0.7
	c0.3,0.2,0.5,0.3,0.7,0.6c0.3,0.3,0.5,0.7,0.6,1.1c0.3,0.7,0.6,1.4,0.8,2.2c0.1,0.4,0.1,0.7,0.1,1.1c0,0.1-0.1,0.3-0.2,0.3
	c-0.2,0-0.3,0.2-0.3,0.4c0,0.4-0.2,0.7-0.4,0.9l-0.2,0.2c-0.3,0.3-0.6,0.5-0.9,0.8c-0.2,0.1-0.4,0.4-0.7,0.1c0,0-0.1,0-0.1,0
	c-0.4,0-0.7-0.1-1-0.3c0.1-0.2,0.2-0.4,0.1-0.5c-0.1-0.2-0.2-0.4-0.3-0.5c-0.1-0.2-0.3-0.4-0.6-0.2c-0.1-0.1-0.2-0.2-0.2-0.3
	s0.1-0.2,0.2-0.3c-0.3,0.1-0.5,0.2-0.6-0.1l0.1-0.4l0.3,0.2c-0.1-0.3-0.4-0.6-0.7-0.6c-0.1,0-0.2-0.1-0.2-0.1l0.1-0.1l-0.2-0.1v-0.1
	l0.5,0.2l-0.2-0.4c-0.1,0-0.3,0-0.2-0.2c-0.1-0.1-0.2-0.1-0.3-0.1c-0.4,0.1-0.4,0.1-0.5-0.3c0.1,0.2,0.1,0.3,0.4,0.2
	c-0.1-0.4-0.2-0.4-0.4-0.3c-0.1-0.1-0.1-0.2-0.1-0.3c0-0.2-0.1-0.4-0.3-0.4C131.3,140.4,131.3,140.3,131.2,140.2
	C131.2,140.2,131.2,140.2,131.2,140.2z"/>
<path class="st1" d="M92.3,86.9c0-0.1,0-0.2,0.1-0.3c0.2-0.3,0.4-0.5,0.6-0.7c0.1-0.2,0.4-0.2,0.5-0.1c0.4,0.2,0.9,0.4,1.3,0.6
	c0.7,0.3,1.4,0.6,2.1,0.9s1.6,0.6,1.9,1.5c0.1,0.4,0.2,0.8,0.2,1.3c0,0-0.1,0.1-0.1,0.1c-0.2,0-0.2,0.1-0.2,0.3
	c0,0.1-0.1,0.2-0.2,0.3l-1.3,0.9c-0.1,0.1-0.2,0.1-0.2,0.2c-0.3,0.4-0.6,0.9-0.9,1.3c-0.2,0.2-0.4,0.5-0.6,0.6
	c-0.2,0.2-0.4,0.3-0.7,0.4c-0.6-0.1-1.1-0.1-1.6-0.4c-0.2-0.2-0.6-0.3-0.8-0.6c-0.1-0.1-0.2-0.2-0.2-0.4c0-0.2,0-0.4,0.1-0.6
	c0.1-0.6,0.1-1.1,0.2-1.6c0.1-0.6,0.1-1.3,0-1.9C92.5,88,92.4,87.5,92.3,86.9z"/>
<path class="st1" d="M79.7,85.6h9.5l-0.8,1c-0.1,0.1-0.1,0.1-0.2,0.2c-0.3,0.2-0.6,0.4-0.8,0.7c-0.5,0.5-1,0.8-1.7,1
	c-0.7,0.2-1.3,0.3-2,0.4c-0.7,0.1-1.4,0-2.2,0h-1.2c-0.6-0.1-1.2-0.4-1.2-0.8c-0.1-0.6,0-1.3,0.2-1.9C79.5,86.1,79.6,85.8,79.7,85.6
	z"/>
<path class="st1" d="M57,92.3c-0.1,0.2,0,0.4,0.2,0.5c0,0,0,0,0.1,0c0.8,0.3,1.6,0.6,2.4,0.8c0.4,0.1,0.7,0.1,1.1,0.2
	c0.5,0,1,0,1.5,0.2c0.4,0.1,0.9,0.1,1.2-0.2c0.3-0.2,0.7-0.4,1-0.6c0.1,0,0.2-0.1,0.2-0.3c0-0.7,0.1-1.4,0.3-2.1
	c0.1-0.3,0.1-0.5,0.1-0.8c0-0.5-0.1-1-0.1-1.5c-0.1-0.2-0.2-0.4-0.3-0.6c-0.1-0.2-0.4-0.3-0.6-0.2l-0.9,0.2c-0.1,0-0.1,0.1-0.2,0.1
	c-0.2,0.2-0.5,0.3-0.8,0.2c-0.5-0.1-1,0-1.5,0.1c-0.5,0.1-1,0.3-1.5,0.5c-0.6,0.2-1,0.6-1.3,1.1c-0.4,0.6-0.7,1.3-0.9,2
	C57,92.1,57,92.2,57,92.3z M62.7,88.9c0.1-0.2,0.4-0.2,0.7,0c-0.2,0.1-0.4,0.2-0.5,0.2S62.6,89,62.7,88.9z"/>
<path class="st1" d="M77.5,105.9c-0.4,0.4-0.8,0.7-1.2,1c-0.4,0.3-0.7,0.6-1.1,0.8c-0.5,0.3-0.7,0.9-1,1.3l0,0
	c-0.2,0.4-0.2,0.8-0.1,1.1c0,0.3,0.1,0.5,0.2,0.8c0.1,0.3,0.5,0.5,0.8,0.5c0.6,0,1.1-0.1,1.6-0.1s1.2,0,1.7,0
	c0.5-0.1,0.9-0.3,1.2-0.7c0.5-0.6,0.9-1.3,1.1-2c0.2-0.5,0.5-1,0.8-1.5c0.1-0.3,0.2-0.5,0.4-0.8s0.2-0.4,0.3-0.7
	c0-0.1,0-0.2-0.1-0.3c-0.3-0.3-0.7-0.5-1.1-0.7c-0.4-0.1-0.7-0.3-1.1-0.6c-0.3-0.2-0.4-0.2-0.7,0c0,0-0.1,0-0.1,0
	c-0.5,0.2-1,0.6-1.2,1.1C77.9,105.6,77.7,105.8,77.5,105.9z M78.8,110.2c0.1-0.1,0.1-0.1,0.2-0.1c0,0,0.1,0.1,0.2,0.2L78.8,110.2
	L78.8,110.2z"/>
<path class="st1" d="M146.9,136.6L146.9,136.6L146.9,136.6L146.9,136.6z"/>
<path class="st1" d="M145.3,141.2c-0.2,0-0.4-0.1-0.6-0.1c-0.1,0-0.2-0.1-0.4-0.2c-0.4,0-0.7-0.2-1-0.4c-0.3-0.3-0.5-0.5-0.9-0.7
	c-0.2-0.1-0.3-0.3-0.5-0.4l-0.2-0.2c-0.1-0.1-0.2-0.1-0.2-0.2c-0.3-0.4-0.4-0.9-0.3-1.4c0.1-0.4,0-0.9,0.3-1.2c0,0,0-0.1,0-0.1
	c0.1-0.2,0.1-0.5,0.4-0.6c-0.1-0.2,0-0.4,0.2-0.5s0.2-0.2,0.4-0.3c0.1-0.1,0.2-0.2,0.4-0.2c0.4-0.1,0.9-0.2,1.3-0.1h0.4
	c0,0,0,0.1,0.1,0.1c0.1,0.1,0.2,0.1,0.3,0.1c0.1,0,0.6,0.4,0.6,0.5s0,0.1,0.1,0.2s0.3,0.2,0.3,0.3c0,0.1,0.1,0.2,0.1,0.3
	c0.2,0.2,0.5,0.3,0.7,0.5l0,0v0.1h0.3c0,0.2,0.2,0.4,0.5,0.4c0.3,0,0.3,0.1,0.1,0.3l0.6,0.3c0.1,0.3,0.3,0.5,0.6,0.6v-0.1h0.1
	c0,0.3,0.3,0.5,0.3,0.8s0.1,0.5-0.1,0.7c-0.1,0.2-0.3,0.3-0.4,0.5c0,0,0,0,0,0.1s-0.1,0.4-0.2,0.5c-0.3,0.2-0.6,0.3-0.9,0.4
	c-0.4,0.1-0.9,0.1-1.3,0.1c-0.2,0-0.3,0-0.5,0C145.7,141.3,145.5,141.2,145.3,141.2z"/>
<path class="st1" d="M66.2,104.3c0.1,0.2,0.3,0.3,0.5,0.3c0.5,0,1,0.2,1.4,0.4c0.3,0.1,0.4,0.4,0.3,0.6c-0.1,0.5,0.1,1,0.5,1.3
	c0.2,0.2,0.3,0.4,0.4,0.6c0.1,0.2,0.1,0.3,0.2,0.5c-0.1,0.1-0.3,0.2-0.3,0.3c0,0.2-0.2,0.4-0.4,0.6c-0.4,0.3-0.9,0.5-1.4,0.7
	c-0.4,0.2-0.8,0.2-1.1,0.3c-1,0.4-1.9,0.8-2.9,1.2c-0.4,0.2-1,0.1-1.2-0.3c0-0.1-0.1-0.1-0.1-0.2c-0.2-0.5-0.3-1-0.1-1.5
	c0.2-0.6,0.5-1.1,1-1.4c0.5-0.3,0.6-0.9,0.4-1.4c0,0,0,0,0-0.1l0,0c-0.2-0.7-0.2-0.9,0.5-1.5c0.3-0.2,0.6-0.4,0.9-0.6
	C65.2,103.9,65.8,104,66.2,104.3z"/>
<path class="st1" d="M69.8,86.7c0,0.2-0.1,0.4-0.1,0.6c0,0.1,0,0.3,0,0.4c0,0.3,0.1,0.6,0.1,0.9c0,0.1,0.1,0.1,0.2,0.2
	c-0.2,0.3-0.2,0.7,0,1c0,0,0,0.1,0,0.2c0.1,0.5,0.3,1,0.5,1.4c0.2,0.3,0.4,0.6,0.7,0.9c0.1,0.1,0.2,0.3,0.2,0.4
	c0.1,0.3,0.4,0.6,0.7,0.6c0.2,0.1,0.4,0.2,0.6,0.3c0.1,0,0.1,0,0.2,0c0.6-0.1,1.1-0.2,1.6-0.5c0.1-0.1,0.1-0.2,0.2-0.3
	c0.2-0.2,0.4-0.5,0.7-0.7c0.3-0.2,0.5-0.5,0.6-0.9c0.1-0.2,0.1-0.5,0.3-0.7c0.1-0.2,0.2-0.5,0.3-0.8c0-0.1,0-0.2-0.1-0.3
	c-0.5-0.6-1.1-1.1-1.8-1.4c-0.4-0.2-0.8-0.5-1.2-0.7c-0.6-0.3-1.2-0.5-1.8-0.8c-0.4-0.1-0.7-0.2-1.1-0.3
	C70.1,86,69.8,86.3,69.8,86.7C69.8,86.7,69.8,86.7,69.8,86.7z M74.8,88.7c0.2,0.1,0.4,0.2,0.3,0.5L74.8,88.7z"/>
<path class="st1" d="M56.2,85.5c-0.1,0.1-0.2,0.2-0.2,0.2c0,0.1-0.1,0.3-0.1,0.4c0,0,0.1,0.1,0.1,0.1s-0.2,0.3-0.3,0.4h0.1
	c-0.1,0-0.1,0-0.2,0.1c-0.2,0.2-0.3,0.5-0.5,0.7c-0.3,0.4-0.6,0.7-1,1c-0.4,0.4-0.9,0.7-1.4,0.8c-0.1,0.1-0.3,0-0.4-0.1
	c-0.2-0.2-0.3-0.4-0.5-0.5c-0.4-0.2-0.5-0.7-0.7-1s-0.2-0.5-0.3-0.8c-0.3-0.4-0.6-0.9-0.9-1.4l5.3-0.2L56.2,85.5L56.2,85.5z"/>
<path class="st1" d="M92.5,105.8c0.1-0.1,0.2-0.2,0.3-0.4c0.2-0.4,0.7-0.7,1.2-0.7h0.2l1.3-0.3v0.1c0.2,0,0.5,0.1,0.7,0.1
	c0.5,0,0.7,0.2,0.8,0.7c0.1,0.4,0.2,0.7,0.4,1c0.3,0.3,0.6,0.6,0.9,0.9c0.2,0.2,0.4,0.5,0.3,0.8c0,0.3-0.2,0.5-0.4,0.7
	c-0.5,0.5-0.9,1-1.2,1.7c-0.2,0.6-0.6,1-1,1.4c-0.3,0.3-0.4,0.3-0.8,0.1s-0.4-0.2-0.7-0.4c-0.4-0.3-0.9-0.5-1.4-0.8
	c-0.4-0.2-0.6-0.5-0.6-0.9c0-0.6,0-1.2,0-1.8c0.1-0.6,0-1.2-0.2-1.7C92.3,106,92.4,105.8,92.5,105.8z"/>
<path class="st1" d="M136.8,154.1c1.9-1.4,3.7-2.9,5.5-4.5c-0.2-0.6-0.8-0.9-1.4-0.9l-1.1,0.4c-0.4,0.2-0.9,0.2-1.4,0.1
	c-0.1,0-0.1,0-0.2-0.1c-0.7-0.3-1.4-0.5-2.1-0.6c-0.2,0-0.4,0-0.5,0.1c-0.3,0.3-0.6,0.6-0.7,1c-0.1,0.3-0.3,0.6-0.5,0.8
	c-0.1,0.1-0.1,0.3,0,0.4c0.4,0.7,0.9,1.4,1.3,2l0,0c0,0.7,0.6,0.8,1,1.1C136.6,154,136.7,154.1,136.8,154.1z M135.9,149.3
	c0,0.2-0.1,0.3-0.4,0.2C135.6,149.4,135.7,149.3,135.9,149.3z M137,153.3l0.9-0.4v0.1C137.7,153.3,137.3,153.4,137,153.3L137,153.3z
	"/>
<path class="st1" d="M128.1,149.9c-0.4,0.2-0.8,0.6-0.9,1c0,0.1,0,0.2-0.1,0.3c-0.5,0.5-1.2,1-1.9,1.3c-0.4,0.2-0.9,0.3-1.3,0.4
	l-0.7-0.2c-0.6-0.3-1.1-0.5-1.7-0.7c-0.4,0-0.5-0.4-0.7-0.7s0-0.9,0.5-1.1c0.4-0.2,0.8-0.3,1.1-0.6c0.4-0.3,0.8-0.7,1.2-1.1
	c0.2-0.2,0.5-0.4,0.8-0.5c0.4-0.1,0.7-0.2,1.1-0.3c0.2-0.1,0.5-0.2,0.7-0.2c0.6-0.1,1.2,0.2,1.5,0.7c0.1,0.1,0.2,0.2,0.3,0.3
	c0.2,0.2,0.4,0.3,0.6,0.4c0.1,0.1,0.1,0.4,0,0.5L128.1,149.9z"/>
<path class="st1" d="M120.1,144.6c-0.4-0.5-0.8-0.9-1.2-1.3c-0.1-0.1-0.3-0.2-0.5-0.3c0.4-0.3,0.8-0.5,0.9-0.9c0,0,0.1-0.1,0.1-0.1
	l1.3-0.7c0.4-0.2,0.9-0.4,1.3-0.7c0.5-0.3,1.2-0.4,1.8-0.3c0.5,0.2,1,0.4,1.4,0.8c0.2,0.2,0.5,0.4,0.7,0.6c0.2,0.1,0.2,0.4,0.2,0.6
	c-0.1,0.3-0.2,0.6-0.3,1c-0.1,0.5-0.5,0.9-1,1c-0.4,0.1-0.7,0.1-1.1,0.2c-0.6,0.2-1.3,0.4-1.9,0.6
	C121.2,145.5,120.4,145.2,120.1,144.6z"/>
<path class="st1" d="M69.4,96.9c0.2-0.1,0.4,0,0.6-0.3s0.4-0.2,0.7-0.3l0.2-0.1c0.4,0,0.8,0,1.2,0c0.2,0,0.4,0,0.5,0.1
	c0.5,0.1,1,0.2,1.6,0.3c0.5,0.1,0.9,0.3,1.3,0.6c0.1,0.1,0.2,0.2,0.1,0.4c0,0.1,0,0.1,0,0.2l0.2,1c0,0,0,0.1,0,0.1
	c-0.1,0.2-0.3,0.4-0.4,0.6c-0.2,0.2-0.3,0.3-0.5,0.5c-0.1,0.1-0.2,0.1-0.2,0.2c-0.4,0.2-0.7,0.5-1.2,0.3c0,0-0.1,0-0.1,0
	c-0.3,0-0.7,0-1-0.1s-0.8-0.2-1.3-0.4c0,0-0.1,0-0.1,0c-0.1-0.2-0.2-0.1-0.4-0.1c-0.1,0-0.2,0-0.3-0.1c-0.4-0.2-0.8-0.4-1-0.8
	c-0.1-0.3-0.2-0.7-0.3-1.1c-0.1-0.2,0-0.5,0.1-0.7C69.3,97.1,69.3,97,69.4,96.9z"/>
<path class="st1" d="M46.4,93.6c0.1-0.3,0.2-0.6,0.3-1c0,0,0-0.1,0-0.1s0.1-0.2,0.1-0.3c0-0.1,0-0.1,0-0.2c0.2-0.3,0.3-0.6,0.6-0.7
	c0.3-0.1,0.5-0.2,0.8-0.2c0.2,0,0.4-0.1,0.5,0.1c0.1,0.1,0.2,0.1,0.2,0.2c0.1,0.1,0,0.3,0.2,0.5s0.2,0.3,0.2,0.5c0,0,0,0.1,0.1,0.1
	c0,0.3,0,0.6,0,0.9c0,0.1,0,0.3,0,0.4c-0.1,0.4-0.2,0.8-0.2,1.2c0,0.4-0.2,0.7-0.4,1c-0.1,0.1-0.2,0.2-0.3,0.1c0,0-0.1,0-0.2,0
	l-0.8,0.2c0,0,0,0-0.1,0c-0.2-0.1-0.3-0.2-0.5-0.3c-0.1-0.1-0.3-0.3-0.4-0.4c-0.1-0.1-0.1-0.1-0.2-0.2c-0.1-0.3-0.3-0.5-0.2-0.9
	c0,0,0,0,0-0.1C46.4,94.1,46.4,93.9,46.4,93.6z"/>
<path class="st1" d="M109,104.6c-0.1,0-0.1,0-0.2,0c-0.2-0.1-0.5-0.2-0.6-0.4l0,0c-0.1-0.2-0.2-0.3-0.3-0.5
	c-0.1-0.2-0.2-0.5-0.3-0.7c0,0,0,0,0-0.1s0-0.2-0.1-0.2c0,0-0.1-0.1-0.1-0.2c-0.1-0.3-0.1-0.5,0-0.8c0.1-0.2,0.2-0.4,0.4-0.5
	c0.1-0.1,0.2-0.2,0.4-0.2c0.1,0,0.2,0,0.2,0c0.1,0,0.2,0.2,0.4,0.2s0.3,0.1,0.4,0.2c0,0,0.1,0,0.1,0.1l0.5,0.6
	c0.1,0.1,0.1,0.2,0.2,0.3c0.2,0.3,0.3,0.6,0.4,0.8c0.2,0.3,0.2,0.6,0.2,0.8c0,0.1,0,0.2-0.2,0.2c0,0-0.1,0-0.1,0.1l-0.4,0.5l0,0
	c-0.2,0-0.3,0-0.5,0C109.3,104.7,109.2,104.7,109,104.6z"/>
<path class="st1" d="M109.4,111c-0.2,0.1-0.4,0-0.6,0.3s-0.4,0.2-0.6,0.3c-0.1,0-0.1,0.1-0.2,0.1h-1.1c-0.2,0-0.3,0-0.5-0.1
	c-0.5-0.1-0.9-0.2-1.4-0.3c-0.4-0.1-0.9-0.2-1.2-0.5c-0.1-0.1-0.2-0.2-0.1-0.4c0-0.1,0-0.1,0-0.2c-0.1-0.3-0.2-0.6-0.2-1
	c0,0,0-0.1,0-0.1c0.1-0.2,0.3-0.4,0.4-0.6c0.2-0.2,0.3-0.3,0.5-0.5c0.1-0.1,0.2-0.1,0.2-0.2c0.3-0.2,0.7-0.4,1.1-0.3h0.1
	c0.3,0,0.6,0,0.9,0.1c0.4,0.1,0.8,0.2,1.2,0.3c0,0,0.1,0,0.1,0s0.2,0.1,0.3,0.1c0.1,0,0.2,0,0.2,0.1c0.3,0.2,0.7,0.4,0.9,0.8
	c0.1,0.3,0.2,0.7,0.2,1c0,0.2,0.1,0.5-0.1,0.7C109.6,110.8,109.5,110.9,109.4,111z"/>
<path class="st1" d="M101.7,95.1c0-0.2,0.1-0.5,0.3-0.7c0.2-0.3,0.6-0.3,0.9-0.1c0,0,0.1,0.1,0.1,0.1c0.1,0.1,0.1,0.3,0.4,0.3
	s0.3,0.1,0.1,0.3h0.2h-0.1c0,0.1,0,0.2,0.1,0.3c0.1,0.1,0.2,0.1,0.3,0.2c0.1,0.1,0.2,0.3,0.3,0.4c0.2,0.1,0.3,0.3,0.3,0.6l0.3,0.1
	h-0.1c0.1,0.1,0.1,0.2,0.2,0.3s0.3,0.2,0.5,0.3s0.1,0.2,0.2,0.2s0.4,0.1,0.6,0.2l-0.1,0.3c0,0.2-0.1,0.4-0.2,0.5
	c-0.1,0.1-0.2,0.2-0.2,0.3c-0.1,0.4-0.4,0.6-0.7,0.8c-0.1,0.1-0.2,0.2-0.2,0.3c-0.1,0.2-0.3,0.4-0.5,0.4l-0.4,0.1l-1.9,0.6
	c-0.2,0-0.3,0-0.4-0.2c-0.1-0.3-0.2-0.6-0.2-0.9c-0.1-1-0.1-2-0.2-3.1c0,0,0-0.1,0-0.2C101.5,96.2,101.6,95.6,101.7,95.1z"/>
<path class="st1" d="M46,104.7c0.1,0.1,0.1,0.3,0.4,0.3s0.3,0.1,0.1,0.3h0.2h-0.1c0,0.1,0,0.2,0.1,0.3c0.1,0.1,0.2,0.1,0.3,0.2
	c0.1,0.1,0.2,0.3,0.3,0.4c0.2,0.1,0.3,0.4,0.3,0.6l0.3,0.1h-0.1c0,0.1,0.1,0.2,0.2,0.3c0.2,0.1,0.3,0.2,0.5,0.3s0.1,0.2,0.2,0.2
	c0.2,0.1,0.4,0.1,0.6,0.2l-0.1,0.3c0,0.2-0.1,0.4-0.2,0.5c-0.1,0.1-0.2,0.2-0.2,0.3c-0.1,0.4-0.4,0.6-0.7,0.8
	c-0.1,0.1-0.2,0.2-0.2,0.3c-0.1,0.2-0.3,0.4-0.5,0.4l-0.4,0.1l-1.9,0.6c-0.2,0-0.3,0-0.4-0.2c-0.1-0.3-0.2-0.6-0.2-0.9
	c-0.1-1-0.1-2-0.2-3.1c0-0.1,0-0.1,0-0.2c0.1-0.6,0.2-1.1,0.3-1.7c0-0.2,0.1-0.5,0.3-0.7c0.2-0.3,0.6-0.3,0.9-0.1
	C45.9,104.5,46,104.6,46,104.7z"/>
<path class="st1" d="M133.8,144.8c0-0.1,0-0.2-0.1-0.2s0-0.1,0-0.1c0,0,0.1-0.1,0.1-0.1c0.1,0,0.1,0.1,0.2,0.1H134
	c0,0.1,0.1,0.2,0.1,0.4L133.8,144.8z"/>
<path class="st1" d="M130.9,140.6c0,0,0-0.1,0-0.2h0.1v0.1h-0.1L130.9,140.6l0.4-0.1c0,0.1,0.1,0.2,0.1,0.4
	C131.2,140.8,131,140.7,130.9,140.6z"/>
<polygon class="st1" points="131.2,140.5 131.3,140.5 131.3,140.5 "/>
<path class="st1" d="M31.8,95.4c0.7-0.4,1.5-0.8,2.2-1.3c0.3-0.3,0.8-0.3,1.1,0c0.2,0.1,0.4,0.3,0.6,0.4c0.4,0.4,0.8,0.9,1.2,1.3
	s0.9,0.8,1.3,1.1c0,0,0.1,0.1,0.1,0.2c0.1,0.5,0.7,0.5,0.8,0.9c0,0,0,0,0.1,0c0.4,0.2,0.7,0.6,0.8,1c0.1,0.1,0.1,0.3,0.2,0.4
	c0.2,0.2,0.4,0.3,0.5,0.5c0.1,0.2,0.3,0.5,0.4,0.8c-0.1,0.2-0.2,0.5-0.3,0.7c-0.4,0.4-0.9,0.8-1.4,1.2c-0.2,0.2-0.4,0.3-0.7,0.3
	c-0.3,0-0.6,0-0.9-0.1c-0.4-0.1-0.7-0.2-1-0.5c-0.3-0.2-0.6-0.3-0.8-0.5c-0.3-0.2-0.6-0.4-0.8-0.6c-0.2-0.3-0.6-0.4-0.9-0.5
	c-0.5,0-1,0.1-1.5,0.1c-0.4,0.1-0.9,0.1-1.3,0c-0.9-0.2-1.8-0.5-2.7-0.7c-0.2-0.1-0.3-0.2-0.4-0.3c0,0,0-0.2,0-0.3
	c0-0.1,0-0.2,0-0.3c0-0.2-0.1-0.4,0-0.5c0.1-0.3,0.3-0.6,0.5-0.8c0.3-0.3,0.6-0.5,0.9-0.8C30.4,96.4,31.1,95.8,31.8,95.4z"/>
<path class="st1" d="M24.7,122.2c0,0.3,0,0.5,0,0.8c0,0.2,0.2,0.3,0.4,0.3c0,0,0,0,0.1,0c0.7-0.1,1.4-0.3,2-0.6
	c0.3-0.2,0.7-0.4,1-0.5c0.5-0.2,1-0.3,1.6-0.3c0.9,0.1,1.8,0.2,2.6,0.4c0.1,0,0.1,0,0.2,0c1.1,0,2.1-0.5,2.7-1.3
	c0.2-0.2,0.4-0.4,0.6-0.7c0.3-0.4,0.5-0.9,0.5-1.4c0-0.6-0.3-0.8-0.9-1c-0.4-0.1-0.9-0.1-1.3-0.2c-0.4,0-0.7-0.2-0.9-0.5
	c-0.1-0.1-0.1-0.1-0.2-0.2c-0.5-0.2-0.9-0.3-1.4-0.3c-0.4,0-0.8,0.1-1.2,0.3c-0.4,0.2-0.8,0.4-1.2,0.6c-0.1,0-0.2,0-0.3,0
	c-0.6-0.1-1.3,0.1-1.9,0.3h-0.1c-0.6,0.1-1,0.6-1.2,1.2c-0.1,0.1-0.2,0.3-0.2,0.4c-0.1,0.2-0.2,0.5-0.2,0.7
	c-0.1,0.4-0.2,0.7-0.3,1.1c0,0.1-0.1,0.2-0.1,0.3C24.5,121.9,24.6,122.1,24.7,122.2z M32.4,120.2c0.4,0.1,0.7,0.2,1.1,0.4
	C32.6,120.6,32.5,120.6,32.4,120.2L32.4,120.2z M26.9,121.7l0.5-0.1v0.1c-0.1,0.1-0.3,0.1-0.4,0.2C27,121.9,26.9,121.7,26.9,121.7
	L26.9,121.7z"/>
<path class="st1" d="M22.8,107.7c-0.1-0.4-0.2-0.8-0.2-1.3c0,0,0.1-0.1,0.1-0.1c0.2,0,0.2-0.1,0.2-0.3c0-0.1,0.1-0.2,0.2-0.3
	l1.3-0.9c0.1-0.1,0.2-0.1,0.2-0.2c0.3-0.4,0.5-0.9,0.9-1.3c0.2-0.2,0.4-0.5,0.6-0.6c0.2-0.2,0.4-0.3,0.7-0.4
	c0.6,0.1,1.1,0.1,1.6,0.4c0.2,0.2,0.6,0.3,0.9,0.6c0.1,0.1,0.2,0.2,0.2,0.4c0,0.2,0,0.4-0.1,0.6c-0.1,0.6-0.1,1.1-0.2,1.6
	c-0.1,0.6-0.1,1.3,0,1.9c0,0.6,0.2,1.1,0.2,1.7c0,0.1,0,0.2-0.1,0.3c-0.2,0.3-0.4,0.5-0.6,0.7c-0.1,0.2-0.4,0.2-0.5,0.1
	c-0.4-0.2-0.9-0.4-1.3-0.6c-0.7-0.3-1.4-0.6-2.1-0.9S23.1,108.6,22.8,107.7z"/>
<path class="st1" d="M34.6,111.5l-2,0.5c-0.3,0-0.6,0.1-0.8,0.1c-0.2,0.1-0.3,0-0.5-0.2s-0.1,0-0.1-0.1l-0.8-0.4c0,0-0.1-0.1,0-0.2
	c0.1-0.2,0.2-0.4,0.3-0.5l0.7-1.1c0-0.1,0.1-0.1,0.2-0.2c0.2-0.3,0.5-0.5,0.8-0.8c0.4-0.5,1-0.9,1.6-1.2c0.6-0.3,1.3-0.5,1.9-0.6
	c0.7-0.1,1.4-0.2,2.1-0.3l1.2-0.2c0.6,0,1.2,0.3,1.3,0.7c0.2,0.6,0.2,1.3,0,1.9c-0.1,0.2-0.2,0.5-0.3,0.8c-0.1,0.5-0.5,0.9-1,1.1
	c-0.5,0.2-1,0.2-1.6,0.4c-0.5,0.1-1,0.1-1.4,0C35.6,111.3,35.1,111.3,34.6,111.5z"/>
<path class="st1" d="M36.8,91.7c0,0.1,0,0.2,0.1,0.3c0.3,0.3,0.7,0.5,1.1,0.7c0.4,0.2,0.7,0.4,1.1,0.6c0.3,0.2,0.5,0.2,0.7,0h0.1
	c0.5-0.2,0.9-0.6,1.2-1.1c0.1-0.2,0.3-0.4,0.5-0.6c0.4-0.4,0.8-0.7,1.2-1c0.4-0.3,0.7-0.6,1.1-0.8c0.4-0.4,0.8-0.8,1-1.3l0,0
	c0.2-0.4,0.2-0.8,0.1-1.1c0-0.3-0.1-0.5-0.2-0.8c-0.1-0.3-0.5-0.5-0.8-0.5c-0.5,0-1.1,0.1-1.6,0.1s-1.1,0-1.7,0
	c-0.5,0.1-1,0.3-1.2,0.7c-0.5,0.6-0.9,1.3-1.1,2c-0.2,0.5-0.5,1-0.8,1.5c-0.1,0.3-0.3,0.5-0.4,0.8S36.8,91.5,36.8,91.7z M39.8,87.3
	h0.4v0.1c-0.1,0-0.1,0.1-0.2,0.1C39.9,87.5,39.9,87.4,39.8,87.3L39.8,87.3z"/>
<path class="st1" d="M36.3,129.6L36.3,129.6L36.3,129.6L36.3,129.6z"/>
<path class="st1" d="M34.3,128c0-0.3-0.3-0.5-0.3-0.8s-0.1-0.5,0.1-0.7c0.1-0.2,0.3-0.3,0.4-0.5l0,0c0,0,0.1-0.4,0.2-0.5
	c0.3-0.2,0.6-0.3,0.8-0.4c0.4-0.1,0.9-0.1,1.3-0.1c0.2,0,0.3,0,0.5,0c0.2,0,0.4,0.1,0.6,0.1c0.2,0,0.4,0.1,0.7,0.1s0.2,0.2,0.4,0.2
	c0.4,0,0.7,0.2,1,0.4c0.3,0.3,0.5,0.5,0.8,0.7c0.2,0.1,0.3,0.3,0.5,0.4l0.2,0.2c0.1,0,0.2,0.1,0.2,0.2c0.3,0.4,0.4,0.9,0.3,1.3
	c-0.1,0.4,0,0.9-0.3,1.2c0,0,0,0.1,0,0.1c-0.1,0.2-0.1,0.5-0.4,0.6c0.1,0.1,0,0.4-0.2,0.5s-0.2,0.2-0.4,0.3
	c-0.1,0.1-0.2,0.2-0.3,0.2c-0.4,0.1-0.9,0.2-1.3,0.1c-0.1,0-0.3,0-0.4,0c0,0,0-0.1-0.1-0.1c-0.1-0.1-0.2-0.1-0.3-0.1
	c-0.1,0-0.6-0.4-0.6-0.5s0-0.1-0.1-0.2c-0.1-0.1-0.3-0.2-0.3-0.3c0-0.1-0.1-0.2-0.2-0.3c-0.2-0.2-0.5-0.3-0.7-0.5l0,0v-0.1l-0.3-0.1
	c0-0.2-0.2-0.4-0.5-0.4c-0.3,0-0.3,0-0.1-0.3l-0.5-0.3c-0.1-0.3-0.3-0.5-0.6-0.6L34.3,128L34.3,128z"/>
<path class="st1" d="M30.3,91.6c-0.1,0.1-0.2,0.2-0.3,0.4c-0.2,0.4-0.7,0.7-1.2,0.7c-0.1,0-0.1,0-0.2,0L27.3,93v-0.1
	c-0.2,0-0.5,0-0.7-0.1c-0.5,0-0.7-0.2-0.8-0.7c-0.1-0.4-0.2-0.7-0.4-1c-0.3-0.3-0.6-0.6-0.9-0.9c-0.2-0.2-0.4-0.5-0.3-0.8
	c0-0.3,0.2-0.5,0.4-0.7c0.5-0.5,1-1.1,1.3-1.7c0.2-0.6,0.6-1.1,1-1.4c0.3-0.3,0.4-0.3,0.8-0.1l0.7,0.4c0.5,0.3,0.9,0.5,1.4,0.8
	c0.4,0.2,0.6,0.5,0.6,0.9c0,0.6,0,1.2,0,1.8c-0.1,0.6,0,1.2,0.2,1.7C30.4,91.3,30.4,91.5,30.3,91.6z"/>
<path class="st1" d="M31.2,130.7c-0.1,0.2-0.2,0.3-0.3,0.5s-0.3,0.2-0.4,0.4c-0.1,0.1-0.1,0.1-0.2,0.1c-0.3,0.1-0.5,0.4-0.9,0.2
	c0,0,0,0-0.1,0c-0.3,0-0.5,0-0.8-0.1c-0.3-0.1-0.6-0.2-0.9-0.3h-0.1c0,0-0.2-0.1-0.3-0.1c-0.1,0-0.1,0-0.2,0
	c-0.3-0.2-0.6-0.3-0.7-0.6c-0.1-0.3-0.2-0.5-0.2-0.8c-0.1-0.2,0-0.4,0.1-0.5c0.1-0.1,0.1-0.2,0.2-0.2c0.1-0.1,0.3,0,0.5-0.2
	s0.3-0.1,0.5-0.2l0.1-0.1h0.9c0.1,0,0.3,0,0.4,0.1c0.4,0.1,0.8,0.2,1.1,0.2c0.4,0,0.7,0.2,1,0.4c0.1,0.1,0.2,0.2,0.1,0.3
	c0,0,0,0.1,0,0.1C31.1,130.2,31.1,130.4,31.2,130.7C31.2,130.6,31.2,130.7,31.2,130.7z"/>
<path class="st1" d="M15.6,98.6c-0.1,0-0.1-0.2-0.2-0.2s-0.4-0.1-0.6-0.2l0.1-0.3c0-0.2,0.1-0.4,0.2-0.5c0.1-0.1,0.2-0.2,0.2-0.3
	c0.1-0.4,0.4-0.6,0.7-0.8c0.1-0.1,0.2-0.2,0.2-0.3c0.1-0.2,0.3-0.4,0.5-0.4l0.4-0.1l1.9-0.6c0.2-0.1,0.3,0,0.4,0.2
	c0.1,0.3,0.2,0.6,0.2,0.9c0.1,1,0.1,2,0.1,3.1c0,0,0,0.1,0,0.2c-0.1,0.6-0.2,1.1-0.3,1.7c0,0.2-0.1,0.5-0.3,0.7
	c-0.2,0.3-0.6,0.3-0.9,0.1c0,0-0.1-0.1-0.1-0.1c-0.1-0.1-0.1-0.3-0.4-0.3s-0.3-0.1-0.1-0.3h-0.2h0.1c0-0.1-0.1-0.2-0.1-0.3
	c-0.1-0.1-0.2-0.1-0.3-0.2c-0.1-0.1-0.2-0.3-0.3-0.4c-0.2-0.1-0.3-0.3-0.3-0.6l-0.3-0.1h0.1c-0.1-0.1-0.1-0.2-0.2-0.3
	S15.8,98.7,15.6,98.6z"/>
<path class="st1" d="M48.9,137.8c-0.4-0.4-0.9-0.8-1.3-1.1c0,0-0.1-0.1-0.1-0.1c-0.1-0.5-0.7-0.5-0.8-0.9c0,0,0,0-0.1,0
	c-0.4-0.2-0.7-0.6-0.8-1c-0.1-0.1-0.1-0.3-0.2-0.4c-0.2-0.2-0.4-0.4-0.5-0.6c-0.1-0.2-0.3-0.5-0.4-0.8c0.1-0.2,0.2-0.5,0.3-0.7
	c0.4-0.4,0.9-0.8,1.4-1.2c0.2-0.2,0.4-0.3,0.7-0.3c0.3,0,0.6,0,0.9,0.1c0.4,0.1,0.7,0.2,1,0.5c0.3,0.2,0.6,0.3,0.8,0.5
	c0.3,0.2,0.6,0.4,0.8,0.6c0.2,0.3,0.6,0.4,0.9,0.5c0.5,0,1-0.1,1.5-0.1c0.4-0.1,0.9-0.1,1.3,0c0.9,0.2,1.8,0.4,2.7,0.7
	c0.2,0.1,0.3,0.2,0.4,0.3c0,0,0,0.2,0,0.3s0,0.2,0,0.3s0.1,0.4,0,0.5c-0.1,0.3-0.3,0.6-0.5,0.8c-0.3,0.3-0.6,0.5-0.9,0.8
	c-0.5,0.7-1.2,1.2-1.9,1.7c-0.7,0.4-1.5,0.8-2.2,1.3c-0.3,0.3-0.8,0.3-1.1,0c-0.2-0.1-0.4-0.3-0.6-0.4
	C49.7,138.7,49.3,138.2,48.9,137.8z"/>
<path class="st1" d="M7.2,119.8c0.9,2,1.8,4,2.9,6c0.1-0.1,0.3-0.1,0.4-0.1c0.4,0,0.7,0,1.1,0c0.3,0,0.5-0.1,0.8-0.2
	c0.2-0.1,0.4-0.2,0.5-0.3c0.2-0.1,0.3-0.3,0.4-0.5c0.3-0.3,0.3-0.6,0.3-1c-0.1-0.4,0-0.8,0.3-1.1c0.1-0.3,0.2-0.7,0.2-1.1
	c0-0.8-0.1-1.6-0.2-2.3c0-0.4-0.2-0.7-0.3-1c-0.2-0.3-0.5-0.3-0.8-0.4c-0.6-0.1-1.3,0-1.9,0.2c-0.8,0.2-1.7,0.5-2.4,1
	c-0.4,0.2-0.7,0.5-1.1,0.8C7.3,119.7,7.3,119.8,7.2,119.8z M9.8,122.4c0.2,0.3,0.2,0.4,0,0.6V122.4z M7.6,120.4l0.3-0.3
	C8,120.6,8,120.6,7.6,120.4L7.6,120.4z"/>
<path class="st1" d="M115.3,152.5c0.8-0.7,1.1-1.8,1-2.9c0-0.3,0-0.6-0.1-0.9c-0.1-0.5-0.3-1-0.7-1.3c-0.4-0.4-0.8-0.4-1.4-0.1
	c-0.4,0.2-0.7,0.5-1.1,0.8c-0.3,0.2-0.6,0.3-1,0.3c-0.1,0-0.2,0-0.3,0c-0.4,0.2-0.8,0.5-1.2,0.8c-0.3,0.3-0.5,0.7-0.7,1.1
	c-0.2,0.4-0.3,0.9-0.5,1.3c0,0.1-0.1,0.2-0.2,0.3c-0.5,0.4-0.9,1-1.1,1.6c0,0,0,0.1,0,0.1c-0.3,0.5-0.3,1.2-0.1,1.7
	c0.1,0.1,0.1,0.3,0.1,0.5c0.1,0.3,0.2,0.5,0.3,0.7c0.2,0.3,0.4,0.7,0.5,1c0.1,0.1,0.1,0.2,0.1,0.3c0.1,0.2,0.2,0.3,0.4,0.3
	c0.2,0.2,0.3,0.4,0.5,0.6c0.2,0.1,0.4,0.1,0.5-0.1c0,0,0,0,0-0.1c0.4-0.6,0.7-1.2,1-1.9c0.1-0.4,0.2-0.7,0.4-1.1
	c0.2-0.5,0.5-0.9,0.9-1.3c0.7-0.6,1.4-1.1,2.1-1.6C115.2,152.5,115.2,152.5,115.3,152.5z M111.2,155.6c0,0.1-0.1,0.3-0.2,0.4
	c0,0-0.1,0-0.3,0l0.3-0.4L111.2,155.6z M114.7,150.6c-0.5,0.7-0.6,0.7-1,0.5C114,150.8,114.3,150.7,114.7,150.6z"/>
<path class="st1" d="M50,121.8c0.2,0.2,0.3,0.4,0.5,0.6l0,0c0,0.6-0.1,1.2-0.3,1.8c0,0.1-0.1,0.1-0.2,0.2l-0.3,0.2
	c0,0-0.1,0.1-0.2,0.1c-0.2,0-0.4,0.1-0.5,0.3c-0.1,0.1-0.2,0.1-0.2,0.1c-0.6,0-1.2-0.1-1.7-0.3c-0.5-0.2-1.1-0.4-1.6-0.7
	c-0.3-0.2-0.5-0.3-0.7-0.6c-0.3-0.3-0.5-0.7-0.6-1.1c-0.3-0.7-0.6-1.4-0.8-2.2c-0.1-0.4-0.1-0.7-0.1-1.1c0-0.1,0.1-0.3,0.2-0.3
	c0.2,0,0.3-0.2,0.3-0.3c0-0.4,0.2-0.7,0.4-0.9l0.2-0.2c0.3-0.3,0.6-0.5,0.9-0.8c0.2-0.1,0.4-0.4,0.7-0.1c0,0,0.1,0,0.1,0
	c0.4,0,0.7,0.1,1,0.3c0,0.2-0.2,0.3-0.1,0.5c0.1,0.2,0.2,0.4,0.3,0.5c0.2,0.2,0.3,0.4,0.6,0.2c0.1,0.1,0.2,0.2,0.2,0.3
	s-0.1,0.2-0.2,0.3c0.3-0.1,0.5-0.2,0.6,0.1c0,0.1-0.1,0.2-0.1,0.4l-0.3-0.2c0.1,0.3,0.4,0.6,0.7,0.6c0.1,0,0.1,0.1,0.2,0.1l-0.1,0.1
	l0.2,0.1l0,0l-0.5-0.2c0.1,0.1,0.1,0.2,0.2,0.3c0.1,0,0.3,0,0.2,0.2c0.1,0.1,0.2,0.1,0.3,0.1c0.4-0.1,0.4-0.1,0.5,0.3
	c-0.1-0.2-0.2-0.3-0.4-0.2c0.1,0.3,0.2,0.4,0.4,0.3c0.1,0.1,0.1,0.2,0.1,0.3c0,0.2,0.1,0.3,0.2,0.4c0,0,0,0,0.1,0
	C49.8,121.6,49.8,121.7,50,121.8z"/>
<polygon class="st1" points="49.9,121.5 49.9,121.5 49.9,121.5 "/>
<path class="st1" d="M72,169c0,0,0-0.1,0-0.1c0.2-0.1,0.2-0.2,0.2-0.3c0-0.1,0-0.2,0.1-0.3c0.3-0.4,0.7-0.8,1-1.2
	c0.1-0.1,0.1-0.2,0.1-0.3c0.2-0.5,0.3-1,0.4-1.5c0.1-0.3,0.3-0.5,0.4-0.8c0.2-0.2,0.3-0.4,0.5-0.6c0.6-0.1,1.1-0.3,1.6,0
	c0.3,0.1,0.7,0.2,1,0.3c0.1,0.1,0.3,0.2,0.3,0.3c0,0.2,0.1,0.4,0.1,0.6c0.1,0.6,0.2,1.1,0.2,1.6c0.1,0.6,0.3,1.2,0.6,1.8
	c0.2,0.5,0.5,1,0.7,1.6c0,0.1,0,0.2,0,0.3c-0.1,0.1-0.1,0.3-0.2,0.4c-2.3-0.2-4.5-0.4-6.7-0.7C72.3,169.7,72.1,169.4,72,169z"/>
<path class="st1" d="M87.3,171c2.3,0,4.6-0.2,6.9-0.4c0.2-0.2,0.4-0.4,0.6-0.6c0.1-0.1,0.1-0.2,0.1-0.3c-0.2-0.7-0.2-1.4-0.2-2.2
	c0-0.3,0-0.5,0-0.8c-0.1-0.5-0.3-1-0.4-1.5c-0.1-0.2-0.2-0.4-0.4-0.5c-0.2-0.2-0.4-0.2-0.6-0.1l-0.8,0.4c-0.1,0-0.2,0.1-0.2,0.1
	c-0.2,0.3-0.5,0.4-0.8,0.4c-0.5,0-1,0.2-1.4,0.4c-0.5,0.2-0.9,0.5-1.3,0.8c-0.5,0.3-0.8,0.9-1,1.4c-0.2,0.7-0.4,1.4-0.4,2.1v0.3
	C87.2,170.9,87.2,170.9,87.3,171z M92,166.2c0.1-0.2,0.3-0.3,0.6-0.1c-0.1,0.1-0.3,0.2-0.5,0.3C92,166.5,92,166.4,92,166.2z"/>
<path class="st1" d="M122.6,162.7c2.2-1.1,4.3-2.2,6.4-3.4l0.2-0.2l0,0c0.3-0.3,0.4-0.7,0.3-1.1c0-0.3,0-0.5,0-0.8
	c-0.1-0.3-0.3-0.6-0.7-0.7s-1.1-0.1-1.6-0.2s-1.1-0.3-1.7-0.4c-0.5-0.1-1,0.1-1.4,0.4c-0.6,0.5-1.1,1.1-1.6,1.7
	c-0.3,0.4-0.7,0.8-1.1,1.2c-0.2,0.2-0.4,0.4-0.6,0.7c-0.2,0.2-0.3,0.4-0.5,0.6c0,0.1,0,0.2,0,0.3c0.3,0.3,0.6,0.6,0.9,0.9
	c0.3,0.2,0.6,0.5,0.9,0.8C122.4,162.6,122.5,162.6,122.6,162.7z M124.5,156.8l0.4,0.1v0.1c-0.1,0-0.2,0.1-0.2,0.1
	C124.6,157.1,124.5,157,124.5,156.8L124.5,156.8z"/>
<path class="st1" d="M4.2,111.8c0.7-0.2,1.3-0.4,2-0.5c0.5-0.2,1,0,1.2,0.5c0,0.1,0,0.1,0.1,0.2c0.2,0.5,0.1,1.1-0.1,1.5
	c-0.3,0.5-0.7,1-1.2,1.3c-0.4,0.2-0.6,0.6-0.6,1C5.1,114.4,4.6,113.1,4.2,111.8z"/>
<path class="st1" d="M50.2,151.5l0.2-0.6l-0.1-0.1l0.2-0.2l-0.2-0.1c0.1-0.1,0.2-0.2,0.2-0.2c0-0.1,0.1-0.3,0.1-0.4
	c0-0.1-0.1-0.1-0.1-0.1s0.2-0.3,0.3-0.4h-0.1c0.1,0,0.1,0,0.2-0.1c0.2-0.2,0.3-0.5,0.5-0.7c0.3-0.4,0.6-0.7,1-1.1
	c0.4-0.4,0.9-0.7,1.4-0.8c0.1-0.1,0.3,0,0.4,0.1c0.2,0.2,0.3,0.4,0.5,0.5c0.4,0.2,0.5,0.7,0.7,1s0.2,0.5,0.3,0.8
	c0.3,0.5,0.6,1,0.9,1.4c0.1,0.2,0.2,0.4,0.2,0.7c0.1,0.2,0.1,0.5,0,0.8c0,0.1,0.1,0.1,0.1,0.2s0,0.2,0,0.2c-0.1,0.1-0.2,0.2-0.3,0.3
	c-0.2,0.1-0.3,0.3-0.5,0.4c-0.2,0.2-0.4,0.3-0.7,0.4c-0.4,0-0.8,0-1.2,0.1c0,0-0.1,0-0.1,0.1c-0.5,0.4-1.2,0.4-1.8,0.1
	c-0.2-0.1-0.3-0.2-0.5-0.3c-0.4-0.3-0.9-0.5-1.1-1c-0.1-0.1-0.1-0.1-0.2-0.2l-0.4-0.3C50.4,151.7,50.3,151.6,50.2,151.5z"/>
<path class="st1" d="M41.2,158.2c-0.2-0.2-0.4-0.5-0.3-0.8c0-0.3,0.2-0.5,0.4-0.7c0.5-0.5,1-1.1,1.3-1.7c0.2-0.6,0.6-1,1-1.4
	c0.3-0.3,0.4-0.3,0.8-0.1l0.7,0.4c0.5,0.3,0.9,0.5,1.4,0.8c0.4,0.2,0.6,0.5,0.6,0.9c0,0.6,0,1.2,0,1.8c-0.1,0.6,0,1.2,0.2,1.7
	c0,0.1,0,0.2-0.1,0.4c-0.1,0.1-0.2,0.2-0.3,0.4c-0.2,0.4-0.7,0.7-1.2,0.7l-0.2,0.1l-0.5,0.1c-0.9-0.5-1.8-1-2.7-1.6
	C41.8,158.8,41.5,158.5,41.2,158.2z"/>
<path class="st1" d="M59.2,145.8l1.1-0.4c0.4-0.2,0.9-0.2,1.4-0.1c0.1,0,0.1,0,0.2,0.1c0.7,0.3,1.4,0.5,2.1,0.6c0.2,0,0.4,0,0.5-0.1
	c0.3-0.3,0.5-0.6,0.7-0.9c0.1-0.3,0.3-0.6,0.5-0.8c0.1-0.1,0.1-0.3,0-0.4c-0.4-0.7-0.8-1.4-1.3-2l0,0c0-0.7-0.6-0.8-1-1.1
	s-0.9-0.1-1.3,0c-0.5,0.3-1,0.6-1.4,1.1c-0.7,0.7-1.5,1.3-2.3,1.7c-0.3,0.2-0.5,0.4-0.7,0.6c-0.1,0.3-0.1,0.5,0,0.8
	C57.9,145.5,58.5,145.9,59.2,145.8z M64,145.3c0-0.2,0.1-0.3,0.4-0.2C64.4,145.2,64.3,145.3,64,145.3L64,145.3z M62,141.6
	c0.2-0.3,0.6-0.4,1-0.3L62,141.6L62,141.6z"/>
<path class="st1" d="M70.6,160.5c-0.6,0.2-1.1,0.5-1.6,0.8c-0.6,0.5-1.1,1-1.7,1.5c-0.3,0.3-0.6,0.6-1.1,0.8
	c-0.5,0.1-1.1,0.3-1.6,0.4c-0.3,0.2-0.7,0.3-1.1,0.4c-0.8,0.1-1.7-0.3-2.1-1c-0.1-0.2-0.3-0.3-0.4-0.4c-0.3-0.2-0.6-0.4-0.9-0.6
	c-0.2-0.2-0.2-0.5,0-0.7l0.8-0.5c0.6-0.3,1.1-0.8,1.3-1.5c0-0.1,0-0.4,0.2-0.4c0.8-0.8,1.7-1.4,2.6-1.8c0.6-0.2,1.3-0.4,1.8-0.6
	l0.9,0.2c0.8,0.4,1.6,0.7,2.4,1c0.5,0.1,0.7,0.6,1,1C71.4,159.6,71.1,160.2,70.6,160.5z"/>
<path class="st1" d="M21.9,128.7c-0.1,0.4-0.2,0.9-0.4,1.3c0,0,0,0.1,0,0.1c-0.2,0.1-0.1,0.2-0.1,0.4c0,0.1,0,0.2-0.1,0.3
	c-0.2,0.4-0.4,0.8-0.9,1c-0.4,0.2-0.7,0.2-1.1,0.3c-0.2,0-0.5,0.1-0.7-0.1c-0.1-0.1-0.2-0.2-0.3-0.3c-0.1-0.2,0-0.5-0.3-0.6
	s-0.2-0.5-0.3-0.7c0-0.1-0.1-0.1-0.1-0.2c0-0.4,0-0.8,0-1.3c0-0.2,0-0.4,0.1-0.6c0.1-0.5,0.2-1.1,0.3-1.6c0.1-0.5,0.3-1,0.6-1.4
	c0.1-0.2,0.2-0.3,0.4-0.1c0.1,0,0.1,0,0.2,0l1.1-0.2c0,0,0.1,0,0.1,0c0.2,0.1,0.4,0.3,0.7,0.5c0.2,0.2,0.4,0.3,0.5,0.5
	c0.1,0.1,0.2,0.2,0.2,0.3c0.2,0.4,0.5,0.8,0.3,1.2c0,0,0,0.1,0,0.1C22,127.9,21.9,128.3,21.9,128.7z"/>
<path class="st1" d="M154.2,136.6c-0.1,0-0.1,0.1-0.2,0.1c-0.3,0.1-0.7,0.1-1,0.1c-0.3-0.1-0.5-0.3-0.7-0.4
	c-0.1-0.1-0.3-0.2-0.3-0.4s0-0.2,0-0.3s0.2-0.2,0.2-0.5s0.1-0.3,0.2-0.5v-0.1l0.6-0.6c0.1-0.1,0.2-0.2,0.3-0.2
	c0.3-0.2,0.7-0.4,1-0.7c0.3-0.2,0.6-0.4,1-0.4c0.1,0,0.2,0,0.3,0.2c0,0.1,0,0.1,0.1,0.1c0.2,0.1,0.4,0.3,0.7,0.4c0,0,0,0,0,0.1
	c0,0.1,0,0.2,0.1,0.3c-0.7,1-1.4,2-2.1,2.9C154.3,136.5,154.2,136.6,154.2,136.6z"/>
<path class="st1" d="M51.1,161.5c-0.1,0-0.1-0.2-0.2-0.2s-0.4-0.1-0.6-0.2c0-0.1,0.1-0.2,0.1-0.3c0-0.2,0.1-0.4,0.2-0.5
	c0-0.1,0.2-0.2,0.2-0.3c0.1-0.4,0.4-0.6,0.7-0.8c0.1-0.1,0.2-0.2,0.2-0.3c0.1-0.2,0.3-0.3,0.5-0.4l0.4-0.1l1.9-0.6
	c0.2-0.1,0.3,0,0.4,0.1c0.1,0.3,0.2,0.7,0.2,1c0.1,1,0.1,2,0.2,3c0,0.1,0,0.1,0,0.2c-0.1,0.6-0.2,1.1-0.3,1.7c0,0.2-0.1,0.5-0.3,0.7
	c-0.2,0.3-0.6,0.4-0.9,0.2c-0.1,0-0.1-0.1-0.2-0.2c-0.1-0.1-0.1-0.3-0.4-0.3s-0.3-0.1-0.1-0.3H53h0.1c0-0.1,0-0.2-0.1-0.3
	c-0.1-0.1-0.2-0.1-0.3-0.2c-0.1-0.1-0.2-0.3-0.3-0.4c-0.2-0.1-0.3-0.3-0.3-0.6l-0.3-0.1h0.1c-0.1-0.1-0.1-0.2-0.2-0.3
	C51.5,161.7,51.3,161.6,51.1,161.5z"/>
<path class="st1" d="M17.5,115.2c0-0.2,0.1-0.4,0.2-0.5c0-0.1,0.2-0.2,0.2-0.3c0.1-0.4,0.4-0.6,0.7-0.8c0.1-0.1,0.2-0.2,0.2-0.3
	c0.1-0.2,0.3-0.4,0.5-0.4l0.4-0.1l1.9-0.6c0.2,0,0.3,0,0.4,0.2c0.1,0.3,0.2,0.6,0.2,0.9c0.1,1,0.1,2,0.1,3.1v0.2
	c-0.1,0.6-0.2,1.1-0.3,1.7c0,0.2-0.1,0.5-0.3,0.7c-0.2,0.3-0.6,0.4-0.9,0.2c-0.1,0-0.1-0.1-0.2-0.2c-0.1-0.1-0.1-0.3-0.4-0.3
	s-0.3-0.1-0.1-0.3H20h0.1c0-0.1,0-0.2-0.1-0.3c-0.1-0.1-0.2-0.1-0.3-0.2c-0.1-0.1-0.2-0.3-0.3-0.4c-0.2-0.1-0.3-0.4-0.3-0.6
	l-0.3-0.1h0c0-0.1-0.1-0.2-0.2-0.3c-0.2-0.1-0.4-0.2-0.5-0.3s-0.1-0.2-0.2-0.2s-0.4-0.1-0.6-0.2L17.5,115.2z"/>
<path class="st1" d="M21,85.4h-3.2l-0.2,0.1c-0.5,0.2-1,0.3-1.6,0.2c-0.8,0-1.5-0.2-2.2-0.3h-1.2c-0.8,0.1-1.6,0.5-2.1,1.2
	c-0.2,0.2-0.4,0.4-0.6,0.7c-0.3,0.4-0.5,0.9-0.4,1.4c0,0.6,0.3,0.8,0.9,1c0.4,0.1,0.9,0.2,1.3,0.2c0.4,0,0.7,0.2,0.9,0.5
	c0.1,0.1,0.1,0.1,0.2,0.2c0.5,0.2,0.9,0.3,1.4,0.3c0.4,0,0.8-0.1,1.2-0.3c0.4-0.2,0.8-0.4,1.2-0.6c0.1,0,0.2,0,0.3,0
	c0.6,0,1.3-0.1,1.9-0.3h0.1c0.6-0.2,1-0.6,1.2-1.2c0.1-0.1,0.1-0.3,0.2-0.4c0.1-0.2,0.2-0.5,0.2-0.8c0.1-0.4,0.2-0.8,0.3-1.1
	c0-0.1,0.1-0.2,0.1-0.3C21.2,85.7,21.2,85.5,21,85.4C21,85.4,21,85.4,21,85.4L21,85.4z M13.3,87.4c-0.4-0.1-0.7-0.2-1.1-0.4
	C13.1,86.9,13.2,87,13.3,87.4L13.3,87.4z M18.9,85.9L18.3,86v-0.1c0.1-0.1,0.3-0.1,0.4-0.2C18.7,85.7,18.8,85.8,18.9,85.9L18.9,85.9
	z"/>
<polygon class="st1" points="34.9,139.7 34.9,139.7 34.9,139.8 "/>
<path class="st1" d="M34.9,139.7c0.2-0.1,0.3,0,0.4,0.2s0.2,0.1,0.2,0.2c0.1-0.2,0.2-0.2,0.5,0.1c-0.2,0.1-0.3,0.1-0.4,0
	c0.2,0.3,0.2,0.3,0.5,0.1c0.1,0,0.2,0,0.3,0c0,0.2,0.2,0.1,0.3,0.1l0.3,0.2l-0.6,0.1v0.1l0.2,0.1v0.1c0.1,0,0.2,0,0.2,0
	c0.3-0.1,0.7,0,0.9,0.2h-0.3v0.4c0.2,0.2,0.4,0.1,0.6-0.1c0,0.1-0.1,0.2-0.1,0.3s0.2,0.1,0.3,0.2c0.2-0.3,0.4-0.2,0.6,0
	c0.2,0.1,0.4,0.2,0.5,0.3c0.1,0.1,0.1,0.3,0.1,0.5c0.3,0.1,0.7,0,1-0.1c0,0,0.1-0.1,0.1-0.1c0.4,0.2,0.5-0.2,0.6-0.4
	c0.2-0.4,0.3-0.7,0.5-1.1c0-0.1,0.1-0.2,0.1-0.3c0.1-0.3,0.1-0.7,0-1c-0.1-0.1-0.1-0.3,0.1-0.4c0,0,0,0,0,0c0.1-0.1,0.1-0.3,0.1-0.4
	c-0.2-0.3-0.4-0.6-0.6-0.9c-0.4-0.7-1.2-1.1-1.7-1.6c-0.3-0.3-0.6-0.5-1-0.7c-0.3-0.1-0.6-0.2-0.9-0.2c-0.6,0-1.1,0-1.7,0.1
	c-0.6,0-1.2,0.2-1.7,0.4c-0.1,0-0.1,0.1-0.2,0.2c0,0.2-0.1,0.4-0.3,0.5c0,0-0.1,0.1-0.1,0.1l-0.2,0.3c0,0.1-0.1,0.2-0.1,0.3
	c0,0.3,0.1,0.6,0.2,1s0.2,0.5,0.3,0.8l0,0c0.2,0.1,0.4,0.2,0.6,0.3C34.9,139.6,34.9,139.6,34.9,139.7z M35.6,138.8h0.2l0,0H35.6
	L35.6,138.8l0.4-0.1l0,0l0.1,0.4C35.9,139,35.8,138.9,35.6,138.8C35.4,138.7,35.6,138.9,35.6,138.8z"/>
<path class="st1" d="M0.3,85.4c0.4,0.2,0.9,0.4,1.3,0.6c0.7,0.3,1.4,0.6,2.1,0.8s1.6,0.6,1.9,1.5c0.1,0.4,0.2,0.8,0.2,1.3
	c0,0,0,0.1-0.1,0.1c-0.2,0-0.2,0.1-0.2,0.2c0,0.1-0.1,0.2-0.2,0.3c-0.4,0.3-0.9,0.6-1.3,0.9c-0.1,0.1-0.2,0.1-0.2,0.2
	c-0.3,0.4-0.5,0.9-0.9,1.3c-0.2,0.2-0.4,0.4-0.6,0.6c-0.2,0.2-0.4,0.3-0.7,0.4c-0.4-0.1-0.8-0.1-1.2-0.3C0.2,90.9,0,88.1,0,85.4H0.3
	z"/>
<path class="st1" d="M14.7,133.3c0.3,0.1,0.5,0.1,0.8,0.2c0.5,0.1,1,0.2,1.5,0.5c0.4,0.3,0.8,0.7,1.2,1.1c0.4,0.4,0.7,0.9,1.1,1.3
	l0.6,0.7c0.3,0.3,0.3,0.8,0.1,1.2c-0.3,0.3-0.7,0.6-1.1,0.7C17.4,137.2,16,135.2,14.7,133.3L14.7,133.3z"/>
<path class="st1" d="M110.3,165.9c0.2-0.6,0.5-1.1,1-1.4c0.5-0.3,0.6-0.9,0.4-1.4c0,0,0,0,0-0.1l0,0c-0.2-0.6-0.2-0.9,0.5-1.5
	c0.3-0.2,0.6-0.4,0.9-0.6c0.4-0.3,1-0.3,1.4,0.1c0.1,0.2,0.3,0.3,0.5,0.3c0.5,0,1,0.2,1.4,0.4c0.3,0.1,0.4,0.4,0.3,0.6
	c-0.1,0.5,0.1,1,0.5,1.4c0.2,0.2,0.3,0.4,0.4,0.6c0.1,0.1,0.1,0.2,0.1,0.4c-2.4,1-4.8,1.8-7.3,2.6
	C110.3,167,110.2,166.4,110.3,165.9z"/>
<path class="st1" d="M98.3,163.1c-0.3,0.4-0.3,0.9,0,1.3c0,0.1,0.1,0.1,0.1,0.2c0.1,0.6,0.3,1.2,0.7,1.8c0.3,0.4,0.6,0.8,0.9,1.2
	c0.1,0.2,0.2,0.3,0.3,0.5c0.1,0.4,0.5,0.7,0.9,0.8c0.3,0.1,0.5,0.2,0.8,0.4c0.1,0,0.2,0.1,0.2,0.1c0.7-0.1,1.3-0.4,1.8-0.8
	c0.1-0.1,0.2-0.3,0.3-0.4c0.3-0.3,0.6-0.6,0.9-0.8c0.3-0.3,0.6-0.7,0.8-1.1c0.2-0.3,0.2-0.7,0.4-1c0.2-0.3,0.3-0.6,0.4-1
	c0-0.2,0-0.3-0.1-0.4c-0.6-0.8-1.4-1.5-2.3-1.9c-0.5-0.3-1-0.7-1.6-0.9c-0.8-0.4-1.6-0.6-2.4-1c-0.5-0.2-0.9-0.3-1.4-0.4
	c-0.5-0.1-0.9,0.3-1,0.8c0,0,0,0,0,0c0,0.2-0.1,0.5-0.2,0.7c0,0.2,0,0.3,0,0.5c0.1,0.4,0.1,0.8,0.2,1.1
	C98.2,163,98.3,163,98.3,163.1z M104.7,163c0.2,0.2,0.5,0.3,0.3,0.7C104.9,163.4,104.8,163.2,104.7,163L104.7,163z"/>
<path class="st1" d="M2,100.5c0.1,0,0.1,0,0.2-0.1l1.2-0.5v0.1c0.2,0,0.5,0,0.7,0c0.5,0,0.7,0.1,0.9,0.6c0.1,0.3,0.3,0.6,0.6,0.9
	c0.3,0.3,0.6,0.5,1,0.7c0.3,0.2,0.4,0.4,0.4,0.8c0,0.3-0.1,0.5-0.3,0.8c-0.5,0.6-0.8,1.2-1,1.9c-0.1,0.6-0.4,1.1-0.7,1.5
	c-0.3,0.3-0.3,0.3-0.7,0.2l-0.7-0.3l-0.8-0.3c-0.5-2-0.9-3.9-1.3-6C1.6,100.6,1.8,100.6,2,100.5z"/>
<path class="st1" d="M47.5,148.1c0.1-0.3,0.1-0.5,0-0.8c-0.2-0.6-0.8-0.9-1.5-0.9l-1.1,0.4c-0.4,0.2-0.9,0.2-1.4,0.1
	c-0.1,0-0.1,0-0.2-0.1c-0.7-0.3-1.4-0.5-2.1-0.6c-0.2,0-0.4,0-0.5,0.1c-0.3,0.3-0.6,0.6-0.7,1c-0.1,0.3-0.3,0.6-0.5,0.8
	c-0.1,0.1-0.1,0.3,0,0.4c0.4,0.7,0.8,1.4,1.3,2l0,0c0,0.7,0.6,0.8,1,1.1s0.9,0.1,1.3,0c0.5-0.3,1-0.6,1.4-1.1
	c0.7-0.7,1.5-1.3,2.3-1.7C47.1,148.5,47.3,148.3,47.5,148.1z M41.2,146.9c0,0.2-0.2,0.3-0.4,0.2C40.8,147,40.9,146.9,41.2,146.9z
	 M43.2,150.6c-0.2,0.3-0.6,0.4-1,0.3L43.2,150.6L43.2,150.6z"/>
<path class="st1" d="M27.4,147.2c0.2-0.3,0.4-0.4,0.7-0.6c0.4-0.1,0.7-0.2,1.1-0.4c0.2-0.1,0.5-0.2,0.7-0.3c0.6-0.1,1.2,0.2,1.5,0.6
	c0.1,0.1,0.2,0.2,0.3,0.3l0.6,0.4c0.1,0.1,0.1,0.4,0,0.5l-0.5,0.4c-0.4,0.2-0.7,0.6-0.9,1.1c0,0.1,0,0.2-0.1,0.3
	c-0.3,0.3-0.7,0.6-1,0.9c-1-0.9-2.1-1.8-3-2.7C27.1,147.6,27.2,147.4,27.4,147.2z"/>
<path class="st1" d="M23.7,141.7c-0.1-0.1-0.3-0.2-0.5-0.3c0.4-0.2,0.7-0.5,0.9-0.9c0,0,0.1-0.1,0.1-0.1l1.3-0.7
	c0.4-0.2,0.9-0.4,1.3-0.7c0.5-0.3,1.2-0.4,1.8-0.3c0.5,0.2,1,0.5,1.4,0.8c0.2,0.2,0.5,0.4,0.7,0.6c0.2,0.1,0.2,0.4,0.2,0.6
	c-0.1,0.3-0.2,0.6-0.3,1c-0.1,0.5-0.5,0.9-1,1c-0.4,0.1-0.7,0.1-1.1,0.2c-0.6,0.2-1.3,0.4-1.9,0.6c-0.6,0.3-1.4,0.1-1.7-0.5
	C24.5,142.6,24.1,142.1,23.7,141.7z"/>
<path class="st1" d="M33.8,153.5L33.8,153.5c0.1-0.1,0.1-0.2,0.2-0.3c0-0.1,0-0.1,0.1-0.2c0.2-0.3,0.4-0.5,0.8-0.6
	c0.3,0,0.6,0,0.8,0c0.2,0,0.4,0,0.5,0.2c0.1,0.1,0.2,0.1,0.2,0.2s0,0.3,0.1,0.5s0.1,0.4,0.1,0.6c0,0,0,0.1,0,0.1
	c0,0.3-0.1,0.6-0.2,0.9c0,0.1-0.1,0.3-0.1,0.4l-0.1,0.2c-0.8-0.6-1.7-1.2-2.5-1.8L33.8,153.5z"/>
<path class="st1" d="M8.3,107.7C8.3,107.7,8.3,107.6,8.3,107.7c0.1-0.3,0.3-0.5,0.4-0.7c0.2-0.2,0.3-0.3,0.5-0.5
	c0.1-0.1,0.1-0.1,0.2-0.2c0.4-0.2,0.7-0.4,1.1-0.3c0,0,0.1,0,0.1,0c0.3,0,0.7,0,1,0.1c0.4,0.1,0.8,0.2,1.2,0.3c0,0,0.1,0,0.1,0
	s0.2,0.1,0.3,0.1c0.1,0,0.2,0,0.2,0.1c0.3,0.2,0.7,0.4,0.9,0.8c0.1,0.3,0.2,0.7,0.2,1c0.1,0.2,0,0.5-0.1,0.7
	c-0.1,0.1-0.1,0.2-0.2,0.3c-0.2,0.1-0.4,0-0.6,0.3s-0.4,0.2-0.6,0.3l-0.2,0.1c-0.4,0-0.7,0-1.1,0c-0.2,0-0.3,0-0.5-0.1
	c-0.5-0.1-0.9-0.2-1.4-0.3c-0.4,0-0.9-0.2-1.2-0.5c-0.1-0.1-0.2-0.2-0.1-0.4c0-0.1,0-0.1,0-0.2C8.4,108.3,8.4,108,8.3,107.7z"/>
<path class="st1" d="M6.6,99.3c-0.1-0.3-0.2-0.6-0.2-0.9c-0.1-1-0.1-2-0.2-3.1c0,0,0-0.1,0-0.2c0.1-0.6,0.2-1.1,0.3-1.7
	c0-0.2,0.1-0.5,0.3-0.7c0.2-0.3,0.6-0.3,0.9-0.1c0,0,0.1,0.1,0.1,0.1c0.1,0.1,0.1,0.3,0.4,0.3c0.2,0,0.2,0.1,0.1,0.3h0.2H8.4
	c0,0.1,0,0.2,0.1,0.3c0.1,0.1,0.2,0.1,0.3,0.2C8.8,94,8.9,94.2,9,94.3c0.2,0.1,0.3,0.4,0.3,0.6L9.6,95L9.6,95c0,0.1,0.1,0.2,0.2,0.3
	c0.1,0.1,0.3,0.2,0.5,0.3s0.1,0.2,0.2,0.2s0.4,0.1,0.6,0.2c0,0.1-0.1,0.2-0.1,0.3s-0.1,0.4-0.2,0.5s-0.2,0.2-0.2,0.3
	c-0.1,0.4-0.4,0.6-0.7,0.8c-0.1,0.1-0.2,0.2-0.2,0.3c-0.1,0.2-0.3,0.4-0.5,0.4l-0.4,0.1l-1.9,0.6C6.8,99.5,6.6,99.5,6.6,99.3z"/>
<polygon class="st1" points="36,138.9 36,138.9 36,138.9 "/>
<path class="st1" d="M35.8,138.8L35.8,138.8h-0.1l0,0l0.4-0.1l0.1,0.4c-0.2-0.1-0.3-0.2-0.5-0.3s0-0.1,0-0.2L35.8,138.8z"/>
</svg>
