<svg id="Layer_1" data-name="Layer 1" xmlns="http://www.w3.org/2000/svg" viewBox="0 0 170.83 171"><defs><style>.cls-1{fill:#e7b00c;}.cls-2{fill:#2e5b66;}</style></defs><title>Artboard 22</title><path class="cls-1" d="M76.62,128c-.32.35-.56.79-.85,1.17s-.42.51-.64.76c-.42.43-.85.85-1.26,1.3-.12.13,0,.28.1.39s.53.45.8.66l1.12.79a1.76,1.76,0,0,1,.23.14c.21.17.39.22.58,0s.25-.12.37,0a5.81,5.81,0,0,0,.49.5,11.4,11.4,0,0,0,1.13.84c.43.28.47.26.88-.06.63-.49,1.27-1,1.88-1.48.46-.38.89-.82,1.33-1.23l0,0,2.4-2.29a.58.58,0,0,0,0-.82c-.18-.16-.3-.4-.59-.37-.2-.37-.65-.29-.92-.57a8.51,8.51,0,0,0-1.36-1c-.41-.29-.84-.57-1.27-.83s-.67-.34-1-.51a.21.21,0,0,0-.15,0c-.69.52-1.39,1-2.07,1.58A10.77,10.77,0,0,0,76.62,128Z"/><path class="cls-1" d="M66.17,121.22l-.1-.11-.11.22a.45.45,0,0,0,0,.32,13.94,13.94,0,0,0,1.6,2.28,13.7,13.7,0,0,0,1,1.06c.12.13.21.29.34.41a3.12,3.12,0,0,0,.43.27.44.44,0,0,0,.65-.08c.32-.4.66-.79,1-1.21.48-.68,1-1.37,1.41-2.06s.8-1.14,1.15-1.74c.15-.24.4-.5.29-.83s-.23-.56-.35-.85a.12.12,0,0,0,0-.05,1,1,0,0,1-.4-.63,2.56,2.56,0,0,0-.36-.72c-.18-.26-.43-.48-.63-.72a.73.73,0,0,0-.5-.3A.53.53,0,0,1,71,116a2.41,2.41,0,0,0-.4-.76,4.15,4.15,0,0,0-.61-.57l0-.06c-.09,0-.21-.12-.27-.09s-.3.22-.28.29,0,0,0,0,.17.24,0,.39a3.19,3.19,0,0,0-.31.33l-.3.52c0,.09-.09.19-.14.28-.16.26-.32.52-.49.78l-.38.67c-.47.85-.92,1.7-1.37,2.56A8.34,8.34,0,0,0,66.17,121.22Z"/><path class="cls-1" d="M47.53,104.84l.67.38a1.37,1.37,0,0,1,.23.19l.24.23.49.35a3.92,3.92,0,0,0,.32.25c.18.11.38.19.56.3a.74.74,0,0,0,.9-.18c.28-.38.6-.73.87-1.11.41-.56.83-1.11,1.18-1.7s.5-1,.77-1.53c.43-.79.88-1.56,1.33-2.34a.25.25,0,0,0,0-.34,3.73,3.73,0,0,0-.52-.46.31.31,0,0,1-.15-.43.36.36,0,0,0-.06-.3,2.94,2.94,0,0,0-.6-.45,3.16,3.16,0,0,0-1.16-.45c-.14,0-.29-.11-.2-.27a.34.34,0,0,0-.08-.44c-.1-.12-.22-.23-.33-.34h0c-.16-.13-.3-.28-.46-.4-.55-.42-1.1-.83-1.66-1.23a1.31,1.31,0,0,0-.56-.23c-.08,0-.19.22-.26.35-.38.66-.76,1.32-1.13,2-.16.28-.28.59-.46.86-.28.43-.58.83-.87,1.24s-.5.73-.76,1.09-.47.56-.69.85-.18.36-.29.52a.45.45,0,0,0,0,.59,8.11,8.11,0,0,0,.72.56l.1.07c.13.16.26.33.4.48a2.72,2.72,0,0,0,.43.4c.25.17.53.33.8.49s.18.21.08.36A.55.55,0,0,0,47.53,104.84Z"/><path class="cls-1" d="M30.32,87.07s0,.12,0,.18a1.22,1.22,0,0,0,.61.85c.4.11.69-.18,1-.35a9.5,9.5,0,0,0,1-.88c.45-.36.9-.72,1.37-1.06H29.6a1.76,1.76,0,0,0,.09.2A3.17,3.17,0,0,0,30.32,87.07Z"/><path class="cls-1" d="M55.88,109.88a.67.67,0,0,0-.19.36,3.6,3.6,0,0,0,.28,1.65,8.52,8.52,0,0,1,.26.86,2.21,2.21,0,0,0,.08.37c.2.44.42.87.63,1.31a.19.19,0,0,1,0,.08,2.46,2.46,0,0,0,.48,1.31,2.23,2.23,0,0,0,.37.5s.23,0,.3-.06.18-.29.3-.41c.69-.7,1.37-1.42,2.09-2.09s1.22-1.05,1.83-1.58h0l.7-.62a.68.68,0,0,0,.24-.74c-.1-.36-.22-.72-.29-1.08a11.78,11.78,0,0,1-.17-1.17c0-.22,0-.45,0-.67-.06-.47-.15-.93-.23-1.39s-.19-1-.29-1.5c0-.06-.06-.16-.11-.17a1.58,1.58,0,0,0-1.32.26,11.34,11.34,0,0,0-1.29,1.1c-.62.61-1.2,1.27-1.81,1.88S56.5,109.27,55.88,109.88Z"/><path class="cls-1" d="M37.12,90.16c-.48.6-1,1.18-1.44,1.77-.07.1-.14.28-.1.36a8,8,0,0,0,.67,1.13,11.82,11.82,0,0,0,1,1.16c.13.15.32.35.46.34a.5.5,0,0,1,.59.39c.13.35.27.38.58.17.07,0,.22-.09.23-.07.1.2.2,0,.29,0a3.1,3.1,0,0,1,.58-.39,2.38,2.38,0,0,0,1-.62c.2-.2.36-.51.6-.6.51-.18.74-.61,1.06-1,.46-.53.89-1.09,1.33-1.63a.8.8,0,0,0,.22-.92,7,7,0,0,0-.33-.67.44.44,0,0,1,0-.49.55.55,0,0,0,.05-.41,7.3,7.3,0,0,0-.56-1,11.56,11.56,0,0,1-.86-1.25,2.3,2.3,0,0,0-.41-.66H40.35c-.28.45-.56.9-.83,1.36A26.62,26.62,0,0,1,37.12,90.16Z"/><path class="cls-1" d="M81.23,110.83a2.83,2.83,0,0,1-.25.24l-.88.83c-.15.15-.26.35-.42.49-.45.38-.91.75-1.37,1.12a.3.3,0,0,0,0,.49s0,.07,0,.1,0,.24.05.29a2.84,2.84,0,0,0-.06.44c0,.12.08.23.09.35,0,.28.25.4.39.59a4.73,4.73,0,0,1,.64.85,1.19,1.19,0,0,0,.51.61,1.3,1.3,0,0,0,.67.18,3.61,3.61,0,0,0,.8-.32c.1,0,.24-.06.3-.14a1.52,1.52,0,0,1,.77-.43,3.72,3.72,0,0,0,1-.68c.24-.23.44-.5.67-.73.75-.75,1.49-1.51,2.26-2.24a6.07,6.07,0,0,1,.9-.68.44.44,0,0,0,.06-.67c-.2-.21-.38-.45-.56-.68s-.36-.54-.55-.8c-.34-.44-.7-.87-1-1.32a.5.5,0,0,0-.68-.15,11.91,11.91,0,0,1-1.25.72A7.13,7.13,0,0,0,81.23,110.83Z"/><path class="cls-1" d="M50.48,86.69c.14,0,.29.11.2.27s0,.32.09.45a3.31,3.31,0,0,0,.32.33h0a6.1,6.1,0,0,0,.46.41c.54.41,1.09.83,1.65,1.22a1.2,1.2,0,0,0,.56.23c.08,0,.19-.21.26-.34.39-.66.76-1.33,1.13-2,.16-.29.29-.6.47-.87s.27-.4.42-.6H48.75a3,3,0,0,0,.57.43A3.16,3.16,0,0,0,50.48,86.69Z"/><path class="cls-1" d="M71.44,100.9c-.69.44-1.44.81-2.17,1.2-.46.24-1,.45-1.42.68-.06,0-.14.16-.12.21a6.16,6.16,0,0,0,.33.94c.27.55.57,1.08.86,1.62a2.66,2.66,0,0,0,.92,1.18c.07,0,.11.15.15.23.19.4.35.8.55,1.19a.69.69,0,0,0,.84.38,6.11,6.11,0,0,0,2.28-1.06,17.41,17.41,0,0,0,1.79-1.65L77.39,104a.74.74,0,0,0,.24-.79c-.13-.35-.23-.72-.34-1.08,0-.06,0-.13,0-.16-.43-.43-.45-1-.73-1.54a3,3,0,0,0-.63-1.06.32.32,0,0,1,0-.18,1.19,1.19,0,0,0-.61-.85c-.39-.11-.69.18-1,.34a11,11,0,0,0-1,.89A19.47,19.47,0,0,1,71.44,100.9Z"/><path class="cls-1" d="M94.69,119.33a4.34,4.34,0,0,1,.75-.59,9,9,0,0,1,.82-.4c-.2-.16-.33-.33-.5-.38-.49-.16-1-.25-1.49-.43a4.61,4.61,0,0,0-1.69-.12,1.73,1.73,0,0,1-1,0,2.65,2.65,0,0,0-.8-.17c-.14,0-.33-.06-.43,0a.56.56,0,0,1-.45.05.82.82,0,0,0-.86.34c-.46.56-1,1.08-1.45,1.62-.15.18-.25.4-.41.57-.58.64-1.18,1.25-1.74,1.9a12.29,12.29,0,0,0-.81,1.18.32.32,0,0,1,.07.2c0,.11,0,.26.1.32a1.18,1.18,0,0,0,.38.16s0,0,0,0a.59.59,0,0,0,.16.06c.24,0,.49.07.73.12s.26.05.31.13.26.1.39.1a2.57,2.57,0,0,0,.48,0,1,1,0,0,0,.44-.06,1,1,0,0,1,.61-.14c.09,0,.2-.09.31-.12s.24-.06.29,0a.62.62,0,0,0,.55.14,1.28,1.28,0,0,1,.39,0,1,1,0,0,0,1-.43c.64-.72,1.29-1.43,2-2.12S94.07,119.93,94.69,119.33Z"/><path class="cls-1" d="M65.83,89.36c-.12-.14-.32-.35-.46-.34a.48.48,0,0,1-.58-.38c-.14-.36-.28-.39-.59-.18a.49.49,0,0,1-.22.08c-.11-.21-.21-.06-.29,0a2.74,2.74,0,0,1-.59.39,2.49,2.49,0,0,0-1,.62c-.2.21-.36.52-.59.6-.52.18-.75.62-1.06,1-.47.53-.89,1.09-1.34,1.64a.82.82,0,0,0-.22.91c.11.23.21.46.34.68a.46.46,0,0,1,0,.48.58.58,0,0,0-.06.42,7.18,7.18,0,0,0,.56,1,11.13,11.13,0,0,1,.86,1.25,1.78,1.78,0,0,0,.6.82.24.24,0,0,1,.09.08,1,1,0,0,0,.84.53c.12-.15.23-.27.32-.4.35-.57.71-1.15,1.05-1.73a26.71,26.71,0,0,1,2.41-3c.47-.59,1-1.17,1.43-1.77a.47.47,0,0,0,.1-.36,8.61,8.61,0,0,0-.67-1.13A13.12,13.12,0,0,0,65.83,89.36Z"/><path class="cls-1" d="M53.73,151.89c.26.23.52.45.8.66l1.12.79c.07,0,.16.08.23.14s.39.22.58,0,.25-.12.37,0a5.9,5.9,0,0,0,.49.51,13,13,0,0,0,1.12.83c.43.28.48.26.88-.05.63-.49,1.27-1,1.88-1.48s.89-.82,1.34-1.24l0,0,2.4-2.28a.6.6,0,0,0,0-.83c-.17-.16-.3-.4-.59-.37-.19-.36-.64-.28-.92-.57a9.08,9.08,0,0,0-1.35-1c-.42-.29-.84-.57-1.28-.82a9.4,9.4,0,0,0-1-.51.17.17,0,0,0-.15,0c-.69.53-1.38,1.05-2.06,1.59a9.85,9.85,0,0,0-1.19,1,14.11,14.11,0,0,0-.85,1.18,9.19,9.19,0,0,1-.65.75c-.41.44-.85.86-1.25,1.3C53.5,151.64,53.6,151.79,53.73,151.89Z"/><path class="cls-1" d="M48.3,145.24a4.39,4.39,0,0,0,.33.4,4.08,4.08,0,0,0,.44.28.44.44,0,0,0,.65-.08c.32-.4.65-.8,1-1.22.49-.67.95-1.37,1.42-2.05s.79-1.15,1.15-1.74c.15-.25.39-.5.29-.83a8.93,8.93,0,0,0-.35-.85.17.17,0,0,0-.06-.06,1,1,0,0,1-.39-.62,2.85,2.85,0,0,0-.36-.72c-.19-.26-.43-.48-.64-.73a.69.69,0,0,0-.49-.3.54.54,0,0,1-.51-.45,2.29,2.29,0,0,0-.39-.76,5.49,5.49,0,0,0-.61-.57l0-.06c-.09,0-.22-.11-.28-.08s-.29.21-.27.28v0a.28.28,0,0,1,0,.4,1.93,1.93,0,0,0-.31.33l-.31.51a1.47,1.47,0,0,1-.14.28c-.15.26-.32.53-.48.79s-.26.44-.38.66c-.48.85-.93,1.71-1.38,2.57a7.22,7.22,0,0,0-.32.79.5.5,0,0,1-.1-.11l-.12.23a.46.46,0,0,0,0,.32,13.28,13.28,0,0,0,1.6,2.27A13.84,13.84,0,0,0,48.3,145.24Z"/><path class="cls-1" d="M4.34,89c0-.28-.25-.4-.39-.59a5,5,0,0,1-.64-.85A1.15,1.15,0,0,0,2.8,87a1.3,1.3,0,0,0-.67-.18,3.43,3.43,0,0,0-.8.32c-.1.05-.24.06-.3.14-.19.27-.51.31-.78.43-.09,0-.16.09-.25.14.05,2.19.16,4.37.37,6.52a7,7,0,0,0,1.2-1l.25-.23c.29-.28.59-.55.87-.83s.27-.35.43-.49c.45-.39.91-.75,1.37-1.12a.3.3,0,0,0,0-.49.28.28,0,0,1,0-.11c0-.11,0-.23-.06-.28a3,3,0,0,0,.07-.44C4.42,89.24,4.35,89.13,4.34,89Z"/><path class="cls-1" d="M27.18,117.78c-.27.42-.58.82-.87,1.23s-.49.74-.76,1.09-.47.56-.68.85-.19.36-.3.53a.44.44,0,0,0,0,.58,5,5,0,0,0,.73.56s.07,0,.09.07.26.33.4.48a2.69,2.69,0,0,0,.43.4c.26.18.53.34.8.49s.18.21.09.37a.53.53,0,0,0,.14.65l.67.38a2,2,0,0,1,.22.19c.09.08.16.16.25.23l.49.35a3.76,3.76,0,0,0,.31.25c.18.11.38.2.56.31a.74.74,0,0,0,.91-.19c.28-.37.59-.72.87-1.1.41-.56.82-1.12,1.18-1.71s.49-1,.76-1.52c.43-.79.89-1.57,1.34-2.35a.26.26,0,0,0,0-.33,3.37,3.37,0,0,0-.53-.47c-.18-.12-.23-.22-.15-.43a.3.3,0,0,0-.05-.29,3.61,3.61,0,0,0-.6-.45,3.12,3.12,0,0,0-1.16-.45c-.15,0-.29-.12-.2-.28s0-.31-.09-.44-.22-.22-.33-.33h0a5.87,5.87,0,0,0-.46-.41c-.55-.41-1.09-.83-1.65-1.22a1.24,1.24,0,0,0-.56-.23c-.08,0-.19.21-.27.34-.38.66-.75,1.32-1.12,2C27.49,117.2,27.36,117.5,27.18,117.78Z"/><path class="cls-1" d="M9.58,104.65a20.81,20.81,0,0,1,1.77-1.36c.7-.45,1.44-.81,2.18-1.2.46-.24,1-.45,1.42-.68a.31.31,0,0,0,.12-.21,7,7,0,0,0-.33-.94c-.27-.55-.57-1.09-.86-1.62A2.66,2.66,0,0,0,13,97.46c-.07,0-.11-.15-.15-.23-.19-.4-.35-.81-.55-1.19a.71.71,0,0,0-.84-.39,6.44,6.44,0,0,0-2.28,1.06,17.51,17.51,0,0,0-1.79,1.66L5.4,100.22a.74.74,0,0,0-.23.79c.13.35.22.72.33,1.08,0,0,0,.13,0,.16.43.42.46,1,.73,1.54a3.17,3.17,0,0,0,.63,1.06s0,.12,0,.18a1.19,1.19,0,0,0,.61.85c.39.11.68-.18,1-.35A10.87,10.87,0,0,0,9.58,104.65Z"/><path class="cls-1" d="M35.63,130.13a.62.62,0,0,0-.18.36,3.49,3.49,0,0,0,.27,1.65A7.8,7.8,0,0,1,36,133c0,.12,0,.25.08.36.2.44.42.87.64,1.31a.25.25,0,0,1,0,.08,2.61,2.61,0,0,0,.48,1.32,2.57,2.57,0,0,0,.38.49s.23,0,.29-.06.19-.28.31-.4c.69-.71,1.37-1.42,2.08-2.1s1.23-1.05,1.84-1.57h0l.71-.62a.68.68,0,0,0,.24-.74c-.11-.36-.22-.72-.3-1.09a11.37,11.37,0,0,1-.17-1.17c0-.22,0-.45,0-.67-.06-.46-.15-.93-.23-1.39s-.19-1-.29-1.49c0-.07-.07-.16-.12-.17a1.56,1.56,0,0,0-1.31.25,10.49,10.49,0,0,0-1.29,1.11c-.62.61-1.2,1.26-1.82,1.87S36.25,129.52,35.63,130.13Z"/><path class="cls-1" d="M16.87,110.41c-.47.59-1,1.17-1.43,1.77-.08.09-.15.28-.1.36a7.84,7.84,0,0,0,.66,1.12c.3.41.63.79,1,1.17.13.14.32.35.47.33a.48.48,0,0,1,.58.39c.13.36.27.39.59.18a.49.49,0,0,1,.22-.08c.11.21.2,0,.29,0a3.23,3.23,0,0,1,.59-.4,2.42,2.42,0,0,0,1-.61c.2-.21.35-.52.59-.6.51-.18.75-.62,1.06-1,.47-.52.89-1.09,1.34-1.63a.82.82,0,0,0,.22-.91c-.11-.23-.21-.46-.34-.68a.44.44,0,0,1,0-.48.57.57,0,0,0,.05-.42,6.2,6.2,0,0,0-.55-1,11.24,11.24,0,0,1-.86-1.26,1.88,1.88,0,0,0-.6-.81.2.2,0,0,1-.09-.09,1,1,0,0,0-.84-.52,3.74,3.74,0,0,0-.32.4c-.36.57-.71,1.15-1,1.73A27.65,27.65,0,0,1,16.87,110.41Z"/><path class="cls-1" d="M10.18,86.68c.19.27.44.48.64.73a.73.73,0,0,0,.49.3.52.52,0,0,1,.51.45,2.22,2.22,0,0,0,.4.76,4.64,4.64,0,0,0,.6.57l0,.06c.1,0,.22.12.28.08s.3-.21.28-.28,0,0,0,0-.17-.24,0-.39a2.54,2.54,0,0,0,.32-.34l.3-.51c0-.09.09-.19.14-.28l.48-.78.39-.67c.09-.17.18-.35.28-.52H9.77a.75.75,0,0,1,.05.16A3,3,0,0,0,10.18,86.68Z"/><path class="cls-1" d="M58.21,135.42c0,.29.26.4.4.59a5.49,5.49,0,0,1,.63.85,1.09,1.09,0,0,0,.52.61,1.24,1.24,0,0,0,.66.18,3.69,3.69,0,0,0,.81-.32c.1,0,.24-.06.29-.14.2-.27.52-.31.78-.43a3.47,3.47,0,0,0,1-.68c.24-.22.45-.49.68-.73.75-.75,1.49-1.5,2.25-2.24a7,7,0,0,1,.91-.68.44.44,0,0,0,.06-.67,4.6,4.6,0,0,1-.56-.68c-.19-.26-.36-.54-.56-.8-.33-.44-.69-.86-1-1.31a.5.5,0,0,0-.69-.16,13,13,0,0,1-1.24.73A7,7,0,0,0,61,131.08l-.25.23c-.3.28-.6.55-.88.84s-.27.35-.43.49c-.44.38-.91.74-1.36,1.12a.29.29,0,0,0,0,.48.22.22,0,0,1,0,.11l0,.28a3.13,3.13,0,0,0-.07.45C58.13,135.19,58.21,135.31,58.21,135.42Z"/><path class="cls-1" d="M33.64,98.2c-.11-.08-.21-.18-.32-.25s-.38-.2-.56-.31a.74.74,0,0,0-.9.19c-.28.38-.6.73-.87,1.11-.41.55-.83,1.11-1.19,1.7s-.49,1-.76,1.52c-.43.79-.88,1.57-1.33,2.35a.23.23,0,0,0,0,.33,3.3,3.3,0,0,0,.52.47.31.31,0,0,1,.15.43.3.3,0,0,0,.06.29,3.41,3.41,0,0,0,.6.46,3.16,3.16,0,0,0,1.16.45c.14,0,.28.11.2.27a.34.34,0,0,0,.08.44c.1.12.22.22.33.34h0c.16.14.3.29.46.41.55.42,1.1.83,1.66,1.23a1.14,1.14,0,0,0,.56.22c.07,0,.19-.21.26-.34.38-.66.76-1.32,1.13-2,.16-.28.28-.59.46-.87s.58-.82.87-1.23.5-.74.76-1.09.47-.56.69-.85.18-.36.29-.53a.44.44,0,0,0,0-.58,5.56,5.56,0,0,0-.72-.56.36.36,0,0,1-.1-.07c-.14-.16-.26-.33-.4-.48a2.72,2.72,0,0,0-.43-.4c-.26-.18-.53-.34-.8-.49s-.18-.21-.08-.37a.53.53,0,0,0-.15-.65L34.59,99a2,2,0,0,1-.22-.19,2.73,2.73,0,0,0-.25-.23C34,98.43,33.8,98.32,33.64,98.2Z"/><path class="cls-1" d="M57.15,124.21a.75.75,0,0,0,.24-.79c-.14-.35-.23-.72-.34-1.08,0,0,0-.13,0-.16-.43-.42-.46-1-.73-1.53a3.12,3.12,0,0,0-.63-1.07s0-.12,0-.18a1.18,1.18,0,0,0-.6-.85c-.4-.11-.69.18-1,.35a9.61,9.61,0,0,0-1,.89c-.58.46-1.16.95-1.78,1.35s-1.44.82-2.17,1.2c-.47.24-1,.45-1.42.69a.23.23,0,0,0-.12.21,5.53,5.53,0,0,0,.33.94c.26.54.56,1.08.85,1.61a2.74,2.74,0,0,0,.92,1.18c.08,0,.12.15.16.24.18.39.35.8.55,1.19a.68.68,0,0,0,.83.38,6.49,6.49,0,0,0,2.29-1.06,17.31,17.31,0,0,0,1.78-1.65Z"/><path class="cls-1" d="M64.57,143.64a1.52,1.52,0,0,0,.39.16v0l.16.06.73.11c.12,0,.27.06.32.14s.26.09.39.1a3.62,3.62,0,0,0,.47,0,1.29,1.29,0,0,0,.45-.07.9.9,0,0,1,.6-.13c.1,0,.21-.09.32-.12s.24-.07.29,0a.59.59,0,0,0,.54.13,1.34,1.34,0,0,1,.4,0,1,1,0,0,0,1-.43c.65-.71,1.3-1.42,2-2.12s1.21-1.23,1.83-1.83a4.83,4.83,0,0,1,.76-.59,7.09,7.09,0,0,1,.82-.39,2.37,2.37,0,0,0-.5-.39c-.49-.16-1-.25-1.5-.42a4.2,4.2,0,0,0-1.69-.12,1.79,1.79,0,0,1-1-.06,3,3,0,0,0-.8-.17.71.71,0,0,0-.44,0c-.16.12-.29.07-.44.05l-.22,0a.82.82,0,0,0-.65.37c-.46.56-1,1.07-1.44,1.62-.16.17-.26.39-.41.56-.58.64-1.19,1.25-1.75,1.9a11.65,11.65,0,0,0-.8,1.18.33.33,0,0,1,.06.2C64.5,143.42,64.5,143.57,64.57,143.64Z"/><path class="cls-1" d="M19.53,93.38c.1.36.21.71.29,1.08A11.78,11.78,0,0,1,20,95.63c0,.22,0,.45,0,.67.06.47.14.93.23,1.39s.18,1,.29,1.5a.26.26,0,0,0,.11.17,1.58,1.58,0,0,0,1.32-.26A12.28,12.28,0,0,0,23.23,98c.62-.61,1.19-1.27,1.81-1.88s1.26-1.21,1.88-1.82a.7.7,0,0,0,.19-.36,3.56,3.56,0,0,0-.28-1.64,8.7,8.7,0,0,1-.26-.87,2.33,2.33,0,0,0-.08-.36c-.2-.44-.42-.87-.63-1.31a.19.19,0,0,1,0-.08,2.46,2.46,0,0,0-.48-1.31,2,2,0,0,0-.37-.5s-.23,0-.3.06-.19.29-.3.41c-.69.7-1.37,1.41-2.09,2.09s-1.22,1-1.84,1.58h0l-.7.63A.66.66,0,0,0,19.53,93.38Z"/><path class="cls-1" d="M43.73,108.78c-.1-.21-.2,0-.29,0a3.1,3.1,0,0,1-.58.39,2.57,2.57,0,0,0-1,.61c-.19.21-.35.52-.59.6-.51.19-.74.62-1.06,1-.46.52-.89,1.09-1.34,1.63a.8.8,0,0,0-.21.91c.1.23.21.46.33.68a.44.44,0,0,1,0,.49.55.55,0,0,0,0,.41,8.5,8.5,0,0,0,.55,1,11.66,11.66,0,0,1,.87,1.25,1.64,1.64,0,0,0,.6.81.18.18,0,0,1,.08.09,1,1,0,0,0,.85.53,4.92,4.92,0,0,0,.31-.41c.36-.57.71-1.14,1.06-1.72a27.67,27.67,0,0,1,2.4-3c.48-.59,1-1.17,1.44-1.77a.46.46,0,0,0,.1-.36,9.75,9.75,0,0,0-.67-1.12c-.29-.41-.63-.79-1-1.17-.13-.14-.32-.34-.46-.33a.5.5,0,0,1-.59-.39c-.13-.36-.27-.39-.58-.18A.51.51,0,0,1,43.73,108.78Z"/><path class="cls-1" d="M46.93,152.68A.43.43,0,0,0,47,152c-.2-.21-.38-.45-.56-.68s-.36-.54-.55-.8c-.34-.44-.7-.87-1-1.32a.5.5,0,0,0-.68-.16,10.45,10.45,0,0,1-1.25.73,7.13,7.13,0,0,0-2.18,1.54l-.25.24-.88.83c-.15.15-.26.35-.42.49-.45.38-.91.75-1.37,1.12a.3.3,0,0,0,0,.49s0,.07,0,.1,0,.23.06.29a3,3,0,0,0-.07.44c0,.12.08.23.09.35,0,.28.25.4.39.59a4.31,4.31,0,0,1,.64.85,1.19,1.19,0,0,0,.51.61,1.3,1.3,0,0,0,.67.18,3.07,3.07,0,0,0,.8-.33c.1,0,.24-.06.3-.13a1.51,1.51,0,0,1,.78-.43,4.06,4.06,0,0,0,1-.68c.24-.23.44-.5.67-.73.75-.76,1.49-1.51,2.26-2.24A6.64,6.64,0,0,1,46.93,152.68Z"/><path class="cls-1" d="M13.27,130.1c.08,0,.19-.22.27-.35.38-.66.75-1.32,1.12-2,.16-.29.29-.6.47-.87.27-.42.58-.83.86-1.24s.5-.73.77-1.09.47-.55.68-.85.19-.36.3-.52a.44.44,0,0,0,0-.58,5.93,5.93,0,0,0-.73-.57s-.07,0-.09-.06-.26-.34-.4-.49a3.16,3.16,0,0,0-.43-.39c-.26-.18-.53-.34-.8-.5s-.19-.21-.09-.36a.53.53,0,0,0-.14-.65c-.22-.14-.45-.25-.67-.39a1.3,1.3,0,0,1-.22-.19c-.09-.07-.16-.16-.25-.23l-.49-.34c-.11-.08-.2-.18-.31-.25s-.38-.2-.56-.31a.74.74,0,0,0-.91.19c-.28.37-.59.72-.87,1.1-.41.56-.82,1.11-1.18,1.7s-.49,1-.76,1.53l-.36.62c1,2.09,2.12,4.12,3.3,6.12.32.24.64.49,1,.72A1.31,1.31,0,0,0,13.27,130.1Z"/><path class="cls-1" d="M35.36,139.65a1.17,1.17,0,0,0-.61-.85c-.39-.11-.69.18-1,.34a9.7,9.7,0,0,0-1.05.89c-.58.47-1.15.95-1.77,1.36s-1.45.81-2.18,1.19c-.46.25-1,.46-1.42.69a.27.27,0,0,0-.12.21,7.46,7.46,0,0,0,.33.94c.27.55.57,1.08.86,1.62a2.72,2.72,0,0,0,.92,1.18c.07,0,.11.15.15.23.19.4.35.8.55,1.19a.69.69,0,0,0,.84.38A6.11,6.11,0,0,0,33.17,148,17.41,17.41,0,0,0,35,146.31l1.95-1.86a.73.73,0,0,0,.23-.78c-.13-.35-.23-.72-.33-1.08,0-.06,0-.13,0-.16-.44-.43-.46-1-.73-1.54a3.35,3.35,0,0,0-.63-1.06A.27.27,0,0,1,35.36,139.65Z"/><path class="cls-1" d="M52.37,161.65c.59-.62,1.21-1.23,1.83-1.83a4.81,4.81,0,0,1,.75-.6c.24-.14.51-.24.82-.39-.2-.16-.33-.33-.5-.38-.49-.16-1-.25-1.49-.43a4.4,4.4,0,0,0-1.69-.12,1.82,1.82,0,0,1-1-.05,2.65,2.65,0,0,0-.8-.17.63.63,0,0,0-.43,0,.52.52,0,0,1-.45.06.53.53,0,0,0-.22,0,.82.82,0,0,0-.64.36c-.46.56-1,1.08-1.45,1.62-.15.18-.25.4-.41.57-.37.41-.76.82-1.14,1.23,1.56.83,3.15,1.6,4.76,2.33l.08-.07C51.05,163.05,51.7,162.34,52.37,161.65Z"/><path class="cls-1" d="M4.74,108.12c0-.05-.23,0-.29,0s-.19.29-.31.41c-.28.29-.57.57-.86.86.62,2.16,1.31,4.29,2.09,6.37l1.31-1.26a.65.65,0,0,0,.18-.36,3.47,3.47,0,0,0-.27-1.65,8.52,8.52,0,0,1-.26-.86c0-.12,0-.25-.08-.36-.21-.44-.42-.88-.64-1.31a.28.28,0,0,1,0-.09,2.61,2.61,0,0,0-.48-1.31A2.29,2.29,0,0,0,4.74,108.12Z"/><path class="cls-1" d="M18.72,135.74a6.69,6.69,0,0,0,.55,1,10.29,10.29,0,0,1,.86,1.25,1.85,1.85,0,0,0,.6.82.24.24,0,0,1,.09.08,1,1,0,0,0,.84.53c.12-.15.23-.27.32-.4.35-.58.71-1.15,1.05-1.73a26.71,26.71,0,0,1,2.41-3c.47-.6,1-1.17,1.43-1.77.08-.09.15-.28.1-.36a9.8,9.8,0,0,0-.66-1.13c-.3-.4-.63-.79-1-1.16-.13-.15-.32-.35-.47-.34a.48.48,0,0,1-.58-.38c-.13-.36-.27-.39-.59-.18a.66.66,0,0,1-.22.08c-.11-.21-.21-.06-.29,0a3.17,3.17,0,0,1-.59.39,2.45,2.45,0,0,0-1,.62c-.2.21-.35.51-.59.6-.52.18-.75.62-1.06,1-.47.53-.89,1.09-1.34,1.64a.82.82,0,0,0-.22.91c.11.23.21.46.34.68a.44.44,0,0,1,0,.48A.53.53,0,0,0,18.72,135.74Z"/><path class="cls-1" d="M82.93,139.91c.19.26.36.54.55.8.34.44.7.87,1,1.32a.5.5,0,0,0,.68.15,11.91,11.91,0,0,1,1.25-.72,7.13,7.13,0,0,0,2.18-1.54,2.83,2.83,0,0,1,.25-.24l.88-.83c.15-.15.26-.35.42-.49.45-.39.91-.75,1.37-1.12a.3.3,0,0,0,0-.49s0-.07,0-.1,0-.24-.06-.29a2.08,2.08,0,0,0,.07-.44c0-.12-.08-.23-.09-.35,0-.28-.25-.4-.39-.59a4.73,4.73,0,0,1-.64-.85,1.19,1.19,0,0,0-.51-.61,1.3,1.3,0,0,0-.67-.18,3.43,3.43,0,0,0-.8.32c-.1.05-.24.06-.3.14-.19.27-.51.31-.78.43a3.81,3.81,0,0,0-1,.68c-.24.23-.44.5-.67.73-.75.75-1.49,1.51-2.26,2.24a6.64,6.64,0,0,1-.9.68.44.44,0,0,0-.06.67C82.57,139.44,82.75,139.68,82.93,139.91Z"/><path class="cls-1" d="M119.17,163.79c.11-.2,0-.32-.09-.45a2.57,2.57,0,0,0-.33-.33h0a6.1,6.1,0,0,0-.46-.41c-.54-.41-1.09-.83-1.65-1.22a1.2,1.2,0,0,0-.56-.23c-.08,0-.19.21-.27.34-.38.66-.75,1.33-1.12,2-.16.29-.29.6-.47.87s-.57.82-.86,1.24-.5.73-.77,1.08c-.13.19-.28.36-.43.54a82.88,82.88,0,0,0,7.79-3,2,2,0,0,0-.59-.16C119.22,164,119.08,164,119.17,163.79Z"/><path class="cls-1" d="M95.58,152.09a9.6,9.6,0,0,0,1-.88,20.81,20.81,0,0,1,1.77-1.36c.7-.44,1.45-.81,2.18-1.2.46-.24,1-.45,1.42-.68a.29.29,0,0,0,.12-.21,7.46,7.46,0,0,0-.33-.94c-.27-.55-.57-1.08-.86-1.62A2.66,2.66,0,0,0,100,144c-.07,0-.11-.15-.15-.23-.19-.4-.35-.8-.55-1.19a.69.69,0,0,0-.84-.38,6.11,6.11,0,0,0-2.28,1.06,16.35,16.35,0,0,0-1.79,1.65l-2,1.85a.75.75,0,0,0-.23.79c.13.35.23.72.34,1.08,0,.06,0,.13,0,.16.43.43.45,1,.72,1.54a3.35,3.35,0,0,0,.63,1.06s0,.12,0,.18a1.19,1.19,0,0,0,.61.85C95,152.55,95.3,152.26,95.58,152.09Z"/><path class="cls-1" d="M104,161.39c.12.14.31.35.46.34a.48.48,0,0,1,.58.38c.13.36.28.39.59.18a.49.49,0,0,1,.22-.08c.11.21.21.06.29,0a2.74,2.74,0,0,1,.59-.39,2.56,2.56,0,0,0,1-.62c.2-.21.35-.52.59-.6.52-.18.75-.62,1.06-1,.47-.53.89-1.09,1.34-1.64a.82.82,0,0,0,.22-.91c-.11-.23-.21-.46-.34-.68a.44.44,0,0,1,0-.48.58.58,0,0,0,.06-.42,7.18,7.18,0,0,0-.56-1,10.39,10.39,0,0,1-.86-1.26,1.8,1.8,0,0,0-.6-.81.24.24,0,0,1-.09-.08,1,1,0,0,0-.84-.53,5.09,5.09,0,0,0-.32.4c-.35.57-.71,1.15-1,1.73a27.65,27.65,0,0,1-2.41,3c-.47.59-1,1.17-1.43,1.77a.43.43,0,0,0-.1.36,9.8,9.8,0,0,0,.66,1.13C103.35,160.63,103.68,161,104,161.39Z"/><path class="cls-1" d="M103.68,129.53l.1.11.11-.22a.45.45,0,0,0,0-.32,13.94,13.94,0,0,0-1.6-2.28,13.7,13.7,0,0,0-1-1.06c-.12-.13-.21-.29-.34-.41a3.12,3.12,0,0,0-.43-.27.44.44,0,0,0-.65.08c-.32.4-.66.79-1,1.21-.48.68-1,1.37-1.42,2.06s-.79,1.14-1.15,1.74c-.14.24-.39.5-.28.83a8.76,8.76,0,0,0,.35.84.1.1,0,0,0,0,.06.94.94,0,0,1,.39.63,2.89,2.89,0,0,0,.37.72c.18.26.43.48.63.72a.73.73,0,0,0,.49.3.53.53,0,0,1,.51.45,2.41,2.41,0,0,0,.4.76,4.15,4.15,0,0,0,.61.57l0,.06c.09,0,.21.12.27.09s.3-.22.28-.29,0,0,0,0-.17-.24,0-.39a3.19,3.19,0,0,0,.31-.33l.3-.52.14-.28c.16-.26.32-.52.49-.78l.38-.67c.47-.85.92-1.7,1.37-2.56C103.48,130.08,103.56,129.81,103.68,129.53Z"/><path class="cls-1" d="M118.35,155c.55.42,1.1.83,1.66,1.23a1.26,1.26,0,0,0,.56.23c.08,0,.19-.22.26-.35.38-.66.76-1.32,1.13-2,.16-.28.28-.59.46-.86.27-.43.58-.83.87-1.24s.5-.73.76-1.09.47-.56.69-.85.18-.36.29-.52a.45.45,0,0,0,0-.59,8.11,8.11,0,0,0-.72-.56l-.1-.07c-.13-.16-.26-.33-.4-.48a2.72,2.72,0,0,0-.43-.4c-.25-.18-.53-.33-.8-.49s-.18-.21-.08-.36a.55.55,0,0,0-.14-.66l-.67-.38a1.37,1.37,0,0,1-.23-.19l-.24-.23-.49-.35a3.92,3.92,0,0,0-.32-.25c-.18-.11-.38-.19-.56-.31a.75.75,0,0,0-.9.19c-.28.38-.6.73-.87,1.11-.41.56-.83,1.11-1.18,1.7s-.5,1-.77,1.53c-.43.78-.88,1.56-1.33,2.34a.25.25,0,0,0,0,.34,3.73,3.73,0,0,0,.52.46.31.31,0,0,1,.15.43.36.36,0,0,0,.06.3,2.94,2.94,0,0,0,.6.45,3.16,3.16,0,0,0,1.16.45c.14,0,.28.11.2.27a.34.34,0,0,0,.08.44c.1.12.22.23.33.34h0C118.05,154.69,118.19,154.84,118.35,155Z"/><path class="cls-1" d="M114,140.87a.67.67,0,0,0,.19-.36,3.6,3.6,0,0,0-.28-1.65,8.52,8.52,0,0,1-.26-.86,2.21,2.21,0,0,0-.08-.37c-.2-.44-.42-.87-.63-1.31a.19.19,0,0,1,0-.08,2.46,2.46,0,0,0-.48-1.31,2.23,2.23,0,0,0-.37-.5s-.23,0-.3.06-.18.29-.3.41c-.69.7-1.37,1.42-2.09,2.09s-1.22,1-1.83,1.58h0l-.7.62a.68.68,0,0,0-.24.74c.1.36.22.72.29,1.08a11.78,11.78,0,0,1,.17,1.17c0,.22,0,.45,0,.67.06.47.14.93.23,1.39s.19,1,.29,1.5c0,.06.06.16.11.17a1.58,1.58,0,0,0,1.32-.26,11.34,11.34,0,0,0,1.29-1.1c.62-.61,1.2-1.27,1.81-1.88S113.35,141.48,114,140.87Z"/><path class="cls-1" d="M132.18,155.83a.5.5,0,0,1-.59-.39c-.13-.36-.27-.38-.58-.17a.61.61,0,0,1-.23.07c-.1-.2-.2-.05-.29,0a3.1,3.1,0,0,1-.58.39,2.48,2.48,0,0,0-1,.62c-.19.2-.35.51-.59.6-.51.18-.74.61-1.06,1-.46.53-.89,1.09-1.33,1.63a.8.8,0,0,0-.22.92c.1.22.21.46.33.67a.49.49,0,0,1,0,.11q3.71-2,7.19-4.34c-.21-.25-.41-.51-.63-.76S132.32,155.82,132.18,155.83Z"/><path class="cls-1" d="M62.68,160.16c.2.26.36.54.56.79.33.45.69.87,1,1.32a.5.5,0,0,0,.69.16,13,13,0,0,1,1.24-.73,6.85,6.85,0,0,0,2.18-1.54l.25-.24c.3-.27.6-.54.88-.83s.27-.35.43-.49c.44-.38.91-.75,1.36-1.12a.29.29,0,0,0,0-.48.22.22,0,0,1,0-.11l0-.29a3,3,0,0,0,.07-.44,3.58,3.58,0,0,1-.09-.35c0-.28-.26-.4-.4-.59a5,5,0,0,1-.63-.84,1.09,1.09,0,0,0-.52-.61,1.16,1.16,0,0,0-.66-.18,3.69,3.69,0,0,0-.81.32c-.1,0-.24.06-.29.14-.2.27-.52.31-.78.43a3.47,3.47,0,0,0-1,.68c-.24.22-.45.49-.68.73-.74.75-1.49,1.5-2.25,2.23a5.91,5.91,0,0,1-.9.68.45.45,0,0,0-.07.68A4.6,4.6,0,0,1,62.68,160.16Z"/><path class="cls-1" d="M78.16,170.1c.7-.45,1.44-.82,2.17-1.2.47-.25,1-.45,1.42-.69a.23.23,0,0,0,.12-.21,5.24,5.24,0,0,0-.33-.94c-.26-.55-.56-1.08-.85-1.61a2.68,2.68,0,0,0-.92-1.18.51.51,0,0,1-.16-.24c-.18-.39-.35-.8-.55-1.19a.68.68,0,0,0-.83-.38,6.32,6.32,0,0,0-2.29,1.06,18.41,18.41,0,0,0-1.78,1.65l-2,1.86a.75.75,0,0,0-.24.79c.14.35.23.72.34,1.08,0,0,0,.12,0,.16.41.4.46,1,.7,1.45,1.29.19,2.59.36,3.9.49A13.08,13.08,0,0,1,78.16,170.1Z"/><path class="cls-1" d="M80.42,155.38l.31-.51a1.47,1.47,0,0,1,.14-.28c.15-.27.32-.53.48-.79s.26-.44.38-.67c.48-.84.93-1.7,1.38-2.56a7.22,7.22,0,0,0,.32-.79.57.57,0,0,1,.11.11,2.4,2.4,0,0,1,.11-.23.46.46,0,0,0,0-.32,12.82,12.82,0,0,0-1.6-2.28c-.28-.38-.64-.7-1-1.06a4.39,4.39,0,0,0-.33-.4,4.08,4.08,0,0,0-.44-.28.43.43,0,0,0-.64.08c-.33.4-.66.8-1,1.22-.49.67-1,1.36-1.42,2s-.79,1.15-1.15,1.74c-.15.25-.39.5-.29.83s.23.57.35.85a.17.17,0,0,0,.06.06,1,1,0,0,1,.39.62,3.23,3.23,0,0,0,.36.72c.19.26.43.48.64.73a.68.68,0,0,0,.49.29.56.56,0,0,1,.51.45,2.43,2.43,0,0,0,.39.77,4.6,4.6,0,0,0,.61.56l0,.07c.1,0,.22.11.28.08s.29-.21.27-.28v-.06a.27.27,0,0,1,0-.39A1.93,1.93,0,0,0,80.42,155.38Z"/><path class="cls-1" d="M104,168.62s-.08,0-.1-.07-.26-.33-.4-.49a2.66,2.66,0,0,0-.43-.39c-.26-.18-.53-.34-.8-.5s-.18-.2-.09-.36a.52.52,0,0,0-.14-.65c-.22-.13-.45-.25-.67-.39a1.92,1.92,0,0,1-.22-.18,1.79,1.79,0,0,0-.25-.23c-.16-.13-.33-.23-.49-.35a3.76,3.76,0,0,0-.31-.25c-.18-.11-.38-.2-.56-.31a.74.74,0,0,0-.91.19c-.28.37-.59.72-.87,1.1-.41.56-.82,1.12-1.18,1.71s-.49,1-.76,1.52l-1.12,2a85.49,85.49,0,0,0,10.06-1.7l0-.06A5.56,5.56,0,0,0,104,168.62Z"/><path class="cls-1" d="M86.79,163.11c.06.46.15.92.23,1.39s.19,1,.29,1.49c0,.07.07.16.12.17a1.53,1.53,0,0,0,1.31-.26A9.62,9.62,0,0,0,90,164.8c.62-.61,1.2-1.26,1.82-1.88s1.26-1.2,1.88-1.81a.62.62,0,0,0,.18-.36,3.47,3.47,0,0,0-.27-1.65,8.52,8.52,0,0,1-.26-.86c0-.12,0-.25-.08-.36-.2-.44-.42-.88-.64-1.31a.28.28,0,0,1,0-.09,2.61,2.61,0,0,0-.48-1.31,2.57,2.57,0,0,0-.38-.49.3.3,0,0,0-.29.06c-.12.11-.19.28-.31.4-.69.71-1.37,1.42-2.08,2.1s-1.23,1-1.84,1.57h0l-.71.62a.68.68,0,0,0-.24.74c.11.36.22.72.3,1.09a11.37,11.37,0,0,1,.17,1.17C86.82,162.66,86.76,162.89,86.79,163.11Z"/><path class="cls-1" d="M64.25,167.91l.1.1c0-.07.07-.14.11-.22a.45.45,0,0,0,0-.32,13.94,13.94,0,0,0-1.6-2.28c-.28-.38-.65-.71-1-1.06-.12-.13-.21-.29-.34-.41s-.29-.17-.43-.27a.44.44,0,0,0-.65.08c-.33.4-.66.8-1,1.21-.49.68-1,1.37-1.42,2.06a.35.35,0,0,1,0,.08c1.94.66,3.9,1.27,5.91,1.79C64.05,168.43,64.14,168.18,64.25,167.91Z"/><path class="cls-1" d="M117.19,87.46c-.32.35-.56.79-.85,1.17s-.42.51-.64.76c-.42.43-.85.85-1.26,1.3-.12.13,0,.28.1.39s.53.45.8.66l1.12.79a1.28,1.28,0,0,1,.23.14c.21.17.39.22.58,0s.25-.12.37,0a5.81,5.81,0,0,0,.49.5,12.7,12.7,0,0,0,1.13.84c.43.28.47.26.88-.06.63-.49,1.27-1,1.88-1.48s.89-.82,1.33-1.23l0,0,2.4-2.28a.58.58,0,0,0,0-.82c-.18-.16-.3-.4-.59-.37-.2-.37-.65-.29-.92-.57a7.94,7.94,0,0,0-1.36-1l-.49-.32h-3.21l-.79.6A10.77,10.77,0,0,0,117.19,87.46Z"/><path class="cls-1" d="M97,112.89c.12-.15.25-.12.37,0a5.9,5.9,0,0,0,.49.51,13,13,0,0,0,1.12.83c.43.28.48.26.88-.06.63-.48,1.27-1,1.89-1.47.46-.39.89-.82,1.33-1.24l0,0,2.4-2.28a.6.6,0,0,0,0-.83c-.17-.16-.3-.4-.59-.37-.19-.36-.64-.28-.92-.57a9.08,9.08,0,0,0-1.35-1c-.42-.29-.84-.57-1.28-.82a9.4,9.4,0,0,0-1-.51.15.15,0,0,0-.14,0c-.7.53-1.39,1.05-2.07,1.59a9.85,9.85,0,0,0-1.19,1c-.33.36-.56.79-.86,1.18a7.47,7.47,0,0,1-.64.75c-.41.44-.85.86-1.25,1.3-.13.14,0,.29.1.39s.52.45.8.66l1.12.79c.07,0,.16.08.23.14S96.84,113.13,97,112.89Z"/><path class="cls-1" d="M89.51,95.29l-.31.51a1.47,1.47,0,0,1-.14.28c-.15.26-.32.53-.48.79s-.26.44-.38.66c-.48.85-.93,1.71-1.38,2.57a7.22,7.22,0,0,0-.32.79.5.5,0,0,1-.1-.11l-.12.23a.46.46,0,0,0,0,.32,13.28,13.28,0,0,0,1.6,2.27,13.84,13.84,0,0,0,1,1.07,4.39,4.39,0,0,0,.33.4c.13.11.3.18.44.28a.44.44,0,0,0,.65-.08c.32-.4.65-.8,1-1.22.48-.67.94-1.37,1.41-2s.79-1.15,1.15-1.74c.15-.25.39-.5.29-.83a8.93,8.93,0,0,0-.35-.85l-.06-.06a1,1,0,0,1-.39-.62,2.85,2.85,0,0,0-.36-.72c-.19-.26-.43-.48-.64-.73a.69.69,0,0,0-.49-.3.54.54,0,0,1-.51-.45,2.29,2.29,0,0,0-.39-.76,5.49,5.49,0,0,0-.61-.57l0-.06c-.09,0-.22-.11-.28-.08s-.29.21-.27.28v0c.09.11.16.25,0,.39A2.45,2.45,0,0,0,89.51,95.29Z"/><path class="cls-1" d="M68.92,86.63l.67.38a1.3,1.3,0,0,1,.22.19c.08.07.16.16.25.23l.48.35c.11.08.21.18.32.25s.38.19.56.3a.75.75,0,0,0,.91-.18c.28-.38.59-.73.87-1.11s.59-.81.87-1.23H68.82a.27.27,0,0,1,0,.16A.55.55,0,0,0,68.92,86.63Z"/><path class="cls-1" d="M78.08,87.74c-.61.62-1.26,1.21-1.88,1.82a.62.62,0,0,0-.18.36,3.49,3.49,0,0,0,.27,1.65,7.8,7.8,0,0,1,.26.86c0,.12,0,.25.08.36.21.44.42.87.64,1.31a.25.25,0,0,1,0,.08,2.61,2.61,0,0,0,.48,1.32,2.57,2.57,0,0,0,.38.49s.23,0,.29-.06.19-.28.31-.4c.69-.71,1.37-1.42,2.08-2.1s1.23-1.05,1.84-1.57h0l.71-.63a.66.66,0,0,0,.24-.73c-.11-.36-.22-.72-.3-1.09a11.37,11.37,0,0,1-.17-1.17c0-.22,0-.45,0-.67-.06-.46-.15-.93-.23-1.39,0-.12,0-.24-.07-.36H80l-.06.06C79.28,86.48,78.7,87.13,78.08,87.74Z"/><path class="cls-1" d="M99,93.62c0,.28.25.4.39.59a4.62,4.62,0,0,1,.64.85,1.19,1.19,0,0,0,.51.61,1.3,1.3,0,0,0,.67.18,3.43,3.43,0,0,0,.8-.32c.1,0,.24-.06.3-.14.19-.27.51-.31.78-.43a3.81,3.81,0,0,0,1-.68c.24-.23.44-.5.68-.73.74-.75,1.48-1.51,2.25-2.24a6.64,6.64,0,0,1,.9-.68A.44.44,0,0,0,108,90a5.94,5.94,0,0,1-.56-.68c-.2-.26-.37-.54-.56-.8-.34-.44-.7-.87-1-1.32a.51.51,0,0,0-.69-.15,10.37,10.37,0,0,1-1.25.72,7.13,7.13,0,0,0-2.18,1.54,2.83,2.83,0,0,1-.25.24c-.29.28-.59.55-.87.83s-.27.35-.43.49c-.45.39-.91.75-1.37,1.12a.3.3,0,0,0,0,.49.3.3,0,0,1,0,.1c0,.12.05.24.06.29a3,3,0,0,0-.07.44C98.88,93.39,99,93.5,99,93.62Z"/><path class="cls-1" d="M90.16,86.4c.08,0,.12.15.16.24.18.39.35.8.55,1.19a.68.68,0,0,0,.83.38A6.49,6.49,0,0,0,94,87.15a13.27,13.27,0,0,0,1.47-1.34H89.58A1.81,1.81,0,0,0,90.16,86.4Z"/><path class="cls-1" d="M115,99a4.83,4.83,0,0,1,.76-.59,7.09,7.09,0,0,1,.82-.39,2.37,2.37,0,0,0-.5-.39c-.49-.16-1-.25-1.5-.42a4.39,4.39,0,0,0-1.69-.13,1.69,1.69,0,0,1-1,0,3,3,0,0,0-.8-.17.71.71,0,0,0-.44,0c-.16.12-.29.07-.44.05l-.22,0a.82.82,0,0,0-.65.37c-.46.56-1,1.07-1.44,1.62-.16.17-.26.39-.41.56-.58.64-1.19,1.25-1.75,1.9a13.57,13.57,0,0,0-.8,1.18.33.33,0,0,1,.06.2c0,.11,0,.26.11.33a1.32,1.32,0,0,0,.38.16v0l.16.06.73.11c.12,0,.27.06.32.14s.26.09.39.1a3.85,3.85,0,0,0,.48,0,1.27,1.27,0,0,0,.44-.07.9.9,0,0,1,.6-.13c.1,0,.21-.09.32-.12s.24-.07.29,0a.59.59,0,0,0,.54.13,1.34,1.34,0,0,1,.4,0,1,1,0,0,0,1-.43c.65-.71,1.3-1.42,2-2.12S114.39,99.6,115,99Z"/><path class="cls-1" d="M153,86.76c.14.35.23.72.34,1.08,0,0,0,.13,0,.16.43.42.46,1,.73,1.53a3.12,3.12,0,0,0,.63,1.07s0,.12,0,.18a1.22,1.22,0,0,0,.61.85c.4.11.69-.18,1-.35a9.61,9.61,0,0,0,1-.89A21.34,21.34,0,0,1,159.22,89c.69-.45,1.44-.82,2.17-1.2.47-.24,1-.45,1.42-.69a.23.23,0,0,0,.12-.21,5.53,5.53,0,0,0-.33-.94l-.1-.19h-9.06l-.17.16A.75.75,0,0,0,153,86.76Z"/><path class="cls-1" d="M170,92.46a1.64,1.64,0,0,0-.6-.81s-.07-.05-.08-.09a1,1,0,0,0-.85-.53,4.92,4.92,0,0,0-.31.41c-.36.57-.71,1.14-1.06,1.72a27.67,27.67,0,0,1-2.4,3c-.48.59-1,1.17-1.44,1.77a.46.46,0,0,0-.1.36,9.75,9.75,0,0,0,.67,1.12c.29.41.63.79,1,1.17.13.14.32.34.46.33a.5.5,0,0,1,.59.39c.13.36.27.39.58.17a.61.61,0,0,1,.23-.07c.1.21.2,0,.29,0a3.1,3.1,0,0,1,.58-.39,2.57,2.57,0,0,0,1-.61c.19-.21.35-.52.59-.61.51-.18.74-.61,1.06-1h0c.26-1.71.45-3.45.61-5.19A8.7,8.7,0,0,1,170,92.46Z"/><path class="cls-1" d="M125.76,101.61a11.91,11.91,0,0,1,1.25-.72,7.13,7.13,0,0,0,2.18-1.54,2.83,2.83,0,0,1,.25-.24l.88-.83c.15-.15.26-.35.42-.49.45-.39.91-.75,1.37-1.12a.3.3,0,0,0,0-.49s0-.07-.05-.1,0-.24,0-.29a2.84,2.84,0,0,0,.06-.44c0-.12-.08-.23-.09-.35,0-.28-.25-.4-.39-.59a5.11,5.11,0,0,1-.64-.85,1.19,1.19,0,0,0-.51-.61,1.3,1.3,0,0,0-.67-.18,3.43,3.43,0,0,0-.8.32c-.1,0-.24.06-.3.14-.19.27-.51.31-.78.43a3.81,3.81,0,0,0-1,.68c-.24.23-.44.5-.67.73-.75.75-1.49,1.51-2.26,2.24a6.64,6.64,0,0,1-.9.68.43.43,0,0,0-.06.67c.2.21.38.45.56.68s.36.54.55.8c.34.44.7.87,1,1.32A.5.5,0,0,0,125.76,101.61Z"/><path class="cls-1" d="M161.7,124.39a3.24,3.24,0,0,0-.6-.45,3.05,3.05,0,0,0-1.16-.45c-.15,0-.29-.11-.2-.27s0-.32-.09-.45a2.57,2.57,0,0,0-.33-.33h0a6.1,6.1,0,0,0-.46-.41c-.54-.41-1.09-.83-1.65-1.22a1.2,1.2,0,0,0-.56-.23c-.08,0-.19.21-.27.34-.38.66-.75,1.33-1.12,2-.16.29-.29.6-.47.87-.27.42-.57.82-.86,1.24s-.5.73-.77,1.08-.47.56-.68.86-.18.35-.3.52a.44.44,0,0,0,0,.58,5,5,0,0,0,.73.56l.1.07c.13.16.25.33.39.49a3.89,3.89,0,0,0,.43.39c.26.18.53.34.81.5s.18.21.08.36a.53.53,0,0,0,.14.65c.22.13.45.25.67.39a1.92,1.92,0,0,1,.22.18,2.61,2.61,0,0,0,.25.23c.16.13.33.23.49.35s.2.18.31.25a3.35,3.35,0,0,0,.37.2,82.81,82.81,0,0,0,4.51-7.75.33.33,0,0,1,0-.23A.35.35,0,0,0,161.7,124.39Z"/><path class="cls-1" d="M132.79,107c.13.35.23.72.34,1.08,0,.06,0,.13,0,.16.43.43.45,1,.72,1.54a3.2,3.2,0,0,0,.64,1.06.32.32,0,0,1,0,.18,1.19,1.19,0,0,0,.61.85c.39.11.69-.18,1-.35a9.6,9.6,0,0,0,1-.88,20.81,20.81,0,0,1,1.77-1.36c.7-.44,1.45-.81,2.18-1.2.46-.24.95-.45,1.42-.68.06,0,.14-.16.12-.21a6.16,6.16,0,0,0-.33-.94c-.27-.55-.57-1.08-.86-1.62a2.66,2.66,0,0,0-.92-1.18c-.07,0-.11-.15-.15-.23-.19-.4-.35-.8-.55-1.19a.7.7,0,0,0-.84-.39,6.29,6.29,0,0,0-2.28,1.07,16.35,16.35,0,0,0-1.79,1.65L133,106.21A.74.74,0,0,0,132.79,107Z"/><path class="cls-1" d="M146.22,121.72a.49.49,0,0,1,.22-.08c.11.21.21.06.29,0a2.74,2.74,0,0,1,.59-.39,2.56,2.56,0,0,0,1-.62c.2-.21.35-.52.59-.6.52-.18.75-.62,1.06-1,.47-.53.89-1.09,1.34-1.64a.82.82,0,0,0,.22-.91c-.11-.23-.21-.46-.34-.68a.44.44,0,0,1,0-.48.58.58,0,0,0,.06-.42,7.18,7.18,0,0,0-.56-1,10.39,10.39,0,0,1-.86-1.26,1.8,1.8,0,0,0-.6-.81.24.24,0,0,1-.09-.08,1,1,0,0,0-.84-.53,5.09,5.09,0,0,0-.32.4c-.35.57-.71,1.15-1,1.73a27.65,27.65,0,0,1-2.41,3c-.47.59-1,1.17-1.43,1.77a.43.43,0,0,0-.1.36,9.8,9.8,0,0,0,.66,1.13c.3.4.63.79,1,1.16.12.14.31.35.46.34a.48.48,0,0,1,.58.38C145.76,121.9,145.9,121.93,146.22,121.72Z"/><path class="cls-1" d="M138.08,87.86c-.39.57-.79,1.14-1.14,1.74-.15.24-.4.5-.29.83a8.76,8.76,0,0,0,.35.84.1.1,0,0,0,.05.06,1,1,0,0,1,.4.63,2.56,2.56,0,0,0,.36.72c.18.26.43.47.63.72a.73.73,0,0,0,.5.3.53.53,0,0,1,.5.45,2.41,2.41,0,0,0,.4.76,4.15,4.15,0,0,0,.61.57l0,.06c.09,0,.21.12.27.09s.3-.22.28-.29,0,0,0,0-.17-.24,0-.39a3.19,3.19,0,0,0,.31-.33l.3-.52c0-.09.09-.19.14-.28.16-.26.32-.52.49-.78l.38-.67c.47-.85.92-1.7,1.37-2.56.13-.25.21-.52.33-.8l.1.11c0-.07.07-.15.11-.22a.44.44,0,0,0,0-.32,13.94,13.94,0,0,0-1.6-2.28,5.46,5.46,0,0,0-.38-.44h-3C139,86.48,138.55,87.17,138.08,87.86Z"/><path class="cls-1" d="M158.92,114.39c.55.42,1.1.83,1.66,1.23a1.26,1.26,0,0,0,.56.23c.08,0,.19-.22.26-.35.38-.66.76-1.32,1.13-2,.16-.28.28-.59.46-.87s.58-.82.87-1.23.5-.73.76-1.09.47-.56.69-.85.18-.36.29-.52a.45.45,0,0,0,0-.59,8.11,8.11,0,0,0-.72-.56l-.1-.07c-.13-.16-.26-.33-.4-.48a2.72,2.72,0,0,0-.43-.4c-.25-.18-.53-.33-.8-.49s-.18-.21-.08-.37a.54.54,0,0,0-.14-.65l-.67-.38a1.37,1.37,0,0,1-.23-.19l-.24-.23-.49-.35a3.92,3.92,0,0,0-.32-.25c-.18-.11-.38-.19-.56-.31a.75.75,0,0,0-.9.19c-.28.38-.6.73-.87,1.11-.41.56-.83,1.11-1.18,1.7s-.5,1-.77,1.53c-.43.78-.88,1.56-1.33,2.34a.25.25,0,0,0,0,.34,3.73,3.73,0,0,0,.52.46.31.31,0,0,1,.15.43.36.36,0,0,0,.06.3,3.36,3.36,0,0,0,.6.45,3.16,3.16,0,0,0,1.16.45c.14,0,.28.11.2.27a.34.34,0,0,0,.08.44c.1.12.22.23.33.34h0C158.62,114.12,158.76,114.27,158.92,114.39Z"/><path class="cls-1" d="M154.54,100.3a.67.67,0,0,0,.19-.36,3.58,3.58,0,0,0-.28-1.65,8.52,8.52,0,0,1-.26-.86,2.21,2.21,0,0,0-.08-.37c-.2-.44-.42-.87-.63-1.31a.19.19,0,0,1,0-.08,2.46,2.46,0,0,0-.48-1.31,2.23,2.23,0,0,0-.37-.5s-.23,0-.3.06-.18.29-.3.41c-.69.7-1.37,1.42-2.09,2.09s-1.22,1-1.83,1.58h0l-.7.62a.68.68,0,0,0-.24.74c.1.36.22.72.29,1.08a11.78,11.78,0,0,1,.17,1.17c0,.22,0,.45,0,.67.06.47.14.93.23,1.39s.19,1,.29,1.5c0,.06.06.16.11.17a1.58,1.58,0,0,0,1.32-.26,11.34,11.34,0,0,0,1.29-1.1c.62-.61,1.2-1.27,1.81-1.88S153.92,100.91,154.54,100.3Z"/><path class="cls-1" d="M103.25,119.59c.2.26.36.54.56.79.33.45.69.87,1,1.32a.5.5,0,0,0,.69.16,13,13,0,0,1,1.24-.73,7,7,0,0,0,2.18-1.54l.25-.24c.3-.27.6-.54.88-.83s.27-.35.43-.49l1.36-1.12a.29.29,0,0,0,0-.48.22.22,0,0,1,0-.11l-.05-.29a3,3,0,0,0,.07-.44,3.58,3.58,0,0,1-.09-.35c0-.28-.26-.4-.4-.59a5,5,0,0,1-.63-.84,1.09,1.09,0,0,0-.52-.61,1.16,1.16,0,0,0-.66-.18,2.91,2.91,0,0,0-.81.32c-.1,0-.24.06-.29.13a1.7,1.7,0,0,1-.78.44,3.47,3.47,0,0,0-1,.68c-.24.22-.45.49-.68.73-.74.75-1.49,1.5-2.25,2.23a5.91,5.91,0,0,1-.9.68.45.45,0,0,0-.07.68A4.6,4.6,0,0,1,103.25,119.59Z"/><path class="cls-1" d="M134.67,151.32l.67.38a1.3,1.3,0,0,1,.22.19c.08.07.16.16.25.23l.48.35c.11.08.21.18.32.25s.38.2.56.31a.75.75,0,0,0,.9-.19c.29-.38.6-.73.87-1.11.41-.56.83-1.11,1.19-1.7s.49-1,.76-1.52c.43-.79.89-1.57,1.34-2.35a.25.25,0,0,0,0-.33,3.3,3.3,0,0,0-.52-.47.31.31,0,0,1-.15-.43.33.33,0,0,0-.06-.3,3.36,3.36,0,0,0-.6-.45,3.16,3.16,0,0,0-1.16-.45c-.14,0-.28-.11-.19-.27a.36.36,0,0,0-.09-.44c-.1-.12-.22-.23-.33-.34h0c-.15-.13-.3-.28-.46-.4q-.82-.63-1.65-1.23a1.21,1.21,0,0,0-.57-.22c-.07,0-.19.21-.26.34-.38.66-.76,1.32-1.13,2-.16.28-.28.59-.46.87s-.58.82-.87,1.23-.5.73-.76,1.09-.47.56-.69.85-.18.36-.29.52a.45.45,0,0,0,0,.59,8.11,8.11,0,0,0,.72.56.36.36,0,0,1,.1.07c.14.16.26.33.4.48a2.72,2.72,0,0,0,.43.4c.26.18.53.33.8.49s.18.21.08.37A.53.53,0,0,0,134.67,151.32Z"/><path class="cls-1" d="M114.33,131.27a1.2,1.2,0,0,0,.6.85c.4.11.69-.18,1-.35a8.74,8.74,0,0,0,1-.89c.59-.46,1.16-.95,1.78-1.35s1.44-.82,2.17-1.2c.47-.25.95-.45,1.42-.69a.23.23,0,0,0,.12-.21,5.24,5.24,0,0,0-.33-.94c-.26-.55-.56-1.08-.85-1.61a2.68,2.68,0,0,0-.92-1.18.51.51,0,0,1-.16-.24c-.18-.39-.35-.8-.55-1.19a.67.67,0,0,0-.83-.38,6.32,6.32,0,0,0-2.29,1.06,18.41,18.41,0,0,0-1.78,1.65l-2,1.86a.75.75,0,0,0-.24.79c.14.35.23.71.34,1.08,0,0,0,.12,0,.16.43.42.46,1,.73,1.53a3.32,3.32,0,0,0,.63,1.07S114.32,131.2,114.33,131.27Z"/><path class="cls-1" d="M125.39,141.79c.13.36.27.39.58.17a.61.61,0,0,1,.23-.07c.1.21.2.05.29,0a3.47,3.47,0,0,1,.58-.39,2.48,2.48,0,0,0,1-.62c.19-.2.35-.51.59-.6.51-.18.74-.61,1.06-1,.47-.53.89-1.09,1.34-1.63a.83.83,0,0,0,.22-.91,7.18,7.18,0,0,0-.34-.68.44.44,0,0,1,0-.49.55.55,0,0,0,.05-.41,8.5,8.5,0,0,0-.55-1,10.29,10.29,0,0,1-.86-1.25,1.8,1.8,0,0,0-.61-.82.2.2,0,0,1-.08-.08,1,1,0,0,0-.85-.53,4.92,4.92,0,0,0-.31.41c-.36.57-.71,1.14-1,1.72a27.88,27.88,0,0,1-2.41,3c-.47.6-1,1.18-1.44,1.77a.49.49,0,0,0-.1.37,9.75,9.75,0,0,0,.67,1.12c.29.41.63.79,1,1.17.13.14.32.34.46.33A.49.49,0,0,1,125.39,141.79Z"/><path class="cls-1" d="M121,114.81l.31-.51a1.47,1.47,0,0,1,.14-.28c.15-.27.32-.53.48-.79l.39-.67c.47-.84.92-1.7,1.37-2.56a7.22,7.22,0,0,0,.32-.79.57.57,0,0,1,.11.11,2.4,2.4,0,0,1,.11-.23.41.41,0,0,0,0-.32,12.82,12.82,0,0,0-1.6-2.28c-.28-.38-.64-.7-1-1.06a4.23,4.23,0,0,0-.33-.41c-.13-.11-.3-.17-.44-.27a.43.43,0,0,0-.64.08c-.33.4-.66.8-1,1.22-.49.67-1,1.36-1.42,2s-.79,1.15-1.15,1.74c-.15.25-.39.5-.29.83s.23.57.35.85a.17.17,0,0,0,.06.06,1,1,0,0,1,.39.62,3.23,3.23,0,0,0,.36.72c.19.26.43.48.64.73a.68.68,0,0,0,.49.29.55.55,0,0,1,.51.45,2.43,2.43,0,0,0,.39.77,4.6,4.6,0,0,0,.61.56l0,.07c.1,0,.22.11.28.08s.29-.21.27-.28v-.06a.27.27,0,0,1,0-.39A1.93,1.93,0,0,0,121,114.81Z"/><path class="cls-1" d="M142.75,132.89c.27-.42.58-.82.87-1.24s.49-.73.76-1.08.47-.56.68-.85.19-.36.3-.53a.44.44,0,0,0,0-.58,5.56,5.56,0,0,0-.72-.56s-.08,0-.1-.07-.26-.33-.4-.49a2.66,2.66,0,0,0-.43-.39c-.26-.18-.53-.34-.8-.5s-.18-.21-.08-.36a.54.54,0,0,0-.15-.65c-.22-.13-.45-.25-.67-.39a1.92,1.92,0,0,1-.22-.18,1.79,1.79,0,0,0-.25-.23c-.16-.13-.33-.23-.49-.35a3.76,3.76,0,0,0-.31-.25c-.18-.11-.38-.2-.56-.31a.74.74,0,0,0-.91.19c-.28.37-.59.72-.87,1.1-.41.56-.82,1.12-1.18,1.71s-.49,1-.76,1.52c-.43.79-.89,1.57-1.34,2.34a.27.27,0,0,0,0,.34,4.69,4.69,0,0,0,.53.47c.18.12.23.22.15.42a.32.32,0,0,0,0,.3,3.61,3.61,0,0,0,.6.45,3.12,3.12,0,0,0,1.16.45c.15,0,.29.12.2.27s0,.32.09.45.22.22.33.33h0c.15.14.3.28.46.41.55.41,1.09.83,1.65,1.22a1.24,1.24,0,0,0,.56.23c.08,0,.19-.21.27-.34.38-.66.75-1.33,1.12-2C142.45,133.47,142.57,133.16,142.75,132.89Z"/><path class="cls-1" d="M134.3,120.54a.62.62,0,0,0,.18-.36,3.47,3.47,0,0,0-.27-1.65,8.52,8.52,0,0,1-.26-.86c0-.12,0-.25-.08-.36-.2-.44-.42-.88-.64-1.31a.28.28,0,0,1,0-.09,2.61,2.61,0,0,0-.48-1.31,2.57,2.57,0,0,0-.38-.49s-.23,0-.29.06-.19.28-.31.4c-.69.71-1.37,1.42-2.08,2.1s-1.23,1-1.84,1.57h0l-.71.62a.7.7,0,0,0-.24.74c.11.36.22.72.3,1.08s.13.79.17,1.18c0,.22,0,.45,0,.67.06.46.15.92.23,1.39s.19,1,.29,1.49c0,.07.07.16.12.17a1.53,1.53,0,0,0,1.31-.26,9.62,9.62,0,0,0,1.29-1.1c.62-.61,1.2-1.26,1.82-1.88S133.68,121.15,134.3,120.54Z"/><path class="cls-1" d="M153,135.84c-.13-.14-.32-.35-.47-.33a.49.49,0,0,1-.58-.39c-.13-.36-.27-.39-.59-.18a.49.49,0,0,1-.22.08c-.11-.21-.2-.05-.29,0a3,3,0,0,1-.58.39,2.59,2.59,0,0,0-1,.62c-.19.21-.35.52-.59.6-.51.18-.75.62-1.06,1-.47.52-.89,1.08-1.34,1.63a.82.82,0,0,0-.22.91c.11.23.21.46.34.68a.44.44,0,0,1,0,.48.57.57,0,0,0,0,.42,7.12,7.12,0,0,0,.55,1,10.39,10.39,0,0,1,.86,1.26,4.38,4.38,0,0,0,.24.43,86.76,86.76,0,0,0,6.06-7.18l-.12-.2C153.63,136.6,153.3,136.22,153,135.84Z"/><path class="cls-2" d="M82.15,76.33A1.48,1.48,0,0,0,82,76a2,2,0,0,0,.06-.7c-.07-.56-.17-1.11-.23-1.68,0-.35,0-.71,0-1.06-.1-.79-.25-1.56-.36-2.35s-.23-1.76-.32-2.64a1.51,1.51,0,0,0-.69-1.06,12.81,12.81,0,0,0-1.41-1c-1.1-.64-2.11-1.43-3.17-2.15a1.36,1.36,0,0,0-.42-.11,1.35,1.35,0,0,0-.06.48c.08.3.28.58.33.89.18,1.11.33,2.22.47,3.34a26.48,26.48,0,0,1,.41,4.79c0,.42.13.85.13,1.28,0,.67-.13,1.34-.13,2,0,1.39,0,2.78,0,4.17s0,2.55-.15,3.81q-.06.72-.15,1.44h5.87c.07-.69,0-1.39,0-2.09,0-1.13.08-2.25.11-3.37,0-.28,0-.55-.06-.83C82.19,78.19,82.18,77.26,82.15,76.33Z"/><path class="cls-2" d="M89.24,71.67a.24.24,0,0,0,.1-.14c0-.43.09-.86.11-1.29s0-1-.57-1.22a1.66,1.66,0,0,1-.72-.58c-.38-.63-1-.53-1.49-.6,0,.7,0,1.38,0,2s.18,1.56.22,2.34a13.34,13.34,0,0,1-.1,2.89c-.26,1.45-.2,3-.37,4.42-.15,1.28-.43,2.53-.65,3.8v0a15.43,15.43,0,0,1-.55,2h3.52c.17-.86.35-1.72.49-2.59.11-.65.13-1.32.2-2s.16-1.4.22-2.11c0-.33,0-.66,0-1a10.83,10.83,0,0,0,.12-1.5c-.06-1.09-.17-2.18-.29-3.27C89.47,72.54,89.34,72.13,89.24,71.67Z"/><path class="cls-2" d="M96.55,9.27c-.26.78-1,1.18-1.17,2.08s-.12,1.58-.3,2.35c-.11.44-.92,2.74-.92,2.74a2.23,2.23,0,0,0-.25.43c-.31,1.22-.62,2.43-.92,3.64a10.11,10.11,0,0,0-.48,2A5.06,5.06,0,0,1,92,24.64a1.21,1.21,0,0,0,0,.18c-.06.87-.12,1.73-.2,2.59,0,.57-.08,1.15-.17,1.71-.18,1.08-.39,2.15-.59,3.22-.13.73-.25,1.47-.4,2.2s-.38,1.52-.51,2.29-.25,1.83-.37,2.74c-.21,1.69-.43,3.37-.62,5.06-.14,1.24-.24,2.48-.34,3.72-.06.84-.09,1.69-.14,2.53s-.12,1.6-.16,2.4c0,.27,0,.54,0,.81,0,.77-.09,1.54-.07,2.32,0,1.31.1,2.63.19,3.94A13.46,13.46,0,0,1,88.79,62c0,.53.44.9.25,1.47-.31.92.43,1.61.81,2.32a16.9,16.9,0,0,1,1,1.76,4.71,4.71,0,0,0,.36.63,1.74,1.74,0,0,0,.06-1.77,1.14,1.14,0,0,1-.1-.45c-.06-.6-.09-1.21-.18-1.8,0-.26-.22-.5-.25-.75-.08-.85-.16-1.71-.18-2.56,0-1.52,0-3,0-4.6a3.05,3.05,0,0,1,.43,0c.38.09.57,0,.68-.43.41-1.61.88-3.2,1.3-4.81.54-2.12,1-4.25,1.57-6.36.12-.47.41-.9.52-1.38.31-1.41.56-2.83.85-4.25.19-1,.41-2,.61-2.92s.36-1.81.55-2.71.45-2.05.67-3.08A10.65,10.65,0,0,1,98,28.92c.35-1,.8-1.88,1.15-2.84s.7-2.17,1-3.26l.24-.76a53.43,53.43,0,0,0,2.19-5,24.71,24.71,0,0,1,1-2.78c.34-.89.75-1.75,1.13-2.63.52-1.2,1-2.41,1.55-3.6.2-.44.51-.83.75-1.27.52-1,1-1.93,1.54-2.9l.11,0a2.44,2.44,0,0,1-.06.26c-.5,1.31-1,2.6-1.5,3.93-.56,1.66-1.07,3.34-1.56,5-.2.69-.29,1.42-.47,2.12-.14.55-.37,1.08-.52,1.64s-.21,1-.31,1.51c0,.2-.2.37-.28.58-.18.49-.34,1-.48,1.49-.46,1.63-.9,3.25-1.36,4.87-.37,1.25-.78,2.48-1.13,3.73-.16.57-.19,1.18-.36,1.74s-.46,1.11-.63,1.68c-.27.86-.48,1.74-.71,2.61-.09.34.27.85-.36,1,0,0,0,0,0,.08-.26.76-.5,1.51-.77,2.26-.49,1.38-1,2.74-1.47,4.14a34.74,34.74,0,0,0-1.31,4.74,37.39,37.39,0,0,1-1.52,6.37,9.79,9.79,0,0,1-.82,1.77,1.13,1.13,0,0,0,.32,1.65c.38.31.83.23,1.23.4a.46.46,0,0,0,.6-.2c.1-.13.32-.16.6-.29.21-.68.49-1.47.71-2.29.26-1,.52-2,.71-3,.27-1.42.41-2.86.72-4.27a30.4,30.4,0,0,1,1-3.34c.4-1.18.87-2.33,1.27-3.5.28-.83.49-1.68.75-2.51.52-1.7,1.09-3.39,1.58-5.11A18.38,18.38,0,0,1,103.66,30a19.32,19.32,0,0,0,1-2.55c.4-1.31.69-2.66,1.06-4s.85-2.7,1.22-4.06a71.37,71.37,0,0,1,2-7.35c.46-1.18.87-2.38,1.37-3.55.38-.91.89-1.76,1.3-2.65.19-.42.59-.8.37-1.34a.19.19,0,0,1,0-.18s0,0,0-.07c-2.44-.8-4.94-1.5-7.47-2.08a25.77,25.77,0,0,1-1.34,2.42,11.64,11.64,0,0,0-1.35,2.88c-.21.58-.47,1.14-.69,1.72-.38.93-.76,1.86-1.11,2.81-.27.72-.48,1.46-.72,2.19-.36,1.07-.75,2.12-1.09,3.2s-.71,2.38-1,3.58c-.09.33-.15.68-.22,1,0,.08-.08.12-.11.2-.3.8-.61,1.6-.88,2.41-.16.47-.26,1-.38,1.46l-.21.9,0,.2a7.81,7.81,0,0,0-.35,1c-.22,1.12-.38,2.25-.61,3.37-.32,1.55-.69,3.08-1,4.62-.16.77-.23,1.55-.4,2.32-.21,1-.51,1.91-.71,2.87a5.17,5.17,0,0,1-.82,2,1.88,1.88,0,0,1,0-.41,3.77,3.77,0,0,0,0-1.21,2.49,2.49,0,0,1-.09-1.5c.16-.66.36-1.31.49-2,.24-1.24.44-2.49.64-3.74.15-.87.27-1.74.42-2.61.29-1.71.6-3.43.89-5.15a4.68,4.68,0,0,0,0-.84,4.92,4.92,0,0,1,0-.94c.15-.68.37-1.35.57-2q.67-2.34,1.36-4.68c.23-.82.47-1.64.7-2.47s.5-1.93.81-2.88a3.29,3.29,0,0,1,.62-1.41,4.22,4.22,0,0,0,.49-1.23c.34-.83.66-1.67,1-2.48s.83-1.66,1.25-2.49l.78-1.52c.32.22.62-.41.62-.41.12-.33.34-.68,0-1.06-.07-.07,0-.31.05-.45l.09-.2c-.86-.17-1.73-.32-2.6-.47-.49,1.12-1,2.22-1.56,3.3-.22.43-.58.88-.42,1.45,0,.07-.13.2-.14.27C97.42,6.92,96.55,9.27,96.55,9.27Z"/><path class="cls-2" d="M83.17,27c-.45.1-.59,1.09-.55,1.2s.17.22.2.38,0,0,0,.06c0,.23-.17.43-.18.66s.15.77.18,1.11c0,.49-.31.76-.19,1.33s.57.82.11,1.35c0,.3.58.16.57.36s-.57.15-.62.38c.14.7.71.63.37,1.45-.25.61-.18.81.3,1.26-.11-.11-.37.85-.37,1,0,.48.15.94.16,1.42s.32.87,0,1.32c-.09.12,0,.38,0,.56a3,3,0,0,0,2.65,2c.38,0,.47-.07.41-.45-.15-.83-.27-1.66-.37-2.5-.23-1.86-.46-3.71-.67-5.57-.08-.64-.12-1.28-.14-1.92,0-.45.06-.89.06-1.34S85,30.21,85,29.75a.84.84,0,0,0,.07-.27c0-.83,0-1.66,0-2.5,0-.36.2-.74.12-1.07a3.54,3.54,0,0,1,.08-1.85,14.87,14.87,0,0,0,.29-2.69c0-.52.11-1,.17-1.57l.66.16c.39.08.65,0,.78-.44.22-.73.54-1.42.77-2.13.08-.24,0-.54.06-.78a9.4,9.4,0,0,1,.5-1.07c.2-.42.38-.85.59-1.26s.39-.62.56-.94c.3-.62.53-1.27.88-1.86.49-.84,1.06-1.64,1.58-2.47.27-.41.51-.84.77-1.25s.71-1,1-1.55.65-1,1-1.56a14,14,0,0,0,1-1.43c.39-.79.8-1.59,1.17-2.4C95.5.59,93.81.41,92.1.28c-.1.23-.2.46-.29.69A3.64,3.64,0,0,1,90.48,2.8a.72.72,0,0,0-.14.19c-.61.91-1.22,1.84-1.85,2.74-.27.39-.59.75-.89,1.12h-.1c0-.59.07-1.19.16-1.78.15-1,.32-1.93.51-2.89.08-.39.24-.75.34-1.13s.19-.64.28-1C87.71,0,86.63,0,85.54,0c-.13.71-.26,1.41-.38,2.12s-.21,1.3-.33,2q-.58,3.22-1.18,6.45a1.39,1.39,0,0,1-.2.66c-.38.44-.22,1-.26,1.44s.08,1.19.1,1.78c0,.22,0,.56-.12.64-.34.21-.28.54-.3.8-.08.91-.07,1.82-.1,2.73s-.08,1.74-.1,2.61c0,.26,0,.52.06.77,0,.4,0,.8,0,1.19a1.25,1.25,0,0,1,0,.43c0,.09,0,.19,0,.28-.06.67-.19,1.35-.19,2C82.53,26.27,83.21,26.68,83.17,27Z"/><path class="cls-2" d="M109.28,34c-.43,1.45-1,2.87-1.46,4.32-.55,1.66-1.11,3.32-1.61,5-.24.81-.32,1.65-.49,2.48-.08.4-.21.79-.26,1.19-.21,1.53-.39,3.06-.59,4.59-.09.73-.18,1.47-.28,2.21s-.14,1.4-.29,2.08c-.21.88-.51,1.74-.76,2.61s-.53,1.85-.73,2.79c-.26,1.15-.47,2.32-.67,3.48-.1.66-.13,1.33-.19,2s-.16,1.4-.23,2.1c0,.33,0,.67,0,1a12.63,12.63,0,0,0-.12,1.5c.06,1.09.18,2.18.3,3.27a15.57,15.57,0,0,1,.06,2.73c0,.5,0,1,.58,1.22a1.69,1.69,0,0,1,.71.58c.38.63,1,.53,1.49.59,0-.7,0-1.37,0-2s-.19-1.55-.22-2.33a12.83,12.83,0,0,1,.1-2.9c.25-1.45.19-3,.36-4.41.15-1.28.43-2.53.66-3.8a39.84,39.84,0,0,0,1.55-5.59,3.53,3.53,0,0,1,.15-1.21c.15-.33.47-.53.63-.87a7,7,0,0,0,.35-1.58c.18-1.16.34-2.32.49-3.49a25.62,25.62,0,0,1,.35-2.79,11,11,0,0,1,.88-3.14,15,15,0,0,0,.69-2.18c.42-1,.94-2,1.38-3.08.16-.36.29-.7.78-.78a2,2,0,0,1,.15.7,6,6,0,0,1-.32.9c-.3,1-.64,1.92-.89,2.9-.39,1.56-.78,3.12-1.06,4.7-.24,1.39-.35,2.8-.49,4.2s-.27,3-.39,4.51c0,.65,0,1.32-.1,2s-.29,1.43-.42,2.15a16.11,16.11,0,0,0-.13,2.69c0,1.12-.08,2.25-.1,3.37,0,.27.05.55.06.82,0,.94,0,1.87.07,2.8a1,1,0,0,0,.16.36,1.67,1.67,0,0,0-.06.7c.06.57.16,1.12.22,1.68,0,.36,0,.72,0,1.07.1.78.25,1.56.36,2.34s.23,1.77.33,2.65A1.5,1.5,0,0,0,111,81.1a12.93,12.93,0,0,0,1.42,1c1.1.63,2.11,1.43,3.16,2.15a1.8,1.8,0,0,0,.43.11,1.33,1.33,0,0,0,0-.48,9.44,9.44,0,0,1-.32-.89c-.18-1.11-.34-2.23-.47-3.34a26.49,26.49,0,0,1-.42-4.79c0-.42-.13-.86-.12-1.28,0-.67.12-1.34.13-2,0-1.39,0-2.78,0-4.17s0-2.54.14-3.8.28-2.37.42-3.55c.07-.54.12-1.08.2-1.61.16-.94.37-1.87.5-2.81s.13-2,.31-3c.27-1.48.65-3,1-4.42,0-.07.05-.15.08-.23.17-.55.37-1.1.5-1.67.27-1.17.49-2.36.74-3.53,0-.09.11-.16.14-.24l.54-1.46a2.63,2.63,0,0,1,.22-.55,4,4,0,0,0,.62-1.68,4.57,4.57,0,0,1,.28-1.34c.16-.33.38-.6.3-1a1,1,0,0,1,.12-.52c.24-.58.52-1.14.75-1.72a7.74,7.74,0,0,0,.28-1.05c.07-.26.3-.51.08-.73.09-.14.26-.35.24-.37-.4-.41.1-.69.18-1,.15-.63.58-1.2.72-1.83s.52-1.25.19-1.93c0,0,0-.12.09-.16.42-.39.48-.7.22-1.11.13-.13.32-.24.35-.38a4.08,4.08,0,0,0,.17-1.53,4.22,4.22,0,0,1,.19-1.94,9.68,9.68,0,0,0,.67-3.37,11.81,11.81,0,0,1,.88-3.86c.26-.88.59-1.74.86-2.61.15-.48.3-1,.47-1.42-1.71-1-3.45-1.88-5.24-2.73-.31,1-.62,1.92-.88,2.89a12.76,12.76,0,0,1-1.9,3.43q-.36.57-.75,1.11c-.35.51-.7,1-1.06,1.51s-1,1.2-1.4,1.85c-.58.94-1.07,1.92-1.59,2.9-.65,1.25-1.33,2.49-1.94,3.76-.4.83-.68,1.72-1.07,2.56A41.82,41.82,0,0,0,109.28,34Zm7.31-5.51c-.86,3.17-2,8.66-3.21,9.28C114.27,34.6,115.3,29.26,116.59,28.48Z"/><path class="cls-2" d="M145.1,43.6c-.5,1.78-.9,3.58-1.3,5.38-.48,2.18-.84,4.38-1.37,6.55-.36,1.48-1,2.89-1.36,4.36a29.29,29.29,0,0,1-1.69,5.52A62.19,62.19,0,0,0,137,71.53c-.65,1.86-1.12,3.78-1.76,5.65a29.89,29.89,0,0,1-1.59,4.61,29.1,29.1,0,0,0-1.27,2.72l-.4.9H136a1.7,1.7,0,0,0,.7-1.63c0-.12.06-.36.12-.37.46-.08.33-.59.61-.8,0,0,0-.21-.05-.31s-.11-.31,0-.4c.15-.26.43-.05.48-.46a2.55,2.55,0,0,0-.12-.67.63.63,0,0,1,.06-.52,4.64,4.64,0,0,0,.68-1.82,1.17,1.17,0,0,1,.08-.44A1.69,1.69,0,0,0,139,76.5c-.1-1.07.74-.8.87-1.84a4.55,4.55,0,0,0-.33-.9c-.2-.36.76-.43.76-1.23s.37-.47.37-1.4.7-1.11.54-1.94.42-.7.42-.7c1,.06.77-.56.86-1s.48-1,0-1.33c.17.14.92-2.49,1-2.69a5.11,5.11,0,0,1,.59-1.61,2.4,2.4,0,0,0,.36-1.77,11.39,11.39,0,0,0,.74-1.76,12.47,12.47,0,0,0,.67-2.9,13.91,13.91,0,0,1,.26-1.38c.05-.37,0-.76,0-1.13s.26-.76.34-1.15c.12-.61.13-1.26.31-1.85s.58-1.35.83-2c.31-.85.56-1.72.86-2.57a25.76,25.76,0,0,1,.76-2.51c.34-.7.51-1.48.83-2.19.64-1.43,1.31-2.86,2-4.26a1.47,1.47,0,0,0-.43-2.09c-.3-.21-.63-.37-1-.57a.48.48,0,0,0-.3-.79c-.34-.09-.82-.36-1.08.23s-.58,1.28-.89,1.9a24.79,24.79,0,0,0-1.45,2.8C146.24,39.72,145.65,41.65,145.1,43.6Z"/><path class="cls-2" d="M45.89,19.09c.7.46.54,1.13.64,1.71.35,2.07.55,4.17.94,6.23a36.92,36.92,0,0,0,1.07,3.54c.24.77.45,1.55.66,2.32.38,1.4.78,2.8,1.13,4.2.5,2,.93,4,1.44,6,.42,1.65.93,3.28,1.37,4.93a33.76,33.76,0,0,0,2.63,6.19A15.45,15.45,0,0,0,57.06,56c.43.63.82,1.29,1.24,1.93s.87,1.27,1.29,1.91.62,1,.94,1.54c.65,1,1.35,2,1.95,3,.43.73.72,1.53,1.09,2.29.2.4.47.77.68,1.17s.49,1,.73,1.54a11.3,11.3,0,0,1,.62,1.32c.1.3,0,.66.07,1,.29.88.68,1.73.94,2.62.17.57.49.65,1,.54l.82-.19c.07.65.15,1.29.21,1.93A18.14,18.14,0,0,0,69,79.88a4.39,4.39,0,0,1,.1,2.27c-.1.41.13.88.15,1.32,0,.65,0,1.3,0,1.94H72a1.24,1.24,0,0,0,0-1.85c.51-.38.4-1,.4-1.45,0-.83-.16-1.67-.24-2.5,0-.11,0-.23,0-.34a1.86,1.86,0,0,1,0-.52c0-.49,0-1,0-1.47,0-.32.08-.63.08-1,0-1.07-.08-2.14-.12-3.21s0-2.25-.12-3.37c0-.31,0-.73-.38-1-.15-.1-.16-.52-.15-.79a18,18,0,0,0,.12-2.2c0-.58.16-1.22-.31-1.77A1.72,1.72,0,0,1,71,63.2c-.49-2.65-1-5.29-1.46-7.94-.14-.8-.26-1.6-.39-2.4-.19-1.08-.37-2.17-.59-3.25-.07-.34-.28-.66-.38-1-.5-1.67-1-3.35-1.47-5-.3-1-.7-1.9-1-2.85-.15-.42-.25-.85-.37-1.28s-.32-1-.43-1.52-.23-1.22-.37-2a4.38,4.38,0,0,1,.66.48c.82.93,1.59,1.92,2.45,2.81A5.63,5.63,0,0,0,70,40.73c.41.14.72.57,1.1.84a2.31,2.31,0,0,0,1.39.41,14.61,14.61,0,0,1,.43,2.36,29.86,29.86,0,0,0,.64,3.37A11.52,11.52,0,0,0,74,49.58c.67,1.83,1.41,3.64,2.09,5.46a36.75,36.75,0,0,0,2.73,4.81,1.19,1.19,0,0,0,1.22.6,5.1,5.1,0,0,1,1.1.08c.9.13,1.47-.51,1.14-1.32-.23-.57-.5-1.12-.78-1.67a30.68,30.68,0,0,1-1.84-3.67,23,23,0,0,1-1.43-4.61,1.72,1.72,0,0,1,.22-1.09,1,1,0,0,0,.13-.57,17.54,17.54,0,0,1-.64-3,11.15,11.15,0,0,0-.37-1.43c-.1-.53-.09-1.09-.19-1.62-.31-1.55-.71-3.09-1-4.65s-.34-3.33-.53-5c-.14-1.27-.35-2.53-.49-3.8,0-.3.17-.62.17-.94a29.64,29.64,0,0,0-.07-3c-.09-1.08-.26-2.15-.44-3.22-.27-1.68-.57-3.36-.87-5-.24-1.37-.56-2.73-.75-4.1a29,29,0,0,1-.19-3.22c0-.57.13-1.14.16-1.71,0-.87,0-1.73,0-2.6,0-.43.1-.86.08-1.29s-.17-.7-.18-1.06A9,9,0,0,1,73.41.85c-1.8.26-3.58.55-5.34.91-.09,1.6-.15,3.2-.16,4.79A33.91,33.91,0,0,0,68.16,10c.15,1.52.35,3,.52,4.54.09.81.14,1.62.26,2.43a47.64,47.64,0,0,1,.93,7.24c0,.19,0,.38,0,.58a3.67,3.67,0,0,0-.57-.82C68,22.62,66.76,21.16,65.4,19.8a37.58,37.58,0,0,0-3.15-2.75,2.36,2.36,0,0,1-1-1.85L61,8.5c-.06-1.63-.13-3.26-.19-4.89-1.24.37-2.47.78-3.69,1.2,0,2.06.09,4.12.13,6.18,0,.51,0,1,0,1.52s-.22.5-.59.29c-1.33-.81-2.67-1.6-4-2.39a4.67,4.67,0,0,1-1-.66,2.24,2.24,0,0,1-.64-1.11q-.1-.64-.18-1.29c-2.19,1-4.34,2-6.42,3.17l.52.19a.92.92,0,0,1,.7.95c0,.56.12,1.13.14,1.7,0,.78,0,1.57,0,2.45a6.54,6.54,0,0,1-.64-.24c-1-.59-2.05-1.14-3-1.8-.52-.35-1-.67-1.58-1-.7.43-1.39.88-2.08,1.33.72.4,1.43.8,2.12,1.25C42.35,16.53,44.07,17.89,45.89,19.09Zm16.18,1.22a13.29,13.29,0,0,1,3.82,2.59c1,1,2,2.06,3.07,3a3,3,0,0,0,1,.46c.06.66.14,1.32.21,2,.2,1.76.47,3.52.71,5.27.17,1.21.33,2.42.51,3.63A14,14,0,0,0,70.27,36c-1.53-1.48-3.21-2.82-4.83-4.21-.37-.32-.75-.65-1.13-1s-.9-.74-.74-1.46c0-.16.1-.66-.42-.62-.07,0-.2-.3-.23-.47-.16-1.11-.33-2.21-.46-3.32-.18-1.42-.32-2.84-.47-4.26A1.66,1.66,0,0,1,62.07,20.31ZM59.35,30.69a7.6,7.6,0,0,1,.66,2c.3,1.23.55,2.48.81,3.72.3,1.4.58,2.8.89,4.2.09.37.26.72.37,1.09.26,1,.49,1.93.78,2.88.37,1.2.8,2.38,1.18,3.58s.64,2.24,1,3.36c.14.47.33.92.42,1.39.24,1.18.46,2.37.64,3.56.1.73.13,1.46.19,2.19h-.12c-.37-.46-.76-.89-1.1-1.37-.77-1.12-1.52-2.26-2.28-3.38a.86.86,0,0,0-.17-.24,4.46,4.46,0,0,1-1.64-2.25,8.81,8.81,0,0,0-.59-1.33c-.43-.69-.94-1.32-1.37-2a15.85,15.85,0,0,1-1.8-4.94c-.07-.27.06-.61,0-.85a9,9,0,0,1-.79-2.53c-.22-1.68-.71-3.33-1.05-5q-.57-2.74-1.08-5.52c-.2-1.06-.36-2.13-.54-3.19.16.08.22.28.3.29.51,0,.52,0,.7.19,1.14,1,2.29,1.92,3.42,2.9A5.27,5.27,0,0,1,59.35,30.69ZM52.49,14.42c1.53.77,3,1.54,4.55,2.36a1.22,1.22,0,0,1,.45.81c.22,1.48.41,3,.56,4.45.1.89.11,1.8.17,2.81a3.05,3.05,0,0,1-.7-.22c-.64-.44-1.28-.88-1.9-1.36-.81-.63-1.56-1.37-2.42-1.93a2.31,2.31,0,0,1-1.06-1.94c0-.52-.14-1-.2-1.55-.16-1.22-.3-2.45-.47-3.8A9.38,9.38,0,0,1,52.49,14.42Z"/><path class="cls-2" d="M32,26.28a5.27,5.27,0,0,1,.49.91c.63,1.06,1.27,2.12,1.91,3.17.53.86,1,1.73,1.62,2.55s1.18,1.51,1.74,2.28c.67.94,1.37,1.86,1.94,2.85,1,1.75,1.89,3.55,2.85,5.32.55,1,1.14,2,1.75,3,.08.12.37.11.56.19s.52.14.6.3c.92,1.88,1.8,3.78,2.67,5.67L49,54.91l1,1.88c.52,1,1.07,2,1.55,3.06s.86,2,1.27,3.06a5.24,5.24,0,0,0,.6,1.51,4.16,4.16,0,0,1,.77,1.74c.38,1.17.67,2.36,1,3.55.28,1,.57,2,.86,3l1.68,5.76c.24.82.51,1.64.7,2.48a5.63,5.63,0,0,1,0,1.16,6,6,0,0,0,0,1c.12.74.26,1.48.38,2.22h2.33c-.06-.47-.1-.94-.14-1.41-.09-1.06-.16-2.12-.24-3.19a.9.9,0,0,0-.06-.22A6.44,6.44,0,0,1,60.08,78a12.56,12.56,0,0,0-.59-2.44c-.37-1.5-.75-3-1.14-4.48a2.29,2.29,0,0,0-.3-.54c-.12-.61-.16-1.22-.31-1.82a2.54,2.54,0,0,0-.29-.84l-.14-.21c-.4-.56-.85-1.15-.54-1.91-.37-.18-.23-.4-.2-.71a1.62,1.62,0,0,0-.14-.86,11.93,11.93,0,0,0-.32-1.21,14.68,14.68,0,0,0-1-1.26,5.29,5.29,0,0,0-.05-1.09,6,6,0,0,0-.8-1.74c-.31-.62-.58-.83-.58-1.26a3.66,3.66,0,0,0-.51-1.79,66.75,66.75,0,0,1-3-6.62A36.32,36.32,0,0,0,48.42,45c-1-1.84-2.13-3.57-3.13-5.39s-2-4-3.08-5.9c-.65-1.15-1.52-2.18-2.27-3.28-.16-.23-.2-.56-.38-.78a10.24,10.24,0,0,0-.9-1c0-.05-.13-.08-.13-.11.08-.66-.5-.92-.81-1.33s-.81-1.05-1.18-1.6a4.38,4.38,0,0,1-.37-.79,13.55,13.55,0,0,0-2.67-3.79c-.59-.69-1.07-1.48-1.63-2.19-1.27,1-2.52,2.08-3.73,3.17.76.83,1.5,1.69,2.26,2.52C30.94,25.15,31.52,25.69,32,26.28Z"/><path class="cls-2" d="M27.32,34.28c1,1,1.67,2.28,2.63,3.32l2.57,3.79a22.86,22.86,0,0,1,2.68,4.75,24.93,24.93,0,0,0,1.47,2.92c.19.38.35.78.54,1.17s.39.76.55,1.15c.08.21.19.64.13.67-.83.42-.71,1.43-1.27,2a5.08,5.08,0,0,0-.38.53c-.21.3-.58.57-.23,1a.22.22,0,0,1,0,.22c-.26.67.23,1.14.46,1.65.5,1.11,1.13,2.15,1.61,3.26.61,1.44,1.12,2.92,1.68,4.38a85.84,85.84,0,0,1,2.51,9c.45,1.69,1,3.33,1.5,5s.82,3.29,1.31,4.92c.14.45.3.9.48,1.34h3.82c-.39-1.33-.82-2.65-1.2-4-.58-2-1.12-4-1.69-6-.17-.62-.37-1.23-.59-1.83a4.62,4.62,0,0,1-.34-.72c-.12-.62-.21-1.25-.38-1.86s-.47-1.34-.65-2c-.22-.86-.32-1.75-.57-2.6-.61-2.08-1.23-4.15-1.92-6.2-.56-1.63-1.23-3.22-1.85-4.84a1.65,1.65,0,0,1-.07-.32l.14-.06c.63,1.2,1.25,2.39,1.89,3.58.29.53.68,1,.93,1.56.66,1.47,1.27,3,1.9,4.43.47,1.08,1,2.14,1.4,3.24s.8,2.27,1.18,3.42,3,7.16,3,7.16c.43,1.34.81,2.69,1.29,4,.37,1,.83,2,1.23,3H57c0-.14,0-.28-.08-.43a9.8,9.8,0,0,0-.42-1.26,2.27,2.27,0,0,1-.06-.25c-.09-.37-.17-.74-.27-1.11-.14-.6-.26-1.21-.46-1.8-.33-1-.71-2-1.09-3,0-.09-.17-.14-.12-.24-.1-.42-.17-.84-.28-1.26-.42-1.47-.83-3-1.29-4.41s-.9-2.62-1.34-3.93c-.3-.9-.56-1.81-.89-2.7-.43-1.17-.9-2.31-1.36-3.47-.28-.7-.6-1.39-.85-2.11a14.56,14.56,0,0,0-1.67-3.55c-.8-1.17-1.35-2.52-2.08-3.75-.87-1.45-1.84-2.84-2.73-4.27s-1.62-2.71-2.48-4c-1.19-1.85-2.42-3.68-3.63-5.52l-1-1.48c-.23-.34-.48-.66-.72-1-.57-.79-1.13-1.6-1.73-2.38-.73-1-1.49-1.91-2.24-2.86-1.1-1.4-2.2-2.81-3.31-4.21a9.07,9.07,0,0,0-1.05-1.1A1,1,0,0,0,25,25c-.4.4-.78.82-1.18,1.23-.23.44-.47.87-.68,1.31-.12.24.1.31-.05.84a2.34,2.34,0,0,0,.51,1.72C24.83,31.52,26,33,27.32,34.28Z"/><path class="cls-2" d="M3.82,82.07c0,.46.1.92.11,1.38,0,.63,0,1.26,0,2H8.8c-.06-.45-.11-.91-.17-1.4a8.6,8.6,0,0,1,.83.3l2.15,1.1h5.07a2.31,2.31,0,0,1-.07-.47l-.24-5.44c-.07-1.75-.15-3.51-.21-5.26,0-1.49-.07-3-.1-4.49,0-2-.08-4.07-.06-6.11,0-.71,0-1.43.09-2.14a11.67,11.67,0,0,1,1.78,4c.34,1.07.74,2.13,1.06,3.21a11,11,0,0,1,.58,3.22c0,1.76.9,3.89,1.33,5.69A5.32,5.32,0,0,1,21.08,80a4.9,4.9,0,0,0,.2,1.88c0,.17.28.31.43.47-.32.5-.24.89.28,1.36.05.05.12.16.1.2a2,2,0,0,0,0,1.5h8.26c0-.07,0-.12.07-.13s.17,0,.28.13H37c-.06-.13-.11-.26-.18-.39-.48-1-.82-2.13-1.31-3.15s-1-2.08-1.59-3.12c-.35-.65-1.3-1.85-1.2-2.63-.79-.34-.33-1-.48-1.57-.07-.26-.41-.12-.47-.31s.17-.45.11-.63-.52-.64-.61-.88c-.16-.41-.06-.87-.27-1.32s-.62-.73-.8-1.24a8.18,8.18,0,0,0-.57-1.78,8.77,8.77,0,0,1-.94-1.55,2.14,2.14,0,0,1-.5-1.41c0-.89.36-1.6-.8-2.41s0-1.76-.44-2.35c-.25-.33-.26-1-.44-1.39-.44-1.1-1.37-2.16-1.71-3.36-.06-.19.08-.51,0-.78a6.81,6.81,0,0,0-.49-1,4.26,4.26,0,0,1-.61-1.6S23.88,51.36,23,51s-.09-1.07-1.07-2.32.54-1.15-.71-2.4-.18-1.87-1.6-2.76-.08-1.33-.75-1.78c-1-.68-.58-2.38-.78-3.59a36.11,36.11,0,0,1-.3-4.3c0-.19,0-.38,0-.57a87.49,87.49,0,0,0-6.07,9c.07.59.15,1.18.21,1.78s.18,1,.3,1.67a4.43,4.43,0,0,1-.61-.57l-.84-1.25c-1.06,1.91-2.05,3.87-3,5.86a.41.41,0,0,0,0,.09c.9,1.37,1.75,2.77,2.64,4.15.36.55.74,1.09,1.12,1.62l2.8,3.89c-.14.22-.3.44-.43.67a2.56,2.56,0,0,0-.23.74,11.07,11.07,0,0,0-.25,1.11c-.09.65-.15,1.31-.19,2-.07,1.37-.15,2.74-.18,4.12,0,1.16,0,2.32,0,3.48s0,2.45,0,3.67c0,2.08.09,4.16.13,6.23,0,.42,0,.83,0,1.24s-.18.41-.48.23L9.56,81.05a3.82,3.82,0,0,1-.85-.53,1.83,1.83,0,0,1-.52-.91c-.19-1.15-.32-2.32-.45-3.49-.09-.72-.15-1.45-.22-2.17a17.76,17.76,0,0,0-.6-3.76,10.45,10.45,0,0,1-.29-1.86c-.15-1.17-.27-2.34-.44-3.5-.23-1.58-.58-3.16-.72-4.75-.12-1.4,0-2.83,0-4.24,0-.16,0-.32,0-.49a85.51,85.51,0,0,0-3.53,12c.05.1.1.21.16.31a4.08,4.08,0,0,1,.31,1.71c.16,1.23.28,2.47.45,3.7s.38,2.26.57,3.38a.44.44,0,0,1,0,.1c.07.8-.11.92-.84.6s-1.4-.6-2.1-.89C.35,77.57.25,78.86.17,80.16L3.26,81.3A.74.74,0,0,1,3.82,82.07Z"/><path class="cls-2" d="M.23,85.41H3.87a2.25,2.25,0,0,1-.45-.17c-.82-.48-1.66-.92-2.44-1.46-.3-.2-.62-.39-.93-.58,0,.69,0,1.37,0,2.06Z"/><path class="cls-2" d="M31,53.92a22.81,22.81,0,0,1-.64-2.39c-.14-.7-.13-1.42-.2-2.13a6.64,6.64,0,0,0-1.34-3.81c-.26-.3-.84-.33-1.3-.5-.17.57-.29,1-.42,1.46,0,.1,0,.23-.1.28-.66.51-.19.92.09,1.38a5.5,5.5,0,0,1,.44,1.06c.18.51.36,1,.5,1.55s.26,1.19.4,1.78c.27,1.14.51,2.29.87,3.41.5,1.56,1.09,3.08,1.66,4.61a13.27,13.27,0,0,0,.7,1.53,1.06,1.06,0,0,0,1.39.36,1.28,1.28,0,0,0,.36-1.07c-.24-1-.63-1.88-.94-2.83C31.93,57.05,31.44,55.48,31,53.92Z"/><path class="cls-2" d="M62,7c.1,1.3,0,2.62.09,3.93,0,1,.13,2,.25,3a.76.76,0,0,0,.48.52,1.39,1.39,0,0,0,1.83-1.25c.08-.51.2-1,.29-1.52a1.7,1.7,0,0,0,0-.45,3.21,3.21,0,0,1-.11-.59c0-1.28.08-2.55.11-3.82a2.12,2.12,0,0,0-.11-1.08,5.33,5.33,0,0,1-.42-2.11,2,2,0,0,1,0-.85,1.38,1.38,0,0,0,0-.2c-1,.26-2,.55-3,.84,0,.19,0,.39.06.59C61.63,5,61.9,6,62,7Z"/><path class="cls-2" d="M150.65,51.57c-.35,1-.61,2.06-.93,3.09-.65,2.1-1.34,4.18-1.95,6.29a23.82,23.82,0,0,1-1.39,3.63,22.15,22.15,0,0,0-1.24,3.13c-.49,1.62-.85,3.28-1.31,4.91s-1.05,3.33-1.5,5c-.7,2.59-1.23,5.23-2.08,7.78H144c.25-.86.35-1.75.57-2.61.18-.68.47-1.34.65-2s.26-1.24.38-1.86a4.23,4.23,0,0,1,.34-.72c.22-.6.42-1.22.59-1.84.57-2,1.11-4,1.68-6,.45-1.53,1-3,1.39-4.58.2-.7.24-1.45.44-2.15s.57-1.36.78-2.06c.33-1.06.59-2.14.87-3.21.09-.32-.14-.68,0-1a6,6,0,0,0,.72-1.15c.22-.66.44-1.32.67-2,.6-1.7,1.27-3.38,1.81-5.1a41.32,41.32,0,0,0,1.61-5.83c.22-1.33.46-2.65.76-3.95q-1.2-1.89-2.51-3.7c-.18.74-.36,1.49-.5,2.24-.33,1.74-.5,3.52-.88,5.26a37.93,37.93,0,0,1-1.23,4.11C151.72,48.71,151.14,50.13,150.65,51.57Z"/><path class="cls-2" d="M101.39,83.37c.48-1.44-.68-2.5-1.26-3.61A25.64,25.64,0,0,1,98.53,77,8.12,8.12,0,0,0,98,76a2.65,2.65,0,0,0-.08,2.75,2.05,2.05,0,0,1,.15.72c.09.93.14,1.87.27,2.8,0,.4.35.76.39,1.16q.11,1,.18,2h2.9C101.69,84.72,101.12,84.17,101.39,83.37Z"/><path class="cls-2" d="M155.89,53.48c-.24,1.2-.51,2.4-.75,3.6s-.45,2.22-.68,3.33c-.27,1.27-.56,2.53-.83,3.8a11.87,11.87,0,0,1-.32,1.7c-.43,1.19-1,2.32-1.41,3.51s-.86,2.67-1.29,4a2.92,2.92,0,0,1-.45.88l-2.54,6.28c-.37,1.14-.75,2.29-1.19,3.42-.18.47-.38.94-.59,1.4h5.33l.45-1.38c.44-1.32.92-2.62,1.33-3.94s.88-2.93,1.3-4.41c.11-.41.18-.84.27-1.26,0-.09.1-.15.13-.24.38-1,.76-2,1.09-3,.2-.58.31-1.19.46-1.8.09-.37.18-.74.26-1.11a2.17,2.17,0,0,1,.07-.24,9.93,9.93,0,0,0,.42-1.27c.27-1.38.48-2.77.76-4.15.4-1.9.85-3.79,1.25-5.69.2-.94.29-1.91.5-2.85.26-1.19.62-2.35.87-3.54a6.22,6.22,0,0,1,1-2.4,2.11,2.11,0,0,1,0,.5,4.7,4.7,0,0,0,0,1.5,3.25,3.25,0,0,1,.11,1.85c-.2.8-.45,1.6-.6,2.42-.3,1.53-.54,3.07-.8,4.6-.18,1.07-.33,2.14-.51,3.21-.37,2.12-.75,4.23-1.1,6.35a5.88,5.88,0,0,0-.05,1,5.72,5.72,0,0,1,0,1.17c-.18.83-.45,1.65-.69,2.48L156.05,79c-.29,1-.58,2-.86,3s-.6,2.24-.94,3.34h2.43a1.15,1.15,0,0,0,.27-.75c0-.18.18-.37.27-.55a12.62,12.62,0,0,0,.86-2.82,2.77,2.77,0,0,0,.3-.54c.39-1.49.77-3,1.14-4.48a12.66,12.66,0,0,0,.59-2.45,6.47,6.47,0,0,1,.62-2.64.57.57,0,0,0,.07-.22c.08-1.06.15-2.13.24-3.19.06-.7.1-1.41.22-2.1.22-1.33.48-2.65.72-4,.17-.9.31-1.8.49-2.7s.47-1.88.63-2.83c.19-1.11.31-2.24.46-3.37l.18-1.46a84.67,84.67,0,0,0-5-9.67c-.4,1.63-.79,3.26-1.21,4.88-.15.58-.5,1.11-.63,1.69C156.55,50,156.24,51.73,155.89,53.48Z"/><path class="cls-2" d="M126.75,51.66a4.94,4.94,0,0,0-.76,2.07,5.58,5.58,0,0,1-.35,1.64c-.2.41-.47.74-.37,1.24a1.24,1.24,0,0,1-.14.64c-.3.71-.64,1.4-.93,2.12a9.41,9.41,0,0,0-.34,1.29c-.08.31-.37.63-.09.9-.12.16-.33.43-.3.45.48.51-.13.85-.22,1.22-.19.78-.72,1.47-.89,2.25s-.64,1.54-.24,2.39c0,0-.05.14-.1.19-.52.48-.6.87-.28,1.36-.16.16-.4.3-.43.48a5.08,5.08,0,0,0-.21,1.87,5.17,5.17,0,0,1-.23,2.39c-.44,1.85-1.13,3.71-1.43,5.59a7.11,7.11,0,0,1,.07,1.15c-.14.73-.34,1.46-.55,2.17s-.51,1.56-.77,2.34H126c.38-.61.8-1.2,1.18-1.8s.61-.92.93-1.37c.43-.63.86-1.25,1.31-1.86s1.23-1.47,1.73-2.28c.7-1.15,1.31-2.36,1.94-3.56.81-1.54,1.64-3.07,2.4-4.64.49-1,.83-2.11,1.31-3.14a51.09,51.09,0,0,0,2.65-7.08c.54-1.79,1.21-3.55,1.79-5.32.68-2,1.38-4.1,2-6.17.29-1,.4-2,.6-3,.1-.5.26-1,.32-1.48.26-1.88.49-3.76.73-5.64.11-.91.22-1.82.34-2.72a23.9,23.9,0,0,1,.37-2.56c.25-1.09.62-2.15.93-3.22s.54-2,.78-2.94c-1.17-1.23-2.37-2.43-3.62-3.59a2.93,2.93,0,0,0-.08.66,15.6,15.6,0,0,1-.73,3.47,10.14,10.14,0,0,0-.8,2.18c-.21.78.06,1.75-.86,2.28,0,0-.05.11-.06.16-.16.69-.35,1.37-.46,2.06-.23,1.43-.42,2.87-.61,4.3a32.65,32.65,0,0,1-.43,3.44,13.41,13.41,0,0,1-1.09,3.87,20.44,20.44,0,0,0-.85,2.68c-.51,1.28-1.15,2.51-1.7,3.79-.19.45-.35.86-1,1a2.65,2.65,0,0,1-.18-.86,7.71,7.71,0,0,1,.39-1.11c.38-1.19.79-2.37,1.1-3.57.48-1.92,1-3.84,1.3-5.79.3-1.71.43-3.44.6-5.17s.34-3.7.48-5.55c.07-.81,0-1.63.14-2.43s.34-1.76.51-2.64a19.39,19.39,0,0,0,.15-3.32c0-1,.06-2,.1-3q-3.37-2.76-7-5.18c0,1.43,0,2.86,0,4.29s-.06,3.13-.18,4.69-.34,2.91-.52,4.37c-.08.66-.13,1.32-.24,2-.19,1.15-.46,2.3-.61,3.46s-.16,2.5-.38,3.73c-.34,1.82-.81,3.63-1.22,5.44,0,.09-.06.18-.09.28-.21.68-.46,1.36-.62,2.05-.32,1.45-.6,2.91-.91,4.36,0,.11-.13.19-.17.3-.23.59-.44,1.19-.66,1.79A3.14,3.14,0,0,1,126.75,51.66Zm7.78,2.8c.34.91-2.6,10.66-3.92,11.32A46.52,46.52,0,0,1,134.53,54.46Z"/><path class="cls-2" d="M163.54,84.69l-.27.72h7.56a85.62,85.62,0,0,0-3-22.5,1.1,1.1,0,0,0,0,.18c-.08.66-.14,1.32-.25,2-.19,1.16-.45,2.3-.61,3.46s-.16,2.51-.38,3.73c-.33,1.83-.8,3.63-1.22,5.44,0,.09-.06.19-.08.28-.21.69-.46,1.36-.62,2.06-.33,1.44-.61,2.9-.91,4.35C163.69,84.5,163.58,84.58,163.54,84.69Z"/></svg>