<svg id="Layer_1" data-name="Layer 1" xmlns="http://www.w3.org/2000/svg" viewBox="0 0 172.8 171"><defs><style>.cls-1{fill:#e7b00c;}.cls-2{fill:#2e5b66;}</style></defs><title>circle2</title><path class="cls-1" d="M93.07,1a47.86,47.86,0,0,1-5-1A2.16,2.16,0,0,0,87.51,0c-.26,0-.38.14-.4.4a6.59,6.59,0,0,0,.21,2.72c.11.32.24.49.53.55.79.16,1.59.32,2.38.46-.12.4-.23.79-.36,1.18A4.79,4.79,0,0,0,89.58,8a5,5,0,0,1,.07,1.72,20.59,20.59,0,0,0-.19,4.37,1.57,1.57,0,0,1-.07.57,9.77,9.77,0,0,0-.26,1.68,3.4,3.4,0,0,1-1.25.54,1.8,1.8,0,0,0-.94.61c-.1.09-.2.29-.16.38a.67.67,0,0,0,.34.27.63.63,0,0,0,.33,0L89.1,18v.21c0,.58.09,1.16.1,1.74,0,.79,0,1.58,0,2.37,0,1.18,0,2.36,0,3.55a16.6,16.6,0,0,0,.52,4.65,6.88,6.88,0,0,0,.87,1.93,2.09,2.09,0,0,1-.16.29A22.69,22.69,0,0,0,89.24,35c-.58,1.43-1.09,2.89-1.57,4.36a13.57,13.57,0,0,0-.48,2.19c-.16,1.06-.24,2.13-.37,3.18a5.76,5.76,0,0,0,0,1.76,22.71,22.71,0,0,1,.16,3H87c0,.8,0,1.6,0,2.39a1.9,1.9,0,0,0,.33,1.06,7.11,7.11,0,0,0,2.52,2.26,4.83,4.83,0,0,0,.59.32c.42.11.86.15,1.3.24s.58,0,.65-.4a4.42,4.42,0,0,0,0-1c-.12-1.45-.33-2.88-.37-4.33a34.69,34.69,0,0,1,.28-4.77,26.16,26.16,0,0,1,.73-4.32c.25-.93.56-1.85.84-2.77.16-.57.16-1.2.68-1.61,0,0,0-.14.08-.21.25-.57.49-1.14.76-1.7A11.51,11.51,0,0,0,96.23,33a9.76,9.76,0,0,1,.83-1.83c.45-.85.85-1.74,1.26-2.61a8.75,8.75,0,0,1,1.11-2,.46.46,0,0,0,0-.61,2.25,2.25,0,0,0-1.34-1c-.82-.29-1.66-.47-2.47-.81a2.68,2.68,0,0,0-1.17-.07.61.61,0,0,0-.38.3,4.22,4.22,0,0,0-.47,1,23.21,23.21,0,0,1-1.4,3.29c-.27.67-.63,1.3-1,1.94A9.61,9.61,0,0,1,91,28.45c-.06-1.78-.06-3.56-.08-5.35,0-.9-.07-1.8,0-2.7s.07-1.71.11-2.57l2.79-.26a6.16,6.16,0,0,1,1.48-.06c1.21.21,2.45.15,3.66.27,1.12,1.31,2.22,2.62,3.41,3.86a22.51,22.51,0,0,1,4.49,6.78c.08.19.12.43.41.43a3.71,3.71,0,0,0,1.33-1.75,14.85,14.85,0,0,0,.4-1.49,1.25,1.25,0,0,0,0-.93c-.09-.2-.15-.41-.22-.61a15.2,15.2,0,0,0-2.13-4c-.42-.61-.87-1.19-1.33-1.77a45.82,45.82,0,0,1,7.66,1.14c1.43.34,2.84.75,4.27,1.1.91.23,1.85.39,2.77.6.73.17,1.45.36,2.17.54q.15.38.27.75c-.62-.06-1.24-.13-1.87-.14a17.47,17.47,0,0,0-2.17.05c-.72.07-.82.41-.41,1A16.47,16.47,0,0,0,121,26.37c.62.51,1.23,1,1.83,1.55-.17,1.67-.39,3.33-.6,5-.11.78-.23,1.56-.34,2.33a2.92,2.92,0,0,0-2,0,.83.83,0,0,1-.22,0,13.14,13.14,0,0,0-2.73.17,23.42,23.42,0,0,1-2.9.2l-2,.13c-.92.06-1.83.13-2.75.16-.29,0-.56,0-.7.29a.81.81,0,0,0,.33.92,5.35,5.35,0,0,1,1.27.74,18.42,18.42,0,0,0,1.74,1,.78.78,0,0,0,.33.14c.84,0,1.67-.06,2.5-.12l7-.47v.08a1.59,1.59,0,0,0,.45,1.09,6.54,6.54,0,0,0,.61.57c.61.48,1.25.91,1.83,1.42a1.18,1.18,0,0,0,1.17.31,3.84,3.84,0,0,0,0-.48,21.74,21.74,0,0,1,0-3h.12c.2,0,.52-.17.54-.29a.79.79,0,0,0-.24-.63,3.7,3.7,0,0,0-.33-.21c0-.22.05-.44.07-.66a19.54,19.54,0,0,0,.52-4.31,1.29,1.29,0,0,1,0-.19s0-.08,0-.12a9.16,9.16,0,0,1,1.72,2.75.54.54,0,0,0,.15.25,15.41,15.41,0,0,1,2.19,3c.29.46.54,1,1.11,1.17.29.09.62.07.93.14.78.16,1.56.3,2.33.52a2.39,2.39,0,0,0,1.78-.34,3.8,3.8,0,0,0-.19-.55c-.48-.79-.92-1.6-1.45-2.36-1.51-2.2-2.94-4.45-4.64-6.52a30.81,30.81,0,0,0-3.16-3.4c-.69-.62-1.39-1.23-2-1.9-.29-.7-.58-1.39-.92-2.06-.09-.19-.21-.38-.31-.57.67.16,1.35.32,2,.45.5.1,1,.14,1.52.2a11.6,11.6,0,0,0,1.87.12L131,25.6c.55.92,1.17,1.8,1.79,2.68a5.34,5.34,0,0,0,2,2.1,5.05,5.05,0,0,1,2,1.41,2.41,2.41,0,0,0,1.28.71c.16,0,.45,0,.53-.08a.93.93,0,0,0,.09-.6,1,1,0,0,0-.24-.38c-1.56-2.37-3.13-4.74-4.68-7.11A12.71,12.71,0,0,1,133,23l1.66,0c.75,0,1.5,0,2.25,0a1.16,1.16,0,0,0,.62-.22c.7-.57,1.38-1.16,2.07-1.75l.8-.71c.25-.38.16-.61-.21-.65a1.7,1.7,0,0,0-.39,0l-3.53.17a25.32,25.32,0,0,1-4.69-.05c-.29-.58-.57-1.16-.82-1.76-.54-1.33-1.2-2.62-1.79-3.94-.4-.89-.72-1.8-1.14-2.68-.52-1.08-1-2.18-1.46-3.28-1.85-1-3.73-1.87-5.65-2.7.69,1.66,1.42,3.3,2.22,4.9,1.43,2.88,2.84,5.76,4.31,8.62l-1.26-.27c-1.23-.25-2.46-.49-3.69-.75l-.75-.16a22.14,22.14,0,0,0-2.3-3.3c-.28-.32-.6-.61-.88-.93s-.74-1-1.16-1.38-1-.85-1.48-1.32a19.91,19.91,0,0,0-3.42-2.6c-1.11-.73-2.31-1.33-3.45-2a23.4,23.4,0,0,0-4.7-1.91c-.41-.13-.83-.24-1.25-.35l.75-1.11.06.05.75-1c.28-.38.58-.75.83-1.15.09-.14.16-.43.09-.51a.68.68,0,0,0-.56-.17,6.58,6.58,0,0,0-1,.41c-.6.29-1.17.62-1.79.86a3.12,3.12,0,0,0-2,1.75c-1.36-.44-2.72-.91-4.08-1.33A26.23,26.23,0,0,0,93.07,1Zm.29,3.52c.44,0,.86.29,1.32.08.09,0,.25,0,.37.07.33.1.66.2,1,.32a6.49,6.49,0,0,0,1.3.51,4.1,4.1,0,0,1,.94.28c-.34.53-.74,1-1.09,1.56l-1,1.44c-.45.65-.88,1.31-1.34,1.95-.15.2-.32.37-.17.63a.67.67,0,0,0,.79.26,4.35,4.35,0,0,1,1.17-.47,17,17,0,0,0,1.58-.67.72.72,0,0,0,.27-.16c.42-.58.83-1.17,1.23-1.76l1.15-1.72,1.55.69a4.33,4.33,0,0,1,.81.39,4.48,4.48,0,0,0,1.33.62,2.14,2.14,0,0,1,.9.46,4.88,4.88,0,0,0,1.71,1,17.21,17.21,0,0,1,1.66.84c.65.36,1.26.81,1.92,1.16a40.66,40.66,0,0,1,5.53,3.41c.65.47,1.27,1,1.87,1.5a16.31,16.31,0,0,1-2.59-.63h-.06l-2.15-.36a51.89,51.89,0,0,0-6.6-.61l-4-.14c-.41-.54-.82-1.06-1.22-1.61a3.1,3.1,0,0,1-.35-.81c-.08-.21-.12-.44-.2-.73A2,2,0,0,0,100,13c-.34.68-.7,1.35-1,2H98.8c-1.59,0-3.19.09-4.79.18-.79,0-1.59.13-2.38.23l-.59.07c0-.78.07-1.56.09-2.34a22.5,22.5,0,0,1,.54-4.33c.26-1.11.62-2.19.92-3.28a10.38,10.38,0,0,0,.27-1.1Z"/><path class="cls-1" d="M113.54,164.15c0-.4-.06-.51-.46-.43s-.62.17-.93.27c-1.31.41-2.59.93-3.93,1.21a65.49,65.49,0,0,1-6.54,1.06,16.79,16.79,0,0,1-6.2,0,.63.63,0,0,0-.71.29,6.32,6.32,0,0,1-.84,1.06,4.08,4.08,0,0,0-1.18,2.13.61.61,0,0,0,.26.78,2.54,2.54,0,0,0,1.33.44c.47,0,.94,0,1.41,0a56.45,56.45,0,0,0,9.79-1c1.64-.31,3.26-.76,4.88-1.16.43-.11.85-.29,1.25-.43.11-.16.21-.27.29-.4a22.26,22.26,0,0,0,1.53-3.59A1.11,1.11,0,0,0,113.54,164.15Z"/><path class="cls-1" d="M154,34.5a32,32,0,0,0-6.63,1.44,19,19,0,0,0-3.4,1.55,4.46,4.46,0,0,0-1.79,1.86c-.26.54-.55,1.07-.84,1.59A17.36,17.36,0,0,0,139.07,47a2.45,2.45,0,0,1-.43,1.29c-.52-.11-1-.24-1.54-.33q-2.32-.4-4.65-.78a5,5,0,0,0-.67,0,8.9,8.9,0,0,0-3.93.82c-.26.11-.54.17-.87.27-.08-.53-.13-1-.19-1.37-.17-1.13-.33-1.19-.54-2.32a1.72,1.72,0,0,0-.5-1,9.65,9.65,0,0,0-1.48-1,1.67,1.67,0,0,0-.5-.12,1.1,1.1,0,0,0-.08.33,27.66,27.66,0,0,0,.4,3.4c.16,1,.09,1.93.16,2.89a.83.83,0,0,1-.48.85c-.87.49-1.72,1-2.56,1.55a.86.86,0,0,0-.41,1c.07.39.32.49.67.58,1,.23,1.93.51,2.93.78,0,.27,0,.49-.07.71-.08.57-.22,1.13-.25,1.7-.12,2.4-.24,4.8-.3,7.19a1.34,1.34,0,0,1-.66,1.3c-1.13.7-2.23,1.44-3.34,2.15a2.8,2.8,0,0,1-.44.15,3.4,3.4,0,0,1-.13-.46l-.27-6.82c0-.54,0-1.1-.1-1.64a16.61,16.61,0,0,1,.39-7c.26-.8.2-.93-.55-1.28-1-.46-2-.88-3-1.3-.34-.15-.71-.25-1.06-.37a.49.49,0,0,0-.67.3,5.31,5.31,0,0,0-.23.55,13.76,13.76,0,0,0-.56,5.18c.09,1.27.14,2.55.2,3.82.06,1.65.1,3.29.17,4.94,0,.47.12.94.15,1.41a45.82,45.82,0,0,0,.63,5.36c.15.83.06,1-.86,1.13a6.54,6.54,0,0,1-.32-.65,24.26,24.26,0,0,1-.85-2.71c-.49-2.47-1-5-1.34-7.45a30.32,30.32,0,0,1-.43-4.77c0-1.34-.08-2.69-.19-4-.13-1.72-.32-3.44-.51-5.15-.08-.74-.2-1.49-.35-2.22-.24-1.12-.41-2.24-.76-3.35A15.7,15.7,0,0,1,108.3,38a18.11,18.11,0,0,1-.3-2.07,1.79,1.79,0,0,0-1.31-1.63c-.53-.23-1-.46-1.59-.67s-1.19-.49-1.81-.68-.77.06-.78.53a8.41,8.41,0,0,0,.14,1.4c0,.34.16.67.22,1,.16,1,.24,1.94.48,2.88a24.13,24.13,0,0,1,.92,4.76c0,.9.13,1.8.23,2.69.14,1.44.34,2.88.46,4.32s.09,3.06.32,4.56c.41,2.61.93,5.21,1.48,7.79a27.4,27.4,0,0,0,1.67,5.2c.59,1.38,1.08,2.8,1.65,4.18a.65.65,0,0,1-.23.9c-.83.63-1.64,1.3-2.47,1.95a3.32,3.32,0,0,1-.4.21,5.71,5.71,0,0,1-.21-.74c-.15-1.19-.26-2.38-.41-3.57a63.63,63.63,0,0,0-1.29-7.38c-.08-.34-.16-.68-.21-1-.18-1.16-.32-2.32-.52-3.48a10,10,0,0,1,.31-5.61.79.79,0,0,0-.11-.77c-.66-1.11-1.28-2.26-2-3.36a6.43,6.43,0,0,0-2.65-2.67,2.43,2.43,0,0,0-1.56-.47,17.57,17.57,0,0,1,1.83,3.52c-.84,0-.93.06-1.17.75a1.42,1.42,0,0,0-.11.35,28.89,28.89,0,0,0-.24,3.21,45.93,45.93,0,0,0,1.08,7.18c.35,1.86.71,3.72,1.06,5.59.08.42.13.84.17,1.26a29.81,29.81,0,0,0,1.33,7.13,18.35,18.35,0,0,0,1.57,3.88,1.42,1.42,0,0,1-.11,1.79,14.85,14.85,0,0,0-2.18,3.52c.31,0,.63.07.94.12s.63.13.95.22c.92.25,1.1.17,1.49-.72.11-.25.2-.51.33-.75a3.65,3.65,0,0,1,.45-.47l1.51,2.9c-.21.21-.37.39-.54.57-.7.75-1.45,1.45-2.07,2.25a1.13,1.13,0,0,1-1,.48c-1.32.07-2.64.17-4,.31-1.12.13-2.23.33-3.34.48a2.66,2.66,0,0,1-.49,0,1.18,1.18,0,0,1,0-.3c.35-1.43.68-2.87,1.07-4.29.33-1.2.73-2.38,1.1-3.57a3.76,3.76,0,0,1,.23-.55c.23-.45.14-.74-.33-.94a4.44,4.44,0,0,0-.86-.25c-1.24-.18-2.48-.36-3.71-.51a4.47,4.47,0,0,0-.75,0c-.06.1-.08.12-.08.14-.05.59-.08,1.19-.14,1.78a3.77,3.77,0,0,0-.09,1.71,4,4,0,0,1-.12,1.39c0,.18,0,.44,0,.56a.86.86,0,0,1,.12.77,6.35,6.35,0,0,0-.14,1,10.21,10.21,0,0,1-.89,3.84,1.1,1.1,0,0,1-.68.62c-.73.27-1.46.54-2.16.86l-2.56,1.17v1.52c.91-.44,1.81-.89,2.72-1.31.63-.3,1.29-.52,1.95-.76a4.81,4.81,0,0,1,.73-.12l-.14.65A4.29,4.29,0,0,0,91,94.33a3.79,3.79,0,0,1-.53,1.85c-.42.82-.89,1.62-1.32,2.43a4,4,0,0,0-.25.69c-.08.24-.13.48-.22.71a2,2,0,0,0-.33,1.18.79.79,0,0,1-.17.49c-.68,1-1.35,2-2.06,3a1.07,1.07,0,0,1-.14.16v1.63a1.67,1.67,0,0,0,.36-.34c.71-.83,1.41-1.68,2-2.56,1.19-1.64,2.37-3.28,3.47-5a21.89,21.89,0,0,0,2.24-4.49c.25-.7.57-1.38.83-2.08a.81.81,0,0,1,.7-.58c1.48-.25,3-.54,4.44-.77.86-.13,1.74-.14,2.61-.23.52,0,1-.14,1.55-.22a.71.71,0,0,1,.71.29c.52.64,1.07,1.25,1.6,1.88s.75.72,1.48.19l1.32-1a6.69,6.69,0,0,1,.3.91c.29,2.21.55,4.41.84,6.62.1.84.2,1.69.36,2.52a1.7,1.7,0,0,0,.43.77c.66.73,1.36,1.42,2,2.14.15.16.28.34.42.5s.23.32.36.47.44.43.78.23a.65.65,0,0,0,.34-.75c-.09-.67-.14-1.34-.19-2s-.06-1.19-.09-1.92l2.48,1.06c.36.15.33.45.32.75-.06,1.6-.16,3.2-.16,4.8,0,1.82.08,3.65.12,5.47,0,.67,0,1.33,0,2.12-.75-.07-1.39-.11-2-.2-1-.13-1.93-.31-2.89-.45a1.18,1.18,0,0,1-1-.76A14.25,14.25,0,0,1,111,112c-.34-1.33-.6-2.68-.9-4-.14-.63-.34-.81-.93-.62-.88.28-1.72.65-2.58,1-.43.16-.43.53-.36.88.15.81.34,1.61.51,2.42.11.55.23,1.11.37,1.78a3.45,3.45,0,0,1-.8,0,19.09,19.09,0,0,0-4.51-.7s-.08,0-.22-.11a5.35,5.35,0,0,1,.16-.73c.47-1.1.92-2.21,1.43-3.29s1.21-2.41,1.81-3.62a21.66,21.66,0,0,1,2.23-3.61c0-.06.09-.14.15-.17a1.05,1.05,0,0,0,.6-.75c.07-.24.33-.43.49-.62-.35-.66-.7-.86-1.42-.64-1.43.42-2.85.91-4.28,1.37a.91.91,0,0,0-.63.67,4.35,4.35,0,0,1-.54.88,37.44,37.44,0,0,0-2.75,5.39c-.4,1-.68,2-1,3-.11.33-.28.64-.41,1a3,3,0,0,0-.24,1.15,1.65,1.65,0,0,1-.89,1.59c-1.52.86-3,1.85-4.44,2.79a1.77,1.77,0,0,0-.51.43.63.63,0,0,0-.15.52.56.56,0,0,0,.48.24,3.8,3.8,0,0,0,1.13-.35,11.22,11.22,0,0,1,3-1.1l.44,0a2.42,2.42,0,0,1-.42,1.85c-.09.12-.36.15-.54.15-.5,0-1,0-1.5-.05a1.61,1.61,0,0,0-1.15.37c.3.21.52.39.76.53.58.34,1.17.67,1.76,1a1.08,1.08,0,0,1,.66,1.28.59.59,0,0,0,0,.37c.54,1.22,0,2.46.08,3.69,0,.36-.24.51-.57.57-1.21.23-2.41.45-3.61.7-1.67.35-3.32.74-5,1.05l-.78.16v1.45c1.63-.34,3.24-.8,4.86-1.18a9.51,9.51,0,0,1,4.31,0,1,1,0,0,1,.86.89c.1.79.23,1.57.37,2.36a3.34,3.34,0,0,0,.17.55,12.23,12.23,0,0,1,1.2-.32c.55-.09.66-.18.7-.78,0-.42,0-.85,0-1.27,0-.57,0-.61.56-.66a20.74,20.74,0,0,1,2.61-.13,3.43,3.43,0,0,0,2-.89,6,6,0,0,0-2.51-1.06l-2.7-.83a25.21,25.21,0,0,1,.67-3.67c.37.18.64.3.9.45,1,.55,1.92,1.15,2.92,1.66a14.28,14.28,0,0,1,4.19,3.24c1.12,1.26,2.12,2.64,3.2,4a3.47,3.47,0,0,0,1.53,1.38c.4.13.82.2,1.22.36a2.88,2.88,0,0,1,1,.55c1,1,2,2.14,2.91,3.23a5.88,5.88,0,0,1,.5.79l-1.07-.13a12.84,12.84,0,0,0-1.61-.26,1.54,1.54,0,0,0-1,.28,7.68,7.68,0,0,0-1.3,1.43c-.88,1.31-.86,1.33-2.37.83l-.28-.1-5-2.11a5.84,5.84,0,0,1-.68-.41c.39-.93,1.25-1.21,1.89-1.75a2.94,2.94,0,0,1,2.4-.37c-.16-.86-.23-.94-.92-1.07-.22,0-.44-.08-.66-.1q-1.71-.16-3.42-.3a1.91,1.91,0,0,0-.5.12,10.56,10.56,0,0,0-2.44,1.12,1.11,1.11,0,0,1-1.15,0c-1.08-.62-2.18-1.2-3.2-1.91a2,2,0,0,0-2.22-.3c-1,.5-2,.94-3.05,1.43-.42.2-.82.43-1.3.69a3.42,3.42,0,0,0,.4.36c.57.35,1.13.73,1.72,1,1.28.68,2.58,1.33,3.87,2,.34.18.66.39,1,.56a1.12,1.12,0,0,1,0,.26q-1.11,2-2.21,4c-.17.31-.47.35-.76.43-.62.17-1.26.32-1.87.53-1.16.4-2.3.84-3.45,1.27l-2.27.87v1.93c1.08-.45,2.15-.9,3.24-1.31a11.29,11.29,0,0,1,2.19-.4,1.7,1.7,0,0,1,.5.1,10.37,10.37,0,0,1-2.18,2.54A12.65,12.65,0,0,0,88,151.23a17.7,17.7,0,0,1-2.08,2.16v5.36l1.75-1.47c.73-.61,1.44-1.24,2.22-1.79a18,18,0,0,0,2.18-1.81c-.59.89-1.15,1.78-1.69,2.7l-.2.14.09.07c-.78,1.36-1.51,2.76-2.19,4.18s-1.31,3.08-1.94,4.63c-.16.41-.26.86-.38,1.27.06.18.09.32.15.46a21.74,21.74,0,0,0,2,3.35,1.07,1.07,0,0,0,.18.19c.29.28.44.26.62-.12s.23-.6.33-.9a39.64,39.64,0,0,1,1.34-3.89c.91-2,1.88-4,3-5.91.35-.59.68-1.2,1-1.78l.63.19a1.94,1.94,0,0,0,1.14-.19c1-.42,2-.92,3-1.36a15,15,0,0,1,2-.75c2-.51,4-1,6-1.45.45-.11.92-.13,1.41-.2a2.28,2.28,0,0,1-.22,1.44c-.42,1.3-.92,2.58-1.35,3.89a4,4,0,0,0-.21,1.24c0,.74.23,1,1,1.11.87.17,1.76.32,2.63.5.41.08.81.19,1.21.3a.75.75,0,0,0,1-.47,15.27,15.27,0,0,0,.49-1.49,49.23,49.23,0,0,0,1.83-6.18c.2-1.13.23-1.13,1.35-1.3l.3-.06,4.51-.72a3.69,3.69,0,0,1,.58,0c.1.74.22,1.42.29,2.12.21,2.18.38,4.38.61,6.56.14,1.36.31,2.72.5,4.07,1.91-.89,3.77-1.85,5.6-2.87-.11-.9-.21-1.8-.31-2.69-.28-2.71-.54-5.42-.83-8.13-.06-.63,0-.68.59-.92l2.91-1.18c.31-.12.64-.22,1-.33.27.72.53,1.34.75,2,.57,1.73,1.11,3.47,1.69,5.19.23.7.46,1.4.7,2.09.91-.61,1.8-1.25,2.68-1.9a15.31,15.31,0,0,1-.67-1.82c-.59-2.12-1.12-4.25-1.66-6.39-.17-.66-.11-.72.53-1a27.57,27.57,0,0,0,5-3c.8-.63,1.57-1.3,2.35-2a16.56,16.56,0,0,0,4.76-6c0-.08.12-.13.24-.26.34.39.67.72,1,1.09.76,1,1.53,2,2.22,3.11a2.32,2.32,0,0,0,1.91,1l.35,0c.83-1,1.64-2.05,2.43-3.11-.19-.28-.38-.56-.58-.83-.83-1.13-1.69-2.23-2.5-3.38-.5-.7-.92-1.47-1.39-2.22l4.26-3.14c.31.42.66.87,1,1.33a22.32,22.32,0,0,0,2.16,2.69c.17.18.33.39.49.59.44-.7.9-1.38,1.33-2.09-.48-.79-1-1.58-1.42-2.38-.37-.65-.66-1.35-1-2s-.43-.63,0-1.24a21.19,21.19,0,0,0,3.09-6.38c.2-.69.42-1.39.57-2.09s0-.8-.63-.73c-1.26.13-2.51.37-3.77.52a1.51,1.51,0,0,0-1.37,1.27c-.25.86-.57,1.71-.88,2.55a5.69,5.69,0,0,1-.41.74,3,3,0,0,1-.37-.39c-.36-.71-.72-1.42-1.05-2.15s-.23-.69.24-1.1a57.09,57.09,0,0,0,5.07-4.89,3.71,3.71,0,0,1,.59-.48,5.58,5.58,0,0,1,.49.4c.92.94,1.87,1.87,2.75,2.85a1.18,1.18,0,0,0,1.4.36c1.32-.43,2.65-.85,4-1.3.33-.11.64-.29.54-.7a6.09,6.09,0,0,1-1.31-.45,19.44,19.44,0,0,1-1.77-1.37c-.33-.27-.66-.54-1-.82-.77-.7-1.54-1.42-2.32-2.15a3.66,3.66,0,0,1,.31-.48c1-1.06,2-2.13,3.08-3.17a16,16,0,0,1,6.36-3.92q.38-2.05.63-4.14c-.86.25-1.67.66-2.52,1a10.67,10.67,0,0,0-4,2.51c-1.39,1.33-2.71,2.73-4,4.12-.5.52-.95,1.1-1.44,1.63s-.78.55-1.31.06l-1.61-1.47c-.25-.23-.47-.57-.77-.68a2.84,2.84,0,0,1-1.17-.9c-.33-.38-.62-.8-1.21-.76a.49.49,0,0,1-.31-.19c-.37-.46-.72-.94-1.09-1.43.49-.69.89-1.36,1.39-1.94.68-.79,1.25-1.71,2.35-2a1.45,1.45,0,0,0,.49-.34c.51-.45,1-.89,1.5-1.36,1.07-1,2.12-2.1,3.17-3.17.8-.82,1.58-1.66,2.34-2.51.25-.27.38-.65.62-.93a3.37,3.37,0,0,0,1-2.22c0-.07.06-.14.09-.2.17-.39.36-.77.5-1.17a7.8,7.8,0,0,0,.18-.89l-.49-.54c.38-.63,1-1.13.91-1.92,0,0,0,0,0-.06.65-.69,1.27-1.4,2-2.06.4-.37.46-.55.08-.94a1.06,1.06,0,0,0-1.47-.06c-1.45,1.27-2.92,2.51-4.35,3.79a18.13,18.13,0,0,0-2.31,2.24,76,76,0,0,1-5.55,6.08c-1.72,1.78-3.56,3.44-5.34,5.15-.11.1-.23.17-.48.36-.08-.15-.15-.28-.23-.41-.45-.68-.89-1.38-1.37-2.05a3.63,3.63,0,0,0-1-1,3.29,3.29,0,0,1-1.22-1.37c-.64-1.13-1.29-2.25-1.95-3.37a1,1,0,0,0-1.19-.36c-.39.16-.46.39-.35,1A10.41,10.41,0,0,0,144,92.19c1.19,2.23,2.47,4.4,3.76,6.57a.89.89,0,0,1,0,1.14,24,24,0,0,0-2.41,4.14,4,4,0,0,1-.9,1.4,6.14,6.14,0,0,0-.33-.53q-1.74-2.44-3.49-4.88a2.25,2.25,0,0,1-.4-1.83c.52-3.13,1-6.27,1.49-9.4a16.4,16.4,0,0,1,.81-3.19,24.23,24.23,0,0,0,1.2-4.55,1.65,1.65,0,0,0,0-.88,2,2,0,0,1,0-1.25c.14-.55.32-1.1.47-1.66.32-1.14.84-2.26.52-3.5a.57.57,0,0,1,0-.29c.07-.57.16-1.14.22-1.71a2,2,0,0,0,0-.74c-.08-.3-.42-1.19-.42-1.19a1.89,1.89,0,0,1-.12-.76c-.09-1.35-.14-2.69-.31-4a2.53,2.53,0,0,0-.66-1.3,6.09,6.09,0,0,0-1.24-.93,4.89,4.89,0,0,0-.63-.26c0,.37,0,.63,0,.9,0,1.14.06,2.29.08,3.44a24,24,0,0,1-1,5.9,36.54,36.54,0,0,1-2.49,7.53,12.31,12.31,0,0,0-.76,2,31,31,0,0,0-.74,5.25,13.45,13.45,0,0,1-.22,1.55c-.16.77-.37,1.54-.56,2.31-.06.25-.14.5-.25.9a20.31,20.31,0,0,1-1.81-3c-.15-.32-.19-.65-.66-.69-.2,0-.38-.28-.63-.48s.05-.55.43-.65a1.55,1.55,0,0,1,.37-.06c.39-1.17,0-2.61.27-3.83.28-1.42.51-2.85.79-4.27a.87.87,0,0,0-.61-1.11c-.55-.24-.59-.31-.47-.93s.36-1.14.5-1.71a2.48,2.48,0,0,1,1-1.38,6,6,0,0,0,1.65-1.6c.41-.74.82-1.49,1.29-2.19.66-1,1.35-1.92,2.1-2.82.52-.62.52-.81-.25-1.07l-.14,0-4-1.1a1.29,1.29,0,0,0-1.42.41c-.33.38-.61.8-.91,1.19a5.41,5.41,0,0,1-1,1.22,3.75,3.75,0,0,0-1.11,1.46c-.21.41-.43.8-.61,1.21a14.21,14.21,0,0,0-1.51,3.65c-.19,1.31-.82,2.88-.46,4.21s1.29,2.29,1.51,3.71a9.74,9.74,0,0,0,.43,2.3c.21.51.57,1.06.35,1.56-.57-.07-2.76.47-2.49,1.42,0,.09.08.18.11.28A12.77,12.77,0,0,0,130,91.41c1.38,1.93,2.74,3.87,4.15,5.78a2.24,2.24,0,0,1,.43,2.1c-.07.21-.13.43-.2.64a17.3,17.3,0,0,1-2.19,4.17c-.26.36-.46.77-.71,1.14-.39.58-.51.62-1.08.24s-1.14-.8-1.7-1.22a16.68,16.68,0,0,0-4.45-2.72c-.65-.23-.79-.53-.63-1.21s.27-1.07.36-1.61a29.06,29.06,0,0,0,.74-6.16,62,62,0,0,0-.89-8.27,6.92,6.92,0,0,0-.5-1.72,10.76,10.76,0,0,1-.82-2.24,2.74,2.74,0,0,0-.31-.84,18.57,18.57,0,0,1-1.67-3.92,19.12,19.12,0,0,1-.88-4,.88.88,0,0,1,.48-1c.8-.42,1.58-.87,2.36-1.31l1.34-.74c0,.21.09.33.11.44a19.27,19.27,0,0,1,.06,4.49,2.07,2.07,0,0,0,0,1,23.53,23.53,0,0,0,1.09,2.12.75.75,0,0,0,.92.31c.35-.07.37-.36.4-.64a29.82,29.82,0,0,0,.12-4.63c-.08-1.35-.09-2.7-.14-4a1.17,1.17,0,0,1,.58-1c1.49-1,3-2.13,4.44-3.2a24.93,24.93,0,0,0,2.9-2.69c-.66-.24-1.25-.46-1.84-.66a9,9,0,0,1-1.16-.3,1.86,1.86,0,0,0-2.26.38c-.6.56-1.23,1.1-1.85,1.64-.18.16-.38.28-.67.49a4.85,4.85,0,0,1-.1-.78c0-1,.07-2,.19-2.91a42.25,42.25,0,0,0,.62-5.13,1,1,0,0,1,.4-.84,6.14,6.14,0,0,1,.61-.43,40.16,40.16,0,0,1,4.91-2.23c2-.91,3.53-.31,5.36.52.23.2.4.36.4.6s.15.27.21.28c0,.21-.19.53-.12.59.34.28.08.44-.08.6s-.35.4-.19.69v0l-1.11,3.09c-.4.3-.76.37-1,.78a3.45,3.45,0,0,0,2.22,1.26,3.81,3.81,0,0,1,.24-.38A2.67,2.67,0,0,0,140,56.6a1.16,1.16,0,0,1,.33-.45c.14-.15.35-.26.44-.44.25-.46.75-.77.79-1.35,0-.07.14-.13.21-.2.22-.19.43-.39.63-.58-.08-.17,0-.21-.08-.46.7-.1.73-.34.95-.75a3.45,3.45,0,0,1,.2-.48.63.63,0,0,1,.69-.34c1.14.25,2.29.48,3.45.7a.76.76,0,0,1,.7.74c.13,1.21.39,2.42.43,3.64.07,1.87,0,3.74,0,5.61a22.86,22.86,0,0,1-.17,3.21c-.21,1.33-.58,2.63-.91,3.93a1.4,1.4,0,0,0,.14,1.22,1.5,1.5,0,0,1,.22,1.2c-.09.47-.29,1,.14,1.41.06.06,0,.23,0,.35,0,.37-.09.75-.13,1.12-.12,1-.23,1.92-.36,2.95.39-.07.47.15.45.44A4.4,4.4,0,0,0,148,79a5.66,5.66,0,0,0,.54,2.89s0,.05,0,.07a.27.27,0,0,0,.08.07l.33-.41a3.57,3.57,0,0,0,.84,2.11c.17-.61.32-1,.43-1.5.18-.72.31-1.46.5-2.18a28.41,28.41,0,0,0,.8-3.66,18.32,18.32,0,0,1,.71-3.06c.25-.86.61-1.68.93-2.53a15.62,15.62,0,0,0,1.12-5c.09-1.84.06-3.69,0-5.54a19.41,19.41,0,0,0-.15-2c-.13-1.24-.27-2.48-.4-3.72a3,3,0,0,1,.07-.61,3.27,3.27,0,0,1,.53.26A5.39,5.39,0,0,1,155.94,56c1,1.85,2.05,3.72,3.08,5.57a1.27,1.27,0,0,0,.44.48c.58.36,1.18.7,1.78,1l2.15,1.18a.59.59,0,0,0,.76-.06.7.7,0,0,0,.14-.83c-.08-.16-.15-.32-.23-.47-.95-1.82-2-3.61-2.85-5.45a7,7,0,0,0-3.06-3.28c-1.32-.71-2.65-1.41-4-2.07a1,1,0,0,1-.69-.89l-.12-1.18c0-.47.05-1-.18-1.38s-.81-.43-1.23-.64l-.07,0c-1.21-.48-2.41-1-3.62-1.43-.57-.21-.92.08-.88.69,0,.3.12.59.16.88a6,6,0,0,1,.08,2l-2.94-.35a4.73,4.73,0,0,1,.18-1.94,26.08,26.08,0,0,1,2.59-5.72,5.93,5.93,0,0,1,2.25-2.25c.27-.14.55-.25.81-.41a13.92,13.92,0,0,1,4.43-1.55c1.3-.3,2.64-.45,4-.64-.74-1.11-1.52-2.21-2.31-3.29-.53.07-1.05.17-1.57.29A7.43,7.43,0,0,1,154,34.5Zm-34.83,98.11c-.72-.77-1.44-1.53-2.15-2.3a1.82,1.82,0,0,0-1.63-.56l-.3,0a1.56,1.56,0,0,1-1.51-.6,29.61,29.61,0,0,0-2.78-2.82,23.39,23.39,0,0,0-3.09-2.11c-2.55-1.53-5.14-3-7.7-4.5-.56-.33-.61-.46-.46-1.09s.2-1,.34-1.46c.18-.67.28-.72,1-.59,1.08.19,2.16.42,3.24.57,1.91.27,3.82.52,5.73.73a1.83,1.83,0,0,1,1.31.74c.69.86,1.42,1.67,2.13,2.51a1.75,1.75,0,0,1,.32.41,15.69,15.69,0,0,0,2.5,3.44,17.31,17.31,0,0,1,2.69,4.82c.35.86.63,1.74.93,2.61a3.66,3.66,0,0,1,.1.56l-.13.08C119.5,132.93,119.33,132.78,119.17,132.61Zm-3.77-13.9c.8.18,1.6.38,2.4.58a.76.76,0,0,1,.59.6l1.39,4.87a1.56,1.56,0,0,1,0,.35c-1.86-2-3.08-4.33-5-6.35A2.27,2.27,0,0,1,115.4,118.71Zm7.09,17.81a2.74,2.74,0,0,1-.21-.48l.8.07c.44,0,.66-.15.63-.58,0,0,0-.09,0-.14-.35-1.25-.65-2.51-1.06-3.75s-.94-2.57-1.42-3.86a.31.31,0,0,1,0-.31c.35.5.67,1,1.05,1.51a18.05,18.05,0,0,0,1.78,2.11,22.4,22.4,0,0,1,3.29,4.16,13.6,13.6,0,0,1,1.84,4.31c.18.68.15.76-.49,1-.91.35-1.83.69-2.75,1-.47.16-.56.13-.75-.33A19.13,19.13,0,0,0,122.49,136.52Zm-3.82,4.23a1.93,1.93,0,0,1,.61,1.38,1.61,1.61,0,0,1-1.41-.1C118.17,141.56,118.41,141.18,118.67,140.75Zm-9.49,4.77c-1.27-.27-2.53-.58-3.8-.83s-2.85-.51-4.27-.76c-.19,0-.38-.09-.73-.18.31-.58.55-1.07.84-1.53s.42-.47.94-.29c.87.3,1.73.65,2.61.9,1.18.33,2.37.59,3.56.87.67.16,1.35.3,2,.45a2.92,2.92,0,0,1,0,.48C110.27,145.58,110.11,145.71,109.18,145.52Zm7.23-.06c.06-.61.27-.84.87-.92l2.64-.31a3,3,0,0,1,.16.33c.26.94.14,1.17-.83,1.32a19.61,19.61,0,0,1-2.3.17C116.49,146.07,116.38,145.9,116.41,145.46Zm-8.28,6.4c-1.21.19-2.44.28-3.65.45-1.38.21-2.77.43-4.14.71-1.09.22-2.21.32-3.3.57a3.32,3.32,0,0,1-.19-.8,4.12,4.12,0,0,0-1-2.21.74.74,0,0,0-.44-.29c.37-.36.75-.72,1.1-1.1a16.66,16.66,0,0,0,1.16-1.47,1,1,0,0,1,1-.41c.67.11,1.34.16,2,.27a48,48,0,0,0,8,1,1.51,1.51,0,0,1,1.08.31c-.08.51-.2,1-.23,1.55C109.47,151.87,109.26,151.69,108.13,151.86Zm12.76-2.93c0,.36-.24.47-.5.56-.74.23-1.48.46-2.23.66s-1.55.34-2.45.54a8.18,8.18,0,0,1,.23-2.61.63.63,0,0,1,.35-.35,2.28,2.28,0,0,1,.64-.2l3.52-.65A9.52,9.52,0,0,1,120.89,148.93Zm9.89-4.35a.63.63,0,0,1-.34.87c-1.05.46-2.09.94-3.15,1.37-.47.19-.64.08-.75-.41-.22-1.07-.42-2.15-.64-3.33l3.95-1.19a3.19,3.19,0,0,1,.25.48C130.33,143.1,130.55,143.84,130.78,144.58Zm9.41-6.53a1.74,1.74,0,0,1-.18.33,24,24,0,0,1-3.6,3.38c-.44.36-.9.72-1.36,1.06-.25.19-.54.34-1,.59-.39-1-.73-1.82-1.09-2.74l7.08-2.74Zm11.94-15.55c.4.54.76,1.11,1.15,1.66a.64.64,0,0,1,0,.88c-.81.94-1.62,1.88-2.45,2.81a6.16,6.16,0,0,1-.65.54,31.67,31.67,0,0,1-3-4.8c1.13-1,2.42-1.82,3.69-2.8C151.31,121.4,151.73,121.94,152.13,122.5Zm-1-17.63a3.83,3.83,0,0,1,.39-.66c1.91,2.1,3.73,4.09,5.63,6.16a72.79,72.79,0,0,1-5.65,4.69c-.66-1-1.25-2-1.9-2.93s-1.35-1.79-2.07-2.74a2.65,2.65,0,0,0,1.42-.63,6.38,6.38,0,0,0,1.88-2.81A9,9,0,0,1,151.12,104.87ZM139,104.24a1.94,1.94,0,0,1,.42.29c.3.33.58.68.87,1,.63.77,1.27,1.53,1.89,2.31a45.34,45.34,0,0,1,3.47,4.88c.54.92,1.22,1.76,1.81,2.65.36.54.68,1.1,1.06,1.72a15.21,15.21,0,0,1-3.35,2.17c-.38-.24-.45-.66-.59-1a11.27,11.27,0,0,0-2.71-4.18,14.63,14.63,0,0,0-3.63-2.61,9.79,9.79,0,0,1-2.48-1.66c.16-.29.29-.57.46-.84.6-.92,1.25-1.81,1.81-2.75C138.44,105.62,138.7,104.94,139,104.24Zm-15.69,1.35a56.76,56.76,0,0,1,5.19,3.82.93.93,0,0,1,.36,1.17,6,6,0,0,1-.21.64,1.22,1.22,0,0,0,.28,1.61c.53.58,1.1,1.13,1.66,1.68.24.24.53.37.62.78.06.24.44.46.72.61s.59-.06.8-.49.42-.9.65-1.34a2.54,2.54,0,0,1,.28-.42,7.21,7.21,0,0,1,2.07,1.45,9.72,9.72,0,0,1,2.45,3.36c.5,1.19,1,2.36,1.6,3.62a4.64,4.64,0,0,1-.71.43,32.2,32.2,0,0,0-5.22,2.61,9.16,9.16,0,0,1-1.95.75,7.14,7.14,0,0,0-2.14,1.06,1.18,1.18,0,0,0-.48.89c-.09,1.62-.18,3.24-.26,4.86a3,3,0,0,0,.1.57,2.78,2.78,0,0,0,.5-.21,10.52,10.52,0,0,1,2.65-1.35,14.32,14.32,0,0,0,2-1.12A13.89,13.89,0,0,1,137.7,129a9.32,9.32,0,0,0,1.36-.64l3.34-1.52a3.92,3.92,0,0,1,.95,2.51,19.22,19.22,0,0,1-.44,3.78,1.78,1.78,0,0,1-1,1.29c-1.21.6-2.4,1.24-3.6,1.84-1.64.82-3.28,1.61-4.91,2.42l-.14.06c-1,.41-1.21.38-1.64-.6a17.76,17.76,0,0,0-3.44-4.58c-.58-.65-1.1-1.36-1.61-2.06a13.42,13.42,0,0,1-1-1.64,17,17,0,0,1-1.17-2.58c-.51-1.57-.92-3.17-1.35-4.76a9.9,9.9,0,0,1-.14-1.09c.42.2.72.32,1,.48.8.51,1.59,1,2.38,1.57a1.77,1.77,0,0,0,1.55.3c1-.24,2-.42,3-.6.46-.08.93-.08,1.4-.15.24,0,.51-.1.56-.41s-.16-.5-.4-.66c-1.92-1.26-3.83-2.54-5.76-3.78a8.83,8.83,0,0,0-1.56-.72c-.67-.26-1.36-.51-2-.72a.65.65,0,0,1-.5-.72c0-1.1-.08-2.2,0-3.3,0-1.84.14-3.69.23-5.54,0-.56.12-1.12.19-1.77A3.86,3.86,0,0,1,123.35,105.59ZM109,82.82c-.39-.8-.74-1.63-1.1-2.45a.81.81,0,0,1,.16-.91,25,25,0,0,1,3.18-3.16c.1-.07.22-.11.41-.22a26.84,26.84,0,0,1,2,6.31c-.11,0-.15,0-.16,0a1.44,1.44,0,0,0-2.11,0,7.74,7.74,0,0,1-1.46.75C109.43,83.35,109.26,83.3,109,82.82Zm8.38,12.46c.3.37.64.53,1.08.19.05,0,.14,0,.27,0a2.84,2.84,0,0,1,0,.51c-.22,1-.46,2.09-.67,3.14a.83.83,0,0,1-.66.72,6.11,6.11,0,0,0-2.56,1.08c0-.41-.1-.67-.12-.93a31.7,31.7,0,0,0-1.24-6.76c-.37-1.14-.79-2.26-1.2-3.38-.24-.68-.24-.67.27-1.15a5.16,5.16,0,0,1,1.83-1.2,8.07,8.07,0,0,1,.11,1c0,.79-.06,1.59-.14,2.39a1.5,1.5,0,0,0,.41,1.29c.35.35.61.78.93,1.15s.48.49.7.75S117.07,94.86,117.41,95.28Zm-1.36-19.81a5.91,5.91,0,0,0,.41.79A17.67,17.67,0,0,1,119,83.57a36.33,36.33,0,0,1,.56,6.33c0,1.12-.19,2.24-.31,3.35a1.06,1.06,0,0,1-.28.61c0-.72,0-1.44,0-2.15-.1-1.77-.16-3.55-.38-5.3a22.37,22.37,0,0,0-.82-3.49c-.5-1.69-1-3.38-1.61-5-.23-.66-.59-1.26-.85-1.91s-.42-1.17-.62-1.75.06-.66.58-.79C115.52,74.13,115.78,74.8,116.05,75.47Z"/><path class="cls-1" d="M165.74,66.74c-.7.67-1.42,1.33-2.12,2a1,1,0,0,1-1,.25,9.55,9.55,0,0,0-1.92-.2c-1,0-2,.09-3,.15a11.89,11.89,0,0,0-1.2.11c-.17,0-.45.19-.45.29a.81.81,0,0,0,.27.54,1.79,1.79,0,0,0,.61.28l3.37,1c.27.08.54.21.88.35-.18.25-.32.42-.44.6A22.08,22.08,0,0,0,158.79,75c-.73,1.48-1.26,3.05-1.87,4.58-.36.9-.7,1.81-1.06,2.71-.14.36-.1.48.26.62a1.64,1.64,0,0,0,.44.09l3.62.48a1.33,1.33,0,0,0,1.7-1c.33-.81.6-1.64.89-2.46a18.64,18.64,0,0,1,3.58-6.77c.25-.26.45-.44.82-.37,1.52.29,3.06.5,4.56.89l1.06.27c-.11-.87-.24-1.73-.38-2.58L170,71.05c-.28-.06-.55-.15-.87-.23a6.67,6.67,0,0,1,2-2.17l.71-.56c-.35-1.71-.77-3.39-1.22-5.07l-4.5,3.42C166,66.53,165.85,66.64,165.74,66.74Z"/><path class="cls-1" d="M144,24a11,11,0,0,1-1.68.31,1.26,1.26,0,0,0-1.28,1c-.17.57-.33,1.15-.5,1.72-.28.9-.57,1.8-.85,2.71a1,1,0,0,0,1.12.29c.54-.18,1.1-.31,1.64-.49l6.13-2c.72-.23,1.42-.47,2.12-.74-1.19-1.31-2.44-2.57-3.71-3.8a3,3,0,0,0-.75.23A8.45,8.45,0,0,1,144,24Z"/><path class="cls-1" d="M88.55,78.62c.74-1.21,1.44-2.45,2.14-3.68s1.29-2.37,1.92-3.55c.21-.4.43-.79.6-1.2.42-1,.89-2.07,1.21-3.14a8.27,8.27,0,0,1,.94-2.18,1,1,0,0,0,.11-.35c.44-1.89.88-3.77,1.32-5.69a4.9,4.9,0,0,1-.74-.57,6.37,6.37,0,0,0-2-1.58c-.57-.29-.69-.25-1,.3a11.75,11.75,0,0,0-1.51,3.57,3.62,3.62,0,0,1-.44,1.1c-.39.64-.87,1.22-1.28,1.84s-.66,1.11-1,1.68-.62,1.31-1,2c-2.16,4.09-1.76,8.62-1.94,13.21a2.67,2.67,0,0,0,.48-.08A3.78,3.78,0,0,0,88.55,78.62Z"/><path class="cls-1" d="M90.21,88.35a.72.72,0,0,0,.28-.91,2.9,2.9,0,0,0-.94-1.32c-.43-.35-.86-.69-1.3-1a21.56,21.56,0,0,0-2.34-1.5A57.25,57.25,0,0,0,86,89.9c.54-.08,1.07-.3,1.63-.35A4.83,4.83,0,0,0,90.21,88.35Z"/><path class="cls-1" d="M92.23,115.37c1.33-2.14,2.54-4.36,3.74-6.57a57.48,57.48,0,0,0,3.45-7.63A17.91,17.91,0,0,1,102,96.11c.16-.2.26-.45,0-.67s-.63-.64-1-.92c-.57-.44-1.17-.85-1.75-1.26-.37-.26-.75-.51-1.13-.74a4.65,4.65,0,0,0-.61-.26,2.19,2.19,0,0,0-.55.28,2.92,2.92,0,0,0-.6.76,40.31,40.31,0,0,0-2.51,5.76,34.6,34.6,0,0,1-2.29,5.13c-.53,1-1.08,1.91-1.56,2.89-1,2.13-3.11,4.34-3.87,6.5-.94,2.68-.72,6.69,0,9.36a29.82,29.82,0,0,0,3.53-4.12A31,31,0,0,0,92.23,115.37Z"/><path class="cls-2" d="M81.23,87.8c.37.32.73.65,1.09,1a10.29,10.29,0,0,0,.87.76c.48.32.78.18.84-.39a3.89,3.89,0,0,0-.53-2.51,11.91,11.91,0,0,1-1-1.75,27,27,0,0,0-2.75-5.24c-.51-.71-1.05-1.4-1.6-2.07A6.52,6.52,0,0,0,76.32,76c-.28-.15-.55-.22-.76.07s0,.46.21.65l2,2.07a20.42,20.42,0,0,1,3.44,5.62c.4.83.8,1.49,1.21,2.31a2.08,2.08,0,0,1,.33.81c-.36.45-1.22-.77-1.52-1.36a20,20,0,0,1-.9-1.87,13.31,13.31,0,0,0-4.56-5.89,1.33,1.33,0,0,0-.21-.09c-.25,0-.49-.08-.64.33a1.55,1.55,0,0,0,.87,1.23,2.5,2.5,0,0,1,.67.5,14.3,14.3,0,0,1,3.24,4.91A6.42,6.42,0,0,0,81.23,87.8Z"/><path class="cls-2" d="M1.13,97.22a38.47,38.47,0,0,0,3.38,6.61,53.05,53.05,0,0,0,3.19,5A12.71,12.71,0,0,0,12.34,113a4.66,4.66,0,0,1,.47.3,1.81,1.81,0,0,1,.9,2,6,6,0,0,1-2.37,4.25c-.7.49-1.37,1-2.1,1.47-.55.32-1.2.79-1,1.34a.87.87,0,0,0,1,.18,16.71,16.71,0,0,0,1.66-1c1.23-.9,2.46-1.8,3.65-2.77a8.22,8.22,0,0,0,2.17-2.11A8.54,8.54,0,0,0,18,111.42a2.16,2.16,0,0,0-.89-1.66c-.4-.28-.81-.53-1.23-.78a9.89,9.89,0,0,1-2.77-2.07c-1-1.13-1.91-2.27-2.75-3.48a35.22,35.22,0,0,1-2.74-4.67c-.29-.59-.7-1.14-1-1.72a7.75,7.75,0,0,1-.55-1.12c-.48-1.27-.85-2.59-1.45-3.82a5.09,5.09,0,0,1-.5-1.79,7.17,7.17,0,0,1,.65-4c.14-.27.26-.54.38-.81a19.8,19.8,0,0,1,2.78-4.93c.83-1,1.59-2,2.45-2.93.54-.59,1.24-1,1.83-1.59,1.35-1.27,2.68-2.56,4-3.85.58-.56,1.18-1.11,1.71-1.72a26.76,26.76,0,0,1,4.43-4.08,15.46,15.46,0,0,0,1.4-1.14C25,64.12,26.25,63,27.44,61.78a30.48,30.48,0,0,0,2.07-2.33c1.19-1.45,1.81-3.23,2.78-4.8a4.79,4.79,0,0,0,.47-1.09,5.88,5.88,0,0,1,1.87-2.87c.74-.65,1.53-1.26,2.3-1.89a19.37,19.37,0,0,0,1.7-1.42,9.94,9.94,0,0,0,1.81-2.78,7.3,7.3,0,0,1,1.73-2.32,1.14,1.14,0,0,1,1.9.46,2.72,2.72,0,0,1,.17.81,20.63,20.63,0,0,1-.08,4.23,12.19,12.19,0,0,0,1.58,8.3,6.81,6.81,0,0,0,1.95,2.05c.7.47,1.12.44,1.6-.24a5.5,5.5,0,0,0,.79-1.52,12.8,12.8,0,0,0,.66-4.72,5.23,5.23,0,0,1,0-.56A9.7,9.7,0,0,0,50,47.22c-.5-1.39-.92-2.81-1.31-4.24-.25-.88,0-1.23.85-1.53.35-.12.71-.18,1.07-.28l.53-.16c.65-.17,1.29-.38,1.94-.5a14.19,14.19,0,0,0,3.73-1,1.73,1.73,0,0,0,.21-3c-.61-.4-.28-1.25-.77-1.59s-.71-.22-1-.31-.44-.16-.38-.41c.16-.7-.24-1-.8-1.21-.71-.25-1.58-.86-1.55-1.47s.51-.46.74-.64c.51-.4,1-.79,1.55-1.17a6.76,6.76,0,0,1,.87-.56A20.54,20.54,0,0,1,63,27.28a24.64,24.64,0,0,0,5.59-1,2.43,2.43,0,0,0,.7-.3,5.34,5.34,0,0,1,2.18-.81c.75-.17,1.61,0,2.17-.75a.4.4,0,0,1,.19-.07,4.11,4.11,0,0,1,3.31.95c1.19,1.2,2.59,2.18,3.66,3.49.08.09.17.16.25.24.84.89,1.69,1.77,2.52,2.66a1.16,1.16,0,0,1,.25,1.23c-.26.84-.5,1.69-.82,2.51a9.11,9.11,0,0,0-.74,3.24A31.67,31.67,0,0,1,81.85,43a6.08,6.08,0,0,0,.24,3c.13.35.18.72.29,1.07A6.9,6.9,0,0,0,84,50c.65.66,1.35,1.26,2,1.87V48.78c-.2-.22-.4-.45-.61-.67a5,5,0,0,1-.87-1.56,9.88,9.88,0,0,1-.77-1.76c0-.09,0-.18,0-.27a8.92,8.92,0,0,0-.14-1A4.1,4.1,0,0,1,83.72,41a21.83,21.83,0,0,0,.72-2.11,22.46,22.46,0,0,0,.79-3,17.17,17.17,0,0,0-.18-5.4,5,5,0,0,0-1.64-3q-1.78-1.56-3.6-3.07a11.38,11.38,0,0,1-1.91-1.95,3,3,0,0,1,1,.27c.85.42,1.69.87,2.51,1.33,1.3.73,2.59,1.45,3.86,2.23l.79.48V24.42a14.49,14.49,0,0,1-1.56-.92c-.56-.38-1.13-.72-1.71-1.05-.8-.46-1.62-.9-2.43-1.34a13,13,0,0,1-1.53-.8A7.51,7.51,0,0,0,75.62,19a41.13,41.13,0,0,0-6.55-.8c-1.76,0-3.52-.13-5.28-.17a3.13,3.13,0,0,0-1,.13,17.26,17.26,0,0,0-4.2,1.39.64.64,0,0,1-.26.1,11.52,11.52,0,0,0-3.62,1.86,38.23,38.23,0,0,0-3.56,2.78,57.3,57.3,0,0,0-4.39,4.15,11.85,11.85,0,0,1-1.22,1.32,4,4,0,0,0-1.25,1.63c-.34.72-.66,1.43-1,2.16A6.52,6.52,0,0,1,40.58,37c-.93.5-1.93.9-2.9,1.33-.79.35-1.6.62-2.37,1a6,6,0,0,0-2.78,2.34,13.53,13.53,0,0,0-.82,1.61c-.41,1-.82,2-1.13,3a12.51,12.51,0,0,0-.31,4.56,2.43,2.43,0,0,1-1,2.3L25.25,56c-.86.62-1.77,1.2-2.58,1.89a30.18,30.18,0,0,0-5,5.56,14.58,14.58,0,0,1-2.53,2.84,55.13,55.13,0,0,1-4.61,3.23c-.81.53-1.7.93-2.54,1.42-1,.59-2,1.22-3,1.83A22.85,22.85,0,0,0,1.28,75.3a6.44,6.44,0,0,0-.74.9,2,2,0,0,0-.12.19c-.1.94-.17,1.88-.24,2.83a1.59,1.59,0,0,1,.13-.13c.72-.51,1.44-1,2.18-1.47a65.64,65.64,0,0,1,6.25-3.46,10,10,0,0,0,1.17-.62c.93-.61,1.84-1.25,2.74-1.89a17.89,17.89,0,0,0,3.89-3.83,40.66,40.66,0,0,1,2.6-3.25c1-1,2.05-1.93,3.11-2.87a5.79,5.79,0,0,1,1.29-.93,16.45,16.45,0,0,0,3.17-2.1c.46-.37,1.12-1.26,1.63-1,.16.65-1,1.91-1.64,2.72a30.18,30.18,0,0,1-3.89,3.86c-1.18,1.08-2.65,1.78-3.7,3-.56.65-1.2,1.23-1.79,1.85s-1.09,1.32-1.7,1.92c-1.42,1.41-2.85,2.79-4.32,4.14-1.22,1.13-2.45,2.27-3.77,3.29a16.09,16.09,0,0,0-2.65,2.63,22.57,22.57,0,0,0-4,6.38,3,3,0,0,1-.15.31A12.72,12.72,0,0,0,0,89.53c.09,2.08.26,4.15.5,6.19C.72,96.22,1,96.71,1.13,97.22Zm31-46c-.37-.34.08-1,.15-1.44a24.24,24.24,0,0,0,.1-3.19c0-.46,0-.93,0-1.39a1.72,1.72,0,0,1,.76-1.42,22.4,22.4,0,0,1,2.36-1.29c.51-.25,1.05-.44,1.59-.65s1.26-.44,1.87-.7a6.6,6.6,0,0,0,2.61-1.89,11.19,11.19,0,0,0,1.94-3.34,14.78,14.78,0,0,1,2.21-4,26.14,26.14,0,0,1,4.43-4.55c1-.78,1.93-1.59,2.94-2.31s2-1.3,3-1.89c.75-.44,1.56-.8,2.35-1.19.37-.19.75-.36,1.13-.52s1-.39,1.56-.57A15.82,15.82,0,0,1,67,20.45c.64,0,1.54-.11,2.18-.07,0,.07.06.34-.27.39-1,.21-2.09.38-3.13.63a32,32,0,0,1-3.64.45,11,11,0,0,0-1.3.22c-1.28.34-2.57.64-3.8,1.09A9.66,9.66,0,0,0,54,25.28a14.16,14.16,0,0,0-2.69,3,5,5,0,0,0-.7,1.87,6,6,0,0,1-.69,2.17,3.17,3.17,0,0,0-.23.93,9.08,9.08,0,0,0-.16,1.15,1.14,1.14,0,0,0,.13.64,5.3,5.3,0,0,0,1.76,1.73A8.94,8.94,0,0,0,54,38c.08,0,.44.23.45.45s-.54.25-.78.32c-1.28.34-2.56.65-3.83,1a7.89,7.89,0,0,0-1.46.64,2.12,2.12,0,0,0-1,1.45,5.38,5.38,0,0,0,0,3.08c.39,1.19.79,2.38,1.19,3.56a11.71,11.71,0,0,1,.57,4.66,18.55,18.55,0,0,0-.33,2.2c0,.21,0,.62-.29.71-.54,0-.86-.83-1.16-1.31-.43-.71-.77-1.47-1.2-2.19A4.64,4.64,0,0,1,45.62,50c0-1.13.05-2.26.08-3.4,0-.3.07-.59.08-.89,0-.76,0-1.52,0-2.28,0-.35-.1-.69-.11-1,0-1.48-2.05-2.31-3.37-1.4a6.1,6.1,0,0,0-1.69,1.63c-.59.91-1.2,1.81-1.76,2.74a5,5,0,0,1-2,1.89,10.58,10.58,0,0,0-2.46,1.9C33.62,49.8,32.48,51.49,32.1,51.25Z"/><path class="cls-2" d="M39.13,134.62c.83.21,1.68.38,2.48.66,1.13.41,2.23.91,3.34,1.38a13.74,13.74,0,0,1,3.57,2.26q2.29,2,4.67,3.84a6.83,6.83,0,0,0,4.2,1.62,4.86,4.86,0,0,0,2.77-.72,9.79,9.79,0,0,1,2.8-1.35,7,7,0,0,1,4.09.44,19.24,19.24,0,0,0,5.16,1.34,14.38,14.38,0,0,0,3.53.09,20.25,20.25,0,0,0,6.56-2.41,32.2,32.2,0,0,1,3.75-2v-2.58a9.79,9.79,0,0,0-1.4.57c-.31.15-.6,0-.93,0a2.21,2.21,0,0,0-1.11.45,32.3,32.3,0,0,1-4.76,2.43,12.36,12.36,0,0,1-5.7.9c-.72-.1-1.43-.16-2.15-.24a9.61,9.61,0,0,1-3.14-.83,14.17,14.17,0,0,0-3.48-.92,3.19,3.19,0,0,0-.69,0,6.81,6.81,0,0,0-3.5,1.23,4.87,4.87,0,0,1-5.61.19,14.61,14.61,0,0,1-1.5-1.12c-1.15-.93-2.31-1.85-3.45-2.8a11.81,11.81,0,0,0-2.79-1.91c-1.08-.48-2.14-1-3.25-1.43a23.78,23.78,0,0,0-2.65-.79c-1.12-.28-2.26-.51-3.39-.76-.7-.15-1.4-.3-2.11-.42s-1.24-.15-1.85-.27a4,4,0,0,0-1.76,0c-1.94.44-3.9.81-5.86,1.16a7.6,7.6,0,0,1-1.72,0,.68.68,0,0,0-.8.45.81.81,0,0,0,.88.74,14.32,14.32,0,0,0,2.07-.16c1-.18,2.08-.43,3.12-.67a10.08,10.08,0,0,1,4.88.16C35.3,133.69,37.22,134.14,39.13,134.62Z"/><path class="cls-2" d="M76.91,15.74a18.36,18.36,0,0,0,2,.72A46.7,46.7,0,0,1,85,18.24c.36.14.71.3,1.06.46V13.91a25.35,25.35,0,0,0-5.73-2.27c-2-.56-4-.94-5.95-1.67a30.87,30.87,0,0,0-3.19-1,6.75,6.75,0,0,0-4.62.28q-2.1.91-4.23,1.77c-2.28.91-4.56,1.8-6.84,2.69-.11.05-.25.08-.31.16a2.67,2.67,0,0,1-1.46.88c-.8.3-1.62.56-2.4.91a3.26,3.26,0,0,1-1.36.41.58.58,0,0,0-.45.27,1.45,1.45,0,0,1-.87.65,13.4,13.4,0,0,1-3.36.81c-1.24.13-2.47.38-3.75.58-.59.05-.25.77-.65.85-1,.2-2.05.41-3.08.55-.47.06-1-.07-1.39.28a.47.47,0,0,1-.27.05l-1.8,0c-1,0-2,0-3,0a1.83,1.83,0,0,0-1.1.23,2.57,2.57,0,0,0-.46,1.13,1.61,1.61,0,0,0,0,1.34c.17.23.5-.11.76-.17a2.93,2.93,0,0,1,.79-.19c1.09,0,2.17.15,3.26.21a19.13,19.13,0,0,0,5.12-.24c1.69-.36,3.4-.65,5.11-.95.55-.09,1.11-.1,1.66-.15a28.1,28.1,0,0,0,5.3-1.13c2.89-.84,5.78-1.68,8.63-2.62,2.48-.82,4.91-1.81,7.37-2.68a10.09,10.09,0,0,1,2.28-.54,11.87,11.87,0,0,1,4.58.57C75.42,15.23,76.17,15.48,76.91,15.74Z"/><path class="cls-2" d="M15.18,129.7c1.81-.82,3.67-1.56,5.45-2.45,1.51-.74,3-1.63,4.41-2.49a11,11,0,0,0,4.05-4.39,4.78,4.78,0,0,0,.51-1.71,21.64,21.64,0,0,0-.07-3.12c-.05-2.05-1.2-3.52-2.54-4.86a9.24,9.24,0,0,0-3-1.91,15.62,15.62,0,0,1-3.47-2c-1.85-1.44-3.81-2.78-5.11-4.81-.61-1-1.29-1.87-1.86-2.84a12,12,0,0,1-1.42-4.82c-.05-.42-.06-.84-.14-1.25a7.25,7.25,0,0,1,.39-3.75,21.12,21.12,0,0,1,1-2.27c.5-1,1.06-2,1.53-3,.86-1.82,1.69-3.66,2.49-5.5a28.64,28.64,0,0,1,3-5.31A14.55,14.55,0,0,1,24,69.66a30.67,30.67,0,0,0,4.77-3.81c.05-.06.15-.14.25-.07a1.21,1.21,0,0,1-.26.62c-.82,1-1.65,2.06-2.47,3.09-.38.47-.72,1-1.11,1.43a22.54,22.54,0,0,0-2.7,3.87C21.9,75.9,21.26,77,20.7,78.15a19.21,19.21,0,0,0-1.84,4.72,5.2,5.2,0,0,1-.3.92q-1.1,2.63-2.21,5.25c-.32.76-.65,1.53-1,2.29s-.76,1.54-1.07,2.33A4.17,4.17,0,0,0,14.1,95a.48.48,0,0,0,.7.5,5.59,5.59,0,0,0,1.37-.78c.59-.52,1-1.2,1.64-1.69a18.71,18.71,0,0,0,2.12-2.15c.65-.74,1.24-1.55,1.88-2.31A4.59,4.59,0,0,0,22.75,86a12.7,12.7,0,0,0-.06-2.22,5.53,5.53,0,0,1,.37-2.51,9.67,9.67,0,0,1,1.79-2.37c.87-1,1.82-1.94,2.64-3,.38-.48.86-.89,1.27-1.36.21-.24.33-.55.52-.81a17,17,0,0,0,2.13-3.54c.28-.66.63-1.29.95-1.93.11-.22.24-.44.36-.67a9,9,0,0,1,.56-.94c.35-.48.76-.93,1.12-1.41a26.34,26.34,0,0,1,2.71-2.78c.17-.17.35-.49.72-.37s.09.73,0,1c-.3.73-.63,1.44-.93,2.17a16.22,16.22,0,0,1-3.45,5.17c-1,1-1.95,1.92-2.92,2.88A11.76,11.76,0,0,0,28,76.88a10,10,0,0,0-.56,5.66c.09.55.25,1.09.3,1.64a3.08,3.08,0,0,1-.08,1.29,5.83,5.83,0,0,1-1.54,2.13c-1.09,1-2.24,2-3.39,3a7.19,7.19,0,0,0-1.47,1.74,3.47,3.47,0,0,0-.42,3.13,9.72,9.72,0,0,0,1.25,2.39,20.2,20.2,0,0,0,3.11,3.55,52.66,52.66,0,0,1,4.61,4.72c1.28,1.43,2.63,2.8,4,4.16.89.88,1.89,1.65,2.77,2.53a12.84,12.84,0,0,1,1.62,2,11,11,0,0,1,1.7,4.44,11.46,11.46,0,0,0,1,3.18,9.06,9.06,0,0,0,3.79,4,5.33,5.33,0,0,0,4,.69c1.17-.28,2.31-.65,3.46-1a23.45,23.45,0,0,0,4.68-2.11,55.68,55.68,0,0,1,5.45-2.76,15.87,15.87,0,0,1,2.23-.77,5.33,5.33,0,0,1,4,.5,12.05,12.05,0,0,1,4.85,5.22,5.31,5.31,0,0,1,.41,1.09,19.42,19.42,0,0,1,.49,4.56,8.42,8.42,0,0,0,.93,4c.57,1,1.13,1.11,1.94.82a6.9,6.9,0,0,0,1.5-.72c1-.71,2-1.45,3-2.23q1.78-1.44,3.48-3c.33-.29.66-.6,1-.9v-4c-.59.62-1.23,1.19-1.87,1.76-1,.86-1.94,1.72-3,2.54s-2.12,1.64-3.22,2.41a6.73,6.73,0,0,1-1.55.75c-.47.16-.67,0-.73-.5-.14-1.05-.24-2.11-.38-3.17a18.29,18.29,0,0,0-.91-3.92,16.13,16.13,0,0,0-1.71-3.55c-.39-.58-.78-1.15-1.14-1.75-.15-.25-.16-.59-.35-.82s-.55-.32-.83-.52a11.82,11.82,0,0,0-3.48-1.69,6.43,6.43,0,0,0-3.76.17c-.49.15-1,.27-1.46.45s-1.07.43-1.59.67c-.69.32-1.39.64-2.06,1s-1.07.65-1.62.94c-.8.41-1.62.81-2.44,1.16-1,.44-2.11.84-3.17,1.25a8.28,8.28,0,0,1-5.28.54,5.58,5.58,0,0,1-1.45-.66c-.55-.34-1.05-.77-1.57-1.15a3.3,3.3,0,0,1-1.26-1.93c-.34-1.23-.71-2.45-1.07-3.67a14.77,14.77,0,0,0-2.14-4.18,20.6,20.6,0,0,0-2.83-2.85c-1.26-1.22-2.56-2.41-3.79-3.67-1.06-1.1-2-2.28-3.05-3.41-.48-.53-1-1-1.52-1.53-1.09-1.07-2.23-2.1-3.27-3.2a18.71,18.71,0,0,1-1.48-2,.74.74,0,0,1,0-.91,13.54,13.54,0,0,1,1.33-1.76c1.29-1.3,2.64-2.54,4-3.81l.36-.29c0,.24,0,.39,0,.55,0,1-.09,1.94-.13,2.91-.06,1.5-.11,3-.16,4.51a7.19,7.19,0,0,0,0,1,2.57,2.57,0,0,0,3,2.43,3,3,0,0,0,2.8-2c.11-.28.25-.55.36-.83a1.66,1.66,0,0,0-.28-1.79,4,4,0,0,1-.73-2,12,12,0,0,1,0-3.73c.24-1.3.37-2.61.63-3.9A6.5,6.5,0,0,1,33.9,84a4.19,4.19,0,0,1,4.46-1.81,12.1,12.1,0,0,1,1.52.47,4.24,4.24,0,0,0,3.19-.09,4.35,4.35,0,0,0,2-2,11,11,0,0,0,1-4.08,10,10,0,0,1,.39-2,2.31,2.31,0,0,1,3-1.32c.68.28,1.35.6,2,.9a2.54,2.54,0,0,0,.46.17c.68.21,1.19,0,1.31-.7a1.68,1.68,0,0,1,1-1.38,6.76,6.76,0,0,0,1.31-1.09c0,.13.08.19.07.24a24.11,24.11,0,0,0-.5,4.56c0,.41-.05.83-.11,1.24a.5.5,0,0,1-.69.47,2,2,0,0,1-.81-.49c-.65-.69-1.25-1.42-1.87-2.14-.86-1-1.23-1-2.27-.2a7.17,7.17,0,0,0-1.9,2.2,5.14,5.14,0,0,0-.43,4,1.63,1.63,0,0,0,.13.39c1.17,2-1,5.36-3.46,5.42a2.39,2.39,0,0,1-.89-.08A10.31,10.31,0,0,0,38.5,86a17.34,17.34,0,0,0-1.92.15,7.45,7.45,0,0,0-1.95.7,2.76,2.76,0,0,0-1.38,2.29,4.81,4.81,0,0,0,.87,3,15.17,15.17,0,0,0,2.58,3.17,7.73,7.73,0,0,1,1.59,1.83,3.13,3.13,0,0,1-.74,4.18c-.42.35-.92.61-1.37.92-.68.45-1,.86-.74,1.73a4.61,4.61,0,0,0,1,1.8,9.88,9.88,0,0,0,4.41,2.79,19.68,19.68,0,0,1,2.14.82,4.38,4.38,0,0,1,2,2.12c.42.85.75,1.74,1.12,2.61l1.33,3.06a3.13,3.13,0,0,0,3.72,1.4,12.51,12.51,0,0,0,2-.91,2.31,2.31,0,0,0,.74-.72,12.31,12.31,0,0,1,3.77-3.63,4.82,4.82,0,0,1,1.66-.68,11.83,11.83,0,0,1,4.63.06,13.46,13.46,0,0,1,5,2.26,35.89,35.89,0,0,1,5.37,4.7c.32.34.6.72.88,1.08.62.78,1.23,1.57,1.84,2.36.19.25.42.46.32.86s.22.48.5.56c.66.19,2,.12,2.09.58-.14.34-.57.35-.81.52a8.54,8.54,0,0,0-1.44,1.07,3,3,0,0,0-.51,1.17,1.45,1.45,0,0,0,.25.71c.52.45,1.17.33,1.83.48a1.42,1.42,0,0,0,.79-.17c1-.5,2.06-1,3-1.56s1.74-1.29,2.6-2a3.13,3.13,0,0,0,.33-.31v-1.71a15.06,15.06,0,0,1-4.8,3.24c-.17.07-.51.26-.54.17s.76-.64,1.14-.94a19.12,19.12,0,0,0,2.37-1.92,15.46,15.46,0,0,0,1.83-2.43v-2.6a2,2,0,0,1-.29.79c-.62.92-1.23,1.85-1.86,2.77-.17.24-.69.87-.84.28a4.19,4.19,0,0,1,0-1.12,16.56,16.56,0,0,1,.33-2.73,5.68,5.68,0,0,1,.72-2.17c.1-.14.21-.13.37-.11a1.88,1.88,0,0,1,.61.15,1.48,1.48,0,0,1,.67.56,2.71,2.71,0,0,1,.32.93v-3.52l-.28-.1a.69.69,0,0,0-.76.19c-.23.25-.38.63-.7.74-.83.29-2-.92-2-.92q-2-1.68-4-3.37c-.53-.45-1-.93-1.57-1.37a15,15,0,0,0-2.93-2.21c-.46-.22-.9-.47-1.36-.71a15.14,15.14,0,0,0-5.22-1.8c-1.3-.15-2.62-.24-3.94-.3a5.52,5.52,0,0,0-1.72.15,27.3,27.3,0,0,0-2.89,1c-.82.31-1.61.71-2.41,1.08a2.13,2.13,0,0,1-1.55.14A10.25,10.25,0,0,1,52,106a11.84,11.84,0,0,1-3.12-2.82,12.93,12.93,0,0,1-2.07-4.29,3.91,3.91,0,0,1,.71-3.77,2.15,2.15,0,0,1,2.69-.82l1.49.56a2.25,2.25,0,0,0,2.86-1,9.36,9.36,0,0,0,1.15-4.18,15.1,15.1,0,0,0-.32-3.79,4.66,4.66,0,0,1,.18-2.53,15.19,15.19,0,0,1,1.5-2.56c.65-1,1.37-2,2-3s1.27-2,2-2.93a16.53,16.53,0,0,0,2-3.51,4.25,4.25,0,0,0,.34-2.17A1.64,1.64,0,0,0,62,67.66a5.16,5.16,0,0,0-2.07,0l-1.34.26c.21-.27.33-.46.48-.62l1.31-1.44a7.68,7.68,0,0,0,2.16-4.34,2.67,2.67,0,0,1,1-2,2,2,0,0,0,.3-.28,2.91,2.91,0,0,1,1.78-1c.36-.07.73-.13,1.1-.18.69-.1,1.39-.13,2.06-.29a3.34,3.34,0,0,0,1.33-.56A6.19,6.19,0,0,0,72.45,53,19.44,19.44,0,0,0,72.27,50a9.82,9.82,0,0,0-.62-2.84,2.66,2.66,0,0,0-1.06-1.49,6.36,6.36,0,0,1-.77-.6,1.83,1.83,0,0,1-.71-1.52,14.25,14.25,0,0,1,0-1.6,15.68,15.68,0,0,0-1.43-8.45c-.17-.38-.41-1.13-.72-1a1.49,1.49,0,0,0-.29.44,8.42,8.42,0,0,0-.37,1.54c-.25,2.42-.52,4.84-.67,7.27a3.13,3.13,0,0,1-1.25,2.5l-.05,0a2.2,2.2,0,0,0-.78,1.11,2.26,2.26,0,0,1-1.37,1.55,18.81,18.81,0,0,0-1.85.93c-.39.2-.77.44-1.16.63a3.31,3.31,0,0,0-1.92,3.75c.2,1.14.4,2.29.71,3.4a8.7,8.7,0,0,1,.1,4.47A10.68,10.68,0,0,1,53.61,67l-.23.16a8.91,8.91,0,0,1-3,1.44,4,4,0,0,1-3.61-.74,16.52,16.52,0,0,1-2.56-2.32A14,14,0,0,1,42,61.78c-.39-1-.86-2-1.31-3a1.69,1.69,0,0,0-.45-.68,16.8,16.8,0,0,0-2.15-1.62,1.76,1.76,0,0,0-1.26-.13,4.46,4.46,0,0,0-2.29,1.51c-.75.93-1.41,1.94-2.12,2.91l-.78,1.05c-.13.17-.26.35-.4.52s-.17.18-.23.14.14-.48.16-.54c.17-.48.34-1,.52-1.45a15,15,0,0,1,1.22-2.79c.51-.8,1-1.63,1.44-2.45.29-.5.53-1,.81-1.53s.62-1.09,1-1.61a1.7,1.7,0,0,1,1.09-.69,8.15,8.15,0,0,1,2.7-.06.83.83,0,0,1,.78.67l.78,3c.28,1.08.54,2.16.87,3.22a34.56,34.56,0,0,0,2.26,4.46,4.82,4.82,0,0,0,.57.87,4,4,0,0,0,1.94,1.52,5,5,0,0,0,4.57-.66A9.74,9.74,0,0,0,54.17,62a7.46,7.46,0,0,0,1.38-5.11A21.3,21.3,0,0,0,55,53.85c-.39-1.6-.87-3.16-1.14-4.8-.29-1.8-.6-3.6-.75-5.43a1.52,1.52,0,0,1,1.5-1.91,8.46,8.46,0,0,1,3.64.18,4.83,4.83,0,0,0,4.49-.69,3,3,0,0,0,1.5-2.49c0-.11.07-.23.07-.34a2.36,2.36,0,0,0-.1-.93,3.35,3.35,0,0,0-.81-1,9.39,9.39,0,0,0-3.31-1.7,8.43,8.43,0,0,1-2.5-1.36,1.8,1.8,0,0,1-.35-2.74,3.37,3.37,0,0,1,1.84-1.29,21.84,21.84,0,0,1,4.24-.71,22.87,22.87,0,0,0,4.86-.75,3,3,0,0,1,3.12.86c.32.33.7.61,1,.91.69.62,1.42,1.2,2,1.87a1.7,1.7,0,0,0,2,.62.74.74,0,0,1,.72.08c.23.16.48.3.69.47a1.22,1.22,0,0,1,.42,1.55,3.11,3.11,0,0,1-2.68,2.21,18.31,18.31,0,0,0-2.21.29,2.58,2.58,0,0,0-2.12,1.86A5.35,5.35,0,0,0,71,41.07a6.4,6.4,0,0,0,3.79,4.75c1,.55,2.16,1,3.21,1.47a1.82,1.82,0,0,1,.78.75,9.9,9.9,0,0,1,1.07,3.5,12.36,12.36,0,0,1-.53,4,6.62,6.62,0,0,0-.27,2.35.38.38,0,0,0,.71.15c.11-.35.23-.65.3-1,.19-.84.38-1.67.52-2.51a21.69,21.69,0,0,0,.3-2.27,9.6,9.6,0,0,0-.84-4.12,2.88,2.88,0,0,0-1.18-1.67c-.83-.45-1.7-.83-2.56-1.23a17.35,17.35,0,0,1-1.64-.73,5.16,5.16,0,0,1-2.78-4.93,1.73,1.73,0,0,1,1.63-1.84c.36-.06.73-.06,1.1-.1a8,8,0,0,0,1.64-.24,4.59,4.59,0,0,0,2.62-2.35,2.42,2.42,0,0,0-.71-3.43c-.13-.1-.26-.2-.38-.31A1.35,1.35,0,0,0,76.17,31,.85.85,0,0,1,75,30.69a7.09,7.09,0,0,0-1.87-1.75,13.87,13.87,0,0,1-1.34-1.09,3.35,3.35,0,0,0-2-1,8.27,8.27,0,0,0-1.65.1c-.69.1-1.35.33-2,.44-2.35.38-4.71.74-7.07,1.06a4,4,0,0,0-2.61,1.58,2.63,2.63,0,0,0,.52,4.1,12.1,12.1,0,0,0,1.93,1.08,22.56,22.56,0,0,1,4,2.12,1.44,1.44,0,0,1,.45,2.07A3.85,3.85,0,0,1,61.63,41a4.29,4.29,0,0,1-3,.13,20.66,20.66,0,0,0-4.22-.33,2.42,2.42,0,0,0-2.37,2.84c.36,2.1.6,4.22.94,6.33a27.73,27.73,0,0,0,.68,2.83,27.8,27.8,0,0,1,1,4.41,6.12,6.12,0,0,1-.44,3.33c-.2.42-.49.79-.72,1.19A6,6,0,0,1,51.05,64a3.93,3.93,0,0,1-4.74-.64,6.77,6.77,0,0,1-.8-1c-.49-.84-.95-1.69-1.39-2.55a20.3,20.3,0,0,1-.89-2,15.34,15.34,0,0,1-.84-3,27.45,27.45,0,0,0-.83-3.08,3.17,3.17,0,0,0-.17-.38,1,1,0,0,0-.94-.72c-.89-.09-1.79-.17-2.68-.27a2.51,2.51,0,0,0-2.49,1.31c-.18.27-.36.55-.52.83-.92,1.55-1.84,3.11-2.74,4.67a11.65,11.65,0,0,0-.72,1.35c-.5,1.22-1,2.46-1.46,3.68A4.06,4.06,0,0,1,29,63.76a10,10,0,0,0-1.14,1.3,7.38,7.38,0,0,1-1.8,1.5c-.41.29-.91.45-1.33.73a15.56,15.56,0,0,0-3.82,3.19c-.77,1-1.54,2-2.28,3a9.77,9.77,0,0,0-.92,1.47c-.93,1.92-1.82,3.85-2.73,5.78-.16.36-.33.71-.5,1.07-.58,1.21-1.13,2.44-1.76,3.62a16.26,16.26,0,0,0-1.48,3.36c-.14.53-.35,1-.45,1.59s-.13,1.29-.22,1.93a16.09,16.09,0,0,0,.19,4.85,7.87,7.87,0,0,0,1,3.15A16.82,16.82,0,0,0,14,103.16a50.5,50.5,0,0,0,8.79,6.67A12.43,12.43,0,0,1,26.2,113a9.35,9.35,0,0,1,1.61,5.52,4.55,4.55,0,0,1-2,4.11,27.1,27.1,0,0,1-2.32,1.51c-1,.58-2,1.1-3.07,1.61s-1.92.91-2.89,1.36c-.61.28-1.25.51-1.83.84-.81.47-1.77.56-2.58,1.09a7.86,7.86,0,0,0-1,.85c.2.34.4.68.61,1C13.51,130.48,14.34,130.08,15.18,129.7ZM30.84,93.88a1.5,1.5,0,0,1-.51-1.24c0-1.69,0-3.37.06-5.06a1.92,1.92,0,0,1,.26-.91c.64-1,1.32-2,2-3l.2-.24A25.43,25.43,0,0,0,30.84,93.88ZM61.53,68.56c.72.09,1,.43.88,1.14a3.71,3.71,0,0,1-.24.94,24.42,24.42,0,0,1-2.37,4.53c-.62.81-1.14,1.69-1.73,2.53-.74,1.06-1.48,2.13-2.26,3.16a6.26,6.26,0,0,0-1.35,5.08,23.26,23.26,0,0,1,.43,2.88,7.54,7.54,0,0,1-.64,3.59c-.06.13-.12.25-.17.38a1.35,1.35,0,0,1-1.91.86c-.62-.18-1.23-.42-1.84-.64a2.53,2.53,0,0,0-2.82.55,6.39,6.39,0,0,0-1.94,3.9,2.58,2.58,0,0,0,.12,1.1,16.64,16.64,0,0,0,1.56,4.15A9.66,9.66,0,0,0,50.14,106a22.31,22.31,0,0,0,2.21,1.41,13.68,13.68,0,0,0,2.35.84,2.6,2.6,0,0,0,1.75-.25c1.15-.48,2.26-1,3.41-1.52a6.35,6.35,0,0,1,1.55-.36,8.49,8.49,0,0,1,3.91.28c1.18.41,2.4.72,3.58,1.13a18.82,18.82,0,0,1,6.29,3.61c2.24,2,4.47,4,6.71,5.94l.11.09c.68.65.68.91,0,1.6a3.74,3.74,0,0,1-.51.47,1,1,0,0,1-.63.19c-.74-.15-1.54,0-2.22-.46-.25-.17-.59,0-.69.38a9,9,0,0,0-.18,1.16c0,.26-.08.52-.13.77a.15.15,0,0,1-.21,0,9.52,9.52,0,0,1-1.66-2.19,3.75,3.75,0,0,0-1-1.15c-.83-.67-1.63-1.37-2.44-2.06a.5.5,0,0,1-.14-.15c-.26-.67-.9-.95-1.4-1.37a3,3,0,0,0-.52-.35c-.88-.46-1.76-.94-2.65-1.37a10.84,10.84,0,0,0-5.51-1.43c-.53,0-1.07,0-1.6,0a4.94,4.94,0,0,0-2.47.58A11,11,0,0,0,54.14,115a6,6,0,0,1-2.39,2.06,2.5,2.5,0,0,1-3.5-1.06c-.54-1-.94-2.11-1.39-3.18a10,10,0,0,0-2.1-3.64,5.53,5.53,0,0,0-1.9-1.22c-1-.36-2-.64-2.94-1.07a8.06,8.06,0,0,1-3.05-2.35c-.42-.52-.38-.75.1-1.25s1-1.08,1.52-1.63a4.08,4.08,0,0,0,.85-4.56,7.28,7.28,0,0,0-1.94-2.6,14,14,0,0,1-2.63-3.21c-.8-1.39-.76-2.44.17-3.46a3.86,3.86,0,0,1,2.56-1.26,8.32,8.32,0,0,1,1.32,0,15.19,15.19,0,0,1,3.38.77A4,4,0,0,0,47,85.93a11.1,11.1,0,0,0,1.35-2.49,4.59,4.59,0,0,0,.12-1.71,3.47,3.47,0,0,0-.19-.88c-.54-2,.25-3.53,1.46-5a2.28,2.28,0,0,1,.38-.3.58.58,0,0,1,.86,0c.41.44.84.86,1.25,1.3s.64.74,1,1.1a2.92,2.92,0,0,0,.41.37,1.45,1.45,0,0,0,2.28-.53,5.36,5.36,0,0,0,.45-2.37,13.17,13.17,0,0,1,.42-3.36,6.46,6.46,0,0,1,1.62-2.72,3.5,3.5,0,0,1,2.15-.85A4,4,0,0,1,61.53,68.56ZM30.76,64.5a33.18,33.18,0,0,1,1.78-2.81l1.71-2.6a5.62,5.62,0,0,1,2.65-2.16.81.81,0,0,1,1,.15,7.16,7.16,0,0,0,.83.62A3.77,3.77,0,0,1,40,59.59c.13.37.29.73.44,1.09.45,1,.87,2.1,1.35,3.13a10.07,10.07,0,0,0,3,3.71,3.94,3.94,0,0,1,.52.47,4.83,4.83,0,0,0,4.85,1.55,7.69,7.69,0,0,0,2.9-1.09c.45-.32,1-.55,1.43-.86A8,8,0,0,0,57,64.79a25,25,0,0,0,1.53-3A9.77,9.77,0,0,0,59.16,58a14.26,14.26,0,0,0-.48-3.43c-.22-.83-.36-1.68-.6-2.5A2.25,2.25,0,0,1,59,49.64a9.21,9.21,0,0,1,2.58-1.59,25.21,25.21,0,0,0,3.88-2.27A5.61,5.61,0,0,0,66.7,44.3a2,2,0,0,0,.3-.84c.14-1.1.06-3.47.45-3.31s.24,3.45.41,5.18a14.64,14.64,0,0,0,.42,2.38,8.13,8.13,0,0,0,1.45,2.43,2,2,0,0,0,.52.34c.42.27.49.53.17.91a2.73,2.73,0,0,1-.76.59,7.29,7.29,0,0,1-2.59.75,7.14,7.14,0,0,0-2.5.78,5.7,5.7,0,0,0-2,2.37,8.27,8.27,0,0,0-.71,2.38c-.17.63-.23,1.28-.35,1.91a5.7,5.7,0,0,1-1.46,2.57c-.32.37-.68.7-1,1s-.35.41-.15.72,0,.58-.24.8c-.6.67-1.24,1.31-1.83,2S55.61,68.8,55,69.55a4.12,4.12,0,0,1-.57.61c-.61.49-1.25.94-1.85,1.44a.8.8,0,0,1-.76.21,14.58,14.58,0,0,1-1.48-.38,2.72,2.72,0,0,0-2.69.46,17.53,17.53,0,0,0-1.71,1.52,1.83,1.83,0,0,0-.42.86c-.26,1.15-.48,2.31-.72,3.47a10.37,10.37,0,0,1-.46,1.74,2.48,2.48,0,0,1-2,1.57,4.63,4.63,0,0,1-2-.15,7.71,7.71,0,0,0-2.45-.45,6.43,6.43,0,0,0-4,1.62l-.37.34a1.43,1.43,0,0,1,0-.22l1.28-3.08a3.12,3.12,0,0,1,1.83-1.71c.53-.21,1.06-.44,1.61-.64A4.94,4.94,0,0,0,41.61,73c.27-1.34.54-2.69.72-4a3.62,3.62,0,0,0-.18-1.49A1,1,0,0,0,40.44,67a20,20,0,0,0-2.16,2.44c-1,1.38-2.08,2.6-3.14,3.89a22.65,22.65,0,0,0-1.62,2.17c-.71,1.14-1.35,2.32-2,3.48a2,2,0,0,1-.54.61,1.35,1.35,0,0,0-.61,1c-.07.46-.1.92-.13,1.38a8.32,8.32,0,0,1-.73,3.58c-.09.16-.19.32-.29.47s-.1.08-.22.16A17.48,17.48,0,0,0,28.65,82,6.83,6.83,0,0,1,29.88,77a20.92,20.92,0,0,1,2-2.39A29,29,0,0,0,35.81,70a16.87,16.87,0,0,0,2.32-4.72c.12-.42.27-.84.42-1.25a6.59,6.59,0,0,0,.36-2.6,2.78,2.78,0,0,0-.24-.93.91.91,0,0,0-1.46-.5A6.88,6.88,0,0,0,36,61,28,28,0,0,0,32.41,66c-.68,1.1-1.25,2.27-1.88,3.4a10.19,10.19,0,0,1-.66,1.22C29,71.75,28.2,72.92,27.31,74c-1.24,1.56-2.54,3.07-3.81,4.61a4.45,4.45,0,0,0-.45.77,7.36,7.36,0,0,1-.47.93,4.64,4.64,0,0,0-.78,3.24c.05.46.08.92.13,1.38a3.24,3.24,0,0,1-.54,2.18,21.39,21.39,0,0,1-3.28,3.95c-.56.52-1.05,1.11-1.57,1.67-.2.2-.24.67-.69.56-.36-.5.12-1.17.41-1.66a1,1,0,0,1,.71-.33,1.09,1.09,0,0,0,1-.73,14.8,14.8,0,0,0,.63-1.68c.28-.91.5-1.83.78-2.74A5.24,5.24,0,0,1,19.85,85a10.3,10.3,0,0,0,1-2.52,24.37,24.37,0,0,1,1.66-4.11,4.68,4.68,0,0,1,.53-.73c.54-.69,1.08-1.39,1.65-2.06.37-.43.8-.83,1.2-1.25a16.2,16.2,0,0,0,2.5-3.58,1,1,0,0,0,.12-.45c0-.66-.25-.83-.87-.61-.22.07-.57.61-.74.3-.05-.54.66-1.09,1.06-1.51A18.42,18.42,0,0,0,30.76,64.5Zm.63,17.63a.89.89,0,0,1-.05-1.07.55.55,0,0,1,.64-.31l.13.09C32.19,81.23,31.86,82.21,31.39,82.13Zm6.82-9.51C38,72,39,71.31,39.65,71a.48.48,0,0,1,.67.11c.21.26.09.48-.11.67C39.69,72.26,38.84,73,38.21,72.62Z"/><path class="cls-2" d="M69.64,81.71a6.52,6.52,0,0,1,.3,1.7c0,.81,0,1.62,0,2.43a6.28,6.28,0,0,0,1.12,3.24,10.33,10.33,0,0,0,1.57,1.67c1,.88,2.1,1.67,3.13,2.53a6.41,6.41,0,0,1,2.5,3.89c.09.52.15,1.06.19,1.59a14.06,14.06,0,0,0,1.21,4.9,2.24,2.24,0,0,1,.07,1.94,7.15,7.15,0,0,0-.45,3.21,4.18,4.18,0,0,0,2.38,3.66,9.15,9.15,0,0,0,3.08,1,8.09,8.09,0,0,1,1.3.26v-3.59l-.45-.08A7.41,7.41,0,0,1,82.84,109a3.3,3.3,0,0,1-1.62-3.16c.07-.53.27-1,.35-1.56a7.36,7.36,0,0,0,.09-2.69A13.52,13.52,0,0,0,80.91,99a5.46,5.46,0,0,1-.44-1.31c-.23-1.23-.42-2.47-.64-3.7a6.1,6.1,0,0,0-1.19-3A3.85,3.85,0,0,1,78,90a4.41,4.41,0,0,0-1.31-1.59,2.65,2.65,0,0,1-.34-.33c-.24-.28-.44-.59-.7-.84-.89-.84-1.83-1.63-2.7-2.5a4.15,4.15,0,0,1-1.32-3.1A12.13,12.13,0,0,0,71.35,79a15.53,15.53,0,0,0-.84-2.55,1.27,1.27,0,0,0-1.31-.86,2.79,2.79,0,0,0-1.82.76,5.92,5.92,0,0,0-1.69,3.36,14,14,0,0,1-1.11,3.43,12.51,12.51,0,0,1-2.2,3A8.5,8.5,0,0,0,60.51,89c-.48,1.47-1,2.95-1.36,4.45a4.87,4.87,0,0,0,.73,4.36,4.61,4.61,0,0,0,.73.69c.43.23.84.48,1.27.68s.93.31,1.37.5.52.39.81.5a3.37,3.37,0,0,0,1.67.4,1.15,1.15,0,0,1,1,.15,1.23,1.23,0,0,0,1.21.25,1,1,0,0,1,1.16.36,2.82,2.82,0,0,0,.91.73,20,20,0,0,1,3.54,2.18,1.53,1.53,0,0,0,1.64.17,2.61,2.61,0,0,0,1.54-1.76c.18-.6.37-1.2.59-1.78a2,2,0,0,0-1-2.69c-.47-.24-1-.42-1.45-.67A21.86,21.86,0,0,0,70.11,96c-1.57-.41-3.17-.69-4.75-1a8.72,8.72,0,0,1-3.26-1.49,1.5,1.5,0,0,1-.33-2.33c.31-.4.67-.77,1-1.15a13,13,0,0,0,2.41-3.87c.47-1.16.82-2.36,1.26-3.53a4.62,4.62,0,0,1,.72-1.33A1.38,1.38,0,0,1,69.64,81.71Z"/><path class="cls-2" d="M36.41,15.72a26.54,26.54,0,0,0,3.67-.38A45.48,45.48,0,0,0,47.9,13,33,33,0,0,0,55,9.73a24.64,24.64,0,0,1,7-3A52.81,52.81,0,0,1,70,5.36a19.43,19.43,0,0,1,8.14.47A33.25,33.25,0,0,1,82,7.29a11.19,11.19,0,0,0,3.81,1.34h.2V3a1.71,1.71,0,0,1-.3-.09C83.27,2,81,.71,78.37.12L77.68,0A85.09,85.09,0,0,0,55.57,5.16,39.15,39.15,0,0,1,48.3,8.64c-1.32.57-2.63,1.17-4,1.72A86.49,86.49,0,0,0,36,15.67,1.93,1.93,0,0,0,36.41,15.72Z"/><path class="cls-2" d="M84,145.07a8.13,8.13,0,0,0-3.22,1.85,3.79,3.79,0,0,1-.69.58,9.65,9.65,0,0,0-2.42,2.56c-.87,1.2-1.61,2.49-2.45,3.71a9.5,9.5,0,0,1-6.9,4.45c-1.19.13-2.4.18-3.59.34a9.3,9.3,0,0,1-4.22-.57,11.46,11.46,0,0,1-4.15-2.46A32.11,32.11,0,0,1,51.69,150c-.94-1.32-1.84-2.67-2.78-4-.52-.71-1.1-1.38-1.65-2.06a9.32,9.32,0,0,0-.66-.86c-.43-.44-.88-.87-1.35-1.28a13.91,13.91,0,0,0-1.16-.86,16.77,16.77,0,0,0-4.36-1.79c-.77-.25-1.55-.47-2.33-.68s-1.49-.33-2.22-.56c-2.16-.69-4.3-1.45-6.46-2.13-1.26-.39-2.54-.73-3.83-1s-2.45-.43-3.68-.67a13.48,13.48,0,0,0-3.11,0l-1.3,0c-.18,0-.4-.2-.66-.08s.09.59.19.83a11.1,11.1,0,0,0,1.23,2.52c.3.38.55.74,1.05.79a23.2,23.2,0,0,0,2.76.25,9.31,9.31,0,0,1,2.88.32,9.06,9.06,0,0,0,1.15.25,35.9,35.9,0,0,1,5.88,1.39c1.66.59,3.33,1.17,5,1.69,2.74.85,5.57,1.39,8.24,2.49a7.89,7.89,0,0,1,2.58,1.6c.48.47,1,1,1.4,1.45a9.76,9.76,0,0,1,1,1.22c.95,1.42,1.85,2.88,2.79,4.31a38.65,38.65,0,0,0,4.19,5.36,16.29,16.29,0,0,0,3.42,2.9,12.46,12.46,0,0,0,7,1.8c1.78-.08,3.55-.34,5.32-.57a6.16,6.16,0,0,0,2.9-1.27A15.14,15.14,0,0,0,79,157.1,24.9,24.9,0,0,1,82.9,152a10.05,10.05,0,0,1,3.15-2.14V144.4C85.35,144.59,84.66,144.81,84,145.07Z"/><path class="cls-2" d="M85,59c0,.16-.09.32-.15.46a4.46,4.46,0,0,1-2.26,2.62,5.77,5.77,0,0,0-1.75,1.19,2,2,0,0,0-.64,1.27,8.76,8.76,0,0,1-.38,1.76A5.79,5.79,0,0,0,79.64,69a1.87,1.87,0,0,0,.8,1.41,12.87,12.87,0,0,0,1.46.8,27,27,0,0,0,4.15,1.47V68a8.14,8.14,0,0,1-2-.4c-.44-.16-.9-.24-1.34-.36a1.77,1.77,0,0,1-1.11-.66c.28-.23.53-.46.81-.65a8.69,8.69,0,0,0,3-3.58c.2-.44.37-.9.61-1.33l.07-.08V57.68C85.32,58.06,85.29,58.11,85,59Z"/><path class="cls-2" d="M76.49,60.36a1.71,1.71,0,0,0-.35.21,2.83,2.83,0,0,1-1.47.72c-1.34.3-2.67.62-4,.94A5,5,0,0,0,66.89,67a7,7,0,0,0,1.73,4.94,3.74,3.74,0,0,0,2.78,1.21c.95,0,1.91,0,2.85.15a21.78,21.78,0,0,1,4.92,1.17,10.43,10.43,0,0,1,3.65,2c1.1,1,2.16,2,3.23,3V75.55c-.61-.54-1.22-1.09-1.85-1.62a13.3,13.3,0,0,0-3.86-2,4,4,0,0,0-2.1-.28,2.24,2.24,0,0,1-.89-.09,16.22,16.22,0,0,0-4.76-.47,6.24,6.24,0,0,1-1.77-.23,2.57,2.57,0,0,1-1.18-.7,6.15,6.15,0,0,1-1.5-2.77,2,2,0,0,1,1-2.49,5.93,5.93,0,0,1,2.4-.86,13.23,13.23,0,0,0,6.6-2.9,5.49,5.49,0,0,0,.55-.53c.33-.38.45-1.1.17-1.34s-.36.07-.51.14Z"/><path class="cls-2" d="M85.12,105.13c.3.5.61,1,.93,1.45V90a22.58,22.58,0,0,0-2.19,8.84A11.39,11.39,0,0,0,85.12,105.13Z"/><path class="cls-2" d="M69,167.54c.58-.29,1.19-.51,1.78-.78a24.17,24.17,0,0,0,8.34-5.63,5.83,5.83,0,0,1,.78-.61s.08-.05.1,0a.41.41,0,0,1,0,.19,1.7,1.7,0,0,1,0,.22,6.3,6.3,0,0,1-2.49,3.64,21.24,21.24,0,0,1-2.75,1.74,8,8,0,0,1-2.79.87l-.29,0a.71.71,0,0,0-.32.07,1,1,0,0,0-.2.21c-.1.15-.18.31-.37.37s-.4.11-.48.24a7.71,7.71,0,0,0-.67,1.35c-.18.47-.1.63.42.72a3.5,3.5,0,0,0,1.29,0,5.59,5.59,0,0,1,3.48,0c.28.12.58.16.87.27a9,9,0,0,0,4.52.39,5.7,5.7,0,0,0,2.28-.79A9.13,9.13,0,0,0,86,165.82v-5.63c0-.18-.07-.36-.11-.53a1.19,1.19,0,0,1,.11-.9v-2.25l-.33.29a2.69,2.69,0,0,0-.85,1.56,14.28,14.28,0,0,1-.38,2,2.85,2.85,0,0,0-.12,1.5c.14.77.33,1.54.44,2.32a2,2,0,0,1-.1,1.2,3.88,3.88,0,0,1-2.38,1.9c-.54.15-1.1.18-1.63.34a6,6,0,0,1-3.36-.15c-.19-.05-.54-.07-.65-.24s.29-.33.42-.45c.34-.28.67-.56,1-.83a7.21,7.21,0,0,0,2.71-4.24,3.64,3.64,0,0,1,.9-1.78,2.7,2.7,0,0,0,.66-1.64c.08-.62-.1-.79-.69-.62a5.27,5.27,0,0,0-2.46,1.61c-.51.56-1,1.13-1.54,1.67a3.8,3.8,0,0,1-.8.65c-1.24.76-2.49,1.5-3.74,2.24a6.65,6.65,0,0,1-1,.53A13.73,13.73,0,0,0,69.3,166a3.64,3.64,0,0,1-1.94.61,28.83,28.83,0,0,1-4,.08,2.65,2.65,0,0,0-.48-.07,9,9,0,0,1-3.92-.65,9.42,9.42,0,0,1-2.43-1.32c-.58-.4-1-1-1.6-1.41a3.9,3.9,0,0,1-1.38-1.87,5.75,5.75,0,0,0-1.42-2.11c-.17-.15-.31-.34-.47-.51a15.69,15.69,0,0,0-3.48-3.07,6.91,6.91,0,0,1-2-2.06,36.66,36.66,0,0,0-3.17-4,5.24,5.24,0,0,0-2-1.39c-.62-.26-1.24-.54-1.85-.81-.86-.39-1.71-.81-2.58-1.18-1.3-.56-2.6-1.12-3.93-1.6s-2.47-.79-3.71-1.16c-.82-.25-1.65-.45-2.46-.72a10.52,10.52,0,0,0-1.65-.22c-.84-.15-1.46-.58-1.43.6,0,.48.1.64.55.75A3.67,3.67,0,0,0,25,144a4.49,4.49,0,0,1,1.71.16c.67.2,1.35.34,2,.52s1.35.35,2,.59c1.54.58,3.06,1.22,4.6,1.8a29.34,29.34,0,0,1,3.82,1.65c.4.23.86.35,1.27.57a6.51,6.51,0,0,1,1.58,1,20.64,20.64,0,0,1,2.73,3.24,11.72,11.72,0,0,0,3,3.21,21.12,21.12,0,0,1,2.18,1.83,11.35,11.35,0,0,1,3,4.08,3,3,0,0,0,.61.83A19.86,19.86,0,0,0,55.07,165a12.3,12.3,0,0,0,2.06,1.63,14.26,14.26,0,0,0,2.25,1l.65.22a13.89,13.89,0,0,0,4.56.61A10.08,10.08,0,0,0,69,167.54Z"/><path class="cls-2" d="M50.62,130.17a10.34,10.34,0,0,1-2.58-.5c-1.42-.42-2.84-.82-4.26-1.25-.89-.26-1.78-.51-2.64-.85a7.65,7.65,0,0,1-1.19-.82,10.24,10.24,0,0,1-2.11-1.89,3.65,3.65,0,0,1-1.05-2.06,2,2,0,0,0-.22-.65,1.1,1.1,0,0,1,.06-1c.23-.53.5-1,.73-1.57.33-.76.12-1.39-.63-1.61a4.73,4.73,0,0,0-2.88-.1,7.83,7.83,0,0,0-3.42,2.31c-.82,1-1.58,2-2.37,3-.46.58-1,1.13-1.37,1.75a1.63,1.63,0,0,1-1,.76,21.23,21.23,0,0,0-4.3,1.92,46,46,0,0,0-6,3.9,1.71,1.71,0,0,0-.79,1.3c.23.35.67.35,1.05,0a24.34,24.34,0,0,1,4-2.26,3,3,0,0,1,.8-.14,6.72,6.72,0,0,0,1.2-.25,18.56,18.56,0,0,0,1.7-.78,8.5,8.5,0,0,1,5.28-.71c.87.15,1.75.21,2.63.31s1.51.16,2.26.29c.55.09,1.07.28,1.62.39A15.07,15.07,0,0,1,39,130.89c1.25.61,2.52,1.19,3.74,1.84a44.34,44.34,0,0,0,5.4,2.21c2,.74,4,1.34,6,2.05a5.27,5.27,0,0,0,6.49-2.2,3.58,3.58,0,0,1,.36-.59,2,2,0,0,0,.43-1.35c0-.37,0-.75,0-1.12a6.7,6.7,0,0,1,.13-2.14,4.54,4.54,0,0,0,.14-.82,2.23,2.23,0,0,1,1.42-2,2.14,2.14,0,0,1,3.15,1.41,6.36,6.36,0,0,1-.52,4.66,7.19,7.19,0,0,0-1.06,2.77,2.74,2.74,0,0,1-.54,1.62.43.43,0,0,0,.16.7,7.28,7.28,0,0,0,1.4.75,1.86,1.86,0,0,0,1.56-.08,5.28,5.28,0,0,0,3-3.84c.17-1.1.34-2.2.49-3.3s.24-2,.31-3c0-.43-.16-.87-.13-1.3a3.56,3.56,0,0,0-.68-2.14,10.42,10.42,0,0,0-1.53-1.78,1.61,1.61,0,0,0-1.28-.58q-1,0-2.07.18c-.57.08-1.13.24-1.71.32a13.23,13.23,0,0,0-4.32,1.19,1.36,1.36,0,0,0-.58.56,7.47,7.47,0,0,0-.47,1.3c-.22.83-.39,1.67-.64,2.49a3.15,3.15,0,0,1-2.48,2.18,1.25,1.25,0,0,1-.74-.06A11.12,11.12,0,0,0,50.62,130.17Zm5.18,1.76a6.84,6.84,0,0,0,2.49-2.07,10.63,10.63,0,0,0,.86-1.8,8.15,8.15,0,0,0,.4-1.69A1.56,1.56,0,0,1,61,125c.92-.2,1.86-.34,2.8-.5.59-.1,1.19-.22,1.78-.28a5.25,5.25,0,0,1,1.31,0,1.43,1.43,0,0,1,.76.45,5.82,5.82,0,0,1,1.82,5c-.12.75-.25,1.51-.37,2.26s-.27,1.65-.4,2.47l-.24,1.58a3,3,0,0,1-.12.4c-.18.44-.5.94-1,1a1.19,1.19,0,0,1-.85-.25c-.4-.32-.14-.51,0-.88.07-.18.19-.42.13-.57a2.4,2.4,0,0,1,.16-1.69c.43-1.23.87-2.44,1.3-3.66a1,1,0,0,0,.06-.41c-.11-.9-.19-1.8-.37-2.68a3.19,3.19,0,0,0-3-2.33,4.6,4.6,0,0,0-1.87.69,5.36,5.36,0,0,0-2.7,3.54,12.25,12.25,0,0,0-.47,3.85,9.2,9.2,0,0,1,0,1.05,2.71,2.71,0,0,1-3.25,2.39,36,36,0,0,1-4.81-1.57c-1-.45-2.17-.65-3.25-1S46,133,44.83,132.49c-1.31-.54-2.58-1.16-3.84-1.79a16.94,16.94,0,0,0-3.31-1.42c-1.8-.46-3.59-1-5.41-1.29s-3.59-.34-5.39-.5c-.11,0-.43,0-.46,0s.19-.41.31-.55c.32-.37.66-.72,1-1.06A10.68,10.68,0,0,0,29.87,123a1.45,1.45,0,0,1,.68-.66,3.76,3.76,0,0,1,3-.08,2.13,2.13,0,0,1,1,.89,6.8,6.8,0,0,1,.42.8,6.29,6.29,0,0,0,1.8,2.43c.61.58,1.23,1.14,1.84,1.71a5.53,5.53,0,0,0,2.49,1.3c1.64.41,3.28.85,4.88,1.38a15.23,15.23,0,0,0,3.39.69,17.8,17.8,0,0,1,4,.76A2.87,2.87,0,0,0,55.8,131.93Z"/><path class="cls-2" d="M5.91,70.26A25.4,25.4,0,0,0,12,66.77a16.77,16.77,0,0,0,2.52-2.06,33,33,0,0,0,3.62-4.29,19.12,19.12,0,0,0,2.45-4.59q.6-1.95,1.14-3.93a7.22,7.22,0,0,0,.14-3,2.47,2.47,0,0,1,1-2.63,1.94,1.94,0,0,0,.27-.21,18.78,18.78,0,0,0,3.85-4.53,7,7,0,0,0,.95-2.85,11.62,11.62,0,0,0,0-1.18A18.83,18.83,0,0,0,27.59,33c-.25-1-.12-1.26.8-1.8L28.7,31a6.85,6.85,0,0,1,2.55-.6c1-.07,2-.14,2.91-.23a1.24,1.24,0,0,0,1.11-.61A2.34,2.34,0,0,0,35.52,28a9.39,9.39,0,0,0-.83-2,2.55,2.55,0,0,0-2.56-1.25c-.26.08-.08.51-.41.57a5.44,5.44,0,0,0-.78.25c-1.06.35-2.12.66-3.16,1-1.85.67-3,2.25-4.27,3.56a25.76,25.76,0,0,0-1.93,3.77c-.32,1-.6,2-.93,3-.49,1.43-1,2.83-1.51,4.26a39.28,39.28,0,0,1-1.62,4.36,16.44,16.44,0,0,0-.83,2.29,14.44,14.44,0,0,1-2.12,4.42,14.23,14.23,0,0,0-2.13,3.41c-.33.87-.66,1.73-.94,2.62a4.45,4.45,0,0,1-2.11,2.57,17.77,17.77,0,0,1-3.86,2c-.13,0-.23.16-.35.22a7.51,7.51,0,0,1-2.5,1c-.23.87-.42,1.76-.62,2.64a16.69,16.69,0,0,0,1.78-.8A35.57,35.57,0,0,0,8.7,63.3a8.83,8.83,0,0,0,2.86-2.78,19.42,19.42,0,0,0,1.65-3.81,9,9,0,0,1,1.27-2.47,17.36,17.36,0,0,0,1.16-1.55,22.31,22.31,0,0,0,2.08-4.62,8.13,8.13,0,0,1,.42-1.32,62.24,62.24,0,0,0,2.66-7.08c.49-1.3.79-2.66,1.23-4a15.9,15.9,0,0,1,1.54-3.55,10.45,10.45,0,0,1,2.88-2.86,3.08,3.08,0,0,1,.61-.28l.09.12c0,.08-.07.16-.12.24a6.23,6.23,0,0,0-.92,5.1c.21.86.32,1.73.48,2.6a3.36,3.36,0,0,1-.95,3.12c-.77.8-1.58,1.56-2.4,2.31S21.39,44,21.18,45.24a4.58,4.58,0,0,1-.38.89,21.61,21.61,0,0,0-.91,2.25,10.7,10.7,0,0,0-.38,3.86c0,.58,0,1.16.07,1.74A5.23,5.23,0,0,1,18,57.64c-.44.51-.94,1-1.33,1.51a16.42,16.42,0,0,1-3.28,3.38,28.94,28.94,0,0,1-6,3.93,1.36,1.36,0,0,0-.65.49,2.54,2.54,0,0,1-1.63,1.2,7.79,7.79,0,0,0-.85.31A21.4,21.4,0,0,0,1.62,69.6l-.21.12c-.13.73-.27,1.46-.39,2.2C2.66,71.39,4.3,70.87,5.91,70.26Z"/><path class="cls-2" d="M7.21,55.54A40.89,40.89,0,0,0,10.74,50a38.35,38.35,0,0,0,2.31-6.61,13.6,13.6,0,0,1,2.79-5.53c1.15-1.26,2.24-2.58,3.27-3.94a43.61,43.61,0,0,0,3.51-5.74,1.73,1.73,0,0,0,.18-.8s0-.05,0-.07A86.4,86.4,0,0,0,11.71,42.23a14.07,14.07,0,0,1-.92,2.52c-.41.8-.79,1.63-1.18,2.44a27.89,27.89,0,0,1-2.77,4.64c-.85,2-1.61,4-2.31,6.07A8.7,8.7,0,0,0,7.21,55.54Z"/><path class="cls-2" d="M31,151.73a5.27,5.27,0,0,0,1.68.33,16.81,16.81,0,0,1,2.84.57,1.07,1.07,0,0,1,.36.2l.76.47a9.88,9.88,0,0,1,.91.64c.89.76,1.75,1.55,2.64,2.31.26.23.54.44.81.65a14.29,14.29,0,0,1,2.44,2.15c.3.38.41.79,1,.56.34-.15.42-.31.46-.7a3.54,3.54,0,0,0-.1-1.35.93.93,0,0,0-.21-.35,17.41,17.41,0,0,0-1.69-1.54,21,21,0,0,1-4.33-4,17.19,17.19,0,0,0-1.39-1.56,20.12,20.12,0,0,0-3.46-2.77,8.89,8.89,0,0,0-3-.91,2.2,2.2,0,0,0-.92.07c-.77.15-1.2,0-1.65.68a4.31,4.31,0,0,0-.61,1.65q1.51,1.39,3.09,2.73Z"/></svg>