<svg id="Layer_1" data-name="Layer 1" xmlns="http://www.w3.org/2000/svg" viewBox="0 0 172.19 172.08"><defs><style>.cls-1{fill:#2e5b66;}.cls-2{fill:#e7b00c;}</style></defs><title>Artboard 20</title><path class="cls-1" d="M31.46,20.16l.79-.17a3,3,0,0,1,.8-.19c1.12.05,2.23.15,3.35.21a20.08,20.08,0,0,0,5.25-.24c1.74-.38,3.5-.67,5.25-1,.56-.1,1.14-.11,1.71-.16A27.94,27.94,0,0,0,54,17.47c3-.85,5.93-1.72,8.86-2.69,2.55-.84,5-1.85,7.56-2.74a10.06,10.06,0,0,1,2.35-.56,12.26,12.26,0,0,1,4.69.58c.78.24,1.54.49,2.31.76a18.42,18.42,0,0,0,2,.75c1.33.31,2.65.65,4,1V9.4c-.81-.28-1.63-.55-2.46-.78-2-.58-4.11-1-6.1-1.72a33.21,33.21,0,0,0-3.27-1,7,7,0,0,0-4.75.28C67.75,6.85,66.3,7.45,64.84,8l-7,2.77c-.11,0-.26.07-.32.16a2.72,2.72,0,0,1-1.5.9c-.82.31-1.66.58-2.46.94a3.25,3.25,0,0,1-1.4.41.63.63,0,0,0-.46.28,1.49,1.49,0,0,1-.89.67,14.62,14.62,0,0,1-3.45.84c-1.27.12-2.53.38-3.85.59.15.65-.25.79-.66.87-1,.2-2.1.42-3.16.56-.49.07-1-.07-1.43.29a.49.49,0,0,1-.28.05l-1.85,0H33.9c-.88.66-1.74,1.33-2.58,2A1.21,1.21,0,0,0,31.46,20.16Z"/><path class="cls-1" d="M24.28,62.64c-1.21,1.11-2.72,1.83-3.8,3.09-.57.67-1.23,1.26-1.83,1.9s-1.13,1.36-1.75,2q-2.17,2.16-4.43,4.25C11.21,75,10,76.18,8.6,77.22a16.16,16.16,0,0,0-2.72,2.7,23.07,23.07,0,0,0-4.12,6.55c0,.11-.11.21-.16.32a8.4,8.4,0,0,0-.94,6c.13.5.27,1,.45,1.5.28.73.66,1.43.92,2.17a39.75,39.75,0,0,0,3.47,6.78,52.52,52.52,0,0,0,3.27,5.1,13.22,13.22,0,0,0,4.77,4.3c.17.08.31.21.48.3a1.88,1.88,0,0,1,.92,2.07,6.14,6.14,0,0,1-2.43,4.36c-.72.5-1.41,1.06-2.16,1.51a2.79,2.79,0,0,0-1,1.37.87.87,0,0,0,1,.19,15.44,15.44,0,0,0,1.7-1c1.27-.92,2.54-1.85,3.75-2.83A8.68,8.68,0,0,0,18,116.39,8.7,8.7,0,0,0,19.36,111a2.2,2.2,0,0,0-.91-1.71c-.41-.28-.83-.54-1.26-.8a10.38,10.38,0,0,1-2.85-2.12c-1-1.16-2-2.33-2.82-3.58A36.28,36.28,0,0,1,8.71,98c-.3-.61-.72-1.17-1.06-1.77a8.59,8.59,0,0,1-.56-1.14c-.49-1.31-.87-2.66-1.49-3.93a5.1,5.1,0,0,1-.51-1.84,7.35,7.35,0,0,1,.67-4.1c.14-.27.26-.56.39-.84a19.83,19.83,0,0,1,2.85-5c.86-1,1.63-2,2.51-3,.56-.61,1.28-1.07,1.88-1.64,1.39-1.3,2.76-2.63,4.12-4,.6-.58,1.22-1.14,1.76-1.77a27.37,27.37,0,0,1,4.55-4.19,16.22,16.22,0,0,0,1.44-1.16c1.27-1.18,2.55-2.35,3.78-3.57.75-.76,1.44-1.57,2.12-2.4C32.37,56.2,33,54.37,34,52.75a4.39,4.39,0,0,0,.48-1.11,6,6,0,0,1,1.92-2.94c.77-.68,1.57-1.3,2.36-2a19,19,0,0,0,1.75-1.45,10.25,10.25,0,0,0,1.85-2.86,7.66,7.66,0,0,1,1.78-2.38,1.17,1.17,0,0,1,2,.47,3.31,3.31,0,0,1,.18.84,21.72,21.72,0,0,1-.09,4.34,12.59,12.59,0,0,0,1.62,8.52,7,7,0,0,0,2,2.1c.73.49,1.15.45,1.64-.25a5.82,5.82,0,0,0,.82-1.56,13,13,0,0,0,.67-4.84,5.61,5.61,0,0,1,0-.58,9.8,9.8,0,0,0-.72-4c-.52-1.43-.95-2.89-1.35-4.36-.25-.91,0-1.26.87-1.57.36-.12.74-.19,1.11-.29l.54-.16c.66-.18,1.32-.39,2-.52a14.48,14.48,0,0,0,3.82-1.07,1.77,1.77,0,0,0,.22-3.08,1.4,1.4,0,0,1-.79-1.64l-1.07-.31c-.22-.07-.45-.16-.39-.42.16-.72-.24-1-.82-1.25s-1.08-.86-1.59-1.5c.3-.26.52-.48.76-.66q.78-.61,1.59-1.2a5.68,5.68,0,0,1,.9-.57,20.71,20.71,0,0,1,7.5-1.87,25.33,25.33,0,0,0,5.73-1,2.31,2.31,0,0,0,.72-.31,5.63,5.63,0,0,1,2.24-.83c.76-.17,1.65,0,2.23-.77a.3.3,0,0,1,.2-.06,4.17,4.17,0,0,1,3.39,1c1.22,1.23,2.65,2.23,3.76,3.58.07.09.17.16.25.25.58.61,1.16,1.21,1.73,1.82v-4c-1-.85-2-1.7-3-2.54a11.66,11.66,0,0,1-2-2,3.4,3.4,0,0,1,1,.27c.87.44,1.73.9,2.57,1.38.46.25.9.52,1.35.77V19.67c-.8-.45-1.62-.89-2.43-1.33a14.67,14.67,0,0,1-1.57-.83,7.83,7.83,0,0,0-3.28-1.3,42.25,42.25,0,0,0-6.72-.82c-1.81,0-3.61-.13-5.42-.18a3.7,3.7,0,0,0-1,.14A17.46,17.46,0,0,0,61,16.78a1.17,1.17,0,0,1-.26.1,11.83,11.83,0,0,0-3.72,1.91,38.48,38.48,0,0,0-3.65,2.85A56.76,56.76,0,0,0,48.9,25.9a12.52,12.52,0,0,1-1.25,1.36,4.19,4.19,0,0,0-1.29,1.67c-.34.73-.68,1.47-1,2.21a6.69,6.69,0,0,1-2.84,3.46c-1,.52-2,.93-3,1.37-.8.35-1.64.64-2.43,1a6.07,6.07,0,0,0-2.85,2.4A12.79,12.79,0,0,0,33.42,41c-.42,1-.84,2-1.17,3.05a13.11,13.11,0,0,0-.32,4.67,2.47,2.47,0,0,1-1,2.37l-4.16,3c-.88.64-1.81,1.23-2.64,1.94A30.74,30.74,0,0,0,19,61.79a15,15,0,0,1-2.6,2.91A53.43,53.43,0,0,1,11.66,68c-.83.55-1.75,1-2.61,1.46C8,70.08,7,70.72,5.93,71.35A23.57,23.57,0,0,0,2.19,74a6.09,6.09,0,0,0-.76.92,9.76,9.76,0,0,1-.55.82,4.48,4.48,0,0,0-.68,1c-.08.74-.14,1.49-.2,2.23l0,0,.44-.43a6.68,6.68,0,0,1,.71-.7c.74-.52,1.48-1,2.24-1.51a66.81,66.81,0,0,1,6.41-3.55,11.35,11.35,0,0,0,1.2-.63c1-.63,1.89-1.29,2.82-1.94a18.41,18.41,0,0,0,4-3.94,40.84,40.84,0,0,1,2.66-3.33c1-1.06,2.11-2,3.2-2.95A5.34,5.34,0,0,1,25,59a17.23,17.23,0,0,0,3.26-2.16,6.48,6.48,0,0,1,1.67-1,13.78,13.78,0,0,1-1.69,2.8A29.86,29.86,0,0,1,24.28,62.64ZM34,47.86c0-1.11.08-2.23.12-3.34,0-.48,0-1,0-1.43a1.74,1.74,0,0,1,.77-1.46,24.62,24.62,0,0,1,2.42-1.32c.53-.26,1.09-.45,1.63-.66s1.3-.46,1.93-.72A6.92,6.92,0,0,0,43.54,37a11.39,11.39,0,0,0,2-3.43,14.65,14.65,0,0,1,2.27-4.09,27.43,27.43,0,0,1,4.53-4.67c1-.8,2-1.63,3-2.37s2-1.33,3.06-1.94c.78-.45,1.6-.82,2.41-1.22.39-.19.77-.37,1.17-.53s1.06-.4,1.6-.58a16.2,16.2,0,0,1,6-.5c.66,0,1.32.07,2,.11l0,.22c-1.07.21-2.15.39-3.21.64a33.52,33.52,0,0,1-3.74.47,9.72,9.72,0,0,0-1.33.23,39.58,39.58,0,0,0-3.9,1.12,9.46,9.46,0,0,0-3.15,2.17,14.61,14.61,0,0,0-2.76,3.06,5.08,5.08,0,0,0-.72,1.92,6.13,6.13,0,0,1-.71,2.23,3.37,3.37,0,0,0-.23,1A11.56,11.56,0,0,0,51.65,32a1.23,1.23,0,0,0,.13.66A5.7,5.7,0,0,0,53.6,34.4a10.47,10.47,0,0,0,2.82,1.45c.08,0,.14.12.3.27a8.7,8.7,0,0,1-.81.33c-1.31.35-2.63.66-3.93,1a8.29,8.29,0,0,0-1.5.65,2.18,2.18,0,0,0-1,1.49,5.49,5.49,0,0,0,.06,3.16c.39,1.22.8,2.44,1.22,3.66a11.92,11.92,0,0,1,.58,4.78c-.06.75-.21,1.5-.33,2.25a3.51,3.51,0,0,1-.18.55,2,2,0,0,1-1.31-1.16c-.44-.73-.8-1.51-1.23-2.25A4.69,4.69,0,0,1,47.69,48c0-1.17.05-2.33.08-3.49,0-.31.08-.61.08-.92q0-1.17,0-2.34c0-.36-.11-.71-.12-1.06,0-1.53-2.11-2.38-3.46-1.45a6.15,6.15,0,0,0-1.73,1.68c-.61.93-1.23,1.86-1.81,2.82a5.12,5.12,0,0,1-2,1.93,10.89,10.89,0,0,0-2.53,2c-.76.71-1.51,1.43-2.32,2.2C33.86,48.76,33.93,48.31,34,47.86Z"/><path class="cls-1" d="M41,134.83a25.22,25.22,0,0,1,2.55.68c1.16.42,2.29.93,3.43,1.41a14.12,14.12,0,0,1,3.65,2.32q2.37,2,4.8,3.94a7,7,0,0,0,4.31,1.67,5,5,0,0,0,2.84-.75,9.94,9.94,0,0,1,2.88-1.38,7.07,7.07,0,0,1,4.19.46A19.81,19.81,0,0,0,75,144.54a14.71,14.71,0,0,0,3.63.1,20.74,20.74,0,0,0,6.73-2.47l.43-.26v-3.47l-.11.06a32.52,32.52,0,0,1-4.88,2.5,12.76,12.76,0,0,1-5.86.92c-.73-.1-1.46-.17-2.2-.24a10.12,10.12,0,0,1-3.22-.86,14.57,14.57,0,0,0-3.57-.94,3.38,3.38,0,0,0-.71,0,7.13,7.13,0,0,0-3.59,1.26,5,5,0,0,1-5.76.21,17.22,17.22,0,0,1-1.54-1.16c-1.18-.95-2.37-1.89-3.54-2.87a12,12,0,0,0-2.87-2c-1.11-.49-2.19-1-3.32-1.47a25.91,25.91,0,0,0-2.73-.81c-1.15-.28-2.31-.52-3.47-.77-.72-.16-1.44-.32-2.17-.44s-1.27-.15-1.9-.28a4.26,4.26,0,0,0-1.81,0c-2,.46-4,.84-6,1.2a7.39,7.39,0,0,1-1.76,0c-.42,0-.69.09-.82.46a.84.84,0,0,0,.91.77,14.88,14.88,0,0,0,2.11-.17c1.08-.18,2.14-.44,3.21-.69a10.36,10.36,0,0,1,5,.17C37.1,133.87,39.07,134.34,41,134.83Z"/><path class="cls-1" d="M72.34,80.53a6.92,6.92,0,0,1,.31,1.74c0,.83-.05,1.67,0,2.5a6.38,6.38,0,0,0,1.15,3.32,10.49,10.49,0,0,0,1.61,1.72c1,.9,2.15,1.71,3.22,2.59a6.59,6.59,0,0,1,2.55,4,15.11,15.11,0,0,1,.2,1.63,14.53,14.53,0,0,0,1.24,5,2.34,2.34,0,0,1,.08,2,7.21,7.21,0,0,0-.47,3.29,4.28,4.28,0,0,0,2.44,3.75,8.73,8.73,0,0,0,1.08.49v-4.2a3.32,3.32,0,0,1-1.54-3.14c.08-.54.29-1.06.36-1.6a7.11,7.11,0,0,0,.09-2.76,13.06,13.06,0,0,0-.77-2.64,5.62,5.62,0,0,1-.44-1.35c-.24-1.26-.44-2.52-.66-3.79A6.26,6.26,0,0,0,81.58,90a3.88,3.88,0,0,1-.71-1,4.59,4.59,0,0,0-1.34-1.62,3,3,0,0,1-.36-.35c-.24-.28-.45-.6-.71-.85-.92-.87-1.89-1.68-2.77-2.57a4.22,4.22,0,0,1-1.35-3.19,12.73,12.73,0,0,0-.24-2.75,16.53,16.53,0,0,0-.87-2.63,1.3,1.3,0,0,0-1.35-.87A2.83,2.83,0,0,0,70,75a6,6,0,0,0-1.73,3.45A14.42,14.42,0,0,1,67.15,82a12.78,12.78,0,0,1-2.26,3.1,8.82,8.82,0,0,0-1.92,3c-.49,1.51-1,3-1.39,4.57a5,5,0,0,0,.74,4.47.81.81,0,0,1,.12.38.7.7,0,0,0,.55.6c0-.08,0-.16.09-.27.43.24.85.5,1.3.7s1,.31,1.4.51c.3.13.53.4.83.51.52.2,1.06.33,1.59.48,0,0,.08,0,.13-.06a.9.9,0,0,1,1,.14,1.22,1.22,0,0,0,1.24.26,1,1,0,0,1,1.2.38,2.82,2.82,0,0,0,.93.74,21.18,21.18,0,0,1,3.64,2.24,1.54,1.54,0,0,0,1.68.17,2.67,2.67,0,0,0,1.58-1.8q.27-.93.6-1.83a2,2,0,0,0-1-2.75c-.49-.26-1-.44-1.49-.69a22,22,0,0,0-4.85-1.64c-1.61-.42-3.25-.7-4.87-1.07a8.73,8.73,0,0,1-3.35-1.53,1.54,1.54,0,0,1-.34-2.39c.33-.41.69-.79,1-1.18a13.2,13.2,0,0,0,2.48-4c.48-1.18.83-2.42,1.29-3.62A4.48,4.48,0,0,1,69.81,80,1.42,1.42,0,0,1,72.34,80.53Z"/><path class="cls-1" d="M47.58,60.63c-.5-.86-1-1.73-1.43-2.62a21.33,21.33,0,0,1-.91-2,15.27,15.27,0,0,1-.86-3.08,32.06,32.06,0,0,0-.85-3.16c0-.14-.13-.26-.18-.39a1.06,1.06,0,0,0-1-.73c-.92-.1-1.84-.18-2.76-.29a2.6,2.6,0,0,0-2.55,1.35c-.19.28-.37.56-.54.85q-1.41,2.39-2.81,4.79A11.54,11.54,0,0,0,33,56.73c-.52,1.25-1,2.53-1.5,3.78a4.17,4.17,0,0,1-.92,1.59,9.94,9.94,0,0,0-1.17,1.34A7.51,7.51,0,0,1,27.57,65c-.42.29-.94.46-1.36.74A15.89,15.89,0,0,0,22.28,69c-.79,1-1.58,2-2.34,3a10.34,10.34,0,0,0-1,1.51c-.95,2-1.86,4-2.79,5.93-.17.37-.34.73-.52,1.1-.6,1.24-1.16,2.5-1.81,3.71a16.57,16.57,0,0,0-1.51,3.45c-.15.55-.36,1.08-.46,1.64s-.14,1.32-.24,2a16.89,16.89,0,0,0,.2,5,8.16,8.16,0,0,0,1.07,3.24,16.79,16.79,0,0,0,2.33,3,51.43,51.43,0,0,0,9,6.85,12.76,12.76,0,0,1,3.48,3.23,9.58,9.58,0,0,1,1.65,5.66,4.63,4.63,0,0,1-2.06,4.22A27.23,27.23,0,0,1,25,124.06c-1,.58-2.08,1.12-3.15,1.65s-2,.93-3,1.39c-.62.29-1.28.52-1.87.86-.84.48-1.82.58-2.65,1.12a9,9,0,0,0-1.69,1.5c-.11.12-.2.43-.15.48a1.33,1.33,0,0,0,.61.29c.11,0,.26-.11.38-.17,1-.47,2-1,3-1.4,1.86-.84,3.76-1.6,5.59-2.51,1.55-.77,3-1.67,4.53-2.56a11.25,11.25,0,0,0,4.15-4.5,4.67,4.67,0,0,0,.53-1.76,22.91,22.91,0,0,0-.07-3.21c-.05-2.1-1.23-3.6-2.61-5a9.52,9.52,0,0,0-3-2A15.88,15.88,0,0,1,22,106.22c-1.89-1.48-3.9-2.86-5.24-5-.63-1-1.32-1.91-1.91-2.91a12.24,12.24,0,0,1-1.46-4.94c0-.43-.06-.86-.14-1.28a7.41,7.41,0,0,1,.4-3.85A20.46,20.46,0,0,1,14.68,86c.51-1,1.09-2,1.58-3,.87-1.87,1.73-3.75,2.55-5.65a29.58,29.58,0,0,1,3.08-5.45,15.29,15.29,0,0,1,3.65-3.66,30.74,30.74,0,0,0,4.93-3.86.84.84,0,0,1,.23-.12,1.29,1.29,0,0,1-.27.64c-.84,1.06-1.7,2.11-2.54,3.17-.39.48-.74,1-1.14,1.46a23.72,23.72,0,0,0-2.77,4c-.63,1.15-1.29,2.28-1.87,3.45a20.08,20.08,0,0,0-1.88,4.84,4.59,4.59,0,0,1-.31,1c-.75,1.8-1.5,3.59-2.26,5.39-.34.78-.68,1.57-1,2.35s-.78,1.58-1.09,2.4a4.35,4.35,0,0,0-.2,1.4.49.49,0,0,0,.72.51,5.21,5.21,0,0,0,1.4-.8c.61-.53,1.07-1.23,1.69-1.73A19.69,19.69,0,0,0,21.32,90c.67-.76,1.28-1.59,1.93-2.37a4.77,4.77,0,0,0,1-2.64,12.33,12.33,0,0,0-.06-2.27,5.66,5.66,0,0,1,.38-2.58,9.56,9.56,0,0,1,1.84-2.43c.89-1,1.87-2,2.71-3.07.39-.5.88-.92,1.3-1.4.21-.24.34-.56.54-.83a18.1,18.1,0,0,0,2.18-3.64c.28-.67.64-1.32,1-2l.37-.69a9.56,9.56,0,0,1,.58-1c.36-.49.77-1,1.14-1.44A28.88,28.88,0,0,1,39,60.81a3,3,0,0,1,.74-.38,1.16,1.16,0,0,1,0,1c-.31.75-.65,1.48-1,2.22A16.42,16.42,0,0,1,35.16,69c-1,1-2,2-3,3a11.89,11.89,0,0,0-2.54,3.6,10.19,10.19,0,0,0-.57,5.81c.09.56.25,1.12.3,1.69a3.08,3.08,0,0,1-.08,1.32,6,6,0,0,1-1.58,2.18c-1.12,1.07-2.3,2.07-3.48,3.06a7.19,7.19,0,0,0-1.51,1.79,3.58,3.58,0,0,0-.43,3.21,10.21,10.21,0,0,0,1.28,2.45,21.31,21.31,0,0,0,3.19,3.65,54,54,0,0,1,4.74,4.83c1.31,1.48,2.7,2.89,4.09,4.28.91.9,1.94,1.69,2.84,2.59a13.45,13.45,0,0,1,1.67,2A11.52,11.52,0,0,1,41.83,119a11.81,11.81,0,0,0,1,3.26,9.3,9.3,0,0,0,3.89,4.06,5.54,5.54,0,0,0,4,.71c1.2-.29,2.37-.67,3.55-1a24.65,24.65,0,0,0,4.8-2.16,56.48,56.48,0,0,1,5.6-2.83,15,15,0,0,1,2.28-.8,5.47,5.47,0,0,1,4.15.52,12.35,12.35,0,0,1,5,5.35,5.72,5.72,0,0,1,.43,1.13,19.83,19.83,0,0,1,.5,4.67A8.58,8.58,0,0,0,78,136c.59,1,1.15,1.14,2,.85a6.55,6.55,0,0,0,1.53-.74c1.06-.73,2.09-1.48,3.09-2.29.39-.32.76-.66,1.15-1v-4c-.5.44-1,.87-1.52,1.29-1.08.86-2.18,1.68-3.31,2.47a6.68,6.68,0,0,1-1.59.77c-.48.17-.68,0-.75-.51-.14-1.08-.24-2.17-.39-3.25a18.48,18.48,0,0,0-.93-4A16.38,16.38,0,0,0,75.51,122c-.4-.59-.8-1.18-1.17-1.79a7.12,7.12,0,0,1-.42-1,8.27,8.27,0,0,1-.79-.41,11.93,11.93,0,0,0-3.57-1.73,6.6,6.6,0,0,0-3.86.17c-.5.15-1,.28-1.5.46s-1.09.44-1.63.69c-.71.33-1.42.66-2.11,1s-1.1.67-1.67,1c-.82.42-1.65.83-2.5,1.19-1.07.45-2.17.86-3.25,1.28a8.53,8.53,0,0,1-5.43.55,5.81,5.81,0,0,1-1.48-.67c-.57-.35-1.07-.79-1.61-1.18a3.45,3.45,0,0,1-1.3-2c-.34-1.26-.72-2.51-1.1-3.76a14.63,14.63,0,0,0-2.19-4.29,20.53,20.53,0,0,0-2.9-2.92c-1.3-1.25-2.63-2.47-3.89-3.77-1.09-1.12-2.08-2.34-3.14-3.5-.49-.55-1-1.06-1.55-1.57-1.12-1.1-2.29-2.15-3.36-3.29a21.06,21.06,0,0,1-1.52-2.06.78.78,0,0,1,0-.94,12.84,12.84,0,0,1,1.37-1.81c1.32-1.33,2.7-2.61,4.06-3.9.1-.1.21-.18.37-.31,0,.25,0,.41,0,.57,0,1-.09,2-.13,3-.06,1.55-.12,3.09-.17,4.64a7.51,7.51,0,0,0,0,1.06,2.65,2.65,0,0,0,3.1,2.5,3.1,3.1,0,0,0,2.88-2.09c.11-.29.25-.56.37-.85a1.73,1.73,0,0,0-.29-1.84,4,4,0,0,1-.75-2,12.29,12.29,0,0,1,0-3.83c.25-1.33.38-2.68.65-4a6.31,6.31,0,0,1,.66-1.72A4.31,4.31,0,0,1,40.24,81a14.11,14.11,0,0,1,1.56.49,4.35,4.35,0,0,0,3.27-.09,4.42,4.42,0,0,0,2.09-2.07,11.19,11.19,0,0,0,1.08-4.19,11.46,11.46,0,0,1,.4-2,2.38,2.38,0,0,1,3.11-1.35c.7.29,1.39.62,2.09.93a2.64,2.64,0,0,0,.47.17c.7.22,1.22,0,1.35-.72a1.7,1.7,0,0,1,1.07-1.41,6.75,6.75,0,0,0,1.34-1.12c0,.13.09.2.08.25a23.6,23.6,0,0,0-.51,4.67c0,.43-.06.86-.12,1.28s-.31.6-.7.48a2,2,0,0,1-.84-.5c-.66-.71-1.28-1.46-1.92-2.2-.87-1-1.26-1-2.33-.2a7.23,7.23,0,0,0-1.94,2.25,5.17,5.17,0,0,0-.44,4.07,1.39,1.39,0,0,0,.12.41c1.21,2.05-1,5.49-3.54,5.56a2.8,2.8,0,0,1-.92-.08A10.54,10.54,0,0,0,40.39,85a18.44,18.44,0,0,0-2,.16,7.29,7.29,0,0,0-2,.72A2.8,2.8,0,0,0,35,88.18a4.93,4.93,0,0,0,.89,3,15.39,15.39,0,0,0,2.65,3.26,7.89,7.89,0,0,1,1.63,1.87,3.21,3.21,0,0,1-.76,4.29c-.43.36-.94.62-1.41.94-.69.47-1,.89-.76,1.79a4.7,4.7,0,0,0,1,1.84,10.12,10.12,0,0,0,4.53,2.86,19.43,19.43,0,0,1,2.19.85,4.37,4.37,0,0,1,2.09,2.17c.43.87.77,1.79,1.16,2.68.45,1,.91,2.09,1.36,3.13a3.22,3.22,0,0,0,3.82,1.45,13.18,13.18,0,0,0,2.06-.94,2.24,2.24,0,0,0,.76-.74,12.49,12.49,0,0,1,3.87-3.72,4.94,4.94,0,0,1,1.7-.7,12.25,12.25,0,0,1,4.75.06,13.7,13.7,0,0,1,5.09,2.32,36.27,36.27,0,0,1,5.52,4.83c.32.34.61.73.9,1.1.63.81,1.26,1.61,1.88,2.42.2.26.43.48.34.89s.22.49.51.57L83,125c-.32.21-.58.36-.83.54a9.41,9.41,0,0,0-1.48,1.09,3.31,3.31,0,0,0-.52,1.21c0,.09.14.28.26.38a4.23,4.23,0,0,0,1.87.84,1.4,1.4,0,0,0,.81-.18c.91-.44,1.82-.87,2.69-1.37v-1.72a13,13,0,0,1-1.5.73c-.18.08-.37.12-.55.18a8.56,8.56,0,0,1,1.16-1c.29-.23.59-.45.89-.67v-10.5a4.7,4.7,0,0,1-.44-.34l-4.08-3.46c-.54-.46-1.07-1-1.62-1.4a15.22,15.22,0,0,0-3-2.28c-.47-.22-.93-.48-1.39-.72a15.67,15.67,0,0,0-5.36-1.85c-1.34-.15-2.69-.24-4.05-.3a5.78,5.78,0,0,0-1.76.15,28.78,28.78,0,0,0-3,1c-.84.33-1.65.73-2.47,1.11a2.19,2.19,0,0,1-1.59.15,10.63,10.63,0,0,1-2.79-1.21,12.15,12.15,0,0,1-3.2-2.9,13.21,13.21,0,0,1-2.13-4.4,4.05,4.05,0,0,1,.73-3.88,2.22,2.22,0,0,1,2.76-.83c.51.18,1,.38,1.53.58A2.33,2.33,0,0,0,56.87,93,9.5,9.5,0,0,0,58,88.67a15.06,15.06,0,0,0-.33-3.9,4.7,4.7,0,0,1,.2-2.59,14.84,14.84,0,0,1,1.53-2.62c.67-1,1.4-2,2.1-3s1.3-2,2-3a17.06,17.06,0,0,0,2-3.59,4.51,4.51,0,0,0,.35-2.24,1.69,1.69,0,0,0-1.42-1.55,5.41,5.41,0,0,0-2.12,0L61,66.34c.21-.28.34-.46.49-.63l1.35-1.48a8,8,0,0,0,2.22-4.45,2.71,2.71,0,0,1,1-2,2.2,2.2,0,0,0,.31-.3,3,3,0,0,1,1.83-1l1.12-.19A21.19,21.19,0,0,0,71.44,56a3.49,3.49,0,0,0,1.36-.57,6.35,6.35,0,0,0,2.42-4.3A18.09,18.09,0,0,0,75,48,10,10,0,0,0,74.4,45a2.66,2.66,0,0,0-1.09-1.53,7.68,7.68,0,0,1-.79-.62,1.92,1.92,0,0,1-.73-1.55c0-.55,0-1.1.06-1.64A16.12,16.12,0,0,0,70.38,31a3.26,3.26,0,0,0-.74-1.08,2,2,0,0,0-.3.45A9.93,9.93,0,0,0,69,32c-.26,2.48-.53,5-.68,7.46A3.25,3.25,0,0,1,67,42l-.06,0a2.29,2.29,0,0,0-.8,1.14,2.3,2.3,0,0,1-1.4,1.58c-.66.26-1.28.63-1.91.95-.4.21-.78.45-1.18.65a3.41,3.41,0,0,0-2,3.85c.21,1.17.42,2.35.74,3.49a9,9,0,0,1,.09,4.59c-.7,2.89-2,5.45-4.61,7.11l-.23.17a9.26,9.26,0,0,1-3.07,1.47,4,4,0,0,1-3.71-.76,15.93,15.93,0,0,1-2.62-2.38A14.25,14.25,0,0,1,44,60.08c-.4-1-.88-2-1.34-3.06a1.82,1.82,0,0,0-.46-.71A20.78,20.78,0,0,0,40,54.65a1.87,1.87,0,0,0-1.3-.13,4.58,4.58,0,0,0-2.35,1.55c-.77,1-1.45,2-2.18,3-.43.59-.87,1.17-1.31,1.76l-.14-.07c.23-.66.46-1.33.71-2a15.08,15.08,0,0,1,1.24-2.86c.53-.82,1-1.67,1.49-2.52.29-.51.54-1,.83-1.57s.63-1.11,1-1.65a1.72,1.72,0,0,1,1.12-.7,8.05,8.05,0,0,1,2.77-.07.86.86,0,0,1,.8.69c.27,1,.53,2.08.8,3.11s.56,2.21.89,3.3c.5,1.66,1.59,3,2.32,4.58a5.09,5.09,0,0,0,.59.89,4.13,4.13,0,0,0,2,1.57,5.17,5.17,0,0,0,4.7-.68,10,10,0,0,0,2.57-2.53,7.61,7.61,0,0,0,1.41-5.25,24.26,24.26,0,0,0-.59-3.15c-.4-1.63-.9-3.24-1.17-4.92-.3-1.85-.62-3.7-.78-5.57a1.56,1.56,0,0,1,1.54-2,8.77,8.77,0,0,1,3.74.18A4.93,4.93,0,0,0,65.23,39a3.07,3.07,0,0,0,1.54-2.55c0-.12.07-.23.07-.35a2.51,2.51,0,0,0-.1-1A3.67,3.67,0,0,0,65.91,34a9.89,9.89,0,0,0-3.4-1.74A8.48,8.48,0,0,1,60,30.91a1.86,1.86,0,0,1-.37-2.82,3.55,3.55,0,0,1,1.89-1.32A22.32,22.32,0,0,1,65.83,26a23.53,23.53,0,0,0,5-.76,3,3,0,0,1,3.19.88c.33.34.72.62,1.07.94.71.63,1.46,1.22,2.1,1.91a1.74,1.74,0,0,0,2,.63.77.77,0,0,1,.75.09c.23.17.48.3.7.48a1.26,1.26,0,0,1,.44,1.59,3.19,3.19,0,0,1-2.76,2.27,21.15,21.15,0,0,0-2.26.29,2.64,2.64,0,0,0-2.18,1.92,5.65,5.65,0,0,0-.13,2.55,6.58,6.58,0,0,0,3.9,4.87c1.07.56,2.21,1,3.29,1.5a1.92,1.92,0,0,1,.8.77,10.06,10.06,0,0,1,1.1,3.59,13,13,0,0,1-.54,4.08A7,7,0,0,0,82,56.05l.73.15c.11-.35.23-.66.3-1,.2-.86.39-1.71.54-2.58a23,23,0,0,0,.31-2.32A9.89,9.89,0,0,0,83,46.09a3,3,0,0,0-1.21-1.72c-.86-.46-1.75-.85-2.64-1.26-.55-.26-1.16-.44-1.68-.75a5.32,5.32,0,0,1-2.85-5.06,1.76,1.76,0,0,1,1.67-1.88c.37-.07.76-.06,1.13-.11a8.5,8.5,0,0,0,1.69-.24,4.75,4.75,0,0,0,2.68-2.42,2.48,2.48,0,0,0-.72-3.52c-.13-.1-.27-.2-.39-.31A1.4,1.4,0,0,0,79,28.49a.86.86,0,0,1-1.18-.33,7.25,7.25,0,0,0-1.92-1.78,16.31,16.31,0,0,1-1.37-1.12,3.35,3.35,0,0,0-2-1,8.78,8.78,0,0,0-1.7.1c-.7.11-1.38.34-2.09.45-2.41.39-4.83.76-7.26,1.09a4.09,4.09,0,0,0-2.67,1.62,2.69,2.69,0,0,0,.53,4.2,12,12,0,0,0,2,1.12A23.51,23.51,0,0,1,65.44,35a1.48,1.48,0,0,1,.46,2.12,4.06,4.06,0,0,1-1.78,1.6,4.4,4.4,0,0,1-3.07.13,21,21,0,0,0-4.33-.33,2.48,2.48,0,0,0-2.44,2.91c.38,2.15.62,4.33,1,6.49A26.72,26.72,0,0,0,56,50.84a27.86,27.86,0,0,1,1,4.52,6.25,6.25,0,0,1-.46,3.42c-.2.43-.5.81-.74,1.22a6.14,6.14,0,0,1-2.5,2.37,4.05,4.05,0,0,1-4.86-.66A7.68,7.68,0,0,1,47.58,60.63ZM32.53,93A1.56,1.56,0,0,1,32,91.75c0-1.73,0-3.47.06-5.2a2,2,0,0,1,.27-.93c.65-1.05,1.35-2.07,2-3.1l.2-.24A26,26,0,0,0,32.53,93ZM64.92,68.2a3.39,3.39,0,0,1-.25,1,24.59,24.59,0,0,1-2.43,4.66c-.64.82-1.17,1.73-1.77,2.59-.76,1.09-1.52,2.19-2.32,3.24a6.39,6.39,0,0,0-1.38,5.21,27.46,27.46,0,0,1,.44,3,7.84,7.84,0,0,1-.67,3.69c0,.13-.11.26-.17.39a1.39,1.39,0,0,1-2,.89c-.64-.2-1.26-.44-1.88-.67a2.63,2.63,0,0,0-2.9.57,6.65,6.65,0,0,0-2,4,2.87,2.87,0,0,0,.13,1.12,17.12,17.12,0,0,0,1.6,4.26,9.94,9.94,0,0,0,3,3.32,25,25,0,0,0,2.28,1.45,14.42,14.42,0,0,0,2.41.87,2.75,2.75,0,0,0,1.8-.26c1.17-.5,2.32-1.08,3.5-1.56a6.57,6.57,0,0,1,1.59-.37,8.66,8.66,0,0,1,4,.28c1.21.42,2.46.74,3.67,1.16A19.26,19.26,0,0,1,78,110.68c2.31,2,4.6,4.06,6.89,6.09a.52.52,0,0,1,.11.1c.7.66.71.93,0,1.64a2.63,2.63,0,0,1-.52.48,1.06,1.06,0,0,1-.64.19c-.76-.15-1.58,0-2.28-.46-.25-.18-.61,0-.71.39a9.22,9.22,0,0,0-.18,1.19c0,.26-.09.53-.14.79l-.22,0a9.87,9.87,0,0,1-1.7-2.25,3.87,3.87,0,0,0-1-1.17c-.86-.68-1.68-1.41-2.51-2.11a.7.7,0,0,1-.14-.16c-.27-.68-.93-1-1.44-1.41a3.33,3.33,0,0,0-.54-.35c-.9-.48-1.79-1-2.71-1.41a11.12,11.12,0,0,0-5.66-1.46c-.54,0-1.09,0-1.64,0a5.05,5.05,0,0,0-2.53.6,11.08,11.08,0,0,0-4,3.31,6.34,6.34,0,0,1-2.46,2.1,2.56,2.56,0,0,1-3.59-1.08c-.55-1-1-2.17-1.42-3.26a10.39,10.39,0,0,0-2.16-3.74,5.61,5.61,0,0,0-2-1.25c-1-.37-2-.66-3-1.1A8.2,8.2,0,0,1,38.71,104c-.43-.54-.39-.77.1-1.29L40.37,101a4.21,4.21,0,0,0,.88-4.69,7.67,7.67,0,0,0-2-2.67,14.24,14.24,0,0,1-2.71-3.29c-.81-1.43-.77-2.51.18-3.55a3.93,3.93,0,0,1,2.63-1.29,7.61,7.61,0,0,1,1.35,0,15.46,15.46,0,0,1,3.47.8,4.08,4.08,0,0,0,4.88-1.5,10.63,10.63,0,0,0,1.39-2.54,4.88,4.88,0,0,0,.13-1.76,3.24,3.24,0,0,0-.2-.9c-.55-2,.25-3.62,1.49-5.11a2.46,2.46,0,0,1,.4-.3.59.59,0,0,1,.88.05c.42.45.86.88,1.28,1.34s.66.75,1,1.12a2.19,2.19,0,0,0,.42.38,1.48,1.48,0,0,0,2.34-.55,5.42,5.42,0,0,0,.46-2.42,13.82,13.82,0,0,1,.43-3.45,6.56,6.56,0,0,1,1.66-2.79A3.64,3.64,0,0,1,63,67,3.84,3.84,0,0,1,64,67C64.75,67.12,65,67.48,64.92,68.2ZM34.27,60c.58-.89,1.17-1.78,1.76-2.67a5.78,5.78,0,0,1,2.71-2.22.84.84,0,0,1,1,.16,7.67,7.67,0,0,0,.86.64A3.86,3.86,0,0,1,42,57.83c.14.38.3.75.46,1.12.45,1.07.89,2.15,1.38,3.21a10.4,10.4,0,0,0,3,3.81,4,4,0,0,1,.53.47,5,5,0,0,0,5,1.6,8,8,0,0,0,3-1.12c.46-.33,1-.57,1.46-.88a8.2,8.2,0,0,0,2.61-2.88,23.46,23.46,0,0,0,1.57-3,10,10,0,0,0,.62-4,14.57,14.57,0,0,0-.48-3.53c-.23-.84-.37-1.72-.62-2.56a2.3,2.3,0,0,1,1-2.44A9.13,9.13,0,0,1,64.07,46a26.89,26.89,0,0,0,4-2.33,5.88,5.88,0,0,0,1.27-1.52,2,2,0,0,0,.31-.86c.15-1.13.25-2.27.46-3.41.14,1.78.25,3.55.43,5.32A14.62,14.62,0,0,0,71,45.64a8.13,8.13,0,0,0,1.49,2.49c.11.16.35.23.53.35.42.27.5.54.17.93a2.55,2.55,0,0,1-.78.6,7.5,7.5,0,0,1-2.65.78,7.27,7.27,0,0,0-2.57.8,5.85,5.85,0,0,0-2,2.43,8.4,8.4,0,0,0-.74,2.44c-.17.64-.22,1.31-.35,2a5.88,5.88,0,0,1-1.5,2.63c-.33.38-.7.71-1.06,1.06s-.35.43-.15.75,0,.59-.24.82c-.62.68-1.27,1.34-1.88,2s-1.26,1.55-1.9,2.32a4.82,4.82,0,0,1-.57.62c-.63.51-1.3,1-1.91,1.49a.83.83,0,0,1-.78.21A15.38,15.38,0,0,1,52.53,70a2.79,2.79,0,0,0-2.75.47A15.33,15.33,0,0,0,48,72a1.87,1.87,0,0,0-.43.88c-.27,1.18-.49,2.37-.75,3.56a9.8,9.8,0,0,1-.46,1.79,2.54,2.54,0,0,1-2.09,1.61,4.89,4.89,0,0,1-2.09-.15,7.8,7.8,0,0,0-2.51-.46,6.52,6.52,0,0,0-4.08,1.66l-.38.34a1.46,1.46,0,0,1,0-.22l1.32-3.16a3.17,3.17,0,0,1,1.87-1.75c.55-.22,1.1-.46,1.65-.67a5.07,5.07,0,0,0,3.51-3.88c.27-1.37.55-2.75.74-4.14a3.84,3.84,0,0,0-.19-1.53,1,1,0,0,0-1.76-.46,21,21,0,0,0-2.21,2.51c-1,1.41-2.14,2.67-3.22,4a22.22,22.22,0,0,0-1.66,2.23c-.74,1.16-1.39,2.38-2.09,3.57a2,2,0,0,1-.56.62,1.39,1.39,0,0,0-.62,1c-.07.47-.11.94-.14,1.42a8.23,8.23,0,0,1-.75,3.66,4.85,4.85,0,0,1-.29.49s-.11.08-.23.17a18.38,18.38,0,0,0-.33-4.22,7,7,0,0,1,1.27-5.21,21,21,0,0,1,2.05-2.45,30.12,30.12,0,0,0,4-4.7A17.57,17.57,0,0,0,40,63.67c.13-.44.28-.87.44-1.29a6.89,6.89,0,0,0,.37-2.66,2.68,2.68,0,0,0-.25-1,.94.94,0,0,0-1.5-.51,6.51,6.51,0,0,0-1.22,1.07,28.59,28.59,0,0,0-3.71,5c-.69,1.14-1.28,2.33-1.92,3.5a13.65,13.65,0,0,1-.68,1.25c-.86,1.2-1.71,2.4-2.63,3.55-1.28,1.6-2.61,3.14-3.91,4.72a4.88,4.88,0,0,0-.46.8,10.56,10.56,0,0,1-.48.95,4.68,4.68,0,0,0-.8,3.32c.05.48.08,1,.13,1.42a3.32,3.32,0,0,1-.55,2.24,21.84,21.84,0,0,1-3.38,4c-.57.53-1.07,1.15-1.6,1.71a3.1,3.1,0,0,1-.71.58,3.07,3.07,0,0,1,.42-1.7,1,1,0,0,1,.73-.34,1.1,1.1,0,0,0,1-.75A15,15,0,0,0,20,87.93c.29-.92.52-1.87.8-2.8A4.74,4.74,0,0,1,21.25,84a11.48,11.48,0,0,0,1-2.59A24.82,24.82,0,0,1,24,77.14a5.7,5.7,0,0,1,.54-.75c.56-.71,1.12-1.42,1.7-2.11.38-.45.82-.86,1.23-1.28A16.4,16.4,0,0,0,30,69.32a1,1,0,0,0,.13-.47c0-.66-.26-.85-.89-.62l-.76.31A5.56,5.56,0,0,1,29.55,67a18.92,18.92,0,0,0,2.89-4.13A34,34,0,0,1,34.27,60ZM33.09,81c-.35-.45,0-.76-.06-1.09l.66-.32.13.1Zm7-9.75a3.64,3.64,0,0,1,1.47-1.69.48.48,0,0,1,.69.11c.22.27.09.49-.11.69A4.64,4.64,0,0,1,40.09,71.2Z"/><path class="cls-1" d="M42,12.8a41.08,41.08,0,0,0,7-2.2c1.23-.43,2.44-.95,3.68-1.33a17.17,17.17,0,0,0,4.7-2.37,13.57,13.57,0,0,1,2.24-1.37C61,4.93,62.46,4.44,63.93,4a31,31,0,0,1,5.25-1,40.32,40.32,0,0,1,6.3-.67,14.44,14.44,0,0,1,4.25.33c1.11.36,2.23.68,3.32,1.1.91.36,1.81.75,2.71,1.16V0A85.63,85.63,0,0,0,40.32,13C40.87,12.93,41.41,12.88,42,12.8Z"/><path class="cls-1" d="M83.74,147.45a4.1,4.1,0,0,1-.71.6,9.52,9.52,0,0,0-2.47,2.63c-.9,1.23-1.66,2.55-2.52,3.8A9.77,9.77,0,0,1,71,159.05c-1.23.14-2.46.18-3.68.35a9.67,9.67,0,0,1-4.34-.59,11.69,11.69,0,0,1-4.26-2.52,33.77,33.77,0,0,1-4.76-5.66c-1-1.36-1.88-2.74-2.86-4.09-.52-.73-1.12-1.42-1.68-2.12-.23-.29-.43-.61-.68-.88-.45-.45-.91-.89-1.39-1.31a13.31,13.31,0,0,0-1.2-.89,17.56,17.56,0,0,0-4.46-1.84c-.8-.25-1.6-.47-2.4-.69s-1.53-.34-2.27-.58c-2.22-.71-4.41-1.48-6.64-2.18-1.29-.41-2.6-.76-3.92-1.05s-2.52-.45-3.78-.7a14.18,14.18,0,0,0-3.19,0c-.45,0-.89,0-1.34,0a6.24,6.24,0,0,1-.68-.08,6,6,0,0,0,.2.85,11.49,11.49,0,0,0,1.26,2.59c.31.39.57.76,1.08.81a24.39,24.39,0,0,0,2.83.26,9.55,9.55,0,0,1,3,.33,9.15,9.15,0,0,0,1.18.25,37.08,37.08,0,0,1,6,1.43c1.7.6,3.41,1.2,5.13,1.73,2.82.88,5.72,1.42,8.46,2.56a8,8,0,0,1,2.65,1.64c.49.48,1,1,1.43,1.48a11.31,11.31,0,0,1,1.05,1.26c1,1.46,1.9,3,2.86,4.42a38.75,38.75,0,0,0,4.3,5.5,16.56,16.56,0,0,0,3.5,3,12.77,12.77,0,0,0,7.22,1.85c1.83-.08,3.65-.35,5.46-.58a6.43,6.43,0,0,0,3-1.31,15.52,15.52,0,0,0,3.93-4.38,26.47,26.47,0,0,1,3.82-5.06v-6.75A6.05,6.05,0,0,0,83.74,147.45Z"/><path class="cls-1" d="M83.81,61.58a2,2,0,0,0-.66,1.31,10,10,0,0,1-.39,1.8,5.87,5.87,0,0,0-.16,2.82A1.91,1.91,0,0,0,83.43,69a12.59,12.59,0,0,0,1.49.82c.28.13.56.24.84.36v-4.5h0A1.83,1.83,0,0,1,84.6,65c.29-.24.55-.47.83-.67.12-.08.22-.18.33-.26V60.26l-.16.1A5.74,5.74,0,0,0,83.81,61.58Z"/><path class="cls-1" d="M79.37,58.62a1.34,1.34,0,0,0-.36.22,2.93,2.93,0,0,1-1.51.73c-1.37.31-2.73.64-4.1,1a5.14,5.14,0,0,0-3.88,4.89,7.29,7.29,0,0,0,1.77,5.07,3.8,3.8,0,0,0,2.86,1.24c1,0,1.95,0,2.92.15a22.53,22.53,0,0,1,5.05,1.21A10.66,10.66,0,0,1,85.76,75V71.55a21.85,21.85,0,0,0-2.43-1.07,4,4,0,0,0-2.16-.3,2.2,2.2,0,0,1-.92-.08,16.37,16.37,0,0,0-4.88-.49,6.19,6.19,0,0,1-1.82-.24,2.6,2.6,0,0,1-1.21-.71,6.45,6.45,0,0,1-1.54-2.85,2,2,0,0,1,1-2.55,6.08,6.08,0,0,1,2.46-.89,13.49,13.49,0,0,0,6.77-3,4.15,4.15,0,0,0,.57-.54,1.18,1.18,0,0,0,.18-1.37,2.84,2.84,0,0,0-.54.15C80.62,58,80,58.28,79.37,58.62Z"/><path class="cls-1" d="M85.36,168.32c-.55.15-1.13.18-1.67.34a6.19,6.19,0,0,1-3.44-.15c-.2-.06-.39-.14-.67-.25.18-.19.3-.34.43-.45.34-.3.69-.59,1-.86a7.4,7.4,0,0,0,2.77-4.35,3.84,3.84,0,0,1,.92-1.83,2.71,2.71,0,0,0,.68-1.68c.09-.63-.1-.81-.7-.64a5.4,5.4,0,0,0-2.52,1.65c-.53.58-1,1.16-1.59,1.72a4.37,4.37,0,0,1-.82.67c-1.27.78-2.56,1.54-3.84,2.3a6.92,6.92,0,0,1-1,.54A13.37,13.37,0,0,0,72,167a3.81,3.81,0,0,1-2,.63,12.6,12.6,0,0,1-2.81.1c-.07,0-.14,0-.21,0-.38,0-.76,0-1.14-.05a2.78,2.78,0,0,0-.48-.07,9.58,9.58,0,0,1-4-.66,10.36,10.36,0,0,1-2.48-1.36c-.6-.41-1-1.06-1.65-1.46a4,4,0,0,1-1.41-1.91,6.07,6.07,0,0,0-1.46-2.17,6,6,0,0,1-.48-.52,16.25,16.25,0,0,0-3.57-3.15,7.16,7.16,0,0,1-2.1-2.11,36.35,36.35,0,0,0-3.25-4.06,5.39,5.39,0,0,0-2-1.44c-.63-.26-1.26-.54-1.89-.83-.88-.4-1.76-.83-2.65-1.21-1.34-.57-2.67-1.14-4-1.64s-2.54-.8-3.81-1.19c-.84-.25-1.69-.46-2.53-.74a2.44,2.44,0,0,0-1.31-.17,1.36,1.36,0,0,1-.61-.12,1.75,1.75,0,0,0-1.21-.07.45.45,0,0,0,0,.11c0,.21,0,.43,0,.64,0,.49.1.66.56.77a3.87,3.87,0,0,0,1.13.08,5,5,0,0,1,1.76.16c.68.22,1.38.35,2.07.54s1.38.36,2,.61c1.58.59,3.14,1.25,4.72,1.84a30.93,30.93,0,0,1,3.92,1.7c.41.23.88.35,1.3.58a6.73,6.73,0,0,1,1.63,1,21.77,21.77,0,0,1,2.8,3.32,12.06,12.06,0,0,0,3.11,3.3,20,20,0,0,1,2.23,1.88,11.58,11.58,0,0,1,3.13,4.19,3.1,3.1,0,0,0,.62.84,21.07,21.07,0,0,0,1.53,1.6,12.57,12.57,0,0,0,2.12,1.67,14.45,14.45,0,0,0,3.37,1.39l.44.13a14.4,14.4,0,0,0,3.84.4,10.4,10.4,0,0,0,4.49-1c.6-.3,1.22-.53,1.83-.81A24.67,24.67,0,0,0,82,162a5.41,5.41,0,0,1,.8-.63c.07.1.1.12.1.14a2.74,2.74,0,0,1,0,.28,6.45,6.45,0,0,1-2.55,3.74,22.85,22.85,0,0,1-2.83,1.78,8.88,8.88,0,0,1-3.37,1c0,.41-.35.53-.7.64-.18.06-.41.12-.49.25a8.08,8.08,0,0,0-.69,1.38.7.7,0,0,0-.06.51l1.7.24H74a5.76,5.76,0,0,1,3.58.05c.28.12.59.16.88.27a7.77,7.77,0,0,0,.91.26c1.1.08,2.19.14,3.3.18l.44,0a5.8,5.8,0,0,0,2.33-.81,3.55,3.55,0,0,0,.31-.23v-2.84A2.78,2.78,0,0,1,85.36,168.32Z"/><path class="cls-1" d="M15.87,133c.37.12.69.35,1.08,0a24.25,24.25,0,0,1,4.17-2.32,3,3,0,0,1,.81-.14,7.18,7.18,0,0,0,1.24-.26c.59-.22,1.16-.52,1.74-.8a8.72,8.72,0,0,1,5.42-.72c.89.14,1.79.21,2.69.31s1.56.16,2.33.29c.56.1,1.1.3,1.66.41A15.58,15.58,0,0,1,40.94,131c1.28.62,2.58,1.22,3.84,1.89a44.37,44.37,0,0,0,5.54,2.26c2,.76,4.1,1.39,6.13,2.11a5.2,5.2,0,0,0,3.95,0A5.05,5.05,0,0,0,63.11,135a4.72,4.72,0,0,1,.37-.61,2,2,0,0,0,.45-1.38c0-.38,0-.77,0-1.14a7.06,7.06,0,0,1,.14-2.2,4.91,4.91,0,0,0,.14-.84,2.29,2.29,0,0,1,1.46-2.1,2.19,2.19,0,0,1,3.23,1.45,6.48,6.48,0,0,1-.53,4.78,7.4,7.4,0,0,0-1.09,2.84,2.76,2.76,0,0,1-.55,1.66.45.45,0,0,0,.16.73,8,8,0,0,0,1.44.77,2,2,0,0,0,1.6-.09A5.42,5.42,0,0,0,73,134.93c.18-1.13.35-2.25.5-3.38s.25-2,.32-3.05c0-.43-.17-.89-.13-1.33A3.67,3.67,0,0,0,73,125a10.13,10.13,0,0,0-1.56-1.83,1.71,1.71,0,0,0-1.32-.6c-.71,0-1.42.09-2.12.19s-1.16.25-1.75.33a13.4,13.4,0,0,0-4.44,1.22,1.38,1.38,0,0,0-.6.57,6.87,6.87,0,0,0-.47,1.34c-.24.85-.41,1.71-.66,2.55A3.24,3.24,0,0,1,57.5,131a1.32,1.32,0,0,1-.76-.06,11.42,11.42,0,0,0-3.92-.67,10.73,10.73,0,0,1-2.64-.51c-1.46-.44-2.93-.85-4.38-1.28-.91-.27-1.83-.52-2.71-.88a8.84,8.84,0,0,1-1.22-.84,10.21,10.21,0,0,1-2.16-1.94,3.68,3.68,0,0,1-1.08-2.11,2,2,0,0,0-.22-.67,1.13,1.13,0,0,1,.05-1c.24-.54.51-1.07.75-1.61.34-.78.12-1.42-.65-1.65a4.81,4.81,0,0,0-3-.1A8.07,8.07,0,0,0,32.1,120c-.84,1-1.62,2-2.43,3.07-.47.6-1,1.16-1.4,1.79a1.71,1.71,0,0,1-1,.78,23,23,0,0,0-4.42,2,48.37,48.37,0,0,0-6.12,4A1.79,1.79,0,0,0,15.87,133Zm12.59-5.45-.47,0a3.65,3.65,0,0,1,.31-.57c.33-.37.68-.73,1-1.08a11.42,11.42,0,0,0,2.2-2.88,1.42,1.42,0,0,1,.69-.68,3.89,3.89,0,0,1,3.12-.09,2.19,2.19,0,0,1,1,.92,5.34,5.34,0,0,1,.43.82,6.62,6.62,0,0,0,1.85,2.5l1.89,1.74a5.61,5.61,0,0,0,2.55,1.34c1.69.42,3.37.87,5,1.42a16.67,16.67,0,0,0,3.48.71,18.19,18.19,0,0,1,4.06.77,2.94,2.94,0,0,0,2.48-.32A7,7,0,0,0,60.69,130a10.89,10.89,0,0,0,.88-1.86,7.79,7.79,0,0,0,.41-1.73,1.63,1.63,0,0,1,1.44-1.45c1-.21,1.92-.34,2.88-.51.61-.1,1.21-.22,1.83-.29a5,5,0,0,1,1.34,0,1.42,1.42,0,0,1,.77.45,6,6,0,0,1,1.87,5.1c-.12.78-.25,1.55-.38,2.33s-.27,1.68-.4,2.53c-.09.54-.17,1.08-.26,1.62a1.48,1.48,0,0,1-.12.41c-.42,1.07-1.29,1.24-2.22.37a3,3,0,0,0,.32-.51c.08-.18.2-.42.14-.58a2.49,2.49,0,0,1,.17-1.74c.43-1.25.88-2.5,1.32-3.75a.87.87,0,0,0,.07-.42c-.11-.92-.19-1.84-.38-2.75a3.27,3.27,0,0,0-3.1-2.39,4.79,4.79,0,0,0-1.92.71,5.49,5.49,0,0,0-2.77,3.64,12.52,12.52,0,0,0-.48,3.95c0,.35,0,.71,0,1.07a2.79,2.79,0,0,1-3.34,2.45A36.38,36.38,0,0,1,53.83,135c-1.06-.46-2.23-.67-3.33-1s-2.44-.8-3.62-1.29c-1.34-.56-2.65-1.19-3.94-1.85a17.87,17.87,0,0,0-3.4-1.46c-1.84-.46-3.68-1-5.55-1.31S30.3,127.67,28.46,127.51Z"/><path class="cls-1" d="M1.82,70.51c1.71-.55,3.44-1.09,5.12-1.73a25.83,25.83,0,0,0,6.21-3.59,17.18,17.18,0,0,0,2.6-2.1,34,34,0,0,0,3.71-4.41A19.4,19.4,0,0,0,22,54c.41-1.34.8-2.68,1.18-4a7.66,7.66,0,0,0,.14-3,2.52,2.52,0,0,1,1-2.69l.28-.22a19.12,19.12,0,0,0,3.94-4.65,7,7,0,0,0,1-2.92c0-.4,0-.81,0-1.21a20.5,20.5,0,0,0-.32-4.69c-.26-1.05-.12-1.28.82-1.84a3.18,3.18,0,0,1,.32-.16A6.76,6.76,0,0,1,33,27.89c1-.07,2-.14,3-.24A1.25,1.25,0,0,0,37.07,27a2.4,2.4,0,0,0,.25-1.66,9.43,9.43,0,0,0-.85-2.1A2.61,2.61,0,0,0,33.85,22c0,.3-.09.53-.43.58a8.27,8.27,0,0,0-.8.26c-1.08.36-2.17.68-3.24,1.07-1.9.69-3,2.31-4.38,3.66a25.09,25.09,0,0,0-2,3.86c-.33,1-.61,2-1,3.06-.5,1.47-1.07,2.9-1.55,4.37a39.44,39.44,0,0,1-1.66,4.48A17.67,17.67,0,0,0,18,45.67a14.81,14.81,0,0,1-2.18,4.55,15,15,0,0,0-2.18,3.49c-.34.89-.68,1.78-1,2.69A4.57,4.57,0,0,1,10.51,59a18.07,18.07,0,0,1-4,2.09,2,2,0,0,0-.36.23,6.12,6.12,0,0,1-3.17,1c-.27.95-.54,1.91-.78,2.87a8.12,8.12,0,0,0,2.57-1,36.84,36.84,0,0,0,5-2.59,9.12,9.12,0,0,0,2.94-2.86,20.17,20.17,0,0,0,1.69-3.91,9.22,9.22,0,0,1,1.31-2.53c.39-.53.85-1,1.19-1.6A23.22,23.22,0,0,0,19.06,46a7.59,7.59,0,0,1,.43-1.35,61.13,61.13,0,0,0,2.72-7.27c.51-1.33.81-2.73,1.27-4.08a16.51,16.51,0,0,1,1.58-3.64,10.76,10.76,0,0,1,3-2.94,3.92,3.92,0,0,1,.62-.29l.09.12a1.92,1.92,0,0,1-.12.25A6.4,6.4,0,0,0,27.67,32c.21.88.33,1.78.49,2.66a3.46,3.46,0,0,1-1,3.21c-.79.82-1.62,1.6-2.46,2.37s-1.91,1.5-2.12,2.82a4.07,4.07,0,0,1-.4.91,24.4,24.4,0,0,0-.93,2.32,11,11,0,0,0-.38,4c0,.6.05,1.19.07,1.79a5.4,5.4,0,0,1-1.64,3.76c-.45.52-1,1-1.37,1.54a16.55,16.55,0,0,1-3.37,3.47,29.83,29.83,0,0,1-6.19,4,1.49,1.49,0,0,0-.67.5,2.6,2.6,0,0,1-1.67,1.24,6.94,6.94,0,0,0-.87.31A22.42,22.42,0,0,0,2.54,68.1a6.13,6.13,0,0,0-1.14.79c-.12.58-.21,1.18-.31,1.77A2.32,2.32,0,0,0,1.82,70.51Z"/><path class="cls-1" d="M8.28,53.67A42.9,42.9,0,0,0,11.89,48a38.74,38.74,0,0,0,2.37-6.79,14,14,0,0,1,2.87-5.67c1.18-1.29,2.3-2.65,3.35-4.05a38.86,38.86,0,0,0,3-4.74A86.08,86.08,0,0,0,12.74,40.52a11.44,11.44,0,0,1-.8,2.08c-.42.82-.8,1.67-1.2,2.5a29.42,29.42,0,0,1-3,4.94c-.16.21-.31.44-.47.65-.85,1.87-1.64,3.76-2.36,5.69A9.15,9.15,0,0,0,8.28,53.67Z"/><path class="cls-1" d="M30.08,151.54c.85.29,1.7.59,2.57.84a5.22,5.22,0,0,0,1.72.35,17.76,17.76,0,0,1,2.92.58,1.07,1.07,0,0,1,.37.21l.78.48c.31.21.64.41.93.65.91.78,1.8,1.59,2.7,2.38.27.23.56.45.84.66a11.73,11.73,0,0,1,3,2.86l.83-.12a3.76,3.76,0,0,0,0-2.05.83.83,0,0,0-.2-.37,16.22,16.22,0,0,0-1.74-1.58,22.05,22.05,0,0,1-4.44-4.08,17.9,17.9,0,0,0-1.42-1.59,20.68,20.68,0,0,0-3.55-2.84,3.48,3.48,0,0,0-2.32-.73.8.8,0,0,1-.48-.09c-.74-.44-1.49.25-2.23,0,0,0-.07,0-.11.07a1.38,1.38,0,0,0-.38.21c-.11.12-.14.3-.24.43a4,4,0,0,0-.65,2.76.66.66,0,0,0,.09.28l.58.5A3.42,3.42,0,0,0,30.08,151.54Z"/><path class="cls-2" d="M139.47,20.19l-.81.71c-.69.6-1.38,1.19-2.09,1.76a1.14,1.14,0,0,1-.61.23c-.76,0-1.51,0-2.27,0l-3.2,0a18.71,18.71,0,0,0-2-.06,9.94,9.94,0,0,1-2-.12c-.51-.06-1-.1-1.52-.2-.9-.17-1.79-.38-2.67-.59-1.16-.28-2.31-.58-3.47-.85-.92-.22-1.86-.38-2.78-.61-1.44-.35-2.86-.77-4.3-1.11a48,48,0,0,0-8.72-1.22c-.71,0-1.42-.15-2.13-.2-1.06-.08-2.13-.11-3.19-.22-1.23-.14-2.49-.07-3.73-.28a5.7,5.7,0,0,0-1.48.07l-6.32.58c-.11,0-.24.06-.33,0a.62.62,0,0,1-.35-.28.53.53,0,0,1,.16-.38,1.87,1.87,0,0,1,1-.61A4.11,4.11,0,0,0,88.32,16a4,4,0,0,1,2.12-.62c.79-.1,1.59-.2,2.39-.24,1.61-.08,3.22-.2,4.82-.18,2.68,0,5.35.16,8,.25a50.73,50.73,0,0,1,6.64.61l2.17.37h0c1.08.43,2.26.47,3.37.81s2.23.54,3.35.78l3.71.76c1.72.35,3.43.74,5.16,1.06a22.49,22.49,0,0,0,5.19.1l3.55-.17h.39C139.62,19.57,139.72,19.8,139.47,20.19Z"/><path class="cls-2" d="M124.78,41.91a1.2,1.2,0,0,1-1.18-.31c-.58-.51-1.22-1-1.84-1.43a8.09,8.09,0,0,1-.61-.57,1.58,1.58,0,0,1-.45-1.1,25.64,25.64,0,0,1,.48-5.6c.28-2.1.57-4.2.74-6.3a11.8,11.8,0,0,0-1.25-6,7,7,0,0,0-1.57-2.05,36.5,36.5,0,0,0-3.84-3.28,41.18,41.18,0,0,0-5.56-3.44c-.67-.34-1.28-.79-1.93-1.16a15.48,15.48,0,0,0-1.68-.84,4.7,4.7,0,0,1-1.71-1,2.37,2.37,0,0,0-.91-.46,4.42,4.42,0,0,1-1.34-.62,3.86,3.86,0,0,0-.82-.39c-.62-.28-1.25-.57-1.88-.84l-.54-.21c-.52-.21-1-.41-1.56-.63a4.53,4.53,0,0,0-1.15-.36,7.34,7.34,0,0,1-1.32-.51c-.32-.13-.65-.23-1-.34-.13,0-.28-.1-.38-.06-.46.21-.88,0-1.32-.08-.77-.09-1.54-.14-2.31-.27-1.08-.17-2.16-.4-3.24-.62-.29-.06-.42-.23-.53-.55A6.68,6.68,0,0,1,85.89.18c0-.26.14-.4.4-.4a2.16,2.16,0,0,1,.51.06,48.63,48.63,0,0,0,5.09,1,26.4,26.4,0,0,1,2.88.73c1.61.5,3.19,1.07,4.8,1.57,1.13.35,2.29.61,3.42,1A23.11,23.11,0,0,1,107.72,6c1.16.67,2.35,1.28,3.47,2a19.06,19.06,0,0,1,3.44,2.62c.47.48,1,.86,1.5,1.33s.77.93,1.16,1.39.61.61.89.93A22.75,22.75,0,0,1,121,18.47c.73,1.39,1.58,2.73,2.29,4.13.59,1.18,1,2.42,1.56,3.63,0,.12.07.25.12.37a9.11,9.11,0,0,1,.66,3.79c0,.56-.11,1.12-.16,1.67,0,.07,0,.13,0,.19a20.53,20.53,0,0,1-.52,4.35,21.69,21.69,0,0,0-.13,4.83C124.8,41.58,124.78,41.73,124.78,41.91Z"/><path class="cls-2" d="M84.54,167.5a13,13,0,0,1,.38-1.27c.64-1.56,1.24-3.14,2-4.66a55.78,55.78,0,0,1,5-8.56c.27-.39.57-.76.87-1.13a2.63,2.63,0,0,1,1.15-.81.62.62,0,0,1,.78.24,4.2,4.2,0,0,1,1,2.23,6.14,6.14,0,0,0,.36,1.3.64.64,0,0,1-.18.76,17.07,17.07,0,0,0-3.69,5c-1.11,1.93-2.09,3.93-3,6-.56,1.25-.9,2.61-1.34,3.91a9,9,0,0,1-.34.91c-.17.39-.33.41-.62.13a.82.82,0,0,1-.17-.2,22,22,0,0,1-2-3.37A3.73,3.73,0,0,1,84.54,167.5Z"/><path class="cls-2" d="M110.6,169.23a11.66,11.66,0,0,1-1.26.44c-1.63.41-3.26.85-4.91,1.17a56.07,56.07,0,0,1-9.85,1c-.47,0-1,0-1.42,0a2.61,2.61,0,0,1-1.33-.45.63.63,0,0,1-.27-.78,4.19,4.19,0,0,1,1.19-2.15,6.32,6.32,0,0,0,.84-1.06.63.63,0,0,1,.72-.3,17,17,0,0,0,6.24,0,66.33,66.33,0,0,0,6.58-1.08,40.93,40.93,0,0,0,4-1.21,7.11,7.11,0,0,1,.93-.27c.41-.08.52,0,.46.43a1.09,1.09,0,0,1,0,.26,22,22,0,0,1-1.54,3.61C110.81,169,110.71,169.08,110.6,169.23Z"/><path class="cls-2" d="M99.9,11.87c.08.3.13.53.21.74a3.17,3.17,0,0,0,.35.82c.87,1.18,1.77,2.33,2.66,3.49.77,1,1.59,2,2.31,3a15.06,15.06,0,0,1,2.14,4,5.48,5.48,0,0,0,.22.61,1.3,1.3,0,0,1,0,.95,14.85,14.85,0,0,1-.4,1.49,3.83,3.83,0,0,1-1.35,1.76c-.28,0-.33-.24-.41-.43a22.6,22.6,0,0,0-4.52-6.82c-1.32-1.37-2.52-2.83-3.76-4.27a.83.83,0,0,1-.21-.88c.17-.46.35-.93.56-1.37.35-.72.73-1.42,1.08-2.14A2.13,2.13,0,0,1,99.9,11.87Z"/><path class="cls-2" d="M90.08,1.3l0,.54c.56.17.82.66,1.2,1a1.44,1.44,0,0,1,.38,1.22,6.26,6.26,0,0,1-.31,1.33c-.3,1.1-.67,2.18-.92,3.3a22.7,22.7,0,0,0-.54,4.35c-.09,2.42-.22,4.83-.31,7.24,0,.91,0,1.81,0,2.72,0,1.79,0,3.59.08,5.38a10,10,0,0,0,1.06,4.11c0,.1.15.21.13.29a1.41,1.41,0,0,1-.26.68c-.19.2-.4,0-.55-.16a6.33,6.33,0,0,1-1.6-2.84A16.77,16.77,0,0,1,88,25.81c0-1.19,0-2.38,0-3.57,0-.79,0-1.59,0-2.39,0-.58-.1-1.16-.1-1.74a12.39,12.39,0,0,1,.3-3.54,1.91,1.91,0,0,0,.06-.58,20.88,20.88,0,0,1,.19-4.4,4.6,4.6,0,0,0-.07-1.73,4.91,4.91,0,0,1,.29-2.73,13.35,13.35,0,0,1,1-2.67,4,4,0,0,0,.3-1.17Z"/><path class="cls-2" d="M102.49,2.62,98.6,8.42c-.4.6-.82,1.19-1.24,1.77a.67.67,0,0,1-.27.16c-.53.23-1,.5-1.59.68a4.41,4.41,0,0,0-1.18.47c-.22.15-.67,0-.8-.26s0-.43.17-.63c.47-.64.9-1.31,1.35-2L96,7.2a21.76,21.76,0,0,0,1.4-2.09,10.52,10.52,0,0,1,1.32-2A.56.56,0,0,0,98.83,3a3.07,3.07,0,0,1,2-1.85c.62-.24,1.2-.58,1.8-.86a5.53,5.53,0,0,1,1-.42.68.68,0,0,1,.56.17c.08.08,0,.37-.09.52-.25.4-.55.77-.83,1.15s-.5.65-.76,1Z"/><path class="cls-2" d="M137.85,53.24l-1.11,3.11c-.41.3-.77.37-1,.78A3.49,3.49,0,0,0,138,58.4a2.07,2.07,0,0,1,.25-.38,2.69,2.69,0,0,0,.83-1.28,1.28,1.28,0,0,1,.33-.45c.14-.16.35-.27.45-.45.24-.46.75-.77.79-1.36,0-.07.14-.12.22-.19l.63-.59c-.09-.17,0-.21-.09-.46.71-.1.74-.34,1-.76.08-.16.11-.34.2-.48a.64.64,0,0,1,.69-.34c1.16.25,2.32.48,3.48.7a.76.76,0,0,1,.7.74c.14,1.23.39,2.44.44,3.67.07,1.88,0,3.76,0,5.64a21.85,21.85,0,0,1-.16,3.24c-.21,1.33-.58,2.64-.92,3.95a1.43,1.43,0,0,0,.14,1.23,1.46,1.46,0,0,1,.22,1.2c-.08.48-.29,1,.14,1.42.07.06,0,.24,0,.36,0,.37-.09.75-.14,1.12-.11,1-.23,1.94-.35,3,.38-.07.46.15.44.44a5.47,5.47,0,0,0-.08.9,5.71,5.71,0,0,0,.55,2.9s0,.06,0,.08l.09.07.33-.41A3.51,3.51,0,0,0,149,84c.18-.61.33-1,.44-1.5.17-.74.31-1.48.5-2.21a26.64,26.64,0,0,0,.8-3.67,19.38,19.38,0,0,1,.72-3.08c.25-.87.61-1.7.94-2.55a16.1,16.1,0,0,0,1.13-5c.08-1.86,0-3.72,0-5.58,0-.67-.09-1.35-.16-2-.12-1.25-.27-2.49-.4-3.74a3.08,3.08,0,0,1,.07-.62,5.63,5.63,0,0,1,.54.26,5.54,5.54,0,0,1,1.54,1.83c1,1.87,2.06,3.75,3.1,5.61a1.38,1.38,0,0,0,.45.48c.58.37,1.19.71,1.79,1.05s1.44.8,2.16,1.18a.59.59,0,0,0,.77,0,.71.71,0,0,0,.13-.84c-.07-.16-.14-.32-.22-.47-1-1.83-2-3.63-2.87-5.49a7.2,7.2,0,0,0-3.08-3.3c-1.33-.71-2.67-1.41-4-2.08a1,1,0,0,1-.69-.89c0-.4-.09-.8-.13-1.2s.06-1-.18-1.38-.81-.44-1.23-.64l-.07,0c-1.22-.48-2.42-1-3.65-1.44-.57-.21-.92.09-.88.7,0,.3.12.59.17.89a6.34,6.34,0,0,1,.07,2l-3-.35a4.76,4.76,0,0,1,.18-2,26.24,26.24,0,0,1,2.61-5.76,6,6,0,0,1,2.27-2.27c.26-.14.55-.24.8-.4a13.78,13.78,0,0,1,4.47-1.57c1.31-.3,2.66-.45,4-.64-.75-1.12-1.52-2.23-2.32-3.31a14.15,14.15,0,0,0-1.58.29,9,9,0,0,1-1,.22A31.77,31.77,0,0,0,146.53,36a18.52,18.52,0,0,0-3.42,1.56,4.39,4.39,0,0,0-1.8,1.87c-.27.54-.55,1.07-.85,1.6a17.53,17.53,0,0,0-2.29,6.11,2.41,2.41,0,0,1-.42,1.3c-.52-.12-1-.24-1.55-.33-1.56-.28-3.12-.53-4.69-.79a5,5,0,0,0-.67,0,9,9,0,0,0-4,.83,8.16,8.16,0,0,1-.87.28c-.08-.54-.13-1-.19-1.38-.17-1.14-.33-1.2-.54-2.34a1.92,1.92,0,0,0-.5-1,10.83,10.83,0,0,0-1.49-1,1.82,1.82,0,0,0-.51-.12,1.1,1.1,0,0,0-.08.33,27.75,27.75,0,0,0,.4,3.42c.16,1,.09,2,.16,2.92a.81.81,0,0,1-.48.84c-.88.5-1.73,1-2.58,1.57a.87.87,0,0,0-.41,1c.07.39.33.49.68.57,1,.24,1.93.52,2.94.79,0,.28,0,.5-.07.72-.08.57-.22,1.14-.25,1.71-.12,2.41-.24,4.82-.3,7.24a1.33,1.33,0,0,1-.67,1.3c-1.13.7-2.24,1.45-3.36,2.17a1.9,1.9,0,0,1-.44.14,2.75,2.75,0,0,1-.13-.46c-.09-2.29-.18-4.57-.28-6.86,0-.55,0-1.1-.09-1.65a16.85,16.85,0,0,1,.39-7c.26-.8.2-.93-.56-1.29-1-.46-2-.88-3-1.3-.35-.15-.71-.26-1.07-.38a.5.5,0,0,0-.67.31,5.31,5.31,0,0,0-.23.55,13.75,13.75,0,0,0-.57,5.22c.1,1.28.15,2.56.2,3.84.07,1.65.1,3.31.17,5,0,.48.13,1,.16,1.42a44.26,44.26,0,0,0,.63,5.39c.15.84.06,1-.86,1.14a3.92,3.92,0,0,1-.32-.65,21,21,0,0,1-.86-2.73c-.5-2.49-1-5-1.36-7.5a30.7,30.7,0,0,1-.43-4.8c0-1.35-.08-2.71-.18-4.06-.14-1.73-.33-3.45-.52-5.18-.08-.75-.2-1.49-.35-2.23-.24-1.12-.42-2.26-.77-3.37a18.44,18.44,0,0,1-.45-2.59,16.28,16.28,0,0,1-.3-2.08,1.8,1.8,0,0,0-1.32-1.64c-.53-.24-1.06-.46-1.59-.68s-1.21-.49-1.83-.68-.77.06-.79.53a8.42,8.42,0,0,0,.14,1.41c0,.34.17.67.22,1,.17,1,.25,2,.49,2.89a23.67,23.67,0,0,1,.92,4.8c0,.9.14,1.8.23,2.7.15,1.45.35,2.9.47,4.35s.09,3.08.32,4.59c.41,2.62.94,5.24,1.49,7.84a28.8,28.8,0,0,0,1.68,5.24c.6,1.38,1.09,2.81,1.66,4.2a.64.64,0,0,1-.23.9c-.84.64-1.65,1.31-2.48,2a3.32,3.32,0,0,1-.4.21,4.67,4.67,0,0,1-.22-.75c-.15-1.19-.26-2.39-.41-3.59A66.7,66.7,0,0,0,104,63.83a9,9,0,0,1-.22-1c-.18-1.17-.32-2.34-.52-3.5a10.06,10.06,0,0,1,.31-5.65.79.79,0,0,0-.11-.77c-.67-1.13-1.29-2.28-2-3.39a6.51,6.51,0,0,0-2.67-2.68,2.41,2.41,0,0,0-1.57-.48,18.6,18.6,0,0,1,1.84,3.54c-.84,0-.94.07-1.18.76a1.5,1.5,0,0,0-.11.36,29.06,29.06,0,0,0-.24,3.22,46.55,46.55,0,0,0,1.08,7.23c.36,1.87.73,3.75,1.08,5.62.08.42.13.85.17,1.27a29.57,29.57,0,0,0,1.34,7.17,18.38,18.38,0,0,0,1.57,3.91,1.42,1.42,0,0,1-.11,1.8,14.87,14.87,0,0,0-2.19,3.55c.31,0,.63.06.94.12s.64.13,1,.21c.93.26,1.1.18,1.5-.71.11-.26.2-.52.33-.76a3.62,3.62,0,0,1,.45-.48l1.52,2.92-.54.58c-.7.75-1.46,1.46-2.09,2.26a1.14,1.14,0,0,1-1,.49c-1.32.07-2.65.17-4,.31-1.12.12-2.24.33-3.36.48a2.57,2.57,0,0,1-.48,0,.94.94,0,0,1,0-.3c.35-1.44.69-2.89,1.08-4.31.33-1.21.73-2.41,1.11-3.6a3.35,3.35,0,0,1,.23-.55c.23-.46.14-.75-.34-1a4.24,4.24,0,0,0-.86-.25c-1.25-.19-2.49-.36-3.74-.52a4.29,4.29,0,0,0-.74,0c-.07.1-.09.12-.09.15,0,.59-.08,1.19-.14,1.79a3.64,3.64,0,0,0-.09,1.71c.14.41-.09.93-.12,1.4,0,.19,0,.44,0,.56a.88.88,0,0,1,.12.78,6.67,6.67,0,0,0-.14,1,10.09,10.09,0,0,1-.9,3.86,1.09,1.09,0,0,1-.68.63c-.73.28-1.47.54-2.18.86L84.7,93.64v1.53c.91-.44,1.82-.89,2.73-1.32.64-.3,1.31-.52,2-.76a4.89,4.89,0,0,1,.73-.13l-.14.66a4.74,4.74,0,0,0-.24,1.09,3.86,3.86,0,0,1-.53,1.86c-.42.83-.9,1.62-1.33,2.44a4.54,4.54,0,0,0-.26.7c-.08.24-.13.49-.22.72s-.42.72-.33,1.18a.73.73,0,0,1-.17.49c-.68,1-1.36,2.06-2.07,3.06l-.14.16V107a2.41,2.41,0,0,0,.37-.34c.7-.85,1.41-1.69,2.06-2.59,1.19-1.65,2.38-3.3,3.48-5a20.92,20.92,0,0,0,2.26-4.51c.25-.71.57-1.39.84-2.1a.81.81,0,0,1,.71-.58c1.48-.25,3-.55,4.45-.77.87-.13,1.76-.14,2.63-.23.52,0,1-.14,1.57-.22a.68.68,0,0,1,.71.29c.52.64,1.08,1.25,1.61,1.89s.76.72,1.49.19l1.33-1a7.24,7.24,0,0,1,.3.91c.29,2.22.56,4.44.84,6.66.11.85.21,1.7.37,2.53a1.68,1.68,0,0,0,.43.78c.66.73,1.36,1.43,2,2.15a6.54,6.54,0,0,1,.41.51c.12.16.24.32.37.47s.44.43.79.23a.65.65,0,0,0,.34-.75c-.09-.67-.15-1.35-.2-2s-.06-1.2-.09-1.93l2.5,1.07c.37.15.33.45.32.76-.06,1.61-.16,3.22-.16,4.83,0,1.83.08,3.66.12,5.5,0,.67,0,1.34,0,2.13-.76-.07-1.4-.11-2-.2-1-.13-1.94-.32-2.91-.45a1.22,1.22,0,0,1-1-.76,15.05,15.05,0,0,1-.69-1.91c-.34-1.34-.61-2.7-.91-4-.14-.63-.34-.81-.94-.62-.88.28-1.73.66-2.59,1-.43.17-.43.54-.36.89.15.82.34,1.63.51,2.44.12.56.23,1.12.38,1.79a3.53,3.53,0,0,1-.81,0,19.34,19.34,0,0,0-4.54-.7s-.08,0-.22-.11a4.09,4.09,0,0,1,.16-.74c.47-1.11.93-2.22,1.44-3.31s1.21-2.43,1.82-3.64a20.54,20.54,0,0,1,2.25-3.63c0-.06.08-.14.14-.17a1.1,1.1,0,0,0,.61-.76c.07-.24.33-.43.49-.63-.35-.66-.7-.86-1.43-.64-1.44.42-2.87.91-4.3,1.38a.91.91,0,0,0-.64.67,3.54,3.54,0,0,1-.54.88A38.53,38.53,0,0,0,97.69,108c-.4,1-.68,2-1,3-.12.33-.29.64-.42,1a3,3,0,0,0-.24,1.16,1.65,1.65,0,0,1-.89,1.59c-1.53.87-3,1.86-4.47,2.81a2,2,0,0,0-.52.43.66.66,0,0,0-.15.53.56.56,0,0,0,.48.24,3.77,3.77,0,0,0,1.14-.35,11.44,11.44,0,0,1,3-1.11l.43,0a2.44,2.44,0,0,1-.42,1.87c-.09.12-.36.14-.54.15-.5,0-1,0-1.51,0a1.57,1.57,0,0,0-1.16.36c.3.22.52.4.76.54L94,121a1.07,1.07,0,0,1,.66,1.28.58.58,0,0,0,0,.37c.54,1.23.06,2.48.08,3.72,0,.36-.24.51-.58.58-1.21.22-2.42.45-3.63.7-1.67.34-3.33.74-5,1.05l-.79.16v1.46c1.64-.34,3.26-.8,4.89-1.18a9.64,9.64,0,0,1,4.34,0,1,1,0,0,1,.86.9c.1.79.24,1.59.37,2.38a4.73,4.73,0,0,0,.17.55c.48-.13.84-.26,1.21-.33.56-.09.67-.18.7-.77,0-.43,0-.86,0-1.29s0-.61.57-.66a19,19,0,0,1,2.61-.12,3.53,3.53,0,0,0,2-.9A5.91,5.91,0,0,0,100,127.9c-.88-.29-1.76-.55-2.71-.84a25.73,25.73,0,0,1,.67-3.69c.37.18.65.3.91.45,1,.56,1.94,1.16,2.94,1.68a14.53,14.53,0,0,1,4.21,3.25c1.13,1.28,2.14,2.66,3.22,4,.44.53.82,1.16,1.54,1.38.41.13.83.21,1.23.37a2.72,2.72,0,0,1,1,.56c1,1.05,2,2.15,2.93,3.24a5.49,5.49,0,0,1,.5.8c-.49-.06-.78-.09-1.07-.14-.55-.08-1.09-.23-1.63-.26a1.49,1.49,0,0,0-1,.29,7.17,7.17,0,0,0-1.31,1.44c-.89,1.31-.86,1.33-2.39.83l-.28-.1L103.72,139c-.24-.11-.46-.28-.69-.41.39-.94,1.26-1.22,1.9-1.76a3,3,0,0,1,2.42-.38c-.16-.87-.23-.95-.92-1.08-.22,0-.45-.08-.67-.1-1.15-.1-2.29-.21-3.44-.3a1.82,1.82,0,0,0-.5.12,10.74,10.74,0,0,0-2.46,1.13,1.13,1.13,0,0,1-1.15,0c-1.09-.63-2.2-1.21-3.23-1.93a2,2,0,0,0-2.23-.3c-1,.5-2,.95-3.07,1.43-.42.2-.82.44-1.31.7a3.42,3.42,0,0,0,.4.36c.58.36,1.14.73,1.74,1.05,1.29.69,2.59,1.34,3.89,2,.34.18.67.39,1,.57,0,.16,0,.21-.05.26-.74,1.34-1.49,2.68-2.22,4-.17.31-.47.36-.76.44-.63.17-1.27.31-1.88.53-1.17.4-2.32.84-3.47,1.28l-2.29.87v2c1.08-.46,2.16-.91,3.26-1.32a10.77,10.77,0,0,1,2.21-.4,1.71,1.71,0,0,1,.5.09,10.36,10.36,0,0,1-2.2,2.56A12.78,12.78,0,0,0,86.8,152a18.74,18.74,0,0,1-2.1,2.17v5.39l1.76-1.47c.73-.62,1.45-1.25,2.23-1.8a17.15,17.15,0,0,0,3.58-3.33,9.65,9.65,0,0,1,.9-.91c.72-.7,1.46-1.37,2.15-2.1a16.91,16.91,0,0,0,1.17-1.48,1,1,0,0,1,1-.42c.67.12,1.35.17,2,.28a48.76,48.76,0,0,0,8.08,1,1.51,1.51,0,0,1,1.08.31c-.08.52-.2,1-.23,1.56-.09,1.44-.3,1.26-1.44,1.44s-2.45.27-3.67.45c-1.39.2-2.79.43-4.16.71a31.19,31.19,0,0,0-4.5.91c-.59.22-1.18.44-1.75.69-1,.43-2,.87-3,1.33a8.19,8.19,0,0,0-.93.59,2.33,2.33,0,0,0,.51.36c1.44.48,2.89,1,4.35,1.39a1.92,1.92,0,0,0,1.16-.18c1-.43,2-.93,3-1.37a14.05,14.05,0,0,1,2-.76c2-.52,4-1,6-1.46.45-.11.92-.13,1.41-.2a2.25,2.25,0,0,1-.21,1.45c-.43,1.31-.93,2.6-1.37,3.91a4.15,4.15,0,0,0-.21,1.25c0,.75.23,1,1,1.12.89.17,1.77.32,2.66.5.41.08.81.19,1.21.31a.76.76,0,0,0,1-.48,15.46,15.46,0,0,0,.49-1.5,51.12,51.12,0,0,0,1.85-6.22c.2-1.14.22-1.13,1.35-1.31l.3-.06,4.54-.72a3.57,3.57,0,0,1,.58,0c.11.75.23,1.44.29,2.14.22,2.2.4,4.4.62,6.61.14,1.36.31,2.73.51,4.09,1.92-.9,3.79-1.86,5.63-2.89-.11-.9-.21-1.81-.31-2.71-.28-2.73-.55-5.45-.83-8.18-.07-.63,0-.68.59-.93,1-.38,2-.79,2.92-1.18.32-.13.65-.22,1-.33.27.72.53,1.35.74,2,.58,1.74,1.13,3.49,1.7,5.23l.71,2.1c.91-.62,1.81-1.27,2.7-1.92a18.4,18.4,0,0,1-.68-1.83c-.59-2.13-1.12-4.28-1.66-6.42-.17-.67-.11-.73.53-1a27.31,27.31,0,0,0,5-3c.82-.63,1.59-1.31,2.38-2a16.6,16.6,0,0,0,4.78-6,1.58,1.58,0,0,1,.24-.27c.35.39.68.73,1,1.1.76,1,1.55,2.05,2.23,3.13a2.33,2.33,0,0,0,1.93,1c.11,0,.23,0,.35,0,.84-1,1.65-2.06,2.45-3.12l-.59-.84c-.83-1.14-1.7-2.24-2.51-3.4-.51-.71-.93-1.47-1.4-2.23l4.28-3.16c.32.42.67.87,1,1.34a21.3,21.3,0,0,0,2.16,2.7c.18.18.33.39.5.59.44-.7.9-1.39,1.33-2.1-.48-.79-1-1.59-1.42-2.39s-.67-1.36-1.05-2-.43-.63,0-1.25a21.05,21.05,0,0,0,3.11-6.41c.21-.7.42-1.4.58-2.11s0-.81-.64-.73c-1.27.13-2.53.37-3.8.52a1.52,1.52,0,0,0-1.37,1.28c-.26.87-.57,1.72-.89,2.57a5.69,5.69,0,0,1-.41.74,2,2,0,0,1-.37-.39c-.36-.72-.73-1.43-1.06-2.16s-.23-.7.24-1.11a56.43,56.43,0,0,0,5.1-4.92,5.11,5.11,0,0,1,.59-.49,6.15,6.15,0,0,1,.5.41c.93.94,1.88,1.87,2.77,2.86a1.2,1.2,0,0,0,1.41.37c1.33-.44,2.66-.86,4-1.31.33-.11.65-.3.54-.71a5.84,5.84,0,0,1-1.32-.45,21.2,21.2,0,0,1-1.78-1.38c-.33-.26-.66-.54-1-.82l-2.34-2.16a3.8,3.8,0,0,1,.32-.49c1-1.07,2-2.15,3.09-3.19a16.39,16.39,0,0,1,6.4-4c.25-1.38.47-2.76.64-4.16-.86.26-1.68.67-2.54,1a10.8,10.8,0,0,0-4.06,2.53c-1.4,1.34-2.72,2.75-4.07,4.15-.5.52-.95,1.1-1.44,1.64s-.79.55-1.33.06l-1.61-1.48c-.26-.24-.48-.58-.78-.69a2.72,2.72,0,0,1-1.17-.91c-.33-.37-.63-.79-1.22-.76a.43.43,0,0,1-.31-.19c-.37-.46-.73-.94-1.11-1.43a23.12,23.12,0,0,1,1.41-2,5.18,5.18,0,0,1,2.36-2,1.45,1.45,0,0,0,.49-.34c.51-.45,1-.9,1.51-1.37,1.08-1.06,2.14-2.12,3.19-3.2.8-.82,1.59-1.66,2.36-2.52.25-.27.38-.65.62-.93a3.43,3.43,0,0,0,1-2.24c0-.07.06-.14.09-.2.17-.39.36-.77.5-1.17a6.51,6.51,0,0,0,.18-.9l-.49-.55c.38-.63,1-1.13.91-1.93,0,0,0,0,0-.06.65-.69,1.27-1.41,2-2.07.4-.38.46-.56.08-1a1.06,1.06,0,0,0-1.48-.06c-1.46,1.28-2.93,2.53-4.38,3.81a18.36,18.36,0,0,0-2.32,2.26A77.25,77.25,0,0,1,155,91.55c-1.73,1.79-3.58,3.46-5.38,5.18a5.19,5.19,0,0,1-.47.36c-.08-.14-.15-.28-.23-.41-.46-.69-.9-1.39-1.39-2.06a3.54,3.54,0,0,0-1-1,3.34,3.34,0,0,1-1.23-1.38c-.64-1.14-1.3-2.26-2-3.38a1,1,0,0,0-1.19-.38c-.4.17-.46.41-.35,1a10.55,10.55,0,0,0,1.36,3.09c1.2,2.23,2.49,4.42,3.78,6.61a.89.89,0,0,1,0,1.14,24.41,24.41,0,0,0-2.43,4.17,4.08,4.08,0,0,1-.9,1.41c-.12-.2-.21-.38-.33-.54-1.17-1.64-2.33-3.28-3.51-4.91a2.3,2.3,0,0,1-.41-1.84c.52-3.15,1-6.31,1.51-9.45a15.35,15.35,0,0,1,.81-3.22,24.92,24.92,0,0,0,1.21-4.58,1.75,1.75,0,0,0,0-.88,1.89,1.89,0,0,1,0-1.26c.14-.56.32-1.11.47-1.66.32-1.16.84-2.28.52-3.53a.77.77,0,0,1,0-.3c.07-.57.16-1.14.22-1.72a2,2,0,0,0,0-.74c-.07-.3-.42-1.2-.42-1.2a1.86,1.86,0,0,1-.12-.76c-.09-1.36-.14-2.71-.31-4.06a2.72,2.72,0,0,0-.66-1.31,6.23,6.23,0,0,0-1.26-.93,4.34,4.34,0,0,0-.63-.26c0,.37,0,.64,0,.9,0,1.15,0,2.31.07,3.46a23.89,23.89,0,0,1-1,5.94,37.2,37.2,0,0,1-2.5,7.58,13.17,13.17,0,0,0-.77,2,31.22,31.22,0,0,0-.74,5.28,13.45,13.45,0,0,1-.22,1.55c-.17.78-.37,1.56-.56,2.34-.06.24-.14.49-.26.9a21,21,0,0,1-1.82-3.06c-.15-.31-.19-.65-.67-.68-.2,0-.38-.29-.63-.49s.05-.55.44-.66a1.48,1.48,0,0,1,.37-.06c.4-1.17,0-2.62.28-3.85.28-1.43.5-2.87.78-4.3a.87.87,0,0,0-.6-1.11c-.57-.25-.6-.32-.48-.94s.36-1.15.51-1.72a2.51,2.51,0,0,1,.95-1.39,6,6,0,0,0,1.67-1.61c.42-.75.82-1.5,1.3-2.2.67-1,1.36-1.93,2.11-2.84.53-.62.53-.82-.25-1.08l-.15,0-4-1.11A1.33,1.33,0,0,0,133,66c-.33.38-.61.8-.91,1.2a5.41,5.41,0,0,1-1,1.22A3.86,3.86,0,0,0,130,69.91c-.2.4-.43.8-.61,1.21a14.29,14.29,0,0,0-1.52,3.68c-.19,1.31-.82,2.89-.47,4.23s1.31,2.31,1.53,3.74a10,10,0,0,0,.43,2.31c.22.51.58,1.06.35,1.57-.57-.07-2.78.47-2.5,1.42,0,.1.08.19.11.28a12.68,12.68,0,0,0,1.74,3.42c1.39,1.94,2.76,3.9,4.18,5.82a2.23,2.23,0,0,1,.42,2.11c-.06.21-.12.43-.2.64a16.67,16.67,0,0,1-2.2,4.2c-.26.36-.46.78-.71,1.15-.4.58-.51.62-1.09.24s-1.15-.8-1.71-1.23a16.72,16.72,0,0,0-4.48-2.73c-.65-.24-.79-.54-.63-1.23.12-.54.27-1.07.37-1.61a30.1,30.1,0,0,0,.74-6.2,62.62,62.62,0,0,0-.9-8.32,6.39,6.39,0,0,0-.51-1.73,11.54,11.54,0,0,1-.82-2.26,2.8,2.8,0,0,0-.31-.85,18.26,18.26,0,0,1-1.68-3.94,18.77,18.77,0,0,1-.88-4,.87.87,0,0,1,.48-1c.8-.43,1.58-.88,2.37-1.32l1.35-.74c0,.21.09.32.11.44A19.52,19.52,0,0,1,123,73.7a2.07,2.07,0,0,0,0,1c.32.74.72,1.44,1.1,2.14a.76.76,0,0,0,.93.31c.35-.08.37-.36.4-.64a29.15,29.15,0,0,0,.11-4.67c-.07-1.35-.08-2.71-.13-4.07a1.15,1.15,0,0,1,.58-1c1.5-1.06,3-2.14,4.47-3.22a25.18,25.18,0,0,0,2.91-2.7c-.66-.24-1.25-.47-1.85-.67a8.57,8.57,0,0,1-1.16-.3,1.87,1.87,0,0,0-2.28.38c-.6.57-1.23,1.11-1.86,1.65-.18.16-.38.28-.67.49a4.85,4.85,0,0,1-.1-.78c.05-1,.07-2,.18-2.93a40.84,40.84,0,0,0,.63-5.16,1,1,0,0,1,.41-.85,6.76,6.76,0,0,1,.61-.44,40.57,40.57,0,0,1,4.94-2.23c2-.92,3.55-.32,5.39.51.24.21.4.37.4.61s.16.28.22.29c-.05.21-.19.53-.12.59.34.28.08.44-.08.6s-.35.41-.2.7M108,83.13c-.4-.81-.75-1.65-1.11-2.48a.8.8,0,0,1,.16-.9,24.65,24.65,0,0,1,3.2-3.18,3.68,3.68,0,0,1,.42-.22,27.43,27.43,0,0,1,2,6.34c-.11,0-.15,0-.16,0a1.45,1.45,0,0,0-2.13,0,7.86,7.86,0,0,1-1.47.76C108.35,83.66,108.18,83.61,108,83.13Zm8.76.1c-.5-1.71-1-3.4-1.62-5.09-.23-.66-.59-1.27-.85-1.92s-.43-1.17-.63-1.77c-.14-.43.06-.66.58-.78.29.71.54,1.39.82,2a6.15,6.15,0,0,0,.41.81A17.68,17.68,0,0,1,118,83.88a36.79,36.79,0,0,1,.56,6.37c0,1.13-.19,2.25-.31,3.38a1,1,0,0,1-.28.6c0-.72,0-1.44,0-2.16-.1-1.78-.17-3.57-.39-5.34A21.41,21.41,0,0,0,116.71,83.23Zm-3,17.13a32,32,0,0,0-1.25-6.79c-.37-1.15-.79-2.28-1.2-3.41-.25-.68-.25-.67.26-1.16a5.34,5.34,0,0,1,1.85-1.2,7.86,7.86,0,0,1,.11,1c0,.8-.06,1.6-.14,2.4a1.5,1.5,0,0,0,.42,1.3c.34.36.61.78.93,1.17s.48.49.7.75c.34.41.67.83,1,1.25s.65.54,1.09.19a.79.79,0,0,1,.26,0,2.89,2.89,0,0,1,0,.51c-.22,1-.46,2.1-.68,3.16a.85.85,0,0,1-.66.73,6,6,0,0,0-2.57,1.08C113.76,100.89,113.72,100.63,113.69,100.36Zm4.46,32.87L116,130.92a1.82,1.82,0,0,0-1.63-.57l-.3,0a1.59,1.59,0,0,1-1.53-.6,26.82,26.82,0,0,0-2.8-2.84,23,23,0,0,0-3.11-2.12c-2.56-1.54-5.16-3-7.75-4.53-.55-.33-.6-.47-.46-1.1s.21-1,.35-1.47c.18-.67.28-.72,1-.59,1.09.19,2.17.42,3.27.58,1.91.27,3.84.51,5.76.72a1.9,1.9,0,0,1,1.32.75c.69.86,1.43,1.69,2.15,2.52a2.46,2.46,0,0,1,.32.42,15.62,15.62,0,0,0,2.51,3.46,17.59,17.59,0,0,1,2.71,4.86c.35.86.63,1.75.94,2.63a3.27,3.27,0,0,1,.09.56l-.13.08C118.49,133.56,118.31,133.4,118.15,133.23Zm-3.79-14,2.41.59a.77.77,0,0,1,.6.6c.46,1.64.93,3.27,1.4,4.91a1.84,1.84,0,0,1,0,.35c-1.87-2-3.09-4.37-5-6.39A3.35,3.35,0,0,1,114.36,119.24Zm7.13,17.93a2.6,2.6,0,0,1-.21-.49l.8.08c.44,0,.67-.16.64-.59,0,0,0-.09,0-.14-.35-1.26-.66-2.53-1.06-3.77s-1-2.59-1.44-3.89a.34.34,0,0,1,0-.31c.35.5.68,1,1.06,1.52a18.39,18.39,0,0,0,1.79,2.12,22.55,22.55,0,0,1,3.31,4.18,13.91,13.91,0,0,1,1.86,4.34c.17.69.15.77-.5,1-.92.34-1.84.69-2.76,1-.48.16-.57.13-.76-.33A19.2,19.2,0,0,0,121.49,137.17Zm-3.84,4.25a2,2,0,0,1,.61,1.39,1.58,1.58,0,0,1-1.41-.1Zm-9.55,4.8c-1.28-.27-2.55-.58-3.83-.83s-2.86-.51-4.3-.77c-.19,0-.38-.09-.73-.17.32-.59.55-1.09.84-1.55s.43-.47,1-.29c.88.31,1.74.66,2.63.91,1.18.33,2.38.59,3.58.87l2.06.46a2.09,2.09,0,0,1,0,.48C109.19,146.29,109,146.41,108.1,146.22Zm7.28-.06c.05-.61.26-.84.87-.92l2.65-.32a3.49,3.49,0,0,1,.17.34c.26.94.14,1.18-.84,1.33a19.79,19.79,0,0,1-2.32.17C115.45,146.78,115.34,146.61,115.38,146.16Zm4.5,3.5c0,.36-.24.47-.51.56-.74.23-1.48.47-2.23.66s-1.56.35-2.47.55a8,8,0,0,1,.23-2.63c0-.14.21-.28.35-.35a2.38,2.38,0,0,1,.64-.2l3.55-.65A9.36,9.36,0,0,1,119.88,149.66Zm10-4.38a.61.61,0,0,1-.34.87c-1.05.47-2.1.95-3.17,1.38-.47.2-.64.08-.75-.41-.23-1.08-.42-2.16-.65-3.35l4-1.2a3.75,3.75,0,0,1,.25.48C129.38,143.79,129.6,144.54,129.83,145.28Zm9.47-6.57a1.74,1.74,0,0,1-.18.33,24.2,24.2,0,0,1-3.62,3.39c-.45.37-.9.73-1.37,1.07-.25.19-.54.35-.95.6-.4-1-.73-1.83-1.1-2.76l7.13-2.75Zm3.18-8.81a19.52,19.52,0,0,1-.44,3.81,1.77,1.77,0,0,1-1,1.29c-1.21.61-2.41,1.25-3.62,1.86-1.64.82-3.3,1.62-4.94,2.43l-.14.06c-1,.41-1.22.38-1.65-.6a17.41,17.41,0,0,0-3.47-4.61c-.58-.65-1.09-1.37-1.61-2.08a13.61,13.61,0,0,1-1.06-1.65,16.76,16.76,0,0,1-1.18-2.59c-.51-1.58-.92-3.19-1.35-4.79a10.13,10.13,0,0,1-.14-1.1c.41.21.71.32,1,.49.8.51,1.6,1,2.39,1.57a1.81,1.81,0,0,0,1.56.31c1-.25,2-.43,3-.61.47-.08.94-.08,1.41-.15.24,0,.51-.1.56-.41s-.16-.51-.4-.67c-1.93-1.27-3.85-2.55-5.8-3.8a8.83,8.83,0,0,0-1.56-.72c-.68-.27-1.37-.52-2.07-.73a.65.65,0,0,1-.5-.72c0-1.11-.08-2.22,0-3.32,0-1.86.14-3.72.23-5.58,0-.57.12-1.13.2-1.78a4.42,4.42,0,0,1,.56.23,59.36,59.36,0,0,1,5.22,3.84.94.94,0,0,1,.36,1.18,4.36,4.36,0,0,1-.21.64,1.24,1.24,0,0,0,.28,1.63c.54.58,1.11,1.13,1.67,1.69.24.23.54.37.63.78.05.25.44.46.72.62s.59-.07.8-.5.43-.9.66-1.35a3,3,0,0,1,.28-.42,7.48,7.48,0,0,1,2.09,1.46,9.82,9.82,0,0,1,2.46,3.38c.5,1.2,1.05,2.38,1.61,3.64a5.74,5.74,0,0,1-.71.44,31,31,0,0,0-5.25,2.62,8.84,8.84,0,0,1-2,.76,7.1,7.1,0,0,0-2.15,1.07,1.17,1.17,0,0,0-.49.89c-.08,1.63-.18,3.26-.26,4.9a4,4,0,0,0,.1.56,2.06,2.06,0,0,0,.51-.21,10.84,10.84,0,0,1,2.67-1.36,14,14,0,0,0,2-1.12,14.24,14.24,0,0,1,3.38-1.63,8.86,8.86,0,0,0,1.36-.64l3.36-1.54A4,4,0,0,1,142.48,129.9Zm8.84-6.85c.4.55.76,1.12,1.16,1.67a.65.65,0,0,1,0,.89c-.82,1-1.64,1.89-2.47,2.83a6.08,6.08,0,0,1-.65.55,30.56,30.56,0,0,1-3-4.83c1.13-1,2.44-1.84,3.71-2.82C150.49,122,150.92,122.49,151.32,123.05Zm-3.59-5.41a16.05,16.05,0,0,1-3.37,2.19,1.68,1.68,0,0,1-.59-1A11.45,11.45,0,0,0,141,114.6a14.89,14.89,0,0,0-3.65-2.63,9.22,9.22,0,0,1-2.49-1.67c.16-.28.29-.57.46-.84.61-.92,1.25-1.82,1.82-2.77.37-.62.64-1.3,1-2a2.22,2.22,0,0,1,.42.29c.3.34.58.69.87,1,.64.77,1.29,1.54,1.9,2.33a42.32,42.32,0,0,1,3.5,4.9c.54.93,1.22,1.78,1.82,2.68C147,116.46,147.35,117,147.73,117.64Zm8.63-6.78c-1.89,1.57-3.62,3.31-5.69,4.71-.66-1-1.25-2-1.91-2.95s-1.35-1.79-2.08-2.75a2.72,2.72,0,0,0,1.43-.64A6.46,6.46,0,0,0,150,106.4a9.75,9.75,0,0,1,.31-1.09,4.21,4.21,0,0,1,.38-.66Z"/><path class="cls-2" d="M165.36,66.64A3.28,3.28,0,0,0,165,67c-.71.67-1.43,1.33-2.13,2a1,1,0,0,1-1,.26,10.57,10.57,0,0,0-1.94-.21c-1,0-2,.1-3,.16a11.89,11.89,0,0,0-1.2.11c-.17,0-.46.19-.46.29a.84.84,0,0,0,.28.55,1.54,1.54,0,0,0,.61.27l3.39,1c.27.08.54.21.89.35l-.45.6A24.37,24.37,0,0,0,158,75.22c-.73,1.48-1.27,3.06-1.88,4.6-.36.91-.7,1.82-1.07,2.73-.14.36-.1.48.27.63a2.15,2.15,0,0,0,.44.09l3.64.48a1.34,1.34,0,0,0,1.71-1c.34-.82.6-1.66.9-2.49a18.73,18.73,0,0,1,3.6-6.8c.25-.27.45-.45.83-.38,1.53.3,3.08.5,4.58.89l1.08.28c-.12-.87-.25-1.74-.39-2.6l-2.42-.42c-.28,0-.56-.15-.89-.23a6.9,6.9,0,0,1,2-2.19l.72-.56c-.36-1.72-.78-3.41-1.23-5.1Z"/><path class="cls-2" d="M121.9,10.13c1.62,3.26,3.2,6.54,4.89,9.77,1,1.93,2.17,3.78,3.3,5.64.56.93,1.18,1.81,1.81,2.7a5.26,5.26,0,0,0,2,2.11,5.22,5.22,0,0,1,2,1.42,2.28,2.28,0,0,0,1.29.71c.16.05.45,0,.52-.07a1,1,0,0,0,.09-.61c0-.14-.15-.26-.23-.38l-4.72-7.16a7.89,7.89,0,0,1-1-1.74c-.56-1.61-1.45-3.08-2.09-4.65-.55-1.34-1.21-2.64-1.81-4-.4-.89-.73-1.82-1.15-2.7-.52-1.09-1-2.19-1.47-3.3-1.86-1-3.75-1.88-5.68-2.71C120.35,6.86,121.09,8.51,121.9,10.13Z"/><path class="cls-2" d="M146.19,23a3.07,3.07,0,0,0-.76.24,8.52,8.52,0,0,1-2.25.7,10,10,0,0,1-1.7.31,1.28,1.28,0,0,0-1.28,1.05c-.17.58-.33,1.16-.51,1.73-.27.91-.56,1.81-.85,2.73A1,1,0,0,0,140,30c.55-.18,1.11-.32,1.66-.49,2.06-.66,4.11-1.33,6.17-2q1.08-.34,2.13-.75C148.72,25.48,147.47,24.21,146.19,23Z"/><path class="cls-2" d="M85.81,51.92A2,2,0,0,0,86.13,53a7.17,7.17,0,0,0,2.55,2.28,5.57,5.57,0,0,0,.58.32c.43.11.88.16,1.31.24s.59,0,.66-.4a4.51,4.51,0,0,0,0-1c-.12-1.45-.33-2.9-.37-4.35a35.27,35.27,0,0,1,.28-4.81,26.4,26.4,0,0,1,.73-4.34c.26-.94.57-1.86.85-2.79.16-.57.16-1.2.68-1.62,0,0,0-.14.08-.21.25-.57.5-1.15.77-1.71A10,10,0,0,0,95.06,33a9.89,9.89,0,0,1,.84-1.84c.45-.86.85-1.75,1.27-2.63a8.48,8.48,0,0,1,1.12-2,.48.48,0,0,0,0-.61,2.28,2.28,0,0,0-1.34-1c-.82-.28-1.68-.46-2.49-.81a2.72,2.72,0,0,0-1.18-.07.6.6,0,0,0-.37.3,3.79,3.79,0,0,0-.48,1,21.94,21.94,0,0,1-1.41,3.31,24,24,0,0,0-1.64,3.71,1.2,1.2,0,0,1-.17.34A22,22,0,0,0,88,35c-.58,1.43-1.09,2.91-1.58,4.38A13.58,13.58,0,0,0,86,41.55c-.16,1.06-.24,2.13-.37,3.2a5.52,5.52,0,0,0,0,1.77,24.79,24.79,0,0,1,.17,3h.06C85.79,50.32,85.76,51.12,85.81,51.92Z"/><path class="cls-2" d="M85.15,80.53a3.75,3.75,0,0,0,2.19-1.63c.74-1.22,1.45-2.46,2.15-3.71s1.29-2.38,1.93-3.57A11.42,11.42,0,0,0,92,70.41c.42-1,.89-2.08,1.21-3.15a8.22,8.22,0,0,1,1-2.19,1.08,1.08,0,0,0,.11-.36c.44-1.9.88-3.8,1.33-5.72a5.61,5.61,0,0,1-.75-.58,6.3,6.3,0,0,0-2-1.59c-.57-.29-.7-.25-1,.3a12,12,0,0,0-1.53,3.59,3.35,3.35,0,0,1-.44,1.11c-.4.64-.88,1.23-1.29,1.86s-.66,1.11-1,1.69-.62,1.31-1,1.95c-2.18,4.12-1.78,8.68-2,13.3A2,2,0,0,0,85.15,80.53Z"/><path class="cls-2" d="M89,88.69a.72.72,0,0,0,.28-.91,3.06,3.06,0,0,0-1-1.34c-.43-.35-.86-.69-1.31-1a21.77,21.77,0,0,0-2.35-1.51,55.57,55.57,0,0,0,.1,6.33c.54-.08,1.08-.3,1.64-.36A4.82,4.82,0,0,0,89,88.69Z"/><path class="cls-2" d="M131.62,39.32c.79.16,1.58.3,2.35.52a2.44,2.44,0,0,0,1.8-.34,5.28,5.28,0,0,0-.2-.55c-.48-.8-.93-1.61-1.45-2.38-1.53-2.21-3-4.48-4.68-6.56a33.09,33.09,0,0,0-3.17-3.42,16.47,16.47,0,0,1-3.4-3.62,1.59,1.59,0,0,0-1.38-.63c-.68-.05-1.35-.13-2-.15a19.78,19.78,0,0,0-2.18,0c-.73.07-.83.41-.41,1A16.33,16.33,0,0,0,120,26.32a30.4,30.4,0,0,1,4.58,4.35c.25.32.51.62.73.95.66,1,1.61,1.87,1.95,3.09a.67.67,0,0,0,.16.25,16.86,16.86,0,0,1,2.21,3c.28.46.54,1,1.11,1.18C131,39.27,131.31,39.25,131.62,39.32Z"/><path class="cls-2" d="M123.22,38.44c.55,0,1.11,0,1.66,0,.19,0,.52-.16.54-.29a.78.78,0,0,0-.25-.63,6.93,6.93,0,0,0-1.09-.64c-.69-.35-1.42-.64-2.08-1a3.58,3.58,0,0,0-3.15-.55.78.78,0,0,1-.22,0,12.15,12.15,0,0,0-2.75.17,23.47,23.47,0,0,1-2.92.2l-2,.13c-.93.06-1.85.13-2.77.16-.29,0-.57,0-.7.29s0,.83.33.92a5.38,5.38,0,0,1,1.27.75,18.67,18.67,0,0,0,1.75,1,.82.82,0,0,0,.34.14q1.26,0,2.52-.12l8.1-.55v.09Z"/><path class="cls-2" d="M88.4,119.36A33.88,33.88,0,0,0,91,115.88c1.33-2.15,2.55-4.38,3.76-6.61a56.39,56.39,0,0,0,3.47-7.68,18.41,18.41,0,0,1,2.55-5.09c.16-.2.26-.45,0-.68a12.38,12.38,0,0,0-1-.92c-.57-.44-1.17-.85-1.76-1.27-.37-.26-.75-.51-1.13-.74a3.74,3.74,0,0,0-.62-.26,2.1,2.1,0,0,0-.56.28,3.41,3.41,0,0,0-.6.76,41.33,41.33,0,0,0-2.52,5.8,36.06,36.06,0,0,1-2.3,5.16c-.54,1-1.09,1.92-1.58,2.91-1,2.14-3.13,4.37-3.89,6.54-1,2.69-.73,6.73,0,9.42A28.9,28.9,0,0,0,88.4,119.36Z"/></svg>