<svg id="Layer_1" data-name="Layer 1" xmlns="http://www.w3.org/2000/svg" viewBox="0 0 171.46 171"><defs><style>.cls-1{fill:#e7b00c;}.cls-2{fill:#2e5b66;}</style></defs><title>Artboard 20</title><path class="cls-1" d="M23.94,36.53a6.68,6.68,0,0,0,1.43,1.95c1.19,1.13,3,2.51,4.7,2.68.41,0,.81,0,1.22.05a17.65,17.65,0,0,0,3.35.43c.83-.06,1.67-.14,2.49-.28a15.57,15.57,0,0,1,2.18-.5,2.08,2.08,0,0,0,1.95-1.55,6.2,6.2,0,0,0,.61-3.26,3.31,3.31,0,0,1,.06-.54,13.79,13.79,0,0,0-.07-2.41A14.09,14.09,0,0,0,41,30.27,28.85,28.85,0,0,0,39.4,27a2.77,2.77,0,0,0-1.62-1.49c-.71-.21-1.4-.48-2.09-.72a4.07,4.07,0,0,0-.82-.25c-.75-.1-1.51-.13-2.25-.27a4.7,4.7,0,0,0-3.53.59A2.35,2.35,0,0,1,28,25,5.81,5.81,0,0,0,26.78,25a5.55,5.55,0,0,0-2.5,1.33l-.68.7c-.22.28-.43.56-.63.87a4.15,4.15,0,0,0-.61,1.44,9,9,0,0,0,.27,3.76A22.3,22.3,0,0,0,23.94,36.53Z"/><path class="cls-1" d="M121.14,82.32a11.1,11.1,0,0,1-.83-.85A7,7,0,0,0,117,79.2a3.76,3.76,0,0,1-2.19-.84c-.05-.06-.2-.07-.31-.07l-2.28.17a2.31,2.31,0,0,0-1.8,1.08,1.12,1.12,0,0,0-.1.38,2.12,2.12,0,0,1-.18.77c-.21.3-.54.53-.78.82a1.44,1.44,0,0,1-1.47.57.79.79,0,0,0-.62.27c-.46.62-1.49,2.42-1.25,3.24.37,1.25,1.59.79,3,.78l9.34-.05c1.7,0,3.39,0,5.08,0-.06-.17-.13-.35-.19-.53A7.15,7.15,0,0,0,121.14,82.32Z"/><path class="cls-1" d="M54.39,68.82a7.41,7.41,0,0,0-1.91-4.21,2.44,2.44,0,0,1-.73-1.69c0-.63,0-1.25.08-1.87s-.34-1.18-1-1a1.42,1.42,0,0,1-1.23-.39,3.08,3.08,0,0,0-.88-.5c-.63-.21-1.36-.12-1.85-.71-.05-.06-.2,0-.31,0-.3,0-.61.07-.92.06-.9,0-1.88.31-2.67-.46,0,0-.13,0-.2,0a4.9,4.9,0,0,0-1.42.43,6.23,6.23,0,0,1-2,.74c-1.24.33-2.36.83-2.61,2.3a.2.2,0,0,1-.1.12c-.56.28-.46.81-.55,1.3-.18,1,.21,2-.13,3a.48.48,0,0,0,.1.35,1.45,1.45,0,0,1,.06,1.49,1.81,1.81,0,0,0-.12.94,8.49,8.49,0,0,0,1.25,3.33,25.45,25.45,0,0,1,1.53,2.51.72.72,0,0,0,.37.27c.75.22,1.5.44,2.26.62,1,.23,2,.44,3,.61,1.21.21,2.42.37,3.63.55l1.55.2a6.07,6.07,0,0,0,1.2-.29c1.26-.58,1.58-1.91,2.25-2.95a13.1,13.1,0,0,0,.7-1.34A5.7,5.7,0,0,0,54.39,68.82Z"/><path class="cls-1" d="M154.28,36.83a1.12,1.12,0,0,1,.05,1.17,1.41,1.41,0,0,0-.09.75,6.56,6.56,0,0,0,1,2.64,19.81,19.81,0,0,1,1.22,2,.53.53,0,0,0,.29.22c.59.17,1.18.35,1.79.49.79.18,1.58.35,2.38.48l1.23.19a86,86,0,0,0-7.54-11.45c-.25.23-.22.58-.28.91-.14.78.16,1.57-.11,2.34A.39.39,0,0,0,154.28,36.83Z"/><path class="cls-1" d="M94.34,10.3a.63.63,0,0,0,.36.28c.75.22,1.5.44,2.27.61,1,.23,2,.45,3,.62,1.2.21,2.42.37,3.63.54.46.07.92.12,1.55.2a5.57,5.57,0,0,0,1.2-.29c1.26-.57,1.57-1.9,2.25-2.94A12.23,12.23,0,0,0,109.3,8,5.75,5.75,0,0,0,110,4.71,8.72,8.72,0,0,0,109.52,3,85.83,85.83,0,0,0,99,.71C97.8.54,96.64.38,95.47.26h-.13A22.62,22.62,0,0,0,91.67,0c-.06.61-.11,1.3-.13,2-.07,2,.13,4.31,1.26,5.77A27.43,27.43,0,0,1,94.34,10.3Z"/><path class="cls-1" d="M64.94,46.72c.48-.07.56-.32.5-.76-.11-.77-.13-1.55-.24-2.32a1.93,1.93,0,0,0-.36-.93,17.34,17.34,0,0,0-1.3-1.27,22.59,22.59,0,0,0-5.15-3.68,1.57,1.57,0,0,0-.88-.18c-1.8.17-3.59.38-5.38.6a2,2,0,0,0-.78.36c-.26.16-.5.24-.72,0a.52.52,0,0,0-.82,0A13.28,13.28,0,0,0,48.62,40a9.79,9.79,0,0,0-.76,1.43,8.55,8.55,0,0,0-1.18,4.73A9.67,9.67,0,0,0,48,50.63a13.11,13.11,0,0,0,1.34,1.73,2.42,2.42,0,0,0,1,.41c.88.31,1.75.65,2.65.91s1.66.37,2.47.61a8.51,8.51,0,0,0,3.39.55,7.15,7.15,0,0,0,2.81-.63,1.91,1.91,0,0,0,.56-.45,23.63,23.63,0,0,0,1.41-1.92c.31-.49.81-1,.49-1.52.33-.32.71-.54.88-.88a3.6,3.6,0,0,0,.25-1.24c0-.53.08-1.08-.74-1.13a.78.78,0,0,1,0-.14A1.23,1.23,0,0,1,64.94,46.72Z"/><path class="cls-1" d="M103.3,54.5a2.67,2.67,0,0,0,.3,1.24c.35.8.77,1.55,1.15,2.35.59,1.28,1.48,3.35,1.48,3.35.36,1.12.92,1.38,2.17,1.3a1.94,1.94,0,0,1,.8.06c.35.14.63.2.76,0l.93,0h.43a10,10,0,0,0,3.19,0,12.25,12.25,0,0,1,2.28-.26,3.13,3.13,0,0,0,2.77-2.3c.44-1.26.91-2.51,1.38-3.75.1-.26.38-.47.12-.78a1,1,0,0,0-1-.45,10,10,0,0,1-1.23,0c0-.47.12-.7.54-.85s1.22-.44,1.23-1.18a23.13,23.13,0,0,0-.14-3.33,4.7,4.7,0,0,0-1.32-2.44,6.89,6.89,0,0,0-.83-1c-.38-.32-.83-.55-1.23-.85s-1.64-.47-1.89-.22c-.46.45-.77.14-1.12-.11s-.45-.38-.68-.39A8.78,8.78,0,0,0,109,46.07c-.12.06-.19.24-.27.37a2,2,0,0,1-1.17,1.1,5,5,0,0,0-2.7,1.9A9.61,9.61,0,0,0,103.3,54.5Z"/><path class="cls-1" d="M20.92,79.64a8.51,8.51,0,0,0-3-2.41,7.55,7.55,0,0,0-5.34.34,2.15,2.15,0,0,0-1.26.89,2.24,2.24,0,0,0-.16,1.12c0,1.68.09,3.36.13,5a1.85,1.85,0,0,0,.34,1.23,1.81,1.81,0,0,0,1.39.4c1,0,2,0,3,0,.49,0,1,0,1.48.06s1,.14,1.44.21l.46.07a14.91,14.91,0,0,0,2,.12,7,7,0,0,0,2.36-.41,1.52,1.52,0,0,0,.76-.46c.48-.6.07-1.47-.36-2.1A40.21,40.21,0,0,0,20.92,79.64Z"/><path class="cls-1" d="M40.43,24.25a8.47,8.47,0,0,0,1.42,2.81,8.61,8.61,0,0,1,1.95,2.75.49.49,0,0,0,.33.23c1.18.26,2.36.57,3.56.74,1.52.2,3.05.31,4.58.39.75,0,1.51-.16,2.26-.13a3.59,3.59,0,0,0,2.64-1.32A1.75,1.75,0,0,0,57.62,28a5.54,5.54,0,0,0-.18-.67l.37-.1a2,2,0,0,0,1.74-1.55,3.14,3.14,0,0,0,0-1.06,4.26,4.26,0,0,0-1.1-2.81c-.7-.62-1.38-1.26-2.08-1.89-.33-.3-.44-.64-.21-1a6.82,6.82,0,0,0-1.05-1.57,5.46,5.46,0,0,0-1.85-.93,7.57,7.57,0,0,0-1.91-.33c-1.58-.11-3.1-.59-4.71-.6A3.83,3.83,0,0,0,43,18a.8.8,0,0,1-.27.34c-.41.3-.87.54-1.25.88A4,4,0,0,0,40,22.56,8,8,0,0,0,40.43,24.25Z"/><path class="cls-1" d="M2.69,73.39A2.5,2.5,0,0,0,5,74a1.66,1.66,0,0,1,.7,0,11.16,11.16,0,0,0,3.87.21,10,10,0,0,1,2.18.06,3.1,3.1,0,0,0,.81,0c.93-.24,1.85-.52,2.77-.8a.46.46,0,0,0,.22-.14c.33-.36.66-.72,1-1.09a2.87,2.87,0,0,0,.57-.75c.35-.91.64-1.84,1-2.76a4.45,4.45,0,0,0-.42-3.7,2.16,2.16,0,0,0-.78-.68,4.2,4.2,0,0,0-.79-.29,2.24,2.24,0,0,0-.83-2.33c-.37-.25-.83-.4-1.18-.67a7,7,0,0,0-2.77-1.23c-.65-.17-1.29-.67-2-.24-.08.05-.26-.06-.4-.11-2.47-.88-4-1.57-5,1.44A76.47,76.47,0,0,0,1.28,71.59,9.35,9.35,0,0,0,2.69,73.39Z"/><path class="cls-1" d="M115.38,19a.51.51,0,0,1,.1.29c0,.75-.07,1.5-.13,2.25a3,3,0,0,0,2,3.26,11,11,0,0,0,2.72.3c.23,0,.47-.07.7-.05.91.05,1.83.11,2.88.19l.78-.1a3,3,0,0,0,2.7-2.68c0-.18.26-.37.44-.49s.58-.21.81-.39a4.23,4.23,0,0,0,1.31-3.44c0-1.2-.55-2.23.11-3.39a.76.76,0,0,0,.16-.49.69.69,0,0,0-.25-.34c-3.07-2.73-5.56-6.32-10-6.32A7.38,7.38,0,0,0,116,8.67a8,8,0,0,0-1,.65,5.52,5.52,0,0,0-.94,1.1c-.08.13,0,.4.06.61a.38.38,0,0,1,0,.15c-.27.77-.56,1.54-.81,2.32a3.8,3.8,0,0,0,.53,3.31C114.25,17.56,114.86,18.26,115.38,19Z"/><path class="cls-1" d="M80.67,71.79a12.62,12.62,0,0,0-2.59-1.6,8.34,8.34,0,0,0-3.59-1.08,1,1,0,0,0-.9.35,1.81,1.81,0,0,1-1.13.74c-.23,0-.44.33-.65.53a6.25,6.25,0,0,1-.44.45,5.2,5.2,0,0,0-1.93,2.49,10.08,10.08,0,0,0-.79,4A10.75,10.75,0,0,0,70,82.86a.89.89,0,0,0,.37.35c.82.4,1.65.78,2.62,1.22-.36.15-.58.25-.81.32a.68.68,0,0,0-.51.87.67.67,0,0,0,.77.65,1.19,1.19,0,0,1,.44.09h8a2.29,2.29,0,0,0,1.81-1.88c.16-.73.33-1.46.51-2.2a6,6,0,0,0,.36-1.62,31.6,31.6,0,0,0-.31-4.94A7.61,7.61,0,0,0,80.67,71.79Z"/><path class="cls-1" d="M90.42,48.24a.85.85,0,0,0,.2.55,13.77,13.77,0,0,0,1.16,1.13,2.77,2.77,0,0,0,1.9.77,1.93,1.93,0,0,1,.73.19,11.2,11.2,0,0,0,3.67,1c1,.08,1,0,.85-1a6.19,6.19,0,0,0,4.41-2.84,5.83,5.83,0,0,0,.56-5c.24-.31.41-.57.62-.8s.15-.56.26-.72A2,2,0,0,0,105,40c-.09-.43-.2-.91-.79-1-.79-.16-1.65,0-2.15-1a5.49,5.49,0,0,0-1.55-1.43,9.55,9.55,0,0,0-5.25-2.1A4.13,4.13,0,0,0,91.6,36a7.81,7.81,0,0,0-1.67,3.88c-.28,1.37-.41,2.78-.58,4.17a2,2,0,0,0,.12.81A10.27,10.27,0,0,1,90.42,48.24Z"/><path class="cls-1" d="M86.66,63.64a5.38,5.38,0,0,0-.5,3.69c.15.85.32,1.71.52,2.56a1.11,1.11,0,0,0,.74.92.54.54,0,0,1,.35.22c.31.71,1,.7,1.57.78s1.14.21,1.7.32a.15.15,0,0,1,.1,0c.48.84,1.21.31,1.89.44,0,0,.09.18.17.18.46,0,.93-.09,1.39-.13s.7,0,1,0a14.47,14.47,0,0,0,1.74,0,6,6,0,0,0,1.3-.46l-.29-.1a4.84,4.84,0,0,0,1.1-.43,10,10,0,0,0,1.18-1.08c.16-.17.25-.41.42-.56a5.38,5.38,0,0,0,1.77-2.68,5.89,5.89,0,0,0-.22-3.25c-.22-.75-.74-1.42-.48-2.27a.64.64,0,0,0-.11-.47,6.8,6.8,0,0,0-1.37-1.78,21.29,21.29,0,0,0-3.22-1.75,2.63,2.63,0,0,0-1.22-.17c-1.09.05-2.18.14-3.27.24-.15,0-.29.16-.43.25l-1.18.43a1,1,0,0,0-.73.12A8.54,8.54,0,0,0,88,61.26C87.48,62,87.11,62.86,86.66,63.64Z"/><path class="cls-1" d="M108.75,28.12c.18-1,.08-2,.16-3a3.54,3.54,0,0,1,.38-1.54c.51-.79.57-1.06,0-1.82a6.56,6.56,0,0,1-1-1.73,4,4,0,0,0-.85-1.58,8,8,0,0,0-1.84-1.48,6.81,6.81,0,0,0-4.62-1.2,2.73,2.73,0,0,0-.7.07c-.51.19-1.19.28-1.47.66A6.67,6.67,0,0,1,96.74,18a4.45,4.45,0,0,0-2.23,2.79,12.45,12.45,0,0,1-.64,2.43,6,6,0,0,0,0,4.4,6,6,0,0,0,.36.77,5.51,5.51,0,0,0,1.66,1.67,4.84,4.84,0,0,0,3,.9,2.13,2.13,0,0,1,1.12.22,5.22,5.22,0,0,0,.47.26,3.34,3.34,0,0,0,1.91.59c.25,0,.47-.21.72-.26a4.76,4.76,0,0,1,1.06-.1c.28,0,.53.07.63-.29,0-.05.12-.07.18-.1,1-.41,2.18-.4,2.82-1.44A5.71,5.71,0,0,0,108.75,28.12Z"/><path class="cls-1" d="M134.46,31.5c.48.61.87,1.29,1.67,1.55.1,0,.12.22.22.3.44.36.7.95,1.4,1,.46,0,.91.18.94.81a1.86,1.86,0,0,0,.38.7,5.09,5.09,0,0,0,1.85,1.75,6.8,6.8,0,0,0,1.6.79,5.1,5.1,0,0,0,2.59-.18c1.16-.32,2.37-.43,3.55-.67a3.26,3.26,0,0,0,2.54-2.16,8.39,8.39,0,0,0,.24-3.45,4.69,4.69,0,0,0-1.23-3.35c-.75-.74-1.63-1.35-2.43-2.06s-1.67-1.58-2.54-2.33a2.22,2.22,0,0,0-1.19-.7c-.94,0-1.88.25-2.83.34-.5,0-1-.05-1.51,0-.94.1-1.87.27-2.81.4l0-.08a3.12,3.12,0,0,0-.86,0c-.38.1-.88.21-1.07.49a15.07,15.07,0,0,0-1.31,2.44,2.89,2.89,0,0,0-.34,2A6.57,6.57,0,0,0,134.46,31.5Z"/><path class="cls-1" d="M6.27,86.36a4,4,0,0,0-.12-.43,7.61,7.61,0,0,1-.27-2.26A5.69,5.69,0,0,0,5,80.28a6.63,6.63,0,0,0-3.46-2.82,2.62,2.62,0,0,0-1.1-.2A88.27,88.27,0,0,0,0,86.36Z"/><path class="cls-1" d="M10.07,53.27c.06-.08.23-.07.34-.1a2.45,2.45,0,0,0,.8-.29,14.42,14.42,0,0,0,1.45-1.37c.29-.32.46-.74,1-.68a.49.49,0,0,0,.36-.21,16.1,16.1,0,0,0,1.72-2.74,25.66,25.66,0,0,0,.85-3.51A6.72,6.72,0,0,0,17,42.93a6,6,0,0,0-1-3.77,2.76,2.76,0,0,1-.18-.39c-.26-.42-.35-1-.61-1.36A86.64,86.64,0,0,0,6.65,53.05a6.75,6.75,0,0,0,1.23.62A1.72,1.72,0,0,0,10.07,53.27Z"/><path class="cls-1" d="M73.74,12.77a9.32,9.32,0,0,0,3.76,3.81c1.33.74,4.17.6,5.11,1.6.08.08.27.05.41.08l1.61.26a1.44,1.44,0,0,0,.41,0,4.23,4.23,0,0,1,1-.12,2.16,2.16,0,0,0,2.42-1.31,6.2,6.2,0,0,0,.49-1.49c.08-.57.27-1.23-.42-1.64a2.35,2.35,0,0,1-.88-.65c-.42-.71-1.38-1.07-1.3-2.14A7.37,7.37,0,0,0,86,9.44a1,1,0,0,1,0-.53,5.5,5.5,0,0,0,.15-2.79,3.6,3.6,0,0,0-.43-1.63c-.43-.71-.57-1.57-1.45-2a15.39,15.39,0,0,1-2-1.45A2.53,2.53,0,0,0,79.54.85a.81.81,0,0,1-.33.11c-.85,0-1.7,0-2.55,0a2.21,2.21,0,0,0-2,.59c-.52.61-1,1.21-1.51,1.86a13.84,13.84,0,0,0-1.24,2c-.19.39-.09.91-.25,1.32a3.74,3.74,0,0,0-.17,1.36c0,1.65.93,2.88,1.76,4.16C73.38,12.42,73.62,12.56,73.74,12.77Z"/><path class="cls-1" d="M73.38,64.2a6,6,0,0,0,1.14.25,19,19,0,0,0,2.61-.06,2.93,2.93,0,0,0,2.33-1.88,1.24,1.24,0,0,0,0-1.14c-.17-.31-.28-.63.18-.85.11-.05.19-.27.21-.42.09-.6.15-1.21.24-1.94-.14-.59-.31-1.29-.45-2a5.25,5.25,0,0,0-1.92-3.06,22.61,22.61,0,0,0-2.19-1.59A24.19,24.19,0,0,0,72.94,50c-1-.51-2.16-.91-3.24-1.36a.71.71,0,0,0-.94.5c-.11.39-.25.78-.34,1.18s-.09.76-.13,1.14a2.46,2.46,0,0,1-.08.67c-.33.84-.71,1.65-1,2.48-.47,1.19-.69,2.53-2.14,3A1.08,1.08,0,0,0,64.62,59a9.81,9.81,0,0,0,3,3.66,6.15,6.15,0,0,0,2,1.09A36.33,36.33,0,0,0,73.38,64.2Z"/><path class="cls-1" d="M21.34,52.28a24.15,24.15,0,0,1,2.33,1.55,5.17,5.17,0,0,0,2.45,1.05c.72.08,1.43.16,2.14.3a13,13,0,0,0,3.3-.07,5.35,5.35,0,0,0,3.62-1.47,1,1,0,0,0,.19-1.24,1.2,1.2,0,0,0,0-1.78c-.52-.37-.38-.78-.32-1.23,0-.2.09-.39.09-.58a9.24,9.24,0,0,1,0-1.29,1.47,1.47,0,0,0-1.12-1.71,1.69,1.69,0,0,1-.49-.28,3.75,3.75,0,0,1-1.3-.44,2.32,2.32,0,0,0-2.23-.43,3.12,3.12,0,0,1-2.59-.48C26.58,43.53,25.84,42.7,25,42a9.8,9.8,0,0,0-2-1.22,1.37,1.37,0,0,0-1.17.11,14.19,14.19,0,0,0-1.68,1.78,1.91,1.91,0,0,0-.44.86,17.55,17.55,0,0,0-.29,5.55A3.87,3.87,0,0,0,21.34,52.28Z"/><path class="cls-1" d="M71.5,43.29a25.87,25.87,0,0,0,2.89,3.12c.24.2.44.46.68.67.5.44,1,.87,1.52,1.29a7.29,7.29,0,0,0,1,.73,2.47,2.47,0,0,0,.79.15,4.42,4.42,0,0,0,.73.1c1,0,2.09,0,3.13,0A5.06,5.06,0,0,0,84.75,49a1,1,0,0,0,.71-1.21,3.23,3.23,0,0,1,.32-2,.82.82,0,0,0,.09-.41c0-.79,0-1.58,0-2.37a3.66,3.66,0,0,0-.84-2.6c-1-1.13-2.08-2.19-3.13-3.28a7.68,7.68,0,0,0-3.79-2.08,9.52,9.52,0,0,0-3.45.11,3.15,3.15,0,0,0-2.8,2.7,3.39,3.39,0,0,1-.17.51c-.22.49-.48,1-.66,1.46A3.24,3.24,0,0,0,71.5,43.29Z"/><path class="cls-1" d="M66.58,77.35a11.92,11.92,0,0,0-.83-1.48c-.24-.4-.52-.79-.79-1.17-.07-.09-.19-.14-.15-.11,0-.29,0-.54-.07-.68a16.57,16.57,0,0,0-1.18-1.45,5.07,5.07,0,0,0-3-1.79c-1.37-.21-3.78.54-4.46,1.68a11.6,11.6,0,0,0-.85,2.06c-.1.29,0,.64-.06.94-.21.79-.53,1.54-.69,2.33a8.75,8.75,0,0,0-.14,2.17,3.23,3.23,0,0,0,.47,1.53c.48.69,1.14,1.25,1.66,1.91s1.12,1,1.08,1.85a1,1,0,0,0,.42.75c.39.17.79.34,1.19.47h2.25a.77.77,0,0,1,.73-.21c.42.08.84.14,1.26.21h1.89A1.45,1.45,0,0,0,66,85.17a3.41,3.41,0,0,1,.42-1.26c.19-.36.6-.63.75-1a5.52,5.52,0,0,0,0-4C66.93,78.37,66.8,77.84,66.58,77.35Z"/><path class="cls-1" d="M33.22,20.19A.84.84,0,0,1,34,19.9c.72.13,1.45.26,2.17.37a1.33,1.33,0,0,0,1.63-1.36,3.62,3.62,0,0,1,.42-1.25c.19-.36.61-.63.75-1a5.56,5.56,0,0,0,.29-2.79q-3,2-5.86,4.19c0,.05,0,.09-.06.09h0c-.81.63-1.62,1.27-2.41,1.94a5.75,5.75,0,0,0,1.75.37A.76.76,0,0,0,33.22,20.19Z"/><path class="cls-1" d="M36.21,78.75l-.14,0a4.4,4.4,0,0,0-.67-2.55,8.13,8.13,0,0,0-2.26-2.45c-.29-.26-.57-.55-.88-.78-.65-.48-1.35-.89-2-1.4a4.2,4.2,0,0,0-3.24-.91,5.51,5.51,0,0,0-3.59,2,1.1,1.1,0,0,0-.1,1.44.49.49,0,0,1,0,.34c-.19.59-.41,1.18-.59,1.78a.67.67,0,0,0,.08.41,13.61,13.61,0,0,0,2,3.68c.29.31.44.76.74,1,.7.7,1.45,1.34,2.18,2,.37.34.7.73,1.09,1a4.57,4.57,0,0,0,3.32,1.36,5.36,5.36,0,0,0,1.27-.22A2.45,2.45,0,0,0,35,84.56a5.8,5.8,0,0,0,.76-3c0-.51-.08-1,0-1.55A6.51,6.51,0,0,1,36.21,78.75Z"/><path class="cls-1" d="M106.34,77.2c-.18-.63.35-.93.5-1.39a6.28,6.28,0,0,1,.37-.79c-.06-.78-.29-1.07-1-1.15s-1.43-.24-2.14-.26c-1,0-2.13-.26-3,.64,0,0-.26,0-.33,0a.94.94,0,0,0-1.25-.06c-.8.47-1.57,1-2.34,1.52a5,5,0,0,0-1,.83A13.65,13.65,0,0,1,94,79a2.49,2.49,0,0,0-.83,1.2,3.15,3.15,0,0,0,.35,2.39,1.68,1.68,0,0,1,.29,1.06c-.7,2.41,1.56,2.93,3.45,3a18.38,18.38,0,0,0,3.32-.16c1.88-.26,1.83-.39,2.46-2.39.16-.5.24-1,.41-1.51.35-1.07.73-2.13,1.09-3.19a1.49,1.49,0,0,0,0-.21,1.71,1.71,0,0,1,1.18-1.33C106.07,77.75,106.44,77.54,106.34,77.2Z"/><path class="cls-1" d="M153.08,82.64c-.22-.1-.59-.11-.64-.26a1.21,1.21,0,0,0-1.21-.69,7.08,7.08,0,0,1-1.68-.48c-.84-.19-1.62-.71-2.47-.83a2.1,2.1,0,0,0-2.19.71,2.87,2.87,0,0,1-.78.81,4.18,4.18,0,0,0-1.32,1.55c-.62.92-1.25,1.83-1.93,2.7,2.45,1,11.87,1.61,12.7-1.21a11.9,11.9,0,0,0,.07-1.2C153.79,83,153.82,83,153.08,82.64Z"/><path class="cls-1" d="M162.25,54.65c.21.6.41,1.21.63,1.81s.44,1.2.66,1.8.47,1.18.7,1.78c.06.14.1.3.15.45a2,2,0,0,0,.27.72,12.9,12.9,0,0,0,1.48,1.29,24.35,24.35,0,0,1,2.41,1.65,3.36,3.36,0,0,0,1.55.87,85.43,85.43,0,0,0-5.9-16.26l-.12.08a6.86,6.86,0,0,0-1.66,2.25.92.92,0,0,0-.09.25c-.16,1.06.24,2.14-.1,3.2A.52.52,0,0,0,162.25,54.65Z"/><path class="cls-1" d="M148.83,45.68s-.12.06-.18.11a6.74,6.74,0,0,0-2,1.55c-.28.41-.81.64-1.09,1a3.72,3.72,0,0,0-.8,1.68,4.89,4.89,0,0,1-.42,1.75,5.22,5.22,0,0,0-.43,2.53c.09,1.13.07,2.27.15,3.4a6.8,6.8,0,0,0,.32,1.79c.28.83.69,1.61,1,2.41.44,1,1.59,1.8,2.41,1.49a1,1,0,0,1,1,.19,2.3,2.3,0,0,0,1.08.54,5.88,5.88,0,0,0,2.78-.8,12.61,12.61,0,0,0,3-2.33,7.37,7.37,0,0,0,1.21-1.8,9.27,9.27,0,0,0,.59-1.37c.3-.88.56-1.77.87-2.64.15-.43.06-1,.61-1.19a1,1,0,0,0,.74-.91c.06-.37.05-.75.08-1.13h0a2.45,2.45,0,0,0,0-.27,3.35,3.35,0,0,0-1.41-3,13.32,13.32,0,0,0-1.53-.85A17.32,17.32,0,0,0,155.3,47c-.92-.38-1.69-1.15-2.78-1.09a1.6,1.6,0,0,1-.21,0,18.47,18.47,0,0,1-1.83-.35C149.89,45.37,149.41,46.08,148.83,45.68Z"/><path class="cls-1" d="M169.72,71c-.82-.4-1.66-.77-2.62-1.22.35-.14.57-.25.81-.32a.68.68,0,0,0,.51-.87c-.08-.4-.28-.68-.77-.64a2.72,2.72,0,0,1-.65-.17c-.51-.09-.92-.51-1.53-.31a3.08,3.08,0,0,1-1.17,0,16.55,16.55,0,0,0-2.69-.26,14.77,14.77,0,0,0-2.36.64,2.29,2.29,0,0,0-1.83,1.89c-.16.74-.34,1.47-.51,2.2a6,6,0,0,0-.37,1.62,31.53,31.53,0,0,0,.32,4.94,7.62,7.62,0,0,0,2.52,3.94A12.58,12.58,0,0,0,162,84.06a8.25,8.25,0,0,0,3.6,1.08,1,1,0,0,0,.9-.35,1.78,1.78,0,0,1,1.12-.74c.24,0,.45-.33.66-.52a3.75,3.75,0,0,1,.44-.45,5.2,5.2,0,0,0,1.93-2.49,10.11,10.11,0,0,0,.79-4,10.72,10.72,0,0,0-1.32-5.2A.86.86,0,0,0,169.72,71Z"/><path class="cls-1" d="M128.65,49.07a9.88,9.88,0,0,0-2.32,1.79,3.92,3.92,0,0,0-.68,1c-.08.14,0,.39-.14.47a2,2,0,0,0-.65,1.31,2.92,2.92,0,0,1-.36.62v.66a1.86,1.86,0,0,0,.42,1.37c1.25,1.35,2.42,2.77,3.74,4.05a3.87,3.87,0,0,0,3.14,1.42,2.38,2.38,0,0,1,.68.12c1.23.23,2.46.46,3.68.71a3.24,3.24,0,0,0,3.14-1.4A12.78,12.78,0,0,0,141,58.41a5.13,5.13,0,0,0,.21-1.64c-.69-.43-.31-1-.16-1.49s.15-.91-.37-1.27c0,0-.12,0-.13,0-.46-1.05-1.51-1.43-2.33-2a14.56,14.56,0,0,0-2.6-1.35,12,12,0,0,0-1.33-.4c-.37-.11-.73-.25-1.1-.38a6.56,6.56,0,0,1-1-.37A4.15,4.15,0,0,0,128.65,49.07Z"/><path class="cls-1" d="M128.62,32a7.64,7.64,0,0,0-2.81-.81.8.8,0,0,0-.55.25.77.77,0,0,1-.81.29c-.73-.13-1.45-.26-2.18-.36a1.32,1.32,0,0,0-1.62,1.35,3.56,3.56,0,0,1-.42,1.25c-.19.37-.61.63-.75,1a5.55,5.55,0,0,0,0,4c.2.5.33,1,.55,1.52a12.81,12.81,0,0,0,.83,1.49c.24.4.51.78.79,1.16.06.09.18.14.15.12,0,.28,0,.53.07.67a15.21,15.21,0,0,0,1.18,1.45,5.07,5.07,0,0,0,3,1.79c1.37.21,3.78-.54,4.45-1.68a10.41,10.41,0,0,0,.86-2.06c.1-.28,0-.64.06-.94.2-.78.53-1.54.68-2.32a8.35,8.35,0,0,0,.14-2.17,3.16,3.16,0,0,0-.47-1.54c-.47-.69-1.14-1.24-1.66-1.9s-1.12-1-1.08-1.86A.93.93,0,0,0,128.62,32Z"/><path class="cls-1" d="M129.07,70.06c-.19-1.41-.17-2.39-1.38-3.38A8.48,8.48,0,0,0,117,66.32a1.69,1.69,0,0,1-.36.23,3,3,0,0,0-1.82,2.51A9.76,9.76,0,0,0,116,73.57a3,3,0,0,0,.67.93,10,10,0,0,0,1.56,1c1.36.75,2.71,1.51,4.11,2.18a3.57,3.57,0,0,0,3.29,0c.59-.31,1.13-.71,1.72-1a4.48,4.48,0,0,0,2.36-3.51,1.75,1.75,0,0,0,.08-.59c-.11-.5-.25-1-.4-1.49A8.2,8.2,0,0,1,129.07,70.06Z"/><path class="cls-1" d="M143.85,77.75a13.61,13.61,0,0,1,2.23-2.45,2.47,2.47,0,0,0,.83-1.2,3.16,3.16,0,0,0-.36-2.39,1.65,1.65,0,0,1-.28-1.06,3.68,3.68,0,0,0-.2-2.06,3.07,3.07,0,0,0-.74-1.47,12.31,12.31,0,0,0-2.09-1.28A13.89,13.89,0,0,0,142,65.2a18.55,18.55,0,0,0-1.77-.77c-.15-.06-.4.06-.55.17s-.46.48-.74.65c-.45.28-1,.47-.62,1.18,0,0-.06.12-.08.18-.39,1.19-.79,2.38-1.17,3.57-.15.5-.24,1-.4,1.52-.35,1.06-.73,2.12-1.1,3.18a.81.81,0,0,0,0,.22,1.75,1.75,0,0,1-1.18,1.33c-.36.08-.72.28-.62.62.18.64-.35.93-.51,1.4-.09.27-.24.52-.36.79.06.78.29,1.06,1,1.15s1.42.23,2.14.25c1,0,2.12.26,3-.63a.36.36,0,0,1,.33,0,1,1,0,0,0,1.26.07c.8-.48,1.57-1,2.34-1.53A4.64,4.64,0,0,0,143.85,77.75Z"/><path class="cls-1" d="M60.32,15a8.36,8.36,0,0,0-1.89,1.65.49.49,0,0,0,0,.72.68.68,0,0,1,0,.59A2.64,2.64,0,0,0,59,20.84a16.11,16.11,0,0,1,1.35,1.25,8.39,8.39,0,0,1,1.49,2c.45,1.08,1.17,2,1.71,3.08a1.34,1.34,0,0,0,1.36.85c.21,0,.43,0,.65,0,.91,0,1.83.09,2.74,0,.63,0,1.32-.11,1.6-.85.2-.53.5-1,.73-1.53a4.22,4.22,0,0,0-.52-4.46c-.88-.92-1.8-1.8-2.68-2.72a21.77,21.77,0,0,0-4.86-3.45A2.39,2.39,0,0,0,60.32,15Z"/><path class="cls-1" d="M75.05,32.07a23.55,23.55,0,0,1,2.32-.53c1.81-.26,3.35.53,4.88,1.32a1.25,1.25,0,0,0,1.16.17,1,1,0,0,1,1.22.29,1,1,0,0,0,1.11.35.45.45,0,0,1,.58.32,1,1,0,0,0,1.36.5c.61-.29.79-.78,1-1.38.34-.77,0-1-.44-1.43a2.35,2.35,0,0,1-.67-1.34,2.79,2.79,0,0,0-.59-2c-1-1.09-2.16-2.1-3.24-3.14a3.12,3.12,0,0,0-2.45-.82,11.49,11.49,0,0,0-4.57,1.06,2.1,2.1,0,0,0-1.33,1.51,1.31,1.31,0,0,1-.45.81,1.49,1.49,0,0,0-.76,1.32c0,.59-.35,1.2.08,1.78.09.13,0,.39,0,.58C74.28,32,74.55,32.2,75.05,32.07Z"/><path class="cls-1" d="M52.78,10.43a2.34,2.34,0,0,1,1.27.81,2.75,2.75,0,0,0,1.54,1.41c1.45.42,2.93.69,4.4,1a3.11,3.11,0,0,0,2.52-.56,11.48,11.48,0,0,0,3.37-3.25,2.12,2.12,0,0,0,.37-2,1.36,1.36,0,0,1,0-.93,1.46,1.46,0,0,0,0-1.51c-.35-.49-.32-1.21-1-1.49-.15-.07-.23-.31-.32-.49-.23-.48-.58-.55-.95-.18-.56.56-1.1,1.16-1.71,1.66-1.41,1.15-3.15,1.26-4.86,1.38a1.19,1.19,0,0,0-1.08.45,1,1,0,0,1-1.2.37A1,1,0,0,0,54,7.42a.45.45,0,0,1-.66,0,1,1,0,0,0-1.43.27,2.29,2.29,0,0,0-.19,1.73C51.78,10.27,52.22,10.26,52.78,10.43Z"/><path class="cls-1" d="M19.05,58.11a2.28,2.28,0,0,1,.71,1.32,2.74,2.74,0,0,0,.65,2c1.06,1.07,2.22,2,3.34,3a3.16,3.16,0,0,0,2.47.74A11.5,11.5,0,0,0,30.75,64,2.12,2.12,0,0,0,32,62.46a1.36,1.36,0,0,1,.42-.82,1.48,1.48,0,0,0,.72-1.34c-.06-.59.32-1.2-.13-1.78-.1-.13,0-.38,0-.58,0-.53-.24-.76-.74-.62a22.91,22.91,0,0,1-2.3.61c-1.8.31-3.37-.44-4.92-1.18a1.22,1.22,0,0,0-1.16-.13,1,1,0,0,1-1.23-.26,1,1,0,0,0-1.12-.31.44.44,0,0,1-.58-.31,1,1,0,0,0-1.39-.46,2.28,2.28,0,0,0-1,1.42C18.25,57.48,18.64,57.68,19.05,58.11Z"/><path class="cls-2" d="M31.25,90a3.14,3.14,0,0,0,1,1.35,10.12,10.12,0,0,1,1.14.84c.41.33.8.68,1.19,1a2.56,2.56,0,0,1,.53.56,2.25,2.25,0,0,0,1.23,1.06.15.15,0,0,1,.09,0c.29.25.43.23.74,0a4.67,4.67,0,0,1,1.07-.6,5.31,5.31,0,0,0,1.1-.65.26.26,0,0,0,.06-.26c-.09-.23-.2-.45-.31-.68s-.24-.53-.38-.79c-.25-.49-.55-1-.76-1.46a6.35,6.35,0,0,0-1.12-2,1.71,1.71,0,0,0-1.23-.73c-.58,0-1.15,0-1.72,0s-1.09-.08-1.63-.13a.74.74,0,0,0-.83.48,3.27,3.27,0,0,0-.2.79A1.5,1.5,0,0,0,31.24,90S31.24,90,31.25,90Z"/><path class="cls-2" d="M18,89.83a1,1,0,0,1,.32,1.42,0,0,0,0,0,0,0c-.18.65-.23.94.49,1.46a10.2,10.2,0,0,0,.92.59,1.09,1.09,0,0,0,1.41-.13.78.78,0,0,1,.53-.31,3.15,3.15,0,0,0,1.41-.4.55.55,0,0,0,.34-.64,1.59,1.59,0,0,1,.46-1.35,2.31,2.31,0,0,0,.42-.63,3.37,3.37,0,0,0,.15-.48c-.09-.1-.26-.2-.26-.3a.69.69,0,0,0-.37-.55,8.68,8.68,0,0,0-1.36-.69c-.36-.15-.76-.19-1.12-.33-1-.38-1.91-.8-2.87-1.18a.9.9,0,0,0-1.3.52A2,2,0,0,0,17,88.38,3.14,3.14,0,0,0,18,89.83Z"/><path class="cls-2" d="M45,91.15a.7.7,0,0,1,.16.14l.93.91.05,0c.21.1.43.19.64.3a.7.7,0,0,0,1-.17,2.87,2.87,0,0,1,.86-.61,7,7,0,0,1,1.22-.3.91.91,0,0,0,.69-.53,1.19,1.19,0,0,0,0-.81,5.48,5.48,0,0,1-.22-2.13,3.54,3.54,0,0,0-.12-1.74c-.13-.4-.19-.46-.59-.48h-.78c-.53,0-1.06,0-1.59,0a1.15,1.15,0,0,0-1,.49c-.32.51-.64,1-.91,1.54a3.79,3.79,0,0,1-1,1.37.49.49,0,0,0-.11.35c0,.17.1.33.1.5A1.38,1.38,0,0,0,45,91.15Z"/><path class="cls-2" d="M5.68,88.1a5.45,5.45,0,0,0-.2-.69c-.07-.17-.27-.29-.29-.45-.09-.55-.55-.76-.91-1.06A1,1,0,0,1,4,85.54c0-.05-.05-.07-.07-.1H.05c0,2.58.14,5.12.36,7.64a.88.88,0,0,0,1-.31c.12-.16.18-.4.49-.4s.33-.18.16-.43l.3,0-.08,0a1.25,1.25,0,0,1,.12-.34,2.22,2.22,0,0,1,.35-.25c.16-.15.25-.38.38-.51A.92.92,0,0,0,3.5,90l.42-.17-.07-.06c.08-.13.13-.31.25-.39A5.32,5.32,0,0,1,4.77,89c.09-.06.14-.21.24-.25.27-.1.54-.17.81-.25Z"/><path class="cls-2" d="M57.08,87.52a5.28,5.28,0,0,1,.33,1.07,1.86,1.86,0,0,0,.25.74c.07.14.15.27.23.41.29.53.59,1,1.24,1.17l.07,0a3.66,3.66,0,0,0,1.87.35.73.73,0,0,1,.33,0c.41.18.81.4,1.23.55a3.43,3.43,0,0,0,1.23.31,6.52,6.52,0,0,0,1.41-.32.52.52,0,0,0,.22-.17,1.33,1.33,0,0,1,.9-.47c.44-.08.89-.08,1.31-.2.59-.17.9-.39.92-1a2.29,2.29,0,0,0-.46-1.44c-.17-.24-.38-.44-.55-.68a3.42,3.42,0,0,0-2.72-1.3.55.55,0,0,0-.18,0,16.62,16.62,0,0,1-2.62.42,4.44,4.44,0,0,1-1.58-.26,9.08,9.08,0,0,1-1-.51,8.41,8.41,0,0,0-2-.64.35.35,0,0,0-.46.29,5.82,5.82,0,0,0,0,.78c-.15.09-.21.27-.09.51A2,2,0,0,1,57.08,87.52Z"/><path class="cls-2" d="M72.31,90.12c.19,0,.18.13.23.25a.57.57,0,0,0,.19.29l1.33.91a.77.77,0,0,1,.21.23c.29.44.55.9.86,1.33a2.94,2.94,0,0,0,.64.63,6.56,6.56,0,0,0,.67.42c.59-.13,1.13-.07,1.57-.45.25-.22.58-.35.85-.55a.61.61,0,0,0,.23-.4,3.41,3.41,0,0,0-.11-.61c-.07-.54-.1-1.1-.22-1.63a6,6,0,0,1,0-1.9c0-.57.16-1.14.23-1.7a.42.42,0,0,0-.1-.3,7.06,7.06,0,0,0-.63-.72.41.41,0,0,0-.54-.13c-.43.23-.88.4-1.33.59-.7.29-1.41.55-2.09.86s-1.57.63-1.91,1.52a4.38,4.38,0,0,0-.2,1.28S72.28,90.12,72.31,90.12Z"/><path class="cls-2" d="M83.16,86.87c.28.23.59.43.84.68a4,4,0,0,0,1.68,1,9.62,9.62,0,0,0,2,.4c.71.07,1.44,0,2.16,0l1.2,0c.63-.07,1.15-.4,1.19-.79A3.05,3.05,0,0,0,92,86.4c-.13-.24-.24-.5-.35-.75H82.17c.27.35.54.69.82,1A1.54,1.54,0,0,0,83.16,86.87Z"/><path class="cls-2" d="M95.16,90.49c.15.23.15.5.29.74a2.43,2.43,0,0,0,.6.86,6.75,6.75,0,0,1,.67.64c.09.09.13.23.23.31a3.65,3.65,0,0,0,1.42.6.34.34,0,0,0,.19,0,2.57,2.57,0,0,1,.59-.31.87.87,0,0,0,.68-.64,2.28,2.28,0,0,1,.24-.39,8.59,8.59,0,0,0,.69-.93A3.4,3.4,0,0,0,101.3,90a.27.27,0,0,1,0-.15.93.93,0,0,0,0-1c.06-.06.14-.11.15-.17.06-.3.1-.6.14-.9a1.57,1.57,0,0,0,0-.37c0-.19-.11-.38-.14-.57a.7.7,0,0,0-.76-.67,4.33,4.33,0,0,0-1.11.29c-.6.3-1.25.51-1.85.8-.42.21-.79.51-1.2.73a4.54,4.54,0,0,0-1.75,1.44.49.49,0,0,0-.07.35A3.45,3.45,0,0,0,95.16,90.49Z"/><path class="cls-2" d="M115.37,86.19s-.08.09-.12.14l.26.41-.06.05a.39.39,0,0,1,.16.07c.18.23.35.48.55.69a12.64,12.64,0,0,0,1,1,3.85,3.85,0,0,0,1.37.83.38.38,0,0,0,.43-.08,3.2,3.2,0,0,1,.52-.52c.38-.25.45-.67.67-1s.16-.53.34-.77a16.73,16.73,0,0,0,.89-1.46l-5.35-.14h-.78l-.14.09c.08.1.16.16.18.23A1.59,1.59,0,0,1,115.37,86.19Z"/><path class="cls-2" d="M126.48,88.38c.28.49.44,1,1,1.36a9.19,9.19,0,0,1,1.13.84c.41.33.8.68,1.19,1a2.81,2.81,0,0,1,.54.55,2.12,2.12,0,0,0,1.22,1.06.13.13,0,0,1,.09,0c.29.25.43.23.75,0a4.4,4.4,0,0,1,1.06-.6,5.65,5.65,0,0,0,1.11-.65.29.29,0,0,0,.05-.26c-.08-.23-.2-.45-.3-.68s-.25-.53-.38-.79c-.26-.49-.55-1-.77-1.46a6.35,6.35,0,0,0-1.12-2,1.7,1.7,0,0,0-1.23-.73c-.57,0-1.15,0-1.72,0S128,86,127.44,86a.74.74,0,0,0-.83.48,3.26,3.26,0,0,0-.19.79,1.42,1.42,0,0,0,.06,1.14Z"/><path class="cls-2" d="M141.05,91.62c.09.15.25.25.33.39a1.41,1.41,0,0,0,1.2.71l.2,0,1.27.32s0,0,0-.07l.7-.06c.5,0,.66-.18.79-.66a3.08,3.08,0,0,1,.43-1,6.82,6.82,0,0,1,.91-.87.93.93,0,0,0,.33-.8,1.27,1.27,0,0,0-.38-.72,5.62,5.62,0,0,1-1.26-1.73,3.81,3.81,0,0,0-1-1.45c-.31-.28-.4-.3-.76-.11s-.45.25-.67.38c-.46.26-.92.52-1.37.81a1.12,1.12,0,0,0-.63.93c0,.6,0,1.2,0,1.79a3.79,3.79,0,0,1-.21,1.7A.53.53,0,0,0,141.05,91.62Z"/><path class="cls-2" d="M150.34,86.27a5.86,5.86,0,0,1,.32,1.06,2.16,2.16,0,0,0,.26.75l.23.4a1.9,1.9,0,0,0,1.24,1.17l.07,0a3.74,3.74,0,0,0,1.87.34.68.68,0,0,1,.32,0c.42.17.82.39,1.24.55a3.64,3.64,0,0,0,1.22.3,6.26,6.26,0,0,0,1.41-.32.42.42,0,0,0,.23-.16,1.34,1.34,0,0,1,.9-.48,11.5,11.5,0,0,0,1.31-.2c.59-.16.9-.39.91-1a2.23,2.23,0,0,0-.45-1.44c-.17-.23-.39-.44-.55-.68a3,3,0,0,0-2.08-1.2H157.6a13.15,13.15,0,0,1-2.25.34,4.16,4.16,0,0,1-1.58-.25l-.2-.09h-3.26a.35.35,0,0,0-.09.51A3,3,0,0,1,150.34,86.27Z"/><path class="cls-2" d="M29.56,123.91c-.15-.08-.28-.19-.43-.28a1.06,1.06,0,0,0-.38-.16,3.17,3.17,0,0,0-1.3.06c-1.52.29-2,2.55-3.31,3.27-.5.27-.33,1.16-.89,1.19a3.14,3.14,0,0,0-.22.78c0,.25,0,.51.21.7a4.36,4.36,0,0,1,.43.43s0,0,0,0,.17.36.3.43a7,7,0,0,0,.91.31,3.62,3.62,0,0,0,1.31-.09,3.4,3.4,0,0,0,.46-.06c.2-.05.4-.12.6-.19s.42-.15.62-.24.21-.19.33-.22a1.63,1.63,0,0,0,.94-.59,4,4,0,0,1,.73-.8,3.13,3.13,0,0,0,.42-.47,1.71,1.71,0,0,1,.18-.2c.07-.07.18-.11.22-.19a2,2,0,0,0,.1-1.45c-.12-.39-.1-.86-.48-1.15,0,0,0-.07,0-.1-.13-.21-.18-.49-.48-.54C29.91,124.22,29.79,124,29.56,123.91Z"/><path class="cls-2" d="M85.32,152.34s0-.07,0-.09c-.13-.22-.18-.49-.48-.55.07-.16,0-.36-.28-.48s-.28-.19-.43-.27a1.3,1.3,0,0,0-.38-.17,3.36,3.36,0,0,0-1.3.06c-1.52.3-2,2.55-3.31,3.28-.5.26-.33,1.15-.89,1.18a3.26,3.26,0,0,0-.22.78c0,.25,0,.52.21.71a4.26,4.26,0,0,1,.43.42.13.13,0,0,1,0,0c.1.14.17.35.3.42a5.74,5.74,0,0,0,.91.31,3.6,3.6,0,0,0,1.31-.09,2.32,2.32,0,0,0,.46-.06c.2-.05.4-.12.6-.19a4.67,4.67,0,0,0,.62-.24c.12,0,.21-.19.33-.21a1.69,1.69,0,0,0,.94-.6,4.26,4.26,0,0,1,.73-.8,3.06,3.06,0,0,0,.42-.46l.18-.21c.07-.07.18-.11.22-.19a2,2,0,0,0,.1-1.45C85.68,153.11,85.7,152.63,85.32,152.34Z"/><path class="cls-2" d="M29.56,139c.08-.06.19-.1.23-.18a2,2,0,0,0,.2-1.43c-.1-.4,0-.87-.41-1.18,0,0,0-.07,0-.1-.11-.22-.14-.5-.44-.57.08-.16,0-.37-.24-.5s-.27-.21-.42-.3a1,1,0,0,0-.36-.19,3.21,3.21,0,0,0-1.31,0c-1.53.2-2.13,2.42-3.51,3.06-.51.23-.4,1.13-1,1.12a2.83,2.83,0,0,0-.27.77c0,.25-.08.51.16.71a6.1,6.1,0,0,1,.41.46s0,0,0,0,.15.36.28.44a5.27,5.27,0,0,0,.88.37,3.66,3.66,0,0,0,1.32,0,2.38,2.38,0,0,0,.46,0,4.18,4.18,0,0,0,.61-.15,6.55,6.55,0,0,0,.63-.19c.12-.05.23-.18.35-.2a1.66,1.66,0,0,0,1-.53,4,4,0,0,1,.79-.75,6.09,6.09,0,0,0,.44-.44A1.8,1.8,0,0,1,29.56,139Z"/><path class="cls-2" d="M120.91,122.42c0,.24,0,.51.22.69a4.47,4.47,0,0,1,.45.42l0,0c.1.14.18.35.32.41a5.37,5.37,0,0,0,.91.29,3.64,3.64,0,0,0,1.31-.14,2.44,2.44,0,0,0,.46-.07,5.89,5.89,0,0,0,.59-.21l.61-.25c.12-.06.21-.2.33-.23a1.66,1.66,0,0,0,.91-.62,4.38,4.38,0,0,1,.71-.83,2.68,2.68,0,0,0,.4-.48l.18-.21c.07-.07.18-.11.21-.2a2,2,0,0,0,.06-1.44c-.13-.39-.13-.86-.51-1.14,0,0,0-.07,0-.1-.13-.21-.19-.48-.5-.52.07-.17-.06-.36-.29-.48s-.29-.18-.44-.26a1.37,1.37,0,0,0-.38-.15c-2.58-.45-2.76,2.45-4.51,3.48-.49.28-.29,1.16-.85,1.21A2.76,2.76,0,0,0,120.91,122.42Z"/><path class="cls-2" d="M136.4,140.6a2.68,2.68,0,0,0,.4-.48c.06-.07.11-.14.18-.21s.17-.12.21-.2a2,2,0,0,0,.06-1.44c-.14-.39-.13-.86-.52-1.14,0,0,0-.07,0-.1-.13-.21-.19-.48-.49-.52.06-.17-.06-.36-.29-.48s-.29-.18-.44-.26a1.32,1.32,0,0,0-.39-.15c-2.58-.46-2.76,2.45-4.5,3.47-.49.29-.29,1.17-.86,1.22a3.14,3.14,0,0,0-.19.79c0,.24,0,.51.23.69a5.89,5.89,0,0,1,.45.42l0,0c.11.14.18.34.32.41a5.79,5.79,0,0,0,.92.29,3.64,3.64,0,0,0,1.31-.14,2.34,2.34,0,0,0,.45-.07l.6-.21a6.39,6.39,0,0,0,.6-.26c.12-.05.21-.19.33-.22a1.65,1.65,0,0,0,.92-.63A4,4,0,0,1,136.4,140.6Z"/><path class="cls-2" d="M40.41,138.52a4.15,4.15,0,0,1-.53-.32l0,0c-.13-.12-.24-.31-.39-.34a5.13,5.13,0,0,0-1-.1c-.47,0-.83.27-1.26.39a2.5,2.5,0,0,0-.43.16l-.54.32c-.19.12-.37.24-.55.38s-.16.23-.27.28a1.65,1.65,0,0,0-.77.8,4.87,4.87,0,0,1-.54.94,2.89,2.89,0,0,0-.29.55c-.05.08-.09.17-.14.24s-.15.15-.16.24a2,2,0,0,0,.22,1.43c.21.35.3.82.73,1,0,0,0,.07,0,.09.17.18.29.44.59.42,0,.18.13.34.38.41s.32.12.48.16a1.42,1.42,0,0,0,.41.08c2.62-.07,2.22-3,3.73-4.3.42-.38,0-1.2.59-1.36a2.77,2.77,0,0,0,0-.81C40.69,138.92,40.7,138.65,40.41,138.52Z"/><path class="cls-2" d="M38,98.76c-.09.46-.65.52-.8.93,0,0,0,0-.07,0a1.82,1.82,0,0,0-.83,1,1,1,0,0,1-.24.37c-.16.19-.37.34-.51.54a5,5,0,0,0-.37.77,2.13,2.13,0,0,0,.32.66,17.33,17.33,0,0,0,1.39,1.18,1.36,1.36,0,0,0,.67.3,3.11,3.11,0,0,0,.91-.07,2.33,2.33,0,0,0,1-.49c.26-.19.57-.32.84-.5a4.94,4.94,0,0,0,.8-.63,1.34,1.34,0,0,1,.92-.47c.48,0,1,.07,1.46.1a4.82,4.82,0,0,0,1.31,0c.9-.19,1.78-.46,2.66-.73a1.14,1.14,0,0,0,.41-.32s0-.17,0-.26a1.59,1.59,0,0,1-.06-.3c0-.17.1-.37,0-.51a3,3,0,0,0-.51-.8c-.27-.3-.61-.54-.89-.84A7.77,7.77,0,0,0,44.43,97a24.64,24.64,0,0,1-2.15-1.31.87.87,0,0,0-1.09,0,4.73,4.73,0,0,0-.57.43c-.42.42-.81.87-1.24,1.28s-.85.76-1.28,1.14A.4.4,0,0,0,38,98.76Z"/><path class="cls-2" d="M53.59,108c-.19,0-.19-.13-.23-.26a.56.56,0,0,0-.2-.28c-.43-.31-.88-.61-1.32-.91a.8.8,0,0,1-.22-.23c-.28-.44-.54-.91-.85-1.34a3.41,3.41,0,0,0-.64-.62,5.18,5.18,0,0,0-.67-.42c-.59.12-1.13.07-1.58.45-.25.22-.58.34-.84.55a.59.59,0,0,0-.23.4,4.17,4.17,0,0,0,.1.6c.08.55.11,1.1.23,1.64a6,6,0,0,1,0,1.9c-.05.57-.16,1.13-.23,1.7a.48.48,0,0,0,.09.3,8.62,8.62,0,0,0,.63.71c.15.15.29.27.54.14a13.29,13.29,0,0,1,1.34-.59c.7-.29,1.4-.55,2.09-.86s1.56-.63,1.91-1.53a4.67,4.67,0,0,0,.2-1.27A.11.11,0,0,0,53.59,108Z"/><path class="cls-2" d="M41.6,113.13c.65.16,1.31.32,2,.46a5.09,5.09,0,0,1,.81.12c.25.11.35,0,.46-.15s.09,0,.13-.07c.26-.11.53-.22.78-.35a.18.18,0,0,0,.06-.17,5.29,5.29,0,0,0-.29-.52c-.23-.37-.47-.73-.71-1.1a1,1,0,0,0-.15-.21,9.08,9.08,0,0,1-.76-.76,4.13,4.13,0,0,0-1.57-1.22,9.89,9.89,0,0,0-1.94-.59c-.7-.14-1.43-.18-2.14-.27l-1.19-.16c-.64,0-1.19.28-1.27.66a3,3,0,0,0,.05,1.91c.11.26.18.53.28.79a1.55,1.55,0,0,0,.94,1.13c.52.17,1,.25,1.58.39a2.78,2.78,0,0,0,1.43,0A2.93,2.93,0,0,1,41.6,113.13Z"/><path class="cls-2" d="M42,129.61c0-.32.29-.48.31-.77s.13-.5-.09-.73a3.41,3.41,0,0,1-.37-.48s0,0,0,0-.11-.37-.24-.46a5.31,5.31,0,0,0-.85-.45,3.6,3.6,0,0,0-1.31-.1,1.77,1.77,0,0,0-.46,0c-.21,0-.42.06-.62.09a4.72,4.72,0,0,0-.65.15c-.13,0-.24.15-.36.16a1.66,1.66,0,0,0-1,.45,4.61,4.61,0,0,1-.85.68,3,3,0,0,0-.48.4l-.21.17c-.08.06-.2.09-.25.16a2.05,2.05,0,0,0-.32,1.41c.06.41,0,.87.3,1.22,0,0,0,.06,0,.09.09.23.1.51.39.61-.1.16,0,.37.2.52s.25.23.38.34a1.86,1.86,0,0,0,.35.22,3.36,3.36,0,0,0,1.3.13l.44,0s.05-.07.07-.11a.57.57,0,0,1,.31-.11c.11,0,.61-.42.58-.5s0-.15.14-.21.29-.2.31-.33a.6.6,0,0,1,.15-.33,7,7,0,0,1,.72-.49h0a.14.14,0,0,0,0-.06l.34,0a.51.51,0,0,1,.5-.44c.26,0,.28-.05.13-.28l.56-.34a.94.94,0,0,1,.56-.61l0,.13Z"/><path class="cls-2" d="M39.89,131.23h0l.08,0Z"/><path class="cls-2" d="M11.13,115.49a.52.52,0,0,1,.18-.18c.12-.09.25-.16.4-.26-.24-.18-.13-.31,0-.39-.07-.22-.14-.41-.2-.61l.15-.08-.24-.2.17-.12c-.09-.09-.17-.15-.19-.22a2.12,2.12,0,0,1-.06-.43s.08-.09.13-.14l-.27-.42.06,0a.36.36,0,0,1-.15-.08c-.19-.22-.36-.47-.55-.68a12.76,12.76,0,0,0-1-1,3.85,3.85,0,0,0-1.37-.83.38.38,0,0,0-.43.08,2.79,2.79,0,0,1-.51.52c-.38.25-.46.67-.68,1a6.59,6.59,0,0,1-.34.78,16.56,16.56,0,0,0-.89,1.45,2.68,2.68,0,0,0-.18.47c0,.13.09.26.13.4l.41,1.08c.1.28.22.55.33.83a.72.72,0,0,0,.39.12l1.23.07c.05,0,.09.05.14.07a1.82,1.82,0,0,0,1.8.16,2.26,2.26,0,0,0,.45-.31C10.37,116.17,10.88,116,11.13,115.49Z"/><path class="cls-2" d="M22.28,119.31l-.53-.32a2,2,0,0,1-.95-1c0-.11,0-.26-.1-.32a6.9,6.9,0,0,0-1.86-1.27c-.43-.17-.89-.28-1.28-.4l-.66.17a15.64,15.64,0,0,1-1.69.67c-.35.05-.51.43-.7.69A.88.88,0,0,0,15,118.6a5.63,5.63,0,0,1,1.13.55,12.9,12.9,0,0,1,1.17,1,1.67,1.67,0,0,0,.75.53c.37.08.74.19,1.1.3a3.11,3.11,0,0,0,.75.24,1.59,1.59,0,0,0,1.49-.72,1.38,1.38,0,0,1,.3-.29l.62-.44A.38.38,0,0,0,22.28,119.31Z"/><path class="cls-2" d="M16.29,126.68a.56.56,0,0,0,.18-.58c-.1-.32-.2-.65-.29-1a1.24,1.24,0,0,0-1-1,7.43,7.43,0,0,1-1.06-.25c-.65-.2-1.28-.45-1.92-.64a1.38,1.38,0,0,0-1.72.52,7.66,7.66,0,0,1-.74.88c.2.38.39.78.6,1.16l.31.59.31.54.24.13c.43.22.87.43,1.29.66a2.51,2.51,0,0,0,1.76.31,5.23,5.23,0,0,0,1.39-.79C15.84,127.08,16.05,126.86,16.29,126.68Z"/><path class="cls-2" d="M24.16,99.6a.85.85,0,0,0,.09.71,1.87,1.87,0,0,0,.26.3c.19.12.45,0,.63.29s.45.2.69.3l.17.1c.38,0,.81,0,1.23,0a5,5,0,0,0,.54-.07c.52-.1,1-.24,1.54-.3a2.4,2.4,0,0,0,1.31-.57c.14-.11.25-.22.08-.4a.33.33,0,0,1,0-.2c.07-.34.16-.69.24-1a.17.17,0,0,0,0-.1c-.14-.21-.28-.43-.44-.63a6.14,6.14,0,0,0-.52-.5,1.64,1.64,0,0,0-.25-.21c-.38-.17-.73-.46-1.19-.29,0,0-.07,0-.1,0a8.59,8.59,0,0,0-1,.09c-.43.09-.85.23-1.27.35,0,0-.08,0-.09,0-.08.17-.24.12-.37.13a1.07,1.07,0,0,0-.27.07c-.37.24-.79.43-1,.85A3.78,3.78,0,0,0,24.16,99.6Z"/><path class="cls-2" d="M4.62,103.64c-.07-.38-.18-.76-.22-1.15a1.86,1.86,0,0,0-.43-1c-.08-.1-.16-.18-.3-.06a.19.19,0,0,1-.15,0l-.77-.18H2.68a3.63,3.63,0,0,0-.47.33,4.54,4.54,0,0,0-.38.38s0,0,0,0l0,.16c.18,1,.41,1.89.62,2.82l.27,1.16a2.69,2.69,0,0,0,.68.16.65.65,0,0,0,.52-.08.82.82,0,0,0,.22-.19c.1-.14,0-.34.23-.47s.15-.34.22-.51,0-.07.07-.14c0-.28,0-.6,0-.91A1.92,1.92,0,0,0,4.62,103.64Z"/><path class="cls-2" d="M45.8,133.16a1,1,0,0,0,.19.16c.28.13.54.35.88.22H47a4.77,4.77,0,0,0,.76-.07c.32-.06.63-.17.95-.26,0,0,.06,0,.07,0s.18-.08.28-.1a.37.37,0,0,0,.2-.05c.27-.17.59-.32.72-.63a3.31,3.31,0,0,0,.2-.81c0-.17.07-.37-.07-.53s-.12-.17-.2-.22-.33,0-.47-.22-.33-.15-.51-.22l-.13-.08h-.92a2.76,2.76,0,0,0-.4.06c-.39.07-.77.17-1.16.22a1.81,1.81,0,0,0-1,.42c-.11.09-.19.17-.06.31a.22.22,0,0,1,0,.14l-.18.77s0,.06,0,.07c.11.16.21.33.33.48S45.67,133,45.8,133.16Z"/><path class="cls-2" d="M54.8,101.25a1.88,1.88,0,0,0,.27.69.65.65,0,0,0,1,0c.1-.13.14-.31.38-.31s.26-.14.12-.33l.24,0-.07,0a.79.79,0,0,1,.1-.27c.06-.08.18-.12.26-.19a4.63,4.63,0,0,0,.3-.4.7.7,0,0,0,.28-.57l.32-.13L58,99.6c.07-.1.11-.24.2-.3s.35-.17.51-.27.11-.16.19-.19.42-.13.62-.2l-.1-.34a5.34,5.34,0,0,0-.16-.53c0-.13-.2-.22-.22-.35-.08-.42-.42-.58-.71-.81a.8.8,0,0,1-.24-.28.66.66,0,0,0-.49-.4l-.4-.11-1.9-.55c-.17,0-.31,0-.36.15a4,4,0,0,0-.25.94c-.07,1-.11,2-.15,3.06a.38.38,0,0,0,0,.15C54.62,100.13,54.69,100.7,54.8,101.25Z"/><path class="cls-2" d="M99.61,123.56c-.74-.41-1.46-.83-2.16-1.31a.87.87,0,0,0-1.09,0,4,4,0,0,0-.56.43c-.42.42-.81.87-1.24,1.28s-.86.76-1.29,1.14c0,0-.12.09-.13.15-.1.46-.66.52-.81.93,0,0,0,0-.06,0a1.82,1.82,0,0,0-.83,1,1.31,1.31,0,0,1-.24.37,5.12,5.12,0,0,0-.51.54,6.91,6.91,0,0,0-.38.77,2.38,2.38,0,0,0,.32.66A17.33,17.33,0,0,0,92,130.74a1.39,1.39,0,0,0,.68.3,3.07,3.07,0,0,0,.9-.07,2.16,2.16,0,0,0,1-.49c.27-.19.58-.31.84-.5a4.51,4.51,0,0,0,.81-.63,1.31,1.31,0,0,1,.91-.47c.49,0,1,.07,1.46.1a4.83,4.83,0,0,0,1.31,0c.9-.19,1.78-.46,2.66-.73A.91.91,0,0,0,103,128s0-.17,0-.26a1.57,1.57,0,0,1,0-.3c0-.17.09-.37,0-.51a3.43,3.43,0,0,0-.52-.8c-.27-.3-.61-.54-.88-.84A8.15,8.15,0,0,0,99.61,123.56Z"/><path class="cls-2" d="M108.91,136.42a4.67,4.67,0,0,0,.2-1.27s-.06-.08-.08-.08c-.19,0-.19-.13-.23-.26a.63.63,0,0,0-.2-.28c-.43-.31-.88-.61-1.33-.92a.74.74,0,0,1-.21-.22c-.28-.44-.55-.91-.85-1.34a3.41,3.41,0,0,0-.64-.62,6,6,0,0,0-.67-.42c-.59.12-1.14.07-1.58.45-.25.22-.58.34-.84.55a.59.59,0,0,0-.23.4,3.13,3.13,0,0,0,.1.6c.08.55.11,1.1.23,1.64a6.36,6.36,0,0,1,0,1.9c-.05.57-.17,1.13-.23,1.7a.43.43,0,0,0,.09.3,8.62,8.62,0,0,0,.63.71c.14.15.29.27.54.14a13.29,13.29,0,0,1,1.34-.59c.69-.29,1.4-.55,2.09-.86S108.56,137.32,108.91,136.42Z"/><path class="cls-2" d="M90.5,139.09a1.56,1.56,0,0,0,.94,1.13c.52.16,1.06.25,1.58.39a2.78,2.78,0,0,0,1.43,0,2.82,2.82,0,0,1,1.53.1c.65.16,1.31.32,2,.46a5.4,5.4,0,0,1,.82.12c.24.11.34,0,.45-.16,0,0,.09,0,.13-.06.27-.11.53-.22.79-.35a.21.21,0,0,0,0-.17,5.29,5.29,0,0,0-.29-.52l-.7-1.1a1.66,1.66,0,0,0-.16-.21,9.08,9.08,0,0,1-.76-.76,4.13,4.13,0,0,0-1.57-1.22,9.26,9.26,0,0,0-1.94-.59c-.7-.15-1.42-.18-2.14-.27l-1.19-.16c-.64,0-1.18.28-1.27.66a3,3,0,0,0,0,1.91C90.33,138.56,90.41,138.82,90.5,139.09Z"/><path class="cls-2" d="M88,118.62a2.75,2.75,0,0,1,.53.55,2.15,2.15,0,0,0,1.21,1,.19.19,0,0,1,.09,0c.29.25.43.23.74,0a4.37,4.37,0,0,1,1.06-.59,5.76,5.76,0,0,0,1.09-.64.29.29,0,0,0,0-.26,5.71,5.71,0,0,0-.3-.67c-.12-.26-.24-.53-.38-.78-.25-.49-.54-1-.76-1.45a6.21,6.21,0,0,0-1.1-2,1.65,1.65,0,0,0-1.22-.72c-.57,0-1.14,0-1.7,0s-1.08-.08-1.62-.12a.74.74,0,0,0-.82.47,3.3,3.3,0,0,0-.19.78,1.39,1.39,0,0,0,.06,1.13v0a3.11,3.11,0,0,0,1,1.34,11.17,11.17,0,0,1,1.12.83C87.17,117.92,87.56,118.27,88,118.62Z"/><path class="cls-2" d="M95.74,158c.4-.62.58-1.16.31-1.44a4.37,4.37,0,0,1-.37-.48s0,0,0,0c-.07-.16-.11-.37-.24-.46a4.91,4.91,0,0,0-.85-.45,3.84,3.84,0,0,0-1.31-.11,2.36,2.36,0,0,0-.46,0c-.21,0-.42.06-.62.09a4.72,4.72,0,0,0-.65.15c-.12,0-.23.15-.36.16a1.63,1.63,0,0,0-1,.45,4.61,4.61,0,0,1-.85.68,3,3,0,0,0-.48.4l-.21.17c-.08.06-.2.09-.25.16a2.05,2.05,0,0,0-.32,1.41c.07.4,0,.87.31,1.22,0,0,0,.06,0,.09.09.23.1.51.39.61-.1.15,0,.37.2.52s.25.23.38.34a1.86,1.86,0,0,0,.35.22,3.38,3.38,0,0,0,1.3.13l.44,0s0-.07.08-.11a.54.54,0,0,1,.3-.11C92.5,161.47,94.77,159.5,95.74,158Z"/><path class="cls-2" d="M77.9,119.44a1.59,1.59,0,0,1,.46-1.35,2.38,2.38,0,0,0,.58-1.11c-.1-.1-.26-.2-.27-.3a.67.67,0,0,0-.37-.55,8.27,8.27,0,0,0-1.36-.69c-.36-.15-.76-.19-1.12-.33-1-.38-1.9-.8-2.86-1.18a.89.89,0,0,0-1.3.52,2,2,0,0,0-.14,1.52,3.21,3.21,0,0,0,1,1.45,1,1,0,0,1,.32,1.42v0c-.18.65-.24.94.49,1.46a9.61,9.61,0,0,0,.92.59,1.08,1.08,0,0,0,1.4-.13.82.82,0,0,1,.53-.31,3.15,3.15,0,0,0,1.42-.4A.54.54,0,0,0,77.9,119.44Z"/><path class="cls-2" d="M65.51,143.08c0-.08.12-.13.18-.18l.4-.26c-.24-.18-.13-.31,0-.39-.07-.22-.13-.41-.2-.61l.15-.08-.24-.2.17-.12a1.07,1.07,0,0,1-.19-.22,2.12,2.12,0,0,1-.06-.44s.08-.08.13-.13l-.27-.42.06,0c-.05,0-.12,0-.15-.08-.19-.22-.36-.47-.55-.68a11.36,11.36,0,0,0-1-1,3.93,3.93,0,0,0-1.37-.84.39.39,0,0,0-.43.09,2.79,2.79,0,0,1-.51.52c-.38.24-.46.67-.67,1s-.17.53-.34.78a16.66,16.66,0,0,0-.9,1.45,3.71,3.71,0,0,0-.24.66,1.17,1.17,0,0,0,0,.76s-.06.13-.07.21a.36.36,0,0,0,0,.25,1.33,1.33,0,0,0,.26.27,4,4,0,0,1,.5.4.88.88,0,0,0,.68.35l1.23.07s.08.05.13.07a1.82,1.82,0,0,0,1.8.16,2.26,2.26,0,0,0,.45-.31C64.76,143.75,65.27,143.57,65.51,143.08Z"/><path class="cls-2" d="M101.92,119.39c.09.14.24.24.33.39a1.4,1.4,0,0,0,1.2.71,1.77,1.77,0,0,1,.2,0l1.27.33a.14.14,0,0,1,0-.07c.23,0,.46-.06.7-.07.49,0,.65-.18.79-.65a2.86,2.86,0,0,1,.42-1,7,7,0,0,1,.92-.88.88.88,0,0,0,.32-.8,1.11,1.11,0,0,0-.38-.71,5.54,5.54,0,0,1-1.26-1.74,3.56,3.56,0,0,0-1-1.44c-.31-.28-.39-.3-.75-.12l-.68.38c-.46.27-.92.53-1.36.81a1.18,1.18,0,0,0-.64.93c0,.6,0,1.2,0,1.8a3.65,3.65,0,0,1-.2,1.7A.44.44,0,0,0,101.92,119.39Z"/><path class="cls-2" d="M75.49,145.51a1.93,1.93,0,0,1-.94-1c0-.1,0-.25-.11-.31a6.54,6.54,0,0,0-1.86-1.27c-.43-.17-.88-.28-1.28-.4l-.65.17a16.5,16.5,0,0,1-1.69.67c-.36,0-.51.42-.71.69a.88.88,0,0,0,.46,1.08,7.06,7.06,0,0,1,1.14.55c.42.31.78.71,1.17,1.06a1.61,1.61,0,0,0,.75.53,11.24,11.24,0,0,1,1.1.3,3,3,0,0,0,.74.24,1.62,1.62,0,0,0,1.5-.72,1.14,1.14,0,0,1,.29-.29l.63-.45a.37.37,0,0,0,0-.5Z"/><path class="cls-2" d="M66.76,153.35a.27.27,0,0,0,.1.08l1.34.68c.43.22.86.43,1.28.67a2.48,2.48,0,0,0,1.77.3,5,5,0,0,0,1.38-.78c.25-.16.46-.38.69-.56a.58.58,0,0,0,.19-.58c-.11-.33-.21-.65-.3-1a1.23,1.23,0,0,0-1-1,9.77,9.77,0,0,1-1.07-.25c-.64-.2-1.27-.45-1.92-.64a1.37,1.37,0,0,0-1.72.52,12.2,12.2,0,0,1-1.17,1.34,2.58,2.58,0,0,1-.47.33A2.35,2.35,0,0,1,66.76,153.35Z"/><path class="cls-2" d="M78.54,127.19a.89.89,0,0,0,.09.71,1.84,1.84,0,0,0,.26.29c.19.13.45,0,.63.3s.45.2.69.3l.17.1h1.23a3.19,3.19,0,0,0,.54-.06c.52-.1,1-.24,1.55-.3A2.4,2.4,0,0,0,85,128c.14-.11.25-.22.08-.4a.34.34,0,0,1,0-.2l.24-1a.12.12,0,0,0,0-.1c-.14-.21-.28-.43-.44-.63a4.93,4.93,0,0,0-.52-.5,1.21,1.21,0,0,0-.25-.21c-.38-.18-.73-.47-1.19-.29,0,0-.07,0-.1,0a8.59,8.59,0,0,0-1,.09c-.43.09-.85.23-1.27.35,0,0-.08,0-.09,0-.08.17-.24.12-.37.13a.83.83,0,0,0-.27.07c-.37.24-.79.43-1,.85A3.71,3.71,0,0,0,78.54,127.19Z"/><path class="cls-2" d="M55,132.17c.08.4.22.79.33,1.18,0,0,0,.08,0,.09s.11.22.13.34a.66.66,0,0,0,.06.25c.22.34.4.74.8.9a3.42,3.42,0,0,0,1,.25c.21,0,.46.09.66-.09a1.25,1.25,0,0,0,.27-.24c.12-.17,0-.42.28-.58s.19-.43.28-.65l.09-.16c0-.35,0-.75,0-1.14a4.43,4.43,0,0,0-.06-.51,14.08,14.08,0,0,1-.28-1.44,2.3,2.3,0,0,0-.53-1.21c-.11-.13-.21-.24-.38-.08a.23.23,0,0,1-.18,0l-1-.22s-.07,0-.09,0a4.78,4.78,0,0,0-.59.41,5.32,5.32,0,0,0-.47.48,1.06,1.06,0,0,0-.19.24c-.17.35-.44.67-.28,1.1a.34.34,0,0,1,0,.1A7.45,7.45,0,0,0,55,132.17Z"/><path class="cls-2" d="M113,115.34c.11.16.21.32.33.47a4.51,4.51,0,0,0,.39.37.7.7,0,0,0,.19.16c.28.13.54.35.88.22,0,0,.06,0,.08,0a6.16,6.16,0,0,0,.76-.06c.32-.07.63-.18.95-.27l.07,0c.06-.13.18-.09.28-.1a.51.51,0,0,0,.2-.06c.27-.17.59-.31.72-.63a3.2,3.2,0,0,0,.2-.81c0-.16.07-.37-.07-.52a2.33,2.33,0,0,0-.19-.23c-.14-.09-.34,0-.48-.22s-.33-.15-.51-.22l-.13-.07h-.92a1.83,1.83,0,0,0-.4.05c-.39.07-.77.18-1.16.22a1.75,1.75,0,0,0-1,.43c-.11.08-.19.16-.06.3a.24.24,0,0,1,0,.15l-.18.76S113,115.32,113,115.34Z"/><path class="cls-2" d="M108.58,166.92c-.14-.1-.34,0-.47-.22s-.34-.15-.52-.23l-.13-.07c-.28,0-.6,0-.92,0l-.4,0c-.38.08-.77.18-1.15.23a1.74,1.74,0,0,0-1,.42c-.1.09-.19.17-.06.3a.19.19,0,0,1,0,.15c0,.26-.12.51-.17.77,0,0,0,.05,0,.07a3.88,3.88,0,0,0,.32.47,1.29,1.29,0,0,0,.17.16c1.52-.33,3-.71,4.51-1.13a.85.85,0,0,0,0-.22.63.63,0,0,0-.07-.53A1,1,0,0,0,108.58,166.92Z"/><path class="cls-2" d="M114.32,128.43a1,1,0,0,1,.2-.31c.15-.11.34-.17.51-.27s.11-.15.19-.18a6.4,6.4,0,0,1,.62-.2l-.11-.34a4.61,4.61,0,0,0-.15-.53c-.06-.13-.21-.23-.23-.35-.07-.42-.42-.58-.7-.81a.78.78,0,0,1-.25-.29.66.66,0,0,0-.48-.39l-.4-.12-1.9-.54c-.17,0-.31,0-.36.15a4,4,0,0,0-.25.94c-.08,1-.11,2-.16,3.05a.81.81,0,0,0,0,.16c.08.56.16,1.12.27,1.68a1.77,1.77,0,0,0,.27.68.64.64,0,0,0,1,0c.09-.12.13-.31.38-.3s.25-.14.12-.34l.23,0-.06,0a.88.88,0,0,1,.09-.26c.07-.09.19-.12.27-.2s.19-.29.29-.39a.69.69,0,0,0,.28-.57l.33-.14Z"/><path class="cls-2" d="M54.13,119.79a1.88,1.88,0,0,0,.27.69.65.65,0,0,0,1.05,0c.1-.13.14-.31.38-.31s.26-.14.12-.33l.24,0-.07,0a1.07,1.07,0,0,1,.09-.27,2.61,2.61,0,0,1,.27-.19,3.07,3.07,0,0,0,.29-.4.69.69,0,0,0,.29-.57l.32-.13-.06,0c.07-.1.11-.24.2-.3s.34-.17.51-.27.11-.16.19-.19.42-.13.62-.2c0-.14-.08-.24-.1-.34s-.09-.36-.16-.53-.21-.22-.23-.35c-.07-.42-.41-.58-.7-.81a.75.75,0,0,1-.25-.28.63.63,0,0,0-.48-.4l-.4-.11-1.9-.55c-.17,0-.31,0-.36.15a4,4,0,0,0-.25.94c-.08,1-.11,2-.15,3.06a.38.38,0,0,0,0,.15C54,118.67,54,119.24,54.13,119.79Z"/><path class="cls-2" d="M78.77,95.63c0,.05,0,.17,0,.26s0,.2,0,.3-.09.37,0,.5a3,3,0,0,0,.52.81c.26.3.6.54.88.83A8.19,8.19,0,0,0,82.12,100a24.64,24.64,0,0,1,2.15,1.31.87.87,0,0,0,1.09,0,6.07,6.07,0,0,0,.57-.43c.42-.42.81-.87,1.24-1.28s.86-.76,1.29-1.14c.05,0,.12-.09.13-.15.09-.46.66-.52.8-.94l.07,0a1.8,1.8,0,0,0,.83-1,1.19,1.19,0,0,1,.24-.36,6.64,6.64,0,0,0,.51-.55,6.72,6.72,0,0,0,.38-.76A2.38,2.38,0,0,0,91.1,94a15.87,15.87,0,0,0-1.4-1.18,1.42,1.42,0,0,0-.67-.31,3.47,3.47,0,0,0-.9.08,2.25,2.25,0,0,0-1,.49c-.26.19-.57.31-.84.49a4.5,4.5,0,0,0-.8.64,1.31,1.31,0,0,1-.91.47c-.49,0-1-.07-1.46-.1a4.83,4.83,0,0,0-1.31,0,27.56,27.56,0,0,0-2.66.73A1,1,0,0,0,78.77,95.63Z"/><path class="cls-2" d="M102,108.2c.09.1.26.2.26.3a.69.69,0,0,0,.37.55,8.74,8.74,0,0,0,1.36.7c.36.14.76.19,1.12.33,1,.38,1.91.79,2.87,1.17a.89.89,0,0,0,1.3-.51,2,2,0,0,0,.13-1.53,3.24,3.24,0,0,0-1-1.44,1.06,1.06,0,0,1-.32-1.43s0,0,0,0c.18-.66.23-.95-.49-1.47-.3-.21-.61-.4-.92-.59a1.1,1.1,0,0,0-1.41.13.79.79,0,0,1-.53.32,3.27,3.27,0,0,0-1.41.39.56.56,0,0,0-.34.65,1.57,1.57,0,0,1-.46,1.34,2.48,2.48,0,0,0-.42.63A2.67,2.67,0,0,0,102,108.2Z"/><path class="cls-2" d="M51.6,123.3a3,3,0,0,1-.12-.32,5.86,5.86,0,0,1-.32-1.06,2,2,0,0,0-.25-.75l-.23-.4c-.29-.53-.59-1-1.24-1.17l-.07,0a3.8,3.8,0,0,0-1.88-.34.72.72,0,0,1-.32,0c-.42-.17-.81-.39-1.24-.55a3.53,3.53,0,0,0-1.22-.3,6.52,6.52,0,0,0-1.41.32.51.51,0,0,0-.23.16,1.32,1.32,0,0,1-.89.48,11.67,11.67,0,0,0-1.32.2c-.59.16-.89.39-.91,1a2.35,2.35,0,0,0,.45,1.44c.18.23.39.44.56.68a3.45,3.45,0,0,0,2.72,1.3.55.55,0,0,0,.18,0,16.44,16.44,0,0,1,2.62-.42,4.14,4.14,0,0,1,1.57.25,7.76,7.76,0,0,1,1,.52,9.5,9.5,0,0,0,2,.64.35.35,0,0,0,.46-.29,4.57,4.57,0,0,0-.06-.78A.35.35,0,0,0,51.6,123.3Z"/><path class="cls-2" d="M19.62,104.39c-.34-.19-.66-.42-1-.61a1.38,1.38,0,0,0-1.22-.19,3.48,3.48,0,0,1-1.53.25,7.81,7.81,0,0,0-1.08.16c-.81.25-1.61.54-2.42.8a.38.38,0,0,0-.3.48c0,.09,0,.17.05.26a6.64,6.64,0,0,0,.86,2,2.57,2.57,0,0,0,1.28,1.18,6.35,6.35,0,0,0,1.46.52,3.21,3.21,0,0,0,1.48.14.79.79,0,0,1,.84.2c.05.06.16.07.24.1.31.08.61.15.92.25a.47.47,0,0,0,.6-.2,1.9,1.9,0,0,0,.29-.61,12.8,12.8,0,0,0,.12-1.51,3.36,3.36,0,0,0-.14-.82,6,6,0,0,1-.31-2.14C19.78,104.51,19.74,104.46,19.62,104.39Z"/><path class="cls-2" d="M30.38,105.5a4.5,4.5,0,0,1-.67-.64c-.09-.09-.13-.23-.23-.3a3.51,3.51,0,0,0-1.42-.6.34.34,0,0,0-.19.05,2.53,2.53,0,0,1-.59.3.89.89,0,0,0-.68.64,1.9,1.9,0,0,1-.25.4,8.86,8.86,0,0,0-.68.93,3.34,3.34,0,0,0-.54,1.37.24.24,0,0,1-.05.14.92.92,0,0,0,0,1c-.06.06-.14.11-.15.17-.06.29-.1.59-.15.89a2.46,2.46,0,0,0,0,.37c0,.2.11.38.14.57a.69.69,0,0,0,.76.67,4,4,0,0,0,1.11-.29c.6-.29,1.25-.5,1.85-.8.42-.2.79-.5,1.2-.72a4.57,4.57,0,0,0,1.75-1.45.46.46,0,0,0,.07-.34,3.27,3.27,0,0,0-.31-.77c-.15-.24-.15-.51-.29-.75A2.67,2.67,0,0,0,30.38,105.5Z"/><path class="cls-2" d="M31.25,118.59a2.51,2.51,0,0,1,1.41.11l1.14.36a1.44,1.44,0,0,0,1.47-.88,1.1,1.1,0,0,0,0-.8,2,2,0,0,0-.7-.63A12.62,12.62,0,0,1,32.24,115a4.14,4.14,0,0,0-1.38-1.08c-.44-.19-.92-.4-1.36,0s-1,.41-1,1.07c0,0,0,0,0,0-.42.68-.86,1.35-1.27,2a.45.45,0,0,0,0,.38,1.74,1.74,0,0,1,.51.78,2.5,2.5,0,0,0,.7,1,.58.58,0,0,0,.52.15,7.63,7.63,0,0,0,2.1-.64Z"/><path class="cls-2" d="M62.94,126.22c.17.13.27.33.43.47a2.16,2.16,0,0,0,.51.36,3.42,3.42,0,0,0,.79.22,4.13,4.13,0,0,0,1,0,.64.64,0,0,1,.6.3A.7.7,0,0,0,67,128a3.61,3.61,0,0,0,1.38-.48c.29-.14.55-.36.85-.48a4.12,4.12,0,0,0,1.31-.95c.24-.21.55-.47.34-.88,0,0,0-.07,0-.1a2.78,2.78,0,0,0-.09-1.25,1.65,1.65,0,0,0-.15-.53,6.32,6.32,0,0,0-.77-.69,1.8,1.8,0,0,1-.73-.88.9.9,0,0,0-.29-.45,8.18,8.18,0,0,0-1.09-.76,7.3,7.3,0,0,0-2.37-1,5.19,5.19,0,0,0-1.88-.17c-.3.06-.64.09-.79.38a2.9,2.9,0,0,0-.35,1,10.39,10.39,0,0,0-.22,2.35,2.78,2.78,0,0,0,.2,1.06,1.48,1.48,0,0,1,.28,1.12C62.68,125.59,62.6,126,62.94,126.22Z"/><path class="cls-2" d="M114,97.23a3.51,3.51,0,0,0-1.37.48,8,8,0,0,1-.85.48,4.08,4.08,0,0,0-1.32,1c-.24.21-.55.46-.34.88,0,0,0,.06,0,.1a2.65,2.65,0,0,0,.09,1.25c0,.18,0,.4.15.52a5.72,5.72,0,0,0,.77.7,1.78,1.78,0,0,1,.72.88,1,1,0,0,0,.29.44,9,9,0,0,0,1.09.77,7.24,7.24,0,0,0,2.38,1,4.73,4.73,0,0,0,1.87.17c.3-.06.64-.08.8-.37a2.93,2.93,0,0,0,.34-1,9.76,9.76,0,0,0,.22-2.35,2.78,2.78,0,0,0-.2-1.06,1.5,1.5,0,0,1-.28-1.11c-.08-.34,0-.72-.34-1-.16-.13-.27-.33-.43-.47a2,2,0,0,0-.51-.36,3.32,3.32,0,0,0-.78-.21,4.19,4.19,0,0,0-1.06,0,.62.62,0,0,1-.59-.29A.7.7,0,0,0,114,97.23Z"/><path class="cls-2" d="M106.83,92.76A.21.21,0,0,0,107,93c.34.19.65.42,1,.62a1.39,1.39,0,0,0,1.21.19,3.36,3.36,0,0,1,1.53-.25,9.35,9.35,0,0,0,1.08-.17c.82-.24,1.62-.54,2.43-.79a.4.4,0,0,0,.3-.49c0-.09,0-.17,0-.26a6.92,6.92,0,0,0-.87-2,2.6,2.6,0,0,0-1.27-1.18,7.06,7.06,0,0,0-1.46-.52,3.25,3.25,0,0,0-1.49-.13.81.81,0,0,1-.84-.21c-.05-.06-.15-.07-.24-.09l-.91-.25a.48.48,0,0,0-.61.19,2,2,0,0,0-.28.61,12.8,12.8,0,0,0-.12,1.52,2.51,2.51,0,0,0,.14.81A6,6,0,0,1,106.83,92.76Z"/><path class="cls-2" d="M92.16,104.32c-.29-.25-.43-.23-.74,0a4.67,4.67,0,0,1-1.07.6,4.9,4.9,0,0,0-1.1.65.25.25,0,0,0-.06.25c.09.24.2.46.31.69s.24.53.38.79c.25.48.55.95.76,1.46a6.46,6.46,0,0,0,1.12,2,1.67,1.67,0,0,0,1.23.72c.58,0,1.15,0,1.72,0s1.09.08,1.63.13a.74.74,0,0,0,.83-.48,3.39,3.39,0,0,0,.2-.79,1.5,1.5,0,0,0-.06-1.14s0,0,0,0a3.14,3.14,0,0,0-1-1.35A11.53,11.53,0,0,1,95.2,107c-.41-.34-.8-.69-1.19-1a2.56,2.56,0,0,1-.53-.56,2.25,2.25,0,0,0-1.23-1.06A.25.25,0,0,1,92.16,104.32Z"/><path class="cls-2" d="M79,105.8c-.09-.15-.25-.25-.33-.39a1.39,1.39,0,0,0-1.2-.71l-.2,0L76,104.33s0,0,0,.07l-.7.06c-.5,0-.66.18-.79.66a3.08,3.08,0,0,1-.43,1,6.82,6.82,0,0,1-.91.87.93.93,0,0,0-.33.8,1.27,1.27,0,0,0,.38.72,5.5,5.5,0,0,1,1.26,1.73,3.7,3.7,0,0,0,1,1.45c.31.28.39.3.76.11s.45-.25.67-.38c.46-.26.92-.52,1.37-.81a1.12,1.12,0,0,0,.63-.93c0-.6,0-1.2,0-1.79a3.77,3.77,0,0,1,.21-1.7A.51.51,0,0,0,79,105.8Z"/><path class="cls-2" d="M43.75,148.41a1,1,0,0,1-.29.29c-.21.16-.42.29-.63.45a.37.37,0,0,0,0,.5l.53.33a1.88,1.88,0,0,1,.94,1c0,.1,0,.25.11.31a6.54,6.54,0,0,0,1.86,1.27,12.41,12.41,0,0,0,1.28.4l.65-.17c.59-.14,1.07-.57,1.69-.66.36-.05.51-.43.71-.69a.89.89,0,0,0-.46-1.09,6.32,6.32,0,0,1-1.14-.55c-.42-.31-.78-.71-1.17-1.06a1.67,1.67,0,0,0-.75-.52c-.37-.08-.73-.2-1.1-.31a3.54,3.54,0,0,0-.74-.24A1.62,1.62,0,0,0,43.75,148.41Z"/><path class="cls-2" d="M52.1,142.13a.27.27,0,0,0-.1-.08l-1.34-.68c-.43-.22-.86-.43-1.28-.66a2.48,2.48,0,0,0-1.77-.31,5.06,5.06,0,0,0-1.38.79,7.23,7.23,0,0,0-.69.55.59.59,0,0,0-.19.59c.11.32.21.64.3,1a1.23,1.23,0,0,0,1,1,7.87,7.87,0,0,1,1.07.24c.64.2,1.27.45,1.92.65a1.38,1.38,0,0,0,1.72-.52,11.43,11.43,0,0,1,1.17-1.35A2.58,2.58,0,0,1,53,143,2.35,2.35,0,0,1,52.1,142.13Z"/><path class="cls-2" d="M100.73,96.4l-.18-.1H99.32a2.5,2.5,0,0,0-.54.07c-.51.1-1,.23-1.54.3a2.39,2.39,0,0,0-1.31.56c-.14.12-.25.23-.08.41a.22.22,0,0,1,0,.2c-.07.34-.16.68-.24,1a.33.33,0,0,0,0,.1c.15.22.28.44.44.63a6.08,6.08,0,0,0,.52.5.86.86,0,0,0,.26.21c.37.18.72.47,1.18.3,0,0,.07,0,.11,0a6.77,6.77,0,0,0,1-.09c.43-.08.85-.23,1.27-.35,0,0,.09,0,.1,0,.08-.18.23-.12.37-.14a.56.56,0,0,0,.26-.07c.37-.23.8-.42,1-.85A3.65,3.65,0,0,0,102.4,98a.84.84,0,0,0-.1-.7A1.25,1.25,0,0,0,102,97c-.18-.13-.45,0-.63-.3S101,96.49,100.73,96.4Z"/><path class="cls-2" d="M121.93,94c.08.39.18.77.23,1.16a1.74,1.74,0,0,0,.42,1c.09.11.17.19.3.06a.24.24,0,0,1,.15,0c.26,0,.51.12.77.18,0,0,0,0,.07,0a5.59,5.59,0,0,0,.47-.33,4.64,4.64,0,0,0,.38-.39,1.46,1.46,0,0,0,.16-.19c.13-.28.34-.54.21-.89,0,0,0,0,0-.07a6.13,6.13,0,0,0-.07-.76c-.06-.32-.17-.63-.26-1,0,0,0-.06,0-.07s-.09-.18-.1-.28a.49.49,0,0,0,0-.2c-.18-.27-.32-.59-.64-.72a3.13,3.13,0,0,0-.8-.2c-.17,0-.37-.07-.53.07a2.15,2.15,0,0,0-.22.19c-.1.14,0,.34-.22.48s-.15.33-.23.51a.42.42,0,0,1-.07.13c0,.29,0,.6,0,.92C121.89,93.68,121.91,93.82,121.93,94Z"/><path class="cls-2" d="M62.52,104.67a.65.65,0,0,0,.2,0c.23-.11.5-.17.59-.46,0,0,0,0,0,0,.12-.18.25-.34.35-.52s.21-.5.31-.74c0,0,0-.05,0-.06s0-.16.08-.23a.46.46,0,0,0,.07-.16,1.29,1.29,0,0,0,0-.78,2,2,0,0,0-.42-.54c-.1-.1-.2-.23-.37-.23a1.85,1.85,0,0,0-.24,0c-.13,0-.19.21-.38.19s-.27.14-.41.22l-.11,0-.47.58a1.69,1.69,0,0,0-.17.29c-.15.28-.28.58-.45.85a1.59,1.59,0,0,0-.23.84c0,.11,0,.21.17.2a.2.2,0,0,1,.11.06l.4.5s0,0,0,0a3.83,3.83,0,0,0,.47,0A2.12,2.12,0,0,0,62.52,104.67Z"/><path class="cls-2" d="M62,111.08c.17.12.42,0,.58.28s.42.18.64.27l.16.09c.35,0,.74,0,1.13,0a2.73,2.73,0,0,0,.5-.06c.48-.09.95-.22,1.43-.28a2.27,2.27,0,0,0,1.21-.52c.12-.11.23-.21.07-.38a.27.27,0,0,1,0-.18c.07-.32.15-.63.22-1,0,0,0-.07,0-.09a4.67,4.67,0,0,0-.41-.58c-.14-.17-.31-.31-.47-.47a1.43,1.43,0,0,0-.24-.19c-.34-.16-.67-.43-1.1-.27,0,0-.06,0-.09,0a7.47,7.47,0,0,0-.94.09c-.4.08-.78.21-1.17.32,0,0-.08,0-.09,0s-.21.11-.34.12a.71.71,0,0,0-.25.06c-.34.22-.73.4-.89.79a3.42,3.42,0,0,0-.25,1,.8.8,0,0,0,.09.65A1.25,1.25,0,0,0,62,111.08Z"/><path class="cls-2" d="M68.46,95.7c-.06.1-.1.24-.19.3s-.35.18-.51.27-.12.16-.19.19-.42.14-.63.2c0,.14.08.24.11.34a4.64,4.64,0,0,0,.16.53c.05.13.2.22.22.35.07.42.42.58.7.81a.74.74,0,0,1,.25.28.67.67,0,0,0,.48.4l.4.11,1.91.55c.16,0,.3,0,.36-.15a4.5,4.5,0,0,0,.25-.94c.07-1,.1-2,.15-3.06v-.15c-.09-.56-.16-1.13-.27-1.68a2.07,2.07,0,0,0-.27-.69.66.66,0,0,0-1.06,0c-.09.13-.13.32-.37.31s-.26.14-.12.33l-.24,0,.07,0a.74.74,0,0,1-.1.26c-.07.08-.18.12-.26.2A4.56,4.56,0,0,0,69,95a.7.7,0,0,0-.28.57l-.32.13Z"/><path class="cls-2" d="M122.9,107.62c-.07,0-.11.15-.18.18a5.1,5.1,0,0,1-.63.2l.11.34a3.24,3.24,0,0,0,.16.53c0,.13.2.23.22.35.07.42.42.58.7.81a.7.7,0,0,1,.25.29.66.66,0,0,0,.48.39c.14,0,.27.08.4.12l1.9.55c.17,0,.31,0,.37-.15a5.32,5.32,0,0,0,.25-1c.07-1,.1-2,.15-3a.86.86,0,0,0,0-.16c-.08-.56-.16-1.12-.27-1.68a1.88,1.88,0,0,0-.26-.68c-.24-.36-.61-.26-1,.06C124.54,105.49,123.33,107.36,122.9,107.62Z"/><path class="cls-2" d="M133.2,97.16c-.1.47-.66.52-.81.94,0,0,0,0-.06,0a1.84,1.84,0,0,0-.84,1,1.1,1.1,0,0,1-.23.37,5.12,5.12,0,0,0-.51.54,6.14,6.14,0,0,0-.38.77,2.19,2.19,0,0,0,.32.65,15.6,15.6,0,0,0,1.39,1.19,1.44,1.44,0,0,0,.68.3,3.45,3.45,0,0,0,.9-.07,2.18,2.18,0,0,0,1-.5c.27-.18.57-.31.84-.49a5,5,0,0,0,.81-.63,1.24,1.24,0,0,1,.91-.47c.49,0,1,.07,1.46.1a5.27,5.27,0,0,0,1.31,0c.9-.19,1.78-.47,2.66-.73a1,1,0,0,0,.41-.33c.05,0,0-.17,0-.25a1.57,1.57,0,0,1,0-.3c0-.17.09-.37,0-.51a3.06,3.06,0,0,0-.52-.8c-.27-.31-.61-.54-.88-.84a8.42,8.42,0,0,0-1.92-1.71c-.74-.4-1.46-.83-2.16-1.3a.86.86,0,0,0-1.09,0,4,4,0,0,0-.56.43c-.42.42-.81.87-1.24,1.28s-.86.76-1.29,1.14C133.28,97.06,133.21,97.11,133.2,97.16Z"/><path class="cls-2" d="M148.82,106.42c-.19,0-.18-.13-.23-.26a.54.54,0,0,0-.19-.28l-1.33-.92a.73.73,0,0,1-.21-.22c-.29-.45-.55-.91-.86-1.34a3.19,3.19,0,0,0-.64-.63,6.38,6.38,0,0,0-.67-.41c-.59.12-1.13.06-1.57.45-.25.22-.58.34-.85.54a.67.67,0,0,0-.22.41,2.51,2.51,0,0,0,.1.6c.07.55.1,1.1.22,1.64a5.77,5.77,0,0,1,0,1.9c-.05.57-.16,1.13-.23,1.7a.44.44,0,0,0,.1.3,6,6,0,0,0,.63.71c.14.15.28.27.54.14.43-.23.88-.41,1.33-.6.7-.28,1.41-.54,2.09-.85s1.57-.63,1.91-1.53a4.69,4.69,0,0,0,.21-1.28S148.85,106.41,148.82,106.42Z"/><path class="cls-2" d="M136.83,111.54c.66.16,1.31.32,2,.46a5.4,5.4,0,0,1,.82.12c.25.11.34,0,.45-.16a.45.45,0,0,1,.14-.06c.26-.11.52-.22.78-.35a.18.18,0,0,0,0-.17,3.81,3.81,0,0,0-.29-.52c-.23-.37-.46-.74-.7-1.1a1.66,1.66,0,0,0-.16-.21c-.25-.25-.53-.48-.76-.76a4.06,4.06,0,0,0-1.57-1.22,9.17,9.17,0,0,0-1.93-.59c-.71-.15-1.43-.18-2.15-.27l-1.19-.16c-.64,0-1.18.28-1.27.66a3,3,0,0,0,0,1.91c.11.26.19.52.28.79a1.58,1.58,0,0,0,1,1.13c.51.16,1,.25,1.57.39a2.81,2.81,0,0,0,1.44,0A2.8,2.8,0,0,1,136.83,111.54Z"/><path class="cls-2" d="M130.34,131.08c.14.1.25.23.39.33a1.18,1.18,0,0,0,.35.23,3.34,3.34,0,0,0,1.3.13l.42,0c.94-.15,3.5-2.31,4.4-3.72a1.72,1.72,0,0,0,.32-.76c0-.25.13-.5-.09-.73a3.7,3.7,0,0,1-.37-.49s0,0,0,0-.11-.37-.24-.46a4.91,4.91,0,0,0-.85-.45,3.84,3.84,0,0,0-1.31-.11,2.36,2.36,0,0,0-.46,0c-.21,0-.41,0-.62.09s-.43.08-.65.14-.23.16-.36.17a1.63,1.63,0,0,0-1,.45,5.07,5.07,0,0,1-.85.68,3,3,0,0,0-.48.4l-.21.17c-.08.06-.2.09-.24.16a2,2,0,0,0-.33,1.41c.07.4,0,.87.31,1.21,0,0,0,.07,0,.1.09.23.1.51.39.61C130,130.71,130.13,130.93,130.34,131.08Z"/><path class="cls-2" d="M140.31,130.72c.11.16.21.33.33.48s.26.25.39.37a1,1,0,0,0,.19.16c.28.13.54.34.89.22h.08a6.51,6.51,0,0,0,.76-.07c.32-.06.63-.17.94-.26,0,0,.07,0,.07,0s.18-.09.28-.1a.46.46,0,0,0,.2-.05c.27-.17.59-.32.72-.64a2.48,2.48,0,0,0,.2-.8.63.63,0,0,0-.07-.53,1,1,0,0,0-.19-.22c-.14-.1-.34,0-.47-.22s-.34-.15-.52-.22l-.13-.08h-.92l-.4.05c-.39.08-.77.18-1.15.23a1.74,1.74,0,0,0-1,.42c-.1.09-.19.17-.06.3a.2.2,0,0,1,0,.15c-.05.26-.12.51-.18.77C140.31,130.67,140.3,130.71,140.31,130.72Z"/><path class="cls-2" d="M156.2,97.07c-.07-.42-.41-.58-.7-.81a.78.78,0,0,1-.25-.29.64.64,0,0,0-.48-.39l-.4-.12-1.9-.55c-.17,0-.31,0-.36.15a4.17,4.17,0,0,0-.25,1c-.08,1-.11,2-.15,3a.43.43,0,0,0,0,.16c.09.56.16,1.12.27,1.68a1.77,1.77,0,0,0,.27.68c.8,1.18,3-2.55,3.63-2.91.07,0,.11-.15.19-.18s.42-.14.62-.2c0-.15-.08-.24-.1-.34s-.09-.36-.16-.53S156.22,97.19,156.2,97.07Z"/><path class="cls-2" d="M124,136.6c.1-.47.66-.52.81-.94,0,0,0,0,.06,0a1.84,1.84,0,0,0,.84-1,1.1,1.1,0,0,1,.23-.37,6.57,6.57,0,0,0,.52-.54,5,5,0,0,0,.37-.77,2.19,2.19,0,0,0-.32-.65,15.6,15.6,0,0,0-1.39-1.19,1.44,1.44,0,0,0-.68-.3,3.45,3.45,0,0,0-.9.07,2.18,2.18,0,0,0-1,.5c-.27.18-.57.31-.84.49a5,5,0,0,0-.81.63,1.24,1.24,0,0,1-.91.47c-.49,0-1-.07-1.46-.1a5.27,5.27,0,0,0-1.31,0c-.9.19-1.78.47-2.66.73a1,1,0,0,0-.41.33s0,.17,0,.25a1.57,1.57,0,0,1,.05.3c0,.17-.09.37,0,.51a3.06,3.06,0,0,0,.52.8c.27.31.61.54.88.84a8.42,8.42,0,0,0,1.92,1.71c.74.4,1.46.83,2.16,1.3a.86.86,0,0,0,1.09,0,4,4,0,0,0,.56-.43c.43-.42.81-.87,1.24-1.28s.86-.76,1.29-1.14C123.94,136.7,124,136.65,124,136.6Z"/><path class="cls-2" d="M99.24,168.6a.58.58,0,0,0-.1-.32c-.34-.43-.69-.84-1-1.26a1,1,0,0,1-.14-.27c-.15-.51-.27-1-.45-1.53a3.14,3.14,0,0,0-.43-.78,6.4,6.4,0,0,0-.52-.59c-.61,0-1.11-.25-1.65,0-.3.14-.65.17-1,.29a.61.61,0,0,0-.33.32,3,3,0,0,0-.07.61c-.08.54-.21,1.08-.25,1.63a6,6,0,0,1-.57,1.81c-.21.53-.48,1-.7,1.57a.42.42,0,0,0,0,.31c.06.14.12.26.19.4,2.27-.17,4.52-.4,6.73-.75a5.58,5.58,0,0,0,.48-1s0-.09-.06-.1C99.21,168.86,99.25,168.73,99.24,168.6Z"/><path class="cls-2" d="M164.07,112a2,2,0,0,0,.08,1.53,3.18,3.18,0,0,0,1.16,1.3,1.11,1.11,0,0,1,.59,1l.13-.33c.32-.85.61-1.71.9-2.57l.37-1.08c-.67-.17-1.34-.35-2-.51A.89.89,0,0,0,164.07,112Z"/><path class="cls-2" d="M117.29,153.52a1.81,1.81,0,0,0,1.81.15,1.9,1.9,0,0,0,.44-.3,4.12,4.12,0,0,0,1.35-1.93,2.93,2.93,0,0,0-.8-2.93,12.64,12.64,0,0,0-1-1,3.85,3.85,0,0,0-1.37-.83.38.38,0,0,0-.43.08,3.2,3.2,0,0,1-.52.52c-.38.25-.45.68-.67,1a8.41,8.41,0,0,1-.34.78,15.2,15.2,0,0,0-.89,1.45,3.46,3.46,0,0,0-.25.66,1.2,1.2,0,0,0,0,.75c0,.06-.06.14-.08.21a.53.53,0,0,0,0,.25,1.15,1.15,0,0,0,.27.27,5,5,0,0,1,.5.41.89.89,0,0,0,.67.35c.41,0,.82,0,1.23.06C117.21,153.44,117.25,153.49,117.29,153.52Z"/><path class="cls-2" d="M129,155a3.7,3.7,0,0,0-1-1.45c-.31-.27-.39-.3-.75-.11l-.68.38c-.46.27-.92.52-1.37.81a1.14,1.14,0,0,0-.63.93c0,.6,0,1.2,0,1.79a3.76,3.76,0,0,1-.2,1.7.49.49,0,0,0,.08.36c.09.14.25.24.34.38a1.39,1.39,0,0,0,1.19.72.65.65,0,0,1,.2,0l.45.11c1-.52,1.92-1.08,2.86-1.64a9.82,9.82,0,0,1,.81-.77.88.88,0,0,0,.33-.8,1.16,1.16,0,0,0-.38-.72A5.5,5.5,0,0,1,129,155Z"/><path class="cls-2" d="M74,132c-.34-.19-.66-.42-1-.62a1.37,1.37,0,0,0-1.22-.18,3.63,3.63,0,0,1-1.53.25,7.45,7.45,0,0,0-1.07.16c-.82.24-1.62.54-2.43.79a.4.4,0,0,0-.3.49c0,.09,0,.17.05.26a6.9,6.9,0,0,0,.86,2,2.62,2.62,0,0,0,1.28,1.18,6.35,6.35,0,0,0,1.46.52,3.08,3.08,0,0,0,1.48.13.83.83,0,0,1,.85.21c0,.06.15.07.23.1.31.08.62.15.92.24a.47.47,0,0,0,.61-.19,1.87,1.87,0,0,0,.28-.61,12.8,12.8,0,0,0,.12-1.52,3.2,3.2,0,0,0-.14-.81,6,6,0,0,1-.31-2.14C74.16,132.1,74.13,132.05,74,132Z"/><path class="cls-2" d="M80,139.07a4.44,4.44,0,0,0,1.11-.29c.6-.29,1.25-.51,1.85-.8.42-.2.79-.51,1.2-.72a4.66,4.66,0,0,0,1.75-1.45.48.48,0,0,0,.07-.35,3.65,3.65,0,0,0-.31-.77c-.15-.23-.15-.5-.29-.74a2.53,2.53,0,0,0-.6-.86,5.77,5.77,0,0,1-.67-.64c-.09-.09-.13-.23-.23-.3a3.38,3.38,0,0,0-1.42-.6.27.27,0,0,0-.19,0,2.23,2.23,0,0,1-.59.31.87.87,0,0,0-.68.64,2,2,0,0,1-.24.39,8.7,8.7,0,0,0-.69.94,3.34,3.34,0,0,0-.54,1.37.24.24,0,0,1-.05.14.94.94,0,0,0,0,1c-.06.06-.14.11-.15.17-.06.29-.1.59-.14.89a1.57,1.57,0,0,0,0,.37c0,.2.11.38.14.57A.69.69,0,0,0,80,139.07Z"/><path class="cls-2" d="M141.71,121.88a4.22,4.22,0,0,1,1.58.25,9.17,9.17,0,0,1,1,.52,9.41,9.41,0,0,0,2,.64.35.35,0,0,0,.46-.29,5.63,5.63,0,0,0-.05-.78.36.36,0,0,0,.09-.51,1.75,1.75,0,0,1-.12-.32,5.19,5.19,0,0,1-.33-1.06,2,2,0,0,0-.25-.75l-.23-.41a1.93,1.93,0,0,0-1.24-1.16l-.07,0a3.88,3.88,0,0,0-1.87-.35.73.73,0,0,1-.33,0c-.41-.18-.81-.4-1.23-.55a3.63,3.63,0,0,0-1.23-.3,6,6,0,0,0-1.41.32.44.44,0,0,0-.22.16,1.34,1.34,0,0,1-.9.48,11.17,11.17,0,0,0-1.31.2c-.59.16-.9.39-.92,1a2.27,2.27,0,0,0,.46,1.43c.17.24.38.45.55.69a3.48,3.48,0,0,0,2.72,1.3.57.57,0,0,0,.18,0A17.64,17.64,0,0,1,141.71,121.88Z"/><path class="cls-2" d="M163,118.91a7.13,7.13,0,0,0-2.37-1,5.17,5.17,0,0,0-1.88-.17c-.3.06-.63.09-.79.38a2.9,2.9,0,0,0-.35,1,10.94,10.94,0,0,0-.22,2.35,2.78,2.78,0,0,0,.21,1.06,1.47,1.47,0,0,1,.27,1.12c.09.34,0,.72.34,1a6.29,6.29,0,0,1,.43.47,2.3,2.3,0,0,0,.52.36,3.9,3.9,0,0,0,.78.22,4.13,4.13,0,0,0,1,0,.67.67,0,0,1,.38.1c.56-1,1.11-2.1,1.63-3.18.12-.25.23-.5.35-.76.31-.67.61-1.34.91-2a.77.77,0,0,0-.17-.19A7.58,7.58,0,0,0,163,118.91Z"/><path class="cls-2" d="M113.1,143.54a12,12,0,0,1-2.33-1.74,4.42,4.42,0,0,0-1.39-1.08c-.44-.18-.92-.4-1.36,0s-1,.41-1,1.07c0,0,0,0,0,.05-.42.67-.86,1.34-1.27,2,0,.1,0,.34,0,.39a1.72,1.72,0,0,1,.5.77,2.43,2.43,0,0,0,.7,1,.58.58,0,0,0,.52.15,7.78,7.78,0,0,0,2.11-.63l.19-.07a2.51,2.51,0,0,1,1.41.11l1.14.36a1.45,1.45,0,0,0,1.48-.88,1.22,1.22,0,0,0,0-.8A2.13,2.13,0,0,0,113.1,143.54Z"/><path class="cls-2" d="M110.62,161.12a2.72,2.72,0,0,1-1.35-1.46c0-.15,0-.36-.16-.45a9.38,9.38,0,0,0-2.65-1.81c-.62-.25-1.27-.4-1.84-.58-.38.1-.65.18-.93.24a21.38,21.38,0,0,1-2.42,1c-.51.07-.73.61-1,1a1.25,1.25,0,0,0,.66,1.55,9.1,9.1,0,0,1,1.63.79,19.79,19.79,0,0,1,1.67,1.51,2.4,2.4,0,0,0,1.07.75c.53.11,1,.28,1.57.44a4.91,4.91,0,0,0,1.07.34,2.31,2.31,0,0,0,2.14-1,1.81,1.81,0,0,1,.42-.41c.29-.23.6-.42.89-.64a.52.52,0,0,0,0-.72Z"/><path class="cls-2" d="M153,132a1.37,1.37,0,0,0,.31-.27c.14-.2,0-.48.31-.66s.21-.47.31-.72a1.46,1.46,0,0,1,.11-.18c0-.4,0-.84,0-1.28a2.78,2.78,0,0,0-.07-.57c-.1-.53-.24-1.06-.31-1.6a2.53,2.53,0,0,0-.59-1.37c-.12-.14-.23-.26-.42-.08a.26.26,0,0,1-.21,0l-1.07-.25a.17.17,0,0,0-.1,0,6.43,6.43,0,0,0-.66.46,6.63,6.63,0,0,0-.52.54,1.09,1.09,0,0,0-.22.27c-.19.39-.49.75-.31,1.24,0,0,0,.07,0,.1a9.07,9.07,0,0,0,.1,1.06c.09.45.24.89.36,1.33,0,0,0,.08,0,.09.18.09.13.25.14.39a.69.69,0,0,0,.08.28c.24.38.44.83.88,1a4.45,4.45,0,0,0,1.13.28A.9.9,0,0,0,153,132Z"/><path class="cls-2" d="M19.1,134.68l0-.15-.65-.65a2.72,2.72,0,0,0-.32-.25c-.32-.22-.66-.41-1-.65a1.84,1.84,0,0,0-1-.4c-.14,0-.25,0-.26.18s0,.09-.09.12c-.22.14-.44.28-.67.41l0,.06a2,2,0,0,1,0,.24c.68,1,1.38,2,2.11,3a.45.45,0,0,1,.16.12.54.54,0,0,0,.18.1,1.59,1.59,0,0,0,1,.06,2.65,2.65,0,0,0,.72-.43c.12-.1.3-.21.32-.42s0-.2,0-.29-.23-.25-.18-.49S19.18,134.85,19.1,134.68Z"/><path class="cls-2" d="M120.88,160.29c0-.13-.2-.23-.22-.35-.07-.42-.42-.58-.7-.81a.7.7,0,0,1-.25-.29.68.68,0,0,0-.48-.39c-.14,0-.27-.08-.4-.12l-1.91-.55c-.16,0-.3,0-.36.15a4.59,4.59,0,0,0-.25.95c-.07,1-.1,2-.15,3.05v.16c.09.56.16,1.12.27,1.68a1.94,1.94,0,0,0,.27.68.65.65,0,0,0,1.06,0,37,37,0,0,1,2.64-2.81c.4-.37.7-.59.75-.45l-.11-.34A4.64,4.64,0,0,0,120.88,160.29Z"/><path class="cls-2" d="M150.68,118.87c.71-.91,1.66-2.64,2.77-3.08.21-.08.42-.14.63-.2-.05-.14-.08-.24-.11-.34a4.64,4.64,0,0,0-.16-.53c-.05-.13-.2-.22-.22-.35-.07-.42-.42-.58-.7-.81a.74.74,0,0,1-.25-.28.67.67,0,0,0-.48-.4l-.41-.11-1.9-.55c-.16,0-.3,0-.36.15a4.5,4.5,0,0,0-.25.94c-.07,1-.1,2-.15,3.06v.15c.09.56.16,1.13.27,1.68a2.07,2.07,0,0,0,.27.69A.66.66,0,0,0,150.68,118.87Z"/><path class="cls-2" d="M171.17,85.44c-.43.22-.88.4-1.33.59-.7.29-1.4.54-2.09.85s-1.56.63-1.91,1.53a4.68,4.68,0,0,0-.2,1.28.16.16,0,0,0,.08.08c.19,0,.19.12.23.25a.52.52,0,0,0,.2.28c.43.32.88.61,1.33.92a1.1,1.1,0,0,1,.21.22c.28.45.54.91.85,1.34a3.82,3.82,0,0,0,.64.63,6.56,6.56,0,0,0,.67.42,7.85,7.85,0,0,0,1.21-.24c0-.3.05-.6.07-.9.09-1,.17-2.07.22-3.11.07-1.37.11-2.75.11-4.14Z"/><path class="cls-2" d="M155.92,133.52a3.25,3.25,0,0,0-1.48.55,7.6,7.6,0,0,0-1.21,1.06c-.4.42-.73.89-1.09,1.34l-.6.74c-.27.43-.31.92-.09,1.13a2.49,2.49,0,0,0,1.1.71c1.49-1.85,2.92-3.75,4.26-5.73h-.05A7.86,7.86,0,0,1,155.92,133.52Z"/><path class="cls-2" d="M60.16,164.54a1.06,1.06,0,0,1-.32-1.43,0,0,0,0,1,0,0c.18-.66.23-1-.49-1.47-.3-.21-.61-.4-.92-.59a1.1,1.1,0,0,0-1.41.13.79.79,0,0,1-.53.32,3.14,3.14,0,0,0-1.41.39.56.56,0,0,0-.34.64,1.59,1.59,0,0,1-.46,1.35,2.48,2.48,0,0,0-.42.63,1.6,1.6,0,0,0-.11.33q3.57,1.44,7.28,2.57a2,2,0,0,0,.09-1.41A3.13,3.13,0,0,0,60.16,164.54Z"/><path class="cls-2" d="M169.25,100.52,168,100l0,.07-.71,0c-.49,0-.67.09-.87.54a2.66,2.66,0,0,1-.55.9,6.38,6.38,0,0,1-1,.75.89.89,0,0,0-.42.75,1.15,1.15,0,0,0,.28.76,5.68,5.68,0,0,1,1,1.89,3.71,3.71,0,0,0,.78,1.56c.27.31.35.34.73.21s.49-.19.72-.29l.79-.34c.3-1.13.55-2.29.8-3.44.14-.7.28-1.39.41-2.09,0-.14.05-.29.08-.43a1.67,1.67,0,0,0-.61-.25A.73.73,0,0,1,169.25,100.52Z"/><path class="cls-2" d="M106,150.89a1.24,1.24,0,0,1-.12-.32,5.19,5.19,0,0,1-.33-1.06,2,2,0,0,0-.25-.75c-.08-.13-.16-.27-.23-.41a1.93,1.93,0,0,0-1.24-1.16l-.07,0a3.9,3.9,0,0,0-1.87-.35.73.73,0,0,1-.33,0c-.41-.18-.81-.4-1.24-.55a3.53,3.53,0,0,0-1.22-.3,6,6,0,0,0-1.41.32.51.51,0,0,0-.23.16,1.32,1.32,0,0,1-.89.48,11.17,11.17,0,0,0-1.31.2c-.6.16-.9.39-.92,1a2.32,2.32,0,0,0,.45,1.43c.18.24.39.45.56.69a3.46,3.46,0,0,0,2.72,1.3.57.57,0,0,0,.18,0,17.64,17.64,0,0,1,2.62-.41,4.22,4.22,0,0,1,1.58.25,8.28,8.28,0,0,1,1,.52,9.5,9.5,0,0,0,2,.64.35.35,0,0,0,.46-.29,5.63,5.63,0,0,0,0-.78A.36.36,0,0,0,106,150.89Z"/><path class="cls-2" d="M89.66,145.76a1.19,1.19,0,0,0,0-.79,2.13,2.13,0,0,0-.7-.63,12.41,12.41,0,0,1-2.33-1.74,4.45,4.45,0,0,0-1.39-1.09c-.44-.18-.92-.39-1.36,0s-1,.41-1,1.07l0,0c-.42.68-.86,1.35-1.27,2,0,.09,0,.33,0,.38a1.69,1.69,0,0,1,.5.77,2.46,2.46,0,0,0,.7,1,.6.6,0,0,0,.52.15,7.8,7.8,0,0,0,2.11-.64,1.39,1.39,0,0,1,.19-.06,2.42,2.42,0,0,1,1.41.11l1.14.36A1.47,1.47,0,0,0,89.66,145.76Z"/><path class="cls-2" d="M36.75,149.71a2.36,2.36,0,0,0-.7-1,.58.58,0,0,0-.52-.16,7.8,7.8,0,0,0-2.11.64,1.39,1.39,0,0,1-.19.06,2.5,2.5,0,0,1-1.41-.1l-1.14-.37a1.46,1.46,0,0,0-1.44.83c1.77,1.56,3.59,3.06,5.49,4.47A.72.72,0,0,0,35,154c.37-.31,1-.42,1-1.08,0,0,0,0,0,0,.42-.67.86-1.34,1.27-2a.45.45,0,0,0,0-.38A1.66,1.66,0,0,1,36.75,149.71Z"/><path class="cls-2" d="M63.3,153.45a3.82,3.82,0,0,0-1.08-1.57.73.73,0,0,1-.2-.26c-.17-.42-.3-.86-.49-1.26a3.35,3.35,0,0,0-.65-1.08,5.86,5.86,0,0,0-1.22-.77.44.44,0,0,0-.28,0,1.31,1.31,0,0,1-1-.3c-.36-.25-.68-.57-1.06-.79-.54-.3-.92-.35-1.36.07a2.25,2.25,0,0,0-.7,1.34c0,.29,0,.59-.09.87a3.47,3.47,0,0,0,1,2.85s.1.07.15.11a16.25,16.25,0,0,1,2.14,1.56,4.24,4.24,0,0,1,.94,1.29,10.15,10.15,0,0,1,.37,1.1,8.81,8.81,0,0,0,1,1.88.35.35,0,0,0,.53.12,5.43,5.43,0,0,0,.51-.59c.18,0,.35-.05.43-.3a2.12,2.12,0,0,1,.14-.31,5.11,5.11,0,0,1,.52-1,2.19,2.19,0,0,0,.35-.7l.12-.45a1.94,1.94,0,0,0,0-1.71S63.31,153.47,63.3,153.45Z"/><path class="cls-2" d="M82.86,167a6.41,6.41,0,0,0-1.32-.81,3.17,3.17,0,0,0-1.42-.45.82.82,0,0,1-.78-.38.47.47,0,0,0-.21-.15c-.28-.14-.57-.28-.84-.43a.49.49,0,0,0-.64.06,1.69,1.69,0,0,0-.4.53,11.1,11.1,0,0,0-.44,1.46,2.81,2.81,0,0,0,0,.82,5.82,5.82,0,0,1-.15,2.16.22.22,0,0,0,.09.28c.19.16.37.34.55.52,2.29.23,4.61.35,7,.39a.48.48,0,0,0,0-.18c0-.09,0-.18,0-.26a7,7,0,0,0-.42-2.13A2.63,2.63,0,0,0,82.86,167Z"/><path class="cls-2" d="M50.54,159.94c-.18-.23-.36-.46-.55-.68-.36-.42-.76-.8-1.09-1.25a6.38,6.38,0,0,0-1.56-1.72,1.71,1.71,0,0,0-1.37-.42c-.55.14-1.11.29-1.67.4s-1.07.17-1.61.25-.61.32-.7.66a3.73,3.73,0,0,0,0,.82,1.44,1.44,0,0,0,.33,1.09,0,0,0,0,0,0,0l.09.09q3.18,1.89,6.54,3.5a1,1,0,0,0,.24-.2,4.69,4.69,0,0,1,.89-.83,4.84,4.84,0,0,0,.92-.89s0-.2,0-.26A6.65,6.65,0,0,0,50.54,159.94Z"/><path class="cls-2" d="M72.41,159.67A5.55,5.55,0,0,0,71,160c-.79.39-1.62.66-2.4,1-.55.27-1,.66-1.57.94a5.89,5.89,0,0,0-2.26,1.88.6.6,0,0,0-.09.45,4,4,0,0,0,.4,1c.19.3.19.65.38,1a3.4,3.4,0,0,0,.77,1.12,7.65,7.65,0,0,1,.88.83c.11.11.17.29.29.39a4.35,4.35,0,0,0,1.69.74l.2,0a.66.66,0,0,0,.2-.06,3.33,3.33,0,0,1,.77-.4,1.15,1.15,0,0,0,.88-.83,2.29,2.29,0,0,1,.32-.51,10.37,10.37,0,0,0,.88-1.21,4.54,4.54,0,0,0,.71-1.78.47.47,0,0,1,.06-.19,1.2,1.2,0,0,0,0-1.31c.07-.08.18-.14.2-.22.07-.39.13-.78.18-1.16a1.65,1.65,0,0,0,.06-.49c0-.24-.14-.48-.18-.73A.9.9,0,0,0,72.41,159.67Z"/><path class="cls-2" d="M131.5,147.29a2.56,2.56,0,0,0-.7-.95.59.59,0,0,0-.53-.16,7.73,7.73,0,0,0-2.1.64,1.17,1.17,0,0,1-.2.06,2.51,2.51,0,0,1-1.41-.1l-1.14-.37a1.45,1.45,0,0,0-1.47.89,1.19,1.19,0,0,0,0,.79,2,2,0,0,0,.7.63,12.74,12.74,0,0,1,2.33,1.74,4.24,4.24,0,0,0,1.39,1.09c.44.18.92.39,1.36,0s1-.41,1-1.07l0,0c.43-.68.86-1.34,1.27-2a.39.39,0,0,0,0-.38A1.69,1.69,0,0,1,131.5,147.29Z"/><path class="cls-2" d="M143.35,146.71c-.36-.09-.72-.23-1.08-.36a3,3,0,0,0-.73-.28,1.61,1.61,0,0,0-1.53.64,1.14,1.14,0,0,1-.31.27c-.21.15-.44.27-.65.42a.37.37,0,0,0,0,.5l.51.35a2,2,0,0,1,.89,1.07c0,.11,0,.25.09.32a9.15,9.15,0,0,0,.94.83c.43-.37.87-.73,1.29-1.11l1-.93.72-.69-.44-.46A1.57,1.57,0,0,0,143.35,146.71Z"/><path class="cls-2" d="M147.33,140.54s-.06-.06-.1-.08l-1.33-.68c-.43-.22-.87-.43-1.29-.67a2.45,2.45,0,0,0-1.76-.3,4.93,4.93,0,0,0-1.39.78c-.24.16-.45.38-.69.56a.57.57,0,0,0-.18.59c.1.32.2.64.29,1a1.24,1.24,0,0,0,1,1A9.09,9.09,0,0,1,143,143c.65.2,1.28.45,1.92.65a1.39,1.39,0,0,0,1.72-.52,12.44,12.44,0,0,1,1.17-1.35,2.58,2.58,0,0,1,.47-.33A2.42,2.42,0,0,1,147.33,140.54Z"/><path class="cls-2" d="M137.61,153.49c-.14,0-.12-.16-.15-.26a.48.48,0,0,0-.09-.19c-.22-.23-.42-.52-.76-.59a2.52,2.52,0,0,0-.82,0,.64.64,0,0,0-.51.16,1.21,1.21,0,0,0-.18.23c-.07.16,0,.34-.14.51s-.08.36-.12.54,0,.08-.05.15c.05.28.1.59.17.9a1.94,1.94,0,0,0,.12.39l0,.12c.85-.6,1.69-1.21,2.52-1.84h0S137.62,153.49,137.61,153.49Z"/><path class="cls-2" d="M158.48,110l.16.09c.35,0,.75,0,1.14,0l.5-.06c.47-.09.94-.22,1.42-.28a2.21,2.21,0,0,0,1.21-.52c.13-.11.23-.21.07-.38a.27.27,0,0,1,0-.18c.07-.32.15-.63.23-.95,0,0,0-.07,0-.09a6,6,0,0,0-.4-.58,5.32,5.32,0,0,0-.48-.47.88.88,0,0,0-.24-.19c-.34-.16-.66-.43-1.09-.27,0,0-.07,0-.1,0a7.47,7.47,0,0,0-.94.09c-.39.08-.78.21-1.17.32,0,0-.08,0-.08,0s-.22.11-.35.13a.65.65,0,0,0-.24.06c-.34.22-.74.4-.9.79a3.41,3.41,0,0,0-.24,1c0,.21-.09.46.09.66a2,2,0,0,0,.23.27c.18.12.42,0,.59.28S158.26,110,158.48,110Z"/><path class="cls-2" d="M161,95.93c-.2.08-.42.13-.62.19,0,.15.07.25.1.34s.09.37.16.54.21.22.23.34c.07.43.41.59.7.81a.86.86,0,0,1,.25.29.6.6,0,0,0,.48.39l.4.12,1.9.55c.17,0,.31,0,.36-.15a4,4,0,0,0,.25-.95c.08-1,.11-2,.15-3.05a.43.43,0,0,0,0-.16c-.09-.56-.16-1.12-.27-1.68a1.9,1.9,0,0,0-.27-.68.64.64,0,0,0-1.05,0C163,93.77,162,95.49,161,95.93Z"/><path class="cls-2" d="M7.94,96.54a1.52,1.52,0,0,1,.28,1.12c.08.34,0,.72.34,1,.17.12.27.32.43.46a2,2,0,0,0,.51.36,3.48,3.48,0,0,0,.78.22,4.2,4.2,0,0,0,1.06,0,.67.67,0,0,1,.6.3.69.69,0,0,0,.63.35A4,4,0,0,0,14,99.89a8,8,0,0,1,.85-.48,4.31,4.31,0,0,0,1.31-1c.24-.21.55-.46.34-.88,0,0,0-.07,0-.1a2.78,2.78,0,0,0-.1-1.25,1.43,1.43,0,0,0-.14-.53,7.16,7.16,0,0,0-.77-.69,1.8,1.8,0,0,1-.73-.88.84.84,0,0,0-.29-.44,9,9,0,0,0-1.09-.77A7.3,7.3,0,0,0,11,92a5.21,5.21,0,0,0-1.88-.17c-.3.07-.64.09-.79.38a2.9,2.9,0,0,0-.35,1,10.43,10.43,0,0,0-.22,2.36A2.73,2.73,0,0,0,7.94,96.54Z"/></svg>