<svg id="Layer_1" data-name="Layer 1" xmlns="http://www.w3.org/2000/svg" viewBox="0 0 171.18 171"><defs><style>.cls-1{fill:#2e5b66;}.cls-2{fill:#e7b00c;}</style></defs><title>Artboard 21</title><path class="cls-1" d="M106.81,52.88c-.08.61-.17,1.23-.27,1.85-.44-.66-.88-1.31-1.3-2-.91-1.44-1.71-3-2.55-4.45a6.14,6.14,0,0,1-.32-.69,2.11,2.11,0,0,1,.23-.19c.19.3.37.61.56.92l.26-.19c-.43-.8-.84-1.6-1.29-2.39a1.91,1.91,0,0,1-.35-1.68,6,6,0,0,0,.09-.63,1.3,1.3,0,0,1,.2-.45c.23-.33.52-.63.72-1s1.13-.87,1.45-.66a4.24,4.24,0,0,1,1,.8,22.84,22.84,0,0,1,1.31,1.9l1.06,1.72c0,.53-.06,1.07-.12,1.6C107.26,49.21,107,51.05,106.81,52.88Z"/><path class="cls-1" d="M86.21,8c.39.72.81,1.43,1.23,2.13H86.29a11,11,0,0,1-1.52-.1c-.33-.55-.66-1.1-1-1.64-1-1.49-1.94-2.95-2.91-4.43l-.42-.62,3.19-.09c.1.16.22.32.31.48C84.73,5.16,85.44,6.6,86.21,8Z"/><path class="cls-1" d="M124.19,36.6c.32-.64.68-1.26,1-1.9a1.07,1.07,0,0,1,1.67-.35,8.93,8.93,0,0,1,1,1.09c1.1,1.38,2.17,2.77,3.26,4.15.74.94,1.49,1.87,2.22,2.82.58.77,1.13,1.57,1.7,2.36.24.32.48.65.71,1s.67,1,1,1.46c1.2,1.81,2.41,3.62,3.59,5.45.84,1.31,1.61,2.67,2.44,4s1.84,2.79,2.69,4.21c.73,1.21,1.27,2.55,2.06,3.71a14.33,14.33,0,0,1,1.64,3.5c.25.7.56,1.38.84,2.08.45,1.14.92,2.27,1.35,3.42.32.87.58,1.78.88,2.66.43,1.3.9,2.58,1.31,3.88s.86,2.9,1.28,4.36c.08.29.14.6.2.9h-4.88c-.62-1.91-1.23-3.83-1.86-5.74-.37-1.14-.74-2.27-1.17-3.38s-.92-2.13-1.38-3.19c-.62-1.46-1.22-2.93-1.88-4.37-.24-.54-.62-1-.91-1.54-.63-1.17-1.25-2.35-1.87-3.53l-.13.06a1.73,1.73,0,0,0,.07.31c.61,1.6,1.27,3.17,1.82,4.78.69,2,1.3,4.06,1.9,6.11.24.84.34,1.72.56,2.57.18.68.46,1.32.64,2s.26,1.22.38,1.83a3.23,3.23,0,0,0,.33.71c.22.59.41,1.2.59,1.81l.43,1.57H144c-.29-.94-.58-1.88-.84-2.83a89.27,89.27,0,0,0-2.47-8.92c-.56-1.44-1.06-2.9-1.67-4.32-.46-1.1-1.09-2.13-1.58-3.22-.23-.5-.71-1-.45-1.62a.28.28,0,0,0,0-.22c-.35-.43,0-.7.22-1a3.31,3.31,0,0,1,.38-.52c.55-.57.43-1.56,1.25-2a1.56,1.56,0,0,0-.13-.66c-.16-.39-.37-.75-.54-1.13s-.35-.78-.54-1.16a23.44,23.44,0,0,1-1.44-2.88,22.68,22.68,0,0,0-2.65-4.68,1.39,1.39,0,0,0-.35-.28l-.05.07.4.77-.16.1c-.61-.87-1.23-1.73-1.83-2.6-.07-.1-.05-.25-.09-.37-.14-.49-.14-1.1-.45-1.43-1-1-1.61-2.28-2.6-3.28-1.29-1.3-2.46-2.72-3.68-4.08a5.63,5.63,0,0,0-.45-.38l-.12.12c.24.34.49.68.74,1l-.15.1c-.14-.15-.28-.31-.43-.45-.32-.3-.59-.57-.3-1.08.17-.3.34-.89.2-1C123.74,37.06,124.08,36.84,124.19,36.6Z"/><path class="cls-1" d="M154.86,38.27q.51,2.73,1.06,5.45c.34,1.64.82,3.27,1,4.93a8.81,8.81,0,0,0,.78,2.49c.11.24,0,.57,0,.85a15.76,15.76,0,0,0,1.78,4.87c.42.67.93,1.29,1.34,2a9.05,9.05,0,0,1,.59,1.31,4.42,4.42,0,0,0,1.62,2.23c.07,0,.11.15.17.22.74,1.12,1.48,2.24,2.25,3.34.33.47.72.91,1.08,1.35h.12c-.06-.72-.09-1.45-.19-2.16-.18-1.18-.4-2.35-.63-3.52-.09-.46-.28-.91-.41-1.37-.32-1.1-.62-2.21-1-3.31s-.79-2.35-1.16-3.54c-.28-.94-.5-1.9-.77-2.84-.1-.36-.28-.71-.36-1.07l-.06-.28a85,85,0,0,1,8,36.17H169.1l0-.44c-.07-.63-.14-1.26-.21-1.91l-.81.19c-.48.1-.79,0-1-.53-.26-.88-.65-1.72-.93-2.59-.1-.29,0-.65-.07-.94a14.06,14.06,0,0,0-.61-1.31c-.24-.5-.47-1-.72-1.52s-.48-.76-.67-1.15c-.37-.75-.66-1.54-1.08-2.26-.59-1-1.28-2-1.92-3-.32-.5-.61-1-.94-1.52s-.85-1.25-1.27-1.88-.79-1.28-1.22-1.9a16.08,16.08,0,0,1-1.27-1.74,33.5,33.5,0,0,1-2.6-6.1c-.43-1.63-.93-3.24-1.35-4.87C152,50,151.52,48,151,46c-.34-1.39-.73-2.77-1.11-4.15-.21-.76-.42-1.53-.65-2.29a35.92,35.92,0,0,1-1.06-3.49c-.38-2-.59-4.1-.93-6.15-.1-.57.06-1.23-.63-1.68-1.8-1.18-3.49-2.53-5.3-3.69-1.51-1-3.12-1.8-4.71-2.62-1.27-.65-2.57-1.22-3.88-1.77s-2.89-1.14-4.35-1.7-2.63-1-4-1.47-2.93-.95-4.4-1.41c0,.06-.07.12-.1.19l.57.51,1.28,1.14.38.37c.58.53,1.16,1.06,1.76,1.58s1,.85,1.58,1.29c-.07.11,0,.39.35.69,1.38,1.39,2.78,2.78,4.12,4.21.52.54,1.33.66,1.75,1.36.24.42.73.67,1,1.06.58.72,1.05,1.51,1.65,2.21a13.39,13.39,0,0,1,2.63,3.74,4,4,0,0,0,.37.78c.37.54.77,1,1.16,1.57s.88.67.8,1.32c0,0,.09.06.13.1.3.32.63.62.89,1s.21.54.37.78c.74,1.08,1.6,2.1,2.24,3.23,1.08,1.9,2,3.9,3,5.82s2.13,3.51,3.09,5.32a37.13,37.13,0,0,1,1.75,4.1,62.87,62.87,0,0,0,2.95,6.54,2.31,2.31,0,0,1,.51,1.76.36.36,0,0,0,.17.32c.49.13.56.53.64.92l-.33-.37-.14.06c.18.42.36.84.55,1.25l.18-.06c-.09-.3-.18-.6-.28-.9.33.78.67,1.56,1,2.35,0,.09-.14.25-.22.38l-.16.07.94,1.19a.58.58,0,0,1,.1.21,5.44,5.44,0,0,0,.4,1.37c.26.41-.45.94.22,1.22-.28.49.13.93.12,1.4,0,.18.18.36.27.54l.14-.07c-.06-.23-.11-.46-.18-.74a10.3,10.3,0,0,1,.89,3.59,3,3,0,0,1,.3.54c.38,1.47.75,2.94,1.12,4.42.13.49.3,1,.42,1.48h-2.62c-.41-1.4-.81-2.8-1.22-4.21-.29-1-.57-2-.85-3s-.62-2.34-1-3.49a4,4,0,0,0-.77-1.72,5.1,5.1,0,0,1-.59-1.49c-.41-1-.8-2-1.26-3s-1-2-1.52-3l-1-1.85c-.08.22-.12.34-.2.6a8,8,0,0,1-.55-1.09c-.14-.41-.41-.84,0-1.29.08-.09,0-.39-.06-.55-.87-1.87-1.74-3.74-2.64-5.59-.08-.16-.39-.22-.6-.31s-.47-.06-.55-.18c-.6-1-1.18-2-1.73-3-.94-1.75-1.82-3.53-2.8-5.25a33.19,33.19,0,0,0-1.92-2.81c-.55-.76-1.18-1.47-1.72-2.25s-1.07-1.66-1.59-2.51c-.64-1-1.27-2.09-1.89-3.14a6.3,6.3,0,0,0-.48-.89c-.52-.59-1.09-1.11-1.62-1.69-.89-1-1.74-2-2.65-3-.76-.79-1.58-1.52-2.36-2.29-1.73-1.7-3.45-3.42-5.19-5.12-.52-.5-1.09-.95-1.73-1.5-.07,1.46-.15,2.79-.2,4.12-.06,1.82-.09,3.64-.16,5.47-.07,1.66-.25,3.33-.27,5,0,2.15,0,4.3.11,6.44a31.46,31.46,0,0,0,.3,4.24c.27,1.74.76,3.43,1.13,5.16.26,1.21.38,2.45.69,3.65q1.23,4.73,2.59,9.42c.7,2.41,1.58,4.78,2.25,7.2a15.32,15.32,0,0,0,2.3,4.18c.29.46.6.9.91,1.35.43.61.85,1.23,1.3,1.83.56.75,1.21,1.45,1.7,2.25.65,1.06,1.22,2.18,1.8,3.29h-12.1c-.41-1.66-.86-3.31-1.29-5l.14,0c0-.12.16-.26.14-.36-.23-1-.45-2-.73-2.92s-.71-2.11-1-3.17a11.42,11.42,0,0,0-1.76-3.93c-.26-.33-.65-.56-.9-.89-1.19-1.62-2.36-3.26-3.53-4.89-.37-.53-.75-1.06-1.1-1.6-.88-1.36-1.72-2.75-2.61-4.1-.63-1-1.27-1.91-1.92-2.87a2.83,2.83,0,0,0,2.28-1.91c0-.17.09-.43,0-.54-.33-.45,0-.88,0-1.31a8.35,8.35,0,0,0,.13-1.8,2.24,2.24,0,0,0-.33-.54s0,0,0-.08a.9.9,0,0,0,.37-.41c.18.29.36.59.55.88.84,1.34,1.72,2.64,2.6,3.94a4.26,4.26,0,0,0,.6.56c-.12-.65-.23-1.14-.29-1.64-.15-1.34-.36-2.67-.4-4-.06-1.81.1-3.63,0-5.44a49.35,49.35,0,0,1,.6-8.54l.3.54c.16-2,.37-3.8.43-5.61a37.28,37.28,0,0,0,.19-5.08,45.68,45.68,0,0,1,0-5.85,3.74,3.74,0,0,0-.5-2.2,9.58,9.58,0,0,0-2.2-2.33,14.46,14.46,0,0,0-1.36-1,5.89,5.89,0,0,0-1-.51,9.31,9.31,0,0,1-1.28-.47c-.51-.28-1-.61-1.48-.93-.31-1.1-.62-2.19-1-3.28-.24-.77-.56-1.51-.83-2.28-.12-.33-.2-.68-.3-1s-.25-.81-.35-1.22-.17-1-.28-1.55l.13,0a2.5,2.5,0,0,1,.39.28c.65.75,1.27,1.54,2,2.26a4.68,4.68,0,0,0,1.91,1.22c.33.1.58.45.88.67a2.36,2.36,0,0,0,2,.23c.4-.09.44-.44.26-.76s-.32-.58-.49-.86c1.53.26,3,.65,4.56.94a1.32,1.32,0,0,0,.81-.19,84.61,84.61,0,0,1,18.92,10.4l-.5-.15c-1.8-.5-3.64-.87-5.45-1.32-.88-.22-1.74-.5-2.61-.76,0,0,0,0,0,0l-4.21-.73a.93.93,0,0,0-.23,0l0,.15c1.5.57,3,1.14,4.51,1.73,2.26.88,4.56,1.67,6.75,2.7a67.79,67.79,0,0,1,9.59,5c.24.16.48.3.73.45A85.58,85.58,0,0,1,154.47,36C154.6,36.74,154.72,37.51,154.86,38.27Z"/><path class="cls-1" d="M101.53,5.83c.07.3.21.58.3.87.21.77.39,1.55.62,2.31.13.41.26.81.4,1.21-1.16-.16-2.33-.22-3.51-.27a6.88,6.88,0,0,1-.9-.1c-.21-.64-.38-1.31-.54-2-.05-.22,0-.49,0-.68a7,7,0,0,1-.63-2,21.25,21.25,0,0,0-.44-2.22,2.53,2.53,0,0,0,.56-.25,4,4,0,0,0-.26-1.36,1.46,1.46,0,0,1-.16-.47c1.24.18,2.46.38,3.67.61.07.33.15.67.22,1C101.06,3.59,101.29,4.71,101.53,5.83Z"/><path class="cls-1" d="M94.16,10l-.91,0-2,.06c-.12-.26-.22-.51-.35-.76-.77-1.47-1.7-2.86-2.5-4.32-.33-.59-.63-1.19-.93-1.79,1.67,0,3.33,0,5-.09.38,1.55.72,3.12,1.12,4.67C93.75,8.54,94,9.26,94.16,10Z"/><path class="cls-1" d="M66.4,2c-1.72.38-3.41.81-5.09,1.29,0,.67,0,1.34,0,2,0,1.09.2,2.17.32,3.26.05.4.14.8.24,1.33a3.1,3.1,0,0,1-.48-.45c-.72-1.06-1.44-2.12-2.12-3.2q-.61-1-1.2-1.95c-1.47.49-2.91,1-4.34,1.57.48.88,1,1.76,1.51,2.6,1,1.61,2.1,3.16,3.14,4.74.72,1.1,1.4,2.23,2.11,3.33.29.45.6.87.9,1.3.95,1.33,1.9,2.66,2.87,4,.2.28.52.46.73.73a9.57,9.57,0,0,1,1.43,3.19c.27.86.59,1.71.84,2.58s.41,1.57.6,2.37c0,.08-.08.19-.12.29l-.12,0c.4,1.5.82,3,1.18,4.52A4.22,4.22,0,0,1,69,37.38a3.9,3.9,0,0,0,.17,1.5c0,.14.22.26.34.39-.25.39-.19.7.23,1.08,0,0,.09.13.08.16-.32.68.06,1.3.19,1.91s.56,1.18.71,1.81c.08.3.57.57.18,1,0,0,.15.23.24.37-.22.21,0,.46.07.72a9.22,9.22,0,0,0,.28,1c.22.57.5,1.13.74,1.7a.86.86,0,0,1,.11.51c-.08.4.14.66.3,1a4.44,4.44,0,0,1,.28,1.32,4,4,0,0,0,.61,1.66,2.55,2.55,0,0,1,.22.54l.53,1.44c0,.08.12.15.14.23.25,1.17.47,2.34.73,3.5.13.55.33,1.1.49,1.64a2.09,2.09,0,0,1,.08.23c.33,1.45.7,2.89,1,4.36.18,1,.17,2,.3,3s.34,1.85.49,2.78c.09.53.14,1.06.2,1.59.14,1.16.33,2.33.42,3.5s.12,2.5.14,3.75,0,2.75,0,4.12c0,.4,0,.81.08,1.21h5.27c0-.16.05-.33.07-.49a2,2,0,0,0-.06-.69c0-.12.15-.24.15-.36,0-.92,0-1.84.07-2.76,0-.27.07-.54.06-.81,0-1.11-.09-2.22-.1-3.33a15.59,15.59,0,0,0-.13-2.65c-.13-.71-.32-1.41-.41-2.12s0-1.3-.1-2c-.12-1.48-.24-3-.39-4.44s-.24-2.78-.48-4.15c-.28-1.56-.66-3.1-1-4.64-.24-1-.57-1.91-.87-2.86a5.92,5.92,0,0,1-.32-.89,1.91,1.91,0,0,1,.15-.69c.48.08.61.41.77.77.43,1,.95,2,1.36,3A15.87,15.87,0,0,0,83,58.5a11.06,11.06,0,0,1,.88,3.1,27.54,27.54,0,0,1,.34,2.75c.15,1.15.3,2.3.48,3.45.09.55.25,1.1.37,1.65,0,0,0,.11,0,.13.74.42.52,1.2.69,1.83l.6,2.33a1.27,1.27,0,0,1,0,.48,7.23,7.23,0,0,1-.94-2.57c-.23.56.82,5,1.46,5.46l.31-.32a.3.3,0,0,1,.06.13c.23,1.25.51,2.49.65,3.75.17,1.44.11,2.93.36,4.36,0,.11,0,.22,0,.34h2.83c0-.49.08-1,.11-1.46s-.09-1-.12-1.48c0-.32,0-.65,0-1-.07-.69-.15-1.38-.22-2.07s-.09-1.31-.2-2c-.19-1.15-.4-2.3-.65-3.44-.21-.93-.47-1.84-.73-2.75s-.54-1.71-.74-2.58a17.74,17.74,0,0,1-.29-2.05c-.1-.73-.19-1.46-.28-2.18-.19-1.51-.37-3-.58-4.52,0-.4-.18-.79-.26-1.18-.16-.82-.25-1.65-.48-2.45-.49-1.65-1-3.29-1.59-4.94-.47-1.42-1-2.82-1.44-4.26a41.14,41.14,0,0,0-2.12-5.67c-.38-.83-.66-1.7-1-2.52-.61-1.25-1.27-2.48-1.92-3.72-.51-1-1-1.93-1.56-2.85-.4-.65-.93-1.21-1.38-1.83s-.71-1-1.06-1.48-.5-.73-.74-1.1A12.87,12.87,0,0,1,72,24.51c-.54-2-1.25-3.89-1.82-5.85-.74-2.54-1.43-5.09-2.1-7.65-.25-1-.36-2-.57-3-.29-1.4-.69-2.77-.91-4.18A16.19,16.19,0,0,1,66.4,2ZM78.53,47.65a16.29,16.29,0,0,1,1.55,4.46A18.87,18.87,0,0,1,78.53,47.65Z"/><path class="cls-1" d="M90.88,9.34c.13.25.23.5.35.76.39.84.74,1.7,1.07,2.57A53.89,53.89,0,0,0,94.7,18c.22.42.58.87.41,1.43a.32.32,0,0,0,.15.27c.4.1.45.43.52.74l-.27-.3-.11.05.44,1,.15-.05c-.08-.25-.15-.49-.23-.73.27.63.54,1.26.79,1.9,0,.07-.11.21-.17.31l-.14.06.77,1a.6.6,0,0,1,.08.16,4,4,0,0,0,.33,1.12c.2.34-.37.76.17,1-.22.4.11.75.1,1.14,0,.14.15.29.22.43l.11,0c0-.19-.09-.38-.14-.6a8.54,8.54,0,0,1,.72,2.92,1.73,1.73,0,0,1,.24.43c.32,1.19.61,2.39.92,3.59a10.51,10.51,0,0,1,.46,2,5.24,5.24,0,0,0,.51,2.11.61.61,0,0,1,0,.18c.06.85.12,1.71.19,2.56,0,.56.09,1.12.18,1.68.17,1.06.38,2.12.58,3.18.13.72.24,1.45.39,2.17s.37,1.5.5,2.26.25,1.8.37,2.7c.21,1.67.43,3.33.62,5,.13,1.21.23,2.44.32,3.66.07.83.1,1.67.15,2.5s.11,1.58.15,2.37c0,.26,0,.53,0,.79,0,.77.09,1.53.07,2.29,0,1.3-.1,2.6-.18,3.89a13.37,13.37,0,0,0-.19,1.63c0,.52-.44.89-.25,1.45.3.91-.43,1.59-.79,2.29a15,15,0,0,0-1,1.74,5.37,5.37,0,0,1-.36.62,1.66,1.66,0,0,1,0-1.74,1.34,1.34,0,0,0,.09-.46c.06-.59.09-1.18.17-1.77,0-.25.23-.49.25-.74.09-.84.16-1.68.18-2.53,0-1.5,0-3,0-4.53a3,3,0,0,0-.43,0c-.38.08-.56,0-.67-.43-.4-1.59-.87-3.16-1.28-4.75-.54-2.08-1-4.18-1.56-6.27-.11-.46-.4-.89-.51-1.35-.3-1.4-.55-2.8-.83-4.2-.2-1-.41-1.92-.61-2.89s-.35-1.77-.54-2.66-.45-2-.66-3.05a10.21,10.21,0,0,0-.26-1.36c-.34-.95-.79-1.86-1.13-2.81s-.69-2.14-1-3.21l-.24-.75-.13,0c.4,1.37.79,2.74,1.19,4.1a.43.43,0,0,1-.32-.25c-.41-1.22-.82-2.44-1.21-3.66-.57-1.74-1.12-3.48-1.69-5.22-.3-.92-.6-1.84-1-2.74s-.75-1.73-1.12-2.59c-.51-1.19-1-2.38-1.52-3.55-.2-.44-.52-.83-.75-1.26-.51-.95-1-1.91-1.51-2.86l-.11.05a.76.76,0,0,0,.06.25c.49,1.3,1,2.57,1.47,3.88.56,1.64,1.06,3.3,1.54,5,.2.68.28,1.39.46,2.08s.37,1.08.52,1.63.21,1,.31,1.49a3.62,3.62,0,0,0,.27.57c.18.48.33,1,.47,1.47.46,1.6.89,3.21,1.35,4.81.36,1.23.76,2.44,1.11,3.67.16.57.19,1.16.35,1.72s.46,1.09.63,1.66c.26.85.47,1.71.7,2.57.09.34-.27.84.35,1,0,0,0,0,0,.08.25.74.49,1.49.75,2.22.48,1.37,1,2.72,1.45,4.09a33.89,33.89,0,0,1,1.3,4.68,37.26,37.26,0,0,0,1.49,6.28,9.94,9.94,0,0,0,.81,1.75,1.11,1.11,0,0,1-.31,1.63c-.38.3-.82.22-1.21.39a.46.46,0,0,1-.6-.2c-.1-.12-.31-.16-.59-.29-.21-.66-.48-1.45-.7-2.25-.26-1-.51-2-.7-3-.26-1.4-.4-2.82-.71-4.21a29.69,29.69,0,0,0-1-3.3c-.39-1.16-.85-2.29-1.25-3.45-.27-.82-.48-1.65-.74-2.48-.52-1.68-1.07-3.35-1.56-5a18.84,18.84,0,0,0-1.11-2.9,17.5,17.5,0,0,1-1-2.51c-.39-1.3-.68-2.63-1-3.94s-.85-2.67-1.21-4a70.12,70.12,0,0,0-2-7.25c-.45-1.17-.86-2.35-1.35-3.51-.38-.89-.88-1.73-1.28-2.61-.19-.41-.58-.79-.37-1.32a.19.19,0,0,0,0-.18c-.28-.35,0-.57.19-.81a2.47,2.47,0,0,1,.3-.42c.45-.46.35-1.27,1-1.61a1.21,1.21,0,0,0-.11-.53c-.13-.32-.29-.62-.44-.92s-.28-.64-.43-.94a19,19,0,0,1-1.18-2.34,17.74,17.74,0,0,0-2.15-3.8.91.91,0,0,0-.28-.23l0,.06.34.62L78,7l-1.5-2.11a.94.94,0,0,1-.06-.3c-.12-.4-.12-.89-.37-1.16C75.32,2.57,74.78,1.56,74,.74l0,0C75.36.54,76.79.39,78.22.28c.42.57.83,1.15,1.25,1.73.19.26.39.53.57.79l.39.57.42.62c1,1.48,2,2.94,2.91,4.43.35.54.68,1.09,1,1.64s.64,1.07,1,1.6c.71,1.15,1.49,2.26,2.18,3.42.59,1,1,2.07,1.68,3a11.85,11.85,0,0,1,1.33,2.84c.2.57.45,1.13.68,1.69.37.93.75,1.85,1.09,2.78.26.71.47,1.44.71,2.16.36,1.05.74,2.1,1.07,3.15s.7,2.36,1,3.54c.09.33.15.67.22,1,0,.07.08.12.11.19.3.79.6,1.58.87,2.38.15.47.25,1,.37,1.44l.21.89a1.46,1.46,0,0,0,0,.2,10,10,0,0,1,.34,1c.22,1.11.38,2.23.61,3.33.31,1.52.68,3,1,4.56.16.75.23,1.53.39,2.29.21,1,.51,1.88.7,2.83a5,5,0,0,0,.82,1.92,1.78,1.78,0,0,0,0-.4,3.7,3.7,0,0,1,0-1.2,2.59,2.59,0,0,0,.09-1.48c-.16-.65-.36-1.29-.49-1.94-.23-1.23-.43-2.46-.64-3.69-.14-.86-.26-1.72-.41-2.57-.29-1.7-.59-3.39-.88-5.09a5.63,5.63,0,0,1,0-.82,4.94,4.94,0,0,0,0-.94c-.15-.67-.37-1.33-.56-2-.45-1.54-.9-3.07-1.34-4.61-.24-.81-.47-1.63-.7-2.44s-.5-1.9-.79-2.84a3.51,3.51,0,0,0-.62-1.4,4,4,0,0,1-.48-1.2c-.33-.82-.65-1.65-1-2.45s-.82-1.64-1.23-2.46l-.78-1.5-.16.49a7.22,7.22,0,0,1-.44-.89c-.12-.33-.34-.68,0-1,.07-.08,0-.32,0-.45-.7-1.52-1.41-3-2.14-4.54-.07-.13-.32-.18-.49-.25s-.38,0-.44-.15l-.18-.3C87,9.45,86.6,8.74,86.21,8c-.77-1.42-1.48-2.86-2.28-4.26-.09-.16-.21-.32-.31-.48-.39-.61-.82-1.21-1.25-1.8S81.66.55,81.31.09C82.49,0,83.68,0,84.87,0l.86,0,.18.28c.54,1,1,2,1.54,2.93.3.6.6,1.2.93,1.79C89.18,6.48,90.11,7.87,90.88,9.34Z"/><path class="cls-1" d="M111,6.82a2.36,2.36,0,0,1-2-.23c-.3-.22-.55-.57-.88-.67a4.68,4.68,0,0,1-1.91-1.22c-.69-.72-1.31-1.51-2-2.26a2.5,2.5,0,0,0-.39-.28q3,.66,5.83,1.53l.68.92c.14.19.27.39.39.59s.34.57.49.86S111.43,6.73,111,6.82Z"/><path class="cls-1" d="M104.4,4.9c.1.34.18.69.3,1,.27.77.59,1.51.83,2.28.34,1.09.65,2.18,1,3.28.08.25.15.49.22.74s.24.53.3.81c.18.87.32,1.74.47,2.6.11.64.21,1.28.32,1.92.39,2.13.77,4.25,1.17,6.37a1.38,1.38,0,0,0,.2.65c.37.43.21.95.25,1.42a15,15,0,0,1-.1,1.76c0,.22,0,.55.12.63.33.21.28.54.3.79.08.9.07,1.8.1,2.7s.07,1.71.09,2.57c0,.25-.05.51-.05.76s0,.78,0,1.18a1.57,1.57,0,0,0,0,.42c0,.09,0,.18,0,.27a19.35,19.35,0,0,1,.2,2c0,.39.08.86-.33,1.16a1,1,0,0,1,0,1.52c.32.68.32.68.15.79a4.68,4.68,0,0,1,0,.62c0,.34-.37.72.1,1,0,.4.06.84-.12,1.08s-.32.67,0,1l-.61.35a1.64,1.64,0,0,0,.2.17l.46.21c-.07.12-.12.3-.23.37a.69.69,0,0,0-.19,1,.8.8,0,0,1,.15.8.9.9,0,0,1-.37.41c-.05,0-.05.11,0,.08a2.24,2.24,0,0,1,.33.54,8.35,8.35,0,0,1-.13,1.8c0,.43-.31.86,0,1.31.09.11,0,.37,0,.54a2.83,2.83,0,0,1-2.28,1.91,1.86,1.86,0,0,1-.34.06c-.38,0-.47-.06-.4-.43l.09-.62c.1-.62.19-1.24.27-1.85.23-1.83.45-3.67.66-5.5.06-.53.09-1.07.12-1.6,0-.1,0-.2,0-.29,0-.44-.07-.88-.06-1.32s.07-.82.11-1.28a.77.77,0,0,1-.07-.26c0-.82,0-1.65,0-2.47,0-.35-.2-.73-.12-1a3.46,3.46,0,0,0-.08-1.83,14.43,14.43,0,0,1-.28-2.65c0-.52-.11-1-.17-1.55l-.66.15c-.38.08-.63,0-.77-.43-.21-.72-.52-1.4-.75-2.1-.08-.24,0-.53-.06-.77a8.53,8.53,0,0,0-.5-1.06c-.19-.41-.37-.83-.58-1.24s-.39-.61-.55-.93c-.3-.61-.53-1.25-.87-1.83-.48-.84-1-1.62-1.56-2.44-.26-.4-.5-.82-.76-1.23s-.69-1-1-1.53-.65-1-1-1.54a12.27,12.27,0,0,1-1-1.41,26.83,26.83,0,0,1-2.12-5c-.16-.59-.33-1.18-.5-1.77s-.41-1.45-.59-2.18c-.4-1.55-.74-3.12-1.12-4.67l0-.14c-.23-.91-.48-1.8-.73-2.7,1.55.12,3.09.28,4.62.49,0,.12,0,.24.07.36.13.6.27,1.2.41,1.79a21.25,21.25,0,0,1,.44,2.22,7,7,0,0,0,.63,2c.09.19,0,.46,0,.68.16.67.33,1.34.54,2a9.32,9.32,0,0,0,.91,2c.34.54.75,1.05,1.09,1.6a7.8,7.8,0,0,1,.48,1.06,3.56,3.56,0,0,0,1.31,1.81.72.72,0,0,1,.14.19c.6.9,1.2,1.81,1.83,2.71.26.38.58.73.87,1.1h.1c0-.59-.07-1.18-.16-1.75-.14-1-.32-1.91-.5-2.86-.08-.38-.23-.74-.34-1.11-.26-.9-.5-1.8-.77-2.69-.18-.56-.36-1.11-.55-1.67-.14-.4-.27-.8-.4-1.21-.23-.76-.41-1.54-.62-2.31-.09-.29-.23-.57-.3-.87-.24-1.12-.47-2.24-.71-3.36-.07-.33-.15-.67-.22-1,1.07.2,2.12.42,3.17.66.11.6.18,1.08.28,1.55S104.28,4.49,104.4,4.9Z"/><path class="cls-1" d="M110.81,85.09c.1-.78.25-1.54.36-2.31s.22-1.75.32-2.62a1.45,1.45,0,0,1,.68-1,12.4,12.4,0,0,1,1.39-1c1.09-.63,2.08-1.42,3.12-2.13a1.72,1.72,0,0,1,.42-.11,1.6,1.6,0,0,1,.06.47,7.93,7.93,0,0,0-.32.89c-.18,1.09-.34,2.19-.47,3.29a26.74,26.74,0,0,0-.41,4.73v.09H110.8A2.62,2.62,0,0,1,110.81,85.09Z"/><path class="cls-1" d="M103.45,84.25a.25.25,0,0,1-.1-.13c0-.43-.09-.85-.11-1.28s0-1,.57-1.21a1.6,1.6,0,0,0,.71-.57c.37-.61,1-.52,1.47-.58,0,.69,0,1.35,0,2s-.18,1.54-.21,2.31l0,.57h-2.53C103.27,85,103.37,84.65,103.45,84.25Z"/><path class="cls-1" d="M131.46,71.07s-.08-.08-.15-.15c0,.17-.08.29-.14.53-.74-1.8-1.43-3.49-2.13-5.17-1.34-3.25-2.65-6.51-4-9.74-.72-1.7-1.55-3.35-2.38-5-.2-.39-.63-.66-.86-1-.46-.75-.86-1.54-1.32-2.39A.87.87,0,0,0,121.2,47a1.91,1.91,0,0,1,.19-.91c.29-.57.65-1.1,1-1.65s.48-.94.77-1.5l.22,0a1.3,1.3,0,0,1,1.59,1.26,3.39,3.39,0,0,0,.43,1.73,5.31,5.31,0,0,1,.35.89,2.81,2.81,0,0,1,.37,1c0,.31.46.56.66.88.08.13,0,.36,0,.55l.14-.2c.1.2.31.44.27.61a1.18,1.18,0,0,0,.52,1.25c.49.41.28.55-.26.79l.77,0-.38.77c.19.17.52.34.51.46-.11.68.32.75.77.75a1.51,1.51,0,0,0,0,.54c.22.55.32,1.27.73,1.58.76.59.4,1.25.41,1.77a8.61,8.61,0,0,1,.58.81c.16.28.23.6.38.87s.49.62.18,1c0,0,.08.23.14.33s.15.19.21.3a9.45,9.45,0,0,0,.63,1.12c.17.21.35.32.16.63-.06.09.07.35.17.48.31.37.65.7.54,1.24a1.27,1.27,0,0,1-.06.18c.82.26-.17,1.18.53,1.48l-.2.16.62.15-.29.45c.3.09.51.22.33.6a.45.45,0,0,0,0,.36c.19.38.41.75.64,1.15l-.47.06.55.49-.15,0,.17.6H135l0-.35.17,0c-.07.28-.13.55-.21.88l.29.22-.14.08a4.23,4.23,0,0,0,.25.58c.17.28.4.54.57.83a8.51,8.51,0,0,1,.65,1.23,3.29,3.29,0,0,1,.06.78,1,1,0,0,0,.19.5,1.74,1.74,0,0,1,.75,1.67c0,.11.05.35.11.36.46.08.33.59.61.79,0,0,0,.2,0,.31s-.11.3-.06.39.24.1.46.17a2.84,2.84,0,0,1,0,.75c-.14.5-.15.88.57.92a1.17,1.17,0,0,0,.11,1.58c.08.11,0,.3.08.44.1.41.21.81.32,1.24-.06.11-.17.28-.26.43l.7.28-.37.27.72,1h-3.66c-.23-.8-.47-1.6-.74-2.38a29.59,29.59,0,0,0-1.57-4.56,27.21,27.21,0,0,1-1.26-2.68C132.63,74.2,132.06,72.63,131.46,71.07Z"/><path class="cls-1" d="M69.36,85.31l.25.06h-.89A.9.9,0,0,1,69.36,85.31Z"/><path class="cls-1" d="M70.38,83.59a17.69,17.69,0,0,1,.34-3.27,4.17,4.17,0,0,0,.1-2.24,5.47,5.47,0,0,1,.15-1.3c0-1,0-2,.06-3a.77.77,0,0,1,.09-.32c-.06-.57-.13-1.07-.14-1.57s.09-1.09.07-1.63c0-.78-.08-1.56-.16-2.33-.26-2.26-.54-4.51-.82-6.77-.13-1-.27-2-.45-3-.08-.46,0-.59.5-.54A3.59,3.59,0,0,1,73.34,60c.06.22.12.53,0,.67-.42.55,0,1.09,0,1.62a9.55,9.55,0,0,1,.15,2.2,2.61,2.61,0,0,1-.39.68s0,.06,0,.09a.93.93,0,0,1,.28,1.49A.84.84,0,0,0,73.63,68c.14.09.19.31.28.47l-.57.25c-.06,0-.11.1-.24.21l.75.44c-.42.41-.4.76,0,1.24.22.29.11.84.16,1.33-.59.29-.15.75-.12,1.18,0,.21,0,.43,0,.76.21.14.21.14-.19,1a1.22,1.22,0,0,1,0,1.86c.5.37.4,1,.4,1.44a22.75,22.75,0,0,1-.24,2.46c0,.11.05.22,0,.33a1.86,1.86,0,0,0,0,.52c0,.48,0,1,0,1.45,0,.31.07.62.07.93l-.06,1.55H70.18C70.25,84.77,70.32,84.18,70.38,83.59Z"/><path class="cls-1" d="M34.71,84.08l-.36.69C34.28,84.43,34.33,84.17,34.71,84.08Z"/><path class="cls-1" d="M59.43,39.73c.48.21,1,.11,1.49.48a1.38,1.38,0,0,1,.39,2,12.34,12.34,0,0,0-1,2.15,45.4,45.4,0,0,0-1.84,7.74,41.6,41.6,0,0,1-1.6,5.75c-.53,1.7-1.19,3.36-1.78,5-.32.91-.62,1.82-.93,2.74,0,0,0,.1,0,.1-.77.18-.33.8-.44,1.21-.28,1.06-.54,2.13-.86,3.17-.21.7-.57,1.35-.77,2s-.24,1.43-.43,2.12c-.43,1.51-.93,3-1.37,4.52-.57,2-1.1,4-1.66,5.92-.07.22-.15.43-.21.65H44.6c.42-1.45.9-2.88,1.3-4.33.46-1.61.81-3.25,1.29-4.85a23.39,23.39,0,0,1,1.23-3.09,22.78,22.78,0,0,0,1.37-3.58c.6-2.08,1.28-4.13,1.92-6.2.32-1,.57-2,.92-3,.48-1.42,1-2.82,1.53-4.25A38.58,38.58,0,0,0,55.37,52c.37-1.71.55-3.46.87-5.19.24-1.23.55-2.45.87-3.67.26-1,.6-2,.85-2.77.34-.16.61-.2.73-.36A.57.57,0,0,1,59.43,39.73Z"/><path class="cls-1" d="M59.61,81.68c.24-.82.51-1.62.69-2.45a5.53,5.53,0,0,0,0-1.15,8.6,8.6,0,0,1,.05-1c.36-2.09.73-4.17,1.09-6.26.18-1,.33-2.11.51-3.17.25-1.51.49-3,.78-4.54.15-.8.4-1.59.6-2.39a3.15,3.15,0,0,0-.11-1.82,4.57,4.57,0,0,1,0-1.48,2,2,0,0,0,0-.49,6.18,6.18,0,0,0-1,2.36c-.24,1.17-.6,2.32-.86,3.49-.2.93-.29,1.89-.49,2.82-.39,1.87-.84,3.73-1.23,5.61-.28,1.36-.48,2.74-.75,4.1a11.47,11.47,0,0,1-.42,1.25l-.06.24c-.09.37-.17.73-.26,1.09-.15.6-.26,1.2-.46,1.78-.33,1-.7,2-1.07,2.93,0,.09-.17.14-.13.24-.09.41-.16.83-.27,1.24l-.38,1.31h-5c.31-1,.63-1.93.94-2.9.49-1.5,1-3,1.49-4.5a.54.54,0,0,1,.4-.32c-.49,1.69-1,3.37-1.46,5.06l.16,0,.28-.91c.42-1.33.8-2.66,1.27-4s1-2.29,1.4-3.46a11.58,11.58,0,0,0,.31-1.68c.27-1.25.55-2.5.82-3.75.23-1.09.44-2.19.67-3.28s.5-2.37.74-3.56c.35-1.72.65-3.45,1-5.16.13-.58.48-1.1.63-1.67.66-2.57,1.26-5.16,1.91-7.73.51-2,1.09-3.89,1.58-5.84.13-.52.36-.63.82-.53a3.09,3.09,0,0,0,.53,0c0-1.89,0-3.73,0-5.58,0-1-.11-2.08-.21-3.11,0-.31-.27-.6-.31-.91-.1-.72-.14-1.46-.21-2.19a1.39,1.39,0,0,0-.12-.55,2.08,2.08,0,0,1,.06-2.15,4.91,4.91,0,0,1,.45.77,19.63,19.63,0,0,0,1.25,2.14c.45.86,1.35,1.69,1,2.81-.23.7.35,1.15.3,1.79a17.3,17.3,0,0,0,.24,2c.1,1.6.19,3.19.22,4.79,0,.94-.06,1.88-.08,2.82,0,.33,0,.65,0,1,0,1-.12,1.94-.18,2.92s-.1,2-.18,3.07c-.12,1.51-.24,3-.41,4.52-.23,2-.5,4.1-.76,6.15-.14,1.11-.25,2.22-.45,3.32-.16.94-.42,1.86-.62,2.79s-.32,1.78-.48,2.67c-.24,1.3-.5,2.6-.71,3.91-.11.69-.16,1.38-.22,2.07l-.24,3.15a.55.55,0,0,1-.06.22A6.46,6.46,0,0,0,62,82.23a13.16,13.16,0,0,1-.57,2.41c-.07.24-.13.48-.19.73H58.54C58.9,84.14,59.26,82.91,59.61,81.68Z"/><path class="cls-1" d="M47.1,38.31a.47.47,0,0,0-.3-.78c-.34-.09-.81-.35-1.06.23s-.57,1.26-.89,1.87a26.78,26.78,0,0,0-1.43,2.76q-.51,1.43-1,2.88c.11-.84.22-1.68.35-2.52.11-.68.3-1.35.46-2,0-.06,0-.14.06-.16.9-.52.64-1.48.84-2.26.26-.95.5-1.91.74-2.86a1.7,1.7,0,0,0,.06-.6A8.85,8.85,0,0,0,43.81,38c-.29-.69,1-6.15,1.79-6.72l.39.4c0-.07.07-.11.07-.17.28-1.53.62-3.06.8-4.6.21-1.79.14-3.61.44-5.37A15.92,15.92,0,0,0,47.43,18c0-1-.22-1.9-.27-2.84s0-1.63,0-2.48c.63.07,1.35,0,1.81.72a2.07,2.07,0,0,0,.87.7c.68.31.73.88.7,1.48s-.07,1.06-.13,1.58c0,.09-.13.17-.13.17.12.55.28,1.06.34,1.57.15,1.32.28,2.65.36,4a16.14,16.14,0,0,1-.15,1.82c0,.4,0,.81,0,1.21-.08.85-.18,1.7-.27,2.55s-.11,1.62-.24,2.41c-.23,1.42-.49,2.84-.8,4.24-.26,1.14-.58,2.26-.9,3.38l-.18.62a2.86,2.86,0,0,0-.31-.27C47.77,38.67,47.44,38.51,47.1,38.31Z"/><path class="cls-1" d="M34.81,16.24a15.74,15.74,0,0,1,.06,2.38c0,.51.16,1,.15,1.55,0,.81-.15,1.63-.16,2.44,0,1.69,0,3.38,0,5.06s-.06,3.09-.17,4.63-.34,2.87-.51,4.31c-.08.65-.14,1.3-.25,2-.19,1.14-.45,2.28-.6,3.42s-.16,2.47-.38,3.68c-.33,1.8-.79,3.58-1.19,5.36l-.09.28c-.21.68-.46,1.34-.61,2-.32,1.43-.6,2.87-.9,4.3,0,.1-.13.19-.17.29-.23.59-.44,1.18-.66,1.77a3.21,3.21,0,0,1-.26.67,4.67,4.67,0,0,0-.75,2A5.7,5.7,0,0,1,28,64c-.2.41-.47.73-.37,1.23a1.13,1.13,0,0,1-.14.63c-.29.7-.63,1.38-.91,2.09a8.78,8.78,0,0,0-.34,1.27c-.08.31-.36.62-.09.88a3.62,3.62,0,0,0-.3.45c.48.5-.12.84-.21,1.2-.19.77-.71,1.46-.88,2.23s-.63,1.52-.24,2.35c0,0,0,.14-.1.19-.51.47-.59.85-.27,1.34-.16.16-.39.3-.43.47a5.18,5.18,0,0,0-.2,1.85,5.17,5.17,0,0,1-.23,2.36c-.22.94-.46,1.87-.71,2.81h7.94a40.24,40.24,0,0,0,1.39-4.14c.62-1.84,1.09-3.74,1.73-5.58a61.56,61.56,0,0,1,2.38-6,29.17,29.17,0,0,0,1.66-5.44c.37-1.46,1-2.85,1.34-4.3.17-.67.31-1.34.45-2-.41.91-.84,1.82-1.23,2.73-.19.45-.35.86-1,1a2.62,2.62,0,0,1-.17-.85,6.52,6.52,0,0,1,.38-1.1c.37-1.17.78-2.33,1.08-3.52.48-1.9,1-3.79,1.29-5.71.29-1.69.42-3.4.59-5.11s.33-3.64.48-5.47c.06-.8,0-1.6.12-2.4s.35-1.73.51-2.61a18.76,18.76,0,0,0,.15-3.27c0-1.36.1-2.72.14-4.09,0-.33-.07-.67-.08-1,0-1.13,0-2.27-.08-3.4a1.43,1.43,0,0,0-.2-.44,2,2,0,0,0,.07-.85c-.07-.68-.2-1.36-.27-2,0-.43,0-.87,0-1.3-.13-.95-.31-1.89-.45-2.84s-.26-2-.37-3C38.48,13.66,36.62,14.92,34.81,16.24Zm.44,51.32a23.72,23.72,0,0,1,1.9-5.5A19.82,19.82,0,0,1,35.25,67.56Z"/><path class="cls-1" d="M35.07,82.46c.09-.1,0-.29.09-.44.1-.41.21-.81.32-1.24-.07-.1-.17-.27-.27-.43l.7-.28-.36-.27,1-1.34c-.67-.39.71-.63.09-1,.56,0,.61-.41.77-.7,0-.08-.12-.26-.22-.46.21-.24-.24-1,.57-1-.32-.49.09-.57.38-.77l-.51,0,.93-1-.1-.07.25-.32-.54-.5c1,.06.76-.55.85-1s.18-.64.29-1l-.3-.28c.13-.13.3-.23.34-.37.23-.75.47-1.51.64-2.28a5.17,5.17,0,0,1,.58-1.58,2.4,2.4,0,0,0,.36-1.75,12.16,12.16,0,0,0,.73-1.74,12.61,12.61,0,0,0,.66-2.87,13.35,13.35,0,0,1,.26-1.35c.05-.37,0-.75,0-1.12s.25-.75.33-1.14a18,18,0,0,1,.31-1.81c.21-.7.57-1.34.82-2,.31-.84.55-1.69.85-2.53a24.3,24.3,0,0,1,.74-2.48c.34-.69.51-1.46.82-2.16s.61-1.34.92-2c0,.36-.08.73-.13,1.09L47,46.91c-.24,1.86-.46,3.72-.72,5.57-.06.49-.22,1-.32,1.45-.2,1-.3,2-.59,3-.6,2-1.29,4.06-2,6.08-.58,1.75-1.24,3.48-1.77,5.25a50.24,50.24,0,0,1-2.61,7c-.47,1-.81,2.09-1.3,3.1-.75,1.54-1.56,3.06-2.36,4.57-.16.3-.32.6-.47.9A1.21,1.21,0,0,1,35.07,82.46Z"/><path class="cls-1" d="M1.53,85.24c0,.05,0,.09,0,.13H1.06l0-.61.54-.23A1.24,1.24,0,0,1,1.53,85.24Z"/><path class="cls-1" d="M14.88,37.14l-.76,1,.13.06c.06.11.2.24.17.31-.24.64-.52,1.27-.79,1.91.08-.25.15-.49.23-.73l-.15,0c-.15.34-.3.67-.44,1l.11,0,.27-.3c-.07.32-.12.64-.52.75a.3.3,0,0,0-.14.26c.16.57-.2,1-.41,1.43a51.65,51.65,0,0,0-2.4,5.31,28,28,0,0,1-1.43,3.33c-.77,1.47-1.7,2.86-2.5,4.32s-1.6,3.18-2.47,4.73c-.13.23-.28.45-.42.68.54-2.26,1.19-4.47,1.91-6.65a85.39,85.39,0,0,1,9.9-18.41c-.09.27-.13.58-.21.86A.38.38,0,0,1,14.88,37.14Z"/><path class="cls-1" d="M27.75,23.72a18.38,18.38,0,0,0,.19-1.95c-1,.88-2,1.79-2.9,2.72-.05.55-.06,1.12-.11,1.67s-.11,1-.17,1.55l-.66-.16c-.38-.08-.63,0-.77.44-.2.71-.52,1.39-.75,2.1-.08.24,0,.53-.06.76a8.53,8.53,0,0,1-.5,1.06c-.19.42-.37.84-.58,1.24s-.38.61-.54.94c-.3.6-.54,1.25-.87,1.83-.49.83-1.05,1.62-1.57,2.43-.26.41-.49.83-.76,1.23s-.69,1-1,1.53-.65,1-1,1.55a12.26,12.26,0,0,0-1,1.4,26.41,26.41,0,0,0-2.11,5c-.36,1.32-.76,2.63-1.1,3.95-.41,1.6-.75,3.21-1.15,4.81-.28,1.13-.6,2.25-.91,3.37-.17.62-.34,1.24-.53,1.86A28.87,28.87,0,0,0,8,65.85c-.32,1.65-.48,3.33-.76,5-.08.47,0,1-.51,1.37-1.46,1-2.84,2.05-4.31,3-.42.27-.86.52-1.29.76,0,.69-.08,1.38-.11,2.07a26.75,26.75,0,0,0,2.63-1.56c.77-.53,1.6-1,2.41-1.44a4.42,4.42,0,0,1,.51-.19c0,.7,0,1.33,0,2,0,.45-.12.9-.11,1.35a.73.73,0,0,1-.56.76C4.45,79.46,3,80,1.54,80.52l-.58.2c0,.2,0,.4,0,.6,0,1.15,0,2.29.09,3.44l.54-.23C2.8,84,4,83.52,5.24,83c.73-.32.9-.2.83.59a.29.29,0,0,1,0,.09c-.09.57-.2,1.14-.29,1.71h4.43c0-.45.08-.89.13-1.34.14-1.15.26-2.3.45-3.44a1.83,1.83,0,0,1,.51-.89,3.42,3.42,0,0,1,.84-.53c1.07-.64,2.14-1.27,3.21-1.92.29-.17.47-.19.47.23s0,.81,0,1.22c0,2-.09,4.1-.13,6.15v.52h3c.05-1.56.11-3.11.18-4.67.07-1.79.15-3.58.23-5.37a1.89,1.89,0,0,1,.77-1.48,31.12,31.12,0,0,0,2.52-2.21c1.09-1.09,2.09-2.26,3.15-3.37a2.39,2.39,0,0,0,.69-2,3.36,3.36,0,0,0-1,.43c-.84.79-1.63,1.63-2.46,2.44a10.33,10.33,0,0,1-3.06,2.07,1.32,1.32,0,0,1-.06-.3c.12-1.13.23-2.27.37-3.4.11-.89.24-1.78.38-2.67,0-.14.12-.38.18-.38.41,0,.36-.36.34-.49-.13-.58.21-.87.59-1.17l.9-.77c1.3-1.11,2.64-2.18,3.88-3.37a21.15,21.15,0,0,0,2-2.5,12,12,0,0,0,.89-1.45c.17-.32.13-.68-.27-.76a2.33,2.33,0,0,0-2,.23c-.3.22-.55.56-.88.67a4.58,4.58,0,0,0-1.91,1.22c-.69.71-1.3,1.5-2,2.25a3.45,3.45,0,0,1-.53.39c.12-.65.19-1.14.3-1.62s.23-.82.34-1.22.18-.69.3-1c.27-.76.59-1.51.83-2.28.42-1.33.78-2.68,1.18-4a7.87,7.87,0,0,0,.3-.81c.18-.86.32-1.73.48-2.6.11-.64.2-1.28.31-1.92l1.17-6.36a1.39,1.39,0,0,1,.2-.66c.38-.43.21-1,.25-1.41A15.1,15.1,0,0,0,27.2,33c0-.21,0-.55.11-.62.34-.21.28-.54.3-.79.08-.9.07-1.8.1-2.7s.08-1.72.1-2.58c0-.25,0-.5-.06-.75s0-.79,0-1.18a1.19,1.19,0,0,1,0-.42A2.23,2.23,0,0,0,27.75,23.72ZM12.59,70.41c.69-.45,1.28-1,1.94-1.55.49-.38,1-.74,1.52-1.09a2.6,2.6,0,0,1,.55-.17c0,.81-.05,1.53-.13,2.25-.12,1.19-.27,2.38-.45,3.56a.92.92,0,0,1-.36.65c-1.2.66-2.42,1.27-3.64,1.89a8.23,8.23,0,0,1-.82.3l.37-3c.06-.41.12-.82.17-1.24A1.84,1.84,0,0,1,12.59,70.41ZM23,40.49c-.05.58-.07,1.17-.15,1.75-.15,1-.32,1.91-.51,2.86-.08.37-.23.74-.34,1.11-.26.89-.5,1.8-.77,2.69s-.65,1.91-.94,2.87c-.24.76-.42,1.54-.63,2.31-.08.3-.23.57-.29.87-.25,1.12-.48,2.24-.72,3.37s-.41,2-.64,3a6.43,6.43,0,0,1-.54,1.62,4.06,4.06,0,0,1-1,1c-.91.79-1.83,1.55-2.74,2.32-.15.13-.16.12-.57.16-.06,0-.11.17-.23.23.14-.85.27-1.71.42-2.56.28-1.48.56-2.95.87-4.42s.66-2.66.84-4a6.68,6.68,0,0,1,.64-2c.08-.19,0-.47,0-.69A13,13,0,0,1,17.22,49c.34-.55.75-1.06,1.09-1.61a7.28,7.28,0,0,0,.48-1.06,3.56,3.56,0,0,1,1.31-1.81c.06,0,.09-.12.14-.18.61-.91,1.2-1.82,1.83-2.71.26-.39.58-.74.87-1.1Z"/><path class="cls-1" d="M33.6,75.65a61.56,61.56,0,0,1,2.38-6,29.17,29.17,0,0,0,1.66-5.44c.37-1.46,1-2.85,1.34-4.3.17-.67.31-1.34.45-2,.31-1.48.58-3,.91-4.45.39-1.77.79-3.55,1.28-5.3.27-1,.54-1.89.84-2.83s.62-1.93,1-2.88a26.78,26.78,0,0,1,1.43-2.76c.32-.61.61-1.24.89-1.87s.72-.32,1.06-.23a.47.47,0,0,1,.3.78c.34.2.67.36,1,.56a2.86,2.86,0,0,1,.31.27,1.5,1.5,0,0,1,.11,1.8c-.37.72-.73,1.46-1.08,2.2s-.62,1.33-.92,2-.48,1.47-.82,2.16a24.3,24.3,0,0,0-.74,2.48c-.3.84-.54,1.69-.85,2.53-.25.68-.61,1.32-.82,2A18,18,0,0,0,43,56.14c-.08.39-.27.76-.33,1.14s0,.75,0,1.12a13.35,13.35,0,0,0-.26,1.35,12.61,12.61,0,0,1-.66,2.87,12.16,12.16,0,0,1-.73,1.74,2.4,2.4,0,0,1-.36,1.75A5.17,5.17,0,0,0,40,67.69c-.17.77-.41,1.53-.64,2.28,0,.14-.21.24-.34.37l.3.28c-.11.4-.22.71-.29,1s.11,1-.85,1l.54.5-.25.32.1.07-.93,1,.51,0c-.29.2-.7.28-.38.77-.81,0-.36.77-.57,1,.1.2.26.38.22.46-.16.29-.21.72-.77.7.62.41-.76.65-.09,1l-1,1.34.36.27-.7.28c.1.16.2.33.27.43-.11.43-.22.83-.32,1.24,0,.15,0,.34-.09.44a1.21,1.21,0,0,0-.22,1.37c0,.07.06.14.11.22a1.9,1.9,0,0,0-.25,0c-.38.09-.43.35-.36.69a1.94,1.94,0,0,0,0,.2,1.81,1.81,0,0,1,0,.4h-4a40.24,40.24,0,0,0,1.39-4.14C32.49,79.39,33,77.49,33.6,75.65Z"/><path class="cls-1" d="M57.77,26.52c-.49,1.54-1,3.08-1.45,4.63a21.66,21.66,0,0,0-.64,2.36c-.13.69-.13,1.4-.19,2.09a6.53,6.53,0,0,1-1.33,3.77c-.25.3-.83.32-1.28.48-.16-.55-.29-1-.41-1.43,0-.1,0-.23-.1-.28-.65-.5-.19-.9.09-1.35a4.91,4.91,0,0,0,.43-1.06c.18-.5.36-1,.5-1.53s.25-1.17.39-1.75c.27-1.12.5-2.26.86-3.36.49-1.54,1.08-3.05,1.64-4.56A13.57,13.57,0,0,1,57,23a1,1,0,0,1,1.37-.36,1.25,1.25,0,0,1,.35,1.06C58.46,24.68,58.07,25.59,57.77,26.52Z"/><path class="cls-2" d="M94.4,127.94c.33.36.56.79.86,1.18s.42.51.64.76c.42.43.85.86,1.26,1.3.12.14,0,.29-.1.39s-.53.45-.81.66-.74.53-1.12.79c-.07,0-.16.08-.23.14s-.39.22-.58,0-.25-.11-.37,0-.31.35-.49.5a11.82,11.82,0,0,1-1.13.84c-.43.28-.47.25-.88-.06-.63-.49-1.27-1-1.89-1.48-.46-.39-.89-.82-1.33-1.24l0,0-2.41-2.29a.6.6,0,0,1,0-.83c.17-.15.3-.39.59-.37.19-.36.64-.28.92-.57a9.17,9.17,0,0,1,1.36-1c.42-.29.84-.57,1.28-.83s.66-.34,1-.51a.21.21,0,0,1,.15,0c.69.52,1.39,1,2.07,1.59A10.68,10.68,0,0,1,94.4,127.94Z"/><path class="cls-2" d="M104.88,121.12l.1-.11a2.26,2.26,0,0,0,.11.22.43.43,0,0,1,0,.33,12.82,12.82,0,0,1-1.6,2.28,13.7,13.7,0,0,1-1,1.06,4.62,4.62,0,0,1-.34.41,3.12,3.12,0,0,1-.43.27.43.43,0,0,1-.65-.07c-.33-.41-.66-.8-1-1.22-.49-.68-1-1.37-1.42-2.06s-.8-1.15-1.15-1.75c-.15-.24-.4-.5-.29-.83a8.93,8.93,0,0,1,.35-.85l0-.06c.25-.13.31-.38.4-.62a2.43,2.43,0,0,1,.36-.72c.19-.26.43-.48.64-.73a.69.69,0,0,1,.49-.3.53.53,0,0,0,.51-.45,2.22,2.22,0,0,1,.4-.76,4.64,4.64,0,0,1,.6-.57l0-.06c.1,0,.22-.12.28-.09s.3.22.28.29,0,0,0,0-.17.24,0,.39a2.5,2.5,0,0,1,.31.34l.3.51.14.28c.16.26.32.53.49.79s.26.44.38.67c.48.84.93,1.7,1.38,2.56C104.68,120.57,104.76,120.84,104.88,121.12Z"/><path class="cls-2" d="M123.55,104.71l-.67.38a1.3,1.3,0,0,0-.22.19c-.09.08-.16.16-.25.23l-.49.35a3.92,3.92,0,0,1-.32.25c-.18.11-.38.2-.56.31a.73.73,0,0,1-.9-.19c-.29-.38-.6-.73-.88-1.11-.41-.56-.82-1.11-1.18-1.7s-.49-1-.77-1.53c-.43-.79-.88-1.57-1.33-2.35a.25.25,0,0,1,0-.34,4.6,4.6,0,0,1,.52-.47.29.29,0,0,0,.15-.42.36.36,0,0,1,.06-.3,2.94,2.94,0,0,1,.6-.45,3,3,0,0,1,1.16-.45c.15,0,.29-.12.2-.28s0-.31.09-.44.22-.22.33-.33h0a5.87,5.87,0,0,1,.46-.41c.55-.42,1.1-.83,1.66-1.23a1.31,1.31,0,0,1,.56-.23c.08,0,.19.22.26.35.38.66.76,1.32,1.13,2,.16.29.29.6.47.87.27.42.58.83.87,1.24s.5.73.76,1.09.47.56.69.85.18.36.3.53a.44.44,0,0,1,0,.58,5.56,5.56,0,0,1-.72.56s-.08,0-.1.07-.26.33-.4.49a2.66,2.66,0,0,1-.43.39c-.26.18-.53.34-.8.5s-.18.21-.08.36A.55.55,0,0,1,123.55,104.71Z"/><path class="cls-2" d="M140.8,86.91s0,.12,0,.18a1.22,1.22,0,0,1-.61.85c-.4.11-.69-.18-1-.35a9.7,9.7,0,0,1-1-.89c-.45-.36-.9-.72-1.37-1.06h4.77a1.21,1.21,0,0,1-.09.2A3.32,3.32,0,0,1,140.8,86.91Z"/><path class="cls-2" d="M115.19,109.76a.65.65,0,0,1,.18.37,3.49,3.49,0,0,1-.27,1.65,7.8,7.8,0,0,0-.26.86,2.09,2.09,0,0,1-.08.36c-.2.44-.42.88-.64,1.32a.19.19,0,0,0,0,.08,2.55,2.55,0,0,1-.48,1.31,2.36,2.36,0,0,1-.38.5s-.23,0-.29-.06-.19-.29-.31-.41c-.69-.7-1.37-1.42-2.09-2.09s-1.23-1.06-1.84-1.58h0l-.71-.63a.68.68,0,0,1-.24-.74c.1-.36.22-.71.29-1.08a11.58,11.58,0,0,0,.18-1.18c0-.22,0-.45,0-.67.06-.46.15-.93.23-1.39s.19-1,.29-1.5c0-.06.07-.16.12-.17a1.59,1.59,0,0,1,1.32.26,12.28,12.28,0,0,1,1.29,1.1c.62.62,1.2,1.27,1.82,1.89S114.57,109.15,115.19,109.76Z"/><path class="cls-2" d="M134,90c.47.59,1,1.17,1.44,1.77a.47.47,0,0,1,.1.36,9.88,9.88,0,0,1-.67,1.13c-.29.41-.63.79-1,1.17-.13.14-.32.34-.47.33a.48.48,0,0,0-.58.39c-.13.36-.27.39-.59.17a.58.58,0,0,0-.22-.07c-.11.21-.21,0-.3,0a3.1,3.1,0,0,0-.58-.39,2.48,2.48,0,0,1-1-.62c-.19-.2-.35-.51-.59-.6-.51-.18-.75-.62-1.06-1-.47-.53-.89-1.09-1.34-1.64a.79.79,0,0,1-.22-.91,6.16,6.16,0,0,1,.34-.68.48.48,0,0,0,0-.49.53.53,0,0,1-.06-.42,7.86,7.86,0,0,1,.56-1,10.39,10.39,0,0,0,.86-1.26,2.13,2.13,0,0,1,.42-.66h1.66c.28.46.56.91.83,1.37A27.76,27.76,0,0,0,134,90Z"/><path class="cls-2" d="M89.78,110.72,90,111c.3.28.6.55.88.84s.27.35.43.49c.45.38.91.75,1.37,1.12.16.13.15.32,0,.49a.16.16,0,0,0,0,.1l0,.29a2,2,0,0,1,.06.44c0,.12-.08.23-.09.35,0,.28-.25.4-.39.59a5,5,0,0,0-.64.85,1.09,1.09,0,0,1-.52.61,1.24,1.24,0,0,1-.66.18,3.69,3.69,0,0,1-.81-.32c-.1,0-.24-.06-.29-.14-.2-.27-.52-.31-.78-.43a3.51,3.51,0,0,1-1-.68c-.24-.23-.44-.5-.68-.73-.74-.76-1.49-1.51-2.25-2.24a6.22,6.22,0,0,0-.91-.69.44.44,0,0,1-.06-.67,6.13,6.13,0,0,0,.56-.68c.19-.26.36-.54.56-.8.33-.44.69-.87,1-1.32a.5.5,0,0,1,.69-.16,10.45,10.45,0,0,0,1.25.73A7,7,0,0,1,89.78,110.72Z"/><path class="cls-2" d="M120.6,86.53c-.15,0-.29.11-.2.27s0,.32-.09.44-.22.23-.33.34h0c-.15.13-.3.28-.46.4-.55.42-1.1.83-1.66,1.23a1.2,1.2,0,0,1-.56.23c-.08,0-.19-.21-.26-.34-.38-.67-.76-1.33-1.13-2-.16-.28-.29-.59-.47-.87s-.28-.4-.42-.6h7.31a3.8,3.8,0,0,1-1.74.89Z"/><path class="cls-2" d="M99.59,100.76c.7.45,1.44.82,2.18,1.2.47.25,1,.45,1.42.69.06,0,.14.15.12.21a5.24,5.24,0,0,1-.33.94c-.27.55-.56,1.08-.86,1.62a2.66,2.66,0,0,1-.92,1.18c-.07,0-.11.15-.15.24-.19.39-.36.8-.56,1.19a.67.67,0,0,1-.83.38,6.32,6.32,0,0,1-2.29-1.06,17.51,17.51,0,0,1-1.79-1.66l-2-1.86a.73.73,0,0,1-.24-.79c.14-.35.23-.72.34-1.08,0,0,0-.13,0-.16.43-.42.46-1,.73-1.54a3.17,3.17,0,0,1,.63-1.06s0-.12.05-.18a1.22,1.22,0,0,1,.6-.86c.4-.11.69.18,1,.35a11,11,0,0,1,1,.89A19.47,19.47,0,0,0,99.59,100.76Z"/><path class="cls-2" d="M76.3,119.23a4.36,4.36,0,0,0-.76-.6,7.09,7.09,0,0,0-.82-.39,2.76,2.76,0,0,1,.5-.39c.49-.16,1-.25,1.5-.42a4.21,4.21,0,0,1,1.69-.12,1.92,1.92,0,0,0,1,0,2.66,2.66,0,0,1,.8-.18.71.71,0,0,1,.44,0c.16.12.29.07.45.05l.21,0a.85.85,0,0,1,.65.37c.46.56,1,1.08,1.45,1.62.15.18.25.4.41.57.58.64,1.19,1.25,1.75,1.9a10.75,10.75,0,0,1,.8,1.19.38.38,0,0,0-.06.19c0,.12,0,.26-.1.33a1.14,1.14,0,0,1-.39.16v0a1.38,1.38,0,0,1-.16.06c-.25,0-.49.07-.73.12s-.27,0-.32.13-.26.09-.39.1a3.85,3.85,0,0,1-.48,0,1.23,1.23,0,0,1-.44-.06.94.94,0,0,0-.61-.14c-.09,0-.21-.09-.31-.12s-.24-.07-.29,0a.65.65,0,0,1-.55.14,1.08,1.08,0,0,0-.4,0,1,1,0,0,1-1-.44c-.65-.71-1.3-1.42-2-2.12S76.92,119.83,76.3,119.23Z"/><path class="cls-2" d="M105.21,89.2c.13-.15.32-.35.47-.34a.48.48,0,0,0,.58-.38c.13-.36.27-.39.59-.18a.66.66,0,0,0,.22.08c.11-.21.21-.06.3,0a2.68,2.68,0,0,0,.58.39,2.59,2.59,0,0,1,1,.62c.19.21.35.52.59.6.51.18.75.62,1.06,1,.47.52.89,1.09,1.34,1.63a.8.8,0,0,1,.22.92,6.16,6.16,0,0,1-.34.68.46.46,0,0,0,0,.48.53.53,0,0,1,.06.42,8,8,0,0,1-.56,1,10.29,10.29,0,0,0-.86,1.25,1.8,1.8,0,0,1-.61.82.2.2,0,0,0-.08.08,1,1,0,0,1-.85.53c-.11-.15-.23-.27-.31-.4-.36-.58-.72-1.15-1.06-1.73a26.82,26.82,0,0,0-2.41-3c-.47-.6-1-1.18-1.44-1.77a.49.49,0,0,1-.1-.37,9,9,0,0,1,.67-1.12C104.54,90,104.88,89.58,105.21,89.2Z"/><path class="cls-2" d="M117.34,151.86c-.26.22-.52.45-.8.65s-.74.53-1.12.8c-.07.05-.16.08-.23.14s-.39.22-.58,0-.25-.12-.37,0a5.81,5.81,0,0,1-.49.5,12.7,12.7,0,0,1-1.13.84c-.43.28-.47.26-.88-.06-.63-.49-1.28-1-1.89-1.48-.46-.38-.89-.82-1.33-1.23l0-.05-2.41-2.28a.59.59,0,0,1,0-.83c.17-.16.3-.4.59-.37.19-.37.64-.29.92-.57a9,9,0,0,1,1.35-1c.42-.28.85-.56,1.28-.82s.67-.35,1-.51a.15.15,0,0,1,.14,0c.7.53,1.4,1,2.08,1.59a10.77,10.77,0,0,1,1.19,1c.32.35.56.79.85,1.17a7.89,7.89,0,0,0,.65.76c.41.44.85.86,1.26,1.3C117.57,151.6,117.47,151.75,117.34,151.86Z"/><path class="cls-2" d="M122.79,145.19a4.47,4.47,0,0,1-.34.4,3.29,3.29,0,0,1-.44.28.44.44,0,0,1-.65-.08c-.32-.4-.66-.8-1-1.22-.48-.68-1-1.37-1.41-2.06s-.8-1.15-1.16-1.74c-.15-.25-.39-.5-.28-.83a8.93,8.93,0,0,1,.35-.85.1.1,0,0,1,0-.06.94.94,0,0,0,.39-.63,3.23,3.23,0,0,1,.36-.72c.19-.26.44-.48.65-.72a.69.69,0,0,1,.49-.3.54.54,0,0,0,.5-.45,2.46,2.46,0,0,1,.4-.77,5.49,5.49,0,0,1,.61-.57l0-.06c.1,0,.22-.12.28-.08s.29.21.28.28,0,0,0,.05a.28.28,0,0,0,0,.4,1.93,1.93,0,0,1,.31.33c.11.17.21.34.31.51a2.44,2.44,0,0,0,.14.28l.48.79.39.67c.47.85.93,1.71,1.37,2.57a7.21,7.21,0,0,1,.33.79.52.52,0,0,0,.1-.11l.12.23a.45.45,0,0,1,0,.32,17.7,17.7,0,0,1-2.56,3.35Z"/><path class="cls-2" d="M166.83,88.85c0-.29.26-.4.4-.59a5.56,5.56,0,0,0,.64-.85,1.12,1.12,0,0,1,.51-.61,1.21,1.21,0,0,1,.67-.18,2.74,2.74,0,0,1,.8.32c.11,0,.24.06.3.13.19.27.52.32.78.44l.25.13c-.05,2.2-.16,4.38-.37,6.54a7,7,0,0,1-1.19-1l-.26-.23c-.29-.28-.59-.55-.88-.84s-.26-.35-.43-.49c-.44-.38-.9-.75-1.36-1.12a.3.3,0,0,1,0-.49s0-.07,0-.1l.05-.29a2,2,0,0,1-.06-.44C166.75,89.08,166.83,89,166.83,88.85Z"/><path class="cls-2" d="M143.94,117.67c.28.43.58.83.87,1.24s.5.74.77,1.09.47.56.69.86.18.36.29.52a.44.44,0,0,1,0,.58,6.68,6.68,0,0,1-.72.57.26.26,0,0,0-.1.07c-.14.16-.26.33-.4.48a3.24,3.24,0,0,1-.43.4,8.3,8.3,0,0,1-.81.49c-.17.1-.18.21-.08.37a.54.54,0,0,1-.14.65c-.22.13-.45.25-.67.39a2,2,0,0,0-.23.18,2.55,2.55,0,0,1-.24.23c-.16.13-.33.23-.49.35s-.21.18-.32.25-.38.2-.56.31a.74.74,0,0,1-.91-.19c-.28-.37-.59-.72-.87-1.1-.41-.56-.82-1.12-1.18-1.71s-.5-1-.77-1.53c-.43-.79-.89-1.57-1.34-2.35a.26.26,0,0,1,0-.33,3.88,3.88,0,0,1,.53-.47.31.31,0,0,0,.15-.43.35.35,0,0,1,.05-.3,3.84,3.84,0,0,1,.61-.45,3.16,3.16,0,0,1,1.16-.45c.14,0,.29-.11.2-.27s0-.32.08-.45.22-.22.33-.33h0a6.1,6.1,0,0,1,.46-.41c.55-.41,1.09-.83,1.65-1.22a1.23,1.23,0,0,1,.57-.23c.07,0,.19.21.26.34l1.13,2C143.64,117.09,143.77,117.4,143.94,117.67Z"/><path class="cls-2" d="M161.59,104.52c-.59-.47-1.16-1-1.78-1.36s-1.45-.82-2.18-1.2c-.47-.25-.95-.45-1.42-.69a.26.26,0,0,1-.13-.21,6.2,6.2,0,0,1,.34-.94c.26-.55.56-1.09.85-1.62a2.7,2.7,0,0,1,.93-1.18.58.58,0,0,0,.15-.24c.19-.4.35-.8.55-1.19a.69.69,0,0,1,.84-.38A6.16,6.16,0,0,1,162,96.57a18.51,18.51,0,0,1,1.79,1.65l2,1.86a.75.75,0,0,1,.24.79c-.14.35-.23.72-.34,1.08,0,.06,0,.13,0,.17-.43.42-.46,1-.73,1.53a3.12,3.12,0,0,1-.63,1.07s-.05.12-.05.18a1.19,1.19,0,0,1-.61.85c-.39.11-.69-.18-1-.35A9.6,9.6,0,0,1,161.59,104.52Z"/><path class="cls-2" d="M135.48,130.05a.62.62,0,0,1,.18.36,3.47,3.47,0,0,1-.27,1.65,8.52,8.52,0,0,0-.26.86c0,.12,0,.26-.08.37-.21.44-.43.87-.64,1.31a.24.24,0,0,0,0,.08,2.52,2.52,0,0,1-.48,1.32,2,2,0,0,1-.37.49s-.23,0-.3-.05-.18-.29-.3-.41c-.69-.71-1.38-1.42-2.09-2.1s-1.23-1.05-1.84-1.58h0l-.7-.62a.66.66,0,0,1-.24-.74c.1-.36.22-.72.29-1.09a11.37,11.37,0,0,0,.17-1.17c0-.22,0-.45,0-.67.06-.47.15-.93.23-1.39s.19-1,.29-1.5c0-.07.06-.16.11-.17a1.57,1.57,0,0,1,1.32.25,11.38,11.38,0,0,1,1.3,1.11c.62.61,1.2,1.26,1.81,1.88S134.85,129.44,135.48,130.05Z"/><path class="cls-2" d="M154.28,110.29l1.43,1.77c.08.1.15.28.11.36a9.08,9.08,0,0,1-.67,1.13c-.3.41-.63.79-1,1.17-.12.14-.32.35-.46.33a.5.5,0,0,0-.59.39c-.13.36-.27.39-.58.18a.51.51,0,0,0-.23-.08c-.1.21-.2,0-.29,0a3.16,3.16,0,0,0-.58-.4,2.46,2.46,0,0,1-1-.61c-.19-.21-.35-.52-.59-.6-.52-.19-.75-.62-1.06-1-.47-.53-.9-1.09-1.34-1.64a.79.79,0,0,1-.22-.91c.1-.23.21-.46.33-.68a.44.44,0,0,0,0-.49.54.54,0,0,1-.05-.41,7.3,7.3,0,0,1,.56-1,10.29,10.29,0,0,0,.86-1.25,1.78,1.78,0,0,1,.6-.82.24.24,0,0,0,.09-.08,1,1,0,0,1,.84-.53,2.8,2.8,0,0,1,.32.4l1.06,1.73A25.73,25.73,0,0,0,154.28,110.29Z"/><path class="cls-2" d="M161,86.52c-.19.26-.43.48-.64.73a.69.69,0,0,1-.49.29.54.54,0,0,0-.51.46,2.52,2.52,0,0,1-.4.76,4.15,4.15,0,0,1-.61.57l0,.06c-.09,0-.21.12-.27.08s-.3-.21-.28-.28v0c.09-.11.17-.25,0-.39a3.28,3.28,0,0,1-.31-.34c-.1-.17-.2-.34-.31-.51a1.47,1.47,0,0,0-.14-.28c-.15-.27-.32-.53-.48-.79l-.39-.67-.27-.52h5.44a1,1,0,0,1,0,.16A3.23,3.23,0,0,1,161,86.52Z"/><path class="cls-2" d="M112.85,135.35c0,.29-.26.41-.4.6a4.68,4.68,0,0,0-.63.85,1.16,1.16,0,0,1-.52.61,1.25,1.25,0,0,1-.67.18,3.39,3.39,0,0,1-.8-.33c-.1,0-.24-.06-.3-.13a1.51,1.51,0,0,0-.78-.43,3.85,3.85,0,0,1-1-.69c-.24-.22-.44-.49-.68-.73-.75-.75-1.49-1.51-2.26-2.24a6.64,6.64,0,0,0-.9-.68.45.45,0,0,1-.07-.68,5.4,5.4,0,0,0,.57-.68c.19-.26.36-.54.55-.8.34-.44.7-.87,1-1.32a.51.51,0,0,1,.69-.15,12,12,0,0,0,1.25.73,7,7,0,0,1,2.18,1.54l.25.24c.29.27.59.54.88.83s.27.35.43.49c.45.39.91.75,1.37,1.12a.3.3,0,0,1,0,.49.18.18,0,0,0,0,.11c0,.11-.05.23-.06.28a3.13,3.13,0,0,1,.07.45C112.93,135.12,112.86,135.24,112.85,135.35Z"/><path class="cls-2" d="M137.48,98.06c.11-.08.2-.18.31-.25s.38-.2.56-.31a.74.74,0,0,1,.91.19c.28.37.6.73.87,1.1.41.56.83,1.12,1.19,1.71s.49,1,.76,1.53c.43.79.89,1.57,1.34,2.35a.23.23,0,0,1,0,.33,3.37,3.37,0,0,1-.53.47.32.32,0,0,0-.15.43.32.32,0,0,1,0,.3,3.61,3.61,0,0,1-.6.45,3.27,3.27,0,0,1-1.17.45c-.14,0-.28.11-.19.27a.37.37,0,0,1-.09.45c-.1.12-.22.22-.33.33h0c-.16.14-.3.29-.46.41-.55.41-1.1.83-1.66,1.22a1.1,1.1,0,0,1-.56.23c-.08,0-.19-.21-.27-.34l-1.13-2c-.16-.29-.28-.6-.46-.87-.27-.43-.58-.83-.87-1.24s-.5-.73-.76-1.09-.47-.56-.69-.85-.18-.36-.3-.53a.43.43,0,0,1,0-.58,5.82,5.82,0,0,1,.72-.57.53.53,0,0,0,.1-.06,6.12,6.12,0,0,1,.4-.49,3.28,3.28,0,0,1,.43-.4c.25-.17.53-.33.8-.49s.18-.21.08-.37a.53.53,0,0,1,.15-.65l.67-.38a2,2,0,0,0,.22-.19,2.73,2.73,0,0,1,.25-.23Z"/><path class="cls-2" d="M113.91,124.12a.74.74,0,0,1-.23-.79c.13-.35.23-.72.34-1.08,0-.06,0-.13,0-.16.43-.43.45-1,.73-1.54a3,3,0,0,1,.63-1.07s0-.12,0-.18a1.22,1.22,0,0,1,.61-.85c.4-.11.69.18,1,.35a9.7,9.7,0,0,1,1,.89,21.34,21.34,0,0,0,1.78,1.35,24.18,24.18,0,0,0,2.18,1.2c.46.25,1,.46,1.42.69.06,0,.14.16.12.21a7,7,0,0,1-.33.94c-.27.55-.57,1.09-.86,1.62a2.76,2.76,0,0,1-.92,1.19c-.08,0-.12.15-.16.23-.18.4-.35.8-.55,1.19a.7.7,0,0,1-.84.39,6.41,6.41,0,0,1-2.29-1.07,18.51,18.51,0,0,1-1.79-1.65Z"/><path class="cls-2" d="M106.47,143.58a1.09,1.09,0,0,1-.38.16v0a.67.67,0,0,1-.17.06c-.24,0-.49.07-.73.12s-.26,0-.31.13-.26.1-.39.11l-.48,0a1.12,1.12,0,0,1-.45-.06,1,1,0,0,0-.6-.14c-.1,0-.21-.09-.32-.12s-.23-.06-.29,0a.6.6,0,0,1-.54.14,1.34,1.34,0,0,0-.4,0,1,1,0,0,1-1-.43c-.65-.72-1.3-1.43-2-2.12s-1.21-1.24-1.83-1.84a4.83,4.83,0,0,0-.76-.59,6.32,6.32,0,0,0-.82-.39c.21-.17.33-.34.5-.39.49-.16,1-.25,1.5-.43a4.4,4.4,0,0,1,1.69-.12,1.82,1.82,0,0,0,1-.05,2.65,2.65,0,0,1,.8-.17c.14,0,.34-.06.43,0a.52.52,0,0,0,.45.06.55.55,0,0,1,.22,0,.84.84,0,0,1,.65.36c.46.56,1,1.08,1.45,1.62.15.18.25.4.41.57.58.64,1.19,1.25,1.75,1.91a12.2,12.2,0,0,1,.8,1.18.31.31,0,0,0-.06.2C106.55,143.37,106.55,143.52,106.47,143.58Z"/><path class="cls-2" d="M151.62,93.22c-.11.36-.22.72-.3,1.09a11.78,11.78,0,0,0-.17,1.17c0,.22,0,.45,0,.67-.06.47-.15.93-.24,1.4s-.18,1-.28,1.5a.31.31,0,0,1-.12.17A1.58,1.58,0,0,1,149.2,99a10.49,10.49,0,0,1-1.29-1.11c-.62-.61-1.2-1.26-1.82-1.88s-1.26-1.2-1.88-1.82a.58.58,0,0,1-.19-.36,3.47,3.47,0,0,1,.28-1.65,8.52,8.52,0,0,0,.26-.86,2.21,2.21,0,0,1,.08-.37c.2-.44.42-.87.63-1.31a.19.19,0,0,0,0-.08,2.52,2.52,0,0,1,.48-1.32,3,3,0,0,1,.37-.49.31.31,0,0,1,.3.06c.12.11.19.28.31.4.69.71,1.37,1.43,2.09,2.1s1.22,1.06,1.84,1.58h0l.71.62A.68.68,0,0,1,151.62,93.22Z"/><path class="cls-2" d="M127.36,108.66c.11-.21.2,0,.29,0a3.76,3.76,0,0,0,.59.39,2.47,2.47,0,0,1,1,.61c.2.21.36.52.6.61.51.18.74.61,1.06,1,.47.53.89,1.09,1.34,1.64a.82.82,0,0,1,.22.91c-.11.23-.21.46-.34.68a.46.46,0,0,0,0,.49.55.55,0,0,1,0,.41,7.23,7.23,0,0,1-.55,1,11.66,11.66,0,0,0-.87,1.25,1.71,1.71,0,0,1-.6.82.26.26,0,0,0-.09.09,1,1,0,0,1-.84.53,5.15,5.15,0,0,1-.32-.41c-.35-.57-.71-1.15-1.05-1.73a29,29,0,0,0-2.41-3c-.48-.59-1-1.17-1.44-1.77a.47.47,0,0,1-.1-.36,8,8,0,0,1,.67-1.13,13.25,13.25,0,0,1,1-1.17c.13-.14.32-.35.46-.33a.49.49,0,0,0,.59-.39c.13-.36.27-.39.59-.18A.49.49,0,0,0,127.36,108.66Z"/><path class="cls-2" d="M124.16,152.64a.44.44,0,0,1-.07-.67,5.94,5.94,0,0,0,.56-.68c.2-.26.36-.54.56-.8.34-.45.7-.87,1-1.32a.49.49,0,0,1,.68-.16,13.12,13.12,0,0,0,1.25.73,7.18,7.18,0,0,1,2.19,1.54,2.83,2.83,0,0,0,.25.24l.88.83a5,5,0,0,0,.43.49c.44.39.9.76,1.36,1.13a.29.29,0,0,1,0,.48.22.22,0,0,0,0,.11l-.05.29a3,3,0,0,1,.07.44c0,.12-.09.23-.09.35,0,.28-.26.4-.4.59a5.11,5.11,0,0,0-.64.85,1.15,1.15,0,0,1-.51.61,1.3,1.3,0,0,1-.67.18,3.43,3.43,0,0,1-.8-.32c-.1-.05-.24-.06-.3-.14-.19-.27-.52-.31-.78-.43a3.67,3.67,0,0,1-1-.68c-.25-.23-.45-.5-.68-.73-.75-.76-1.49-1.51-2.26-2.25A6.64,6.64,0,0,0,124.16,152.64Z"/><path class="cls-2" d="M157.88,130c-.07,0-.19-.22-.26-.35-.38-.66-.76-1.32-1.13-2-.16-.28-.29-.59-.46-.87s-.58-.82-.87-1.24-.5-.73-.77-1.09-.47-.56-.69-.85-.18-.36-.29-.52a.45.45,0,0,1,0-.59,5.56,5.56,0,0,1,.72-.56s.08,0,.1-.07.26-.33.4-.48a3.19,3.19,0,0,1,.43-.4c.26-.18.53-.34.81-.5s.18-.21.08-.36a.53.53,0,0,1,.14-.65c.22-.14.45-.26.67-.39a1.37,1.37,0,0,0,.23-.19c.08-.07.16-.16.25-.23s.32-.23.48-.35.21-.18.32-.25.38-.2.56-.31a.75.75,0,0,1,.91.19c.28.38.59.73.87,1.11a20,20,0,0,1,1.18,1.71c.3.48.5,1,.77,1.52.11.21.24.42.35.62-1,2.1-2.12,4.14-3.3,6.14-.32.24-.64.49-1,.72A1.35,1.35,0,0,1,157.88,130Z"/><path class="cls-2" d="M135.75,139.59a1.19,1.19,0,0,1,.61-.86c.39-.11.69.18,1,.35a8.83,8.83,0,0,1,1,.89c.59.47,1.16,1,1.78,1.36s1.45.81,2.18,1.2c.47.24.95.45,1.42.69a.26.26,0,0,1,.13.21,6.2,6.2,0,0,1-.34.94c-.26.55-.56,1.08-.85,1.62a2.76,2.76,0,0,1-.93,1.18c-.07,0-.11.15-.15.23-.19.4-.35.81-.55,1.2a.69.69,0,0,1-.84.38,6.49,6.49,0,0,1-2.29-1.06,18.62,18.62,0,0,1-1.79-1.66c-.65-.61-1.3-1.24-2-1.86a.75.75,0,0,1-.24-.79c.14-.35.23-.72.34-1.08,0-.05,0-.13,0-.16.43-.42.46-1,.73-1.54a3.17,3.17,0,0,1,.63-1.06A.27.27,0,0,0,135.75,139.59Z"/><path class="cls-2" d="M118.71,161.63c-.6-.62-1.21-1.23-1.84-1.83a4.36,4.36,0,0,0-.76-.6,7.09,7.09,0,0,0-.82-.39,2.37,2.37,0,0,1,.5-.39c.5-.16,1-.25,1.5-.42a4.44,4.44,0,0,1,1.7-.13,1.73,1.73,0,0,0,1-.05,2.84,2.84,0,0,1,.8-.17.69.69,0,0,1,.43,0,.52.52,0,0,0,.45.05l.22,0a.83.83,0,0,1,.65.37c.46.56,1,1.07,1.44,1.62.16.17.26.4.41.57l1.15,1.23c-1.56.83-3.16,1.6-4.77,2.33l-.08-.07C120,163,119.37,162.33,118.71,161.63Z"/><path class="cls-2" d="M166.43,108s.23,0,.3.06.19.29.3.41l.87.86c-.62,2.17-1.31,4.3-2.09,6.38l-1.32-1.26a.65.65,0,0,1-.18-.36,3.47,3.47,0,0,1,.27-1.65,8.7,8.7,0,0,0,.26-.87c0-.12,0-.25.08-.36.21-.44.43-.88.64-1.31a.29.29,0,0,0,0-.09,2.49,2.49,0,0,1,.48-1.31A2.23,2.23,0,0,1,166.43,108Z"/><path class="cls-2" d="M152.43,135.67a7.18,7.18,0,0,1-.56,1,12.76,12.76,0,0,0-.86,1.26,1.7,1.7,0,0,1-.6.81l-.09.09a1,1,0,0,1-.84.53,5.15,5.15,0,0,1-.32-.41c-.36-.57-.71-1.14-1-1.73a27.74,27.74,0,0,0-2.42-3c-.47-.6-1-1.18-1.43-1.78-.08-.09-.15-.27-.1-.36a7.84,7.84,0,0,1,.66-1.12,13.68,13.68,0,0,1,1-1.17c.12-.15.32-.35.46-.34a.5.5,0,0,0,.59-.39c.13-.36.27-.38.58-.17.07,0,.22.09.23.07.1-.21.2-.05.29,0a3.47,3.47,0,0,0,.58.39,2.48,2.48,0,0,1,1,.62c.2.21.35.52.59.6.52.18.75.62,1.07,1,.46.52.89,1.09,1.34,1.63a.84.84,0,0,1,.22.92c-.11.23-.22.46-.34.67a.44.44,0,0,0,0,.49A.57.57,0,0,1,152.43,135.67Z"/><path class="cls-2" d="M88.09,139.85c-.2.26-.37.54-.56.8-.34.44-.7.87-1,1.32a.49.49,0,0,1-.68.16,11.42,11.42,0,0,0-1.26-.73,7.13,7.13,0,0,1-2.18-1.54,2.83,2.83,0,0,0-.25-.24l-.88-.83c-.15-.16-.27-.35-.43-.49-.44-.39-.91-.76-1.36-1.13-.17-.13-.16-.32,0-.49a.15.15,0,0,0,0-.1c0-.12,0-.23.06-.29a3,3,0,0,1-.07-.44c0-.12.08-.23.09-.35,0-.28.26-.4.4-.59a5.49,5.49,0,0,0,.63-.85,1.17,1.17,0,0,1,.52-.61,1.25,1.25,0,0,1,.67-.18,3.82,3.82,0,0,1,.8.32c.1,0,.24.06.3.14.19.27.51.31.78.43a3.81,3.81,0,0,1,1,.68c.24.23.45.5.68.73.75.76,1.49,1.51,2.26,2.24a6.71,6.71,0,0,0,.9.69.44.44,0,0,1,.07.67A5.94,5.94,0,0,0,88.09,139.85Z"/><path class="cls-2" d="M51.77,163.77a.34.34,0,0,1,.08-.44c.1-.12.22-.23.33-.34h0c.16-.13.3-.28.46-.4.55-.42,1.1-.83,1.66-1.23a1.2,1.2,0,0,1,.56-.23c.08,0,.19.22.27.35.38.66.76,1.32,1.13,2,.16.28.28.59.46.87s.58.82.87,1.24.5.73.77,1.09c.13.18.28.35.43.53a83.26,83.26,0,0,1-7.81-3,2,2,0,0,1,.6-.16C51.71,164,51.85,163.93,51.77,163.77Z"/><path class="cls-2" d="M75.4,152.06a9.7,9.7,0,0,1-1.05-.89,19.47,19.47,0,0,0-1.78-1.36c-.69-.45-1.44-.81-2.18-1.2-.46-.24-1-.45-1.42-.69a.27.27,0,0,1-.12-.21,7.46,7.46,0,0,1,.33-.94c.27-.55.57-1.08.86-1.62A2.74,2.74,0,0,1,71,144c.08,0,.12-.15.16-.24.18-.39.35-.8.55-1.19a.68.68,0,0,1,.84-.38,6.39,6.39,0,0,1,2.29,1.06,18.62,18.62,0,0,1,1.79,1.66l2,1.86a.74.74,0,0,1,.23.79c-.13.35-.22.72-.33,1.08,0,0,0,.13,0,.16-.44.42-.46,1-.74,1.54a3,3,0,0,1-.63,1.06.27.27,0,0,0,0,.18,1.21,1.21,0,0,1-.61.86C76,152.52,75.69,152.23,75.4,152.06Z"/><path class="cls-2" d="M67,161.37c-.13.15-.32.35-.46.34-.34,0-.48.1-.59.39s-.27.38-.58.17c-.07,0-.22-.09-.23-.07-.11.2-.2.05-.29,0a3.17,3.17,0,0,0-.59-.39,2.38,2.38,0,0,1-1-.62c-.2-.21-.36-.52-.6-.6-.51-.18-.74-.62-1.06-1-.47-.52-.89-1.09-1.34-1.63a.84.84,0,0,1-.22-.92c.11-.23.21-.46.34-.68a.42.42,0,0,0,0-.48.57.57,0,0,1,0-.42,8.37,8.37,0,0,1,.55-1,12.88,12.88,0,0,0,.87-1.26,1.71,1.71,0,0,1,.6-.82.34.34,0,0,0,.09-.08,1,1,0,0,1,.84-.53,5.15,5.15,0,0,1,.32.41c.35.57.71,1.14,1,1.73a27.74,27.74,0,0,0,2.42,3c.47.6,1,1.18,1.43,1.78.08.09.15.27.1.36a7.9,7.9,0,0,1-.67,1.12A11.94,11.94,0,0,1,67,161.37Z"/><path class="cls-2" d="M67.29,129.45l-.1.11-.11-.22a.42.42,0,0,1,0-.33,14.38,14.38,0,0,1,1.6-2.28,13.84,13.84,0,0,1,1-1.06,4.23,4.23,0,0,1,.33-.41,3.23,3.23,0,0,1,.44-.27.44.44,0,0,1,.65.08c.32.4.66.79,1,1.21.48.68,1,1.38,1.42,2.07s.79,1.14,1.15,1.74c.15.24.39.5.29.83s-.23.57-.35.85l-.06.06c-.25.13-.31.38-.39.62a3,3,0,0,1-.36.72c-.19.26-.44.48-.64.73a.73.73,0,0,1-.5.3.52.52,0,0,0-.5.45,2.41,2.41,0,0,1-.4.76,4.73,4.73,0,0,1-.61.57l0,.07c-.09,0-.22.11-.28.08s-.29-.21-.27-.29v-.05c.09-.11.16-.24,0-.39a2.38,2.38,0,0,1-.31-.33l-.31-.52-.14-.28-.48-.79-.39-.67c-.47-.84-.92-1.7-1.37-2.56A8.34,8.34,0,0,1,67.29,129.45Z"/><path class="cls-2" d="M52.58,154.93q-.81.63-1.65,1.23a1.35,1.35,0,0,1-.57.23c-.07,0-.18-.22-.26-.35-.38-.66-.76-1.32-1.13-2-.16-.29-.29-.59-.46-.87s-.58-.82-.87-1.24-.5-.73-.77-1.09-.47-.56-.68-.85-.19-.36-.3-.53a.44.44,0,0,1,0-.58,5.56,5.56,0,0,1,.72-.56s.08,0,.1-.07.26-.33.4-.49a3.89,3.89,0,0,1,.43-.39c.26-.18.53-.34.81-.5s.18-.21.08-.36a.53.53,0,0,1,.14-.65c.22-.14.45-.26.67-.39a1.37,1.37,0,0,0,.23-.19c.08-.07.16-.16.25-.23s.32-.23.48-.35.21-.18.32-.25.38-.2.56-.31a.74.74,0,0,1,.91.19c.28.38.59.73.87,1.11.41.56.83,1.11,1.18,1.7s.5,1,.77,1.53c.43.79.89,1.57,1.34,2.35a.27.27,0,0,1,0,.34,4.69,4.69,0,0,1-.53.47.29.29,0,0,0-.15.42.35.35,0,0,1,0,.3,3.31,3.31,0,0,1-.61.45,3,3,0,0,1-1.16.45c-.14,0-.29.12-.2.28s0,.31-.08.44-.22.22-.33.34h0A4.49,4.49,0,0,1,52.58,154.93Z"/><path class="cls-2" d="M57,140.81a.65.65,0,0,1-.18-.36,3.51,3.51,0,0,1,.27-1.66,7.8,7.8,0,0,0,.26-.86c0-.12,0-.25.08-.36.21-.44.43-.88.64-1.31a.29.29,0,0,0,0-.09,2.49,2.49,0,0,1,.48-1.31,2,2,0,0,1,.37-.5c.05,0,.23,0,.3.06s.19.29.3.41c.69.7,1.38,1.42,2.09,2.09s1.23,1.06,1.84,1.58h0l.7.63a.66.66,0,0,1,.24.74c-.1.36-.21.72-.29,1.08a11.56,11.56,0,0,0-.17,1.18c0,.22,0,.45,0,.67-.06.46-.14.93-.23,1.39s-.19,1-.29,1.5c0,.06-.06.16-.11.17a1.58,1.58,0,0,1-1.32-.26,11.34,11.34,0,0,1-1.29-1.1c-.63-.61-1.2-1.27-1.82-1.89S57.6,141.42,57,140.81Z"/><path class="cls-2" d="M38.73,155.8a.5.5,0,0,0,.59-.39c.13-.36.27-.39.58-.17a.61.61,0,0,0,.23.07c.1-.21.2-.05.29,0a3.47,3.47,0,0,0,.58.39,2.48,2.48,0,0,1,1,.62c.2.2.35.51.59.6.52.18.75.62,1.07,1,.46.52.89,1.09,1.34,1.63a.83.83,0,0,1,.22.91c-.11.23-.22.47-.34.68a.49.49,0,0,0,0,.11c-2.47-1.34-4.88-2.78-7.2-4.34.21-.26.41-.52.63-.76S38.59,155.79,38.73,155.8Z"/><path class="cls-2" d="M108.37,160.14c-.19.26-.36.54-.56.79-.33.45-.69.88-1,1.32a.5.5,0,0,1-.69.16,12,12,0,0,0-1.25-.73,7,7,0,0,1-2.18-1.54l-.25-.24c-.3-.27-.6-.55-.88-.83s-.27-.35-.43-.49c-.45-.39-.91-.75-1.37-1.12a.31.31,0,0,1,0-.49.22.22,0,0,0,0-.11c0-.11,0-.23,0-.28a3,3,0,0,1-.06-.45c0-.11.08-.23.09-.34,0-.29.25-.41.39-.6a4.31,4.31,0,0,0,.64-.85,1.16,1.16,0,0,1,.52-.61,1.24,1.24,0,0,1,.66-.18,3.29,3.29,0,0,1,.81.33c.1,0,.24.06.29.13a1.59,1.59,0,0,0,.78.43,3.75,3.75,0,0,1,1,.69c.24.22.44.49.68.73.74.75,1.49,1.51,2.25,2.24a6.16,6.16,0,0,0,.91.68.44.44,0,0,1,.06.67A6.25,6.25,0,0,0,108.37,160.14Z"/><path class="cls-2" d="M92.86,170.1c-.7-.45-1.44-.82-2.18-1.21-.46-.24-1-.45-1.42-.68-.06,0-.14-.16-.12-.21a5.34,5.34,0,0,1,.33-.95c.27-.54.57-1.08.86-1.61a2.69,2.69,0,0,1,.92-1.19c.07,0,.11-.15.15-.23.19-.4.36-.8.56-1.19a.7.7,0,0,1,.84-.39,6.37,6.37,0,0,1,2.28,1.07,17.41,17.41,0,0,1,1.79,1.65L98.82,167a.73.73,0,0,1,.24.79c-.13.35-.23.72-.34,1.08,0,.06,0,.13,0,.16a4.45,4.45,0,0,0-.69,1.46c-1.3.19-2.6.36-3.91.49A14.71,14.71,0,0,0,92.86,170.1Z"/><path class="cls-2" d="M90.59,155.35l-.3-.51a2.44,2.44,0,0,0-.14-.28c-.16-.27-.32-.53-.49-.79l-.38-.67c-.47-.85-.93-1.71-1.38-2.57a7.22,7.22,0,0,1-.32-.79.57.57,0,0,0-.11.11,2.4,2.4,0,0,0-.11-.23.4.4,0,0,1,0-.32A12.82,12.82,0,0,1,89,147,13.84,13.84,0,0,1,90,146a4.47,4.47,0,0,1,.34-.4,4,4,0,0,1,.43-.28.44.44,0,0,1,.65.08c.33.4.66.8,1,1.22.49.68,1,1.37,1.42,2.06s.8,1.14,1.15,1.74c.15.25.4.5.29.83a8.93,8.93,0,0,1-.35.85.1.1,0,0,1,0,.06,1,1,0,0,0-.4.63,2.56,2.56,0,0,1-.36.72,8.67,8.67,0,0,1-.64.72.69.69,0,0,1-.49.3.56.56,0,0,0-.51.45,2.27,2.27,0,0,1-.4.77,4.64,4.64,0,0,1-.6.57l0,.06c-.1,0-.22.11-.28.08s-.3-.21-.28-.28,0,0,0,0a.27.27,0,0,0,0-.4A2,2,0,0,1,90.59,155.35Z"/><path class="cls-2" d="M66.94,168.61a.36.36,0,0,0,.1-.07c.14-.16.26-.33.4-.48a2.72,2.72,0,0,1,.43-.4c.26-.18.53-.34.8-.49s.18-.21.09-.37a.54.54,0,0,1,.14-.65c.22-.13.45-.25.67-.39a1.92,1.92,0,0,0,.22-.18c.09-.08.16-.17.25-.24l.49-.34a3.92,3.92,0,0,1,.32-.25c.18-.12.38-.2.56-.31a.74.74,0,0,1,.91.19c.28.37.59.72.87,1.1.41.56.82,1.12,1.18,1.71s.49,1,.77,1.53c.36.66.74,1.31,1.12,2a86,86,0,0,1-10.09-1.7l0-.07A8.11,8.11,0,0,1,66.94,168.61Z"/><path class="cls-2" d="M84.21,163.09c-.06.47-.15.93-.23,1.39s-.19,1-.29,1.5c0,.07-.06.16-.11.17a1.57,1.57,0,0,1-1.33-.26,11,11,0,0,1-1.29-1.1c-.62-.61-1.2-1.27-1.81-1.88s-1.27-1.21-1.89-1.82a.62.62,0,0,1-.18-.36,3.47,3.47,0,0,1,.27-1.65,8.52,8.52,0,0,0,.26-.86,2.21,2.21,0,0,1,.08-.37c.2-.44.42-.87.64-1.31a.25.25,0,0,0,0-.08,2.61,2.61,0,0,1,.48-1.32,2.29,2.29,0,0,1,.38-.49c0-.05.23,0,.29,0s.19.29.31.41c.69.71,1.37,1.42,2.09,2.1s1.23,1,1.84,1.58h0l.71.62a.68.68,0,0,1,.24.74c-.1.36-.22.72-.29,1.09a11.37,11.37,0,0,0-.17,1.17C84.18,162.64,84.24,162.87,84.21,163.09Z"/><path class="cls-2" d="M106.8,167.9l-.1.11-.11-.22a.47.47,0,0,1,0-.33,13.41,13.41,0,0,1,1.61-2.28,13.7,13.7,0,0,1,1-1.06,3.53,3.53,0,0,1,.34-.41,3.12,3.12,0,0,1,.43-.27.43.43,0,0,1,.65.07c.32.41.66.8,1,1.22.49.68,1,1.37,1.42,2.06a.56.56,0,0,0,0,.08c-1.94.66-3.91,1.27-5.91,1.79C107,168.43,106.91,168.17,106.8,167.9Z"/><path class="cls-2" d="M53.75,87.29c.32.36.56.79.85,1.18s.42.51.65.76c.41.44.85.86,1.25,1.3.13.14,0,.29-.1.39s-.52.45-.8.66l-1.12.79a1.76,1.76,0,0,0-.23.14c-.21.18-.39.22-.58,0s-.25-.11-.37,0-.31.35-.5.5a13.08,13.08,0,0,1-1.12.84c-.43.28-.48.26-.88-.06-.63-.49-1.28-1-1.89-1.48s-.89-.82-1.34-1.24l0,0-2.41-2.29a.59.59,0,0,1,0-.83c.17-.15.3-.39.59-.37.19-.36.64-.28.92-.57a9.08,9.08,0,0,1,1.35-1l.5-.32h3.22l.79.61A11.81,11.81,0,0,1,53.75,87.29Z"/><path class="cls-2" d="M74,112.78c-.13-.16-.26-.12-.38,0a5.9,5.9,0,0,1-.49.51,13,13,0,0,1-1.12.83c-.44.28-.48.26-.89-.06-.63-.49-1.27-1-1.88-1.48s-.9-.82-1.34-1.23l0,0L65.5,109a.59.59,0,0,1,0-.83c.18-.16.3-.4.59-.37.2-.37.65-.29.92-.57a9,9,0,0,1,1.36-1c.42-.28.84-.56,1.28-.82s.67-.35,1-.51a.17.17,0,0,1,.15,0c.69.53,1.39,1,2.07,1.59a9.21,9.21,0,0,1,1.19,1,14.07,14.07,0,0,1,.86,1.17,9.51,9.51,0,0,0,.64.76c.42.44.85.86,1.26,1.3.13.14,0,.29-.1.4s-.53.45-.8.65-.75.53-1.12.8a1.88,1.88,0,0,0-.24.14C74.33,113,74.14,113,74,112.78Z"/><path class="cls-2" d="M81.49,95.14c.1.17.2.34.31.51a2.39,2.39,0,0,0,.13.28c.16.27.32.53.49.79l.38.67c.48.85.93,1.71,1.38,2.57.13.24.21.51.33.79a.52.52,0,0,0,.1-.11l.11.23a.45.45,0,0,1,0,.32,13.41,13.41,0,0,1-1.61,2.28,13.84,13.84,0,0,1-1,1.07,4.47,4.47,0,0,1-.34.4,3.18,3.18,0,0,1-.43.28.44.44,0,0,1-.65-.08c-.33-.4-.66-.8-1-1.22-.49-.68-1-1.37-1.42-2.06s-.79-1.15-1.15-1.74c-.15-.25-.39-.5-.29-.83a8.93,8.93,0,0,1,.35-.85.09.09,0,0,1,.06-.06,1,1,0,0,0,.39-.63,3.23,3.23,0,0,1,.36-.72c.19-.26.43-.48.64-.72a.69.69,0,0,1,.49-.3.54.54,0,0,0,.51-.45,2.27,2.27,0,0,1,.4-.77,4.15,4.15,0,0,1,.61-.57l0-.06c.09,0,.21-.12.27-.08s.3.21.28.28,0,0,0,0-.17.25,0,.4A2.42,2.42,0,0,1,81.49,95.14Z"/><path class="cls-2" d="M102.12,86.46c-.22.13-.45.25-.67.39a1.92,1.92,0,0,0-.22.18,2.61,2.61,0,0,1-.25.23c-.16.13-.33.24-.49.35a3.92,3.92,0,0,1-.32.25c-.18.12-.37.2-.56.31a.73.73,0,0,1-.9-.19c-.28-.37-.6-.72-.88-1.1s-.59-.82-.87-1.24h5.26a.32.32,0,0,0,0,.17A.53.53,0,0,1,102.12,86.46Z"/><path class="cls-2" d="M92.94,87.58c.61.62,1.26,1.21,1.88,1.82a.63.63,0,0,1,.19.36,3.6,3.6,0,0,1-.28,1.65,8.52,8.52,0,0,0-.26.86,2.21,2.21,0,0,1-.08.37c-.2.44-.42.87-.63,1.31a.13.13,0,0,0,0,.08,2.61,2.61,0,0,1-.48,1.32,2.29,2.29,0,0,1-.38.49s-.23,0-.29,0-.19-.29-.31-.41c-.69-.71-1.37-1.42-2.09-2.1s-1.22-1-1.84-1.58h0l-.71-.62a.68.68,0,0,1-.24-.74c.11-.36.22-.72.3-1.09a11.37,11.37,0,0,0,.17-1.17c0-.22,0-.45,0-.67.06-.47.15-.93.23-1.39,0-.13.05-.25.07-.37h2.89l.06.06C91.74,86.31,92.32,87,92.94,87.58Z"/><path class="cls-2" d="M72,93.47c0,.28-.26.4-.4.59a5.56,5.56,0,0,0-.64.85,1.11,1.11,0,0,1-.51.61,1.28,1.28,0,0,1-.67.18,3.61,3.61,0,0,1-.8-.32c-.1,0-.24-.06-.3-.14-.19-.27-.52-.31-.78-.43a3.67,3.67,0,0,1-1-.68c-.24-.23-.45-.5-.68-.73-.75-.76-1.49-1.51-2.26-2.24a6.71,6.71,0,0,0-.9-.69A.44.44,0,0,1,63,89.8a5.94,5.94,0,0,0,.56-.68c.2-.26.37-.54.56-.8.34-.44.7-.87,1-1.32a.49.49,0,0,1,.68-.16c.42.25.82.53,1.25.73a7.06,7.06,0,0,1,2.19,1.54,2.83,2.83,0,0,0,.25.24l.88.83a5,5,0,0,0,.43.49c.44.39.91.76,1.36,1.13.17.13.16.32,0,.49a.23.23,0,0,0,0,.1l0,.29a3,3,0,0,1,.07.44C72.1,93.24,72,93.35,72,93.47Z"/><path class="cls-2" d="M80.83,86.24c-.07,0-.11.15-.15.23-.19.4-.35.8-.55,1.19a.71.71,0,0,1-.84.39A6.34,6.34,0,0,1,77,87a11.62,11.62,0,0,1-1.47-1.34h5.89A1.78,1.78,0,0,1,80.83,86.24Z"/><path class="cls-2" d="M55.93,98.86a4.83,4.83,0,0,0-.76-.59,5.75,5.75,0,0,0-.82-.39c.21-.17.34-.34.5-.39.5-.16,1-.25,1.5-.43A4.4,4.4,0,0,1,58,96.94a1.72,1.72,0,0,0,1,0,2.65,2.65,0,0,1,.8-.17.65.65,0,0,1,.44,0,.52.52,0,0,0,.45.06.78.78,0,0,1,.22,0,.82.82,0,0,1,.64.36c.46.56,1,1.08,1.45,1.63.16.17.26.39.41.56.58.64,1.19,1.25,1.75,1.91a12.29,12.29,0,0,1,.81,1.18.35.35,0,0,0-.07.2c0,.11,0,.26-.1.32a1.14,1.14,0,0,1-.39.16s0,0,0,0a.59.59,0,0,1-.16.06c-.24.05-.49.07-.73.12s-.27,0-.32.13-.26.1-.39.11a3.87,3.87,0,0,1-.48,0,1,1,0,0,1-.44-.06.93.93,0,0,0-.61-.13c-.09,0-.2-.1-.31-.13s-.24-.06-.29,0a.62.62,0,0,1-.55.14,1.28,1.28,0,0,0-.39,0,1,1,0,0,1-1-.43c-.65-.72-1.3-1.43-2-2.12S56.55,99.46,55.93,98.86Z"/><path class="cls-2" d="M17.83,86.59c-.13.35-.23.72-.34,1.08,0,.06,0,.13,0,.17-.43.42-.45,1-.73,1.53a3.12,3.12,0,0,1-.63,1.07s0,.12,0,.18a1.22,1.22,0,0,1-.61.85c-.4.11-.69-.18-1-.35a9.6,9.6,0,0,1-1.05-.88,19.47,19.47,0,0,0-1.78-1.36,24.18,24.18,0,0,0-2.18-1.2C9,87.43,8.5,87.23,8,87c-.06,0-.14-.16-.12-.21a5.8,5.8,0,0,1,.33-.94c0-.07.07-.13.1-.2h9.09c.05.06.11.11.16.16A.74.74,0,0,1,17.83,86.59Z"/><path class="cls-2" d="M.78,92.31a1.8,1.8,0,0,1,.61-.82.34.34,0,0,0,.09-.08,1,1,0,0,1,.84-.53,3.74,3.74,0,0,1,.32.4c.35.58.71,1.15,1,1.73A26.82,26.82,0,0,0,6.1,96c.48.59,1,1.17,1.44,1.77.07.1.14.28.1.36A8,8,0,0,1,7,99.27a13.25,13.25,0,0,1-1,1.17c-.13.14-.32.35-.46.33a.49.49,0,0,0-.59.39c-.13.36-.27.39-.59.18a.49.49,0,0,0-.22-.08c-.11.21-.21,0-.29,0a3.23,3.23,0,0,0-.59-.4,2.36,2.36,0,0,1-1-.61c-.2-.21-.36-.52-.6-.6-.51-.19-.74-.62-1.06-1h0C.35,96.94.16,95.2,0,93.46A8.32,8.32,0,0,0,.78,92.31Z"/><path class="cls-2" d="M45.16,101.48a12,12,0,0,0-1.25-.73,7.13,7.13,0,0,1-2.18-1.54c-.08-.09-.17-.16-.25-.24-.3-.28-.6-.55-.88-.83s-.27-.35-.43-.49c-.45-.39-.91-.76-1.37-1.13a.3.3,0,0,1,0-.48.22.22,0,0,0,0-.11l.05-.29a2,2,0,0,1-.06-.44c0-.12.08-.23.08-.35,0-.28.26-.4.4-.59a5.56,5.56,0,0,0,.64-.85,1.15,1.15,0,0,1,.51-.61,1.3,1.3,0,0,1,.67-.18,3.69,3.69,0,0,1,.81.32c.1,0,.24.06.29.14.2.27.52.31.78.43a3.87,3.87,0,0,1,1.05.68c.24.23.44.5.67.73.75.76,1.5,1.51,2.26,2.25a7,7,0,0,0,.91.68.44.44,0,0,1,.06.67,7.22,7.22,0,0,0-.56.68c-.19.26-.36.54-.56.8-.33.44-.69.87-1,1.32A.5.5,0,0,1,45.16,101.48Z"/><path class="cls-2" d="M9.15,124.3a2.94,2.94,0,0,1,.6-.45,3,3,0,0,1,1.16-.45c.15,0,.29-.12.2-.28s0-.32.09-.44a3.51,3.51,0,0,1,.33-.34h0a5.87,5.87,0,0,1,.46-.41c.55-.42,1.1-.83,1.66-1.23a1.26,1.26,0,0,1,.56-.23c.08,0,.19.22.26.35.38.66.76,1.32,1.13,2,.16.28.29.59.47.87s.58.82.87,1.24.5.73.76,1.09.47.56.69.85.18.36.29.52a.45.45,0,0,1,0,.59,5.56,5.56,0,0,1-.72.56s-.08,0-.1.07-.26.33-.4.48a2.32,2.32,0,0,1-.43.4c-.26.18-.53.34-.8.5a.22.22,0,0,0-.09.36A.53.53,0,0,1,16,131c-.22.14-.45.26-.67.39a1.3,1.3,0,0,0-.22.19c-.09.07-.16.16-.25.23l-.49.35a3.92,3.92,0,0,1-.32.25l-.36.2a87,87,0,0,1-4.53-7.77.32.32,0,0,0,0-.23A.35.35,0,0,1,9.15,124.3Z"/><path class="cls-2" d="M38.12,106.88c-.14.35-.23.72-.34,1.08,0,.05,0,.13,0,.16-.43.42-.46,1-.73,1.54a3.17,3.17,0,0,1-.63,1.06s0,.12-.05.18a1.2,1.2,0,0,1-.6.86c-.4.11-.7-.18-1-.35a9.7,9.7,0,0,1-1-.89,21,21,0,0,0-1.78-1.36c-.7-.45-1.45-.81-2.18-1.2-.47-.24-.95-.45-1.42-.69-.06,0-.14-.15-.12-.21a5.24,5.24,0,0,1,.33-.94c.26-.55.56-1.08.86-1.62a2.66,2.66,0,0,1,.92-1.18c.07,0,.11-.15.15-.23.19-.4.36-.81.55-1.2a.69.69,0,0,1,.84-.38,6.49,6.49,0,0,1,2.29,1.06,17.51,17.51,0,0,1,1.79,1.66c.65.61,1.3,1.24,2,1.86A.73.73,0,0,1,38.12,106.88Z"/><path class="cls-2" d="M24.66,121.62c-.07,0-.22-.09-.23-.07-.1.2-.2,0-.29,0a3.1,3.1,0,0,0-.58-.39,2.48,2.48,0,0,1-1-.62c-.19-.21-.35-.52-.59-.6-.51-.18-.75-.62-1.06-1-.47-.52-.9-1.09-1.34-1.63a.8.8,0,0,1-.22-.92,5.26,5.26,0,0,1,.34-.67.48.48,0,0,0,0-.49.53.53,0,0,1-.06-.42,7.18,7.18,0,0,1,.56-1,11.24,11.24,0,0,0,.86-1.26,1.8,1.8,0,0,1,.61-.82.2.2,0,0,0,.08-.08,1,1,0,0,1,.85-.53,4.92,4.92,0,0,1,.31.41c.36.57.72,1.14,1.06,1.73a26.49,26.49,0,0,0,2.41,3c.47.6,1,1.18,1.44,1.78a.46.46,0,0,1,.1.36,9,9,0,0,1-.67,1.12c-.3.41-.63.8-1,1.17-.13.15-.32.35-.47.34a.48.48,0,0,0-.58.39C25.11,121.81,25,121.83,24.66,121.62Z"/><path class="cls-2" d="M32.81,87.7c.39.57.8,1.14,1.15,1.74.15.24.39.5.29.83a8.93,8.93,0,0,1-.35.85.15.15,0,0,1,0,.06c-.25.13-.31.38-.4.62a2.7,2.7,0,0,1-.36.72c-.19.26-.43.48-.64.73a.69.69,0,0,1-.49.3.53.53,0,0,0-.51.45,2.36,2.36,0,0,1-.4.77,4.1,4.1,0,0,1-.61.56l0,.07c-.1,0-.22.11-.28.08s-.3-.21-.28-.29,0,0,0,0,.17-.24,0-.39a3.19,3.19,0,0,1-.31-.33l-.3-.52c-.05-.09-.09-.19-.14-.28-.16-.26-.32-.52-.49-.78l-.38-.67c-.48-.85-.93-1.71-1.38-2.57-.13-.25-.21-.52-.33-.8l-.1.11-.11-.22a.4.4,0,0,1,0-.32,12.89,12.89,0,0,1,1.6-2.29,5.2,5.2,0,0,1,.38-.44h3C31.88,86.32,32.34,87,32.81,87.7Z"/><path class="cls-2" d="M11.93,114.28c-.55.42-1.1.83-1.66,1.23a1.31,1.31,0,0,1-.56.23c-.08,0-.19-.22-.26-.35-.39-.66-.76-1.32-1.13-2-.17-.29-.29-.59-.47-.87s-.58-.82-.87-1.24-.5-.73-.76-1.09-.47-.56-.69-.85-.18-.36-.3-.52a.44.44,0,0,1,0-.59,5.56,5.56,0,0,1,.72-.56l.1-.07c.13-.16.26-.33.4-.49a2.66,2.66,0,0,1,.43-.39c.26-.18.53-.34.8-.5s.18-.21.08-.36a.54.54,0,0,1,.15-.65c.22-.14.45-.26.67-.39a1.3,1.3,0,0,0,.22-.19c.09-.07.16-.16.25-.23l.49-.35a3.92,3.92,0,0,1,.32-.25c.18-.11.37-.2.56-.31a.73.73,0,0,1,.9.19c.28.38.6.73.88,1.11.4.56.82,1.11,1.18,1.71s.49,1,.77,1.52c.43.79.88,1.57,1.33,2.35a.25.25,0,0,1,0,.34,4.6,4.6,0,0,1-.52.47c-.18.12-.23.22-.15.42a.35.35,0,0,1-.06.3,2.94,2.94,0,0,1-.6.45,3.12,3.12,0,0,1-1.16.45c-.15,0-.29.12-.2.28s0,.31-.09.44-.22.22-.33.34h0A5.87,5.87,0,0,1,11.93,114.28Z"/><path class="cls-2" d="M16.32,100.16a.74.74,0,0,1-.19-.36,3.64,3.64,0,0,1,.28-1.66,7.8,7.8,0,0,0,.26-.86,2.09,2.09,0,0,1,.08-.36c.2-.44.42-.88.63-1.31a.15.15,0,0,0,0-.09,2.58,2.58,0,0,1,.48-1.31,2.36,2.36,0,0,1,.38-.5s.23,0,.29.06.19.29.31.41c.69.7,1.37,1.42,2.09,2.1s1.22,1,1.84,1.57h0l.71.63a.68.68,0,0,1,.24.74c-.1.36-.22.72-.3,1.08s-.13.78-.17,1.18c0,.22,0,.45,0,.67-.06.46-.15.93-.23,1.39s-.19,1-.29,1.5c0,.06-.07.16-.12.17a1.58,1.58,0,0,1-1.32-.26,11.34,11.34,0,0,1-1.29-1.1c-.62-.61-1.2-1.27-1.82-1.89S16.94,100.77,16.32,100.16Z"/><path class="cls-2" d="M67.72,119.49c-.2.26-.37.54-.56.79-.34.45-.7.88-1,1.33a.5.5,0,0,1-.68.15c-.42-.25-.82-.53-1.25-.73A7,7,0,0,1,62,119.49l-.25-.24-.88-.83c-.15-.15-.26-.35-.43-.49-.44-.39-.91-.75-1.36-1.12a.3.3,0,0,1,0-.49s0-.07,0-.11l.05-.28a3.13,3.13,0,0,1-.07-.45c0-.11.09-.23.09-.34,0-.29.26-.41.4-.6a4.73,4.73,0,0,0,.64-.85,1.19,1.19,0,0,1,.51-.61,1.3,1.3,0,0,1,.67-.18,3.07,3.07,0,0,1,.8.33c.1,0,.24.06.3.13.19.27.52.32.78.43a3.7,3.7,0,0,1,1,.69c.25.22.45.49.68.73.75.75,1.49,1.51,2.26,2.24a6.64,6.64,0,0,0,.9.68.44.44,0,0,1,.07.67A5.28,5.28,0,0,0,67.72,119.49Z"/><path class="cls-2" d="M36.24,151.28l-.68.38a2,2,0,0,0-.22.19,2.73,2.73,0,0,1-.25.23l-.48.35c-.11.08-.21.18-.32.25s-.38.2-.56.31a.74.74,0,0,1-.91-.19c-.28-.37-.59-.73-.87-1.1-.41-.56-.83-1.12-1.18-1.71s-.5-1-.77-1.53c-.43-.79-.89-1.57-1.34-2.35a.26.26,0,0,1,0-.33,3.88,3.88,0,0,1,.53-.47.31.31,0,0,0,.15-.43.35.35,0,0,1,.05-.3,3.31,3.31,0,0,1,.61-.45,3.16,3.16,0,0,1,1.16-.45c.14,0,.29-.11.2-.27s0-.32.08-.45.22-.22.33-.33h0a4.49,4.49,0,0,1,.46-.41c.54-.41,1.09-.83,1.65-1.23a1.22,1.22,0,0,1,.56-.22c.08,0,.19.21.27.34.38.66.76,1.32,1.13,2,.16.29.28.6.46.87.28.43.58.83.87,1.24s.5.73.77,1.09.47.56.68.85.19.36.3.53a.44.44,0,0,1,0,.58,5.93,5.93,0,0,1-.73.57s-.07,0-.09.06-.26.34-.4.49a3.89,3.89,0,0,1-.43.39c-.26.18-.53.34-.81.5s-.18.21-.08.37A.54.54,0,0,1,36.24,151.28Z"/><path class="cls-2" d="M56.62,131.19A1.19,1.19,0,0,1,56,132c-.4.11-.69-.18-1-.35a9.61,9.61,0,0,1-1-.89c-.59-.46-1.16-1-1.78-1.35s-1.45-.82-2.18-1.21c-.47-.24-1-.45-1.43-.68a.29.29,0,0,1-.12-.21,7.61,7.61,0,0,1,.33-.95c.27-.54.57-1.08.86-1.61a2.79,2.79,0,0,1,.93-1.19c.07,0,.11-.15.15-.23.18-.4.35-.8.55-1.19a.7.7,0,0,1,.84-.39,6.34,6.34,0,0,1,2.29,1.07,18.51,18.51,0,0,1,1.79,1.65l2,1.86a.75.75,0,0,1,.24.79c-.14.35-.23.72-.34,1.08,0,.06,0,.13,0,.16-.43.43-.46,1-.73,1.54a3.15,3.15,0,0,1-.64,1.07A.32.32,0,0,0,56.62,131.19Z"/><path class="cls-2" d="M45.53,141.73c-.13.36-.27.39-.58.18a.51.51,0,0,0-.23-.08c-.1.21-.2,0-.29,0a3.47,3.47,0,0,0-.58-.39,2.57,2.57,0,0,1-1-.61c-.2-.21-.35-.52-.59-.61-.52-.18-.75-.62-1.07-1-.46-.53-.89-1.09-1.34-1.64a.82.82,0,0,1-.22-.91c.11-.23.21-.46.34-.68a.44.44,0,0,0,0-.49.55.55,0,0,1-.05-.41,7.3,7.3,0,0,1,.56-1,10.77,10.77,0,0,0,.86-1.26,1.8,1.8,0,0,1,.6-.81.2.2,0,0,0,.09-.09,1,1,0,0,1,.84-.53,5.15,5.15,0,0,1,.32.41c.36.57.71,1.15,1,1.73a27.85,27.85,0,0,0,2.42,3c.47.59,1,1.17,1.43,1.77.08.09.15.28.1.36a7.94,7.94,0,0,1-.66,1.13c-.3.41-.63.79-1,1.17-.12.14-.32.35-.46.33A.5.5,0,0,0,45.53,141.73Z"/><path class="cls-2" d="M49.94,114.7l-.31-.51a1.47,1.47,0,0,0-.14-.28c-.15-.27-.32-.53-.48-.79l-.39-.67c-.47-.85-.92-1.71-1.37-2.57a7.21,7.21,0,0,1-.33-.79.52.52,0,0,0-.1.11,2.4,2.4,0,0,1-.11-.23.4.4,0,0,1,0-.32,13.41,13.41,0,0,1,1.61-2.28,13.84,13.84,0,0,1,1-1.07,3.19,3.19,0,0,1,.33-.4,4.08,4.08,0,0,1,.44-.28.44.44,0,0,1,.65.08c.32.4.66.8,1,1.22.48.68,1,1.37,1.42,2.06s.79,1.15,1.15,1.74c.15.25.39.5.29.83a8.93,8.93,0,0,1-.35.85.12.12,0,0,1-.06.06.94.94,0,0,0-.39.63,3.23,3.23,0,0,1-.36.72c-.19.26-.44.48-.64.72a.73.73,0,0,1-.49.3.54.54,0,0,0-.51.45,2.46,2.46,0,0,1-.4.77,4.73,4.73,0,0,1-.61.57l0,.06c-.09,0-.22.12-.28.08s-.29-.21-.27-.28v0c.09-.11.17-.25,0-.4A1.93,1.93,0,0,1,49.94,114.7Z"/><path class="cls-2" d="M28.14,132.81c-.28-.42-.58-.82-.87-1.23s-.5-.74-.77-1.09-.47-.56-.68-.86-.19-.36-.3-.52a.45.45,0,0,1,0-.59,7,7,0,0,1,.73-.56l.1-.07a6,6,0,0,1,.4-.48,2.72,2.72,0,0,1,.43-.4,8.15,8.15,0,0,1,.8-.49c.17-.1.18-.21.08-.37a.54.54,0,0,1,.14-.65c.23-.13.46-.25.68-.39a1.92,1.92,0,0,0,.22-.18,1.79,1.79,0,0,1,.25-.23,5.48,5.48,0,0,1,.49-.35,3.76,3.76,0,0,1,.31-.25c.18-.12.38-.2.56-.31a.74.74,0,0,1,.91.19c.28.37.6.72.87,1.1.41.56.83,1.12,1.19,1.71s.49,1,.76,1.53c.43.79.89,1.57,1.34,2.35a.24.24,0,0,1,0,.33,3.37,3.37,0,0,1-.53.47.31.31,0,0,0-.15.43.3.3,0,0,1-.05.29,3.9,3.9,0,0,1-.61.46,3.16,3.16,0,0,1-1.16.45c-.14,0-.28.11-.2.27s0,.32-.08.45-.22.22-.33.33h0c-.16.13-.3.28-.47.41-.54.41-1.09.83-1.65,1.22A1.24,1.24,0,0,1,30,136c-.08,0-.19-.21-.27-.34l-1.13-2C28.44,133.4,28.32,133.09,28.14,132.81Z"/><path class="cls-2" d="M36.61,120.44a.58.58,0,0,1-.19-.36,3.47,3.47,0,0,1,.28-1.65c.11-.28.17-.57.26-.86a1.53,1.53,0,0,1,.08-.37c.2-.44.42-.87.63-1.31a.31.31,0,0,0,0-.08,2.52,2.52,0,0,1,.48-1.32,2.25,2.25,0,0,1,.37-.49c.05,0,.23,0,.3,0s.19.29.31.41c.69.71,1.37,1.42,2.09,2.1s1.22,1,1.84,1.58h0l.71.62a.7.7,0,0,1,.24.74c-.11.36-.22.72-.3,1.09a11.37,11.37,0,0,0-.17,1.17c0,.22,0,.45,0,.67-.06.47-.15.93-.24,1.39s-.18,1-.29,1.5c0,.07-.06.16-.11.17a1.57,1.57,0,0,1-1.32-.25,10.49,10.49,0,0,1-1.29-1.11c-.62-.61-1.2-1.27-1.82-1.88S37.23,121.05,36.61,120.44Z"/><path class="cls-2" d="M17.9,135.77c.13-.14.32-.35.46-.33a.5.5,0,0,0,.59-.39c.13-.36.27-.39.58-.18a.51.51,0,0,0,.23.08c.11-.21.2-.06.29,0a3,3,0,0,0,.58.39,2.52,2.52,0,0,1,1,.62c.2.21.36.52.59.6.52.19.75.62,1.07,1,.46.53.89,1.09,1.34,1.63a.84.84,0,0,1,.22.92c-.11.23-.21.46-.34.68a.42.42,0,0,0,0,.48.57.57,0,0,1,.05.42,8.5,8.5,0,0,1-.55,1,11.66,11.66,0,0,0-.87,1.25,2.6,2.6,0,0,1-.23.44,86.84,86.84,0,0,1-6.08-7.19c.05-.07.08-.15.13-.21A13.25,13.25,0,0,1,17.9,135.77Z"/></svg>