<?xml version="1.0" encoding="utf-8"?>
<!-- Generator: Adobe Illustrator 22.1.0, SVG Export Plug-In . SVG Version: 6.00 Build 0)  -->
<svg version="1.1" id="Layer_1" xmlns="http://www.w3.org/2000/svg" xmlns:xlink="http://www.w3.org/1999/xlink" x="0px" y="0px"
	 viewBox="0 0 171 171" style="enable-background:new 0 0 171 171;" xml:space="preserve">
<style type="text/css">
	.st0{fill:#2E5B66;}
</style>
<title>Artboard 23 copy 4</title>
<path class="st0" d="M85.5,38.7c15.2,0,17,0.1,23,0.3c3.6,0,7.2,0.7,10.6,2c5,1.9,8.9,5.9,10.8,10.8c1.3,3.4,1.9,7,2,10.6
	c0.3,6,0.3,7.8,0.3,23s-0.1,17-0.3,23c0,3.6-0.7,7.2-2,10.6c-1.9,5-5.9,8.9-10.8,10.8c-3.4,1.3-7,1.9-10.6,2c-6,0.3-7.8,0.3-23,0.3
	s-17.1-0.1-23-0.3c-3.6,0-7.2-0.7-10.6-2c-5-1.9-8.9-5.9-10.8-10.8c-1.3-3.4-1.9-7-2-10.6c-0.3-6-0.3-7.8-0.3-23s0.1-17,0.3-23
	c0-3.6,0.7-7.2,2-10.6c1.9-5,5.9-8.9,10.8-10.8c3.4-1.3,7-1.9,10.6-2C68.5,38.7,70.3,38.7,85.5,38.7 M85.5,28.4
	c-15.5,0-17.5,0.1-23.5,0.3c-4.7,0.1-9.4,1-13.9,2.7c-7.7,3-13.7,9-16.7,16.7c-1.7,4.4-2.6,9.1-2.7,13.9c-0.3,6.1-0.3,8-0.3,23.5
	s0.1,17.5,0.3,23.5c0.1,4.7,1,9.4,2.7,13.9c3,7.7,9,13.7,16.7,16.7c4.4,1.7,9.1,2.6,13.9,2.7c6.1,0.3,8,0.3,23.5,0.3
	s17.5-0.1,23.5-0.3c4.7-0.1,9.4-1,13.9-2.7c7.7-3,13.7-9,16.7-16.7c1.7-4.4,2.6-9.1,2.7-13.9c0.3-6.1,0.3-8,0.3-23.5
	S142.5,68,142.3,62c-0.1-4.7-1-9.4-2.7-13.9c-3-7.7-9-13.7-16.7-16.7c-4.4-1.7-9.1-2.6-13.9-2.7C103,28.5,101,28.4,85.5,28.4
	L85.5,28.4z"/>
<path class="st0" d="M85.5,56.2c-16.2,0-29.3,13.1-29.3,29.3s13.1,29.3,29.3,29.3s29.3-13.1,29.3-29.3l0,0
	C114.8,69.3,101.7,56.2,85.5,56.2C85.5,56.2,85.5,56.2,85.5,56.2z M85.5,104.5c-10.5,0-19-8.5-19-19.1c0-10.5,8.5-19,19.1-19
	c10.5,0,19,8.5,19,19C104.6,96,96,104.5,85.5,104.5C85.5,104.6,85.5,104.6,85.5,104.5L85.5,104.5z"/>
<circle class="st0" cx="116" cy="55" r="6.8"/>
</svg>
