<?xml version="1.0" encoding="utf-8"?>
<!-- Generator: Adobe Illustrator 19.2.1, SVG Export Plug-In . SVG Version: 6.00 Build 0)  -->
<svg version="1.1" id="instagram" xmlns="http://www.w3.org/2000/svg" xmlns:xlink="http://www.w3.org/1999/xlink" x="0px" y="0px"
	 viewBox="0 0 100 100" style="enable-background:new 0 0 100 100;" xml:space="preserve">
<style type="text/css">
	.st1{fill:#2e5b66;}
</style>
<path class="st1" d="M70.2,24H29.8c-3.2,0-5.7,2.6-5.7,5.7v40.5c0,3.2,2.6,5.7,5.7,5.7h40.5c3.2,0,5.7-2.6,5.7-5.7V29.7
	C76,26.6,73.4,24,70.2,24z M50,40c5.5,0,9.9,4.5,9.9,9.9c0,5.5-4.4,9.9-9.9,9.9S40,55.5,40,50S44.5,40,50,40z M69.9,67.8
	c0,1.1-0.9,2.1-2.1,2.1H32.2c-1.1,0-2.1-0.9-2.1-2.1V46.1h4.5c-0.3,1.2-0.5,2.5-0.5,3.9c0,8.8,7.1,15.9,15.9,15.9S66,58.7,66,49.9
	c0-1.3-0.2-2.6-0.5-3.9h4.4V67.8L69.9,67.8z M70,37.9c0,1.1-0.9,2.1-2.1,2.1H62C60.9,40,60,39,60,37.9V32c0-1.1,0.9-2.1,2.1-2.1h5.9
	c1.1,0,2.1,0.9,2.1,2.1V37.9z"/>
</svg>
