<svg id="Layer_1" data-name="Layer 1" xmlns="http://www.w3.org/2000/svg" viewBox="0 0 187.15 302.65"><defs><style>.cls-1{fill:#fff;}</style></defs><title>Artboard 25</title><path class="cls-1" d="M16.68,61.41c-1.36,5.24-5.34,11.21-11.52,13,1.36-6.18,1.36-13.93,1.36-23.15V11.52C6.52,5.13,5.06,2.41.13.21V0H18.67V36.06c2.1-8.07,8.91-14.87,18.54-14.87,12.68,0,22.95,9.84,22.95,26.18C60.16,64,49.37,74.51,36,74.51,26.32,74.51,19.09,69.06,16.68,61.41Zm16-34.78c-6.81,0-14,6.5-14,17.08v10C18.67,64,25.8,70.42,32.6,70.42c9.12,0,14.46-8.59,14.46-22.73C47.06,34.49,41.62,26.63,32.71,26.63Z"/><path class="cls-1" d="M123.35,69.79a13.45,13.45,0,0,1-10.47,4.51c-6.5,0-10.06-3.67-10.69-9.22,0-.42-.21-3.35-.21-4.3C100.73,68,93.5,74.19,84.7,74.19c-8.28,0-15.09-4.19-15.09-13,0-11.42,11.74-13.93,24.31-16.24l8-1.46V36.16c0-6.91-3.14-13-10.9-13-6.91,0-9.63,3.77-9.63,8.37,0,3.57,1.78,5.87,4.82,5.87a4.22,4.22,0,0,0,1.57-.31c-.95,3.35-3.88,5.13-7.55,5.13-4.71,0-8.38-3-8.38-8.07,0-7.12,7.86-13,19.38-13,14.67,0,23,5.23,23,17.91,0,8.38-.21,15.19-.21,21.89,0,6.08,1.78,9.33,6.39,9.33a6.68,6.68,0,0,0,2.93-.74ZM95.7,46.64c-9.33,1.89-13.62,5.66-13.62,13,0,6.39,3.35,9.11,8,9.11,6.08,0,11.52-5.23,11.63-13.93l.21-9.32Z"/><path class="cls-1" d="M146.72,22.23V36.48c2.72-9.64,9.42-15.29,18.33-15.29,10.16,0,16.44,6.8,16.44,18.22V62c0,6.91.74,8.91,5.66,11.21v.21H163.68v-.21c4.93-2.3,5.66-4.3,5.66-11.21V39.83c0-6.6-2.62-12.26-9.85-12.26-7.43,0-12.77,6.81-12.77,18V62c0,6.91.73,8.91,5.65,11.21v.21H128.91v-.21c4.92-2.3,5.65-4.3,5.65-11.21V33.76c0-6.29-1.15-9-6.18-11.32v-.21Z"/><path class="cls-1" d="M41.86,98.58c0-6.39-1.36-9.11-6.39-11.31v-.21H54v62c0,6.18,1.15,8.9,6.08,11.21v.21H41.86V146.69c-2.1,8.07-8.8,14.87-18.54,14.87-12.68,0-22.94-9.84-22.94-26.18s10.47-27.14,23.36-27.14c9.53,0,16,6.39,18.12,14.15Zm0,40.78v-9c0-10.79-7.23-17.39-14.14-17.39-8.91,0-14.25,8.59-14.25,22.42,0,13,5.45,20.74,14.35,20.74C34.74,156.12,41.86,149.73,41.86,139.36Z"/><path class="cls-1" d="M67.73,135c0-15.61,11.42-26.72,26.61-26.72S121,119.35,121,135s-11.31,26.6-26.61,26.6S67.73,150.57,67.73,135Zm39.92,0c0-14.56-4.61-24.73-13.31-24.73S81,120.4,81,135s4.61,24.61,13.3,24.61S107.65,149.41,107.65,135Z"/><path class="cls-1" d="M130.76,135c0-15.61,11.42-26.72,26.61-26.72S184,119.35,184,135s-11.31,26.6-26.61,26.6S130.76,150.57,130.76,135Zm39.92,0c0-14.56-4.61-24.73-13.31-24.73s-13.3,10.17-13.3,24.73,4.61,24.61,13.3,24.61S170.68,149.41,170.68,135Z"/><path class="cls-1" d="M18.54,236.35c0,6.91.73,8.9,5.66,11.21v.21H.73v-.21c4.93-2.31,5.66-4.3,5.66-11.21V185.83c0-6.39-1.47-9.11-6.39-11.31v-.21H18.54Z"/><path class="cls-1" d="M85.69,244.1a13.48,13.48,0,0,1-10.48,4.51c-6.49,0-10-3.67-10.68-9.22,0-.42-.21-3.36-.21-4.3C63.06,242.32,55.83,248.5,47,248.5c-8.27,0-15.08-4.19-15.08-13,0-11.42,11.73-13.93,24.3-16.24l8-1.46v-7.34c0-6.91-3.14-13-10.89-13-6.91,0-9.64,3.78-9.64,8.39,0,3.56,1.78,5.86,4.82,5.86a4.18,4.18,0,0,0,1.57-.31c-.94,3.35-3.88,5.13-7.54,5.13-4.71,0-8.38-3-8.38-8.07,0-7.12,7.86-13,19.38-13,14.66,0,23,5.24,23,17.92,0,8.38-.2,15.19-.2,21.89,0,6.08,1.78,9.32,6.39,9.32a6.75,6.75,0,0,0,2.93-.73ZM58,221c-9.32,1.89-13.61,5.66-13.61,13,0,6.39,3.35,9.11,8,9.11,6.07,0,11.52-5.23,11.62-13.93l.21-9.32Z"/><path class="cls-1" d="M78.74,288.44c3.88.5,5.93,3,5.93,6.33,0,4.42-2.92,7.33-9.48,7.33h-11V275.28h11c5.42,0,8.33,2.5,8.33,6.74a6,6,0,0,1-4.83,6.24Zm-4.78-2c2.1,0,3.46-.82,3.46-3s-1.32-3-3.59-3H70.41v6Zm-3.55,10.39h4.37c2.32,0,3.65-.73,3.65-3,0-1.87-1.23-2.87-3.65-2.87H70.41Z"/><path class="cls-1" d="M92,288.71c0-9,4.79-14,12.71-14s12.76,5,12.76,14-4.83,13.94-12.76,13.94S92,297.69,92,288.71Zm6.43.09c0,5.29,2,8.52,6.28,8.52s6.33-3.23,6.33-8.52-2.09-8.56-6.33-8.56S98.42,283.47,98.42,288.8Z"/><path class="cls-1" d="M150,290c.82,3.83,1.27,7.61,1.27,7.61h.18s.37-3.83,1.14-7.56l3-14.8h6.28L156,302.1h-9l-3-13.25a48.53,48.53,0,0,1-1.05-7.52h-.18a50.39,50.39,0,0,1-1.14,7.56L138.4,302.1h-8.7l-5.92-26.82h6.56l3.1,14.75c.82,3.83,1.23,7.61,1.23,7.61h.18s.41-3.83,1.18-7.56l3.28-14.8h7.38Z"/><path class="cls-1" d="M175.84,275.28v21.45h10.47v5.37H169.64V275.28Z"/></svg>