<svg id="Layer_1" data-name="Layer 1" xmlns="http://www.w3.org/2000/svg" viewBox="0 0 187.9 303.86"><defs><style>.cls-1{fill:#fff;}</style></defs><title>Artboard 23</title><path class="cls-1" d="M16.75,61.66c-1.37,5.26-5.36,11.25-11.57,13,1.37-6.21,1.37-14,1.37-23.24V11.57C6.55,5.16,5.08,2.42.13.21V0H18.75V36.2c2.1-8.09,8.94-14.93,18.61-14.93,12.73,0,23,9.89,23,26.29,0,16.73-10.84,27.24-24.3,27.24C26.43,74.8,19.17,69.34,16.75,61.66ZM32.84,26.74c-6.84,0-14.09,6.52-14.09,17.14V54c0,10.31,7.15,16.72,14,16.72,9.15,0,14.51-8.62,14.51-22.82C47.25,34.63,41.78,26.74,32.84,26.74Z"/><path class="cls-1" d="M123.85,70.07a13.54,13.54,0,0,1-10.52,4.52c-6.52,0-10.1-3.68-10.73-9.25,0-.42-.21-3.37-.21-4.31C101.13,68.28,93.87,74.49,85,74.49c-8.31,0-15.15-4.21-15.15-13,0-11.47,11.78-14,24.4-16.31l8-1.47V36.31c0-6.94-3.16-13-10.94-13-6.94,0-9.68,3.79-9.68,8.41,0,3.58,1.79,5.89,4.84,5.89a4.27,4.27,0,0,0,1.58-.31c-1,3.36-3.89,5.15-7.57,5.15-4.74,0-8.42-3-8.42-8.1,0-7.15,7.89-13,19.46-13,14.72,0,23.14,5.26,23.14,18,0,8.42-.21,15.25-.21,22,0,6.1,1.78,9.36,6.41,9.36a6.81,6.81,0,0,0,2.95-.74ZM96.08,46.83c-9.36,1.89-13.67,5.68-13.67,13,0,6.41,3.36,9.15,8,9.15,6.1,0,11.57-5.26,11.68-14l.21-9.36Z"/><path class="cls-1" d="M147.3,22.32V36.63C150,27,156.77,21.27,165.71,21.27c10.2,0,16.51,6.84,16.51,18.3V62.29c0,6.94.74,8.94,5.68,11.25v.21H164.34v-.21c4.94-2.31,5.68-4.31,5.68-11.25V40c0-6.63-2.63-12.31-9.89-12.31-7.46,0-12.83,6.84-12.83,18.1V62.29c0,6.94.74,8.94,5.68,11.25v.21H129.42v-.21c4.94-2.31,5.68-4.31,5.68-11.25V33.89c0-6.31-1.16-9-6.2-11.36v-.21Z"/><path class="cls-1" d="M42,99c0-6.42-1.37-9.15-6.42-11.36v-.21H54.23V149.7c0,6.2,1.15,8.94,6.1,11.25v.21H42V147.28c-2.11,8.09-8.84,14.93-18.62,14.93-12.72,0-23-9.88-23-26.29s10.51-27.24,23.45-27.24c9.57,0,16.09,6.41,18.2,14.2Zm0,40.93v-9c0-10.83-7.26-17.46-14.2-17.46-8.94,0-14.31,8.62-14.31,22.51,0,13,5.47,20.82,14.41,20.82C34.88,156.74,42,150.33,42,139.91Z"/><path class="cls-1" d="M68,135.5c0-15.67,11.46-26.82,26.71-26.82s26.72,11.15,26.72,26.82-11.36,26.71-26.72,26.71S68,151.17,68,135.5Zm40.07,0c0-14.62-4.63-24.82-13.36-24.82s-13.36,10.2-13.36,24.82S86,160.21,94.72,160.21,108.08,150,108.08,135.5Z"/><path class="cls-1" d="M131.29,135.5c0-15.67,11.46-26.82,26.71-26.82s26.72,11.15,26.72,26.82S173.36,162.21,158,162.21,131.29,151.17,131.29,135.5Zm40.07,0c0-14.62-4.63-24.82-13.36-24.82s-13.36,10.2-13.36,24.82,4.63,24.71,13.36,24.71S171.36,150,171.36,135.5Z"/><path class="cls-1" d="M18.62,237.29c0,7,.73,8.94,5.67,11.26v.21H.74v-.21c4.94-2.32,5.68-4.31,5.68-11.26V186.58c0-6.42-1.48-9.15-6.42-11.36V175H18.62Z"/><path class="cls-1" d="M86,245.08a13.51,13.51,0,0,1-10.52,4.52c-6.52,0-10.09-3.68-10.72-9.26,0-.42-.22-3.36-.22-4.31-1.26,7.26-8.51,13.47-17.35,13.47-8.31,0-15.14-4.21-15.14-13.05,0-11.46,11.78-14,24.4-16.3l8-1.47v-7.36c0-6.95-3.15-13-10.94-13-6.94,0-9.67,3.79-9.67,8.42,0,3.57,1.78,5.89,4.83,5.89a4.21,4.21,0,0,0,1.58-.32c-.94,3.37-3.89,5.16-7.57,5.16-4.73,0-8.41-3-8.41-8.1,0-7.15,7.88-13,19.45-13,14.73,0,23.14,5.25,23.14,18,0,8.42-.21,15.25-.21,22,0,6.1,1.79,9.36,6.42,9.36a6.76,6.76,0,0,0,2.94-.73ZM58.27,221.83c-9.37,1.9-13.68,5.68-13.68,13,0,6.41,3.37,9.15,8,9.15,6.1,0,11.57-5.26,11.67-14l.21-9.36Z"/><path class="cls-1" d="M79.06,289.59c3.89.51,5.94,3,5.94,6.36,0,4.44-2.92,7.36-9.51,7.36h-11V276.38H75.54c5.44,0,8.37,2.51,8.37,6.77a6,6,0,0,1-4.85,6.26Zm-4.8-2c2.1,0,3.47-.83,3.47-3s-1.32-3-3.61-3H70.69v6Zm-3.57,10.42h4.39c2.33,0,3.66-.73,3.66-3,0-1.88-1.24-2.89-3.66-2.89H70.69Z"/><path class="cls-1" d="M92.36,289.87c0-9.06,4.81-14,12.76-14s12.81,5,12.81,14-4.85,14-12.81,14S92.36,298.88,92.36,289.87Zm6.45.09c0,5.3,2.06,8.55,6.31,8.55s6.36-3.25,6.36-8.55-2.11-8.6-6.36-8.6S98.81,284.61,98.81,290Z"/><path class="cls-1" d="M150.62,291.19c.82,3.85,1.28,7.64,1.28,7.64h.18s.37-3.84,1.14-7.59l3-14.86h6.31l-5.9,26.93H147.6L144.54,290a49.53,49.53,0,0,1-1.06-7.54h-.18a50.87,50.87,0,0,1-1.14,7.59L139,303.31h-8.74l-5.94-26.93h6.58L134,291.19c.83,3.85,1.24,7.64,1.24,7.64h.18s.41-3.84,1.19-7.59l3.29-14.86h7.41Z"/><path class="cls-1" d="M176.54,276.38v21.54h10.52v5.39H170.32V276.38Z"/></svg>