<svg id="Layer_1" data-name="Layer 1" xmlns="http://www.w3.org/2000/svg" xmlns:xlink="http://www.w3.org/1999/xlink" viewBox="0 0 679.92 256.27"><defs><style>.cls-1{fill:none;}.cls-2{clip-path:url(#clip-path);}.cls-3{fill:#ff6f4a;}</style><clipPath id="clip-path"><rect class="cls-1" x="-1.84" y="0.46" width="683" height="256"/></clipPath></defs><title>Artboard 19</title><g class="cls-2"><path class="cls-3" d="M767.45,49.87c1.43-15.49,2-31.07,2.42-46.63.12-4.74,0-9.49-.2-14.24H755.09c.25,8.51.42,17,.59,25.53.26,12.8.25,25.63-.44,38.4a193.05,193.05,0,0,1-3.77,30.63c-1.76,8.06-3.92,19-8.21,26.12-3.56,5.91-10.81,8.82-15,14.5s-6.66,12.56-10.73,18.38c-2.7,3.85-6.16,6.46-9,9.95-6,7.38-6,18.84-11.33,27.15-5.94,9.36-14.29,17-21.92,24.91-12,12.5-23.86,25.21-35.35,38.2-5.78,6.53-10.59,13.92-15.9,20.87a21.12,21.12,0,0,1-3.74,3.93c-8.7,6.72-17.51,13.3-26.19,20.05-4.67,3.64-8.89,7.9-13.75,11.24-18.24,12.52-37,24.26-57.15,33.51-11.93,5.46-23.52,11.65-35.45,17.09A219.3,219.3,0,0,1,448,363c-27.38,6.6-55.4,7.91-83.28,10-20.38,1.51-40.9,1.08-61.36,1.47a15.54,15.54,0,0,1-5.38-.52c-1.13-.4-2.75-2-2.66-2.83.3-2.89-1.45-3.32-3.44-3.64a180.6,180.6,0,0,1-18.32-4.38c-13.55-3.72-18.69-12.51-29-20.57-12.71-9.92-27.9-16.18-41.42-24.79-3.28-2.08-7.59-5.39-8-8.56-.86-7.22-6.39-8.39-10.9-10.84-17.59-9.56-35.57-18.44-53-28.34-18.12-10.31-35.86-21.44-51.54-35.26-8.82-7.77-16.42-17-24.28-25.78C49.35,202,43.1,195.13,37.94,187.53c-4.72-7-8.28-14.77-11.94-22.4-3.89-8.14-7.67-16.38-10.83-24.82-3.59-9.58-6.49-19.43-9.59-29.19-2.39-7.53-4.8-15.06-6.9-22.67-2.35-8.56-4.11-17.28-6.59-25.8-3.06-10.54-6.53-21-10-31.4-4.61-14.09-10-28-13.82-42.25H-47A447.47,447.47,0,0,0-28.62,80.22c7.55,24.51,14.61,49.14,20.21,74.2,1.27,5.68,2.7,11.42,4.22,17.15C63,306.51,202.24,399.27,363.22,399.27A409.91,409.91,0,0,0,490.57,379c10.75-4.83,21.34-10,32.15-14.73,7.73-3.37,14.83-8.2,22.14-12.5,11.33-6.66,22.77-13.15,33.81-20.27,7.54-4.86,14.58-10.52,21.63-16.09,8.24-6.53,16.61-13,24.28-20.14,8.31-7.77,15.85-16.38,23.8-24.55,7.16-7.35,14.45-14.58,21.63-21.91,1.64-1.69,3-3.7,4.59-5.41,7.76-8.07,15.77-15.72,21.21-25.93,4.91-9.23,11.58-17.56,17.8-26.05,5.1-6.95,10.82-13.43,16-20.34,1.26-1.69,2.55-3.36,3.82-5A407.49,407.49,0,0,0,764.9,72.8C765.86,65.17,766.73,57.53,767.45,49.87Z"/><path class="cls-3" d="M697,10.7c.42,8.54-.83,17.28-2.21,25.78q-4.43,27.2-10,54.22c-.86,4.18-3.55,8.12-6,11.81-7,10.62-11.44,22.37-14.83,34.39-1.79,6.33-4.83,11.77-7.56,17.52-3.75,7.92-6.72,16.26-11,23.87a153.65,153.65,0,0,1-39.41,46.05c-12.46,9.73-24.21,20.45-37.17,29.43-13.42,9.3-27.84,17.19-42,25.38a142.83,142.83,0,0,1-18,8.58c-16.26,6.59-32.4,13.2-49.72,17.25-14.08,3.29-28.11,4.28-42.28,5.75-13,1.35-25.78,4.42-38.72,6.24-20.58,2.91-41.15,6.41-62,4.51s-41.67-7.85-61.19-13.25c-13-3.59-23.14-12.6-34-20.1C203.37,276,181.37,264,167.58,247.31c-3.07-3.72-6.73-7.35-8.46-11.68-2.73-6.8-8.21-10.69-13.13-15.27-4.68-4.36-9.68-8.39-14.12-13-2.52-2.6-3.84-6.35-6.31-9-6.26-6.73-11-14.55-16.52-21.79C104,170,98.4,164,92.92,157.76a71.69,71.69,0,0,0-5.54-5c-2.47-2.27-3.24-4.88-1.26-7.81s1.06-4.91-1.29-7.23A146.53,146.53,0,0,1,72,123.57a125.21,125.21,0,0,0-10.24-11.43c-7.35-7.42-15.15-14.5-21-22.84-8.21-11.81-12.92-25.77-18.37-39a56.06,56.06,0,0,1-4.12-28.6C19.69,10.8,22.06,0,23.09-11H11.67c-.2,1.5-.37,3-.61,4.51-1.91,12-4.34,24-4.2,36.38.27,22.9,6.54,44.3,14.31,65.4,2.93,7.95,7.51,15.3,10.4,23.26,6.56,18.09,13.46,35.84,24.75,51.76a193,193,0,0,0,28,31.93c2.56,2.31,5.35,4.38,7.82,6.78,5.84,5.68,11.32,11.77,17.39,17.19,8.2,7.32,17,14,25.21,21.26,7.4,6.54,14.12,13.86,21.64,20.25,8.15,6.92,16.84,13.23,25.4,19.66,3.44,2.57,7.22,4.68,10.74,7.15,6.15,4.32,12.22,8.75,18.31,13.15,6.87,5,13.49,10.33,20.67,14.79,6.69,4.15,13.68,8.21,21.08,10.74,10.51,3.6,21.52,5.71,32.3,8.53,13.62,3.56,27.43,7.17,41.48,6.47,17.2-.86,34.31-3.53,51.45-5.47,10.1-1.14,20.17-3.23,30.27-3.36A279.81,279.81,0,0,0,471,331.84c8.71-2.12,17.12-5.72,25.47-9.13,13-5.33,26-10.79,38.79-16.75,5.85-2.74,11.21-6.6,16.55-10.3q12.6-8.71,24.84-17.93c4.58-3.43,8.54-7.75,13.3-10.86a165.43,165.43,0,0,0,28-23.46c6.56-6.74,12.87-13.72,19-20.84a106.16,106.16,0,0,0,8.52-11.82c3.91-6,7.64-12.21,11.32-18.41,2-3.44,3.49-7.28,5.79-10.53a123,123,0,0,0,16.19-32.69c2.33-7,4.46-14,7.06-20.9,1.46-3.84,4.44-7.2,5.41-11.11,3.15-12.68,5.8-25.5,8.45-38.31,1.85-8.94,3.72-17.9,5-26.94,1.2-8.64,1.69-17.39,2.38-26.1.66-8.29,1.39-16.58,1.68-24.89.14-3.95.17-7.91.16-11.87H695.65C696.28-3.78,696.68,3.46,697,10.7Z"/><path class="cls-3" d="M637.26,15.83c-6.3,17.71-11.68,35.79-16.68,53.93a190.2,190.2,0,0,1-24.23,53.48,129.81,129.81,0,0,1-30.12,32.21q-27.65,21.23-55.9,41.66c-4,2.89-8.82,4.61-13.34,6.7-7.69,3.54-16.17,5.92-22.92,10.74-4.8,3.43-10.46,5.23-14.69,8.62-11.06,8.87-28.61,7-38.54,16.49l-.17.16c-3.31,3.22.37,6.34-6.19,7.94-10,2.43-20.4,4-29.37,8.89-30.58,16.78-80,19.65-111.93,4.9-5.29-2.45-11.1-3.83-16.21-6.54-8.21-4.36-16.23-9.13-24-14.26-14.09-9.33-28-18.95-41.82-28.67A79.45,79.45,0,0,1,180.86,203c-5-5-9.87-10-14.44-15.33-9.73-11.33-19.48-22.66-28.77-34.35A371.72,371.72,0,0,1,109.49,112c-5.52-9.25-12.56-17.61-19-26.29C86.92,81,82.93,76.5,79.56,71.61a43.76,43.76,0,0,1-5.8-11C70.7,51.15,68.3,41.49,65.48,32c-2.08-7.06-4.4-14-6.6-21.07a34.56,34.56,0,0,1-1.47-5.21A111.62,111.62,0,0,1,56.18-11H45.88A68.21,68.21,0,0,0,47.19,5.47c1.24,5.94,3.74,11.61,5.33,17.49,3.92,14.5,7.32,29.14,11.56,43.54,2.25,7.62,6.8,14.15,11.69,20.57,8.85,11.61,17.64,23.41,24.9,36a348.26,348.26,0,0,0,28,42c9.63,12.24,19.39,24.38,29.06,36.58,5.26,6.64,10.41,13.37,15.71,20,2.51,3.14,4.87,6.59,8,9,10.78,8.55,21.7,17,32.86,25,16.55,11.93,33.81,22.64,53,29.88a284.27,284.27,0,0,0,54.08,15c17.87,2.93,36,4.42,54,.7,13.85-2.86,27.62-6.21,41.32-9.74,7.94-2,15.64-5,23.51-7.35,12.09-3.63,24.39-6.65,36.32-10.76,14-4.84,27.6-11.14,41.71-15.73,12.06-3.92,21.42-12.07,31.93-18.34,8.89-5.3,16.93-12.12,25-18.74,8.44-7,17-14,24.42-22,6.1-6.55,10.8-14.45,15.84-21.94A175.9,175.9,0,0,0,636.64,132c5.79-18,12.38-35.75,18.62-53.61,2.52-7.22,5.87-14.27,7.34-21.69a91.3,91.3,0,0,0,.87-29.9c-1.66-12.53-2.22-25.2-3.31-37.8H642.92A104,104,0,0,1,637.26,15.83Z"/><path class="cls-3" d="M582.68-.49c.68,9.28,1.12,18.6,1.14,27.9,0,2.43-2,4.86-3,7.31a19.51,19.51,0,0,0-1.73,4.92c-1.5,12.86-1.77,26-4.5,38.54-3.48,16.09-8.8,32.28-20.85,44.08-2.52,2.47-6,6.11-9.28,7.57-2.89,1.29-5.62.16-8.63,1.65-3.58,1.78-7.15,6.4-10.16,9.07-7.7,6.82-15.38,13.66-23.32,20.2-11.23,9.26-22.6,18.54-37.14,22.53-4.56,1.25-8.92,3.34-13.53,4.3-10.85,2.25-23.32,1.44-35.69.29-9.7-.91-19.34-2-28.08-2a473,473,0,0,0-69.54,4.72L315.9,192c-.59,1.63-1,2.24-.95,2.75,1.1,6.38-3.34,6-7.14,5.48-8.66-1.23-17.3-2.73-25.88-4.44a171.25,171.25,0,0,1-17-4.35c-17.71-5.43-36.05-12.68-51.37-23.16-2.71-1.86-5.57-3.51-8.4-5.17-4.27-2.49-8.75-4.67-12.85-7.42-10.68-7.17-17.77-17.89-25.89-27.48-3.93-4.63-6-10.88-8.75-16.44-4.23-8.43-8.18-17-12.67-25.29-1.82-3.35-5.26-5.82-7.06-9.18-2.61-4.86-4.36-10.18-6.53-15.28-2.54-6-5.25-11.9-7.63-17.95-.86-2.17-.9-4.64-1.45-6.94a95.72,95.72,0,0,0-4.56-15.4c-2.12-5-1.65-11.17-1.9-16.84q-.34-7.92-.66-15.84H102.11c0,2.59,0,5.19.11,7.78.32,12.38.1,25,2.28,37.05,3.06,16.92,6.33,34,14.81,49.44,6,10.86,11.43,22,16.82,33.16a116.72,116.72,0,0,1,6.17,15.88c3.06,9.76,8.3,18.14,14.87,25.86,5.94,7,11.67,14.14,17.56,21.17a21.06,21.06,0,0,0,3.65,3.34c8.42,6.31,16.88,12.56,25.33,18.84a14.25,14.25,0,0,0,1.68,1.24c13.52,7.08,26.81,14.65,40.66,21,7.49,3.44,15.92,4.84,23.93,7.16,15.2,4.41,30.79,4.62,46.42,4.13,13.77-.43,27.59-.44,41.28-1.79,15.21-1.49,30.39-3.81,45.41-6.67,10-1.9,19.52-5.73,29.4-8.09,13.13-3.12,26.17-6.39,38.68-11.59,13.35-5.54,24.87-13.75,35.51-23.38,2.25-2,4.87-3.67,7.12-5.72,12.26-11.16,24.09-22.82,36.78-33.46,11-9.22,20.11-19.81,25.84-32.76,3.89-8.79,5.76-18.47,8.58-27.74.38-1.25.66-3.11,1.55-3.54,6.5-3.16,6.34-9.76,7.6-15.26s1.4-11.61,1.53-17.45c.3-13.37,1-26.77.26-40.1-.32-6.18-.72-12.35-1.16-18.52H581.86C582.13-7.49,582.42-4,582.68-.49Z"/><path class="cls-3" d="M507.16,7.82c-.64,21.58-.37,43.2-.31,64.8,0,5.29.78,10.29-3.74,14.67-1.91,1.86-1.67,5.77-2.87,8.55-2.79,6.47-5.22,13.23-9,19.06-4.76,7.28-17.17,16.6-25.31,19.12s-20.1,6-28.68,6.88c-5.66.58-11.56-.46-17.27-1.34-4.86-.75-9.55-2.51-14.4-3.38a24.14,24.14,0,0,0-8.22.08c-8.73,1.53-16.95.2-25.25-2.78A67.12,67.12,0,0,0,355,130.06c-16.49-1.34-33-2.25-49.52-3.16-1.92-.1-3.9.84-5.84,1.34-1.06.27-2.15,1-3.14.87-7.67-.93-15.53.1-23-3.24-3.82-1.7-8.44-1.52-12.6-2.56-2.78-.69-6.13-1.34-7.92-3.24-4.54-4.81-9.9-7.56-16.05-9.68-3.22-1.12-6.11-3.82-8.56-6.37-5.1-5.29-9.8-11-14.67-16.48a1.58,1.58,0,0,1-.27-.31c-2.39-5-7.1-8.08-10.26-12.16-6-7.76-12.1-15.95-14.6-25.86-.87-3.48-1.52-6.82-4.15-9.67-1.36-1.47-1.79-4.08-2.05-6.24-1.31-10.89-2.3-21.81-3.64-32.69-.48-3.88-1.07-7.74-1.66-11.61h-17c.85,8.5,1.95,17,3.11,25.45,2,14.6,4.11,29.21,7,43.66,2.17,10.87,7.51,20.43,14,29.6,8.76,12.41,17.42,24.76,27.66,36.07,12.77,14.11,28.73,23.11,46.26,28.83,11.75,3.84,24.44,5.28,36.84,6.56,21.71,2.24,43.51,3.87,65.3,5.11,11.09.63,22.27-.4,33.39-.2,9.73.18,19.45,1,32.38,1.79,4.15-.92,11.7-1.54,18.34-4.32a294,294,0,0,0,32.32-16.24,82.77,82.77,0,0,0,20.59-16.21c5.75-6.4,7.5-15.31,12.81-21.34,2.13-2.42,4.54-1.24,6.68-3.47,9.47-9.88,13.4-25.51,20.74-37.05,5.73-9,10.13-18.1,8.19-29.18a86.71,86.71,0,0,1-1.11-10.79c-.6-12.75-1.09-25.51-1.6-38.27h-36A184,184,0,0,1,507.16,7.82Z"/><path class="cls-3" d="M464.23,10c.08,2.46,0,5.28-1.13,7.38C456,30.83,447.68,55.94,434.3,67.1a25.87,25.87,0,0,1-6.53,4.06c-11.95,5-26.14,8.65-39.19,7-12.26-1.52-15.64-7.42-23.86-14.22-2.15-1.77-1.29-5.1-3.23-7.43-1.58-1.89-5-2-6.68-4-1.42-1.68.74-3.6-1.91-6.41-6.41-6.83-25.21-10.73-33.95-10.71-5.46,0-10.27-2.11-14.77-5.84C292.6,20,274.33,23,263.64,9.5,258.93,3.57,261.52-4,266.38-11H240.85c-1.58,9.77-2.29,19.72-3.59,29.55-1.73,13.1-2.42,26.24,4,38.31,3.62,6.8,7.71,14,13.42,19,12.69,11,28.25,16.43,45.14,18.3a151.32,151.32,0,0,1,23.24,4.36c10.07,2.76,19.89,6.43,29.84,9.65,12.8,4.14,26,6.76,39.4,5.89,6.51-.43,12.92-3.08,19.25-5.09,2.94-.93,5.52-2.91,8.39-4.09,8.66-3.57,18.3-5.55,24-13.95,3.64-5.37,7.44-10.72,10.28-16.51C461,60.6,467.76,46.76,473.46,32.51c2.5-6.26,2.73-13.52,3.33-20.38.52-5.88-.35-11.88.2-17.75A30.15,30.15,0,0,0,477-11h-20.3C460.92-4.87,464,2,464.23,10Z"/><path class="cls-3" d="M404,26.14c-4.93,5.43-13.78,4.6-19.74,1.32-6.19-3.42-12.85-6.28-18.34-10.61a147.09,147.09,0,0,1-19-18.53c-1.6-1.84-1.18-6-.7-9,0-.11.06-.21.08-.32H335.76c-.24,1.31-.52,2.59-.67,4-.45,4.17.33,9.41,2.63,12.74,3.81,5.51,9.29,9.88,14.09,14.71,7.58,7.66,17.32,12,26.45,17.3,8.45,4.92,17,7.43,26.45,3.23a89,89,0,0,0,8.22-4.64c5.87-3.39,8.18-9,8.67-15.27.94-12.23-4.12-22.6-11.18-32.06H387.66C392.39-8.53,413.76,4.07,404,26.14Z"/></g></svg>