<?xml version="1.0" encoding="utf-8"?>
<!-- Generator: Adobe Illustrator 22.0.1, SVG Export Plug-In . SVG Version: 6.00 Build 0)  -->
<svg version="1.1" id="Layer_1" xmlns="http://www.w3.org/2000/svg" xmlns:xlink="http://www.w3.org/1999/xlink" x="0px" y="0px"
	 viewBox="0 0 682.2 257.3" style="enable-background:new 0 0 682.2 257.3;" xml:space="preserve">
<style type="text/css">
	.st0{fill:#FF6F4A;}
</style>
<title>Artboard 17</title>
<g>
	<path class="st0" d="M-48.9,82.3c0.5-15.2,0-30.5,3.5-45.6c2.9-12.6,5.1-25.3,6.6-38.1c0.1-2,0.4-4,1-6c9-1.3,19.6-1.6,28.1,0.6
		c0.2,11.8-3.7,23.5-4.7,35.3c-0.4,5-2.2,9.9-3.5,14.7c-3.1,11.9-2.7,24.1-2.3,36.2c0.5,12.8,2.7,25.6,4,38.4
		c1.1,11,1.3,22.2,3.3,33c2.8,14.8,8.6,28.7,15.1,42.3c5.5,11.3,13.2,20.7,22.4,28.9c12.2,10.9,25,21.2,37.6,31.7
		c9.5,8,18.5,16.6,28.4,24c22.4,16.6,44.8,33,69.7,46c14,7.3,28.7,12.9,43.4,18.4c15.4,5.9,30.8,12,46.4,17.4
		c7.8,2.7,16.2,3.4,24.1,5.7c15.3,4.5,31,5.3,46.7,6.5c17.9,1.3,36,1.6,53.9,2c12.2,0.2,24.5,0.2,36.8-0.4
		c9.9-0.4,19.7-1.6,29.3-3.6c9.5-2.1,18.8-5.7,28.1-9c1.2-0.4,2.3-2.5,2.7-4c1-4,3.4-6.3,7-8.1c5.3-2.7,10.3-6,15.3-9.1
		c1.1-0.7,1.7-2.1,2.7-3.4c4.7,1.5,9-2,12.3-11.8l3.3,1.6c2-3.2,4.9-2.5,7.9-2.1c1.9,0.1,3.8-0.4,5.4-1.5
		c11.4-7.1,21.4-16.1,31.1-25.4c12-11.5,24.1-22.8,36.6-33.8c6.2-5.5,13.3-10.1,20-15.2c1.4-1,2.7-2.2,3.8-3.6
		c6.4-8.3,12.7-16.8,19.2-25.1c3.5-4.5,7.6-8.5,10.8-13.2c12-17.5,23.2-35.4,32.1-54.7c5.2-11.4,11.2-22.5,16.4-33.9
		c5.5-12.2,9.8-25,12.9-38c6.3-26.2,7.6-53,9.6-79.7c0.2-2.5,0.3-5,0.4-7.5h29.8c-0.2,5.4-0.3,10.8-0.6,16.2
		c-0.3,7.6-2.2,15-2.5,22.6c-1,18.6-4,37.1-8.8,55.1c-6,22.8-17.4,43.3-26.7,64.7c-3.2,7.4-7.8,14.2-12,21.2
		c-6.4,10.8-12.6,21.8-19.4,32.4c-4.7,7.2-10.1,13.9-15.4,20.7c-6.2,7.9-12.4,15.9-19.3,23.2c-7.4,8-15.7,15.2-23.5,22.8
		c-7,6.9-14,13.8-21,20.7c-1.6,1.6-3.5,2.8-5.2,4.4c-7.7,7.4-15,15.1-24.8,20.3c-8.8,4.7-16.8,11.1-24.9,17
		c-6.7,4.9-12.9,10.4-19.5,15.3c-6.1,4.6-12.1,9.5-18.9,12.9c-9.5,4.7-19.5,8.4-29.5,12c-5.7,2.3-11.6,3.9-17.7,5
		c-16.6,2.5-33.2,4.8-50,6.3c-14.8,1.4-29.7,1.9-44.6,2.3c-9.5,0.2-19-0.5-28.5-0.8c-3.8-0.1-7.7,0.2-11.5-0.1
		c-5.5-0.4-10.9-1.4-16.3-1.6c-5.6-0.2-11.3,0.7-16.9,0.3c-5.1-0.4-10.2-2.9-15.1-2.5c-5.7,0.6-10.2-3.4-16-2.2
		c-4,0.8-8.5-1.1-12.8-2c-1.9-0.4-4.3-0.9-5.5-2.1c-2.5-2.6-5.2-1.8-8.1-2c-2.7-0.1-5.3-1-8.6-1.7l2.4-1.8c-2.7,0-5.1,0.4-7.2-0.1
		c-4.9-1.2-9.6-2.8-14.4-4.3c-6.8-2.1-13.5-4.2-20.2-6.4c-4.5-1.3-8.9-2.9-13.1-4.8c-2.2-1.1-3.3-4.3-5.4-5.4
		c-7.2-3.6-14.6-6.9-21.9-10.1c-5.3-2.3-10.9-4-15.9-6.8c-7.4-4.1-14.2-9-21.4-13.5c-3.9-2.4-8.3-4-12-6.6
		c-9.2-6.5-18.2-13.4-27.2-20.1c-2.4-1.8-6.2-3.8-6.5-6.1c-0.4-4-2.9-5.7-5.3-7.8c-3.3-2.9-6.9-5.5-10.1-8.5
		c-5.4-5.1-10.2-10.7-16.4-15.1c-33.5-40.1-59-86.3-75.2-136c-0.2-8.6-1-17.2-2.2-25.8C-48,89.7-49,86-48.9,82.3z"/>
	<path class="st0" d="M40.4,6.2c-0.7,12-1,24-1.9,35.9c-0.5,8.1-1.5,16.1-2.8,24.1c-2.5,14-0.2,27.5,2.8,41.1
		c2,9.2,7.7,16.3,12.5,24c9.2,15,18.3,30.1,28.1,44.7c5,7.5,11.2,14.2,17.3,20.9c6.8,7.6,13.5,15.6,21.3,22.1
		c9.9,8.1,20.3,15.6,31.2,22.2c16.2,10,33.2,18.7,49.5,28.7c23.1,14,48.3,24.2,74.6,30.1c4.8,1.1,9.4,3.1,14.2,4.2
		c9.8,2.3,19.8,4,29.6,6.6c17.9,4.7,36.3,5.9,54.6,6.8c8.2,0.4,16.5-0.8,24.7-2.1c17.3-2.8,34.6-6,51.9-9.5c4-0.8,7.8-3.4,11.3-5.7
		c10.2-6.6,21.4-11,32.9-14.2c6.1-1.7,11.3-4.6,16.8-7.2c7.6-3.6,15.6-6.4,22.8-10.6c17-9.5,32-22.3,44.1-37.7
		c9.3-11.9,19.6-23.2,28.2-35.6c8.9-12.8,16.5-26.6,24.3-40.2c3.1-5.5,5.9-11.3,8.2-17.2c6.3-15.6,12.6-31,16.5-47.6
		c3.2-13.5,4.1-26.9,5.5-40.5c1.3-12.4,4.2-24.7,6-37c1-6.7,1.2-15,7.8-19.3c17.3-11.2,18.1,7.5,16.9,18.9c-1.1,9.7-3.1,19.3-3.2,29
		c-0.1,20.3-2.5,40.5-7.2,60.2c-2,8.3-5.5,16.4-8.7,24.4c-5.1,12.5-10.3,24.9-16,37.1c-2.6,5.6-6.3,10.7-9.8,15.8
		c-5.6,8-11.3,16-17.2,23.8c-3.3,4.4-7.4,8.2-10.4,12.7c-6.5,9.7-14,18.7-22.5,26.8c-6.5,6.3-13.1,12.3-19.9,18.2
		c-3.6,3-7.4,5.7-11.3,8.1c-5.8,3.8-11.7,7.3-17.6,10.8c-3.3,2-7,3.3-10.1,5.5c-9.6,6.7-20.1,11.9-31.3,15.5
		c-6.7,2.2-13.4,4.3-20,6.8c-3.7,1.4-6.9,4.2-10.6,5.2c-12.1,3-24.4,5.6-36.7,8.1c-8.6,1.8-17.1,3.6-25.8,4.8
		c-8.3,1.1-16.6,1.6-25,2.3c-7.9,0.6-15.9,1.3-23.8,1.6c-7.6,0.3-15.1,0.1-22.7,0c-8.7-0.2-17.5,0-26.1-1c-11-1.4-22-3.8-32.9-6.1
		c-8.8-1.9-17.5-4.2-26.2-6.6c-5.6-1.5-11-3.5-16.9-5.4v4.3c-0.8-0.4-1.7-0.8-2.5-1.2c-0.4-0.3-0.9-0.6-1.4-0.8
		c-6.6-2.1-13.2-4-19.7-6.3c-9.4-3.3-19-6.3-28.1-10.3c-8.8-3.9-17.2-8.8-25.7-13.5c-9.1-5.1-18.2-10.5-27.2-16
		c-11.6-7.1-23.2-14.1-34.5-21.6c-8.4-5.5-16.5-11.6-24.7-17.6c-2.2-1.6-3.8-3.7-2.1-6.8c0.4-0.8-0.4-2.5-1.1-3.5
		c-4.1-5.6-8.3-11-12.4-16.6c-0.4-0.6-0.9-1.7-0.7-2.1c2.1-3.1-0.3-5.3-1.8-7c-10.9-12.1-17.9-26.7-27.1-39.9
		c-2.6-3.8-4.6-8.1-6.6-12.3c-2.9-6-5.5-12.2-8.5-18.3c-2.7-5.3-5.6-10.3-8.4-15.5c5.9-1.8,4.4-6.2,4.1-9.3
		c-1.6-14.7,0.4-29,3.2-43.2c1.2-5.8,3.1-11.5,4.3-17.3c0.9-4,1-8.2,1.6-12.2c1-6.2,3.4-12.5,2.8-18.6C20.5,0,20.7-4,21.4-8h19.8
		C40.9-3.2,40.7,1.5,40.4,6.2z"/>
	<path class="st0" d="M78.3-1.4c-4.1,15.2-3,30.5-2.1,45.9c0.4,7,0.1,14.2,1.3,21.1c3.4,18.6,6.2,37.4,14.7,54.6
		c0.9,1.9,2.2,3.6,3.7,5.1c3.6,3.5,7.4,6.8,11.1,10.1l1-0.6c-1.3-2.6-2.7-5.1-3.8-7.8c-6-13.5-12.5-26.9-14.2-41.8
		c-1.5-12.6-3-25.2-3.8-37.8c-1.1-15.8,0.4-31.4,3.2-47c3.5-19.7,55.6-7.9,68.7-9.1c0.4,3-0.2,5.5-0.6,8.5
		c-1.7,11.5-4,23.1-4.3,34.7c-0.6,21.7,0.5,43.5,6.7,64.6c5.3,17.8,14.9,32.8,29.9,44.3c13.8,10.5,28.4,19.3,44.9,24.8
		c2.6,1,5.1,2.4,7.4,3.9c11.7,7.3,23.3,15,35.2,22c10.5,6.2,22.4,8.7,34.4,9.8c16.3,1.6,32.7,2.9,49,4.1c8.9,0.6,17.8,1.1,26.7,1.1
		c2.3,0,4.6-1.9,7-2.9c1.5-0.8,3.1-1.3,4.7-1.7c12.3-1.4,24.9-1.7,36.9-4.3c18.2-3.9,35.8-9.9,47.4-26.2c1.4-2,4.2-3.9,1.3-6.9
		c-0.2-0.2,0.2-1.5,0.7-2.1c9.9-11.3,20.1-22.4,29.6-34c8.9-10.8,17.8-21.6,21.6-35.5c1.2-4.4,3.2-8.6,4.1-13
		c0.7-3.2,0.2-6.7,0.2-10c0-0.7,0-1.3,0-2c0.6-7.4,1.3-14.9,1.9-22.3c-1.4,4.6-5,4.4-9.2,4.2c4.6,0.2,5.6-48.6,8-52.8
		c7.3-12.7,30.4-9.5,42-6.7c0.9,14-3,29.4-5.6,43.2c-1.8,9.5-5.5,18.7-7.7,28.1c-3,12.6-6.1,25-11.1,37c-5.3,12.8-13.2,23.8-22.4,34
		c-2,2.2-3.5,4.7-5.5,6.8c-10.7,11.7-21.9,23-32,35.2c-8.8,10.5-19,19.2-31.4,24.7c-8.4,3.7-17.7,5.5-26.5,8.2
		c-1.2,0.4-3,0.6-3.4,1.5c-3,6.2-9.3,6.1-14.6,7.3s-11.1,1.4-16.7,1.5c-12.8,0.3-25.6,0.9-38.4,0.2c-20.8-1.1-41.5-3-62.2-4.8
		c-16.8-1.5-33.6-3.2-50.4-5.1c-6-0.7-12-2-17.8-3.8c-3.5-1-6.6-3.3-9.8-5.1c-5.2-2.9-10.3-5.9-15.4-8.9l-0.6,0.8l6.6,5.9l-0.6,0.9
		c-2-1.2-4.1-2.3-6-3.6c-6.8-4.7-13.5-9.5-20.3-14.2c-1.1-0.7-2.3-1.2-3.6-1.6c-7.5-2.2-15.1-4.2-22.5-6.6
		c-6.6-2.1-13.4-3.9-19.4-7.3c-7-4-13.2-9.4-19.7-14.3c-2.8-2.1-5.6-4.5-9-7.4c0.2,0.7,0.5,1.4,0.8,2c8.2,12.2,18.3,23.2,29.8,32.4
		c12,9.7,22.9,20.8,34.7,30.8c6.3,5.3,13.4,9.6,20.1,14.5c8.6,6.2,17.3,12.4,25.7,18.9c7.5,5.8,16.5,7.5,25.4,9.1
		c22.1,3.9,44.3,6.9,66.4,10.8c18.9,3.3,37.3,2.7,55.6-3.8c17-6,34.3-11.2,51.6-16c18.1-5,35.4-12.8,51.1-23.1
		c11.8-7.8,22.3-17.5,30.8-28.8c13.5-17.6,26.8-35.5,39.9-53.5c2.8-3.8,4.4-8.4,6.4-12.8c3.4-7.4,5.7-15.5,10.3-21.9
		c3.3-4.6,5-10,8.2-14.1c8.7-10.8,8.8-24.6,14.5-36.3c0.1-0.2,0.3-0.5,0.7-1.1c4.8,1.1,7.2-0.9,8.3-5.6
		c3.7-15.1,10.4-29.5,11.9-45.2c0.4-2.4,0.9-4.8,1.6-7.2c1.3,0.5,2.1,0.8,3,1.1c3.1,1,5-0.2,5.4-3.3c0-0.1,0-0.3,0-0.4h31.4
		c-0.2,5.9-0.8,11.9-2,17.7c-2.7,13.2-5.9,26.4-9.3,39.5c-2,7.6-4.8,15-7,22.5c-3.5,11.6-6.4,23.3-10.3,34.8
		c-4.7,13.5-10.7,26.5-15.1,39.9C604,158,596.2,167,590.2,177c-5.1,8.5-11.6,16.2-17.9,23.9c-6.7,8.1-13.4,16.3-21,23.4
		c-6.3,5.8-13.8,10.3-21,15.2c-13.2,8.7-27.6,15.6-42.8,20.3c-17.2,5.5-34.2,11.9-51.3,17.8c-6.9,2.4-13.6,5.6-20.8,7
		c-9.4,1.8-19.1,2.1-28.6,0.8c-14.3-1.9-28.8-2.2-43.2-3.8c-13.4-1.5-26.8-3.6-40.2-5.6c-13.7-2-27.5-3.5-40.9-6.7
		c-22.1-5.4-43.9-11.9-65.8-18.1c-6.5-1.9-14.2-7.9-17.6-13.1l5.8,2c-0.6-1.9-0.9-3.3-1.5-4.7c-1-2.3-1.6-5.1-3.3-6.6
		c-3.7-3.2-8.2-5.4-12-8.5c-5.3-4.2-10.4-8.7-15.1-13.5c-6.4-6.8-12.2-14.3-18.4-21.2c-3.3-3.7-7.4-6.8-10.7-10.6
		c-8-9.2-15.7-18.8-23.7-28c-4.7-5.4-10.8-9.8-14.6-15.7c-4.4-6.8-7.5-14.6-10.2-22.4s-4-15.7-5.9-23.6c-1.2-5.2-2.8-10.3-3.3-15.6
		c-1-10.3-1.6-20.7-1.7-31c-0.1-10.2,0.4-20.4,1.2-30.5c0.5-5.4,1.5-10.7,2.4-16h11.5C79.3-5.7,78.9-3.5,78.3-1.4z"/>
	<path class="st0" d="M256.1,29.1c3.7,9,7.5,17.8,13.5,25.7c4.2,5.5,6.9,12.3,10,18.6c4.7,9.7,9.1,19.5,13.7,29.3
		c5.4,11.4,15.1,18.2,25.7,24.2c15.5,8.8,32.3,9.5,49.5,9c20.7-0.6,41.4-0.4,62-0.3c5.1,0,9.8,0.7,14-3.6c1.8-1.8,5.5-1.6,8.2-2.8
		c6.2-2.7,12.7-5,18.2-8.7c3.9-2.5,6.6-6.9,9.5-10.7c2.7-3.5,5.1-7.2,7.2-11.1c1.4-2.7,4.8-5,2-9.1c-0.7-1,1.1-3.8,1.7-5.8
		c1.6-5,4-9.9,4.5-15c0.5-5.4-0.5-11.1-1.3-16.5c-0.7-4.7-2.4-9.1-3.2-13.8c-0.4-2.6-0.4-5.3,0.1-7.9c1.5-8.4,0.2-16.2-2.7-24.2
		c-1.6-4.7-2.6-9.6-3-14.5h32.3c0.1,1,0.2,2.1,0.2,3.1c0.6,10.6-0.4,21.3-0.2,32c0.2,9.3,1,18.6,1.7,31c-0.9,4-1.5,11.2-4.1,17.6
		c-4.5,10.6-9.7,20.9-15.5,30.9c-7.8,13.7-18.4,24.8-33.3,31.1c-2.2,0.9-5.4,0.9-4.5,5.1c0.2,0.9-1.8,2.7-3.2,3.6
		c-3.6,2.2-7.5,3.9-11.2,6c-7.5,4.1-15.2,8-22.4,12.6c-8.6,5.5-17.3,9.7-27.9,7.8c-3.4-0.6-6.9-0.9-10.3-1.1
		c-12.2-0.6-24.5-1.1-36.7-1.5c-7.6-0.3-15.2-0.8-22.7-0.8s-15.1,0.8-22.7,0.5c-14.6-0.6-28.5-4.2-40.6-12.9
		c-6.7-4.7-13.1-9.9-19.2-15.4c-4.4-4-7.9-8.9-11.6-13.7c-1.9-2.6-3.5-5.3-4.8-8.2c-3.6-7.7-7-15.5-10.4-23.3
		c-0.7-1.7-1.3-3.6-1.6-5.4c-0.6-3.4-0.6-6.9-1.6-10.2c-1-4.2,0.7-8.5,4.2-10.9c1.6-1,2.8-2.6,3.3-4.4c1.2-5.5,2.1-11,6.3-15.3
		c1.2-1.3,1.9-2.9,2-4.6c0.1-7.8-0.5-15.7-0.3-23.5c0.2-8.5,1.1-17,1.6-25.4c0.1-1.6,0.2-3.1,0.3-4.7h17.4
		C250.2,4.7,251.2,17.1,256.1,29.1z"/>
	<path class="st0" d="M412-2c1,2.4,2.2,4.5,5.6,3.6c1.1,0,2,0.6,2.6,1.5c1.9,8.3,3.6,16.6,5.4,24.9c0.5,2.4-0.8,5.5,2.9,6.5
		c0.3,0.1,0.6,1.3,0.4,1.8c-1.3,3.1-0.2,5,3.7,6.2c-4,3.9-3.7,9.3-7.9,13c-5.4,4.7-5,6.6-0.8,11.5c0.1,0.3,0.3,0.7,0.3,1.1
		c-1.7,1.5-3.5,2.8-5.4,4c-3.3,1.7-7,2.8-10.3,4.6c-10.8,5.8-21.4,11.8-32.3,17.4c-2,1-4.6,1.1-6.9,1c-11.7-0.4-20.9-7-28.8-14.3
		c-13-12.2-21.1-27.6-24.8-45.2c-1.2-5.9-2.1-11.8-3.5-17.6c-2.3-8.5-3.8-17.2-4.5-26H282c0,1.9,0.1,3.8,0.3,5.7
		c0.8,5.5-0.8,11.4,0.6,16.6c2.8,10,3.3,20.1,4.6,30.3c0.3,2.2,1.4,4.3,2.2,6.4c2.2,5.6,3.6,11.6,6.8,16.5
		c4.5,6.9,9.6,13.4,15.4,19.2c4.9,5.1,10.5,9.4,16.6,12.9c7.9,4.2,16.1,8.4,25.8,7.5c5.5-0.5,11.2,0.3,16.7-0.2
		c6.5-0.6,13.3-0.8,19.2-3.1c13.4-5.3,26.4-11.6,39.4-17.8c5.4-2.6,10.5-6.2,15.5-9.5c7.9-5.3,9.8-14.2,13.1-22.2
		c1.1-2.7,3-5.1,3.9-7.8c1.9-5.9,4.4-11.8,4.8-17.8c0.8-12.2-0.9-26.4-6.5-37.3c0,0-45.3,1.6-47.1,4S412-2,412-2z"/>
	<path class="st0" d="M348.4-4c2.9,7,6.2,13.8,9.8,20.5c1.2,2.4,2.7,4.9,6.3,4.6c0.7-0.1,1.8,1.6,2.5,2.6c1.9,2.8,3.2,6.1,5.5,8.6
		c4,4.2,7.9,3.8,12.6,0.4c2.3-1.7,5.3-2.2,8.6-3.6v4.8c0.4-0.2,0.7-0.4,1-0.7c4.4-6.1,4.3-12.5,0.8-19c-3.3-5.9-6-12.3-10.2-17.5
		c-1.3-1.5-2.7-3-4-4.5h14.5c3.5,5.3,6.3,10.9,9.5,16.4c4.7,8.1,7.1,16.3,3.1,25.3c-1.3,2.7-2.8,5.3-4.4,7.9
		c-3.2,5.6-8.7,7.8-14.6,8.3c-11.9,0.9-22-4.1-31.1-11c-2-1.7-3.7-3.8-4.9-6.2c-4.2-7.3-8-14.8-12.2-22.1c-3.4-6-5.7-12.1-6-18.5
		h12.5C347.6-6.6,347.9-5.3,348.4-4z"/>
</g>
</svg>
