<?xml version="1.0" encoding="utf-8"?>
<!-- Generator: Adobe Illustrator 22.1.0, SVG Export Plug-In . SVG Version: 6.00 Build 0)  -->
<svg version="1.1" id="Layer_1" xmlns="http://www.w3.org/2000/svg" xmlns:xlink="http://www.w3.org/1999/xlink" x="0px" y="0px"
	 viewBox="0 0 171 171" style="enable-background:new 0 0 171 171;" xml:space="preserve">
<style type="text/css">
	.st0{fill:#2E5B66;}
</style>
<title>Artboard 23 copy 2</title>
<path class="st0" d="M136.1,54.1c-3.8,1.7-7.8,2.8-11.9,3.3c4.3-2.6,7.6-6.7,9.1-11.5c-4.1,2.4-8.5,4.1-13.2,5
	c-7.9-8.4-21-8.8-29.4-0.9c-5.4,5.1-7.7,12.6-6,19.8C68.1,69,52.5,61.2,42,48.2c-5.5,9.5-2.7,21.6,6.4,27.7c-3.3-0.1-6.5-1-9.4-2.6
	v0.3c0,9.9,7,18.4,16.6,20.3c-3.1,0.8-6.3,1-9.4,0.4c2.7,8.5,10.5,14.3,19.4,14.4c-8.7,6.8-19.7,9.9-30.7,8.6
	c9.5,6.1,20.5,9.3,31.8,9.3c38.2,0,59-31.6,59-59c0-0.9,0-1.8-0.1-2.7C129.8,61.9,133.3,58.3,136.1,54.1"/>
</svg>
