<?xml version="1.0" encoding="utf-8"?>
<!-- Generator: Adobe Illustrator 19.2.1, SVG Export Plug-In . SVG Version: 6.00 Build 0)  -->
<svg version="1.1" id="twitter" xmlns="http://www.w3.org/2000/svg" xmlns:xlink="http://www.w3.org/1999/xlink" x="0px" y="0px"
	 viewBox="0 0 100 100" style="enable-background:new 0 0 100 100;" xml:space="preserve">
<style type="text/css">
	.st1{fill:#2e5b66;}
</style>
<path class="st1" d="M76,33.8c-1.9,0.9-4,1.4-6.1,1.7c2.2-1.3,3.9-3.4,4.7-5.9c-2.1,1.2-4.3,2.1-6.8,2.6c-1.9-2.1-4.7-3.4-7.8-3.4
	c-5.9,0-10.7,4.8-10.7,10.7c0,0.8,0.1,1.7,0.3,2.4c-8.9-0.4-16.7-4.7-22-11.2c-0.9,1.6-1.4,3.4-1.4,5.4c0,3.7,1.9,7,4.7,8.9
	c-1.7-0.1-3.4-0.5-4.8-1.3c0,0,0,0.1,0,0.1c0,5.2,3.7,9.5,8.5,10.5c-0.9,0.2-1.8,0.4-2.8,0.4c-0.7,0-1.4-0.1-2-0.2
	c1.4,4.3,5.3,7.4,10,7.4c-3.6,2.9-8.2,4.6-13.2,4.6c-0.9,0-1.7-0.1-2.5-0.1c4.7,3,10.3,4.8,16.3,4.8c19.6,0,30.3-16.3,30.3-30.5
	c0-0.5,0-0.9,0-1.4C72.7,37.8,74.5,35.9,76,33.8z"/>
</svg>
